<?xml version="1.0" encoding="UTF-8" standalone="no"?>
<svg
   xmlns:dc="http://purl.org/dc/elements/1.1/"
   xmlns:cc="http://creativecommons.org/ns#"
   xmlns:rdf="http://www.w3.org/1999/02/22-rdf-syntax-ns#"
   xmlns:svg="http://www.w3.org/2000/svg"
   xmlns="http://www.w3.org/2000/svg"
   xmlns:sodipodi="http://sodipodi.sourceforge.net/DTD/sodipodi-0.dtd"
   xmlns:inkscape="http://www.inkscape.org/namespaces/inkscape"
   inkscape:version="1.0beta2 (2b71d25, 2019-12-03)"
   height="60.700001"
   width="600"
   sodipodi:docname="activecampaign.svg"
   xml:space="preserve"
   viewBox="0 0 600 60.700001"
   y="0px"
   x="0px"
   id="layer"
   version="1.1"><metadata
   id="metadata19"><rdf:RDF><cc:Work
       rdf:about=""><dc:format>image/svg+xml</dc:format><dc:type
         rdf:resource="http://purl.org/dc/dcmitype/StillImage" /><dc:title></dc:title></cc:Work></rdf:RDF></metadata><defs
   id="defs17" /><sodipodi:namedview
   inkscape:current-layer="layer"
   inkscape:window-maximized="0"
   inkscape:window-y="23"
   inkscape:window-x="0"
   inkscape:cy="32.723525"
   inkscape:cx="221.90148"
   inkscape:zoom="1.5996933"
   showgrid="false"
   id="namedview15"
   inkscape:window-height="995"
   inkscape:window-width="2034"
   inkscape:pageshadow="2"
   inkscape:pageopacity="0"
   guidetolerance="10"
   gridtolerance="10"
   objecttolerance="10"
   borderopacity="1"
   inkscape:document-rotation="0"
   bordercolor="#666666"
   pagecolor="#ffffff" />
<style
   id="style10"
   type="text/css">
	.st0{fill:#356AE6;}
</style>
<path
   inkscape:connector-curvature="0"
   id="path12"
   d="m 450.1,0.3 c 2.2,0 2.6,1.3 2.6,2.4 v 4 h -4.1 c -2.1,0 -2.5,-1.2 -2.5,-2.3 V 0.3 Z m -0.3,13.2 c 1.7,0 2.6,0.9 2.6,2.5 v 33.7 h -3.7 v -0.1 c -1.3,-0.1 -2.2,-1.1 -2.2,-2.5 V 13.5 Z M 252.4,39.8 c 1.3,1.2 1.6,1.6 1.7,1.7 l 0.1,0.2 -0.2,0.2 c -5.8,6 -11.5,8.6 -19.3,8.6 -14,0 -24.5,-10.8 -24.5,-25.2 C 210.2,11.1 221,0 234.8,0 c 9.5,0 14.7,3.7 19,7.8 L 254,8 253.8,8.2 c 0,0 -1.1,1.2 -2.1,2.2 -1.2,1.3 -2.8,1 -3.8,0.1 -4,-3.4 -8.2,-4.9 -13.2,-4.9 -10.5,0 -18.3,8.4 -18.3,19.5 0,11.1 8.1,19.7 18.3,19.7 5.2,0 9.1,-1.5 13.4,-5.1 1.1,-1 3,-1.2 4.3,0.1 z M 341,12.6 c 8.4,0 13.6,5.6 13.6,14.6 v 22.3 h -3.1 c -2.4,0 -2.7,-1.5 -2.7,-3 V 28.3 c 0,-6.6 -3.2,-10.4 -8.9,-10.4 -4.8,0 -9.6,3.3 -9.6,10.8 v 20.8 h -3.2 c -1.7,0 -2.6,-0.9 -2.6,-2.6 V 28.3 C 324.5,21.8 321.2,18 315.6,18 310,18 306,22.6 306,28.9 V 47 c 0,2.1 -0.9,2.5 -2.5,2.5 h -3.3 V 13.3 h 3.2 c 1.7,0 2.7,1 2.7,2.7 v 2.6 c 2.2,-3.1 5.4,-6.1 11.2,-6.1 6.8,0 10,4.1 11.5,6.8 3,-4.6 7,-6.7 12.2,-6.7 z m 42,0.1 c 8.4,0 17.3,6.6 17.3,18.8 0,12.2 -8.9,18.8 -17.3,18.8 -5.4,0 -9.8,-2.3 -13.3,-7 v 17.2 h -3.3 c -1.6,0 -2.5,-0.9 -2.5,-2.6 V 13.3 h 2.9 c 1.9,0 3,1 3,2.9 v 3.7 c 3.5,-4.8 7.8,-7.2 13.2,-7.2 z m 11.3,18.8 c 0,-8.9 -6.2,-13.6 -12.3,-13.6 -6.2,0 -12.6,5 -12.6,13.5 0,8.5 6.4,13.6 12.6,13.6 7.2,0 12.3,-5.6 12.3,-13.5 z M 490.8,16 c 0,-1.8 1.6,-2.7 2.7,-2.7 h 3.2 v 29.8 c 0,11.2 -6.7,17.6 -18.3,17.6 -6.1,0 -11.6,-1.7 -16.4,-5.1 l -0.2,-0.1 0.1,-0.2 c 0,0 0.4,-0.7 1.3,-2.2 0.5,-0.8 1.1,-1.2 1.8,-1.2 0.6,0 1.2,0.3 2.2,0.8 3.4,1.9 7.2,2.9 11,2.9 8,0 12.6,-4.5 12.6,-12.4 v -3.4 c -3.8,4.6 -8.3,6.9 -13.7,6.9 -8.3,0 -17.1,-6 -17.1,-17.1 0,-4.9 1.9,-9.4 5.3,-12.6 3.1,-2.9 7.4,-4.6 11.8,-4.6 6.8,0 11.1,3.5 13.6,6.6 z m 0.3,13.9 c 0,-7.8 -6.6,-11.9 -12.8,-11.9 -7,0 -12.1,5 -12.1,11.8 0,6.8 5.2,11.9 12.1,11.9 6.3,0 12.8,-4.4 12.8,-11.8 z m 33.1,-17.2 c 8.5,0 13.9,5.7 13.9,14.5 v 22.4 h -3.6 c -1.6,0 -2.4,-0.8 -2.4,-2.5 V 28.5 c 0,-6.5 -3.6,-10.4 -9.6,-10.4 -6.1,0 -10.4,4.5 -10.4,10.9 l 0.1,20.7 h -5.9 V 13.5 h 3.2 c 1.4,0 2.7,0.8 2.7,2.5 v 3.1 c 2.9,-4.3 6.9,-6.4 12,-6.4 z m -102,0.2 c 9.9,0 15.4,5.1 15.6,14.5 v 22.1 h -3.2 c -1.7,0 -2.5,-0.8 -2.5,-2.4 v -2.5 c -3.2,3.7 -7.5,5.7 -12.6,5.7 -9.3,0 -13.6,-5.9 -13.6,-11.5 0,-7.3 5.7,-11.5 15.6,-11.5 h 6 v 2 c 0,1.7 -0.9,2.5 -2.6,2.5 H 422 c -6.5,0 -10.1,2.4 -10.1,6.8 0,4.7 4.5,6.8 8.7,6.8 6.7,0 11.6,-3.9 11.6,-9.4 v -8.6 c 0,-6 -3.7,-9.4 -10.3,-9.4 -3,0 -5.7,0.5 -8.7,1.7 -1.1,0.4 -2.5,0.3 -2.9,-0.9 -0.4,-0.9 -0.7,-1.9 -1.1,-2.8 l -0.1,-0.3 0.2,-0.1 c 4.3,-1.8 8.3,-2.7 12.9,-2.7 z m -146.7,0 c 9.9,0 15.4,5.1 15.6,14.5 v 22.1 h -3.2 c -1.7,0 -2.5,-0.8 -2.5,-2.4 v -2.5 c -3.2,3.7 -7.5,5.7 -12.6,5.7 -9.3,0 -13.6,-5.9 -13.6,-11.5 0,-7.3 5.7,-11.5 15.6,-11.5 h 6 v 2 c 0,1.7 -0.9,2.5 -2.6,2.5 h -2.9 c -6.5,0 -10.1,2.4 -10.1,6.8 0,4.7 4.5,6.8 8.7,6.8 6.7,0 11.6,-3.9 11.6,-9.4 v -8.6 c 0,-6 -3.7,-9.4 -10.3,-9.4 -3,0 -5.7,0.5 -8.7,1.7 -1.1,0.4 -2.5,0.3 -2.9,-0.9 -0.4,-0.9 -0.7,-1.9 -1.1,-2.8 l -0.1,-0.3 0.2,-0.1 c 3.3,-1.3 7.3,-2.7 12.9,-2.7 z M 598,26.4 c 1.3,0.9 2,2.1 2,3.4 v 0.7 c 0,1 -0.4,2.5 -2,3.7 v 0 c -0.8,0.6 -8.6,6 -16.9,11.7 -8.1,5.6 -17.3,12 -18.4,12.8 v 0.9 l -0.5,-0.9 c 0,0 -0.1,-0.1 0,-0.2 v 0 -4.8 c 0,-1.6 0.2,-2.4 2,-3.6 1.5,-1 25.5,-17.6 28.7,-19.8 -3.2,-2.2 -26.8,-18.6 -28.4,-19.8 l -0.2,-0.1 C 563.1,9.5 562.2,8.8 562.2,7 V 1.3 l 0.5,0.3 c 1.2,0.9 34.4,24.1 35.3,24.8 z m -20.7,6.4 c -0.8,0 -1.6,-0.3 -2.5,-0.9 C 572.7,30.5 562.1,23.1 562,23 l -0.1,-0.1 v -3.6 c 0,-0.8 0.4,-1.5 1,-1.8 0.7,-0.3 1.5,-0.2 2.3,0.3 1.6,1 17.1,11.8 17.2,11.9 l 0.4,0.2 -0.4,0.2 c 0,0 -1,0.7 -2.2,1.5 -1.1,0.8 -2,1.2 -2.9,1.2 z M 83.1,41.3 c 1.1,1.1 1.7,1.6 1.7,1.6 l 0.2,0.2 -0.2,0.2 C 82,46.6 77.7,50.4 70.1,50.4 59.9,50.4 51.5,42 51.5,31.6 51.5,21 59.7,12.7 70.1,12.7 c 5.9,0 10.3,2 14.4,6.4 l 0.2,0.2 -0.2,0.2 c -0.6,0.7 -1.3,1.4 -2,2.1 -1.1,1.1 -2.3,1.1 -3.9,-0.2 -2.1,-1.7 -4.8,-3.4 -8.7,-3.4 -7,0 -12.4,6 -12.4,13.6 0,7.6 5.6,13.6 12.8,13.6 3.3,0 6.3,-1.2 9,-3.7 1,-0.7 2.6,-1.4 3.8,-0.2 z m 38.7,-41 c 1.6,0 2.6,1.1 2.6,2.7 v 3.7 h -4.1 c -2.1,0 -2.5,-1.2 -2.5,-2.3 V 0.3 Z m -0.4,13.2 c 1.7,0 2.6,0.9 2.6,2.5 v 33.7 h -3.7 v -0.1 c -1.3,-0.1 -2.2,-1.1 -2.2,-2.5 V 13.5 Z m 38.3,1.9 c 0.6,-1.4 1.6,-2 3.2,-2 h 4.1 l -0.2,0.4 c -0.1,0.3 -14.2,32.6 -14.8,33.9 -0.6,1.3 -1.5,1.9 -2.9,1.9 h -0.8 c -1.5,0 -2.4,-0.3 -3.1,-1.8 C 144.6,46.5 130.5,14 130.4,13.7 l -0.2,-0.4 h 4.2 c 1.6,0 2.7,0.7 3.3,2.2 0.4,1.3 9.2,22.7 10.9,26.7 1.7,-4.1 10.5,-25.5 11.1,-26.8 z m 36.5,14 c 0.3,0 0.6,-0.1 0.7,-0.3 0.2,-0.2 0.3,-0.7 0.1,-1.3 -0.5,-6 -4.8,-10 -10.8,-10 -5.9,0 -10.5,4.9 -11.2,11.9 0,0 -0.1,0.8 -0.1,2 0,1 0.1,1.8 0.1,1.8 0.7,7.1 5.7,11.9 12.3,11.9 3.8,0 7,-1.2 9.6,-3.5 0.7,-0.7 2,-1.1 3.4,0 0.9,0.8 1.8,1.5 1.8,1.5 l 0.2,0.2 -0.2,0.2 c -4.2,4.7 -8.8,6.7 -14.9,6.7 -10.3,0 -18.1,-8.1 -18.1,-18.9 0,-10.8 7.5,-18.9 17.4,-18.9 9.1,0 15.7,6.1 16.6,15.3 0.1,2 -0.3,3.5 -1.3,4.6 -1,1 -2.4,1.5 -4.3,1.5 -3.2,0 -10.9,0 -17.5,0.1 h -0.3 v -2.3 c 0,-1.6 0.9,-2.5 2.5,-2.5 z M 28.7,2.1 c 0.7,1.5 21,46.6 21.2,47.1 l 0.2,0.4 h -3.5 c -0.7,0 -3,0 -3.9,-1.9 C 42.1,46.3 27.2,12.6 25,7.6 L 14.4,31.4 H 30.1 V 34 c 0,1.7 -1.2,2.9 -3.1,2.9 H 12 c -0.6,1.2 -4.1,8.9 -4.7,10.3 -0.9,1.7 -2,2.4 -3.5,2.4 H 0 L 0.2,49.2 C 0.4,48.7 20.9,3.1 21.4,2 22,0.8 23.1,0.2 24.2,0.2 h 1.4 c 1.6,0 2.4,0.5 3.1,1.9 z m 80.7,42.4 c 0.3,0.2 0.7,0.7 0.7,1.7 0,1.3 -0.1,2.3 -0.1,2.4 v 0.2 l -0.1,0.1 c -1.8,0.9 -4.8,1.5 -7.4,1.5 -6.6,0 -10.3,-3.7 -10.3,-10.3 V 0.6 h 2.9 c 1.8,0 3,1.1 3,2.7 v 10.3 h 8.2 c 1.5,0 3.1,0.9 3.1,2.7 v 2.5 H 98.1 l 0.1,20.4 c 0,3.7 1.9,5.7 5.6,5.7 1.2,0 2.1,-0.2 3.4,-0.6 0.9,-0.3 1.7,-0.2 2.2,0.2 z"
   class="st0" />
</svg>
