<?xml version="1.0" encoding="utf-8"?>
<svg width="160px" height="37px" viewBox="0 0 160 37" version="1.1" xmlns="http://www.w3.org/2000/svg" xmlns:xlink="http://www.w3.org/1999/xlink" xml:space="preserve" xmlns:serif="http://www.serif.com/" style="fill-rule:evenodd;clip-rule:evenodd;stroke-linejoin:round;stroke-miterlimit:2;"><path d="M7.859,4.383c3.712,-2.231 7.452,-4.383 7.768,-4.383c0.063,0 0.259,0.083 0.563,0.236c1.232,0.617 4.228,2.357 7.207,4.147c0.015,3.802 -1.962,5.886 -7.769,4.67c-3.214,1.817 -5.742,-0.072 -7.769,-4.67" style="fill:#d19e74;"></path><path d="M23.487,13.776l-7.859,4.724l-7.859,-4.724l7.859,-4.723l7.859,4.723Z" style="fill:#d7d5d8;"></path><path d="M23.487,13.776l-7.859,4.724l-7.859,-4.724l7.859,-4.723l7.859,4.723Z" style="fill:#d19460;"></path><path d="M15.98,18.288l-8.094,4.865l-7.886,-4.599l-0,-0.108l8.003,-4.811l7.977,4.653Z" style="fill:#c2c0c7;"></path><path d="M23.487,13.776l-7.859,4.724l-7.859,-4.724l7.859,-4.723l7.859,4.723Z" style="fill:#d19b6e;"></path><path d="M31.017,9.249c0.318,0.728 0.316,17.931 0,18.501c-0.316,0.57 -14.626,9.173 -15.389,9.25l-0,-18.5l0,-0l7.859,-4.724l7.53,-4.527Z" style="fill:#5e666c;"></path><path d="M7.769,13.776l-7.769,4.67c0,-4.427 0.078,-8.841 0.238,-9.197l7.531,4.527Z" style="fill:#d7d5d8;"></path><path d="M15.628,18.5l-0,9.447l-7.859,-4.724l7.859,-4.723Z" style="fill:#acacb4;"></path><path d="M7.814,23.223c-1.271,3.422 -4.113,4.448 -7.576,4.527c-0.158,-0.286 -0.238,-4.734 -0.238,-9.196c2.89,0.582 5.625,1.693 7.814,4.669" style="fill:#d5d3d3;"></path><path d="M23.975,13.875l-8.412,5.056l-8.893,-4.897c0.619,-3.056 3.615,-4.929 9.022,-4.981c4.972,-1.196 8.52,-0.587 8.283,4.822" style="fill:#ca8451;"></path><path d="M31.019,27.741l-0.002,0.009c-0.167,0.302 -4.27,2.863 -8.2,5.21l-8.535,-5.355l8.437,-5.07l8.3,5.206Z" style="fill:#80858d;"></path><path d="M23.396,4.383c3.727,2.24 7.403,4.543 7.621,4.866l0,0l-7.53,4.527l-7.859,-4.723l3.929,-2.362l3.839,-2.308Z" style="fill:#c86834;"></path><path d="M31.255,18.445l0,0.109l-7.768,4.669l-7.859,-4.723l7.859,-4.724l7.768,4.669Z" style="fill:#5e666c;"></path><path d="M31.255,18.445l0,0.109c-1.657,3.45 -4.463,4.566 -7.768,4.669c-4.676,1.127 -7.186,-0.591 -7.859,-4.723l7.859,-4.724c3.881,0.231 6.636,1.619 7.768,4.669" style="fill:#5e6166;"></path><path d="M31.017,9.249c0.157,0.361 0.237,4.77 0.238,9.196l-7.768,-4.669l7.53,-4.527Z" style="fill:#464950;"></path><path d="M31.017,27.75l0,-0c-0.159,0.287 -3.876,2.616 -7.621,4.866c-3.992,1.159 -6.089,-1.352 -7.768,-4.669c1.198,-2.199 2.678,-4.274 7.859,-4.724c5.571,-0.638 6.872,1.719 7.53,4.527" style="fill:#5e6166;"></path><path d="M0.238,27.75l7.944,-4.774l8.019,4.517l-8.271,4.971l-4.003,-2.255c-2.031,-1.259 -3.545,-2.249 -3.689,-2.459" style="fill:#b7b6bd;"></path><path d="M31.255,18.554c-0,4.432 -0.079,8.84 -0.238,9.196l-7.53,-4.527l7.768,-4.669Z" style="fill:#51555a;"></path><path d="M7.814,13.776c-1.467,3.691 -3.312,5.554 -7.814,4.67l0.014,-3.134l0.193,-5.898l0.031,-0.165c0.022,-0.039 0.112,-0.118 0.265,-0.232l7.311,4.759Z" style="fill:#d5d3d3;"></path><path d="M7.859,4.383l7.769,4.67l-7.859,4.723l-7.531,-4.527c0.159,-0.287 3.876,-2.616 7.621,-4.866" style="fill:#d8bba7;"></path><path d="M15.628,18.5c-1.429,2.799 -3.705,4.727 -7.859,4.723l-7.768,-4.669l-0.001,-0.108l7.769,-4.67l7.859,4.724Z" style="fill:#bcbaba;"></path><path d="M0.238,27.75l7.531,-4.527c2.874,0.634 5.622,1.735 7.859,4.724c-1.894,2.022 -4.594,3.505 -7.769,4.669c-3.715,-2.231 -7.403,-4.542 -7.621,-4.866" style="fill:#b0adae;"></path><path d="M23.487,23.223l-7.859,4.724l-7.859,-4.724l7.859,-4.723l7.859,4.723Z" style="fill:#a29fa2;"></path><path d="M23.397,32.616c-3.714,2.232 -7.453,4.384 -7.769,4.384c-0.316,0 -4.056,-2.152 -7.769,-4.384l7.769,-4.669l7.769,4.669Z" style="fill:#969496;"></path><path d="M57.998,29.235l0,-18.68l-5.336,0l-0,1.985c-0.708,-1.144 -2.347,-2.624 -5.273,-2.624c-4.758,-0 -8.969,3.837 -8.969,9.961c0,5.353 3.311,9.997 8.969,9.997c2.09,0 4.308,-0.841 5.273,-2.658l-0,2.019l5.336,-0Zm-6.076,-6.665c-0.675,1.145 -1.833,2.087 -3.729,2.087c-3.215,0 -4.437,-2.962 -4.437,-4.678l0,-0.034c0,-2.12 1.35,-4.813 4.405,-4.813c2.25,-0 3.472,1.313 4.05,2.592c0.354,0.774 0.515,1.615 0.451,2.457c-0.065,0.841 -0.29,1.649 -0.74,2.389" style="fill:#464950;fill-rule:nonzero;"></path><path d="M72.983,4.329l-0,7.808c-0.58,-0.605 -2.09,-2.221 -5.241,-2.221c-4.533,-0 -8.84,3.6 -8.84,9.928c0,5.621 3.535,9.996 8.937,9.996c3.6,-0 4.886,-1.851 5.401,-2.624l-0,2.019l5.079,-0l-0,-24.906l-5.336,-0Zm-0.965,18.881c-0.836,0.875 -2.026,1.414 -3.311,1.414c-2.509,-0 -4.47,-1.92 -4.47,-4.78l0,-0.033c0,-2.154 1.447,-4.68 4.533,-4.68c1.255,0 2.38,0.472 3.184,1.313c0.803,0.809 1.317,1.953 1.317,3.3c0.065,1.38 -0.417,2.591 -1.253,3.466" style="fill:#464950;fill-rule:nonzero;"></path><path d="M90.668,29.235l6.429,-18.68l-5.529,0l-3.441,11.646l-3.439,-11.646l-5.529,0l6.397,18.68l5.112,-0Z" style="fill:#464950;fill-rule:nonzero;"></path><path d="M105.005,29.84c1.833,-0 3.601,-0.572 5.079,-1.683c1.512,-1.076 2.766,-2.692 3.635,-4.779l-5.466,-0c-0.644,0.977 -1.544,1.75 -3.248,1.75c-2.089,0 -3.889,-1.312 -4.116,-3.298l13.279,-0c0.417,-3.433 -0.257,-6.428 -2.508,-8.952c-1.671,-1.851 -4.018,-2.962 -6.751,-2.962c-5.433,-0 -9.356,4.812 -9.356,10.029c0,5.553 4.341,9.895 9.452,9.895m-0.064,-15.213c2.765,0 3.858,2.087 3.986,2.962l-7.973,0c0.129,-0.875 1.222,-2.962 3.987,-2.962" style="fill:#464950;fill-rule:nonzero;"></path><path d="M124.871,15.536l-0,-4.974c-3.085,0 -4.018,1.07 -4.532,2.079l-0,-2.086l-5.016,0l0,18.68l5.338,-0l-0,-10.03c-0,-2.626 1.285,-3.669 4.017,-3.669l0.193,-0Z" style="fill:#464950;fill-rule:nonzero;"></path><rect x="125.785" y="4.329" width="5.336" height="4.24" style="fill:#464950;"></rect><path d="M154.342,10.555l-3.408,10.837l-3.632,-10.837l-6.751,0l-0,-6.226l-5.337,-0l0,6.226l-9.429,0l0,18.68l5.336,-0l0,-14.438l4.093,-0l0,14.438l5.337,-0l-0,-14.438l2.571,-0l0,-0.193l5.111,13.688l-1.723,4.366l5.558,-0l7.932,-22.103l-5.658,0Z" style="fill:#464950;fill-rule:nonzero;"></path></svg>