<svg width="149" height="17" viewBox="0 0 149 17" xmlns="http://www.w3.org/2000/svg" fill="none"><path d="M16.243 16.624h-2.394c-.269 0-.491-.064-.668-.193-.169-.137-.292-.303-.368-.5l-1.243-3.354h-6.895l-1.243 3.354c-.061.174-.184.334-.368.478-.177.144-.395.216-.656.216h-2.406l6.539-16.442h3.166l6.539 16.442zm-10.775-6.208h5.307l-2.026-5.469-.311-.853c-.107-.334-.215-.694-.322-1.08-.107.387-.215.747-.322 1.08-.1.334-.2.625-.299.876l-2.026 5.447z" fill="url(#a)"/><path d="M22.078 10.836v5.788h-3.097v-16.442h5.422c1.113 0 2.076.129 2.889.387.814.258 1.485.618 2.015 1.08.53.462.921 1.016 1.174 1.66.253.644.38 1.349.38 2.115 0 .796-.134 1.527-.403 2.195-.269.66-.672 1.228-1.209 1.706s-1.209.849-2.015 1.114c-.806.265-1.75.398-2.832.398h-2.325zm0-2.388h2.325c.568 0 1.063-.068 1.485-.205.422-.144.771-.345 1.047-.603.276-.265.483-.584.622-.955.138-.379.207-.8.207-1.262 0-.44-.069-.838-.207-1.194-.138-.356-.345-.66-.622-.91-.276-.25-.625-.44-1.047-.569-.422-.136-.917-.205-1.485-.205h-2.325v5.901z" fill="url(#b)"/><path d="M37.389 10.836v5.788h-3.097v-16.442h5.422c1.113 0 2.076.129 2.889.387.813.258 1.485.618 2.014 1.08.529.462.921 1.016 1.174 1.66.253.644.38 1.349.38 2.115 0 .796-.134 1.527-.403 2.195-.269.66-.672 1.228-1.209 1.706s-1.209.849-2.014 1.114c-.806.265-1.75.398-2.832.398h-2.325zm0-2.388h2.325c.568 0 1.063-.068 1.485-.205.422-.144.771-.345 1.047-.603.276-.265.483-.584.622-.955.138-.379.207-.8.207-1.262 0-.44-.069-.838-.207-1.194-.138-.356-.345-.66-.622-.91-.276-.25-.625-.44-1.047-.569-.422-.136-.917-.205-1.485-.205h-2.325v5.901z" fill="url(#c)"/><path d="M59.997.182v2.433h-7.379v4.867h6.228v2.445h-6.228v6.697h-3.12v-16.442h10.498z" fill="url(#d)"/><path d="M79.314 8.403c0 1.205-.203 2.323-.61 3.354-.407 1.023-.978 1.91-1.715 2.661-.737.75-1.623 1.338-2.659 1.762-1.036.417-2.183.625-3.442.625-1.259 0-2.41-.209-3.454-.625-1.036-.424-1.926-1.012-2.671-1.762-.737-.75-1.309-1.637-1.715-2.661-.407-1.031-.61-2.149-.61-3.354s.203-2.32.61-3.343c.407-1.031.978-1.922 1.715-2.672.744-.75 1.635-1.334 2.671-1.751 1.044-.425 2.195-.637 3.454-.637 1.259 0 2.406.212 3.442.637 1.036.425 1.922 1.012 2.659 1.762.737.743 1.308 1.63 1.715 2.661.407 1.023.61 2.138.61 3.343zm-3.177 0c0-.902-.123-1.709-.368-2.422-.238-.72-.583-1.33-1.036-1.831-.453-.5-1.005-.883-1.658-1.148-.645-.265-1.374-.398-2.187-.398-.814 0-1.546.133-2.199.398-.652.265-1.209.648-1.669 1.148-.453.5-.802 1.111-1.048 1.831-.246.713-.368 1.52-.368 2.422 0 .902.123 1.713.368 2.433.246.713.595 1.319 1.048 1.819.46.493 1.017.872 1.669 1.137.652.265 1.385.398 2.199.398.814 0 1.543-.133 2.187-.398.652-.265 1.205-.644 1.658-1.137.453-.5.798-1.107 1.036-1.819.246-.72.368-1.531.368-2.433z" fill="url(#e)"/><path d="M85.779 14.1h6.665v2.524h-9.762v-16.442h3.097v13.918z" fill="url(#f)"/><path d="M98.594 14.1h6.665v2.524h-9.762v-16.442h3.097v13.918z" fill="url(#g)"/><path d="M123.357 8.403c0 1.205-.204 2.323-.61 3.354-.407 1.023-.979 1.91-1.716 2.661-.736.75-1.623 1.338-2.659 1.762-1.036.417-2.183.625-3.442.625-1.258 0-2.409-.209-3.453-.625-1.036-.424-1.926-1.012-2.671-1.762-.737-.75-1.308-1.637-1.715-2.661-.407-1.031-.61-2.149-.61-3.354s.203-2.32.61-3.343c.407-1.031.978-1.922 1.715-2.672.745-.75 1.635-1.334 2.671-1.751 1.044-.425 2.195-.637 3.453-.637 1.259 0 2.406.212 3.442.637 1.036.425 1.923 1.012 2.659 1.762.737.743 1.309 1.63 1.716 2.661.406 1.023.61 2.138.61 3.343zm-3.177 0c0-.902-.123-1.709-.369-2.422-.238-.72-.583-1.33-1.036-1.831-.453-.5-1.005-.883-1.657-1.148-.645-.265-1.374-.398-2.188-.398-.813 0-1.546.133-2.198.398-.653.265-1.209.648-1.67 1.148-.452.5-.802 1.111-1.047 1.831-.246.713-.368 1.52-.368 2.422 0 .902.122 1.713.368 2.433.245.713.595 1.319 1.047 1.819.461.493 1.017.872 1.67 1.137.652.265 1.385.398 2.198.398.814 0 1.543-.133 2.188-.398.652-.265 1.204-.644 1.657-1.137.453-.5.798-1.107 1.036-1.819.246-.72.369-1.531.369-2.433z" fill="url(#h)"/><path d="M125.183.182h2.601c.269 0 .491.064.668.193.184.121.307.288.368.5l2.832 9.836c.069.242.131.508.184.796.062.28.119.58.173.898.061-.318.127-.618.196-.898.076-.288.157-.553.241-.796l3.27-9.836c.061-.174.18-.334.357-.478.184-.144.406-.216.667-.216h.91c.268 0 .491.064.667.193.177.121.3.288.369.5l3.246 9.836c.169.485.315 1.023.437 1.615l.162-.853c.061-.273.122-.527.184-.762l2.832-9.836c.053-.19.172-.352.356-.489.185-.136.407-.205.668-.205h2.429l-5.169 16.442h-2.797l-3.638-11.234-.149-.466-.138-.534c-.046.19-.096.368-.15.534l-.138.466-3.672 11.234h-2.798l-5.168-16.442z" fill="url(#i)"/><defs><linearGradient id="a" x1="74.5" x2="74.75" y2="18.128" gradientUnits="userSpaceOnUse"><stop stop-color="#1E384E"/><stop offset="1" stop-color="#1E384E"/></linearGradient><linearGradient id="b" x1="74.5" x2="74.75" y2="18.128" gradientUnits="userSpaceOnUse"><stop stop-color="#1E384E"/><stop offset="1" stop-color="#1E384E"/></linearGradient><linearGradient id="c" x1="74.5" x2="74.75" y2="18.128" gradientUnits="userSpaceOnUse"><stop stop-color="#1E384E"/><stop offset="1" stop-color="#1E384E"/></linearGradient><linearGradient id="d" x1="74.5" x2="74.75" y2="18.128" gradientUnits="userSpaceOnUse"><stop stop-color="#1E384E"/><stop offset="1" stop-color="#1E384E"/></linearGradient><linearGradient id="e" x1="74.5" x2="74.75" y2="18.128" gradientUnits="userSpaceOnUse"><stop stop-color="#1E384E"/><stop offset="1" stop-color="#1E384E"/></linearGradient><linearGradient id="f" x1="74.5" x2="74.75" y2="18.128" gradientUnits="userSpaceOnUse"><stop stop-color="#1E384E"/><stop offset="1" stop-color="#1E384E"/></linearGradient><linearGradient id="g" x1="74.5" x2="74.75" y2="18.128" gradientUnits="userSpaceOnUse"><stop stop-color="#1E384E"/><stop offset="1" stop-color="#1E384E"/></linearGradient><linearGradient id="h" x1="74.5" x2="74.75" y2="18.128" gradientUnits="userSpaceOnUse"><stop stop-color="#1E384E"/><stop offset="1" stop-color="#1E384E"/></linearGradient><linearGradient id="i" x1="74.5" x2="74.75" y2="18.128" gradientUnits="userSpaceOnUse"><stop stop-color="#1E384E"/><stop offset="1" stop-color="#1E384E"/></linearGradient></defs></svg>
