<?xml version="1.0" encoding="UTF-8" standalone="no"?>
<svg
   xmlns:dc="http://purl.org/dc/elements/1.1/"
   xmlns:cc="http://creativecommons.org/ns#"
   xmlns:rdf="http://www.w3.org/1999/02/22-rdf-syntax-ns#"
   xmlns:svg="http://www.w3.org/2000/svg"
   xmlns="http://www.w3.org/2000/svg"
   xmlns:sodipodi="http://sodipodi.sourceforge.net/DTD/sodipodi-0.dtd"
   xmlns:inkscape="http://www.inkscape.org/namespaces/inkscape"
   version="1.1"
   id="Layer_1"
   x="0px"
   y="0px"
   viewBox="0 0 350 76.8"
   style="enable-background:new 0 0 300 76.8;"
   xml:space="preserve"
   inkscape:version="0.91 r13725"
   sodipodi:docname="bing_webmaster.svg"><metadata
     id="metadata21"><rdf:RDF><cc:Work
         rdf:about=""><dc:format>image/svg+xml</dc:format><dc:type
           rdf:resource="http://purl.org/dc/dcmitype/StillImage" /></cc:Work></rdf:RDF></metadata><defs
     id="defs19" /><sodipodi:namedview
     pagecolor="#ffffff"
     bordercolor="#666666"
     borderopacity="1"
     objecttolerance="10"
     gridtolerance="10"
     guidetolerance="10"
     inkscape:pageopacity="0"
     inkscape:pageshadow="2"
     inkscape:window-width="1920"
     inkscape:window-height="1056"
     id="namedview17"
     showgrid="false"
     inkscape:zoom="0.85142857"
     inkscape:cx="175"
     inkscape:cy="38.400002"
     inkscape:window-x="0"
     inkscape:window-y="24"
     inkscape:window-maximized="1"
     inkscape:current-layer="Layer_1" /><style
     type="text/css"
     id="style3">
	.st0{fill:#008272;}
</style><title
     id="title5">bing-ads-logo-teal</title><path
     class="st0"
     d="m 154.8,61.5 0,-46.1 13.1,0 c 4,0 7.2,1 9.5,2.9 2.3,1.9 3.6,4.7 3.5,7.6 0.1,2.4 -0.7,4.8 -2.1,6.8 -1.5,2 -3.5,3.4 -5.8,4.1 l 0,0.2 c 2.8,0.2 5.5,1.5 7.4,3.5 1.9,2.1 2.9,4.9 2.8,7.7 0.1,3.7 -1.4,7.2 -4.2,9.5 -3,2.5 -6.8,3.8 -10.7,3.7 l -13.5,0 z m 5.4,-41.2 0,14.9 5.5,0 c 2.5,0.1 5,-0.6 7,-2.1 1.7,-1.5 2.7,-3.7 2.5,-6 0,-4.5 -2.9,-6.7 -8.8,-6.7 l -6.2,-0.1 0,0 z m 0,19.7 0,16.6 7.3,0 c 3.2,0 5.6,-0.8 7.4,-2.2 1.8,-1.5 2.7,-3.8 2.6,-6.2 0,-5.4 -3.7,-8.2 -11.1,-8.2 l -6.2,0 0,0 z m 36,-22.2 c 0,-0.9 -0.4,-1.8 -1,-2.4 -0.6,-0.7 -1.5,-1 -2.5,-1 -0.9,0 -1.8,0.3 -2.4,1 -0.6,0.6 -1,1.5 -1,2.4 0,0.9 0.3,1.8 1,2.5 1.4,1.3 3.5,1.3 4.8,0 0.7,-0.7 1.1,-1.6 1.1,-2.5 m -0.9,11 -5.2,0 0,32.6 5.2,0 0,-32.6 0,0 z m 35.8,12.7 c 0,-4.3 -0.9,-7.6 -2.8,-10 -1.9,-2.4 -4.6,-3.5 -8.2,-3.5 -4.5,-0.1 -8.6,2.3 -10.7,6.2 l -0.1,0 0,-5.5 -5.3,0 0,32.7 5.2,0 0,-18.6 c -0.1,-2.7 0.8,-5.4 2.6,-7.5 1.6,-1.9 4,-3 6.5,-2.9 5.1,0 7.6,3.5 7.6,10.4 l 0,18.6 5.2,0 0,-19.9 0,0 z m 37,17.4 c 0,12 -5.7,18 -17.2,18 -3.7,0.1 -7.3,-0.7 -10.6,-2.3 l 1.4,-4.6 c 2.8,1.6 5.9,2.4 9.1,2.3 8.1,0 12.1,-4.3 12.1,-12.8 l 0,-3.5 -0.1,0 c -2.2,4.1 -6.6,6.5 -11.2,6.3 -5.1,0.1 -9.8,-2.9 -11.8,-7.6 -1.2,-2.7 -1.8,-5.6 -1.7,-8.5 0,-5.6 1.4,-10 4.1,-13.3 2.7,-3.3 6.7,-5.1 10.9,-4.9 4.4,0 7.7,1.8 9.8,5.3 l 0.1,0 0,-4.5 5.2,0 -0.1,30.1 0,0 z m -5.2,-12.2 0,-4.9 c 0.1,-2.5 -0.9,-4.9 -2.7,-6.7 -1.7,-1.8 -4,-2.8 -6.5,-2.7 -3,-0.1 -5.8,1.2 -7.6,3.6 -1.8,2.4 -2.7,5.6 -2.7,9.9 -0.1,3.1 0.8,6.1 2.6,8.6 1.7,2.2 4.3,3.4 7,3.3 2.7,0.1 5.3,-1.1 7.1,-3.1 2,-2.2 2.9,-5.1 2.8,-8"
     id="path7"
     inkscape:connector-curvature="0"
     style="fill:#008272" /><polygon
     class="st0"
     points="53.8,37.3 19.7,25.3 26.4,42 37,46.9 15.4,59.4 15.4,5.4 0,0 0,68.2 15.4,76.8 53.8,54.7 "
     id="polygon9"
     transform="translate(78,0)"
     style="fill:#008272" /></svg>