<?xml version="1.0" encoding="UTF-8" standalone="no"?>
<svg width="465px" height="203px" viewBox="0 0 465 203" version="1.1" xmlns="http://www.w3.org/2000/svg" xmlns:xlink="http://www.w3.org/1999/xlink" xmlns:sketch="http://www.bohemiancoding.com/sketch/ns">
    <!-- Generator: Sketch 3.4.4 (17249) - http://www.bohemiancoding.com/sketch -->
    <title>Page 1</title>
    <desc>Created with Sketch.</desc>
    <defs>
        <path id="path-1" d="M0,0.1 L465.003,0.1 L465.003,203 L0,203 L0,0.1 Z"></path>
    </defs>
    <g id="Page-1" stroke="none" stroke-width="1" fill="none" fill-rule="evenodd" sketch:type="MSPage">
        <g sketch:type="MSLayerGroup">
            <g id="Group-3">
                <mask id="mask-2" sketch:name="Clip 2" fill="white">
                    <use xlink:href="#path-1"></use>
                </mask>
                <g id="Clip-2"></g>
                <path d="M434.0631,95.6026 C434.0631,107.2276 424.4451,116.7216 412.8171,116.7216 L367.2561,116.7216 C355.6301,116.7216 346.0011,107.2276 346.0011,95.6026 L346.0011,50.0396 C346.0011,38.4116 355.6301,28.6596 367.2561,28.6596 L412.8171,28.6596 C424.4451,28.6596 434.0631,38.4116 434.0631,50.0396 L434.0631,95.6026 Z M413.6001,0.0996 L367.4801,0.0996 C339.7931,0.0996 317.4411,24.0076 317.4411,51.6946 L317.4411,97.8116 C317.4411,125.4976 339.7931,147.6616 367.4801,147.6616 L378.1341,147.6616 C377.8881,157.1816 375.6941,169.9936 371.5461,178.5306 C366.9101,188.2916 359.5911,196.4136 349.8301,202.9996 C357.8811,199.8276 365.2021,196.6896 371.5461,193.5196 L379.1111,189.1456 C388.6251,182.7996 395.6991,175.3506 400.3351,167.2996 C403.7491,161.6906 405.9461,154.8016 406.9221,147.6616 L413.6001,147.6616 C441.2861,147.6616 465.0031,125.4976 465.0031,97.8116 L465.0031,51.6946 C465.0031,24.0076 441.2861,0.0996 413.6001,0.0996 L413.6001,0.0996 Z" id="Fill-1" fill="#FF3366" sketch:type="MSShapeGroup" mask="url(#mask-2)"></path>
            </g>
            <path d="M2.8756,54.2656 C6.0376,48.7606 11.2476,44.5816 17.4676,42.7696 C17.4676,42.7696 30.4856,38.3816 45.9146,45.5736 C45.9146,45.5736 46.9286,45.9756 46.9906,46.3976 L47.0396,54.4896 C47.0396,55.1106 46.5366,55.6146 45.9146,55.6146 C45.9146,55.6146 27.1346,53.4096 26.6406,53.4116 C26.1466,53.4136 16.2216,51.7356 13.4526,63.9796 C12.8546,66.6226 13.2176,86.8076 13.2176,86.8076 C13.2176,86.8076 12.9076,98.7196 26.7826,99.7436 C26.7826,99.7436 33.6396,99.6616 44.1486,97.5476 C44.1486,97.5476 47.0396,96.6846 47.0396,99.4346 L47.0396,105.3506 C47.0396,105.4756 47.1436,107.1186 46.0956,107.4136 C46.0956,107.4136 33.7626,111.5636 25.9706,111.2486 C18.1786,110.9346 4.3246,107.8506 1.0816,94.0716 C1.0816,94.0716 -0.0004,90.3506 0.0006,83.1846 C0.0016,76.6006 0.0006,65.7706 0.0006,65.7706 C0.0006,65.7706 -0.1144,59.4726 2.8756,54.2656" id="Fill-4" fill="#14141E" sketch:type="MSShapeGroup"></path>
            <path d="M93.2408,68.2901 L70.8238,68.2901 C66.9908,68.2901 68.7028,63.6441 68.7028,63.6441 C70.5998,57.5971 75.6838,53.2671 81.6578,53.2671 C87.7018,53.2671 93.2408,57.7671 94.6778,63.8581 C94.6778,63.8581 96.4908,68.2901 93.2408,68.2901 M108.2408,77.1711 L108.2408,71.7671 C108.2408,40.9331 82.0718,41.4741 82.0718,41.4741 C82.0718,41.4741 55.1668,41.5151 55.1668,68.5171 L55.1668,83.1841 C55.1668,90.3501 56.2478,94.0711 56.2478,94.0711 C59.9068,106.6001 71.1568,110.6841 81.1368,111.2491 C88.9228,111.6901 96.7968,107.9131 96.7968,107.9131 C97.8438,107.6181 97.7408,105.9751 97.7408,105.8501 L97.7408,99.9341 C97.7408,97.1841 94.8498,98.0481 94.8498,98.0481 C84.3408,100.1611 82.3058,99.7431 82.3058,99.7431 C68.4308,98.7201 68.7408,86.8071 68.7408,86.8071 C68.7408,86.8071 68.6988,84.2161 68.6618,80.7671 C68.6358,78.3501 70.0808,78.5351 70.0808,78.5351 L107.1768,78.5351 C108.4468,78.5351 108.2408,77.1711 108.2408,77.1711" id="Fill-6" fill="#14141E" sketch:type="MSShapeGroup"></path>
            <path d="M171.3658,111.251 C162.1938,111.251 151.6408,106.601 148.1108,94.071 C148.1108,94.071 147.0708,90.351 147.0708,83.181 L147.0708,30.811 C147.0708,30.261 147.5208,29.811 148.0708,29.811 L159.0408,29.811 C159.5908,29.811 160.0408,30.261 160.0408,30.811 L160.0408,40.521 C160.0408,40.521 159.8818,43.11 162.7408,43.11 L172.5308,43.11 C173.0308,43.11 173.4308,43.511 173.4308,44.011 L173.4308,53.87 C173.4308,54.36 173.0308,54.761 172.5308,54.761 L162.7408,54.761 C159.8498,54.761 160.0408,57.521 160.0408,57.521 L160.0408,84.351 C160.0408,84.351 159.2608,97.13 171.5408,99.071 C171.5408,99.071 173.5208,99.261 173.5208,100.931 L173.5208,108.681 C173.5208,108.681 173.6158,111.251 171.3658,111.251" id="Fill-8" fill="#14141E" sketch:type="MSShapeGroup"></path>
            <path d="M132.7105,109.0274 C132.7105,109.5794 132.2625,110.0274 131.7105,110.0274 L120.2405,110.0274 C119.6885,110.0274 119.2405,109.5794 119.2405,109.0274 L119.2405,20.8104 C119.2405,20.2584 119.6885,19.8104 120.2405,19.8104 L131.7105,19.8104 C132.2625,19.8104 132.7105,20.2584 132.7105,20.8104 L132.7105,109.0274 Z" id="Fill-10" fill="#14141E" sketch:type="MSShapeGroup"></path>
            <path d="M212.3243,53.5381 L220.6983,53.5381 C221.1983,53.5381 221.5973,53.1381 221.5973,52.6471 L221.5973,42.7881 C221.5973,42.2881 221.1983,41.8881 220.6983,41.8881 L213.1173,41.8881 C187.4073,41.8881 188.9073,64.6841 188.9073,64.6841 L188.9073,109.0271 C188.9073,109.5791 189.3543,110.0271 189.9073,110.0271 L201.3773,110.0271 C201.9293,110.0271 202.3773,109.5791 202.3773,109.0271 L202.3773,66.5171 C202.3773,66.5171 201.5743,53.5381 212.3243,53.5381" id="Fill-12" fill="#14141E" sketch:type="MSShapeGroup"></path>
            <path d="M258.7193,91.9766 C257.4513,94.0026 254.2833,97.1006 248.8393,97.7876 C246.5713,98.0736 242.0903,97.7876 242.0903,97.7876 C239.1783,97.7876 236.9463,95.7066 236.5583,92.9976 C236.5583,92.9976 236.1223,88.8716 236.6533,86.5466 C237.1813,84.2306 239.7403,82.4316 242.2243,82.4316 L260.1783,82.4316 C260.6613,82.4316 261.0533,82.8236 261.0533,83.3066 L261.1113,87.2906 C261.1113,87.2906 260.2073,89.5986 258.7193,91.9766 L258.7193,91.9766 Z M274.5513,94.9786 L274.1203,69.5686 C274.1213,62.4176 272.9153,58.7066 272.9153,58.7066 C269.4623,46.8526 258.9513,41.6616 249.2123,41.5656 C241.7333,41.4916 234.1943,44.8936 234.1943,44.8936 C233.1883,45.1866 233.2873,46.8276 233.2873,46.9516 L233.2873,52.8546 C233.2873,54.2566 233.5273,54.8466 234.5693,54.6436 C239.0013,53.7766 247.9793,53.4666 247.9793,53.4666 C260.2713,53.8346 261.1023,65.9526 261.1023,65.9526 C261.1023,65.9536 261.1423,66.2926 261.1773,69.7336 C261.2013,72.1456 259.8183,71.9616 259.8183,71.9616 C259.8183,71.9616 255.8323,71.9406 243.7703,71.9406 C231.7073,71.9406 226.4543,79.5636 226.4543,79.5636 C224.2963,82.8806 223.0583,86.7506 223.0583,90.8846 C223.0583,94.5296 224.0213,97.9696 225.7283,101.0056 C225.7283,101.0056 231.4593,109.7766 241.2703,109.7766 C251.0803,109.7766 254.5203,109.4626 257.8323,106.8376 C261.1453,104.2126 262.7073,103.2546 262.7073,107.4836 L262.7073,108.7446 C262.7073,109.2956 263.1553,109.7446 263.7073,109.7446 L273.6203,109.7446 C274.1723,109.7446 274.6203,109.2956 274.6203,108.7446 L274.5513,94.9786 Z" id="Fill-14" fill="#14141E" sketch:type="MSShapeGroup"></path>
        </g>
    </g>
</svg>