<?xml version="1.0" encoding="utf-8"?>
<!-- Generator: Adobe Illustrator 19.0.0, SVG Export Plug-In . SVG Version: 6.00 Build 0)  -->
<svg version="1.1" id="layer" xmlns="http://www.w3.org/2000/svg" xmlns:xlink="http://www.w3.org/1999/xlink" x="0px" y="0px"
	 viewBox="-153 -46 652 652" style="enable-background:new -153 -46 652 652;" xml:space="preserve">
<style type="text/css">
	.st0{fill:#F8981D;}
</style>
<path d="M32.2,308.3l4.8,4.8c-8.8,10-21.5,15.7-34.8,15.6c-27.2,0-46.5-21.5-46.5-48.6s19.4-48.6,46.5-48.6
	c12.7-0.2,24.9,5.1,33.5,14.4l-5,4.6c-7.3-7.9-17.7-12.3-28.5-12.1c-23.4,0-39.3,18.7-39.3,41.8s15.9,41.8,39.3,41.8
	C13.7,322,24.7,317.1,32.2,308.3z M49.1,231.5h6.3v97.1h-6.5L49.1,231.5z M73,246.1c2.8,0,5.1,2.3,5.1,5.1c0,2.8-2.3,5.1-5.1,5.1
	c-2.8,0-5.1-2.3-5.1-5.1c0,0,0,0,0,0C67.9,248.4,70.2,246.1,73,246.1z M69.7,267h6.7v61.6h-6.7V267z M136,312.8l4.6,4.4
	c-5.7,7.5-14.5,11.9-23.9,11.9c-17.4,0-30.1-13.8-30.1-30.7s12.7-30.7,30.1-30.7c9,0,17.6,4.1,23.3,11.1l-4.7,4.2
	c-4.5-5.6-11.4-8.8-18.6-8.7c-14,0-23.2,11.3-23.2,24.2s9.2,24.2,23.2,24.2C124.3,322.6,131.5,319,136,312.8z M156.8,299.9v28.7
	h-6.5v-97.1h6.5v66l28.7-26.3h9.2l-29.8,27.4l32.7,29.9h-9.7L156.8,299.9z"/>
<path class="st0" d="M294.5,241.5c4.2,0,7.7,3.4,7.7,7.7c0,4.2-3.4,7.7-7.7,7.7s-7.7-3.4-7.7-7.7C286.8,245,290.3,241.5,294.5,241.5
	z M286.8,267h15.4v61.6h-15.4V267z M371.8,297.6c0,1.1,0,3.3-0.1,5.5h-43.9c1.1,5.2,7.2,11.9,16.5,11.9c5.9,0.1,11.7-2,16.1-6
	l7.4,11.3c-6.6,5.4-14.9,8.4-23.5,8.4c-17.9,0-31.6-13.7-31.6-30.9s12.5-30.9,29.5-30.9C358.2,267,371.8,279.5,371.8,297.6z
	 M356.9,292.4c-0.2-5.1-5-11.9-14.8-11.9c-9.6,0-13.9,6.7-14.4,11.9H356.9z M-68.8,280l-57.3-48.5v97L-68.8,280z M407.7,328.3h-8.9
	l-27.2-61.4H391l12.7,33.2l13.4-33.2h11.5l13.3,33.2l12.7-33.2h19.3l-27,61.4h-9l-15-32.8L407.7,328.3z M241.4,328.8h-8.3
	l-46.5-97.3h23.5l26.9,61.1l25-61.1h23.4L241.4,328.8z"/>
</svg>
