<?xml version="1.0" encoding="utf-8"?>
<!-- Generator: Adobe Illustrator 19.0.1, SVG Export Plug-In . SVG Version: 6.00 Build 0)  -->
<svg version="1.1" id="Layer_1" xmlns="http://www.w3.org/2000/svg" xmlns:xlink="http://www.w3.org/1999/xlink" x="0px" y="0px"
	 viewBox="-181.8 252 337 291" style="enable-background:new -181.8 252 337 291;" xml:space="preserve">
<style type="text/css">
	.st0{fill:#E1E1E1;}
	.st1{fill:#C2C2C2;}
	.st2{fill:#FFFFFF;fill-opacity:0.2;}
	.st3{fill:#212121;fill-opacity:0.1;}
	.st4{fill:#4285F4;}
	.st5{fill:#F44336;}
	.st6{fill:#EEEEEE;}
	.st7{fill:#9E9E9E;}
	.st8{opacity:0.2;fill:#FFFFFF;enable-background:new    ;}
	.st9{opacity:0.2;fill:#212121;enable-background:new    ;}
	.st10{fill:url(#_Path_14_1_);}
	.st11{fill:url(#_Path_15_1_);}
</style>
<title>icon_pagespeed-insights_256px</title>
<g id="Layer_2">
	<g id="Layer_1-2">
		<g id="_Group_">
			<g id="_Group_2">
				<path id="_Path_2" class="st0" d="M143.1,305v206.2c0,11.8-9.5,21.3-21.3,21.3c0,0,0,0,0,0h-270.2c-11.8,0-21.3-9.5-21.3-21.3
					c0,0,0,0,0,0V305H143.1z"/>
				<path id="_Path_3" class="st1" d="M-148.4,262.4h270.2c11.8,0,21.3,9.5,21.3,21.3c0,0,0,0,0,0V305h-312.9v-21.3
					C-169.8,271.9-160.2,262.4-148.4,262.4C-148.5,262.4-148.4,262.4-148.4,262.4z"/>
				<path id="_Path_4" class="st2" d="M121.8,262.4h-270.2c-11.8,0-21.3,9.6-21.3,21.3v1.7c0.1-11.7,9.6-21.2,21.3-21.3h270.2
					c11.8,0,21.3,9.6,21.3,21.3v-1.7C143.1,272,133.6,262.4,121.8,262.4z"/>
				<path id="_Path_5" class="st3" d="M-169.8,305h312.9v1.7h-312.9V305z"/>
				<path id="_Path_6" class="st4" d="M-13.4,369C-76.2,369-127,419.9-127,482.7c0,0.1,0,0.1,0,0.2c0,2.4-0.1,5.3,0,7.1h49.6
					c-0.1-2.4-0.1-4.7,0-7.1c0.1-35.4,28.8-64,64.1-63.9c11.8,0,23.4,3.3,33.5,9.5l35.7-35.7C36,377.3,11.7,369-13.4,369L-13.4,369z
					"/>
				<path id="_Path_7" class="st5" d="M55.8,392.6l-35.7,35.7c18.9,11.6,30.5,32.2,30.5,54.4c0.1,2.4,0.1,4.7,0,7.1h49.8
					c0.1-1.7,0-4.7,0-7.1C100.4,447.4,83.9,414.1,55.8,392.6z"/>
				<circle id="_Path_8" class="st6" cx="-141.3" cy="283.7" r="7.1"/>
				<circle id="_Path_9" class="st6" cx="-112.9" cy="283.7" r="7.1"/>
				<path id="_Path_10" class="st3" d="M121.8,530.8h-270.3c-11.8,0-21.3-9.6-21.3-21.3v1.7c0,11.8,9.6,21.3,21.3,21.3h270.3
					c11.8,0,21.3-9.6,21.3-21.3v-1.7C143.1,521.2,133.6,530.8,121.8,530.8z"/>
				<path id="_Path_11" class="st7" d="M56.2,396.9c0.4-0.6,0.7-1.3,0.7-2.1c0-2-1.6-3.5-3.6-3.6c-0.8,0-1.6,0.3-2.2,0.8l-77.5,59.7
					c-9.3,7.2-11.1,20.6-3.9,29.9s20.6,11.1,29.9,3.9c2.1-1.6,3.9-3.6,5.2-5.9L56.2,396.9L56.2,396.9z"/>
				<path id="_Path_12" class="st8" d="M-26.4,453.5l77.5-59.7c1.5-1.2,3.7-1,4.9,0.5c0.3,0.4,0.5,0.8,0.7,1.3
					c0.1-0.3,0.1-0.6,0.1-0.9c0-2-1.6-3.5-3.6-3.6c-0.8,0-1.6,0.3-2.2,0.8l-77.5,59.7c-5.2,4-8.3,10.3-8.3,16.9v1
					C-34.4,463.2-31.4,457.4-26.4,453.5z"/>
				<path id="_Path_13" class="st9" d="M56.2,396.9L4.9,479.7c-6.1,10.1-19.2,13.3-29.3,7.2c-6.1-3.7-9.9-10.2-10.3-17.3v0.8
					c0,11.8,9.5,21.3,21.3,21.3c7.5,0,14.4-3.9,18.3-10.3l51.3-82.8c0.4-0.6,0.7-1.3,0.7-2.1c0-0.3,0-0.6-0.1-0.9
					C56.7,396.1,56.5,396.5,56.2,396.9L56.2,396.9z"/>
				
					<linearGradient id="_Path_14_1_" gradientUnits="userSpaceOnUse" x1="1616.049" y1="-11045.3057" x2="1819.1799" y2="-11248.4365" gradientTransform="matrix(0.5 0 0 -0.5 -789.84 -5080.2251)">
					<stop  offset="0" style="stop-color:#212121;stop-opacity:0.2"/>
					<stop  offset="1" style="stop-color:#212121;stop-opacity:0"/>
				</linearGradient>
				<path id="_Path_14" class="st10" d="M56.2,392.7c0.9,1.2,0.9,3,0,4.2L4.9,479.7c-6.1,10.1-19.2,13.2-29.3,7.1
					c-1-0.6-1.9-1.3-2.8-2l47.8,47.8h101.2c11.8,0,21.3-9.5,21.3-21.3c0,0,0,0,0,0v-31.6L56.2,392.7z"/>
			</g>
			
				<radialGradient id="_Path_15_1_" cx="1250.1296" cy="-10689.9092" r="795.019" gradientTransform="matrix(0.491 0 0 -0.491 -775.876 -4981.7173)" gradientUnits="userSpaceOnUse">
				<stop  offset="0" style="stop-color:#FFFFFF;stop-opacity:0.1"/>
				<stop  offset="1" style="stop-color:#FFFFFF;stop-opacity:0"/>
			</radialGradient>
			<path id="_Path_15" class="st11" d="M143.1,283.7c0-11.8-9.5-21.3-21.3-21.3c0,0,0,0,0,0h-270.2c-11.8,0-21.3,9.5-21.3,21.3
				c0,0,0,0,0,0v227.5c0,11.8,9.5,21.3,21.3,21.3c0,0,0,0,0,0h270.2c11.8,0,21.3-9.5,21.3-21.3c0,0,0,0,0,0V283.7z"/>
		</g>
	</g>
</g>
</svg>
