<?xml version="1.0" encoding="UTF-8" standalone="no"?>
<!DOCTYPE svg PUBLIC "-//W3C//DTD SVG 1.1//EN" "http://www.w3.org/Graphics/SVG/1.1/DTD/svg11.dtd">
<svg width="100%" height="100%" viewBox="0 0 1567 1013" version="1.1" xmlns="http://www.w3.org/2000/svg" xmlns:xlink="http://www.w3.org/1999/xlink" xml:space="preserve" style="fill-rule:evenodd;clip-rule:evenodd;stroke-linejoin:round;stroke-miterlimit:1.41421;">
    <g id="Layer-1" transform="matrix(4.16667,0,0,4.16667,-404.333,-1443.48)">
        <g transform="matrix(0.999119,0,0,1,0.0855054,0)">
            <clipPath id="_clip1">
                <path d="M182.21,346.497L182.21,377.674L202.277,377.999L202.277,465.715L181.944,465.715L181.944,497.086L259.209,497.086C297.16,496.116 299.29,461.455 299.29,461.455C301.42,437.83 279.537,421.369 279.537,421.369C302.777,400.076 299.872,386.903 299.872,386.903C298.517,346.822 258.146,346.497 258.146,346.497L182.21,346.497ZM235.197,380.126L265.211,380.126L265.211,402.588L235.197,402.588L235.197,380.126ZM235.197,439.962L265.792,439.962L265.792,464.747L235.197,464.747L235.197,439.962Z"/>
            </clipPath>
            <g clip-path="url(#_clip1)">
                <rect x="79.498" y="476.648" width="416.915" height="9.032" style="fill:white;fill-rule:nonzero;"/>
                <rect x="79.498" y="485.255" width="416.915" height="11.669" style="fill:rgb(35,31,32);fill-rule:nonzero;"/>
                <rect x="79.498" y="457.865" width="416.915" height="9.033" style="fill:white;fill-rule:nonzero;"/>
                <rect x="79.498" y="466.472" width="416.915" height="11.667" style="fill:rgb(35,31,32);fill-rule:nonzero;"/>
                <rect x="79.498" y="437.519" width="416.915" height="9.034" style="fill:white;fill-rule:nonzero;"/>
                <rect x="79.498" y="446.125" width="416.915" height="11.669" style="fill:rgb(35,31,32);fill-rule:nonzero;"/>
                <rect x="79.498" y="417.169" width="416.915" height="9.034" style="fill:white;fill-rule:nonzero;"/>
                <rect x="79.498" y="425.778" width="416.915" height="11.668" style="fill:rgb(35,31,32);fill-rule:nonzero;"/>
                <rect x="79.498" y="396.821" width="416.915" height="9.038" style="fill:white;fill-rule:nonzero;"/>
                <rect x="79.498" y="405.431" width="416.915" height="11.668" style="fill:rgb(35,31,32);fill-rule:nonzero;"/>
                <rect x="79.498" y="378.039" width="416.915" height="9.032" style="fill:white;fill-rule:nonzero;"/>
                <rect x="79.498" y="386.649" width="416.915" height="11.668" style="fill:rgb(35,31,32);fill-rule:nonzero;"/>
                <rect x="79.498" y="357.693" width="416.915" height="9.038" style="fill:white;fill-rule:nonzero;"/>
                <rect x="79.498" y="366.3" width="416.915" height="11.673" style="fill:rgb(35,31,32);fill-rule:nonzero;"/>
                <rect x="79.498" y="345.952" width="416.915" height="11.673" style="fill:rgb(35,31,32);fill-rule:nonzero;"/>
            </g>
        </g>
        <g transform="matrix(0.999119,0,0,1,0.0855054,0)">
            <path d="M421.475,485.68L473.371,485.68L473.371,476.648L421.475,476.648L421.475,485.68ZM383.774,476.648L387.007,485.68L394.718,485.68L397.917,476.648L383.774,476.648ZM307.421,485.68L359.896,485.68L359.896,476.648L307.421,476.648L307.421,485.68Z" style="fill:white;fill-rule:nonzero;"/>
        </g>
        <g transform="matrix(0.999119,0,0,1,0.0855054,0)">
            <path d="M421.475,496.695L473.371,496.695L473.371,485.255L421.475,485.255L421.475,496.695ZM386.855,485.255L390.883,496.506L394.868,485.255L386.855,485.255ZM307.421,496.695L359.896,496.695L359.896,485.255L307.421,485.255L307.421,496.695Z" style="fill:rgb(35,31,32);fill-rule:nonzero;"/>
        </g>
        <g transform="matrix(0.999119,0,0,1,0.0855054,0)">
            <path d="M421.475,457.865L421.475,466.898L473.371,466.898L473.371,465.716L453.427,465.716L453.427,457.865L421.475,457.865ZM377.049,457.865L380.283,466.898L401.37,466.898L404.57,457.865L377.049,457.865ZM328.14,457.865L328.14,465.326L307.421,465.326L307.421,466.898L359.896,466.898L359.896,457.865L328.14,457.865Z" style="fill:white;fill-rule:nonzero;"/>
        </g>
        <g transform="matrix(0.999119,0,0,1,0.0855054,0)">
            <path d="M421.475,478.139L473.371,478.139L473.371,466.472L421.475,466.472L421.475,478.139ZM380.131,466.472L384.307,478.139L397.389,478.139L401.522,466.472L380.131,466.472ZM307.421,478.139L359.896,478.139L359.896,466.472L307.421,466.472L307.421,478.139Z" style="fill:rgb(35,31,32);fill-rule:nonzero;"/>
        </g>
        <g transform="matrix(0.999119,0,0,1,0.0855054,0)">
            <path d="M421.475,446.552L453.427,446.552L453.427,437.518L421.475,437.518L421.475,446.552ZM369.766,437.518L373,446.552L408.578,446.552L411.778,437.518L369.766,437.518ZM328.141,446.552L359.897,446.552L359.897,437.518L328.141,437.518L328.141,446.552Z" style="fill:white;fill-rule:nonzero;"/>
        </g>
        <g transform="matrix(0.999119,0,0,1,0.0855054,0)">
            <path d="M421.475,457.794L453.427,457.794L453.427,446.125L421.475,446.125L421.475,457.794ZM372.847,446.125L377.024,457.794L404.596,457.794L408.729,446.125L372.847,446.125ZM328.141,457.794L359.897,457.794L359.897,446.125L328.141,446.125L328.141,457.794Z" style="fill:rgb(35,31,32);fill-rule:nonzero;"/>
        </g>
        <g transform="matrix(0.999119,0,0,1,0.0855054,0)">
            <path d="M421.475,426.203L453.427,426.203L453.427,417.169L421.475,417.169L421.475,426.203ZM362.481,417.168L365.715,426.203L415.787,426.203L418.987,417.168L362.481,417.168ZM328.141,426.203L359.897,426.203L359.897,417.169L328.141,417.169L328.141,426.203Z" style="fill:white;fill-rule:nonzero;"/>
        </g>
        <g transform="matrix(0.999119,0,0,1,0.0855054,0)">
            <path d="M421.475,437.446L453.427,437.446L453.427,425.778L421.475,425.778L421.475,437.446ZM365.563,425.779L369.74,437.446L411.804,437.446L415.937,425.779L365.563,425.779ZM328.141,437.446L359.897,437.446L359.897,425.778L328.141,425.778L328.141,437.446Z" style="fill:rgb(35,31,32);fill-rule:nonzero;"/>
        </g>
        <g transform="matrix(0.999119,0,0,1,0.0855054,0)">
            <path d="M397.128,396.821L393.882,405.859L453.427,405.859L453.427,396.821L397.128,396.821ZM328.141,396.821L328.141,405.859L387.781,405.859L384.425,396.821L328.141,396.821Z" style="fill:white;fill-rule:nonzero;"/>
        </g>
        <g transform="matrix(0.999119,0,0,1,0.0855054,0)">
            <path d="M394.036,405.431L390.883,414.21L387.622,405.431L328.141,405.431L328.141,417.099L359.897,417.099L359.897,409.95L362.456,417.099L419.012,417.099L421.476,410.143L421.476,417.099L453.427,417.099L453.427,405.431L394.036,405.431Z" style="fill:rgb(35,31,32);fill-rule:nonzero;"/>
        </g>
        <g transform="matrix(0.999119,0,0,1,0.0855054,0)">
            <path d="M403.874,378.04L400.63,387.071L453.427,387.071L453.427,378.04L403.874,378.04ZM328.141,378.04L328.141,387.071L380.804,387.071L377.449,378.04L328.141,378.04Z" style="fill:white;fill-rule:nonzero;"/>
        </g>
        <g transform="matrix(0.999119,0,0,1,0.0855054,0)">
            <path d="M400.781,386.65L396.59,398.318L453.427,398.318L453.427,386.65L400.781,386.65ZM328.14,386.65L328.14,398.318L384.98,398.318L380.647,386.65L328.14,386.65Z" style="fill:rgb(35,31,32);fill-rule:nonzero;"/>
        </g>
        <g transform="matrix(0.999119,0,0,1,0.0855054,0)">
            <path d="M411.183,357.693L407.937,366.731L473.371,366.731L473.371,357.693L411.183,357.693ZM307.812,357.693L307.812,366.731L373.249,366.731L369.893,357.693L307.812,357.693Z" style="fill:white;fill-rule:nonzero;"/>
        </g>
        <g transform="matrix(0.999119,0,0,1,0.0855054,0)">
            <path d="M408.091,366.299L403.898,377.972L453.427,377.972L453.427,377.414L473.371,377.414L473.371,366.299L408.091,366.299ZM307.811,366.299L307.811,377.804L325.33,377.972L377.424,377.972L373.089,366.299L307.811,366.299Z" style="fill:rgb(35,31,32);fill-rule:nonzero;"/>
        </g>
        <g transform="matrix(0.999119,0,0,1,0.0855054,0)">
            <path d="M307.812,346.435L307.812,357.626L369.868,357.626L365.712,346.435L307.812,346.435ZM415.087,346.823L411.207,357.626L473.371,357.626L473.371,346.823L415.087,346.823Z" style="fill:rgb(35,31,32);fill-rule:nonzero;"/>
        </g>
        <g transform="matrix(0.999119,0,0,1,0.0855054,0)">
            <rect x="97.336" y="476.648" width="74.058" height="9.032" style="fill:white;fill-rule:nonzero;"/>
        </g>
        <g transform="matrix(0.999119,0,0,1,0.0855054,0)">
            <path d="M97.336,485.255L97.336,496.695L171.394,496.544L171.394,485.255L97.336,485.255Z" style="fill:rgb(35,31,32);fill-rule:nonzero;"/>
        </g>
        <g transform="matrix(0.999119,0,0,1,0.0855054,0)">
            <path d="M118.304,457.865L118.304,465.467L97.336,465.467L97.336,466.898L171.394,466.898L171.394,465.618L150.872,465.618L150.872,457.865L118.304,457.865Z" style="fill:white;fill-rule:nonzero;"/>
        </g>
        <g transform="matrix(0.999119,0,0,1,0.0855054,0)">
            <rect x="97.336" y="466.472" width="74.058" height="11.667" style="fill:rgb(35,31,32);fill-rule:nonzero;"/>
        </g>
        <g transform="matrix(0.999119,0,0,1,0.0855054,0)">
            <rect x="118.304" y="437.518" width="32.568" height="9.034" style="fill:white;fill-rule:nonzero;"/>
        </g>
        <g transform="matrix(0.999119,0,0,1,0.0855054,0)">
            <rect x="118.304" y="446.125" width="32.568" height="11.669" style="fill:rgb(35,31,32);fill-rule:nonzero;"/>
        </g>
        <g transform="matrix(0.999119,0,0,1,0.0855054,0)">
            <rect x="118.304" y="417.169" width="32.568" height="9.034" style="fill:white;fill-rule:nonzero;"/>
        </g>
        <g transform="matrix(0.999119,0,0,1,0.0855054,0)">
            <rect x="118.304" y="425.778" width="32.568" height="11.668" style="fill:rgb(35,31,32);fill-rule:nonzero;"/>
        </g>
        <g transform="matrix(0.999119,0,0,1,0.0855054,0)">
            <rect x="118.304" y="396.821" width="32.568" height="9.038" style="fill:white;fill-rule:nonzero;"/>
        </g>
        <g transform="matrix(0.999119,0,0,1,0.0855054,0)">
            <rect x="118.304" y="405.43" width="32.568" height="11.669" style="fill:rgb(35,31,32);fill-rule:nonzero;"/>
        </g>
        <g transform="matrix(0.999119,0,0,1,0.0855054,0)">
            <rect x="118.304" y="378.04" width="32.568" height="9.031" style="fill:white;fill-rule:nonzero;"/>
        </g>
        <g transform="matrix(0.999119,0,0,1,0.0855054,0)">
            <rect x="118.304" y="386.65" width="32.568" height="11.668" style="fill:rgb(35,31,32);fill-rule:nonzero;"/>
        </g>
        <g transform="matrix(0.999119,0,0,1,0.0855054,0)">
            <rect x="97.04" y="357.693" width="74.056" height="9.038" style="fill:white;fill-rule:nonzero;"/>
        </g>
        <g transform="matrix(0.999119,0,0,1,0.0855054,0)">
            <path d="M97.04,366.299L97.04,377.731L118.304,377.731L118.304,377.972L150.873,377.972L150.873,377.279L171.096,377.279L171.096,366.299L97.04,366.299Z" style="fill:rgb(35,31,32);fill-rule:nonzero;"/>
        </g>
        <g transform="matrix(0.999119,0,0,1,0.0855054,0)">
            <rect x="97.04" y="346.947" width="74.056" height="10.678" style="fill:rgb(35,31,32);fill-rule:nonzero;"/>
        </g>
        <g transform="matrix(0.388555,0,0,0.388898,-145.657,16.7661)">
            <path d="M726.715,1381.61L745.315,1329.21L745.715,1329.21L763.715,1381.61L726.715,1381.61ZM729.715,1294.01L675.715,1436.81L707.315,1436.81L718.515,1405.01L771.915,1405.01L782.715,1436.81L815.315,1436.81L761.915,1294.01L729.715,1294.01Z" style="fill-rule:nonzero;"/>
            <path d="M824.715,1333.41L824.715,1436.81L853.115,1436.81L853.115,1382.61C853.115,1372.08 854.848,1364.51 858.315,1359.91C861.781,1355.31 867.381,1353.01 875.115,1353.01C881.915,1353.01 886.648,1355.11 889.315,1359.31C891.981,1363.51 893.315,1369.88 893.315,1378.41L893.315,1436.81L921.715,1436.81L921.715,1373.21C921.715,1366.81 921.148,1360.98 920.015,1355.71C918.881,1350.45 916.915,1345.98 914.115,1342.31C911.315,1338.65 907.481,1335.78 902.615,1333.71C897.748,1331.65 891.515,1330.61 883.915,1330.61C877.915,1330.61 872.048,1331.98 866.315,1334.71C860.581,1337.45 855.915,1341.81 852.315,1347.81L851.715,1347.81L851.715,1333.41L824.715,1333.41Z" style="fill-rule:nonzero;"/>
            <path d="M942.115,1365.21C942.515,1358.55 944.181,1353.01 947.115,1348.61C950.048,1344.21 953.781,1340.68 958.315,1338.01C962.848,1335.35 967.948,1333.45 973.615,1332.31C979.281,1331.18 984.981,1330.61 990.715,1330.61C995.915,1330.61 1001.18,1330.98 1006.51,1331.71C1011.85,1332.45 1016.72,1333.88 1021.12,1336.01C1025.52,1338.15 1029.12,1341.11 1031.91,1344.91C1034.71,1348.71 1036.12,1353.75 1036.12,1360.01L1036.12,1413.81C1036.12,1418.48 1036.38,1422.95 1036.91,1427.21C1037.45,1431.48 1038.38,1434.68 1039.71,1436.81L1010.92,1436.81C1010.38,1435.21 1009.95,1433.58 1009.62,1431.91C1009.28,1430.25 1009.05,1428.55 1008.92,1426.81C1004.38,1431.48 999.048,1434.75 992.915,1436.61C986.781,1438.48 980.515,1439.41 974.115,1439.41C969.181,1439.41 964.581,1438.81 960.315,1437.61C956.048,1436.41 952.315,1434.55 949.115,1432.01C945.915,1429.48 943.415,1426.28 941.615,1422.41C939.815,1418.55 938.915,1413.95 938.915,1408.61C938.915,1402.75 939.948,1397.91 942.015,1394.11C944.081,1390.31 946.748,1387.28 950.015,1385.01C953.281,1382.75 957.015,1381.05 961.215,1379.91C965.415,1378.78 969.648,1377.88 973.915,1377.21C978.181,1376.55 982.381,1376.01 986.515,1375.61C990.648,1375.21 994.315,1374.61 997.515,1373.81C1000.72,1373.01 1003.25,1371.85 1005.12,1370.31C1006.98,1368.78 1007.85,1366.55 1007.72,1363.61C1007.72,1360.55 1007.22,1358.11 1006.22,1356.31C1005.22,1354.51 1003.88,1353.11 1002.22,1352.11C1000.55,1351.11 998.615,1350.45 996.415,1350.11C994.215,1349.78 991.848,1349.61 989.315,1349.61C983.715,1349.61 979.315,1350.81 976.115,1353.21C972.915,1355.61 971.048,1359.61 970.515,1365.21L942.115,1365.21ZM1007.72,1386.21C1006.51,1387.28 1005.01,1388.11 1003.22,1388.71C1001.42,1389.31 999.481,1389.81 997.415,1390.21C995.348,1390.61 993.181,1390.95 990.915,1391.21C988.648,1391.48 986.381,1391.81 984.115,1392.21C981.981,1392.61 979.881,1393.15 977.815,1393.81C975.748,1394.48 973.948,1395.38 972.415,1396.51C970.881,1397.65 969.648,1399.08 968.715,1400.81C967.781,1402.55 967.315,1404.75 967.315,1407.41C967.315,1409.95 967.781,1412.08 968.715,1413.81C969.648,1415.55 970.915,1416.91 972.515,1417.91C974.115,1418.91 975.981,1419.61 978.115,1420.01C980.248,1420.41 982.448,1420.61 984.715,1420.61C990.315,1420.61 994.648,1419.68 997.715,1417.81C1000.78,1415.95 1003.05,1413.71 1004.51,1411.11C1005.98,1408.51 1006.88,1405.88 1007.22,1403.21C1007.55,1400.55 1007.72,1398.41 1007.72,1396.81L1007.72,1386.21Z" style="fill-rule:nonzero;"/>
            <rect x="1058.91" y="1294.01" width="28.4" height="142.8" style="fill-rule:nonzero;"/>
            <path d="M1160.71,1449.61L1203.91,1333.41L1174.52,1333.41L1151.91,1404.21L1151.52,1404.21L1128.12,1333.41L1097.91,1333.41L1134.12,1430.41C1134.91,1432.41 1135.32,1434.55 1135.32,1436.81C1135.32,1439.88 1134.41,1442.68 1132.62,1445.21C1130.82,1447.75 1128.05,1449.21 1124.32,1449.61C1121.52,1449.75 1118.71,1449.68 1115.91,1449.41C1113.12,1449.15 1110.38,1448.88 1107.71,1448.61L1107.71,1472.01C1110.65,1472.28 1113.55,1472.51 1116.41,1472.71C1119.28,1472.91 1122.18,1473.01 1125.12,1473.01C1134.85,1473.01 1142.45,1471.21 1147.91,1467.61C1153.38,1464.01 1157.65,1458.01 1160.71,1449.61Z" style="fill-rule:nonzero;"/>
            <path d="M1249.52,1333.41L1249.52,1302.41L1221.12,1302.41L1221.12,1333.41L1203.91,1333.41L1203.91,1352.41L1221.12,1352.41L1221.12,1413.41C1221.12,1418.61 1221.98,1422.81 1223.71,1426.01C1225.45,1429.21 1227.82,1431.68 1230.82,1433.41C1233.82,1435.15 1237.28,1436.31 1241.21,1436.91C1245.15,1437.51 1249.32,1437.81 1253.71,1437.81C1256.52,1437.81 1259.38,1437.75 1262.32,1437.61C1265.25,1437.48 1267.91,1437.21 1270.32,1436.81L1270.32,1414.81C1268.98,1415.08 1267.58,1415.28 1266.12,1415.41C1264.65,1415.55 1263.12,1415.61 1261.52,1415.61C1256.71,1415.61 1253.52,1414.81 1251.91,1413.21C1250.32,1411.61 1249.52,1408.41 1249.52,1403.61L1249.52,1352.41L1270.32,1352.41L1270.32,1333.41L1249.52,1333.41Z" style="fill-rule:nonzero;"/>
            <path d="M1313.12,1317.41L1313.12,1294.01L1284.71,1294.01L1284.71,1317.41L1313.12,1317.41ZM1284.71,1333.41L1284.71,1436.81L1313.12,1436.81L1313.12,1333.41L1284.71,1333.41Z" style="fill-rule:nonzero;"/>
            <path d="M1405.91,1369.81L1433.71,1369.81C1433.32,1363.15 1431.71,1357.38 1428.91,1352.51C1426.12,1347.65 1422.48,1343.58 1418.02,1340.31C1413.55,1337.05 1408.48,1334.61 1402.82,1333.01C1397.15,1331.41 1391.25,1330.61 1385.12,1330.61C1376.71,1330.61 1369.25,1332.01 1362.71,1334.81C1356.18,1337.61 1350.65,1341.51 1346.12,1346.51C1341.58,1351.51 1338.15,1357.45 1335.82,1364.31C1333.48,1371.18 1332.32,1378.61 1332.32,1386.61C1332.32,1394.35 1333.58,1401.45 1336.12,1407.91C1338.65,1414.38 1342.18,1419.95 1346.71,1424.61C1351.25,1429.28 1356.75,1432.91 1363.21,1435.51C1369.68,1438.11 1376.78,1439.41 1384.52,1439.41C1398.25,1439.41 1409.52,1435.81 1418.32,1428.61C1427.12,1421.41 1432.45,1410.95 1434.32,1397.21L1406.91,1397.21C1405.98,1403.61 1403.68,1408.71 1400.02,1412.51C1396.35,1416.31 1391.12,1418.21 1384.32,1418.21C1379.91,1418.21 1376.18,1417.21 1373.12,1415.21C1370.05,1413.21 1367.62,1410.65 1365.82,1407.51C1364.02,1404.38 1362.71,1400.88 1361.91,1397.01C1361.12,1393.15 1360.71,1389.35 1360.71,1385.61C1360.71,1381.75 1361.12,1377.85 1361.91,1373.91C1362.71,1369.98 1364.08,1366.38 1366.02,1363.11C1367.95,1359.85 1370.45,1357.18 1373.52,1355.11C1376.58,1353.05 1380.38,1352.01 1384.91,1352.01C1397.05,1352.01 1404.05,1357.95 1405.91,1369.81Z" style="fill-rule:nonzero;"/>
            <path d="M1472.32,1403.21L1445.32,1403.21C1445.58,1410.15 1447.15,1415.91 1450.02,1420.51C1452.88,1425.11 1456.55,1428.81 1461.02,1431.61C1465.48,1434.41 1470.58,1436.41 1476.32,1437.61C1482.05,1438.81 1487.91,1439.41 1493.91,1439.41C1499.78,1439.41 1505.55,1438.85 1511.21,1437.71C1516.88,1436.58 1521.91,1434.61 1526.32,1431.81C1530.72,1429.01 1534.28,1425.31 1537.02,1420.71C1539.75,1416.11 1541.12,1410.41 1541.12,1403.61C1541.12,1398.81 1540.18,1394.78 1538.32,1391.51C1536.45,1388.25 1533.98,1385.51 1530.91,1383.31C1527.85,1381.11 1524.35,1379.35 1520.41,1378.01C1516.48,1376.68 1512.45,1375.55 1508.32,1374.61C1504.32,1373.68 1500.38,1372.81 1496.52,1372.01C1492.65,1371.21 1489.21,1370.31 1486.21,1369.31C1483.21,1368.31 1480.78,1367.01 1478.91,1365.41C1477.05,1363.81 1476.12,1361.75 1476.12,1359.21C1476.12,1357.08 1476.65,1355.38 1477.71,1354.11C1478.78,1352.85 1480.08,1351.88 1481.62,1351.21C1483.15,1350.55 1484.85,1350.11 1486.71,1349.91C1488.58,1349.71 1490.32,1349.61 1491.91,1349.61C1496.98,1349.61 1501.38,1350.58 1505.12,1352.51C1508.85,1354.45 1510.91,1358.15 1511.32,1363.61L1538.32,1363.61C1537.78,1357.21 1536.15,1351.91 1533.41,1347.71C1530.68,1343.51 1527.25,1340.15 1523.12,1337.61C1518.98,1335.08 1514.28,1333.28 1509.02,1332.21C1503.75,1331.15 1498.32,1330.61 1492.71,1330.61C1487.12,1330.61 1481.65,1331.11 1476.32,1332.11C1470.98,1333.11 1466.18,1334.85 1461.91,1337.31C1457.65,1339.78 1454.21,1343.15 1451.62,1347.41C1449.02,1351.68 1447.71,1357.15 1447.71,1363.81C1447.71,1368.35 1448.65,1372.18 1450.52,1375.31C1452.38,1378.45 1454.85,1381.05 1457.91,1383.11C1460.98,1385.18 1464.48,1386.85 1468.41,1388.11C1472.35,1389.38 1476.38,1390.48 1480.52,1391.41C1490.65,1393.55 1498.55,1395.68 1504.21,1397.81C1509.88,1399.95 1512.71,1403.15 1512.71,1407.41C1512.71,1409.95 1512.12,1412.05 1510.91,1413.71C1509.71,1415.38 1508.21,1416.71 1506.41,1417.71C1504.62,1418.71 1502.62,1419.45 1500.41,1419.91C1498.21,1420.38 1496.12,1420.61 1494.12,1420.61C1491.32,1420.61 1488.62,1420.28 1486.02,1419.61C1483.41,1418.95 1481.12,1417.91 1479.12,1416.51C1477.12,1415.11 1475.48,1413.31 1474.21,1411.11C1472.95,1408.91 1472.32,1406.28 1472.32,1403.21Z" style="fill-rule:nonzero;"/>
        </g>
    </g>
</svg>
