<?xml version="1.0" encoding="utf-8"?>
<!-- Generator: Adobe Illustrator 16.0.0, SVG Export Plug-In . SVG Version: 6.00 Build 0)  -->
<!DOCTYPE svg PUBLIC "-//W3C//DTD SVG 1.1//EN" "http://www.w3.org/Graphics/SVG/1.1/DTD/svg11.dtd">
<svg version="1.1" id="Layer_1" xmlns="http://www.w3.org/2000/svg" xmlns:xlink="http://www.w3.org/1999/xlink" x="0px" y="0px"
	 width="1395px" height="365px" viewBox="0 0 1395 365" enable-background="new 0 0 1395 365" xml:space="preserve">
<g>
	<path d="M627.866,242.815c0,16.672-22.171,21.895-35.682,21.895c-5.183,0.083-10.35-0.528-15.372-1.819
		c-25.01-7.035-26.596-35.217-8.334-47.975c14.858-10.39,40.102-9.879,59.389-4.938v32.605V242.815z M640.86,190.505
		c0-32.604-12.297-45.18-42.762-45.275c-19.094-0.605-38.752,5.777-46.951,18.959l11.088,6.661
		c5.591-7.427,14.037-12.172,23.289-13.089c2.654-0.373,5.17-0.605,7.637-0.744h2.471c22.171,0,32.234,7.683,32.234,31.58v9.313
		c-25.805-4.98-51.611-3.396-67.729,7.549c-17.753,11.859-22.532,35.864-10.674,53.622c5.513,8.253,13.986,14.07,23.672,16.248
		c6.224,1.61,12.62,2.467,19.049,2.562c13.071,0.67,25.924-3.507,36.101-11.737l2.515,8.384h10.108v-84.032H640.86z"/>
	<path d="M1379.842,242.815c0,16.672-22.172,21.895-35.678,21.895c-5.182,0.083-10.355-0.528-15.373-1.819
		c-25.012-7.035-26.594-35.217-8.338-47.975c14.857-10.39,40.107-9.879,59.389-4.938v32.605V242.815z M1392.885,190.505
		c0-32.604-12.299-45.18-42.758-45.275c-19.098-0.605-38.754,5.777-46.906,18.959l11.084,6.661
		c5.592-7.427,14.037-12.172,23.289-13.089c2.615-0.373,5.174-0.605,7.598-0.744h2.465c22.172,0,32.234,7.683,32.234,31.58v9.313
		c-25.805-4.98-51.564-3.396-67.727,7.549c-17.758,11.859-22.537,35.864-10.68,53.622c5.516,8.253,13.992,14.07,23.676,16.248
		c6.225,1.61,12.619,2.467,19.049,2.562c13.072,0.67,25.926-3.513,36.098-11.737l2.564,8.384h10.061v-84.032H1392.885z"/>
	<path d="M1047.549,242.815c0,16.672-22.174,21.895-35.682,21.895c-5.183,0.085-10.354-0.528-15.373-1.819
		c-25.01-7.035-26.598-35.217-8.338-47.975c14.855-10.39,40.105-9.879,59.393-4.938v32.605V242.815z M1060.588,190.505
		c0-32.604-12.301-45.18-42.759-45.275c-19.052-0.605-38.757,5.777-46.907,18.959l11.086,6.661
		c5.589-7.433,14.033-12.18,23.291-13.089c2.652-0.373,5.171-0.605,7.635-0.744h2.475c22.172,0,32.186,7.683,32.186,31.58v9.313
		c-25.806-4.98-51.564-3.396-67.729,7.549c-17.749,11.865-22.519,35.873-10.651,53.629c5.515,8.254,14.002,14.07,23.697,16.241
		c6.223,1.61,12.619,2.47,19.049,2.562c13.068,0.676,25.928-3.507,36.1-11.737l2.563,8.384h10.063v-84.032H1060.588z"/>
	<path d="M700.479,90.175v56.362h26.137v11.783c-10.435,0-15.699,0-26.137,0.28v79.974c0,21.892,9.32,23.992,26.32,24.549v12.02
		c-23.711,1.302-39.314-7.314-39.314-36.287V158.32h-22.449v-11.739h22.449V90.175H700.479z"/>
	<path d="M804.166,266.012c28.462,0,39.408-15.137,39.408-54.777c0-39.638-10.992-54.264-39.408-54.264
		c-28.41,0-40.102,14.858-40.102,54.264C764.064,250.64,775.477,266.012,804.166,266.012 M804.166,277.423
		c-37.262,0-53.705-18.632-53.705-66.188s16.819-65.816,53.705-65.816c36.892,0,53.008,18.63,53.008,66
		c0,47.373-15.697,66.191-53.008,66.191"/>
	<path d="M1223.336,145.418c-14.859,0-31.301,5.774-38.336,18.026c-5.451-12.206-20.631-18.634-36.563-18.634
		c-13.43-0.575-26.482,4.493-36.006,13.976l-2.75-12.25h-10.107v128.091h13.275v-91.063c0-16.163,16.676-26.363,33.4-26.875
		c15.135-0.28,30.271,7.312,31.299,23.291v94.419h12.994v-94.188c1.119-15.697,16.674-22.685,32.328-22.685
		c15.65,0,32.324,7.268,32.324,23.989v93.161h13.273v-92.928c0-24.5-22.682-35.958-45.414-36.287"/>
	<path d="M897.512,160.369L897.512,160.369l-2.887-13.694h-10.108v128.091h13.276v-92.084c0-20.869,31.112-29.717,48.301-24.035
		l2.096-12.251c-18.162-4.657-39.451-1.816-50.725,13.974"/>
	<path d="M460.739,265.548c-29.904,0-39.873-15.792-39.873-54.638c0-37.827,11.085-52.822,40.244-52.822
		c14.428,0.24,27.83,7.53,35.866,19.514v67.075C489.982,258.088,475.847,266.227,460.739,265.548 M509.924,90.128h-13.041v72.989
		c-9.965-11.301-24.246-17.865-39.312-18.072c-35.635,0-50.678,22.171-50.678,65.443c0,45.089,13.973,67.497,50.349,67.497
		c17.328,0,31.118-2.843,39.5-12.952l0,0l2.889,9.317h10.108V90.175L509.924,90.128z"/>
	<path d="M316.433,89.521l-77.552-44.295l-38.662-22.173l0,0L161.466,1.021c-0.937-0.54-2.09-0.54-3.03,0l-38.379,21.987h-0.374
		h-0.325L81.441,44.712H80.88l-0.461,0.327l-38.148,21.8l0,0L3.513,89.521l0,0c-0.75,0.448-1.273,1.194-1.441,2.05l0,0l0,0v181.291
		c-0.047,1.082,0.505,2.104,1.441,2.654l38.009,21.799l0.558,0.417l77.556,44.25h0.373l38.427,21.986
		c0.452,0.27,0.966,0.416,1.492,0.416c0.525-0.003,1.04-0.146,1.492-0.416l38.752-22.173l0,0l38.664-22.074l0,0l77.55-43.882
		c0.96-0.541,1.545-1.553,1.54-2.653V92.271C317.974,91.149,317.402,90.091,316.433,89.521z M240.462,226.883v-85.097l32.607,18.631
		v85.289L240.462,226.883z M270.042,250.779l-29.58,16.908v-33.766L270.042,250.779z M243.537,136.428l32.606-18.632l32.605,18.632
		l-32.605,18.632L243.537,136.428z M273.116,112.813l-32.605,18.631V94.18l32.605-18.632V112.813z M201.758,31.065l29.527,16.91
		l-29.527,16.954V31.065z M231.285,184.545l-32.605,18.63l-32.605-18.63l32.605-18.632L231.285,184.545z M192.581,162.374
		l-29.578,16.953v-33.908L192.581,162.374z M166.075,140.202l29.578-16.864v33.771L166.075,140.202z M192.581,206.67l-29.578,16.911
		v-33.822L192.581,206.67z M195.653,116.352l-32.604,18.632V49.791l32.604-18.632v85.24V116.352z M159.976,7.216l32.605,18.632
		L159.976,44.48l-32.606-18.631L159.976,7.216z M118.051,31.065v33.817L88.476,47.975L118.051,31.065z M85.446,92.317V53.284
		l34.143,19.517c0.376,0.205,0.789,0.332,1.211,0.372c0.654,0.092,1.315-0.058,1.864-0.417c0.925-0.546,1.492-1.537,1.492-2.611
		V31.111l32.605,18.632v85.333l-34.19-19.518c-0.366-0.18-0.758-0.306-1.165-0.372c-0.642-0.05-1.29,0.076-1.862,0.372
		l-34.141,19.47L85.446,92.317z M124.201,207.508c0.05-0.309,0.05-0.624,0-0.934c0.054-0.324,0.054-0.65,0-0.975v-41.551
		l32.607-18.63v122.361l-32.607-18.633v-41.545V207.508z M121.174,158.787l-32.605-18.632l32.605-18.633l32.606,18.633
		L121.174,158.787z M85.587,145.418l32.605,18.63v37.264l-32.605-18.631V145.418z M82.562,187.991l32.605,18.633l-32.605,18.632
		l-32.606-18.632L82.562,187.991z M118.239,211.889v37.258l-32.607,18.633v-37.262L118.239,211.889z M79.487,182.681L46.88,201.313
		v-85.055l32.607-18.629v42.619c-0.031,0.263-0.031,0.529,0,0.793v41.921V182.681z M79.487,53.284v33.723L50,70.191L79.487,53.284z
		 M40.825,205.691c-0.054,0.309-0.054,0.623,0,0.933v83.19L8.22,271.18V97.533l32.605,18.632V205.691z M11.15,92.271l32.605-18.631
		l32.608,18.631l-32.608,18.63L11.15,92.271z M118.287,334.206l-71.5-40.667v-81.556l32.607,18.626v42.527
		c-0.008,1.101,0.578,2.115,1.533,2.653l37.265,21.247v37.262L118.287,334.206z M88.707,273.045l32.605-18.629l32.606,18.629
		l-32.606,18.635L88.707,273.045z M124.342,296.988l32.605-18.633v37.262l-32.605,18.636V296.988z M160.021,358.099l-32.604-18.63
		l32.604-18.633l32.605,18.633L160.021,358.099z M195.701,334.157l-32.605-18.635v-41.5c0.037-0.32,0.037-0.65,0-0.978
		c0.04-0.321,0.04-0.651,0-0.979v-38.145l32.605,18.631v81.56V334.157z M198.728,247.38l-32.605-18.632l32.605-18.629l32.605,18.629
		L198.728,247.38z M234.41,315.522l-32.604,18.635v-81.604l32.604-18.631v81.558V315.522z M234.41,223.486l-29.44-16.862
		l29.531-16.865v33.772L234.41,223.486z M234.41,179.187l-32.604-18.631V75.548L234.41,94.18v85.146V179.187z M237.437,88.684
		l-32.605-18.632l32.605-18.631l32.605,18.631L237.437,88.684z M311.963,271.274l-71.406,40.802v-37.262l37.264-21.285
		c0.476-0.294,0.863-0.713,1.116-1.215l0,0c0.104-0.238,0.181-0.486,0.234-0.742l0,0v-91.156l32.606-18.631V271.18L311.963,271.274z
		 M311.963,131.305l-32.607-18.632V75.548l32.607,18.632v37.264V131.305z"/>
</g>
</svg>
