<svg width="287" height="71" viewBox="0 0 287 71" fill="none" xmlns="http://www.w3.org/2000/svg">
<path fill-rule="evenodd" clip-rule="evenodd" d="M34.2312 53.2958H11.8722V46.3766H31.7469C32.2485 46.3766 32.6546 45.9675 32.6546 45.4621V37.7487C32.6546 37.2434 32.2485 36.8342 31.7469 36.8342H11.8722V30.2279H33.9207C34.4223 30.2279 34.8284 29.8188 34.8284 29.3134V20.854C34.8284 20.3486 34.4223 19.9395 33.9207 19.9395H0.907737C0.406093 19.9395 0 20.3486 0 20.854V62.6817C0 63.1871 0.406093 63.5963 0.907737 63.5963H34.2312C34.7329 63.5963 35.139 63.1871 35.139 62.6817V54.2103C35.139 53.7049 34.7329 53.2958 34.2312 53.2958ZM81.5769 38.0857H63.5296C62.9921 38.0857 62.5622 38.5189 62.5622 39.0604V45.9675C62.5622 46.509 62.9921 46.9422 63.5296 46.9422H71.102V52.1646C71.102 52.2128 71.0782 52.2609 71.0304 52.285C69.2507 53.4402 67.0411 54.0539 64.1746 54.0539C57.3068 54.0539 52.4218 48.9999 52.4218 41.9484V41.828C52.4218 35.1496 57.2471 29.8549 63.4938 29.8549C67.4472 29.8549 70.3974 31.1425 73.2758 33.4168C73.658 33.7176 74.2075 33.6454 74.518 33.2724L80.4183 26.1246C80.7408 25.7395 80.693 25.1619 80.2989 24.837C75.8677 21.203 70.6482 19.061 63.4221 19.061C49.9972 19.061 40.0957 29.0366 40.0957 41.7679V41.8882C40.0957 55.1128 50.1763 64.4627 63.6729 64.4627C71.3409 64.4627 77.5876 61.6709 82.1382 58.0008C82.3532 57.8323 82.4726 57.5676 82.4726 57.2908V38.9882C82.4846 38.4948 82.0785 38.0857 81.5769 38.0857ZM129.149 19.9395H119.081C118.579 19.9395 118.173 20.3486 118.173 20.854V43.0193L100.627 20.2884C100.46 20.0718 100.197 19.9395 99.9107 19.9395H90.057C89.5554 19.9395 89.1493 20.3486 89.1493 20.854V62.6817C89.1493 63.1871 89.5554 63.5963 90.057 63.5963H100.126C100.627 63.5963 101.033 63.1871 101.033 62.6817V39.638L119.26 63.2353C119.427 63.4519 119.69 63.5842 119.976 63.5842H129.149C129.651 63.5842 130.057 63.1751 130.057 62.6697V20.854C130.045 20.3486 129.639 19.9395 129.149 19.9395ZM243.763 19.9395H207.597C207.095 19.9395 206.689 20.3486 206.689 20.854V29.6263C206.689 30.1317 207.095 30.5408 207.597 30.5408H219.684V62.6817C219.684 63.1871 220.09 63.5963 220.592 63.5963H230.78C231.282 63.5963 231.688 63.1871 231.688 62.6817V30.6611C231.688 30.5889 231.748 30.5408 231.807 30.5408H243.763C244.265 30.5408 244.671 30.1317 244.671 29.6263V20.854C244.671 20.3486 244.265 19.9395 243.763 19.9395ZM286.092 53.2958H263.733V46.3766H283.608C284.11 46.3766 284.516 45.9675 284.516 45.4621V37.7487C284.516 37.2434 284.11 36.8342 283.608 36.8342H263.733V30.2279H285.782C286.283 30.2279 286.689 29.8188 286.689 29.3134V20.854C286.689 20.3486 286.283 19.9395 285.782 19.9395H252.769C252.267 19.9395 251.861 20.3486 251.861 20.854V62.6817C251.861 63.1871 252.267 63.5963 252.769 63.5963H286.092C286.594 63.5963 287 63.1871 287 62.6817V54.2103C286.988 53.7049 286.582 53.2958 286.092 53.2958Z" fill="#4B4F54"/>
<path fill-rule="evenodd" clip-rule="evenodd" d="M170.845 20.5168H165.865C165.53 20.5168 165.256 20.24 165.256 19.9031V0.613698C165.256 0.276766 165.53 0 165.865 0H170.845C171.18 0 171.455 0.276766 171.455 0.613698V19.9031C171.455 20.24 171.18 20.5168 170.845 20.5168Z" fill="#32BDB5"/>
<path fill-rule="evenodd" clip-rule="evenodd" d="M181.32 47.4836L183.805 43.1395C183.972 42.8508 184.342 42.7425 184.641 42.9109L201.219 52.5496C201.505 52.7181 201.613 53.0911 201.446 53.3919L198.961 57.7359C198.794 58.0247 198.424 58.133 198.125 57.9646L181.547 48.3259C181.249 48.1454 181.153 47.7724 181.32 47.4836Z" fill="#32BDB5"/>
<path fill-rule="evenodd" clip-rule="evenodd" d="M152.906 43.1392L155.39 47.4832C155.557 47.772 155.462 48.1571 155.163 48.3256L138.585 57.9642C138.298 58.1327 137.916 58.0364 137.749 57.7356L135.265 53.3916C135.097 53.1028 135.193 52.7177 135.492 52.5493L152.07 42.9106C152.356 42.7421 152.739 42.8384 152.906 43.1392Z" fill="#32BDB5"/>
<path fill-rule="evenodd" clip-rule="evenodd" d="M199.738 24.7769L194.59 15.8001C194.28 15.2706 193.611 15.0781 193.073 15.3909L168.349 29.7707L143.625 15.3909C143.1 15.0781 142.419 15.2706 142.109 15.8001L136.961 24.7769C136.65 25.3064 136.841 25.9923 137.367 26.3051L162.091 40.6849V69.4445C162.091 70.0582 162.58 70.5636 163.201 70.5636H173.485C174.094 70.5636 174.596 70.0702 174.596 69.4445V40.6849L199.32 26.3051C199.857 25.9923 200.036 25.3064 199.738 24.7769Z" fill="#4B4F54"/>
</svg>