<?xml version="1.0" encoding="utf-8"?>
<!-- Generator: Adobe Illustrator 16.0.0, SVG Export Plug-In . SVG Version: 6.00 Build 0)  -->
<!DOCTYPE svg PUBLIC "-//W3C//DTD SVG 1.1//EN" "http://www.w3.org/Graphics/SVG/1.1/DTD/svg11.dtd">
<svg version="1.1" id="Réteg_1" xmlns="http://www.w3.org/2000/svg" xmlns:xlink="http://www.w3.org/1999/xlink" x="0px" y="0px"
	 width="799.709px" height="167.49px" viewBox="0 316.255 799.709 167.49" enable-background="new 0 316.255 799.709 167.49"
	 xml:space="preserve">
<path fill="none" d="M426.392,422.116c0,9.436,9.436,11.795,20.052,11.795c10.32,0,20.052-2.949,25.359-8.552v-10.615
	c-6.782-2.654-15.629-4.424-24.475-4.424C434.059,410.025,426.392,412.385,426.392,422.116z M206.414,380.538
	c-13.859,0-22.706,7.077-25.064,19.167h49.539C229.119,387.91,222.042,380.538,206.414,380.538z"/>
<path fill="#102838" d="M206.708,368.153c-25.654,0-41.873,17.398-41.873,39.809v2.063c0,23.886,17.692,37.155,42.167,37.155
	c17.692,0,29.488-5.898,36.564-12.09L235.017,423c-5.013,6.192-14.154,10.616-27.129,10.616c-15.333,0-26.244-6.487-27.128-22.411
	h66.937v-2.064C247.991,389.09,237.375,368.153,206.708,368.153L206.708,368.153z M181.644,399.41
	c2.359-12.09,11.205-19.167,25.064-19.167c15.333,0,22.706,7.667,24.475,19.167H181.644z M361.813,368.153
	c-13.564,0-23.59,7.077-29.192,14.154c-4.129-8.552-13.859-14.154-25.949-14.154c-14.449,0-23.885,6.487-28.604,12.68l-1.179-11.205
	h-15.923v75.783h17.692v-52.488c4.718-6.487,12.975-10.026,21.821-10.026c13.858,0,19.167,7.077,19.167,19.167v43.052h17.987
	v-53.078c4.718-5.308,11.205-8.846,20.937-8.846c14.153,0,20.051,7.667,20.051,21.526v40.398h17.693v-40.104
	C396.609,380.538,385.108,368.153,361.813,368.153z M487.726,400.885c0.59-23.59-15.628-32.731-37.154-32.731
	c-15.923,0-26.244,3.539-34.501,7.962l5.604,13.564c5.308-4.718,14.743-7.961,26.833-7.961c13.859,0,23.886,4.128,23.591,17.692
	l-0.295,4.719c-7.372-3.244-17.398-5.898-28.309-5.898c-18.872,0-33.911,5.898-33.911,25.064c0,17.398,16.514,23.886,33.026,23.886
	c15.629,0,24.77-5.898,29.783-10.911c0.295,3.244,0.884,6.782,1.474,9.437h15.039c-0.885-3.244-1.475-8.552-1.475-20.347
	C487.431,417.692,487.431,408.551,487.726,400.885z M472.098,425.359c-5.309,5.897-15.334,8.552-25.359,8.552
	c-10.911,0-20.052-2.654-20.052-11.795c0-9.731,7.667-12.091,21.23-12.091c8.847,0,17.398,2.064,24.476,4.424v10.91H472.098z
	 M522.521,386.73l-0.885-17.397h-15.924v75.783h17.104v-44.821c2.948-8.846,9.73-15.628,18.282-15.628
	c4.423,0,7.962,1.179,10.32,2.654l2.949-16.513c-2.359-1.179-6.782-2.064-10.616-2.064
	C533.137,368.743,525.765,375.23,522.521,386.73z M602.728,400.295c-15.333-1.77-25.064-1.475-25.064-8.257
	c0-7.077,7.077-10.615,19.462-10.615c10.91,0,20.937,2.064,27.424,6.487l5.013-13.27c-8.847-4.128-20.052-6.487-32.731-6.487
	c-23.59,0-34.501,11.205-34.501,25.064s11.206,17.103,30.078,19.462c15.923,1.475,25.654,0.885,25.654,9.73
	c0,8.257-8.552,11.501-22.411,11.501c-12.09,0-23.59-3.834-30.667-10.321l-5.897,14.449c9.141,5.603,22.41,9.142,36.859,9.142
	c22.706,0,36.564-8.257,36.564-25.654C632.805,403.834,616.587,401.77,602.728,400.295L602.728,400.295z M708.588,369.628
	l-25.949,61.924l-25.359-61.924h-18.872l34.796,75.488c-3.244,7.077-9.142,17.692-16.219,28.013l16.809,5.309
	c15.923-25.949,34.205-65.168,53.372-108.515h-18.577V369.628z M769.923,400.295c-15.334-1.77-25.064-1.475-25.064-8.257
	c0-7.077,7.077-10.615,19.462-10.615c10.91,0,20.936,2.064,27.423,6.487l5.013-13.27c-8.846-4.128-20.051-6.487-32.73-6.487
	c-23.591,0-34.501,11.205-34.501,25.064s11.205,17.103,30.077,19.462c15.924,1.475,25.654,0.885,25.654,9.73
	c0,8.257-8.551,11.501-22.41,11.501c-12.09,0-23.59-3.834-30.667-10.321l-5.897,14.449c9.141,5.603,22.41,9.142,36.859,9.142
	c22.705,0,36.564-8.257,36.564-25.654C800,403.834,783.782,401.77,769.923,400.295z"/>
<path fill="#E2E71F" d="M57.796,419.757l57.501-25.949v-25.654l-57.501,25.654"/>
<path fill="#5B87DA" d="M29.193,483.745l86.104-38.039v-25.949l-86.104,38.039"/>
<path fill="#4D868E" d="M28.898,380.833L0,393.808l57.796,25.949v-25.949"/>
<path fill="#05CE7C" d="M115.297,342.204v-25.949L0,368.153v25.654l28.898-12.975"/>
</svg>
