<?xml version="1.0" encoding="UTF-8"?>
<svg width="1763px" height="255px" viewBox="0 0 1763 255" version="1.1" xmlns="http://www.w3.org/2000/svg" xmlns:xlink="http://www.w3.org/1999/xlink">
    <g id="Page-1" stroke="none" stroke-width="1" fill="none" fill-rule="evenodd">
        <g id="Group" transform="translate(881.500000, 127.500000) scale(1, -1) translate(-881.500000, -127.500000) ">
            <path d="M1572.1,253.6 C1567,251.9 1561.4,246.9 1559.4,242.3 C1557.3,237.4 1557.6,226.7 1560,222.1 C1564.1,213.9 1571.2,210.5 1582.2,211.2 C1590.7,211.9 1596.1,215.2 1599.7,221.9 C1603.8,229.7 1602.4,241.7 1596.7,247.8 C1591.2,253.7 1580.4,256.2 1572.1,253.6 Z" id="Shape" fill="#0059AE"></path>
            <polygon id="Shape" fill="#FD0C1A" points="0 157 0 61 21.5 61 43 61 43 95.5 43 130 88.5 130 134 130 134 149 134 168 88.5 168 43 168 43 191 43 214 91.5 214 140 214 140 233.5 140 253 70 253 0 253"></polygon>
            <path d="M582,216.8 L582,180.6 L577.8,184.7 C567.6,194.6 555.6,199 538.8,199 C506.8,198.9 482.9,181.1 474.8,151.3 C472,141 471.8,119 474.4,108.5 C479,89.5 491.1,73.9 507.2,66.1 C517.8,61 526.6,59 539.5,59 C556.8,59 569.2,63.5 578.9,73.2 C584.5,78.7 584.3,78.9 585.6,67.3 L586.3,61 L603.6,61 L621,61 L621.2,157 L621.5,253 L601.8,253 L582,253 L582,216.8 Z M561.4,160.2 C576.3,153.2 583.6,138.9 580.9,122.1 C578.6,107.2 569.4,98 554.2,95 C536.6,91.5 521.2,98.5 514.7,112.9 C511.8,119.4 511.1,134.1 513.5,141.2 C515.5,147.5 519.9,154.1 524.4,157.5 C534,164.8 549.2,165.9 561.4,160.2 Z" id="Shape" fill="#FD0C1A"></path>
            <path d="M654,233.5 L654,213.9 L676.8,214 C696.5,214.1 700.4,213.9 706.2,212.2 C729.1,205.6 741.4,186.7 741.3,158.5 C741.2,128.1 727,107 703.2,102.1 C700.3,101.5 688.1,101 676,101 L654,101 L654,80.9 L654,60.7 L679.8,61.3 C700.6,61.7 707.1,62.2 714.2,63.9 C743.6,70.7 764.1,87.9 775.3,115.1 C781.1,128.9 782.5,137.8 782.5,159 C782.4,181.3 780.7,190 773,205.5 C764.5,222.9 753.1,234.4 736.5,242.5 C719.6,250.8 706.5,253 674.8,253 L654,253 L654,233.5 Z" id="Shape" fill="#0059AE"></path>
            <path d="M214.5,199.4 C194.5,195.3 186.4,191.3 175.4,180.5 C165.9,171 161.3,162.8 158,149.6 C156.1,141.9 155.8,138.8 156.3,127.1 C156.5,119.1 157.4,111 158.4,107.5 C163.7,87.9 177.6,72.1 195.7,64.7 C223.4,53.4 261.8,57.3 284.3,73.7 C286.9,75.6 289,77.5 289,77.9 C289,78.6 283.1,85.4 271.8,97.8 L267.8,102.2 L260.6,98.6 C251,93.7 240.9,91.7 229.5,92.3 C224.6,92.6 218.3,93.6 215.5,94.5 C205.5,98 197.9,105.3 196.4,112.8 L195.8,116 L245.3,116 L294.8,116 L295.4,119.1 C295.7,120.8 296,127.5 296,134 C296,155 290.7,169.5 278.6,181.6 C269.8,190.4 260.5,195.2 247,198 C238.2,199.8 220.4,200.6 214.5,199.4 Z M235.3,166 C242.9,164.9 250.2,161.6 254.2,157.3 C256.7,154.7 260,148.3 260,146 C260,145.3 249.3,145 228,145 C206.5,145 196,145.3 196,146 C196,146.6 196.9,148.7 197.9,150.8 C201.8,158.3 210.6,164.4 219.7,166 C226.4,167.1 227.6,167.1 235.3,166 Z" id="Shape" fill="#FD0C1A"></path>
            <path d="M372,199.4 C340.5,193.3 321.9,175.9 315.5,146.6 C312.7,134.2 313.8,116.5 317.9,104 C324.9,83.2 338.1,69.9 358.8,63 C385,54.2 418.9,57.9 439.4,71.8 C443.3,74.4 446.6,77 446.7,77.6 C447.1,78.7 427.8,101.1 426,101.8 C425.5,102 423.4,101 421.2,99.6 C413.6,94.8 403.7,92.5 391,92.5 C373.5,92.5 362.8,97.2 357,107.4 C351.6,116.8 347.3,116 403.4,116 L452.8,116 L453.4,118.3 C453.7,119.5 454,126.4 454,133.6 C454,157.7 447.2,174.2 432.5,185.8 C420.5,195.2 408.4,199 388.5,199.5 C380.8,199.7 373.4,199.6 372,199.4 Z M399.5,164.8 C408.2,162.6 416.2,155.3 417.6,148.2 L418.3,145 L386.1,145 C360.4,145 354,145.3 354,146.3 C354,147 355.3,149.7 356.9,152.2 C364.8,164.7 381.1,169.5 399.5,164.8 Z" id="Shape" fill="#FD0C1A"></path>
            <path d="M1044,199.4 C1032,197.2 1022.8,192.7 1015.2,185.3 C1012.2,182.4 1009.7,180 1009.6,180 C1009.5,180 1009.3,182.6 1009.2,185.8 C1009,188.9 1008.7,192.7 1008.4,194.3 L1007.8,197 L990.4,197 L973,197 L973,129 L973,61 L992.5,61 L1012,61 L1012,99.5 C1012,132.3 1012.2,138.6 1013.6,142.7 C1018.7,157.6 1032.8,166.4 1047.5,164 C1050.3,163.5 1053,163.1 1053.6,163.1 C1056.7,162.9 1063.9,156.6 1066.6,151.8 L1069.5,146.5 L1069.8,103.8 L1070.1,61 L1090.1,61 L1110.1,61 L1109.8,106.8 C1109.4,149.6 1109.2,153 1107.3,160.1 C1100,186.4 1084.5,198.5 1057,199.5 C1051.2,199.7 1045.4,199.7 1044,199.4 Z" id="Shape" fill="#0059AE"></path>
            <path d="M1194.4,199 C1165.9,195.8 1144,177.3 1136.9,150.3 C1134.1,139.7 1133.9,120.7 1136.4,109.5 C1143,79.9 1165.4,61 1196.9,58.4 C1213.1,57.1 1229.8,62.2 1240,71.6 L1245.8,77 L1246.3,73.8 C1246.6,72 1247.2,68.4 1247.6,65.8 L1248.2,61 L1265.6,61 L1283,61 L1283,129 L1283,197 L1265.1,197 C1244.9,197 1246,197.5 1246,188.6 C1246,185.7 1245.7,183.1 1245.4,182.7 C1245.1,182.4 1243.6,183.5 1242.2,185.2 C1233.3,195.7 1214.3,201.2 1194.4,199 Z M1225.4,161.4 C1237.2,155.7 1244.1,144.4 1244.8,130 C1245.3,119.1 1242.9,112.3 1236,104.7 C1218.1,85.1 1182.8,91.8 1175.5,116.2 C1173.5,123 1173.6,135.4 1175.6,141.8 C1178.9,152 1189.1,161.4 1199.4,163.9 C1201.7,164.5 1207.1,164.8 1211.6,164.6 C1217.9,164.3 1220.8,163.7 1225.4,161.4 Z" id="Shape" fill="#0059AE"></path>
            <path d="M1382,198.9 C1373.3,197.8 1364.2,193.2 1358.7,187 L1354.2,182 L1352.8,189.3 L1351.5,196.5 L1334.5,196.5 L1317.5,196.5 L1317.2,128.8 L1317,61 L1336.4,61 L1355.9,61 L1356.2,101.3 L1356.5,141.5 L1359.4,147.8 C1369.3,169.2 1396.1,168.9 1402.6,147.4 C1403.7,143.7 1404,134.2 1404,101.8 L1404,61 L1423.5,61 L1443,61 L1443,99 C1443,122.5 1443.4,138.8 1444.1,142 C1448.9,164.4 1477.4,170.5 1486.4,151 C1488.4,146.7 1488.5,144.7 1488.8,103.8 L1489.1,61 L1509,61 L1529,61 L1529,96.3 C1528.9,136.6 1528.1,151.5 1525,162.9 C1522.7,171.1 1518,180.2 1513.2,185.4 C1508.8,190.1 1499.6,195.5 1492.8,197.5 C1484.3,200 1465.7,200.2 1458,197.8 C1449.7,195.2 1440.9,189.1 1434.9,181.6 L1429.6,175 L1426,180.7 C1416.8,195.3 1402,201.4 1382,198.9 Z" id="Shape" fill="#0059AE"></path>
            <path d="M800.3,195.8 C800.6,195.1 808.1,177.6 817,157 C825.9,136.4 836.5,111.9 840.5,102.5 C844.5,93.2 849.6,81.3 851.9,76.2 C854.2,71.1 856,66.2 856,65.3 C856,64.4 850.1,50 843,33.3 C835.8,16.6 829.7,2.3 829.4,1.5 C828.9,0.2 831.6,0 850.2,0 L871.7,0 L874.2,6.3 C876.8,12.7 887.2,37.2 907,84 C913.2,98.6 922.4,120.4 927.5,132.5 C932.6,144.6 940.7,163.7 945.4,174.9 C950.1,186.1 954,195.7 954,196.1 C954,196.6 944.4,197 932.6,197 L911.3,197 L907.7,187.8 C905.7,182.7 901.2,170.9 897.5,161.5 C893.9,152.2 888.2,137.5 884.9,129 C881.6,120.5 878.6,113.2 878.2,112.8 C877.8,112.4 873.6,122.1 868.7,134.3 C863.9,146.5 856.4,165.5 852.1,176.5 L844.2,196.5 L822,196.8 C804.3,197 799.9,196.8 800.3,195.8 Z" id="Shape" fill="#0059AE"></path>
            <polygon id="Shape" fill="#0059AE" points="1560 129 1560 61 1579.5 61 1599 61 1599 129 1599 197 1579.5 197 1560 197"></polygon>
            <path d="M1621,195.5 C1621,195.3 1630.7,180.4 1642.6,162.4 C1654.4,144.4 1663.9,129.2 1663.6,128.5 C1663.2,127.3 1644.1,99.1 1626.3,73.2 C1622.8,68.1 1619.7,63.3 1619.4,62.5 C1618.9,61.2 1621.9,61 1642.3,61 L1665.8,61 L1678,81 C1684.7,92 1690.5,101 1690.8,101 C1691.2,100.9 1696.9,91.9 1703.5,81 L1715.5,61 L1739.3,61 C1758.1,61 1763,61.3 1762.4,62.3 C1761.6,63.5 1741.1,93.9 1725.9,116.3 L1717.2,129.1 L1738.2,161.3 C1749.8,179 1759.5,194.1 1759.7,194.8 C1760.1,195.8 1755.3,196 1736.5,195.8 L1712.8,195.5 L1702.2,176.3 C1696.3,165.7 1691.1,157.2 1690.6,157.3 C1690.2,157.5 1685,166.2 1679.1,176.8 L1668.5,195.9 L1644.8,196 C1631.7,196 1621,195.8 1621,195.5 Z" id="Shape" fill="#0059AE"></path>
            <path d="M654,156.4 L654,120.8 L672.8,121.3 C693.9,121.8 698,122.8 704.9,128.7 C715,137.3 718.8,155.6 713.9,171.6 C712.2,177.2 710.8,179.5 706.6,183.6 C699.3,191 695.3,192 672.3,192 L654,192 L654,156.4 Z" id="Shape" fill="#0059AE"></path>
        </g>
    </g>
</svg>
