<svg width="165" height="50" viewBox="0 0 165 50" fill="none" xmlns="http://www.w3.org/2000/svg">
<path fill-rule="evenodd" clip-rule="evenodd" d="M56.2607 18.0612H59.9581V14.773C59.9581 12.5509 60.537 10.9959 61.6506 10.0183C62.8088 9.04072 64.5907 8.64062 66.9066 8.64062C67.5303 8.64062 68.2876 8.68508 69.0447 8.72975V12.1513C65.1248 11.8845 64.1005 12.5067 64.1005 14.9506V18.0612H69.0004V21.3051H64.1005V41.9235H59.9581V21.3051H56.2607V18.0612Z" fill="black"/>
<path fill-rule="evenodd" clip-rule="evenodd" d="M85.4806 41.9228V38.5902H85.3917C83.6989 40.9453 81.6054 42.4561 78.1754 42.4561C73.2311 42.4561 70.0685 39.4789 70.0685 34.5021V18.0605H74.211V34.2799C74.211 37.3015 76.1266 39.079 79.4227 39.079C83.0753 39.079 85.4362 36.2797 85.4362 32.5912V18.0605H89.5786V41.9228H85.4806Z" fill="black"/>
<path fill-rule="evenodd" clip-rule="evenodd" d="M96.3035 21.4372H96.4371C98.1742 19.0377 100.535 17.4824 104.01 17.4824C108.999 17.4824 112.072 20.282 112.072 25.2588V41.9222H107.974V25.7476C107.974 22.6815 105.97 20.9484 102.718 20.9484C99.0209 20.9484 96.3482 23.5701 96.3482 27.3917V41.9222H92.2054V18.0601H96.3035V21.4372Z" fill="black"/>
<path fill-rule="evenodd" clip-rule="evenodd" d="M118.619 21.4372H118.752C120.49 19.0377 122.851 17.4824 126.325 17.4824C131.314 17.4824 134.388 20.282 134.388 25.2588V41.9222H130.289V25.7476C130.289 22.6815 128.285 20.9484 125.033 20.9484C121.336 20.9484 118.664 23.5701 118.664 27.3917V41.9222H114.521V18.0601H118.619V21.4372Z" fill="black"/>
<path fill-rule="evenodd" clip-rule="evenodd" d="M140.563 28.0137H154.416C154.193 23.4368 151.832 20.6816 147.69 20.6816C143.369 20.6816 141.097 23.7922 140.563 28.0137ZM136.241 30.0135C136.241 23.0814 140.829 17.4824 147.689 17.4824C151.253 17.4824 154.014 18.8601 155.885 21.1707C157.845 23.5257 158.825 26.9472 158.825 30.9909H140.473C140.785 35.6567 143.324 39.2115 147.956 39.2115C151.253 39.2115 153.524 37.6565 154.282 35.1234H158.335C157.266 39.5672 153.435 42.5888 147.912 42.5888C140.562 42.5888 136.241 36.9899 136.241 30.0135Z" fill="black"/>
<mask id="mask0" mask-type="alpha" maskUnits="userSpaceOnUse" x="0" y="0" width="165" height="50">
<path fill-rule="evenodd" clip-rule="evenodd" d="M0 49.9916H164.392V0H0V49.9916Z" fill="white"/>
</mask>
<g mask="url(#mask0)">
<path fill-rule="evenodd" clip-rule="evenodd" d="M160.25 41.9219H164.392V8.86133H160.25V41.9219Z" fill="black"/>
<path fill-rule="evenodd" clip-rule="evenodd" d="M25.0563 3.41797C13.1296 3.41797 3.42624 13.0977 3.42624 24.9958C3.42624 36.8937 13.1296 46.5734 25.0563 46.5734C36.9832 46.5734 46.6863 36.8937 46.6863 24.9958C46.6863 13.0977 36.9832 3.41797 25.0563 3.41797ZM25.0564 49.9916C11.2401 49.9916 0 38.7784 0 24.9959C0 11.2132 11.2401 0 25.0564 0C38.8724 0 50.1127 11.2132 50.1127 24.9959C50.1127 38.7784 38.8724 49.9916 25.0564 49.9916Z" fill="#EA575E"/>
<path fill-rule="evenodd" clip-rule="evenodd" d="M15.6254 18.4531C12.0031 18.4531 9.06677 21.3824 9.06677 24.996C9.06677 28.6095 12.0031 31.5388 15.6254 31.5388C19.2478 31.5388 22.1841 28.6095 22.1841 24.996C22.1841 21.3824 19.2478 18.4531 15.6254 18.4531Z" fill="#EA575E"/>
<path fill-rule="evenodd" clip-rule="evenodd" d="M28.3359 20.6348C25.9211 20.6348 23.9636 22.5875 23.9636 24.9967C23.9636 27.4057 25.9211 29.3585 28.3359 29.3585C30.7507 29.3585 32.7082 27.4057 32.7082 24.9967C32.7082 22.5875 30.7507 20.6348 28.3359 20.6348Z" fill="#EA575E"/>
<path fill-rule="evenodd" clip-rule="evenodd" d="M37.7665 21.7246C35.9552 21.7246 34.4871 23.1892 34.4871 24.9961C34.4871 26.8028 35.9552 28.2674 37.7665 28.2674C39.5776 28.2674 41.0457 26.8028 41.0457 24.9961C41.0457 23.1892 39.5776 21.7246 37.7665 21.7246Z" fill="#EA575E"/>
</g>
</svg>
