<?xml version="1.0" encoding="UTF-8" standalone="no"?>
<!DOCTYPE svg PUBLIC "-//W3C//DTD SVG 1.1//EN" "http://www.w3.org/Graphics/SVG/1.1/DTD/svg11.dtd">
<svg width="100%" height="100%" viewBox="0 0 1071 438" version="1.1" xmlns="http://www.w3.org/2000/svg" xmlns:xlink="http://www.w3.org/1999/xlink" xml:space="preserve" style="fill-rule:evenodd;clip-rule:evenodd;stroke-linejoin:round;stroke-miterlimit:1.41421;">
    <g transform="matrix(4.16667,0,0,4.16667,0,0)">
        <g>
            <g transform="matrix(1.0012,0,0,1.0012,0,-0.838006)">
                <path d="M63.109,30.56L33.156,30.56L33.156,39.448L54.399,39.448C53.349,51.911 42.98,57.227 33.192,57.227C20.67,57.227 9.742,47.374 9.742,33.564C9.742,20.111 20.159,9.75 33.22,9.75C43.296,9.75 49.234,16.174 49.234,16.174L55.457,9.729C55.457,9.729 47.47,0.837 32.902,0.837C14.351,0.837 0,16.494 0,33.405C0,49.976 13.499,66.135 33.374,66.135C50.855,66.135 63.651,54.16 63.651,36.452C63.651,32.717 63.108,30.558 63.108,30.558L63.109,30.56Z" style="fill:rgb(88,127,192);fill-rule:nonzero;"/>
            </g>
            <g transform="matrix(1.0012,0,0,1.0012,0,-0.838006)">
                <path d="M87.767,32.367C93.811,32.367 99.538,37.253 99.538,45.127C99.538,52.833 93.835,57.859 87.739,57.859C81.041,57.859 75.757,52.494 75.757,45.066C75.757,37.796 80.975,32.367 87.767,32.367ZM87.645,24.123C75.354,24.123 66.546,33.732 66.546,44.938C66.546,56.31 75.09,66.097 87.789,66.097C99.285,66.097 108.704,57.31 108.704,45.182C108.704,31.282 97.748,24.123 87.645,24.123Z" style="fill:rgb(220,51,55);fill-rule:nonzero;"/>
            </g>
            <g transform="matrix(1.0012,0,0,1.0012,0,-0.838006)">
                <path d="M133.653,32.367C139.697,32.367 145.424,37.253 145.424,45.127C145.424,52.833 139.721,57.859 133.625,57.859C126.927,57.859 121.643,52.494 121.643,45.066C121.643,37.796 126.861,32.367 133.653,32.367ZM133.531,24.123C121.24,24.123 112.432,33.732 112.432,44.938C112.432,56.31 120.976,66.097 133.675,66.097C145.171,66.097 154.59,57.31 154.59,45.182C154.59,31.282 143.634,24.123 133.531,24.123Z" style="fill:rgb(244,194,21);fill-rule:nonzero;"/>
            </g>
            <g transform="matrix(1.0012,0,0,1.0012,0,-0.838006)">
                <path d="M179.354,32.372C184.885,32.372 190.564,37.095 190.564,45.16C190.564,53.357 184.897,57.875 179.232,57.875C173.218,57.875 167.622,52.992 167.622,45.238C167.622,37.18 173.433,32.372 179.354,32.372ZM178.537,24.145C167.256,24.145 158.389,34.026 158.389,45.115C158.389,57.748 168.669,66.125 178.343,66.125C184.324,66.125 187.505,63.75 189.853,61.025L189.853,65.163C189.853,72.404 185.457,76.74 178.821,76.74C172.41,76.74 169.195,71.973 168.077,69.269L160.012,72.64C162.873,78.691 168.633,85 178.888,85C190.104,85 198.653,77.936 198.653,63.119L198.653,25.407L189.853,25.407L189.853,28.962C187.148,26.047 183.448,24.146 178.537,24.146L178.537,24.145Z" style="fill:rgb(88,127,192);fill-rule:nonzero;"/>
            </g>
            <g transform="matrix(1.0012,0,0,1.0012,0,-0.838006)">
                <path d="M238.143,32.167C241.978,32.167 244.737,34.205 245.909,36.649L227.116,44.504C226.306,38.423 232.067,32.167 238.143,32.167ZM237.777,24.095C227.135,24.095 218.201,32.561 218.201,45.054C218.201,58.273 228.16,66.113 238.799,66.113C247.678,66.113 253.128,61.256 256.381,56.903L249.126,52.076C247.243,54.998 244.096,57.853 238.843,57.853C232.943,57.853 230.23,54.622 228.55,51.493L256.691,39.816L255.23,36.394C252.511,29.693 246.17,24.096 237.778,24.096L237.777,24.095Z" style="fill:rgb(220,51,55);fill-rule:nonzero;"/>
            </g>
            <g transform="matrix(1.0012,0,0,1.0012,0,-0.838006)">
                <rect x="204.785" y="3.007" width="9.243" height="61.86" style="fill:rgb(67,183,84);fill-rule:nonzero;"/>
            </g>
        </g>
        <g transform="matrix(0.247616,0,0,0.240289,-4.63037,4.51478)">
            <g transform="matrix(0.970409,0,0,1,0.526533,-5.68434e-14)">
                <path d="M318.294,374.268C318.183,371.713 317.641,369.491 316.669,367.602C315.696,365.713 314.377,364.129 312.71,362.852C311.044,361.574 309.058,360.616 306.752,359.977C304.446,359.338 301.933,359.018 299.21,359.018C297.544,359.018 295.752,359.213 293.835,359.602C291.919,359.991 290.141,360.671 288.502,361.643C286.863,362.616 285.516,363.921 284.46,365.56C283.405,367.199 282.877,369.241 282.877,371.685C282.877,374.074 283.46,376.018 284.627,377.518C285.794,379.018 287.321,380.227 289.21,381.143C291.099,382.06 293.266,382.796 295.71,383.352C298.155,383.907 300.627,384.435 303.127,384.935C305.683,385.435 308.169,386.032 310.585,386.727C313.002,387.421 315.169,388.366 317.085,389.56C319.002,390.754 320.544,392.31 321.71,394.227C322.877,396.143 323.46,398.546 323.46,401.435C323.46,404.546 322.794,407.157 321.46,409.268C320.127,411.379 318.446,413.102 316.419,414.435C314.391,415.768 312.141,416.727 309.669,417.31C307.196,417.893 304.821,418.185 302.544,418.185C299.044,418.185 295.766,417.81 292.71,417.06C289.655,416.31 286.988,415.088 284.71,413.393C282.433,411.699 280.641,409.518 279.335,406.852C278.03,404.185 277.405,400.935 277.46,397.102L281.127,397.102C280.96,400.379 281.433,403.143 282.544,405.393C283.655,407.643 285.196,409.491 287.169,410.935C289.141,412.379 291.46,413.421 294.127,414.06C296.794,414.699 299.599,415.018 302.544,415.018C304.321,415.018 306.224,414.796 308.252,414.352C310.28,413.907 312.141,413.157 313.835,412.102C315.53,411.046 316.946,409.657 318.085,407.935C319.224,406.213 319.794,404.046 319.794,401.435C319.794,398.935 319.21,396.893 318.044,395.31C316.877,393.727 315.335,392.449 313.419,391.477C311.502,390.504 309.335,389.727 306.919,389.143C304.502,388.56 302.016,388.018 299.46,387.518C296.96,387.018 294.488,386.435 292.044,385.768C289.599,385.102 287.433,384.199 285.544,383.06C283.655,381.921 282.127,380.449 280.96,378.643C279.794,376.838 279.21,374.518 279.21,371.685C279.21,368.852 279.808,366.421 281.002,364.393C282.196,362.366 283.752,360.727 285.669,359.477C287.585,358.227 289.738,357.31 292.127,356.727C294.516,356.143 296.877,355.852 299.21,355.852C302.321,355.852 305.224,356.199 307.919,356.893C310.613,357.588 312.974,358.671 315.002,360.143C317.03,361.616 318.655,363.518 319.877,365.852C321.099,368.185 321.794,370.991 321.96,374.268L318.294,374.268Z" style="fill:rgb(103,103,103);fill-rule:nonzero;"/>
            </g>
            <g transform="matrix(0.970409,0,0,1,0.526533,-5.68434e-14)">
                <path d="M332.627,395.768L332.627,396.268C332.627,398.768 332.96,401.157 333.627,403.435C334.294,405.713 335.28,407.713 336.585,409.435C337.891,411.157 339.53,412.518 341.502,413.518C343.474,414.518 345.766,415.018 348.377,415.018C352.655,415.018 356.044,413.893 358.544,411.643C361.044,409.393 362.766,406.268 363.71,402.268L366.877,402.268C365.933,407.268 363.891,411.102 360.752,413.768C357.613,416.435 353.46,417.768 348.294,417.768C345.127,417.768 342.363,417.199 340.002,416.06C337.641,414.921 335.669,413.366 334.085,411.393C332.502,409.421 331.321,407.088 330.544,404.393C329.766,401.699 329.377,398.796 329.377,395.685C329.377,392.685 329.78,389.81 330.585,387.06C331.391,384.31 332.599,381.893 334.21,379.81C335.821,377.727 337.835,376.06 340.252,374.81C342.669,373.56 345.516,372.935 348.794,372.935C351.794,372.935 354.446,373.491 356.752,374.602C359.058,375.713 360.988,377.227 362.544,379.143C364.099,381.06 365.28,383.282 366.085,385.81C366.891,388.338 367.294,391.046 367.294,393.935C367.294,394.213 367.28,394.532 367.252,394.893C367.224,395.254 367.21,395.546 367.21,395.768L332.627,395.768ZM364.044,393.018C363.933,390.685 363.544,388.477 362.877,386.393C362.21,384.31 361.224,382.477 359.919,380.893C358.613,379.31 357.03,378.046 355.169,377.102C353.308,376.157 351.183,375.685 348.794,375.685C346.238,375.685 343.988,376.171 342.044,377.143C340.099,378.116 338.46,379.393 337.127,380.977C335.794,382.56 334.766,384.407 334.044,386.518C333.321,388.629 332.877,390.796 332.71,393.018L364.044,393.018Z" style="fill:rgb(103,103,103);fill-rule:nonzero;"/>
            </g>
            <g transform="matrix(0.970409,0,0,1,0.526533,-5.68434e-14)">
                <path d="M403.044,408.268L402.877,408.268C402.377,409.546 401.655,410.754 400.71,411.893C399.766,413.032 398.613,414.046 397.252,414.935C395.891,415.824 394.349,416.518 392.627,417.018C390.905,417.518 389.016,417.768 386.96,417.768C382.405,417.768 378.877,416.782 376.377,414.81C373.877,412.838 372.627,409.796 372.627,405.685C372.627,403.185 373.127,401.143 374.127,399.56C375.127,397.977 376.391,396.727 377.919,395.81C379.446,394.893 381.141,394.241 383.002,393.852C384.863,393.463 386.655,393.185 388.377,393.018L393.294,392.602C395.571,392.435 397.363,392.171 398.669,391.81C399.974,391.449 400.96,390.949 401.627,390.31C402.294,389.671 402.71,388.852 402.877,387.852C403.044,386.852 403.127,385.602 403.127,384.102C403.127,382.935 402.905,381.852 402.46,380.852C402.016,379.852 401.321,378.963 400.377,378.185C399.433,377.407 398.21,376.796 396.71,376.352C395.21,375.907 393.377,375.685 391.21,375.685C387.377,375.685 384.28,376.629 381.919,378.518C379.558,380.407 378.266,383.268 378.044,387.102L374.877,387.102C375.099,382.379 376.613,378.838 379.419,376.477C382.224,374.116 386.21,372.935 391.377,372.935C396.544,372.935 400.308,373.949 402.669,375.977C405.03,378.004 406.21,380.657 406.21,383.935L406.21,408.852C406.21,409.463 406.224,410.074 406.252,410.685C406.28,411.296 406.377,411.852 406.544,412.352C406.71,412.852 406.988,413.254 407.377,413.56C407.766,413.866 408.321,414.018 409.044,414.018C409.599,414.018 410.377,413.935 411.377,413.768L411.377,416.435C410.544,416.657 409.683,416.768 408.794,416.768C407.516,416.768 406.502,416.602 405.752,416.268C405.002,415.935 404.433,415.491 404.044,414.935C403.655,414.379 403.391,413.727 403.252,412.977C403.113,412.227 403.044,411.407 403.044,410.518L403.044,408.268ZM403.044,392.435C402.266,393.379 401.085,394.018 399.502,394.352C397.919,394.685 396.155,394.935 394.21,395.102L388.877,395.602C387.321,395.768 385.766,396.004 384.21,396.31C382.655,396.616 381.252,397.129 380.002,397.852C378.752,398.574 377.738,399.56 376.96,400.81C376.183,402.06 375.794,403.685 375.794,405.685C375.794,408.852 376.794,411.199 378.794,412.727C380.794,414.254 383.544,415.018 387.044,415.018C390.655,415.018 393.516,414.366 395.627,413.06C397.738,411.754 399.349,410.254 400.46,408.56C401.571,406.866 402.28,405.227 402.585,403.643C402.891,402.06 403.044,400.991 403.044,400.435L403.044,392.435Z" style="fill:rgb(103,103,103);fill-rule:nonzero;"/>
            </g>
            <g transform="matrix(0.970409,0,0,1,0.526533,-5.68434e-14)">
                <path d="M419.46,383.435L419.71,383.435C420.099,382.046 420.808,380.741 421.835,379.518C422.863,378.296 424.113,377.241 425.585,376.352C427.058,375.463 428.696,374.782 430.502,374.31C432.308,373.838 434.183,373.629 436.127,373.685L436.127,376.852C434.46,376.629 432.558,376.796 430.419,377.352C428.28,377.907 426.238,379.129 424.294,381.018C423.516,381.852 422.835,382.657 422.252,383.435C421.669,384.213 421.183,385.074 420.794,386.018C420.405,386.963 420.099,388.018 419.877,389.185C419.655,390.352 419.516,391.741 419.46,393.352L419.46,416.768L416.294,416.768L416.294,373.935L419.46,373.935L419.46,383.435Z" style="fill:rgb(103,103,103);fill-rule:nonzero;"/>
            </g>
            <g transform="matrix(0.970409,0,0,1,0.526533,-5.68434e-14)">
                <path d="M470.71,387.185C470.544,385.296 470.058,383.629 469.252,382.185C468.446,380.741 467.405,379.546 466.127,378.602C464.849,377.657 463.363,376.935 461.669,376.435C459.974,375.935 458.155,375.685 456.21,375.685C453.544,375.685 451.183,376.227 449.127,377.31C447.071,378.393 445.349,379.838 443.96,381.643C442.571,383.449 441.516,385.504 440.794,387.81C440.071,390.116 439.71,392.491 439.71,394.935C439.71,397.824 440.044,400.491 440.71,402.935C441.377,405.379 442.405,407.504 443.794,409.31C445.183,411.116 446.905,412.518 448.96,413.518C451.016,414.518 453.433,415.018 456.21,415.018C458.21,415.018 460.058,414.685 461.752,414.018C463.446,413.352 464.946,412.435 466.252,411.268C467.558,410.102 468.627,408.699 469.46,407.06C470.294,405.421 470.849,403.629 471.127,401.685L474.294,401.685C473.96,404.241 473.266,406.518 472.21,408.518C471.155,410.518 469.821,412.199 468.21,413.56C466.599,414.921 464.766,415.963 462.71,416.685C460.655,417.407 458.488,417.768 456.21,417.768C452.71,417.768 449.724,417.143 447.252,415.893C444.78,414.643 442.752,412.963 441.169,410.852C439.585,408.741 438.419,406.31 437.669,403.56C436.919,400.81 436.544,397.935 436.544,394.935C436.544,391.935 436.974,389.102 437.835,386.435C438.696,383.768 439.96,381.435 441.627,379.435C443.294,377.435 445.349,375.852 447.794,374.685C450.238,373.518 453.044,372.935 456.21,372.935C458.544,372.935 460.724,373.227 462.752,373.81C464.78,374.393 466.585,375.268 468.169,376.435C469.752,377.602 471.044,379.088 472.044,380.893C473.044,382.699 473.655,384.796 473.877,387.185L470.71,387.185Z" style="fill:rgb(103,103,103);fill-rule:nonzero;"/>
            </g>
            <g transform="matrix(0.970409,0,0,1,0.526533,-5.68434e-14)">
                <path d="M484.877,357.268L484.877,383.102L485.044,383.102C485.599,381.491 486.391,380.06 487.419,378.81C488.446,377.56 489.641,376.491 491.002,375.602C492.363,374.713 493.849,374.046 495.46,373.602C497.071,373.157 498.71,372.935 500.377,372.935C502.877,372.935 505.002,373.241 506.752,373.852C508.502,374.463 509.933,375.268 511.044,376.268C512.155,377.268 513.03,378.393 513.669,379.643C514.308,380.893 514.766,382.157 515.044,383.435C515.321,384.713 515.488,385.949 515.544,387.143C515.599,388.338 515.627,389.379 515.627,390.268L515.627,416.768L512.46,416.768L512.46,389.685C512.46,388.629 512.377,387.296 512.21,385.685C512.044,384.074 511.558,382.532 510.752,381.06C509.946,379.588 508.724,378.324 507.085,377.268C505.446,376.213 503.183,375.685 500.294,375.685C497.849,375.685 495.683,376.129 493.794,377.018C491.905,377.907 490.294,379.143 488.96,380.727C487.627,382.31 486.613,384.199 485.919,386.393C485.224,388.588 484.877,390.991 484.877,393.602L484.877,416.768L481.71,416.768L481.71,357.268L484.877,357.268Z" style="fill:rgb(103,103,103);fill-rule:nonzero;"/>
            </g>
            <g transform="matrix(0.970409,0,0,1,0.526533,-5.68434e-14)">
                <path d="M546.46,387.018C546.46,382.685 547.099,378.616 548.377,374.81C549.655,371.004 551.502,367.699 553.919,364.893C556.335,362.088 559.308,359.879 562.835,358.268C566.363,356.657 570.349,355.852 574.794,355.852C578.294,355.852 581.321,356.31 583.877,357.227C586.433,358.143 588.585,359.282 590.335,360.643C592.085,362.004 593.516,363.491 594.627,365.102C595.738,366.713 596.585,368.227 597.169,369.643C597.752,371.06 598.155,372.282 598.377,373.31C598.599,374.338 598.71,374.907 598.71,375.018L595.044,375.018C594.655,372.518 593.849,370.282 592.627,368.31C591.405,366.338 589.877,364.657 588.044,363.268C586.21,361.879 584.169,360.824 581.919,360.102C579.669,359.379 577.294,359.018 574.794,359.018C570.905,359.018 567.433,359.768 564.377,361.268C561.321,362.768 558.738,364.782 556.627,367.31C554.516,369.838 552.905,372.796 551.794,376.185C550.683,379.574 550.127,383.185 550.127,387.018C550.127,390.852 550.683,394.463 551.794,397.852C552.905,401.241 554.516,404.199 556.627,406.727C558.738,409.254 561.321,411.268 564.377,412.768C567.433,414.268 570.905,415.018 574.794,415.018C577.683,415.018 580.391,414.421 582.919,413.227C585.446,412.032 587.655,410.449 589.544,408.477C591.433,406.504 592.946,404.227 594.085,401.643C595.224,399.06 595.877,396.379 596.044,393.602L599.71,393.602C599.377,397.157 598.502,400.435 597.085,403.435C595.669,406.435 593.863,409.032 591.669,411.227C589.474,413.421 586.933,415.129 584.044,416.352C581.155,417.574 578.071,418.185 574.794,418.185C570.349,418.185 566.363,417.379 562.835,415.768C559.308,414.157 556.335,411.949 553.919,409.143C551.502,406.338 549.655,403.032 548.377,399.227C547.099,395.421 546.46,391.352 546.46,387.018Z" style="fill:rgb(103,103,103);fill-rule:nonzero;"/>
            </g>
            <g transform="matrix(0.970409,0,0,1,0.526533,-5.68434e-14)">
                <path d="M604.794,395.352C604.794,392.296 605.224,389.421 606.085,386.727C606.946,384.032 608.21,381.657 609.877,379.602C611.544,377.546 613.599,375.921 616.044,374.727C618.488,373.532 621.294,372.935 624.46,372.935C627.627,372.935 630.433,373.532 632.877,374.727C635.321,375.921 637.377,377.546 639.044,379.602C640.71,381.657 641.974,384.032 642.835,386.727C643.696,389.421 644.127,392.296 644.127,395.352C644.127,398.407 643.696,401.296 642.835,404.018C641.974,406.741 640.71,409.116 639.044,411.143C637.377,413.171 635.321,414.782 632.877,415.977C630.433,417.171 627.627,417.768 624.46,417.768C621.294,417.768 618.488,417.171 616.044,415.977C613.599,414.782 611.544,413.171 609.877,411.143C608.21,409.116 606.946,406.741 606.085,404.018C605.224,401.296 604.794,398.407 604.794,395.352ZM607.96,395.352C607.96,397.907 608.321,400.366 609.044,402.727C609.766,405.088 610.821,407.185 612.21,409.018C613.599,410.852 615.321,412.31 617.377,413.393C619.433,414.477 621.794,415.018 624.46,415.018C627.127,415.018 629.488,414.477 631.544,413.393C633.599,412.31 635.321,410.852 636.71,409.018C638.099,407.185 639.155,405.088 639.877,402.727C640.599,400.366 640.96,397.907 640.96,395.352C640.96,392.796 640.599,390.338 639.877,387.977C639.155,385.616 638.099,383.518 636.71,381.685C635.321,379.852 633.599,378.393 631.544,377.31C629.488,376.227 627.127,375.685 624.46,375.685C621.794,375.685 619.433,376.227 617.377,377.31C615.321,378.393 613.599,379.852 612.21,381.685C610.821,383.518 609.766,385.616 609.044,387.977C608.321,390.338 607.96,392.796 607.96,395.352Z" style="fill:rgb(103,103,103);fill-rule:nonzero;"/>
            </g>
            <g transform="matrix(0.970409,0,0,1,0.526533,-5.68434e-14)">
                <path d="M651.544,373.935L654.71,373.935L654.71,383.102L654.877,383.102C655.433,381.491 656.224,380.06 657.252,378.81C658.28,377.56 659.474,376.491 660.835,375.602C662.196,374.713 663.683,374.046 665.294,373.602C666.905,373.157 668.544,372.935 670.21,372.935C672.71,372.935 674.835,373.241 676.585,373.852C678.335,374.463 679.766,375.268 680.877,376.268C681.988,377.268 682.863,378.393 683.502,379.643C684.141,380.893 684.599,382.157 684.877,383.435C685.155,384.713 685.321,385.949 685.377,387.143C685.433,388.338 685.46,389.379 685.46,390.268L685.46,416.768L682.294,416.768L682.294,389.685C682.294,388.629 682.21,387.296 682.044,385.685C681.877,384.074 681.391,382.532 680.585,381.06C679.78,379.588 678.558,378.324 676.919,377.268C675.28,376.213 673.016,375.685 670.127,375.685C667.683,375.685 665.516,376.129 663.627,377.018C661.738,377.907 660.127,379.143 658.794,380.727C657.46,382.31 656.446,384.199 655.752,386.393C655.058,388.588 654.71,390.991 654.71,393.602L654.71,416.768L651.544,416.768L651.544,373.935Z" style="fill:rgb(103,103,103);fill-rule:nonzero;"/>
            </g>
            <g transform="matrix(0.970409,0,0,1,0.526533,-5.68434e-14)">
                <path d="M696.294,402.518C696.405,404.518 696.849,406.282 697.627,407.81C698.405,409.338 699.419,410.643 700.669,411.727C701.919,412.81 703.377,413.629 705.044,414.185C706.71,414.741 708.516,415.018 710.46,415.018C711.849,415.018 713.335,414.893 714.919,414.643C716.502,414.393 717.974,413.935 719.335,413.268C720.696,412.602 721.821,411.671 722.71,410.477C723.599,409.282 724.044,407.768 724.044,405.935C724.044,403.546 723.321,401.741 721.877,400.518C720.433,399.296 718.613,398.352 716.419,397.685C714.224,397.018 711.863,396.477 709.335,396.06C706.808,395.643 704.446,395.018 702.252,394.185C700.058,393.352 698.238,392.171 696.794,390.643C695.349,389.116 694.627,386.879 694.627,383.935C694.627,381.824 695.099,380.06 696.044,378.643C696.988,377.227 698.196,376.102 699.669,375.268C701.141,374.435 702.794,373.838 704.627,373.477C706.46,373.116 708.294,372.935 710.127,372.935C712.349,372.935 714.433,373.185 716.377,373.685C718.321,374.185 720.002,374.991 721.419,376.102C722.835,377.213 723.946,378.629 724.752,380.352C725.558,382.074 725.96,384.157 725.96,386.602L722.794,386.602C722.794,384.657 722.474,382.991 721.835,381.602C721.196,380.213 720.308,379.088 719.169,378.227C718.03,377.366 716.683,376.727 715.127,376.31C713.571,375.893 711.905,375.685 710.127,375.685C708.683,375.685 707.224,375.824 705.752,376.102C704.28,376.379 702.96,376.852 701.794,377.518C700.627,378.185 699.669,379.046 698.919,380.102C698.169,381.157 697.794,382.435 697.794,383.935C697.794,385.657 698.21,387.046 699.044,388.102C699.877,389.157 700.974,390.004 702.335,390.643C703.696,391.282 705.224,391.796 706.919,392.185C708.613,392.574 710.321,392.963 712.044,393.352C714.155,393.741 716.141,394.199 718.002,394.727C719.863,395.254 721.474,395.977 722.835,396.893C724.196,397.81 725.266,398.991 726.044,400.435C726.821,401.879 727.21,403.713 727.21,405.935C727.21,408.268 726.683,410.185 725.627,411.685C724.571,413.185 723.238,414.393 721.627,415.31C720.016,416.227 718.224,416.866 716.252,417.227C714.28,417.588 712.349,417.768 710.46,417.768C708.016,417.768 705.752,417.449 703.669,416.81C701.585,416.171 699.766,415.199 698.21,413.893C696.655,412.588 695.433,410.991 694.544,409.102C693.655,407.213 693.183,405.018 693.127,402.518L696.294,402.518Z" style="fill:rgb(103,103,103);fill-rule:nonzero;"/>
            </g>
            <g transform="matrix(0.970409,0,0,1,0.526533,-5.68434e-14)">
                <path d="M732.877,395.352C732.877,392.296 733.308,389.421 734.169,386.727C735.03,384.032 736.294,381.657 737.96,379.602C739.627,377.546 741.683,375.921 744.127,374.727C746.571,373.532 749.377,372.935 752.544,372.935C755.71,372.935 758.516,373.532 760.96,374.727C763.405,375.921 765.46,377.546 767.127,379.602C768.794,381.657 770.058,384.032 770.919,386.727C771.78,389.421 772.21,392.296 772.21,395.352C772.21,398.407 771.78,401.296 770.919,404.018C770.058,406.741 768.794,409.116 767.127,411.143C765.46,413.171 763.405,414.782 760.96,415.977C758.516,417.171 755.71,417.768 752.544,417.768C749.377,417.768 746.571,417.171 744.127,415.977C741.683,414.782 739.627,413.171 737.96,411.143C736.294,409.116 735.03,406.741 734.169,404.018C733.308,401.296 732.877,398.407 732.877,395.352ZM736.044,395.352C736.044,397.907 736.405,400.366 737.127,402.727C737.849,405.088 738.905,407.185 740.294,409.018C741.683,410.852 743.405,412.31 745.46,413.393C747.516,414.477 749.877,415.018 752.544,415.018C755.21,415.018 757.571,414.477 759.627,413.393C761.683,412.31 763.405,410.852 764.794,409.018C766.183,407.185 767.238,405.088 767.96,402.727C768.683,400.366 769.044,397.907 769.044,395.352C769.044,392.796 768.683,390.338 767.96,387.977C767.238,385.616 766.183,383.518 764.794,381.685C763.405,379.852 761.683,378.393 759.627,377.31C757.571,376.227 755.21,375.685 752.544,375.685C749.877,375.685 747.516,376.227 745.46,377.31C743.405,378.393 741.683,379.852 740.294,381.685C738.905,383.518 737.849,385.616 737.127,387.977C736.405,390.338 736.044,392.796 736.044,395.352Z" style="fill:rgb(103,103,103);fill-rule:nonzero;"/>
            </g>
            <g transform="matrix(0.970409,0,0,1,0.526533,-5.68434e-14)">
                <rect x="780.377" y="357.268" width="3.167" height="59.5" style="fill:rgb(103,103,103);fill-rule:nonzero;"/>
            </g>
            <g transform="matrix(0.970409,0,0,1,0.526533,-5.68434e-14)">
                <path d="M794.877,395.768L794.877,396.268C794.877,398.768 795.21,401.157 795.877,403.435C796.544,405.713 797.53,407.713 798.835,409.435C800.141,411.157 801.78,412.518 803.752,413.518C805.724,414.518 808.016,415.018 810.627,415.018C814.905,415.018 818.294,413.893 820.794,411.643C823.294,409.393 825.016,406.268 825.96,402.268L829.127,402.268C828.183,407.268 826.141,411.102 823.002,413.768C819.863,416.435 815.71,417.768 810.544,417.768C807.377,417.768 804.613,417.199 802.252,416.06C799.891,414.921 797.919,413.366 796.335,411.393C794.752,409.421 793.571,407.088 792.794,404.393C792.016,401.699 791.627,398.796 791.627,395.685C791.627,392.685 792.03,389.81 792.835,387.06C793.641,384.31 794.849,381.893 796.46,379.81C798.071,377.727 800.085,376.06 802.502,374.81C804.919,373.56 807.766,372.935 811.044,372.935C814.044,372.935 816.696,373.491 819.002,374.602C821.308,375.713 823.238,377.227 824.794,379.143C826.349,381.06 827.53,383.282 828.335,385.81C829.141,388.338 829.544,391.046 829.544,393.935C829.544,394.213 829.53,394.532 829.502,394.893C829.474,395.254 829.46,395.546 829.46,395.768L794.877,395.768ZM826.294,393.018C826.183,390.685 825.794,388.477 825.127,386.393C824.46,384.31 823.474,382.477 822.169,380.893C820.863,379.31 819.28,378.046 817.419,377.102C815.558,376.157 813.433,375.685 811.044,375.685C808.488,375.685 806.238,376.171 804.294,377.143C802.349,378.116 800.71,379.393 799.377,380.977C798.044,382.56 797.016,384.407 796.294,386.518C795.571,388.629 795.127,390.796 794.96,393.018L826.294,393.018Z" style="fill:rgb(103,103,103);fill-rule:nonzero;"/>
            </g>
        </g>
    </g>
</svg>
