<svg version="1.1" id="Layer_1" xmlns="http://www.w3.org/2000/svg" xmlns:xlink="http://www.w3.org/1999/xlink" x="0px" y="0px" viewBox="0 0 214.9 43" enable-background="new 0 0 214.9 43" xml:space="preserve"> <g id="XMLID_10_"> <path fill="#070045" d="M0,0v43h44.2V0H0z M15.7,20.7c0,2.7-0.9,4.2-2.9,4.7c2.1,0.8,2.9,2.3,2.9,5.5v4.6l-8-0.1v-6.1 c0-1.2-1.3-1.4-2.4-1.7v-4.4c1.1-0.4,2.4-0.7,2.4-1.7v-6.4h8V20.7z M15.7,14.1H7.6V7.8h8.1V14.1z M27.5,36.4 c-7.2,0-10.6-3.8-10.6-8.7v-1.5h8.1v0.6c0,1.6,0.8,2.7,2.4,2.7c1.4,0,2.2-0.7,2.2-1.8c0-3.2-12.3-2.7-12.3-11.7 c0-4.8,3.1-9.1,10.7-9.1c6.8,0,10.2,3.9,10.2,8.7v1.6H30v-0.9c0-1.3-0.7-2.6-2.2-2.6c-1.2,0-1.9,0.7-1.9,1.8 c0,3.5,12.3,2.6,12.3,11.6C38.2,32,35,36.4,27.5,36.4z"></path> </g> <g id="isName"> <path fill="#070045" d="M51.6,12.2h6v4.5h-6V12.2z M51.6,18.7h6v16.1h-6V18.7z"></path> <path fill="#070045" d="M65.4,21.1L65.4,21.1c0.7-1,1.5-1.7,2.3-2.1c0.8-0.4,1.7-0.6,2.7-0.6c0.4,0,0.8,0.1,1,0.2v5.1h-0.1 c-1.8-0.3-3.1-0.1-4.1,0.7c-1,0.8-1.4,2.1-1.4,3.9v6.6h-6V18.7h5.7V21.1z"></path> <path fill="#070045" d="M80.8,35.3c-1.3,0-2.6-0.2-3.6-0.6s-2-1-2.8-1.8c-0.8-0.8-1.4-1.7-1.8-2.7c-0.4-1-0.6-2.2-0.6-3.4 s0.2-2.3,0.6-3.4c0.4-1,1-1.9,1.8-2.7c0.8-0.8,1.7-1.4,2.8-1.8c1.1-0.4,2.3-0.6,3.6-0.6c1.3,0,2.6,0.2,3.6,0.6c1.1,0.4,2,1,2.8,1.8 c0.8,0.8,1.3,1.7,1.7,2.7c0.4,1,0.6,2.2,0.6,3.4s-0.2,2.3-0.6,3.4c-0.4,1-1,1.9-1.7,2.7c-0.8,0.8-1.7,1.3-2.8,1.8 C83.3,35,82.1,35.3,80.8,35.3z M80.7,31.3c0.9,0,1.6-0.4,2.1-1.2c0.5-0.8,0.7-1.9,0.7-3.3c0-1.4-0.2-2.5-0.7-3.3 c-0.5-0.8-1.2-1.2-2.1-1.2c-0.9,0-1.6,0.4-2,1.2c-0.4,0.8-0.7,1.9-0.7,3.3c0,1.4,0.2,2.5,0.7,3.3C79.1,30.9,79.8,31.3,80.7,31.3z"></path> <path fill="#070045" d="M96.7,20.9L96.7,20.9c0.7-0.9,1.5-1.6,2.3-2c0.8-0.5,1.8-0.7,2.9-0.7c1.9,0,3.3,0.6,4.2,1.7 c0.9,1.1,1.4,2.6,1.4,4.5v10.4h-6v-8.9c0-0.8-0.2-1.5-0.5-2c-0.4-0.5-0.9-0.8-1.7-0.8c-0.8,0-1.3,0.3-1.8,0.9 c-0.4,0.6-0.6,1.3-0.6,2.2v8.7h-6V18.7h5.7V20.9z"></path> <path fill="#070045" d="M119.1,35.3c-1.5,0-2.8-0.2-4.1-0.5c-1.3-0.3-2.3-0.8-3.3-1.4c-0.9-0.6-1.7-1.4-2.2-2.4 c-0.5-1-0.8-2.1-0.8-3.4h6.7c0.1,0.9,0.5,1.6,1.1,2c0.7,0.4,1.5,0.6,2.6,0.6c0.3,0,0.6,0,1-0.1c0.3-0.1,0.7-0.2,0.9-0.3 c0.3-0.1,0.5-0.3,0.7-0.6c0.2-0.2,0.3-0.5,0.3-0.9s-0.1-0.6-0.3-0.9c-0.2-0.2-0.5-0.4-0.8-0.6c-0.4-0.2-0.8-0.3-1.3-0.5 s-1.1-0.3-1.8-0.5c-0.9-0.2-1.9-0.5-2.9-0.8c-1-0.3-1.9-0.7-2.7-1.2c-0.8-0.5-1.5-1.2-2-2c-0.5-0.8-0.8-1.8-0.8-3 c0-1.3,0.2-2.4,0.7-3.3c0.5-0.9,1.2-1.6,2-2.2s1.8-1,3-1.2c1.1-0.3,2.3-0.4,3.6-0.4c1.2,0,2.3,0.1,3.4,0.4c1.1,0.3,2,0.7,2.9,1.2 c0.8,0.6,1.5,1.3,2,2.1c0.5,0.9,0.8,1.9,0.8,3.1h-6.5c-0.1-0.6-0.4-1.1-0.8-1.5c-0.5-0.4-1.1-0.6-2-0.6c-0.7,0-1.3,0.1-1.8,0.4 c-0.5,0.3-0.7,0.7-0.7,1.1c0,0.3,0.1,0.6,0.3,0.8c0.2,0.2,0.6,0.4,1,0.6c0.5,0.2,1,0.3,1.7,0.4c0.7,0.1,1.4,0.3,2.3,0.5 c0.9,0.2,1.9,0.5,2.8,0.8c0.9,0.3,1.7,0.8,2.4,1.3c0.7,0.5,1.3,1.2,1.7,2c0.4,0.8,0.6,1.8,0.6,3c0,1.2-0.3,2.3-0.8,3.3 c-0.5,0.9-1.2,1.7-2.1,2.3c-0.9,0.6-1.9,1.1-3.1,1.4C121.7,35.1,120.4,35.3,119.1,35.3z"></path> <path fill="#070045" d="M138.6,35.3c-1.3,0-2.6-0.2-3.6-0.6c-1.1-0.4-2-1-2.8-1.8c-0.8-0.8-1.4-1.7-1.8-2.7c-0.4-1-0.6-2.2-0.6-3.4 s0.2-2.3,0.6-3.4c0.4-1,1-1.9,1.8-2.7c0.8-0.8,1.7-1.4,2.8-1.8c1.1-0.4,2.3-0.6,3.6-0.6s2.6,0.2,3.6,0.6c1.1,0.4,2,1,2.8,1.8 c0.8,0.8,1.3,1.7,1.7,2.7c0.4,1,0.6,2.2,0.6,3.4s-0.2,2.3-0.6,3.4c-0.4,1-1,1.9-1.7,2.7c-0.8,0.8-1.7,1.3-2.8,1.8 S140,35.3,138.6,35.3z M138.6,31.3c0.9,0,1.6-0.4,2.1-1.2c0.5-0.8,0.7-1.9,0.7-3.3c0-1.4-0.2-2.5-0.7-3.3c-0.5-0.8-1.2-1.2-2.1-1.2 c-0.9,0-1.6,0.4-2,1.2c-0.4,0.8-0.7,1.9-0.7,3.3c0,1.4,0.2,2.5,0.7,3.3C137,30.9,137.6,31.3,138.6,31.3z"></path> <path fill="#070045" d="M159.6,34.8v-2.1h-0.1c-0.6,0.8-1.3,1.5-2.1,1.9c-0.8,0.4-1.8,0.7-2.9,0.7c-1,0-1.8-0.2-2.5-0.5 s-1.3-0.7-1.8-1.3c-0.5-0.5-0.8-1.2-1.1-2c-0.2-0.8-0.4-1.6-0.4-2.5V18.7h6v8.9c0,1.7,0.7,2.6,2.1,2.6c0.8,0,1.4-0.3,1.8-0.8 c0.4-0.5,0.6-1.2,0.6-2.1v-8.7h6v16.1H159.6z"></path> <path fill="#070045" d="M173,21.1L173,21.1c0.7-1,1.5-1.7,2.3-2.1c0.8-0.4,1.7-0.6,2.7-0.6c0.4,0,0.8,0.1,1,0.2v5.1h-0.1 c-1.8-0.3-3.1-0.1-4.1,0.7c-1,0.8-1.4,2.1-1.4,3.9v6.6h-6V18.7h5.7V21.1z"></path> <path fill="#070045" d="M188.4,35.3c-1.3,0-2.5-0.2-3.6-0.6s-2-1-2.8-1.8c-0.8-0.8-1.4-1.7-1.8-2.7c-0.4-1-0.6-2.2-0.6-3.4 s0.2-2.3,0.6-3.4c0.4-1,1-1.9,1.8-2.7c0.8-0.8,1.7-1.4,2.8-1.8c1.1-0.4,2.3-0.6,3.6-0.6c1.1,0,2.2,0.2,3.1,0.5 c0.9,0.3,1.7,0.8,2.4,1.3c0.7,0.6,1.2,1.2,1.7,2s0.7,1.7,0.8,2.6h-5.7c-0.2-0.7-0.4-1.3-0.8-1.7c-0.4-0.4-0.9-0.6-1.5-0.6 c-0.9,0-1.6,0.4-2,1.2c-0.4,0.8-0.7,1.8-0.7,3.2c0,1.3,0.2,2.4,0.7,3.2c0.5,0.8,1.2,1.1,2.1,1.1c0.7,0,1.3-0.2,1.7-0.7 c0.4-0.5,0.6-1.2,0.7-2.1h5.7c0,1-0.2,1.9-0.6,2.8c-0.4,0.9-0.9,1.6-1.6,2.2s-1.6,1.1-2.6,1.5C190.7,35.1,189.6,35.3,188.4,35.3z"></path> <path fill="#070045" d="M206,35.2c-1.3,0-2.5-0.2-3.6-0.6c-1.1-0.4-2-1-2.8-1.8s-1.4-1.7-1.8-2.7c-0.4-1-0.6-2.2-0.6-3.4 c0-1.2,0.2-2.3,0.6-3.4c0.4-1,1-1.9,1.8-2.7s1.7-1.4,2.7-1.8c1-0.4,2.2-0.6,3.5-0.6c1.3,0,2.4,0.2,3.4,0.6c1,0.4,1.8,0.9,2.6,1.6 c1,0.9,1.7,2,2.2,3.4c0.5,1.4,0.7,2.8,0.6,4.4H203c0.2,0.9,0.5,1.7,1,2.2c0.5,0.5,1.2,0.8,2.1,0.8c1,0,1.8-0.4,2.2-1.2h5.8 c-0.2,0.7-0.5,1.4-1.1,2.1c-0.5,0.7-1.2,1.3-2,1.8c-0.7,0.5-1.5,0.8-2.3,1C208,35.1,207,35.2,206,35.2z M205.9,22.2 c-0.8,0-1.5,0.3-1.9,0.8c-0.5,0.5-0.8,1.2-0.9,2.1h5.5c-0.1-0.9-0.4-1.6-0.9-2.1S206.6,22.2,205.9,22.2z"></path> </g> </svg>