<svg id="Layer_1" xmlns="http://www.w3.org/2000/svg" viewBox="0 0 50 50"><style>.st3{fill-rule:evenodd;clip-rule:evenodd;fill:#4c4c4c}</style><linearGradient id="SVGID_1_" gradientUnits="userSpaceOnUse" x1="29.535" y1="44.995" x2="10.681" y2="18.387"><stop offset="0" stop-color="#f1bd0f"/><stop offset="1" stop-color="#f3a211"/></linearGradient><path d="M25.8 16.1l10.9 25.6c-3.5 2.6-7.9 4.2-12.7 4.2-4.2 0-8.2-1.3-11.5-3.4C6.8 38.8 3 32.3 3 25c0-.8 0-1.6.1-2.4l18.7-8c1.7-.7 3.4 0 4 1.5z" fill-rule="evenodd" clip-rule="evenodd" fill="url(#SVGID_1_)"/><linearGradient id="SVGID_2_" gradientUnits="userSpaceOnUse" x1="3.795" y1="34.835" x2="30.087" y2="34.835"><stop offset="0" stop-color="#d75f09"/><stop offset="1" stop-color="#e07118"/></linearGradient><path d="M24.1 45.8c-4.2 0-8.2-1.3-11.5-3.4-4.3-2.8-7.5-7.2-8.8-12.3l14.2-6c1.5-.6 3.2.1 3.9 1.5L30.1 45c-1.9.5-3.9.8-6 .8z" fill="url(#SVGID_2_)" fill-rule="evenodd" clip-rule="evenodd"/><linearGradient id="SVGID_3_" gradientUnits="userSpaceOnUse" x1="7.095" y1="39.862" x2="22.052" y2="39.862"><stop offset="0" stop-color="#cb3f30"/><stop offset="1" stop-color="#d54334"/></linearGradient><path d="M13.9 34.2c1.5-.6 3.2.1 3.9 1.5l4.3 10c-3.4-.3-6.7-1.5-9.4-3.3-2.2-1.4-4-3.2-5.5-5.3l6.7-2.9z" fill="url(#SVGID_3_)" fill-rule="evenodd" clip-rule="evenodd"/><path class="st3" d="M47.9 20.5h.7c.4 0 .9.4 1.1.8.2.4.1.9-.1 1.3l-2.7 3.8c-.1.2-.3.4-.6.4-.6.2-1.1 0-1.4-.4l-2.7-3.8c-.3-.5-.3-1.1 0-1.5.2-.3.6-.5 1-.5h.6l4.1-.1z"/><path class="st3" d="M47.7 20.7c-1-5.4-3.8-10.3-8-13.8-4.3-3.7-9.9-5.8-15.7-5.8h-.2C10.7 1.2 0 11.9 0 25c0 13.1 10.9 23.8 24.1 23.8 11.1 0 20.6-7.5 23.3-18 .4-1.4-.3-2.2-1.1-2.4-1.3-.3-2 .7-2.2 1.5-2.3 9-10.4 15.5-19.9 15.5h-.1c-5.5 0-10.7-2.2-14.6-6.1-3.9-3.9-5.9-9-5.9-14.5C3.6 13.6 12.7 4.3 24 4.3h.2c9.8.1 18.1 7.1 19.9 16.6 0 0 .5 2.1 2.1 2.1 2 .1 1.5-2.3 1.5-2.3z"/></svg>