<?xml version="1.0" encoding="utf-8"?>
<!-- Generator: Adobe Illustrator 19.2.1, SVG Export Plug-In . SVG Version: 6.00 Build 0)  -->
<svg version="1.1" id="Layer_1" xmlns="http://www.w3.org/2000/svg" xmlns:xlink="http://www.w3.org/1999/xlink" x="0px" y="0px"
	 viewBox="0 0 174 48" style="enable-background:new 0 0 174 48;" xml:space="preserve">
<style type="text/css">
	.st0{fill:#BE202E;}
	.st1{fill:#231F20;}
</style>
<polygon class="st0" points="136.9,20.5 126.8,20.5 135,26.4 131.8,36 140,30 148.2,36 145,26.4 153.2,20.5 143.1,20.5 140,10.9 "/>
<polygon class="st1" points="29.4,10.7 26.5,21.9 25.4,21.9 25.4,10.7 20.8,10.7 20.8,36.2 25.4,36.2 25.4,25.4 26.7,25.4 29,36.2 
	34.1,36.2 31,22.4 34.2,10.7 "/>
<path class="st1" d="M49.8,32.8c0,1.8-0.7,3.4-3.3,3.4h-6.1c-2.6,0-3.4-1.5-3.4-3.4V13.7c0-1.8,0.9-3,3.1-3h6.5c2.2,0,3.1,1.2,3.1,3
	L49.8,32.8L49.8,32.8z M42.3,14.6c-0.6,0-0.8,0.3-0.8,0.9v15.9c0,0.7,0.1,0.9,0.8,0.9h2c0.8,0,0.9-0.2,0.9-0.9V15.5
	c0-0.6-0.2-0.9-0.8-0.9H42.3z"/>
<path class="st1" d="M56.9,36.2c-2.7,0-3.6-1-3.6-3.6v-19c0-1.8,1.3-2.8,2.8-2.8h6.4l0.8,4.1h-4.5c-0.6,0-0.8,0.3-0.8,0.8v15.6
	c0,0.5,0.1,0.8,0.7,0.8h4.6l-0.8,4.1H56.9z"/>
<polygon class="st1" points="79.2,36.2 74.7,36.2 74.7,25.7 71.1,25.7 71.1,36.2 66.5,36.2 66.5,10.7 71.1,10.7 71.1,22 74.7,22 
	74.7,10.7 79.2,10.7 "/>
<path class="st1" d="M87,32.9l-0.5,3.3H82l4.4-25.4h5.3l4.4,25.4h-4.5l-0.5-3.3H87z M87.5,29.5h3.2l-1.6-12.6L87.5,29.5z"/>
<path class="st1" d="M106.2,10.7h4.6l-4.7,25.4h-4.8c-1.5-8.6-3.1-16.9-4.7-25.4h4.5l2.6,16.8L106.2,10.7z"/>
<path class="st1" d="M116.2,32.9l-0.5,3.3h-4.5l4.4-25.4h5.3l4.4,25.4h-4.5l-0.5-3.3H116.2z M116.8,29.5h3.2l-1.6-12.6L116.8,29.5z"
	/>
</svg>
