<svg xmlns="http://www.w3.org/2000/svg" xmlns:xlink="http://www.w3.org/1999/xlink" width="759" height="167" viewBox="0 0 759 167">
    <defs>
        <path id="a" d="M83.318.424H.06V166.94h166.516V.424z"/>
    </defs>
    <g fill="none" fill-rule="evenodd">
        <mask id="b" fill="#fff">
            <use xlink:href="#a"/>
        </mask>
        <path fill="#E39F64" d="M83.288.424C37.288.424 0 37.716 0 83.713 0 129.707 37.288 167 83.288 167c46.001 0 83.288-37.293 83.288-83.287 0-45.997-37.287-83.289-83.288-83.289" mask="url(#b)"/>
        <path fill="#29343F" d="M111.336 64.017c6.283 6.125 6.283 16.055 0 22.178L88.802 108.16c-6.283 6.131-16.473 6.131-22.756 0l33.916-33.055-22.536-21.966c-6.282-6.123-6.282-16.053 0-22.176l33.91 33.054M99.234 134.24H51.639c0-8.666 7.147-15.697 15.967-15.697H115.2c0 8.668-7.148 15.697-15.966 15.697"/>
        <path fill="#E39F64" d="M222.72 139.101h16.979l-8.507-23.359-8.472 23.359zm18.934 5.386H220.73l-4.699 13.068h-6.791l19.071-49.942h5.762l19.106 49.942h-6.757l-4.768-13.068zM263.709 139.41c0 4.208.869 7.501 2.607 9.879 1.738 2.379 4.139 3.567 7.203 3.567 4.024 0 6.963-1.806 8.815-5.42v-17.047c-1.898-3.499-4.813-5.248-8.746-5.248-3.11 0-5.534 1.2-7.272 3.602-1.738 2.4-2.607 5.957-2.607 10.667zm-6.345-.72c0-5.694 1.348-10.273 4.047-13.738 2.698-3.464 6.231-5.196 10.599-5.196 4.344 0 7.786 1.486 10.324 4.459v-19.346h6.346v52.686h-5.831l-.309-3.978c-2.538 3.109-6.071 4.664-10.599 4.664-4.299 0-7.803-1.76-10.513-5.282-2.71-3.521-4.064-8.118-4.064-13.789v-.48zM304.493 120.442l.171 4.115c2.721-3.201 6.391-4.801 11.011-4.801 5.19 0 8.723 1.989 10.598 5.968 1.235-1.784 2.842-3.224 4.82-4.322 1.977-1.098 4.316-1.646 7.014-1.646 8.141 0 12.28 4.31 12.417 12.931v24.868h-6.345v-24.491c0-2.652-.607-4.636-1.819-5.951-1.212-1.314-3.247-1.972-6.105-1.972-2.356 0-4.311.703-5.865 2.11-1.556 1.406-2.459 3.299-2.71 5.676v24.628h-6.38v-24.319c0-5.396-2.641-8.095-7.924-8.095-4.162 0-7.009 1.772-8.541 5.317v27.097h-6.345v-37.113h6.003M372.477 152.718c1.989 0 3.876-.513 5.66-1.543 1.783-1.029 3.075-2.367 3.876-4.013v-7.614h-4.974c-7.775 0-11.663 2.275-11.663 6.825 0 1.99.663 3.545 1.99 4.665 1.325 1.121 3.03 1.68 5.111 1.68zm10.53 4.837c-.366-.731-.663-2.035-.892-3.91-2.95 3.065-6.471 4.596-10.564 4.596-3.659 0-6.66-1.034-9.004-3.104-2.345-2.069-3.516-4.693-3.516-7.872 0-3.864 1.469-6.866 4.407-9.004 2.939-2.138 7.072-3.208 12.4-3.208h6.175v-2.915c0-2.217-.664-3.984-1.991-5.299-1.326-1.315-3.281-1.972-5.865-1.972-2.263 0-4.162.571-5.693 1.715-1.532 1.143-2.299 2.526-2.299 4.15h-6.38c0-1.852.657-3.641 1.973-5.368 1.314-1.727 3.098-3.093 5.35-4.099 2.252-1.007 4.728-1.509 7.427-1.509 4.276 0 7.626 1.069 10.05 3.207 2.424 2.138 3.682 5.083 3.772 8.833v17.082c0 3.407.435 6.117 1.304 8.129v.548h-6.654zM416.244 126.135a19.13 19.13 0 0 0-3.121-.24c-4.162 0-6.986 1.773-8.473 5.318v26.342h-6.345v-37.113h6.174l.103 4.287c2.081-3.315 5.03-4.973 8.85-4.973 1.234 0 2.172.16 2.812.48v5.899M432.435 140.371l-3.98 4.15v13.034h-6.346v-52.686h6.346v31.866l3.397-4.082 11.558-12.211h7.718l-14.44 15.504 16.121 21.609h-7.443l-12.931-17.184M466.289 111.455v8.987h6.929v4.904h-6.929v23.045c0 1.489.31 2.606.927 3.349.617.744 1.669 1.116 3.155 1.116.732 0 1.737-.138 3.019-.412v5.115c-1.669.455-3.293.682-4.87.682-2.836 0-4.974-.858-6.416-2.572-1.44-1.715-2.16-4.151-2.16-7.306v-23.017h-6.757v-4.904h6.757v-8.987h6.345"/>
        <path fill="#29343F" d="M745.513 45.003c1.178.393 1.375 1.082 1.375 2.654v4.031l9.734-.786v-12.29c-4.325-2.361-10.226-3.54-15.632-3.54-11.8 0-20.551 5.604-20.551 16.125 0 10.62 7.473 12.88 14.553 14.75 5.505 1.277 9.341 2.259 9.341 6.488 0 4.229-3.049 5.702-7.67 5.702-1.966 0-4.03-.392-5.31-.883-1.179-.393-1.473-.985-1.473-2.459v-4.424l-9.833.786v13.078c3.835 2.064 11.404 3.343 17.404 3.343 12.683 0 20.745-5.999 20.745-16.617 0-10.226-7.767-12.488-14.945-14.652-5.212-1.573-9.439-2.359-9.439-6.783 0-3.441 2.95-5.113 6.883-5.113 1.573 0 3.343.098 4.818.59zm-66.466.884h6.683v24.09c0 8.358.789 17.601 16.127 17.601 5.113 0 9.831-1.279 12.585-3.146l-2.261-9.342c-1.575.886-3.933 1.671-6.588 1.671-3.934 0-5.997-1.573-5.997-7.374v-23.5h11.7l.492-9.537h-12.192V25.042h-7.572c-2.065 5.901-4.72 11.112-11.797 12.389l-1.18 8.456zm-21.929 23.991c0 3.933-2.851 7.572-8.259 7.572-7.081 0-8.847-7.079-8.847-14.651 0-9.341 2.456-17.6 11.01-17.6 2.459 0 4.818.492 6.096.984v23.695zm13.569-31.266c-7.472-2.852-14.65-3.54-18.092-3.54-17.796 0-26.449 11.111-26.449 28.414 0 13.375 5.114 23.992 19.666 23.992 6.292 0 10.716-2.655 13.077-6.293l.392.099.395 4.916h15.927v-7.865l-2.753-.198c-1.67-.097-2.163-.786-2.163-2.751V38.612zm-68.63 31.266c0 3.933-2.852 7.572-8.258 7.572-7.081 0-8.85-7.079-8.85-14.651 0-9.341 2.458-17.6 11.012-17.6 2.459 0 4.818.492 6.096.984v23.695zm13.569-31.266c-7.473-2.852-14.649-3.54-18.092-3.54-17.797 0-26.45 11.111-26.45 28.414 0 13.375 5.113 23.992 19.666 23.992 6.292 0 10.718-2.655 13.078-6.293l.392.099.394 4.916h15.928v-7.865l-2.752-.198c-1.672-.097-2.164-.786-2.164-2.751V38.612zm-54.767-22.517h-19.272v8.259l3.246.295c1.867.098 2.359.787 2.359 2.852v47.392c0 2.458-.393 2.852-2.261 3.147l-3.148.392V86.2h24.188v-8.16l-5.112-.295v-61.65zm-55.258 37.069c0-3.148 2.556-7.669 8.259-7.669 7.178 0 8.653 7.865 8.653 15.928 0 8.948-2.261 15.928-9.637 15.928-2.458 0-5.309-.885-7.275-2.359V53.164zm-13.767 42.083c0 2.458-.489 2.851-2.359 3.144l-3.046.395v7.769h27.529v-8.164l-8.456-.489V85.118c2.655 1.475 6.295 2.46 9.834 2.46 13.862 0 21.04-10.619 21.04-27.827 0-15.831-6.193-24.679-17.697-24.679-5.508 0-11.014 1.966-14.062 7.375h-.195V36.35h-18.191v8.259l3.244.197c1.574.098 2.359.984 2.359 2.851v47.59zM447 45.887h6.686v24.09c0 8.358.787 17.601 16.126 17.601 5.111 0 9.833-1.279 12.584-3.146l-2.261-9.342c-1.573.886-3.933 1.671-6.587 1.671-3.934 0-5.997-1.573-5.997-7.374v-23.5h11.7l.49-9.537h-12.19V25.042h-7.573c-2.064 5.901-4.718 11.112-11.799 12.389L447 45.887zm-33.825 19.568c2.066-.297 3.934-.592 5.901-1.378l9.439 22.123h16.517v-8.16l-5.308-.295-8.948-19.272c4.719-3.834 7.375-8.752 8.063-13.47l4.425-.59V36.35h-21.731v7.965l2.558.294c1.278.295 2.063.59 2.063 1.868 0 4.523-6.98 8.75-12.979 9.537V16.095h-19.271v8.259l3.343.295c1.868.098 2.262.787 2.262 2.852V75.09c0 2.261-.59 2.754-2.262 3.047l-3.145.295V86.2H417.6v-8.16l-4.425-.295v-12.29zm-38.248-19.37c1.082 0 1.868.098 2.459.294.688.296.885.787.885 2.36v6.488l11.11-.784V36.744c-2.654-1.182-6.194-1.672-9.045-1.672-8.161 0-12.39 4.916-13.962 8.848h-.197v-7.57h-17.994v8.259l3.343.295c1.672.099 2.262.787 2.262 2.753v27.236c0 2.261-.296 2.951-2.36 3.244l-3.146.295V86.2h27.236v-8.16l-8.162-.394V55.227c0-5.211 2.852-9.142 7.571-9.142zm-50.145 23.793c0 3.933-2.851 7.572-8.259 7.572-7.08 0-8.85-7.079-8.85-14.651 0-9.341 2.458-17.6 11.013-17.6 2.458 0 4.818.492 6.096.984v23.695zm13.569-31.266c-7.473-2.852-14.651-3.54-18.092-3.54-17.797 0-26.449 11.111-26.449 28.414 0 13.375 5.113 23.992 19.665 23.992 6.292 0 10.717-2.655 13.077-6.293l.393.099.393 4.916h15.93v-7.865l-2.754-.198c-1.672-.097-2.163-.786-2.163-2.751V38.612zM212.396 20.815v8.554l5.212.295-3.146 44.541c-.295 2.459-.786 3.146-2.654 3.441l-3.049.295V86.2h23.402v-8.554l-4.916-.295 1.965-35.396h.197l13.864 37.264h10.324l14.258-37.755h.294l1.672 32.841c.098 2.456-.295 3.046-2.163 3.341l-3.049.295V86.2h23.5v-8.554l-5.015-.295-3.048-44.738c-.295-2.064.688-2.949 2.557-3.244l2.949-.295v-8.259h-21.729l-15.044 41.59h-.295l-14.453-41.59h-21.633z"/>
    </g>
</svg>
