<?xml version="1.0" encoding="UTF-8"?>
<svg width="180px" height="37px" viewBox="0 0 180 37" version="1.1" xmlns="http://www.w3.org/2000/svg" xmlns:xlink="http://www.w3.org/1999/xlink">
    <!-- Generator: Sketch 51.2 (57519) - http://www.bohemiancoding.com/sketch -->
    <title>Artboard</title>
    <desc>Created with Sketch.</desc>
    <defs></defs>
    <g id="Artboard" stroke="none" stroke-width="1" fill="none" fill-rule="evenodd">
        <g id="Group">
            <path d="M113.377147,22.2889332 L113.377147,21.2357417 C112.29448,21.2610762 111.366353,21.2963635 110.601647,21.3524614 C109.829836,21.4103688 109.166381,21.4918011 108.594406,21.5931391 C108.022431,21.6917627 107.485983,21.8256737 106.997495,21.9867287 C106.326934,22.2192633 105.802032,22.552231 105.425452,22.9892512 C105.051537,23.4217473 104.863247,23.9193893 104.856142,24.4667955 C104.863247,25.1499223 105.125254,25.6756132 105.64838,26.0438683 C106.172395,26.4175522 106.915784,26.6021322 107.881214,26.6102754 C108.389241,26.6102754 108.90171,26.5460343 109.41329,26.4338387 C109.920429,26.3153094 110.40714,26.1542544 110.862766,25.9334823 C111.318392,25.718139 111.711847,25.469318 112.047571,25.1806856 C112.473888,24.8060969 112.804284,24.3681719 113.034317,23.8786732 C113.263462,23.3828408 113.377147,22.8571498 113.377147,22.2889332 Z M113.377147,16.4239959 L113.377147,15.5599084 C113.383364,14.6578192 113.100929,13.9964077 112.535171,13.5657211 C111.968525,13.1350346 111.083918,12.9224058 109.873356,12.9278346 C108.697433,12.9224058 107.782628,13.1296058 107.111179,13.5539587 C106.442395,13.9746924 105.974335,14.6460567 105.700782,15.5599084 L98.6558985,14.3927117 C98.8957016,13.6625351 99.1612614,13.0255534 99.4436962,12.4781472 C99.7270192,11.939789 100.052086,11.4575286 100.428665,11.0322709 C100.804357,10.6097276 101.244884,10.2143284 101.757352,9.84607334 C102.751203,9.13218325 103.934232,8.59292028 105.309991,8.23733244 C106.686639,7.87722059 108.26934,7.70440309 110.055429,7.70440309 C110.972898,7.70440309 111.86017,7.75959612 112.722573,7.86726775 C113.582311,7.9794634 114.368333,8.13056561 115.081525,8.3260032 C115.792941,8.52506 116.39689,8.75578494 116.883601,9.0199876 C117.672287,9.45157894 118.309986,9.98722271 118.812684,10.6042988 C119.312718,11.2313277 119.679528,11.9651235 119.921108,12.8210677 C120.159135,13.6742976 120.276372,14.6578192 120.276372,15.7870141 L120.276372,18.4335648 C117.123404,18.7846286 114.669419,21.5089924 114.669419,24.8088113 C114.669419,28.201825 117.25574,30.9831914 120.528609,31.2084875 L120.535714,31.2718238 L113.377147,31.2718238 L113.377147,29.5418392 C112.69504,30.082007 111.994282,30.5135983 111.275761,30.8474709 C110.556351,31.1759146 109.787205,31.4211164 108.962993,31.570409 C108.140557,31.7215112 107.221311,31.7957051 106.218579,31.7957051 C104.819727,31.7957051 103.588738,31.6274116 102.530051,31.2826814 C101.474918,30.9442849 100.575212,30.4249276 99.8362628,29.731848 C99.1710311,29.1039143 98.6683327,28.353832 98.3263912,27.4870301 C97.9808971,26.6175138 97.8068178,25.6575171 97.8068178,24.6160881 C97.8068178,23.432605 98.035963,22.3757943 98.4898126,21.4547042 C98.9463267,20.5272804 99.6133347,19.7563877 100.502383,19.1311684 C101.436727,18.4543753 102.537157,17.9151123 103.799232,17.5160939 C105.064859,17.1125515 106.521441,16.8393008 108.176971,16.6891034 C108.532235,16.6483872 108.876841,16.6203383 109.220559,16.5913846 C109.565165,16.5696693 109.928422,16.5407156 110.319213,16.5307627 C110.709115,16.5117618 111.152306,16.4918562 111.643459,16.4746649 C112.143493,16.4638072 112.722573,16.4402823 113.377147,16.4239959 Z M0,8.34409927 L4.60422022,8.34409927 L11.9093343,8.34409927 L11.9093343,9.92298165 L11.9093343,10.0415109 L11.9066698,10.0577974 L11.9066698,10.059607 L11.9066698,10.7861643 C12.8347968,9.75016415 13.8659502,8.99012908 15.0081237,8.49429668 C16.1636196,7.98489222 17.4665499,7.73426161 18.917803,7.74330965 C19.8787919,7.74330965 20.7500766,7.8555053 21.5449796,8.0789918 C22.3327773,8.30609752 23.0308709,8.64358928 23.6401485,9.09870552 C23.8639647,9.24890293 24.0531427,9.41991082 24.2174523,9.58639469 C24.3906435,9.75740258 24.5514004,9.9600786 24.6997231,10.1781363 C24.8444931,10.3989084 24.9937039,10.6640158 25.1535727,10.9743635 C25.9102848,10.2107092 26.6794312,9.58639469 27.4663407,9.10865836 C28.251474,8.62639801 29.0890086,8.26719096 29.9745039,8.04370446 C30.8599992,7.81569394 31.8387512,7.70440309 32.9009903,7.70440309 C35.5379367,7.71164152 37.5318553,8.43186523 38.8667595,9.87683666 C40.1998873,11.3254273 40.8695597,13.4652879 40.8695597,16.3136098 L40.8695597,25.630373 C40.8695597,26.4057898 40.876665,27.1024886 40.8944282,27.7367559 C40.9139677,28.3719281 40.9494941,28.9681937 40.9930139,29.5418392 C41.0374219,30.1118655 41.093376,30.6882254 41.1644288,31.2718238 L33.4907284,31.2718238 C33.5653338,30.6945591 33.6212879,30.1317712 33.6648077,29.5771266 C33.7065512,29.036054 33.7438539,28.4443124 33.7616171,27.8046162 C33.7802685,27.1730633 33.7864856,26.4338387 33.7864856,25.5959905 L33.7864856,17.851776 C33.7864856,16.9207331 33.6950051,16.1579836 33.4978337,15.5861477 C33.3015504,15.008883 32.9942471,14.5881493 32.5626014,14.3329946 C32.1336203,14.0696968 31.5723033,13.9375954 30.8706571,13.9439291 C30.2382873,13.9439291 29.6423321,14.1067937 29.0747981,14.4261894 C28.5037113,14.7446803 27.9868023,15.2043206 27.5258474,15.8033006 C27.0657807,16.3986614 26.683872,17.1170755 26.3712397,17.9675909 L26.3712397,25.630373 C26.3712397,26.3786457 26.3774568,27.0662964 26.3961082,27.695135 C26.4138714,28.3275927 26.4511741,28.9274775 26.4946939,29.5083615 C26.5364374,30.0874358 26.5915034,30.676463 26.6678851,31.2718238 L18.9915202,31.2718238 C19.0652375,30.7117503 19.1203034,30.1489625 19.1629351,29.5771266 C19.2091194,29.0161483 19.2428695,28.4108347 19.262409,27.7557568 C19.2819485,27.1088222 19.2872774,26.3904081 19.2872774,25.5959905 L19.2872774,17.851776 C19.2872774,17.3315139 19.2695143,16.8899698 19.2322115,16.5307627 C19.1949088,16.1724605 19.1282968,15.8639224 19.0350401,15.6160062 C18.9435596,15.359042 18.8201054,15.1283171 18.6593485,14.921117 C18.4506309,14.6225318 18.1753014,14.3890925 17.8244783,14.2244182 C17.4736552,14.0624584 17.0793123,13.9792164 16.6316798,13.9792164 C15.6289474,13.9864548 14.7185836,14.3393283 13.9130227,15.0324079 C13.1021328,15.7300115 12.4297959,16.7189619 11.9093343,18.0028783 L11.9093343,25.5959905 C11.9093343,26.3786457 11.9164396,27.0825829 11.9350909,27.7059926 C11.9510778,28.34026 11.9883805,28.9365256 12.0310122,29.5047423 C12.074532,30.077483 12.1304861,30.6610813 12.2042033,31.2718238 L4.60422022,31.2718238 C4.67616116,30.6981783 4.73300339,30.1317712 4.77474689,29.5526969 C4.81826672,28.980861 4.85556943,28.3773569 4.87510895,27.7304223 C4.89287214,27.0943453 4.90086558,26.3786457 4.90086558,25.5959905 L4.90086558,14.018123 C4.90086558,13.0771272 4.89287214,12.2700423 4.87510895,11.6013924 L4.86267471,11.2756631 L0,11.2756631 L0,8.34409927 Z M75.9243375,13.4146189 C74.8514405,13.4227622 73.920649,13.6806312 73.1408448,14.1936549 C72.358376,14.7075834 71.7562037,15.4386647 71.3307752,16.3932326 C70.9080111,17.3514196 70.690412,18.4842338 70.6868593,19.8079615 C70.6868593,20.8846779 70.835182,21.842865 71.1158405,22.6825227 C71.4062688,23.5221805 71.8290328,24.2188793 72.3823563,24.7662855 C72.8326533,25.2268306 73.3726545,25.5760848 73.9943663,25.819477 C74.61519,26.0719172 75.2733164,26.1949705 75.9616402,26.1949705 C76.7849643,26.1886369 77.5434527,26.0275818 78.2371055,25.7009477 C78.9254293,25.3842664 79.5284898,24.9228166 80.0338527,24.3419326 C80.5418801,23.7538103 80.9379993,23.0688739 81.2213223,22.2816947 C81.4957637,21.4918011 81.6440864,20.6268088 81.6440864,19.6957659 C81.6378692,18.4643281 81.391849,17.3821829 80.9069138,16.4402823 C80.4264193,15.5029058 79.7558587,14.7700148 78.901449,14.2307518 C78.0461511,13.6987273 77.0496359,13.4227622 75.9243375,13.4146189 Z M47.9943774,16.7243907 L57.4754828,16.7243907 C57.2179165,15.5146682 56.6939023,14.5990069 55.9123217,13.9792164 C55.1342937,13.3539971 54.0986994,13.0400302 52.8268546,13.0400302 C51.5185953,13.0400302 50.466126,13.3413298 49.6676704,13.9511675 C48.8603331,14.5628148 48.3070096,15.4839049 47.9943774,16.7243907 Z M81.7178036,31.2718238 L81.7178036,30.0675301 C81.7178036,29.9571441 81.7178036,29.8295668 81.7240207,29.6974654 C81.7293497,29.5617449 81.7355668,29.4106427 81.7542182,29.2396348 C81.1396116,29.7463248 80.5489854,30.174297 79.9841158,30.5172176 C79.418358,30.8691862 78.8392778,31.1460561 78.2610858,31.3550657 C77.683782,31.5667898 77.0736162,31.7142728 76.4314767,31.810182 C75.7795674,31.9042816 75.0699278,31.9449977 74.3016696,31.9449977 C72.0564017,31.9341401 70.1264305,31.4464509 68.5206377,30.4746918 C66.9237264,29.5047423 65.6865199,28.1140591 64.8321102,26.3044518 C64.2254971,25.0214402 63.8267133,23.5556583 63.6464169,21.9125348 L47.8860219,21.9125348 C48.0751999,23.4398434 48.5921089,24.5943729 49.4385251,25.3842664 C50.2867177,26.1732552 51.4359964,26.5668448 52.9005719,26.5731784 C53.6448498,26.5731784 54.3278446,26.4546492 54.9611025,26.215781 C55.5890315,25.976008 56.1459077,25.630373 56.6264021,25.1806856 C56.8111393,25.0132969 56.964791,24.833241 57.0944623,24.6667571 C57.2214692,24.4948445 57.3395944,24.3012165 57.4390683,24.0768252 C57.537654,23.8596723 57.6353516,23.5837072 57.7348255,23.2661211 L64.1562206,25.1073965 C63.8782266,25.7525215 63.6197721,26.2954037 63.3719755,26.7450911 C63.1330605,27.1938737 62.879935,27.5919874 62.6214805,27.9367175 C62.3568089,28.2886862 62.0548346,28.6325116 61.7173339,28.9790514 C60.6666409,30.0304332 59.4081185,30.823946 57.948872,31.3650186 C56.4860729,31.9042816 54.8438655,32.173913 53.0133682,32.173913 C51.2050749,32.173913 49.5868478,31.91152 48.1666804,31.3785906 C46.7402958,30.8492805 45.5039774,30.0503389 44.4515081,28.9790514 C43.3572952,27.842618 42.527754,26.4980797 41.9557791,24.9436271 C41.3838042,23.3918888 41.0987049,21.6745715 41.0951523,19.8079615 C41.0987049,17.9377324 41.3838042,16.2475592 41.9353514,14.7338227 C42.4904513,13.2246102 43.2826898,11.9207881 44.3156196,10.8304997 C45.3494376,9.74835454 46.5866441,8.91322077 48.0174695,8.3260032 C49.4571765,7.74330965 51.0603049,7.44653405 52.8268546,7.44110523 C54.7514968,7.44653405 56.4665334,7.79397865 57.9666352,8.4734862 C59.4676252,9.16475619 60.7225949,10.1600402 61.7297681,11.4674815 C62.7289479,12.7604459 63.4430283,14.3329946 63.8817792,16.1833181 C64.002569,15.6042438 64.1571088,15.0495991 64.3409578,14.5220986 C64.8827353,12.9775988 65.6687567,11.6737767 66.6999102,10.5979652 C67.6484648,9.6397781 68.756,8.90688715 70.0145224,8.41105474 C71.2819264,7.91612715 72.6710083,7.66549654 74.1915378,7.66549654 C75.1809477,7.66549654 76.0957523,7.7550721 76.9395041,7.94327126 C77.7823677,8.13056561 78.5932576,8.43186523 79.3766145,8.83902687 C80.1573069,9.24890293 80.9486573,9.78545149 81.7542182,10.4486726 C81.7355668,10.1718027 81.7293497,9.93293449 81.7240207,9.72030563 C81.7178036,9.51039118 81.7178036,9.27423743 81.7178036,9.0199876 L81.7178036,5.90022461 C81.7178036,5.0298035 81.7115865,4.25257716 81.6929351,3.57035521 C81.6733956,2.88722845 81.6440864,2.2556755 81.5996784,1.68022038 C81.5561585,1.10295565 81.4957637,0.545596602 81.4238227,0 L85.683437,0 L88.9847268,0 L97.5918831,0 L97.5918831,2.9487551 L88.7395947,2.9487551 C88.7040683,3.8164618 88.6889696,4.80541219 88.6889696,5.90022461 L88.6889696,25.3670752 C88.6889696,26.2031137 88.6987394,26.9495768 88.7209434,27.6082738 C88.7395947,28.2705901 88.7724566,28.897619 88.813312,29.4766934 C88.8559436,30.0675301 88.9118977,30.6610813 88.9847268,31.2718238 L81.7178036,31.2718238 Z M89.9101893,31.2718238 L89.9101893,6.26757489 L97.5918831,6.26757489 L97.5918831,31.2718238 L89.9101893,31.2718238 Z" id="Fill-1" fill="#2F3A4A"></path>
            <path d="M153.086517,17.4414459 L152.090905,17.4414459 C152.162845,17.0119609 152.234785,16.6391017 152.302284,16.33158 C152.378665,16.022316 152.465703,15.7365734 152.569616,15.4717389 C152.676193,15.2086467 152.804086,14.9394563 152.967505,14.6589408 C153.499505,13.6902039 154.196699,12.9505837 155.046655,12.4374667 C155.898387,11.9313191 156.872683,11.6734539 157.942898,11.6664846 C158.784861,11.6664846 159.55133,11.794546 160.232538,12.0506689 C160.921739,12.3102765 161.536336,12.6988166 162.078105,13.2145471 C162.452903,13.5647559 162.763754,13.9463267 163.012435,14.3549037 C163.264668,14.7669654 163.462725,15.2199718 163.608381,15.7296041 C163.76203,16.2340094 163.865943,16.8072368 163.936106,17.4431882 L153.086517,17.4431882 L153.086517,17.4414459 Z M171.379657,4.82608696 C171.469359,5.39408737 171.530641,6.0030326 171.566167,6.64333982 C171.606134,7.28538936 171.623897,7.95792973 171.623897,8.64353759 L171.623897,9.95028701 L170.220626,9.95028701 C169.738363,9.95028701 169.321823,9.94244652 168.965676,9.93112136 C168.614859,9.91979619 168.296902,9.90324403 167.994933,9.87536671 C167.700068,9.84052006 167.389217,9.80131758 167.069485,9.74294944 L167.069485,12.3555771 C167.446947,12.3102765 167.803981,12.2693317 168.137036,12.2414543 C168.462986,12.2118347 168.797817,12.1900555 169.129983,12.1708899 C169.469255,12.1552089 169.83073,12.1491107 170.220626,12.1491107 L171.623897,12.1491107 L171.623897,24.4534632 C171.623897,25.2558074 171.702053,25.9196361 171.853038,26.4545322 C172.008464,26.9781031 172.259809,27.4145574 172.602633,27.7543123 C172.962332,28.0966806 173.427721,28.3615152 174.00768,28.5444601 C174.584975,28.727405 175.259966,28.8188775 176.040646,28.8188775 C176.511363,28.8188775 176.961653,28.7970983 177.380858,28.7474418 C177.809832,28.6925584 178.229037,28.6063129 178.655347,28.4948036 C179.076328,28.3798097 179.528395,28.2282267 180,28.0296008 L179.227313,25.6216972 C178.848075,25.850814 178.501698,26.029403 178.19884,26.1583356 C177.895983,26.2924953 177.604671,26.3839677 177.325793,26.4362377 C177.048691,26.4937347 176.75738,26.5181273 176.459851,26.5181273 C176.09127,26.5181273 175.758216,26.4649862 175.466016,26.3674156 C175.180033,26.2628756 174.934904,26.1243602 174.742177,25.9318324 C174.584975,25.782863 174.46774,25.5659426 174.400241,25.2802 C174.320307,24.9944575 174.288334,24.6024327 174.288334,24.1102237 L174.288334,12.1491107 L175.969594,12.1491107 C176.488271,12.1491107 176.950107,12.1552089 177.347108,12.1647917 C177.744998,12.1708899 178.120683,12.1944114 178.465284,12.2275157 C178.81699,12.2519083 179.175801,12.2989513 179.544381,12.3555771 L179.544381,9.74294944 C179.13761,9.80131758 178.773471,9.84052006 178.426206,9.87536671 C178.08871,9.90324403 177.729011,9.91979619 177.340891,9.93112136 C176.955436,9.94244652 176.498041,9.95028701 175.969594,9.95028701 L174.288334,9.95028701 L174.288334,8.64353759 C174.288334,7.90478859 174.304321,7.22353656 174.346064,6.59281217 C174.380701,5.96383012 174.445536,5.37927754 174.534351,4.82608696 L171.379657,4.82608696 Z M133.332377,28.4738956 C133.27376,28.0348278 133.228464,27.6105698 133.192938,27.2107045 C133.158301,26.8082257 133.127216,26.3970352 133.109453,25.9710349 C133.093466,25.5493904 133.086361,25.0902858 133.086361,24.5911075 L133.086361,17.9589186 C133.179616,17.5032987 133.292411,17.0938505 133.426521,16.7262183 C133.557966,16.3533592 133.736484,15.9996657 133.938981,15.6494568 C134.142366,15.3070885 134.3946,14.9394563 134.698346,14.5570143 C135.42929,13.6266087 136.204641,12.9453567 137.024399,12.5010619 C137.841494,12.0567671 138.733192,11.8328773 139.708376,11.8398467 C141.100101,11.8450737 142.156994,12.2466813 142.885274,13.0498966 C143.617106,13.8574678 143.976805,15.0326711 143.985687,16.5842182 L143.985687,24.5911075 C143.985687,25.0902858 143.976805,25.5493904 143.95993,25.9710349 C143.943056,26.3970352 143.919964,26.8082257 143.880885,27.2107045 C143.843583,27.6105698 143.796511,28.0348278 143.740558,28.4738956 L146.892588,28.4738956 C146.834858,28.10365 146.787787,27.7316619 146.754925,27.3657721 C146.720288,26.9929129 146.690091,26.5913053 146.670551,26.1487528 C146.652788,25.7114273 146.64746,25.2026662 146.64746,24.6285677 L146.64746,19.6080364 L149.327884,19.6080364 C149.366074,20.9505036 149.569459,22.1692653 149.954915,23.2599654 C150.367902,24.4534632 150.965625,25.4744701 151.745417,26.3229861 C152.530538,27.1680174 153.469308,27.8231344 154.575049,28.277012 C155.671909,28.7204357 156.91709,28.9512947 158.295492,28.9565217 C159.574422,28.9565217 160.746775,28.748313 161.808997,28.3458342 C162.867667,27.9407419 163.81443,27.3422506 164.63863,26.5521028 C164.898856,26.2924953 165.14132,26.0372435 165.349146,25.782863 C165.555196,25.5249978 165.752365,25.2322859 165.946869,24.9021139 C166.13782,24.5771689 166.34831,24.17469 166.563242,23.6999044 L164.112847,22.7355233 C163.620815,24.0588249 162.886318,25.059795 161.917351,25.7366912 C160.947496,26.4153297 159.748499,26.757698 158.33013,26.757698 C157.273236,26.757698 156.325585,26.5555875 155.490728,26.1574645 C154.656759,25.7602127 153.954235,25.1808871 153.388486,24.4194878 C153.074971,24.0109108 152.821849,23.5831681 152.628234,23.137131 C152.436394,22.6849957 152.285409,22.1744923 152.186825,21.6003937 C152.085577,21.0358779 152.02163,20.3703069 151.98788,19.6080364 L153.086517,19.6080364 L166.739095,19.6080364 C166.716003,19.2848337 166.687582,18.9476924 166.652944,18.5939988 C166.618307,18.233336 166.588998,17.908391 166.557025,17.6095809 C166.527716,17.3107709 166.5064,17.0938505 166.494854,16.9623044 C166.255055,15.4194689 165.752365,14.0918115 164.986783,12.9819457 C164.228306,11.8694663 163.25401,11.013981 162.067448,10.411134 C160.880885,9.81177158 159.525574,9.50512105 158.013062,9.50163638 C156.694165,9.50512105 155.50405,9.73772244 154.440051,10.1959559 C153.3725,10.652447 152.459486,11.3040794 151.700121,12.161307 C150.935428,13.0141788 150.351028,14.0395415 149.942481,15.2304258 C149.70801,15.9212607 149.537486,16.656525 149.43979,17.4414459 L146.64746,17.4414459 L146.64746,16.1346964 C146.64746,15.2922786 146.566638,14.5509161 146.408548,13.9018973 C146.24513,13.2485225 145.998225,12.6779086 145.668723,12.1830862 C145.099421,11.3415396 144.339169,10.7003612 143.3853,10.2639069 C142.435872,9.8265814 141.327466,9.60617633 140.06097,9.60617633 C138.487176,9.60094934 137.12476,9.94244652 135.955072,10.6254409 C134.790713,11.3127911 133.799542,12.3555771 132.98156,13.7633818 C133.017086,13.5072589 133.040177,13.2885962 133.057052,13.1239458 C133.066822,12.9505837 133.081032,12.8033566 133.081032,12.6779086 C133.086361,12.5524607 133.086361,12.4174299 133.086361,12.2858838 L133.086361,9.95028701 L130.178571,9.95028701 C130.249623,10.4015511 130.300247,10.8275515 130.347319,11.2204474 C130.386398,11.6229263 130.417483,12.0315033 130.434357,12.4479207 C130.453897,12.8573689 130.458337,13.3225717 130.458337,13.8339463 L130.458337,24.5911075 C130.458337,25.1364576 130.453897,25.6182126 130.434357,26.0407282 C130.417483,26.4649862 130.386398,26.8683362 130.347319,27.2577475 C130.300247,27.6393183 130.249623,28.046153 130.178571,28.4738956 L133.332377,28.4738956 Z" id="Fill-3" fill="#2F3A4A"></path>
            <path d="M123.751334,30.5652174 C126.404165,30.5652174 128.571429,28.3946584 128.571429,25.7386851 C128.571429,23.0773678 126.404165,20.9130435 123.751334,20.9130435 C121.094946,20.9130435 118.928571,23.0773678 118.928571,25.7386851 C118.928571,28.3946584 121.094946,30.5652174 123.751334,30.5652174" id="Fill-6" fill="#EC6525"></path>
            <polygon id="Fill-8" fill="#2F3A4A" points="117.321429 37 128.571429 37 128.571429 33.7826087 117.321429 33.7826087"></polygon>
        </g>
    </g>
</svg>