<svg id="svg" version="1.1" width="400" height="296.2962962962963" xmlns="http://www.w3.org/2000/svg" xmlns:xlink="http://www.w3.org/1999/xlink" style="display: block;"><g id="svgg"><path id="path0" d="" stroke="none" fill="#000000" fill-rule="evenodd"></path><path id="path1" d="M349.130 112.222 C 351.706 112.271,355.840 112.271,358.315 112.222 C 360.790 112.172,358.681 112.132,353.630 112.132 C 348.578 112.132,346.553 112.172,349.130 112.222 M378.889 112.222 C 381.374 112.271,385.441 112.271,387.926 112.222 C 390.411 112.172,388.378 112.132,383.407 112.132 C 378.437 112.132,376.404 112.172,378.889 112.222 " stroke="none" fill="#993300" fill-rule="evenodd"></path><path id="path2" d="M394.084 103.605 C 394.079 103.795,394.241 104.006,394.444 104.073 C 394.700 104.158,394.866 105.290,394.982 107.728 L 395.148 111.259 395.204 107.959 C 395.252 105.062,395.188 104.573,394.677 103.959 C 394.356 103.574,394.089 103.415,394.084 103.605 M342.324 107.407 C 342.325 108.711,342.377 109.208,342.440 108.511 C 342.502 107.814,342.501 106.747,342.438 106.140 C 342.374 105.534,342.323 106.104,342.324 107.407 M95.111 114.927 C 95.111 115.070,95.301 115.344,95.532 115.536 C 95.878 115.823,95.925 115.776,95.794 115.276 C 95.638 114.681,95.111 114.411,95.111 114.927 M23.578 132.642 C 23.467 132.931,23.472 133.071,23.590 132.953 C 23.708 132.836,24.048 132.960,24.346 133.230 C 25.057 133.874,25.048 133.479,24.334 132.713 C 23.814 132.155,23.766 132.151,23.578 132.642 M98.093 137.333 C 98.093 137.496,98.289 137.888,98.528 138.205 C 98.767 138.521,98.963 138.647,98.963 138.484 C 98.963 138.321,98.767 137.929,98.528 137.612 C 98.289 137.296,98.093 137.170,98.093 137.333 M139.258 144.296 C 138.994 145.117,139.009 146.152,139.276 145.507 C 139.439 145.113,139.513 144.647,139.439 144.470 C 139.366 144.293,139.285 144.215,139.258 144.296 M129.486 145.111 C 129.484 145.478,129.615 145.778,129.778 145.778 C 130.149 145.778,130.149 145.463,129.778 144.889 C 129.546 144.529,129.490 144.572,129.486 145.111 M212.444 147.407 C 212.444 148.141,212.544 148.741,212.667 148.741 C 212.789 148.741,212.889 148.141,212.889 147.407 C 212.889 146.674,212.789 146.074,212.667 146.074 C 212.544 146.074,212.444 146.674,212.444 147.407 M129.486 149.407 C 129.489 149.611,129.605 149.959,129.745 150.180 C 129.925 150.463,130.000 150.354,130.000 149.809 C 130.000 149.385,129.883 149.037,129.741 149.037 C 129.598 149.037,129.484 149.204,129.486 149.407 M173.231 193.556 C 173.307 193.678,174.353 193.778,175.556 193.778 C 176.759 193.778,177.805 193.678,177.880 193.556 C 177.956 193.433,176.910 193.333,175.556 193.333 C 174.201 193.333,173.155 193.433,173.231 193.556 " stroke="none" fill="#ff0000" fill-rule="evenodd"></path><path id="path3" d="M168.593 102.194 C 168.348 102.342,167.615 102.497,166.963 102.539 C 166.311 102.582,165.482 102.794,165.122 103.012 C 164.761 103.229,163.927 103.407,163.270 103.407 C 162.612 103.407,162.074 103.541,162.074 103.704 C 162.074 103.867,161.841 104.001,161.556 104.002 C 161.270 104.003,160.655 104.203,160.188 104.446 C 159.722 104.690,159.118 104.889,158.847 104.889 C 158.576 104.889,158.075 105.084,157.734 105.323 C 157.394 105.562,157.050 105.692,156.970 105.612 C 156.890 105.532,156.657 105.670,156.450 105.919 C 156.244 106.167,155.759 106.370,155.371 106.370 C 154.984 106.370,154.667 106.489,154.667 106.635 C 154.667 106.780,154.333 106.982,153.926 107.085 C 153.519 107.187,153.185 107.401,153.185 107.561 C 153.185 107.721,152.985 107.852,152.741 107.852 C 152.496 107.852,152.296 107.971,152.296 108.116 C 152.296 108.261,151.963 108.464,151.556 108.566 C 151.148 108.668,150.815 108.883,150.815 109.043 C 150.815 109.203,150.672 109.333,150.497 109.333 C 150.323 109.333,149.994 109.500,149.767 109.704 C 148.886 110.494,148.463 110.815,148.304 110.815 C 148.212 110.815,147.684 111.281,147.131 111.852 C 146.577 112.422,145.991 112.889,145.829 112.889 C 145.537 112.889,141.333 116.931,141.333 117.212 C 141.333 117.388,140.872 117.948,139.778 119.098 C 139.330 119.569,138.963 120.066,138.963 120.203 C 138.963 120.340,138.630 120.702,138.222 121.008 C 137.815 121.314,137.481 121.752,137.481 121.982 C 137.481 122.211,137.148 122.708,136.741 123.085 C 136.333 123.463,136.000 123.995,136.000 124.269 C 136.000 124.733,135.818 125.027,134.889 126.063 C 134.685 126.290,134.519 126.686,134.519 126.942 C 134.519 127.198,134.411 127.407,134.279 127.407 C 133.947 127.407,133.037 129.542,133.037 130.322 C 133.037 130.674,132.910 130.963,132.754 130.963 C 132.599 130.963,132.383 131.431,132.276 132.003 C 132.169 132.575,131.963 133.117,131.818 133.206 C 131.674 133.295,131.556 133.827,131.556 134.388 C 131.556 134.949,131.442 135.407,131.303 135.407 C 130.899 135.407,130.083 140.355,130.021 143.185 C 129.990 144.611,129.869 145.778,129.752 145.778 C 129.451 145.778,129.462 148.694,129.763 148.880 C 129.899 148.964,130.030 150.593,130.055 152.501 C 130.079 154.409,130.209 156.110,130.344 156.281 C 130.479 156.452,130.660 157.255,130.747 158.064 C 130.834 158.874,131.051 159.585,131.230 159.645 C 131.409 159.704,131.556 160.342,131.556 161.062 C 131.556 161.781,131.683 162.370,131.838 162.370 C 131.994 162.370,132.209 162.839,132.316 163.411 C 132.424 163.983,132.630 164.524,132.774 164.613 C 132.919 164.703,133.037 165.101,133.037 165.499 C 133.037 165.897,133.170 166.222,133.333 166.222 C 133.496 166.222,133.630 166.473,133.630 166.779 C 133.630 167.085,133.830 167.501,134.074 167.704 C 134.319 167.907,134.519 168.323,134.519 168.629 C 134.519 168.935,134.652 169.185,134.815 169.185 C 134.978 169.185,135.111 169.456,135.111 169.787 C 135.111 170.118,135.311 170.466,135.556 170.560 C 135.800 170.653,136.000 170.899,136.000 171.107 C 136.000 171.314,136.199 171.648,136.441 171.849 C 136.684 172.051,136.809 172.334,136.719 172.480 C 136.629 172.626,136.763 172.825,137.018 172.923 C 137.273 173.020,137.481 173.278,137.481 173.496 C 137.481 173.713,138.148 174.586,138.963 175.436 C 139.778 176.286,140.444 177.026,140.444 177.081 C 140.444 177.582,143.992 181.037,144.505 181.037 C 144.716 181.037,144.889 181.237,144.889 181.481 C 144.889 181.726,145.002 181.926,145.140 181.926 C 145.278 181.926,145.849 182.359,146.410 182.889 C 146.971 183.419,147.601 183.888,147.810 183.933 C 148.018 183.977,148.480 184.325,148.835 184.706 C 149.191 185.087,149.781 185.493,150.148 185.608 C 150.515 185.724,150.815 185.942,150.815 186.094 C 150.815 186.246,151.015 186.370,151.259 186.370 C 151.504 186.370,151.704 186.504,151.704 186.667 C 151.704 186.830,152.023 186.963,152.413 186.963 C 152.803 186.963,153.199 187.163,153.292 187.407 C 153.386 187.652,153.667 187.852,153.917 187.852 C 154.166 187.852,154.370 187.985,154.370 188.148 C 154.370 188.311,154.689 188.444,155.079 188.444 C 155.469 188.444,155.865 188.644,155.959 188.889 C 156.053 189.133,156.393 189.333,156.714 189.333 C 157.035 189.333,157.381 189.467,157.481 189.630 C 157.582 189.793,157.974 189.926,158.352 189.926 C 158.729 189.926,159.205 190.126,159.407 190.370 C 159.610 190.615,160.085 190.815,160.463 190.815 C 160.841 190.815,161.233 190.948,161.333 191.111 C 161.434 191.274,161.959 191.407,162.500 191.407 C 163.041 191.407,163.639 191.595,163.830 191.825 C 164.021 192.055,164.870 192.319,165.718 192.412 C 166.566 192.504,168.393 192.722,169.778 192.895 C 173.192 193.321,178.667 193.518,178.667 193.214 C 178.667 193.078,179.900 192.942,181.407 192.912 C 182.915 192.882,184.275 192.731,184.430 192.577 C 184.584 192.422,185.184 192.292,185.763 192.286 C 186.341 192.280,187.148 192.085,187.556 191.852 C 187.963 191.619,188.796 191.424,189.407 191.418 C 190.019 191.412,190.519 191.274,190.519 191.111 C 190.519 190.948,190.923 190.815,191.417 190.815 C 191.942 190.815,192.386 190.630,192.485 190.370 C 192.579 190.126,192.893 189.926,193.183 189.926 C 193.473 189.926,194.082 189.733,194.537 189.497 C 194.993 189.261,195.474 189.135,195.608 189.218 C 195.742 189.301,195.852 189.160,195.852 188.906 C 195.852 188.611,196.119 188.444,196.593 188.444 C 197.000 188.444,197.333 188.311,197.333 188.148 C 197.333 187.985,197.604 187.852,197.935 187.852 C 198.266 187.852,198.614 187.652,198.708 187.407 C 198.801 187.163,199.111 186.963,199.396 186.963 C 199.681 186.963,200.273 186.630,200.713 186.222 C 201.152 185.815,201.695 185.481,201.920 185.481 C 202.144 185.481,202.590 185.148,202.910 184.741 C 203.230 184.333,203.608 184.000,203.749 184.000 C 203.891 184.000,204.366 183.667,204.805 183.259 C 205.244 182.852,205.684 182.519,205.782 182.519 C 206.020 182.519,212.148 176.383,212.148 176.144 C 212.148 176.042,212.315 175.772,212.519 175.545 C 213.398 174.564,213.630 174.229,213.630 173.938 C 213.630 173.769,213.830 173.630,214.074 173.630 C 214.321 173.630,214.519 173.366,214.519 173.037 C 214.519 172.711,214.652 172.444,214.815 172.444 C 214.978 172.444,215.111 172.244,215.111 172.000 C 215.111 171.756,215.238 171.556,215.394 171.556 C 215.549 171.556,215.909 171.056,216.193 170.444 C 216.477 169.833,216.794 169.267,216.897 169.185 C 217.206 168.940,218.074 167.049,218.074 166.621 C 218.074 166.402,218.201 166.222,218.357 166.222 C 218.513 166.222,218.727 165.756,218.834 165.185 C 218.941 164.615,219.147 164.148,219.292 164.148 C 219.437 164.148,219.556 163.764,219.556 163.296 C 219.556 162.827,219.756 162.277,220.000 162.074 C 220.244 161.871,220.444 161.263,220.444 160.722 C 220.444 160.181,220.578 159.656,220.741 159.556 C 220.904 159.455,221.037 158.740,221.037 157.968 C 221.037 157.195,221.174 156.426,221.341 156.259 C 222.138 155.462,222.278 140.603,221.499 139.491 C 221.237 139.117,221.037 138.219,221.037 137.416 C 221.037 136.637,220.904 136.000,220.741 136.000 C 220.578 136.000,220.444 135.462,220.444 134.806 C 220.444 134.017,220.293 133.553,220.000 133.440 C 219.726 133.335,219.556 132.885,219.556 132.265 C 219.556 131.712,219.422 131.259,219.259 131.259 C 219.096 131.259,218.963 131.002,218.963 130.688 C 218.963 130.374,218.763 129.916,218.519 129.672 C 218.274 129.428,218.074 129.038,218.074 128.807 C 218.074 128.197,217.189 126.519,216.867 126.519 C 216.716 126.519,216.593 126.185,216.593 125.778 C 216.593 125.370,216.475 125.037,216.331 125.037 C 216.187 125.037,215.991 124.804,215.895 124.519 C 215.645 123.774,215.064 122.918,214.296 122.164 C 213.930 121.804,213.630 121.303,213.630 121.051 C 213.630 120.799,213.496 120.593,213.333 120.593 C 213.170 120.593,213.037 120.393,213.037 120.148 C 213.037 119.904,212.837 119.704,212.593 119.704 C 212.348 119.704,212.148 119.584,212.148 119.439 C 212.148 119.293,211.817 118.859,211.413 118.476 C 211.008 118.092,210.675 117.650,210.672 117.493 C 210.664 117.066,205.576 112.296,205.129 112.296 C 204.915 112.296,204.741 112.119,204.741 111.902 C 204.741 111.685,204.407 111.329,204.000 111.111 C 203.593 110.893,203.259 110.604,203.259 110.468 C 203.259 110.333,203.073 110.222,202.846 110.222 C 202.619 110.222,202.005 109.822,201.481 109.333 C 200.958 108.844,200.344 108.444,200.117 108.444 C 199.890 108.444,199.704 108.311,199.704 108.148 C 199.704 107.985,199.504 107.852,199.259 107.852 C 199.015 107.852,198.815 107.733,198.815 107.588 C 198.815 107.442,198.481 107.240,198.074 107.138 C 197.667 107.035,197.333 106.821,197.333 106.661 C 197.333 106.501,197.057 106.370,196.720 106.370 C 196.382 106.370,195.906 106.170,195.661 105.926 C 195.417 105.681,194.960 105.481,194.646 105.481 C 194.331 105.481,194.074 105.348,194.074 105.185 C 194.074 105.022,193.731 104.889,193.312 104.889 C 192.893 104.889,192.350 104.689,192.106 104.444 C 191.861 104.200,191.279 104.000,190.811 104.000 C 190.344 104.000,189.878 103.867,189.778 103.704 C 189.677 103.541,189.163 103.407,188.634 103.407 C 188.106 103.407,187.514 103.248,187.319 103.053 C 186.519 102.253,169.768 101.485,168.593 102.194 M286.125 102.567 C 285.853 102.719,285.630 103.171,285.630 103.570 C 285.630 103.970,285.511 104.296,285.365 104.296 C 285.220 104.296,285.018 104.630,284.915 105.037 C 284.813 105.444,284.599 105.778,284.439 105.778 C 284.279 105.778,284.148 106.100,284.148 106.494 C 284.148 106.888,284.012 107.255,283.845 107.311 C 283.679 107.366,283.471 107.811,283.383 108.298 C 283.296 108.786,283.099 109.230,282.946 109.284 C 282.792 109.338,282.667 109.691,282.667 110.067 C 282.667 110.443,282.467 110.828,282.222 110.922 C 281.978 111.016,281.778 111.355,281.778 111.677 C 281.778 111.998,281.644 112.344,281.481 112.444 C 281.319 112.545,281.185 112.886,281.185 113.203 C 281.185 113.519,281.078 113.778,280.946 113.778 C 280.814 113.778,280.468 114.344,280.176 115.037 C 279.419 116.836,278.202 119.479,277.891 120.000 C 277.745 120.244,277.550 120.644,277.458 120.889 C 277.366 121.133,277.166 121.565,277.015 121.848 C 276.864 122.131,276.741 122.548,276.741 122.775 C 276.741 123.001,276.541 123.353,276.296 123.556 C 276.052 123.758,275.852 124.175,275.852 124.481 C 275.852 124.787,275.719 125.037,275.556 125.037 C 275.393 125.037,275.259 125.370,275.259 125.778 C 275.259 126.185,275.128 126.519,274.969 126.519 C 274.809 126.519,274.594 126.852,274.492 127.259 C 274.390 127.667,274.187 128.000,274.042 128.000 C 273.897 128.000,273.778 128.274,273.778 128.610 C 273.778 128.945,273.444 129.816,273.037 130.546 C 272.630 131.276,272.296 132.121,272.296 132.423 C 272.296 132.726,272.096 133.050,271.852 133.144 C 271.607 133.238,271.407 133.586,271.407 133.917 C 271.407 134.248,271.274 134.519,271.111 134.519 C 270.948 134.519,270.815 134.852,270.815 135.259 C 270.815 135.667,270.707 136.000,270.576 136.000 C 270.277 136.000,269.333 138.100,269.333 138.766 C 269.333 139.037,269.226 139.259,269.094 139.259 C 268.803 139.259,267.852 141.352,267.852 141.994 C 267.852 142.248,267.652 142.532,267.407 142.626 C 267.163 142.719,266.963 143.059,266.963 143.381 C 266.963 143.702,266.830 144.047,266.667 144.148 C 266.504 144.249,266.370 144.574,266.370 144.870 C 266.370 145.166,266.170 145.575,265.926 145.778 C 265.681 145.981,265.481 146.397,265.481 146.703 C 265.481 147.009,265.348 147.259,265.185 147.259 C 265.022 147.259,264.889 147.593,264.889 148.000 C 264.889 148.407,264.756 148.741,264.593 148.741 C 264.430 148.741,264.296 148.873,264.296 149.034 C 264.296 149.560,263.007 152.296,262.759 152.296 C 262.627 152.296,262.519 152.555,262.519 152.871 C 262.519 153.188,262.385 153.529,262.222 153.630 C 262.059 153.730,261.926 154.124,261.926 154.504 C 261.926 154.885,261.726 155.273,261.481 155.366 C 261.237 155.460,261.037 155.800,261.037 156.121 C 261.037 156.443,260.904 156.788,260.741 156.889 C 260.578 156.990,260.444 157.331,260.444 157.647 C 260.444 157.963,260.337 158.222,260.205 158.222 C 259.937 158.222,258.963 160.293,258.963 160.861 C 258.963 161.063,258.763 161.428,258.519 161.672 C 258.274 161.916,258.074 162.366,258.074 162.670 C 258.074 162.975,257.941 163.307,257.778 163.407 C 257.615 163.508,257.481 163.854,257.481 164.175 C 257.481 164.496,257.281 164.836,257.037 164.930 C 256.793 165.024,256.593 165.345,256.593 165.644 C 256.593 165.943,256.459 166.270,256.296 166.370 C 256.133 166.471,256.000 166.796,256.000 167.092 C 256.000 167.389,255.800 167.797,255.556 168.000 C 255.311 168.203,255.111 168.619,255.111 168.925 C 255.111 169.231,254.978 169.481,254.815 169.481 C 254.652 169.481,254.519 169.728,254.519 170.030 C 254.519 170.332,254.185 171.205,253.778 171.972 C 253.370 172.738,253.037 173.500,253.037 173.666 C 253.037 173.832,252.837 174.168,252.593 174.413 C 252.348 174.657,252.148 175.114,252.148 175.429 C 252.148 175.743,252.015 176.000,251.852 176.000 C 251.689 176.000,251.556 176.319,251.556 176.709 C 251.556 177.099,251.356 177.495,251.111 177.589 C 250.867 177.682,250.667 178.030,250.667 178.361 C 250.667 178.692,250.533 178.963,250.370 178.963 C 250.207 178.963,250.074 179.288,250.074 179.686 C 250.074 180.084,249.949 180.487,249.797 180.581 C 249.384 180.836,248.593 182.529,248.593 183.157 C 248.593 183.458,248.485 183.704,248.353 183.704 C 248.052 183.704,247.111 185.806,247.111 186.479 C 247.111 186.756,246.911 187.058,246.667 187.152 C 246.422 187.246,246.222 187.642,246.222 188.032 C 246.222 188.422,246.089 188.741,245.926 188.741 C 245.763 188.741,245.630 188.981,245.630 189.274 C 245.630 189.567,245.479 189.958,245.294 190.143 C 244.281 191.156,245.190 191.407,249.857 191.407 C 254.645 191.407,255.111 191.287,255.111 190.047 C 255.111 189.689,255.311 189.320,255.556 189.226 C 255.800 189.132,256.000 188.793,256.000 188.471 C 256.000 188.150,256.133 187.804,256.296 187.704 C 256.459 187.603,256.593 187.276,256.593 186.977 C 256.593 186.678,256.793 186.357,257.037 186.263 C 257.281 186.169,257.481 185.830,257.481 185.508 C 257.481 185.187,257.615 184.841,257.778 184.741 C 257.941 184.640,258.074 184.325,258.074 184.042 C 258.074 183.758,258.227 183.373,258.413 183.187 C 258.600 183.000,259.002 182.140,259.306 181.275 C 259.610 180.411,259.991 179.659,260.152 179.605 C 260.313 179.551,260.444 179.184,260.444 178.790 C 260.444 178.396,260.578 178.074,260.741 178.074 C 260.904 178.074,261.037 177.741,261.037 177.333 C 261.037 176.872,261.205 176.593,261.481 176.593 C 261.758 176.593,261.926 176.313,261.926 175.852 C 261.926 175.444,262.059 175.111,262.222 175.111 C 262.385 175.111,262.519 174.778,262.519 174.370 C 262.519 173.963,262.649 173.630,262.809 173.630 C 262.969 173.630,263.183 173.296,263.286 172.889 C 263.388 172.481,263.591 172.148,263.736 172.148 C 263.881 172.148,264.000 171.726,264.000 171.210 C 264.000 170.694,264.093 170.364,264.206 170.478 C 264.452 170.724,265.481 168.706,265.481 167.979 C 265.481 167.699,265.681 167.394,265.926 167.300 C 266.170 167.206,266.370 166.867,266.370 166.545 C 266.370 166.224,266.504 165.878,266.667 165.778 C 266.830 165.677,266.963 165.283,266.963 164.903 C 266.963 164.523,267.163 164.135,267.407 164.041 C 267.652 163.947,267.852 163.600,267.852 163.269 C 267.852 162.938,267.985 162.667,268.148 162.667 C 268.311 162.667,268.444 162.333,268.444 161.926 L 268.444 161.185 286.048 161.185 L 303.651 161.185 304.319 162.566 C 304.687 163.325,304.988 164.125,304.988 164.344 C 304.988 164.562,305.099 164.741,305.235 164.741 C 305.370 164.741,305.481 165.012,305.481 165.343 C 305.481 165.674,305.681 166.021,305.926 166.115 C 306.170 166.209,306.370 166.605,306.370 166.995 C 306.370 167.385,306.504 167.704,306.667 167.704 C 306.830 167.704,306.963 168.023,306.963 168.413 C 306.963 168.803,307.163 169.199,307.407 169.292 C 307.663 169.391,307.852 169.833,307.852 170.336 C 307.852 170.817,307.952 171.254,308.074 171.309 C 308.403 171.455,309.333 173.312,309.333 173.823 C 309.333 174.066,309.535 174.466,309.781 174.712 C 310.026 174.958,310.151 175.282,310.058 175.433 C 309.965 175.584,310.097 175.788,310.352 175.886 C 310.617 175.988,310.815 176.413,310.815 176.884 C 310.815 177.336,311.013 177.870,311.256 178.071 C 311.499 178.273,311.633 178.541,311.556 178.667 C 311.478 178.793,311.612 179.061,311.855 179.262 C 312.098 179.463,312.296 179.767,312.296 179.937 C 312.296 180.462,313.286 182.519,313.539 182.519 C 313.670 182.519,313.778 182.919,313.778 183.407 C 313.778 183.896,313.911 184.296,314.074 184.296 C 314.237 184.296,314.370 184.443,314.370 184.622 C 314.370 185.022,315.712 188.105,316.421 189.333 C 316.562 189.578,316.824 190.148,317.002 190.600 L 317.327 191.422 322.145 191.341 C 327.301 191.254,328.085 190.942,326.682 189.540 C 326.429 189.286,326.222 188.878,326.222 188.631 C 326.222 188.385,326.089 188.101,325.926 188.000 C 325.763 187.899,325.630 187.491,325.630 187.094 C 325.630 186.648,325.459 186.370,325.185 186.370 C 324.889 186.370,324.741 186.074,324.741 185.481 C 324.741 184.993,324.607 184.593,324.444 184.593 C 324.281 184.593,324.148 184.255,324.148 183.843 C 324.148 183.430,323.948 183.016,323.704 182.922 C 323.459 182.828,323.259 182.432,323.259 182.042 C 323.259 181.652,323.126 181.333,322.963 181.333 C 322.800 181.333,322.667 181.062,322.667 180.731 C 322.667 180.400,322.467 180.053,322.222 179.959 C 321.978 179.865,321.776 179.569,321.773 179.302 C 321.767 178.592,321.045 176.630,320.642 176.228 C 320.452 176.037,320.296 175.649,320.296 175.366 C 320.296 175.082,320.163 174.767,320.000 174.667 C 319.837 174.566,319.704 174.221,319.704 173.899 C 319.704 173.578,319.504 173.238,319.259 173.144 C 319.015 173.050,318.815 172.662,318.815 172.282 C 318.815 171.902,318.681 171.508,318.519 171.407 C 318.356 171.307,318.222 170.975,318.222 170.670 C 318.222 170.366,318.022 169.916,317.778 169.672 C 317.533 169.428,317.333 169.026,317.333 168.779 C 317.333 168.533,317.200 168.249,317.037 168.148 C 316.874 168.047,316.741 167.640,316.741 167.242 C 316.741 166.796,316.570 166.519,316.296 166.519 C 316.023 166.519,315.852 166.241,315.852 165.795 C 315.852 165.397,315.719 164.990,315.556 164.889 C 315.393 164.788,315.259 164.443,315.259 164.121 C 315.259 163.800,315.059 163.460,314.815 163.366 C 314.570 163.273,314.370 162.986,314.370 162.730 C 314.370 161.968,313.661 160.166,313.261 159.911 C 313.056 159.781,312.889 159.348,312.889 158.948 C 312.889 158.549,312.756 158.222,312.593 158.222 C 312.430 158.222,312.296 157.889,312.296 157.481 C 312.296 157.021,312.128 156.741,311.852 156.741 C 311.556 156.741,311.407 156.444,311.407 155.852 C 311.407 155.363,311.274 154.963,311.111 154.963 C 310.948 154.963,310.815 154.706,310.815 154.392 C 310.815 154.077,310.615 153.620,310.370 153.376 C 310.126 153.131,309.926 152.655,309.926 152.317 C 309.926 151.980,309.793 151.704,309.630 151.704 C 309.467 151.704,309.333 151.447,309.333 151.132 C 309.333 150.818,309.133 150.361,308.889 150.116 C 308.644 149.872,308.444 149.404,308.444 149.076 C 308.444 148.748,308.311 148.397,308.148 148.296 C 307.985 148.196,307.852 147.864,307.852 147.559 C 307.852 147.255,307.652 146.805,307.407 146.561 C 307.163 146.316,306.963 145.915,306.963 145.668 C 306.963 145.422,306.830 145.138,306.667 145.037 C 306.504 144.936,306.370 144.591,306.370 144.270 C 306.370 143.948,306.170 143.608,305.926 143.515 C 305.681 143.421,305.481 143.025,305.481 142.635 C 305.481 142.245,305.348 141.926,305.185 141.926 C 305.022 141.926,304.889 141.676,304.889 141.370 C 304.889 141.064,304.689 140.647,304.444 140.444 C 304.200 140.242,304.000 139.766,304.000 139.389 C 304.000 139.011,303.867 138.619,303.704 138.519 C 303.541 138.418,303.407 138.024,303.407 137.644 C 303.407 137.263,303.207 136.876,302.963 136.782 C 302.719 136.688,302.519 136.348,302.519 136.027 C 302.519 135.705,302.402 135.371,302.260 135.283 C 302.119 135.195,301.920 134.712,301.820 134.209 C 301.718 133.700,301.504 133.376,301.337 133.479 C 301.166 133.585,301.037 133.357,301.037 132.952 C 301.037 132.190,300.292 130.494,299.833 130.211 C 299.680 130.116,299.556 129.714,299.556 129.316 C 299.556 128.918,299.422 128.593,299.259 128.593 C 299.096 128.593,298.963 128.259,298.963 127.852 C 298.963 127.391,298.795 127.111,298.519 127.111 C 298.222 127.111,298.074 126.815,298.074 126.222 C 298.074 125.733,297.941 125.333,297.778 125.333 C 297.615 125.333,297.481 124.996,297.481 124.583 C 297.481 124.171,297.281 123.757,297.037 123.663 C 296.793 123.569,296.593 123.173,296.593 122.783 C 296.593 122.393,296.459 122.074,296.296 122.074 C 296.133 122.074,296.000 121.817,296.000 121.503 C 296.000 121.188,295.827 120.755,295.616 120.540 C 295.404 120.324,294.992 119.381,294.699 118.444 C 294.406 117.507,294.046 116.741,293.898 116.741 C 293.751 116.741,293.630 116.407,293.630 116.000 C 293.630 115.593,293.496 115.259,293.333 115.259 C 293.170 115.259,293.037 114.988,293.037 114.657 C 293.037 114.326,292.837 113.979,292.593 113.885 C 292.348 113.791,292.148 113.403,292.148 113.023 C 292.148 112.642,292.015 112.249,291.852 112.148 C 291.689 112.047,291.556 111.754,291.556 111.497 C 291.556 111.239,291.356 110.880,291.112 110.699 C 290.868 110.518,290.639 110.004,290.603 109.556 C 290.567 109.107,290.433 108.741,290.306 108.741 C 290.178 108.741,290.074 108.422,290.074 108.032 C 290.074 107.642,289.874 107.246,289.630 107.152 C 289.385 107.058,289.185 106.719,289.185 106.397 C 289.185 106.076,289.052 105.730,288.889 105.630 C 288.726 105.529,288.593 105.197,288.593 104.893 C 288.593 104.588,288.407 104.153,288.180 103.926 C 287.953 103.699,287.720 103.269,287.662 102.970 C 287.540 102.345,286.846 102.163,286.125 102.567 M342.876 103.778 C 342.467 104.271,342.316 110.815,342.698 111.491 C 342.975 111.979,343.765 112.024,353.280 112.084 L 363.562 112.148 363.633 151.704 L 363.704 191.259 368.370 191.341 L 373.037 191.422 373.037 151.897 L 373.037 112.372 374.247 112.179 C 374.912 112.072,379.569 111.996,384.596 112.008 C 391.592 112.026,393.879 111.942,394.349 111.648 C 395.233 111.096,395.281 105.050,394.410 104.045 L 393.856 103.407 368.520 103.407 C 348.612 103.407,343.118 103.487,342.876 103.778 M18.407 104.400 C 18.224 104.621,18.046 105.154,18.010 105.586 C 17.974 106.017,17.870 106.370,17.778 106.370 C 17.686 106.370,17.572 107.333,17.524 108.509 C 17.476 109.685,17.351 110.785,17.245 110.953 C 16.971 111.392,16.880 111.904,16.693 114.074 C 16.602 115.133,16.409 116.127,16.264 116.281 C 16.119 116.436,16.000 117.412,16.000 118.449 C 16.000 119.486,15.858 120.600,15.685 120.923 C 15.512 121.246,15.295 122.404,15.203 123.496 C 15.111 124.588,14.919 125.706,14.777 125.981 C 14.635 126.255,14.519 127.280,14.519 128.258 C 14.519 129.235,14.375 130.411,14.200 130.870 C 13.851 131.784,13.687 132.818,13.585 134.741 C 13.549 135.433,13.431 136.000,13.323 136.000 C 13.215 136.000,13.099 136.959,13.065 138.130 C 13.030 139.302,12.914 140.402,12.806 140.575 C 12.526 141.022,12.437 141.525,12.249 143.704 C 12.158 144.763,11.964 145.756,11.819 145.911 C 11.674 146.066,11.556 147.151,11.556 148.322 C 11.556 149.527,11.383 150.784,11.157 151.219 C 10.938 151.641,10.734 152.739,10.704 153.659 C 10.674 154.578,10.520 155.573,10.362 155.868 C 10.203 156.164,10.074 157.321,10.074 158.440 C 10.074 159.559,9.932 160.616,9.759 160.790 C 9.585 160.963,9.368 162.090,9.276 163.293 C 9.184 164.497,8.993 165.706,8.851 165.981 C 8.709 166.255,8.593 167.266,8.593 168.227 C 8.593 169.189,8.500 170.068,8.386 170.181 C 8.110 170.457,8.001 171.049,7.805 173.333 C 7.713 174.393,7.520 175.386,7.375 175.541 C 7.230 175.696,7.111 176.769,7.111 177.926 C 7.111 179.083,6.982 180.159,6.824 180.317 C 6.666 180.475,6.456 181.535,6.356 182.672 C 6.257 183.810,6.059 185.141,5.916 185.630 C 5.774 186.119,5.628 187.319,5.592 188.296 C 5.557 189.274,5.395 190.162,5.234 190.269 C 4.157 190.987,5.986 191.407,10.191 191.407 C 15.172 191.407,15.104 191.447,15.122 188.538 C 15.127 187.590,15.323 186.481,15.556 186.074 C 15.804 185.640,15.983 184.505,15.990 183.333 C 15.995 182.205,16.129 181.333,16.296 181.333 C 16.469 181.333,16.593 180.340,16.593 178.945 C 16.593 177.632,16.711 176.631,16.855 176.720 C 17.201 176.934,17.360 176.234,17.454 174.083 C 17.496 173.110,17.653 172.085,17.802 171.806 C 17.952 171.527,18.074 170.382,18.074 169.261 C 18.074 167.929,18.225 167.025,18.509 166.649 C 18.788 166.280,18.947 165.363,18.954 164.092 C 18.959 163.001,19.096 162.027,19.259 161.926 C 19.422 161.825,19.556 160.833,19.556 159.720 C 19.556 158.608,19.733 157.354,19.951 156.935 C 20.168 156.516,20.376 155.338,20.413 154.318 C 20.450 153.297,20.587 152.325,20.717 152.157 C 20.847 151.989,20.982 150.920,21.018 149.780 C 21.054 148.641,21.222 147.541,21.393 147.336 C 21.563 147.131,21.603 146.963,21.481 146.963 C 21.360 146.963,21.392 146.796,21.552 146.593 C 21.712 146.389,21.870 145.358,21.902 144.303 C 21.935 143.247,22.066 142.314,22.193 142.229 C 22.321 142.144,22.456 141.142,22.495 140.003 C 22.533 138.864,22.694 137.852,22.853 137.754 C 23.011 137.656,23.207 136.655,23.288 135.529 C 23.368 134.403,23.502 133.164,23.585 132.776 L 23.735 132.070 24.312 132.689 C 24.629 133.030,24.889 133.581,24.889 133.914 C 24.889 134.246,25.022 134.519,25.185 134.519 C 25.348 134.519,25.481 134.789,25.481 135.120 C 25.481 135.451,25.681 135.799,25.926 135.893 C 26.170 135.987,26.370 136.204,26.370 136.377 C 26.370 136.906,27.359 138.963,27.613 138.963 C 27.744 138.963,27.862 139.196,27.874 139.481 C 27.885 139.767,28.147 140.400,28.455 140.889 C 28.763 141.378,29.303 142.411,29.655 143.185 C 30.007 143.959,30.391 144.593,30.508 144.593 C 30.624 144.593,30.894 145.119,31.106 145.762 C 31.318 146.406,31.673 147.001,31.894 147.086 C 32.115 147.171,32.296 147.512,32.296 147.843 C 32.296 148.174,32.430 148.444,32.593 148.444 C 32.756 148.444,32.889 148.761,32.889 149.149 C 32.889 149.536,33.089 150.019,33.333 150.222 C 33.578 150.425,33.778 150.775,33.778 150.999 C 33.778 151.224,33.897 151.407,34.042 151.407 C 34.187 151.407,34.390 151.741,34.492 152.148 C 34.594 152.556,34.809 152.889,34.969 152.889 C 35.128 152.889,35.259 153.222,35.259 153.630 C 35.259 154.037,35.393 154.370,35.556 154.370 C 35.719 154.370,35.852 154.641,35.852 154.972 C 35.852 155.303,36.052 155.651,36.296 155.745 C 36.541 155.839,36.741 156.234,36.741 156.624 C 36.741 157.014,36.860 157.333,37.005 157.333 C 37.150 157.333,37.353 157.667,37.455 158.074 C 37.557 158.481,37.772 158.815,37.932 158.815 C 38.091 158.815,38.222 158.970,38.222 159.160 C 38.222 159.713,39.202 161.778,39.464 161.778 C 39.596 161.778,39.704 162.025,39.704 162.327 C 39.704 162.629,40.037 163.236,40.444 163.676 C 40.852 164.115,41.185 164.648,41.185 164.859 C 41.185 165.441,42.080 167.111,42.392 167.111 C 42.543 167.111,42.667 167.444,42.667 167.852 C 42.667 168.259,42.797 168.593,42.957 168.593 C 43.117 168.593,43.332 168.926,43.434 169.333 C 43.536 169.741,43.739 170.074,43.884 170.074 C 44.029 170.074,44.148 170.254,44.148 170.473 C 44.148 170.883,45.004 172.773,45.310 173.037 C 45.404 173.119,46.081 174.385,46.815 175.852 C 47.548 177.319,48.248 178.563,48.370 178.617 C 48.493 178.672,48.593 178.972,48.593 179.284 C 48.593 179.596,48.726 179.852,48.889 179.852 C 49.052 179.852,49.185 180.102,49.185 180.408 C 49.185 180.714,49.385 181.130,49.630 181.333 C 49.874 181.536,50.074 181.886,50.074 182.110 C 50.074 182.335,50.193 182.519,50.338 182.519 C 50.484 182.519,50.686 182.852,50.788 183.259 C 50.891 183.667,51.105 184.000,51.265 184.000 C 51.425 184.000,51.556 184.333,51.556 184.741 C 51.556 185.148,51.689 185.481,51.852 185.481 C 52.015 185.481,52.148 185.752,52.148 186.083 C 52.148 186.414,52.348 186.762,52.593 186.856 C 52.837 186.950,53.037 187.345,53.037 187.735 C 53.037 188.125,53.168 188.444,53.328 188.444 C 53.488 188.444,53.702 188.778,53.804 189.185 C 53.907 189.593,54.109 189.926,54.254 189.926 C 54.400 189.926,54.519 190.178,54.519 190.487 C 54.519 191.182,55.051 191.407,55.926 191.082 C 56.377 190.914,56.593 190.591,56.593 190.084 C 56.593 189.671,56.716 189.333,56.867 189.333 C 57.183 189.333,58.074 187.660,58.074 187.066 C 58.074 186.846,58.174 186.666,58.296 186.665 C 58.585 186.662,59.556 184.957,59.556 184.452 C 59.556 184.238,59.756 183.987,60.000 183.893 C 60.244 183.799,60.444 183.451,60.444 183.120 C 60.444 182.789,60.578 182.519,60.741 182.519 C 60.904 182.519,61.037 182.185,61.037 181.778 C 61.037 181.317,61.205 181.037,61.481 181.037 C 61.758 181.037,61.926 180.757,61.926 180.296 C 61.926 179.889,62.059 179.556,62.222 179.556 C 62.385 179.556,62.519 179.222,62.519 178.815 C 62.519 178.387,62.672 178.105,62.882 178.148 C 63.082 178.189,63.291 177.922,63.347 177.556 C 63.403 177.189,63.573 176.889,63.724 176.889 C 63.876 176.889,64.000 176.622,64.000 176.296 C 64.000 175.970,64.108 175.704,64.239 175.704 C 64.371 175.704,64.725 175.137,65.027 174.444 C 65.328 173.752,65.754 173.079,65.973 172.948 C 66.191 172.818,66.370 172.451,66.370 172.133 C 66.370 171.816,66.504 171.556,66.667 171.556 C 66.830 171.556,66.963 171.222,66.963 170.815 C 66.963 170.407,67.094 170.074,67.254 170.074 C 67.413 170.074,67.628 169.741,67.730 169.333 C 67.832 168.926,68.021 168.593,68.148 168.593 C 68.276 168.593,68.464 168.259,68.566 167.852 C 68.668 167.444,68.883 167.111,69.043 167.111 C 69.203 167.111,69.343 166.878,69.355 166.593 C 69.367 166.307,69.626 165.674,69.931 165.185 C 70.885 163.656,71.407 162.591,71.407 162.177 C 71.407 161.957,71.607 161.778,71.852 161.778 C 72.128 161.778,72.296 161.498,72.296 161.037 C 72.296 160.630,72.430 160.296,72.593 160.296 C 72.756 160.296,72.889 160.025,72.889 159.694 C 72.889 159.363,73.070 159.023,73.291 158.938 C 73.512 158.853,73.867 158.256,74.081 157.610 C 74.294 156.964,74.646 156.288,74.864 156.108 C 75.081 155.927,75.259 155.596,75.259 155.371 C 75.259 155.147,75.393 154.963,75.556 154.963 C 75.719 154.963,75.852 154.607,75.852 154.173 C 75.852 153.738,75.936 153.466,76.038 153.569 C 76.240 153.771,77.333 151.797,77.333 151.228 C 77.333 151.036,77.533 150.801,77.778 150.708 C 78.022 150.614,78.222 150.266,78.222 149.935 C 78.222 149.604,78.356 149.333,78.519 149.333 C 78.681 149.333,78.815 149.067,78.815 148.741 C 78.815 148.415,78.938 148.148,79.089 148.148 C 79.406 148.148,80.296 146.474,80.296 145.880 C 80.296 145.661,80.427 145.481,80.587 145.481 C 80.747 145.481,80.961 145.148,81.064 144.741 C 81.166 144.333,81.368 144.000,81.514 144.000 C 81.659 144.000,81.778 143.681,81.778 143.291 C 81.778 142.901,81.978 142.505,82.222 142.411 C 82.467 142.318,82.667 141.970,82.667 141.639 C 82.667 141.308,82.800 141.037,82.963 141.037 C 83.126 141.037,83.259 140.704,83.259 140.296 C 83.259 139.889,83.383 139.556,83.534 139.556 C 83.855 139.556,84.741 137.878,84.741 137.270 C 84.741 137.041,84.870 136.934,85.028 137.032 C 85.187 137.129,85.401 136.871,85.505 136.457 C 85.609 136.042,85.813 135.704,85.958 135.704 C 86.103 135.704,86.222 135.445,86.222 135.129 C 86.222 134.812,86.352 134.473,86.511 134.375 C 86.669 134.277,87.036 133.703,87.325 133.099 L 87.852 132.000 87.952 132.889 C 88.007 133.378,88.164 133.913,88.301 134.079 C 88.438 134.244,88.577 135.444,88.611 136.745 C 88.644 138.047,88.770 139.244,88.890 139.407 C 89.010 139.570,89.193 140.898,89.297 142.358 C 89.401 143.818,89.619 145.144,89.780 145.306 C 89.942 145.468,90.074 146.582,90.074 147.782 C 90.074 148.983,90.191 150.189,90.334 150.464 C 90.476 150.738,90.671 152.076,90.765 153.436 C 90.860 154.796,91.067 156.065,91.225 156.255 C 91.383 156.446,91.542 157.666,91.578 158.968 C 91.613 160.269,91.738 161.400,91.855 161.481 C 91.972 161.563,92.143 162.870,92.234 164.387 C 92.325 165.904,92.533 167.306,92.697 167.503 C 92.860 167.700,93.022 168.926,93.055 170.227 C 93.089 171.528,93.215 172.793,93.335 173.037 C 93.455 173.281,93.640 174.605,93.746 175.978 C 93.853 177.351,94.059 178.618,94.203 178.793 C 94.348 178.968,94.532 180.111,94.611 181.333 C 94.690 182.556,94.838 184.222,94.939 185.037 C 95.040 185.852,95.197 187.219,95.287 188.074 C 95.377 188.930,95.574 189.630,95.725 189.630 C 95.876 189.630,96.000 190.033,96.000 190.526 L 96.000 191.422 100.642 191.341 L 105.284 191.259 105.399 190.398 C 105.462 189.924,105.379 189.453,105.214 189.351 C 105.050 189.250,104.891 188.074,104.863 186.738 C 104.834 185.364,104.635 183.971,104.406 183.529 C 104.169 183.072,104.000 181.829,104.000 180.539 C 104.000 179.325,103.881 178.107,103.735 177.832 C 103.590 177.558,103.403 176.333,103.320 175.111 C 103.160 172.765,103.065 172.190,102.755 171.694 C 102.649 171.526,102.526 170.293,102.480 168.953 C 102.435 167.614,102.311 166.519,102.207 166.519 C 102.102 166.519,101.989 165.552,101.955 164.370 C 101.891 162.065,101.679 160.834,101.305 160.586 C 101.176 160.500,101.045 159.300,101.014 157.919 C 100.982 156.538,100.857 155.341,100.736 155.259 C 100.614 155.178,100.452 153.882,100.376 152.381 C 100.300 150.879,100.092 149.474,99.913 149.259 C 99.735 149.044,99.563 147.703,99.532 146.278 C 99.500 144.854,99.360 143.618,99.219 143.531 C 99.078 143.444,98.963 142.343,98.963 141.085 C 98.963 139.579,98.818 138.592,98.538 138.192 C 98.260 137.795,98.092 136.671,98.053 134.941 C 98.020 133.486,97.886 132.227,97.754 132.141 C 97.623 132.056,97.489 130.956,97.456 129.696 C 97.422 128.436,97.214 127.057,96.994 126.631 C 96.769 126.198,96.593 124.952,96.593 123.799 C 96.593 122.666,96.467 121.504,96.313 121.217 C 96.160 120.930,96.007 119.671,95.974 118.419 C 95.938 117.079,95.752 115.931,95.522 115.627 C 95.265 115.289,95.127 114.175,95.121 112.388 C 95.115 110.890,94.978 109.582,94.815 109.481 C 94.652 109.381,94.519 108.173,94.519 106.797 C 94.519 105.349,94.394 104.282,94.222 104.263 C 92.898 104.116,92.594 104.229,92.115 105.045 C 91.831 105.530,91.589 106.159,91.577 106.444 C 91.565 106.730,91.436 106.963,91.290 106.963 C 91.145 106.963,90.452 108.130,89.751 109.556 C 89.050 110.981,88.403 112.215,88.313 112.297 C 87.978 112.599,87.111 114.432,87.111 114.839 C 87.111 115.070,87.008 115.259,86.882 115.259 C 86.756 115.259,86.390 115.759,86.068 116.370 C 85.746 116.981,85.316 117.658,85.112 117.873 C 84.908 118.088,84.741 118.455,84.741 118.688 C 84.741 118.921,84.607 119.111,84.444 119.111 C 84.281 119.111,84.148 119.444,84.148 119.852 C 84.148 120.259,84.048 120.593,83.926 120.594 C 83.637 120.597,82.667 122.302,82.667 122.807 C 82.667 123.021,82.467 123.273,82.222 123.366 C 81.978 123.460,81.778 123.808,81.778 124.139 C 81.778 124.470,81.644 124.741,81.481 124.741 C 81.319 124.741,81.185 124.910,81.185 125.116 C 81.185 125.323,80.852 125.983,80.444 126.582 C 80.037 127.182,79.704 127.868,79.704 128.108 C 79.704 128.347,79.604 128.588,79.481 128.642 C 79.159 128.785,78.222 130.641,78.222 131.135 C 78.222 131.366,78.091 131.556,77.932 131.556 C 77.772 131.556,77.557 131.889,77.455 132.296 C 77.353 132.704,77.150 133.037,77.005 133.037 C 76.860 133.037,76.741 133.308,76.741 133.639 C 76.741 133.970,76.541 134.318,76.296 134.411 C 76.052 134.505,75.852 134.768,75.852 134.995 C 75.852 135.222,75.719 135.407,75.556 135.407 C 75.393 135.407,75.259 135.741,75.259 136.148 C 75.259 136.556,75.126 136.889,74.963 136.889 C 74.800 136.889,74.667 137.073,74.667 137.297 C 74.667 137.522,74.467 137.871,74.222 138.074 C 73.978 138.277,73.778 138.679,73.778 138.968 C 73.778 139.256,73.578 139.569,73.333 139.663 C 73.089 139.757,72.889 140.093,72.889 140.410 C 72.889 140.728,72.789 141.032,72.667 141.086 C 72.544 141.141,72.002 142.052,71.462 143.111 C 70.921 144.170,70.231 145.437,69.928 145.926 C 69.625 146.415,69.367 147.048,69.355 147.333 C 69.343 147.619,69.218 147.852,69.078 147.852 C 68.937 147.852,68.506 148.519,68.119 149.333 C 67.732 150.148,67.314 150.815,67.189 150.815 C 67.065 150.815,66.963 151.015,66.963 151.259 C 66.963 151.504,66.830 151.704,66.667 151.704 C 66.504 151.704,66.370 152.037,66.370 152.444 C 66.370 152.852,66.270 153.186,66.148 153.187 C 65.850 153.190,64.889 154.903,64.889 155.431 C 64.889 155.663,64.759 155.852,64.601 155.852 C 64.443 155.852,63.982 156.552,63.576 157.407 C 63.170 158.263,62.642 159.296,62.404 159.704 C 62.165 160.111,61.892 160.644,61.796 160.889 C 61.701 161.133,61.368 161.733,61.055 162.222 C 60.743 162.711,60.478 163.344,60.466 163.630 C 60.454 163.915,60.341 164.148,60.216 164.148 C 60.090 164.148,59.723 164.648,59.401 165.259 C 59.080 165.870,58.649 166.547,58.445 166.762 C 58.241 166.977,58.074 167.344,58.074 167.577 C 58.074 167.810,57.941 168.000,57.778 168.000 C 57.615 168.000,57.481 168.333,57.481 168.741 C 57.481 169.148,57.351 169.481,57.191 169.481 C 57.031 169.481,56.817 169.815,56.714 170.222 C 56.612 170.630,56.409 170.963,56.264 170.963 C 56.119 170.963,56.000 171.230,56.000 171.556 C 56.000 171.885,55.802 172.148,55.556 172.148 C 55.311 172.148,55.111 171.889,55.111 171.573 C 55.111 171.257,54.978 170.916,54.815 170.815 C 54.652 170.714,54.519 170.369,54.519 170.047 C 54.519 169.726,54.319 169.386,54.074 169.292 C 53.830 169.199,53.630 168.877,53.630 168.578 C 53.630 168.280,53.496 167.953,53.333 167.852 C 53.170 167.751,53.037 167.424,53.037 167.125 C 53.037 166.826,52.837 166.505,52.593 166.411 C 52.348 166.318,52.148 165.970,52.148 165.639 C 52.148 165.308,52.015 165.037,51.852 165.037 C 51.689 165.037,51.556 164.853,51.556 164.629 C 51.556 164.404,51.378 164.073,51.160 163.892 C 50.942 163.712,50.590 163.036,50.377 162.390 C 50.164 161.744,49.808 161.147,49.587 161.062 C 49.366 160.977,49.185 160.724,49.185 160.499 C 49.185 159.982,48.349 158.290,47.981 158.062 C 47.829 157.968,47.704 157.632,47.704 157.316 C 47.704 157.000,47.570 156.741,47.407 156.741 C 47.244 156.741,47.111 156.470,47.111 156.139 C 47.111 155.808,46.911 155.460,46.667 155.366 C 46.422 155.273,46.222 154.877,46.222 154.487 C 46.222 154.097,46.089 153.778,45.926 153.778 C 45.763 153.778,45.630 153.507,45.630 153.176 C 45.630 152.845,45.430 152.497,45.185 152.403 C 44.941 152.310,44.741 151.980,44.741 151.672 C 44.741 151.364,44.607 151.111,44.444 151.111 C 44.281 151.111,44.148 150.852,44.148 150.536 C 44.148 150.220,44.014 149.878,43.851 149.777 C 43.688 149.676,43.284 149.002,42.955 148.278 C 42.625 147.555,42.226 146.963,42.067 146.963 C 41.908 146.963,41.778 146.704,41.778 146.388 C 41.778 146.072,41.644 145.730,41.481 145.630 C 41.319 145.529,41.185 145.184,41.185 144.862 C 41.185 144.541,40.985 144.201,40.741 144.107 C 40.496 144.013,40.296 143.692,40.296 143.393 C 40.296 143.094,40.163 142.767,40.000 142.667 C 39.837 142.566,39.704 142.239,39.704 141.940 C 39.704 141.641,39.504 141.320,39.259 141.226 C 39.015 141.132,38.815 140.785,38.815 140.454 C 38.815 140.123,38.681 139.852,38.519 139.852 C 38.356 139.852,38.222 139.581,38.222 139.250 C 38.222 138.919,38.022 138.571,37.778 138.478 C 37.533 138.384,37.333 137.988,37.333 137.598 C 37.333 137.208,37.200 136.889,37.037 136.889 C 36.874 136.889,36.741 136.703,36.741 136.476 C 36.741 136.249,36.541 135.987,36.296 135.893 C 36.052 135.799,35.852 135.451,35.852 135.120 C 35.852 134.789,35.719 134.519,35.556 134.519 C 35.393 134.519,35.259 134.185,35.259 133.778 C 35.259 133.317,35.091 133.037,34.815 133.037 C 34.538 133.037,34.370 132.757,34.370 132.296 C 34.370 131.889,34.237 131.556,34.074 131.556 C 33.911 131.556,33.778 131.285,33.778 130.954 C 33.778 130.623,33.578 130.275,33.333 130.181 C 33.089 130.087,32.885 129.792,32.879 129.524 C 32.874 129.256,32.679 128.784,32.445 128.475 C 32.210 128.166,32.090 127.798,32.176 127.658 C 32.263 127.518,32.125 127.323,31.871 127.225 C 31.616 127.128,31.407 126.795,31.407 126.487 C 31.407 126.178,31.274 125.926,31.111 125.926 C 30.948 125.926,30.815 125.667,30.815 125.351 C 30.815 125.035,30.681 124.693,30.518 124.592 C 30.354 124.491,29.951 123.817,29.621 123.093 C 29.292 122.370,28.892 121.778,28.733 121.778 C 28.574 121.778,28.444 121.444,28.444 121.037 C 28.444 120.630,28.311 120.296,28.148 120.296 C 27.985 120.296,27.852 120.025,27.852 119.694 C 27.852 119.363,27.652 119.016,27.407 118.922 C 27.163 118.828,26.963 118.507,26.963 118.208 C 26.963 117.909,26.830 117.582,26.667 117.481 C 26.504 117.381,26.370 117.054,26.370 116.755 C 26.370 116.456,26.170 116.135,25.926 116.041 C 25.681 115.947,25.481 115.600,25.481 115.269 C 25.481 114.938,25.348 114.667,25.185 114.667 C 25.022 114.667,24.889 114.396,24.889 114.065 C 24.889 113.734,24.689 113.386,24.444 113.292 C 24.200 113.199,24.000 112.803,24.000 112.413 C 24.000 112.023,23.867 111.704,23.704 111.704 C 23.541 111.704,23.407 111.518,23.407 111.291 C 23.407 111.064,23.207 110.801,22.963 110.708 C 22.719 110.614,22.519 110.266,22.519 109.935 C 22.519 109.604,22.385 109.333,22.222 109.333 C 22.059 109.333,21.926 109.000,21.926 108.593 C 21.926 108.132,21.758 107.852,21.481 107.852 C 21.205 107.852,21.037 107.572,21.037 107.111 C 21.037 106.704,20.904 106.370,20.741 106.370 C 20.578 106.370,20.444 106.104,20.444 105.778 C 20.444 104.610,19.028 103.652,18.407 104.400 M178.963 110.351 C 180.454 110.698,181.132 110.788,182.712 110.852 C 183.599 110.888,184.393 111.028,184.476 111.162 C 184.559 111.297,185.153 111.407,185.795 111.407 C 186.437 111.407,186.963 111.539,186.963 111.700 C 186.963 111.861,187.496 112.078,188.148 112.183 C 188.800 112.287,189.333 112.488,189.333 112.630 C 189.333 112.773,189.656 112.889,190.049 112.889 C 190.443 112.889,190.810 112.989,190.864 113.111 C 191.009 113.436,192.865 114.370,193.367 114.370 C 193.603 114.370,193.873 114.570,193.967 114.815 C 194.061 115.059,194.390 115.259,194.698 115.259 C 195.007 115.259,195.259 115.393,195.259 115.556 C 195.259 115.719,195.459 115.852,195.704 115.852 C 195.948 115.852,196.148 115.976,196.148 116.128 C 196.148 116.280,196.391 116.482,196.689 116.576 C 196.986 116.670,197.486 116.979,197.800 117.263 C 198.114 117.546,198.861 118.144,199.460 118.591 C 200.999 119.740,204.148 122.905,204.148 123.303 C 204.148 123.486,204.481 123.945,204.889 124.322 C 205.296 124.700,205.630 125.148,205.630 125.319 C 205.630 125.490,205.733 125.630,205.859 125.630 C 205.984 125.630,206.339 126.096,206.646 126.667 C 206.953 127.237,207.317 127.704,207.454 127.704 C 207.591 127.704,207.704 127.975,207.704 128.306 C 207.704 128.637,207.904 128.984,208.148 129.078 C 208.393 129.172,208.593 129.493,208.593 129.792 C 208.593 130.091,208.726 130.418,208.889 130.519 C 209.052 130.619,209.185 130.965,209.185 131.286 C 209.185 131.607,209.385 131.947,209.630 132.041 C 209.880 132.137,210.074 132.578,210.074 133.051 C 210.074 133.513,210.207 133.973,210.370 134.074 C 210.533 134.175,210.667 134.557,210.667 134.924 C 210.667 135.290,210.862 135.849,211.102 136.166 C 211.341 136.482,211.541 137.296,211.546 137.975 C 211.551 138.654,211.671 139.254,211.812 139.309 C 212.044 139.398,212.555 143.789,212.521 145.407 C 212.513 145.774,212.597 146.074,212.706 146.074 C 212.815 146.074,212.880 146.707,212.850 147.481 C 212.821 148.256,212.766 148.889,212.730 148.889 C 212.652 148.889,212.585 149.532,212.311 152.889 C 212.198 154.274,211.982 155.534,211.830 155.689 C 211.679 155.844,211.556 156.419,211.556 156.968 C 211.556 157.516,211.395 158.256,211.200 158.612 C 211.004 158.968,210.800 159.523,210.747 159.846 C 210.693 160.168,210.520 160.561,210.362 160.720 C 210.204 160.878,210.074 161.381,210.074 161.837 C 210.074 162.293,209.955 162.667,209.810 162.667 C 209.665 162.667,209.462 163.000,209.360 163.407 C 209.258 163.815,209.043 164.148,208.883 164.148 C 208.723 164.148,208.593 164.481,208.593 164.889 C 208.593 165.296,208.474 165.630,208.328 165.630 C 208.183 165.630,207.981 165.963,207.878 166.370 C 207.776 166.778,207.562 167.111,207.402 167.111 C 207.242 167.111,207.111 167.253,207.111 167.427 C 207.111 167.729,205.890 169.494,205.111 170.317 C 204.907 170.533,204.741 170.812,204.741 170.937 C 204.741 171.147,200.273 175.730,199.341 176.476 C 199.116 176.656,198.372 177.174,197.688 177.626 C 197.004 178.079,196.444 178.565,196.444 178.706 C 196.444 178.847,196.235 178.963,195.979 178.963 C 195.723 178.963,195.327 179.130,195.100 179.333 C 194.234 180.110,192.143 181.421,191.933 181.318 C 191.817 181.262,190.216 181.918,189.288 182.404 C 188.855 182.630,188.222 182.815,187.880 182.815 C 187.539 182.815,187.259 182.948,187.259 183.111 C 187.259 183.274,186.737 183.407,186.099 183.407 C 185.460 183.407,184.894 183.524,184.840 183.666 C 184.785 183.808,184.053 183.997,183.213 184.085 C 182.373 184.173,181.415 184.390,181.085 184.567 C 180.343 184.964,171.496 185.005,171.096 184.613 C 170.941 184.461,170.015 184.246,169.037 184.135 C 168.059 184.024,167.035 183.815,166.760 183.670 C 166.486 183.526,165.910 183.407,165.480 183.407 C 165.050 183.407,164.498 183.207,164.254 182.963 C 164.010 182.719,163.560 182.519,163.256 182.519 C 162.951 182.519,162.619 182.385,162.519 182.222 C 162.418 182.059,162.018 181.926,161.630 181.926 C 161.241 181.926,160.856 181.816,160.773 181.681 C 160.690 181.547,159.748 180.993,158.681 180.452 C 157.614 179.910,156.741 179.354,156.741 179.215 C 156.741 179.076,156.541 178.963,156.296 178.963 C 156.052 178.963,155.852 178.839,155.852 178.687 C 155.852 178.535,155.557 178.317,155.198 178.203 C 154.838 178.088,154.071 177.547,153.494 177.000 C 152.917 176.453,152.296 176.004,152.116 176.003 C 151.935 176.001,151.536 175.667,151.230 175.259 C 150.924 174.852,150.506 174.519,150.300 174.519 C 150.094 174.519,149.926 174.341,149.926 174.124 C 149.926 173.907,149.593 173.551,149.185 173.333 C 148.778 173.115,148.444 172.783,148.444 172.594 C 148.444 172.406,148.111 171.938,147.704 171.556 C 147.296 171.173,146.963 170.743,146.963 170.601 C 146.963 170.459,146.630 170.033,146.222 169.656 C 145.815 169.278,145.481 168.818,145.481 168.633 C 145.481 168.448,145.348 168.296,145.185 168.296 C 145.022 168.296,144.889 168.030,144.889 167.704 C 144.889 167.374,144.691 167.111,144.444 167.111 C 144.165 167.111,144.000 166.829,144.000 166.353 C 144.000 165.936,143.878 165.670,143.728 165.763 C 143.578 165.855,143.368 165.530,143.260 165.040 C 143.152 164.549,142.941 164.148,142.791 164.148 C 142.641 164.148,142.519 163.815,142.519 163.407 C 142.519 163.000,142.385 162.667,142.222 162.667 C 142.059 162.667,141.926 162.333,141.926 161.926 C 141.926 161.465,141.758 161.185,141.481 161.185 C 141.164 161.185,141.037 160.863,141.037 160.059 C 141.037 159.440,140.917 158.807,140.770 158.652 C 140.623 158.497,140.429 157.770,140.340 157.037 C 140.251 156.304,140.171 155.663,140.163 155.612 C 140.155 155.562,140.015 155.603,139.852 155.704 C 139.665 155.819,139.546 155.034,139.531 153.573 C 139.517 152.300,139.444 150.926,139.367 150.519 C 139.090 149.047,138.988 144.612,139.227 144.465 C 139.362 144.381,139.498 143.220,139.530 141.884 C 139.562 140.548,139.743 139.177,139.931 138.838 C 140.119 138.499,140.322 137.827,140.382 137.344 C 140.443 136.860,140.615 136.236,140.764 135.956 C 140.914 135.676,141.037 135.038,141.037 134.538 C 141.037 133.969,141.176 133.657,141.407 133.704 C 141.616 133.745,141.819 133.421,141.872 132.963 C 141.923 132.515,142.090 132.148,142.242 132.148 C 142.394 132.148,142.519 131.829,142.519 131.439 C 142.519 131.049,142.727 130.650,142.982 130.552 C 143.237 130.455,143.374 130.260,143.288 130.120 C 143.201 129.980,143.322 129.612,143.556 129.303 C 143.790 128.994,143.985 128.568,143.991 128.356 C 143.996 128.145,144.333 127.663,144.741 127.285 C 145.148 126.908,145.481 126.441,145.481 126.248 C 145.481 126.055,145.815 125.589,146.222 125.211 C 146.630 124.834,146.963 124.434,146.963 124.323 C 146.963 124.213,147.296 123.763,147.704 123.323 C 148.111 122.884,148.444 122.357,148.444 122.151 C 148.444 121.946,148.587 121.778,148.762 121.778 C 149.172 121.778,149.926 121.024,149.926 120.614 C 149.926 120.439,150.126 120.296,150.370 120.296 C 150.615 120.296,150.815 120.196,150.815 120.074 C 150.816 119.952,151.454 119.417,152.234 118.885 C 153.014 118.354,153.843 117.654,154.077 117.330 C 154.310 117.006,154.651 116.741,154.834 116.741 C 155.017 116.741,155.554 116.408,156.028 116.000 C 156.501 115.593,157.116 115.260,157.393 115.260 C 157.670 115.259,158.003 115.093,158.133 114.889 C 158.420 114.441,159.562 113.778,160.047 113.778 C 160.240 113.778,160.608 113.599,160.866 113.381 C 161.123 113.163,162.100 112.751,163.037 112.465 C 163.974 112.179,164.741 111.851,164.741 111.737 C 164.741 111.622,165.241 111.498,165.852 111.460 C 166.463 111.422,167.363 111.272,167.852 111.126 C 168.341 110.980,169.541 110.791,170.519 110.707 C 172.526 110.533,173.986 110.264,174.216 110.025 C 174.387 109.846,177.798 110.081,178.963 110.351 M287.111 121.711 C 287.111 122.442,288.041 124.741,288.337 124.741 C 288.477 124.741,288.593 125.074,288.593 125.481 C 288.593 125.889,288.726 126.222,288.889 126.222 C 289.052 126.222,289.185 126.463,289.185 126.758 C 289.185 127.053,289.381 127.553,289.620 127.869 C 289.859 128.186,290.059 128.737,290.065 129.094 C 290.070 129.451,290.207 129.825,290.370 129.926 C 290.533 130.027,290.667 130.372,290.667 130.693 C 290.667 131.015,290.867 131.355,291.111 131.448 C 291.362 131.544,291.556 131.986,291.556 132.459 C 291.556 132.920,291.689 133.381,291.852 133.481 C 292.015 133.582,292.148 133.928,292.148 134.249 C 292.148 134.570,292.348 134.910,292.593 135.004 C 292.837 135.098,293.037 135.449,293.037 135.784 C 293.037 136.539,293.954 138.667,294.279 138.667 C 294.411 138.667,294.523 138.967,294.528 139.333 C 294.533 139.700,294.865 140.667,295.266 141.481 C 295.667 142.296,295.996 143.196,295.997 143.481 C 295.999 143.767,296.123 144.000,296.273 144.000 C 296.423 144.000,296.633 144.398,296.740 144.885 C 296.847 145.373,297.058 145.847,297.208 145.940 C 297.358 146.033,297.481 146.435,297.481 146.832 C 297.481 147.230,297.615 147.556,297.778 147.556 C 297.941 147.556,298.074 147.806,298.074 148.112 C 298.074 148.418,298.274 148.834,298.519 149.037 C 298.763 149.240,298.963 149.773,298.963 150.222 C 298.963 150.671,299.163 151.205,299.407 151.407 C 299.652 151.610,299.852 151.893,299.852 152.036 C 299.852 152.182,293.906 152.296,286.370 152.296 C 271.903 152.296,271.591 152.261,273.333 150.815 C 273.578 150.612,273.778 150.129,273.778 149.741 C 273.778 149.354,273.911 149.037,274.074 149.037 C 274.237 149.037,274.370 148.720,274.370 148.333 C 274.370 147.945,274.570 147.462,274.815 147.259 C 275.059 147.056,275.259 146.640,275.259 146.334 C 275.259 146.028,275.393 145.778,275.556 145.778 C 275.719 145.778,275.852 145.378,275.852 144.889 C 275.852 144.296,276.000 144.000,276.296 144.000 C 276.573 144.000,276.741 143.720,276.741 143.259 C 276.741 142.852,276.874 142.519,277.037 142.519 C 277.200 142.519,277.333 142.199,277.333 141.809 C 277.333 141.420,277.533 141.024,277.778 140.930 C 278.022 140.836,278.222 140.496,278.222 140.175 C 278.222 139.854,278.356 139.508,278.519 139.407 C 278.681 139.307,278.815 138.915,278.815 138.537 C 278.815 138.159,279.015 137.684,279.259 137.481 C 279.504 137.279,279.704 136.862,279.704 136.556 C 279.704 136.250,279.837 136.000,280.000 136.000 C 280.163 136.000,280.296 135.683,280.296 135.296 C 280.296 134.908,280.496 134.425,280.741 134.222 C 280.985 134.019,281.185 133.603,281.185 133.297 C 281.185 132.991,281.319 132.741,281.481 132.741 C 281.644 132.741,281.778 132.355,281.778 131.884 C 281.778 131.395,281.969 130.953,282.222 130.856 C 282.467 130.762,282.667 130.348,282.667 129.935 C 282.667 129.523,282.800 129.185,282.963 129.185 C 283.126 129.185,283.259 128.852,283.259 128.444 C 283.259 128.037,283.367 127.704,283.499 127.704 C 283.766 127.704,284.741 125.633,284.741 125.064 C 284.741 124.863,284.941 124.498,285.185 124.254 C 285.430 124.010,285.630 123.552,285.630 123.238 C 285.630 122.924,285.763 122.667,285.926 122.667 C 286.089 122.667,286.222 122.356,286.222 121.975 C 286.222 121.595,286.307 121.199,286.412 121.094 C 286.703 120.803,287.111 121.163,287.111 121.711 " stroke="none" fill="#f68a21" fill-rule="evenodd"></path><path id="path4" d="" stroke="none" fill="#ffff00" fill-rule="evenodd"></path></g></svg>