<svg id="Layer_1" data-name="Layer 1" xmlns="http://www.w3.org/2000/svg" viewBox="0 0 1024 1024"><defs><style>.cls-1{fill:#f0f2f4;}.cls-2{fill:#547abc;}.cls-3{fill:#4857a6;}.cls-4{fill:#86a9d8;}.cls-5{fill:#6f7aba;}.cls-6{fill:#9ebbe2;}.cls-7{fill:#ebecec;}</style></defs><title>google-my-business</title><circle id="_Path_" data-name="&lt;Path&gt;" class="cls-1" cx="512" cy="512" r="512"/><g id="_Group_" data-name="&lt;Group&gt;"><path id="_Compound_Path_" data-name="&lt;Compound Path&gt;" class="cls-2" d="M265.07,718.7c0-.8-.12-1.61-.12-2.41q0-104,0-207.93c0-.23,0-.46.06-.69a4.6,4.6,0,0,1,2.69.31,71.58,71.58,0,0,0,36.18,5.94,69.19,69.19,0,0,0,39.54-16.86c14.92-12.84,22.47-29.55,24.56-48.92,1,2.93.85,6.07,1.5,9C373,473.54,380.81,487.39,393.9,498c18.55,15.06,39.66,19.3,62.7,14.06,15.1-3.44,27.34-11.83,37.32-23.52a65.81,65.81,0,0,0,12.56-22.79c1.72-5.34,2.55-10.87,4-16.25.36,2.49.6,5,1.09,7.48a69.21,69.21,0,0,0,21.35,38.12c16.34,15.2,35.71,21.28,57.63,18.49a68.11,68.11,0,0,0,45.26-25.12,69.69,69.69,0,0,0,15.88-39.62c1.23,2.4,1,5.09,1.53,7.62,4.23,20.76,15,37.14,33.3,48,15.32,9.15,32,12,49.67,8.88,6.63-1.18,12.65-4.06,19.06-5.81.06,1.26.17,2.52.17,3.79q0,101.89,0,203.77c0,20.22-17.7,38.06-37.95,38.06q-207.4,0-414.81,0c-14.78,0-29.89-10.4-34.82-24.27-1.06-3-2.44-6-2.48-9.36ZM692.75,590.81a12.16,12.16,0,0,0-.94-1.09c-20.82-19.07-55.37-22.81-80-8.63-20.71,11.9-33.35,29.48-36.35,53.31-3,24.19,4.53,44.94,22.44,61.44,16.7,15.39,36.8,21,59.16,17.88,16.82-2.34,31.14-9.63,41.94-23.11,9.91-12.36,14.08-26.76,14.86-42.31a64.12,64.12,0,0,0-1.37-17.3c-5.11-.63-64-.42-66.65.21v26.88h37.9c-.21,1.15-.29,1.82-.47,2.46-3.76,14-14.9,22.95-31.35,25.18-29.18,4-53.56-22.45-47.2-51.14,5.62-25.36,31.46-40.05,55.16-31.38A44.86,44.86,0,0,1,672.64,611Z" transform="translate(0 0)"/><path id="_Path_2" data-name="&lt;Path&gt;" class="cls-3" d="M755.26,507.59c-6.41,1.74-12.43,4.62-19.06,5.81-17.7,3.16-34.35.27-49.67-8.88-18.26-10.9-29.07-27.28-33.3-48-.52-2.54-.3-5.22-1.53-7.62a51.77,51.77,0,0,0,.1-6.8c-1.1-9.81-2.32-19.61-3.58-29.41-1.51-11.73-3.12-23.44-4.65-35.16-1.47-11.27-2.88-22.55-4.34-33.83-1.69-13.1-3.36-26.19-5.1-39.28-1.67-12.52-3.6-25-4.75-37.59,1.24-1.27,2.83-.74,4.26-.74q41.46-.05,82.91,0a39,39,0,0,1,37.76,29.57c.56,2.21.31,4.82,2.41,6.49l1.48,6.2c-.87.87-.25,1.18.54,1.42L759,311a12.59,12.59,0,0,0,2.43,9.07l.94,4.1c-.9.9-.24,1.19.56,1.42l.8,3.43c-.85.8-.31,1.15.46,1.43l.31,1.32a3.51,3.51,0,0,0,1.08,4.22l.32,1.32c-.95.85-.41,1.2.48,1.44l.17,1.34c-.94.92-.27,1.2.56,1.42l.76,3.44c-.85.85-.27,1.17.52,1.42l.26,1.32a8.54,8.54,0,0,0,1.88,7l.22,1.33c-1,.9-.34,1.2.52,1.43l.77,3.44c-.87.9-.23,1.19.57,1.42l.75,3.45c-.15,3.52.43,6.85,2.67,9.71l.18,1.34c-.89.91-.26,1.2.57,1.42l.76,3.44c-.82.84-.26,1.17.53,1.42l.24,1.33a8.88,8.88,0,0,0,1.88,7l.24,1.33c-1,.89-.36,1.2.51,1.43l2.09,8.3c-.78.77-.26,1.13.45,1.42l.32,1.33a7.79,7.79,0,0,0,1.88,7l3.05,11.7a3.47,3.47,0,0,0,1.08,4.22l.29,1.32c-.95.87-.36,1.2.5,1.43l2.85,11.05c-.8.69-.36,1.09.33,1.43.89,10-1.74,19.39-5.61,28.39a68.73,68.73,0,0,1-30.43,33.67C756.76,505.95,755.65,506.36,755.26,507.59Z" transform="translate(0 0)"/><path id="_Path_3" data-name="&lt;Path&gt;" class="cls-4" d="M368,448.14c-2.09,19.37-9.63,36.08-24.56,48.92a69.19,69.19,0,0,1-39.54,16.86A71.58,71.58,0,0,1,267.67,508a4.6,4.6,0,0,0-2.69-.31c-.36-1.24-1.43-1.68-2.43-2.27-20.91-12.15-32.77-30.29-35.9-54.23-.31-2.4-.77-4.77-.29-7.19,1.24-1.17,2.29-2.39,1.1-4.2,0-2.2,1-4.14,1.52-6.2.77-.21,1.54-.42.63-1.39-.25-1.25.47-2.31.71-3.46.88-.2,1.61-.47.55-1.42L231,426c2.06-1.93,2.24-4.37,1.93-7l.23-1.33c.8-.24,1.5-.52.53-1.42l1.47-6.21c.87-.2,1.6-.46.56-1.42l.18-1.35c1.71-1,1.8-2.52,1.17-4.2l.27-1.33c.8-.25,1.47-.55.5-1.42l1.53-6.2c.82-.22,1.53-.49.55-1.41l.13-1.36c.87-.22,1.54-.51.52-1.42l.25-1.33c.86-.27,1.45-.62.42-1.44l.29-1.33c.82-.27,1.42-.6.45-1.43,0-2.2,1-4.14,1.53-6.2.8-.21,1.54-.45.59-1.4l.86-4.13a7.34,7.34,0,0,0,1.94-6.94c-.2-1.25.47-2.31.78-3.45.79-.23,1.53-.47.57-1.41l1.44-6.22c2.09-2.15,2.48-4.77,2.1-7.6.07-2.93,1.64-5.48,2.08-8.31.84-.21,1.57-.47.56-1.42l.15-1.35c1.72-1,1.78-2.52,1.19-4.2l1-4.1c.77-.24,1.45-.51.55-1.41-.24-1.26.53-2.3.76-3.45.82-.21,1.55-.46.58-1.41l.14-1.36a6.63,6.63,0,0,0,1.91-7l1.56-6.19c.79-.23,1.51-.49.56-1.41-.23-1.25.51-2.3.74-3.45.88-.21,1.62-.47.54-1.42l.16-1.35c2-.86,1.53-2.9,1.91-4.42A38.54,38.54,0,0,1,302.95,266h87.77l.31,0h.31c-1.78,13.18-3.62,26.35-5.32,39.53-1.79,13.87-3.4,27.76-5.17,41.64-1.73,13.53-3.56,27-5.35,40.56-1.52,11.47-3.18,22.93-4.52,34.43C370,430.85,368.18,439.4,368,448.14Z" transform="translate(0 0)"/><path id="_Path_4" data-name="&lt;Path&gt;" class="cls-5" d="M756.73,302.09c-2.1-1.67-1.85-4.29-2.41-6.49A39,39,0,0,0,716.56,266q-41.46,0-82.91,0c-1.43,0-3-.53-4.26.74l-.57-.79.08-3.4c30.73,0,61.48-.49,92.19.38,13.3.38,23.39,8.39,29.83,20.12C754.12,288.94,755.66,295.49,756.73,302.09Z" transform="translate(0 0)"/><path id="_Path_5" data-name="&lt;Path&gt;" class="cls-6" d="M390.71,266H302.95a38.54,38.54,0,0,0-36.81,28.84c-.38,1.53.12,3.56-1.91,4.42,2.21-18.75,14.35-32.33,32.63-36.35a29.14,29.14,0,0,1,6.18-.41q43.39,0,86.79,0c.57,0,1.15.1,1.72.15Z" transform="translate(0 0)"/><path id="_Path_6" data-name="&lt;Path&gt;" class="cls-5" d="M390.71,266l.83-3.35c1.38-.05,2.76-.15,4.14-.15H506.26c1.38,0,2.76.12,4.13.18q.06,1.66.11,3.33H391Z" transform="translate(0 0)"/><path id="_Path_7" data-name="&lt;Path&gt;" class="cls-6" d="M510.51,266q-.06-1.66-.11-3.33c.92-.06,1.83-.19,2.75-.19h114c.57,0,1.15.06,1.72.09q0,1.7-.08,3.4Z" transform="translate(0 0)"/><path id="_Path_8" data-name="&lt;Path&gt;" class="cls-5" d="M776,375.47c-2.24-2.87-2.82-6.19-2.67-9.71C774.93,368.81,775.44,372.16,776,375.47Z" transform="translate(0 0)"/><path id="_Path_9" data-name="&lt;Path&gt;" class="cls-5" d="M761.45,320.11A12.59,12.59,0,0,1,759,311,30.54,30.54,0,0,1,761.45,320.11Z" transform="translate(0 0)"/><path id="_Path_10" data-name="&lt;Path&gt;" class="cls-6" d="M251.79,347.07c.38,2.83,0,5.45-2.1,7.6A19.08,19.08,0,0,1,251.79,347.07Z" transform="translate(0 0)"/><path id="_Path_11" data-name="&lt;Path&gt;" class="cls-5" d="M780.21,391.39a8.88,8.88,0,0,1-1.88-7A16.61,16.61,0,0,1,780.21,391.39Z" transform="translate(0 0)"/><path id="_Path_12" data-name="&lt;Path&gt;" class="cls-6" d="M246.9,365.75a7.34,7.34,0,0,1-1.94,6.94C245.31,370.29,245.6,367.88,246.9,365.75Z" transform="translate(0 0)"/><path id="_Path_13" data-name="&lt;Path&gt;" class="cls-5" d="M785.7,412.17a7.79,7.79,0,0,1-1.88-7A20.58,20.58,0,0,1,785.7,412.17Z" transform="translate(0 0)"/><path id="_Path_14" data-name="&lt;Path&gt;" class="cls-5" d="M770.55,354.7a8.54,8.54,0,0,1-1.88-7A17.12,17.12,0,0,1,770.55,354.7Z" transform="translate(0 0)"/><path id="_Path_15" data-name="&lt;Path&gt;" class="cls-6" d="M232.93,419c.31,2.58.13,5-1.93,7A16,16,0,0,1,232.93,419Z" transform="translate(0 0)"/><path id="_Path_16" data-name="&lt;Path&gt;" class="cls-6" d="M260.66,313.12a6.63,6.63,0,0,1-1.91,7C259.18,317.7,259.46,315.28,260.66,313.12Z" transform="translate(0 0)"/><path id="_Path_17" data-name="&lt;Path&gt;" class="cls-6" d="M227.45,439.79c1.19,1.81.15,3-1.1,4.2A6.31,6.31,0,0,1,227.45,439.79Z" transform="translate(0 0)"/><path id="_Path_18" data-name="&lt;Path&gt;" class="cls-6" d="M237.07,403.09c.63,1.68.54,3.17-1.17,4.2A5.94,5.94,0,0,1,237.07,403.09Z" transform="translate(0 0)"/><path id="_Path_19" data-name="&lt;Path&gt;" class="cls-6" d="M255.77,331.79c.59,1.68.53,3.17-1.19,4.2A6.08,6.08,0,0,1,255.77,331.79Z" transform="translate(0 0)"/><path id="_Path_20" data-name="&lt;Path&gt;" class="cls-5" d="M789.83,428.09a3.47,3.47,0,0,1-1.08-4.22A6.34,6.34,0,0,1,789.83,428.09Z" transform="translate(0 0)"/><path id="_Path_21" data-name="&lt;Path&gt;" class="cls-5" d="M765.59,336a3.51,3.51,0,0,1-1.08-4.22A5.94,5.94,0,0,1,765.59,336Z" transform="translate(0 0)"/><path id="_Path_22" data-name="&lt;Path&gt;" class="cls-6" d="M233.69,416.26c1,.9.28,1.18-.53,1.42A1.09,1.09,0,0,1,233.69,416.26Z" transform="translate(0 0)"/><path id="_Path_23" data-name="&lt;Path&gt;" class="cls-6" d="M235.72,408.63c1,1,.31,1.22-.56,1.42A1.26,1.26,0,0,1,235.72,408.63Z" transform="translate(0 0)"/><path id="_Path_24" data-name="&lt;Path&gt;" class="cls-6" d="M230.86,427.32c1.06,1,.33,1.22-.55,1.42A1.21,1.21,0,0,1,230.86,427.32Z" transform="translate(0 0)"/><path id="_Path_25" data-name="&lt;Path&gt;" class="cls-5" d="M790.63,430.84c-.86-.23-1.45-.56-.5-1.43A1.39,1.39,0,0,1,790.63,430.84Z" transform="translate(0 0)"/><path id="_Path_26" data-name="&lt;Path&gt;" class="cls-6" d="M229.6,432.2c.92,1,.14,1.18-.63,1.39A1.12,1.12,0,0,1,229.6,432.2Z" transform="translate(0 0)"/><path id="_Path_27" data-name="&lt;Path&gt;" class="cls-5" d="M783.51,403.87c-.71-.3-1.23-.66-.45-1.42A1,1,0,0,1,783.51,403.87Z" transform="translate(0 0)"/><path id="_Path_28" data-name="&lt;Path&gt;" class="cls-6" d="M237.84,400.34c1,.88.3,1.17-.5,1.42A1,1,0,0,1,237.84,400.34Z" transform="translate(0 0)"/><path id="_Path_29" data-name="&lt;Path&gt;" class="cls-5" d="M781,394.15c-.87-.23-1.49-.55-.51-1.43A1.36,1.36,0,0,1,781,394.15Z" transform="translate(0 0)"/><path id="_Path_30" data-name="&lt;Path&gt;" class="cls-6" d="M239.92,392.73c1,.92.27,1.19-.55,1.41A1.14,1.14,0,0,1,239.92,392.73Z" transform="translate(0 0)"/><path id="_Path_31" data-name="&lt;Path&gt;" class="cls-6" d="M240.57,389.95c1,.91.35,1.21-.52,1.42A1.25,1.25,0,0,1,240.57,389.95Z" transform="translate(0 0)"/><path id="_Path_32" data-name="&lt;Path&gt;" class="cls-5" d="M793.8,443.33c-.69-.34-1.13-.75-.33-1.43A1,1,0,0,1,793.8,443.33Z" transform="translate(0 0)"/><path id="_Path_33" data-name="&lt;Path&gt;" class="cls-6" d="M264.07,300.64c1.07,1,.34,1.21-.54,1.42A1.24,1.24,0,0,1,264.07,300.64Z" transform="translate(0 0)"/><path id="_Path_34" data-name="&lt;Path&gt;" class="cls-6" d="M262.79,305.52c.95.92.23,1.18-.56,1.41A1.12,1.12,0,0,1,262.79,305.52Z" transform="translate(0 0)"/><path id="_Path_35" data-name="&lt;Path&gt;" class="cls-5" d="M758.75,309.71c-.79-.24-1.41-.55-.54-1.42A1.09,1.09,0,0,1,758.75,309.71Z" transform="translate(0 0)"/><path id="_Path_36" data-name="&lt;Path&gt;" class="cls-6" d="M258.62,321.43c1,1,.24,1.2-.58,1.41A1.16,1.16,0,0,1,258.62,321.43Z" transform="translate(0 0)"/><path id="_Path_37" data-name="&lt;Path&gt;" class="cls-5" d="M762.94,325.62c-.8-.23-1.46-.52-.56-1.42A1.22,1.22,0,0,1,762.94,325.62Z" transform="translate(0 0)"/><path id="_Path_38" data-name="&lt;Path&gt;" class="cls-6" d="M257.28,326.29c.9.89.23,1.17-.55,1.41A1.06,1.06,0,0,1,257.28,326.29Z" transform="translate(0 0)"/><path id="_Path_39" data-name="&lt;Path&gt;" class="cls-5" d="M764.2,330.49c-.77-.28-1.31-.63-.46-1.43A1,1,0,0,1,764.2,330.49Z" transform="translate(0 0)"/><path id="_Path_40" data-name="&lt;Path&gt;" class="cls-6" d="M254.43,337.34c1,.95.28,1.2-.56,1.42A1.2,1.2,0,0,1,254.43,337.34Z" transform="translate(0 0)"/><path id="_Path_41" data-name="&lt;Path&gt;" class="cls-5" d="M766.39,338.78c-.89-.23-1.43-.58-.48-1.44A1.44,1.44,0,0,1,766.39,338.78Z" transform="translate(0 0)"/><path id="_Path_42" data-name="&lt;Path&gt;" class="cls-5" d="M767.13,341.54c-.83-.22-1.5-.5-.56-1.42A1.24,1.24,0,0,1,767.13,341.54Z" transform="translate(0 0)"/><path id="_Path_43" data-name="&lt;Path&gt;" class="cls-5" d="M768.41,346.4c-.79-.25-1.37-.57-.52-1.42A1.12,1.12,0,0,1,768.41,346.4Z" transform="translate(0 0)"/><path id="_Path_44" data-name="&lt;Path&gt;" class="cls-5" d="M771.29,357.46c-.86-.23-1.51-.53-.52-1.43A1.31,1.31,0,0,1,771.29,357.46Z" transform="translate(0 0)"/><path id="_Path_45" data-name="&lt;Path&gt;" class="cls-6" d="M248.25,360.89c1,.94.22,1.18-.57,1.41A1.11,1.11,0,0,1,248.25,360.89Z" transform="translate(0 0)"/><path id="_Path_46" data-name="&lt;Path&gt;" class="cls-5" d="M772.62,362.31c-.8-.23-1.44-.52-.57-1.42A1.31,1.31,0,0,1,772.62,362.31Z" transform="translate(0 0)"/><path id="_Path_47" data-name="&lt;Path&gt;" class="cls-6" d="M244.1,376.81c.95,1,.21,1.19-.59,1.4A1.12,1.12,0,0,1,244.1,376.81Z" transform="translate(0 0)"/><path id="_Path_48" data-name="&lt;Path&gt;" class="cls-5" d="M776.8,378.23c-.83-.22-1.47-.51-.57-1.42A1.33,1.33,0,0,1,776.8,378.23Z" transform="translate(0 0)"/><path id="_Path_49" data-name="&lt;Path&gt;" class="cls-5" d="M778.09,383.09c-.78-.25-1.35-.58-.53-1.42A1.16,1.16,0,0,1,778.09,383.09Z" transform="translate(0 0)"/><path id="_Path_50" data-name="&lt;Path&gt;" class="cls-6" d="M242,384.42c1,.83.37,1.16-.45,1.43A1,1,0,0,1,242,384.42Z" transform="translate(0 0)"/><path id="_Path_51" data-name="&lt;Path&gt;" class="cls-6" d="M241.24,387.17c1,.82.44,1.17-.42,1.44A1.12,1.12,0,0,1,241.24,387.17Z" transform="translate(0 0)"/><path id="_Path_52" data-name="&lt;Path&gt;" class="cls-4" d="M265.07,718.7l.27.87Z" transform="translate(0 0)"/><path id="_Path_53" data-name="&lt;Path&gt;" class="cls-4" d="M510.51,266l118.31,0,.57.79c1.15,12.58,3.08,25.07,4.75,37.59,1.74,13.09,3.41,26.19,5.1,39.28,1.45,11.27,2.87,22.55,4.34,33.83,1.53,11.72,3.14,23.44,4.65,35.16,1.26,9.79,2.48,19.59,3.58,29.41a51.77,51.77,0,0,1-.1,6.8,69.69,69.69,0,0,1-15.88,39.63,68.11,68.11,0,0,1-45.26,25.12c-21.92,2.8-41.29-3.29-57.63-18.49A69.21,69.21,0,0,1,511.59,457c-.49-2.47-.73-5-1.09-7.48-.18-1.82-.51-3.65-.52-5.47-.07-8.06-.07-16.13-.07-24.19q0-76.9,0-153.8Z" transform="translate(0 0)"/><path id="_Path_54" data-name="&lt;Path&gt;" class="cls-3" d="M509.87,266q0,76.9,0,153.8c0,8.06,0,16.13.07,24.19,0,1.83.34,3.65.52,5.47-1.47,5.38-2.29,10.91-4,16.25a65.81,65.81,0,0,1-12.56,22.79c-10,11.69-22.22,20.09-37.32,23.52-23,5.24-44.15,1-62.7-14.06-13.09-10.62-20.92-24.48-24.46-40.84-.64-3-.49-6.11-1.5-9,.22-8.74,2-17.29,3-25.93,1.33-11.5,3-23,4.52-34.43,1.79-13.52,3.62-27,5.35-40.56,1.77-13.87,3.38-27.77,5.17-41.64,1.7-13.19,3.54-26.36,5.32-39.53Z" transform="translate(0 0)"/><path id="_Path_55" data-name="&lt;Path&gt;" class="cls-7" d="M692.75,590.81,672.64,611a44.86,44.86,0,0,0-12.78-7.76c-23.7-8.67-49.54,6-55.16,31.38-6.36,28.69,18,55.11,47.2,51.14,16.45-2.24,27.59-11.19,31.35-25.18.17-.65.25-1.32.47-2.46h-37.9V631.2c2.67-.63,61.54-.84,66.65-.21a64.12,64.12,0,0,1,1.37,17.3c-.78,15.55-5,30-14.86,42.31-10.8,13.48-25.12,20.77-41.94,23.11-22.36,3.11-42.46-2.49-59.16-17.88-17.91-16.5-25.48-37.25-22.44-61.44,3-23.83,15.64-41.41,36.35-53.31,24.67-14.18,59.22-10.44,80,8.63A12.16,12.16,0,0,1,692.75,590.81Z" transform="translate(0 0)"/></g></svg>