<?xml version="1.0" encoding="utf-8"?>
<!-- Generator: Adobe Illustrator 14.0.0, SVG Export Plug-In . SVG Version: 6.00 Build 43363)  -->
<!DOCTYPE svg PUBLIC "-//W3C//DTD SVG 1.1//EN" "http://www.w3.org/Graphics/SVG/1.1/DTD/svg11.dtd">
<svg version="1.1" id="Ebene_1" xmlns="http://www.w3.org/2000/svg" xmlns:xlink="http://www.w3.org/1999/xlink" x="0px" y="0px"
	 width="444px" height="159px" viewBox="0 0 444 159" enable-background="new 0 0 444 159" xml:space="preserve">
<linearGradient id="SVGID_1_" gradientUnits="userSpaceOnUse" x1="40.9814" y1="39.0469" x2="67.2163" y2="39.0469">
	<stop  offset="0" style="stop-color:#F7DA41"/>
	<stop  offset="1" style="stop-color:#E3B31B"/>
</linearGradient>
<path fill="url(#SVGID_1_)" d="M65.395,53.146c0.651-6.213,4.099-32.081-0.636-33.773l0,0c-0.001,0-0.001,0-0.002-0.001
	c0,0-0.001,0-0.002,0l0,0c-5.119-1.701-19.213,19.763-22.756,24.793c0,0-5.357,7.701,8.527,13.003l0,0c0.001,0,0.001,0,0.002,0.001
	c0,0,0.001,0,0.002,0.001l0,0C64.395,62.519,65.395,53.146,65.395,53.146L65.395,53.146z"/>
<linearGradient id="SVGID_2_" gradientUnits="userSpaceOnUse" x1="25" y1="68.7993" x2="61.3452" y2="68.7993">
	<stop  offset="0" style="stop-color:#DB5D42"/>
	<stop  offset="1" style="stop-color:#A52B1F"/>
</linearGradient>
<path fill="url(#SVGID_2_)" d="M57.738,63.211c-5.708-2.539-29.244-13.812-32.316-9.832l0,0c0,0.001-0.001,0.001-0.001,0.002
	c-0.001,0-0.001,0.001-0.001,0.002l0,0c-3.199,4.343,12.858,24.379,16.547,29.304c0,0,5.668,7.474,15.001-4.091l0,0
	c0-0.001,0.001-0.001,0.001-0.002c0,0,0-0.001,0.001-0.001l0,0C66.344,67.059,57.738,63.211,57.738,63.211L57.738,63.211z"/>
<linearGradient id="SVGID_3_" gradientUnits="userSpaceOnUse" x1="45.3062" y1="87.0674" x2="82.7617" y2="87.0674">
	<stop  offset="0" style="stop-color:#3B91CF"/>
	<stop  offset="1" style="stop-color:#1E4B7C"/>
</linearGradient>
<path fill="url(#SVGID_3_)" d="M64.945,73.603c-4.179,4.644-22.173,23.544-19.337,27.696l0,0c0,0.001,0,0.002,0.001,0.003
	s0.001,0.001,0.001,0.002l0,0c3.142,4.384,27.16-4.695,32.983-6.683c0,0,8.86-3.081,0.744-15.531l0,0c0,0,0-0.001-0.001-0.001
	c0-0.001-0.001-0.001-0.001-0.002l0,0C71.263,66.608,64.945,73.603,64.945,73.603L64.945,73.603z"/>
<linearGradient id="SVGID_4_" gradientUnits="userSpaceOnUse" x1="76.3193" y1="77.002" x2="101.4497" y2="77.002">
	<stop  offset="0" style="stop-color:#0AA537"/>
	<stop  offset="1" style="stop-color:#007A36"/>
</linearGradient>
<path fill="url(#SVGID_4_)" d="M77.055,69.961C80.18,75.37,92.595,98.324,97.42,96.91l0,0c0.001-0.001,0.001-0.001,0.002-0.001
	s0.001,0,0.002-0.001l0,0c5.141-1.633,3.927-27.281,3.837-33.433c0,0-0.192-9.379-14.541-5.508l0,0c-0.001,0-0.001,0-0.002,0
	c-0.001,0-0.001,0-0.002,0.001l0,0C72.354,61.79,77.055,69.961,77.055,69.961L77.055,69.961z"/>
<linearGradient id="SVGID_5_" gradientUnits="userSpaceOnUse" x1="68.8643" y1="44.749" x2="109.2568" y2="44.749">
	<stop  offset="0" style="stop-color:#C5C6C6"/>
	<stop  offset="1" style="stop-color:#6F6F6E"/>
</linearGradient>
<path fill="url(#SVGID_5_)" d="M77.333,57.317c6.11-1.301,31.777-6.014,31.923-11.04l0,0c0-0.001,0-0.001,0-0.003
	c0,0,0-0.001,0-0.002l0,0c0.036-5.394-24.732-12.166-30.611-13.981c0,0-8.979-2.715-9.731,12.127l0,0c0,0.001,0,0.001,0,0.001
	c0,0.001,0,0.002,0,0.003l0,0C68.11,59.263,77.333,57.317,77.333,57.317L77.333,57.317z"/>
<polygon fill="#494948" points="218.652,32.907 231.654,32.907 231.654,45.91 218.652,45.91 218.652,32.907 "/>
<polygon fill="#494948" points="231.662,126.646 218.654,126.646 218.654,52.109 231.662,52.109 231.662,126.646 "/>
<path fill="#494948" d="M319.127,52.096h11.059v12.899h-11.059v45.567c0,2.482,0.748,3.17,3.061,3.17h4.307v12.899h-4.416
	c-4.363,0-8.17-1.59-11.268-4.69c-3.07-3.065-4.58-6.926-4.58-11.379V64.995h-10.836V52.096h10.836V32.907h12.896V52.096
	L319.127,52.096z"/>
<path fill="#494948" d="M380.168,69.638c-4.049-4.112-8.877-6.146-14.607-6.146c-5.734,0-10.6,2.029-14.727,6.154
	c-4.111,4.048-6.137,8.867-6.137,14.599v9.842c0,5.796,2.01,10.672,6.098,14.78c4.297,4.099,9.18,6.081,14.766,6.081
	c5.73,0,10.551-2.025,14.6-6.139c4.125-4.125,6.154-8.99,6.154-14.723v-9.842C386.314,78.514,384.279,73.687,380.168,69.638
	L380.168,69.638z M399.324,110.563c0,2.484,0.746,3.17,3.059,3.17h4.236v12.899h-4.348c-3.939,0-7.438-1.222-10.34-3.719
	c-1.518-1.303-2.727-2.802-3.619-4.479c-2.438,2.25-5.199,4.073-8.275,5.462c-4.539,2.05-9.375,3.067-14.477,3.067
	c-9.141,0-17.166-3.018-23.816-8.948c-6.572-6.57-9.947-14.637-9.947-23.929v-9.842c0-18.608,15.148-33.763,33.764-33.763
	c18.758,0,33.764,15.007,33.764,33.763V110.563L399.324,110.563z"/>
<path fill="#494948" d="M199.885,32.952v77.611c0,2.435,0.735,3.17,3.169,3.17h4.133v12.899h-4.244
	c-4.419,0-8.269-1.577-11.378-4.69c-3.069-3.065-4.58-6.926-4.58-11.379V32.952H199.885L199.885,32.952z"/>
<path fill="#494948" d="M109.783,145.922V82.442c0.407-8.466,3.71-15.827,9.843-21.963c6.631-6.631,14.638-9.998,23.875-9.998
	c9.227,0,17.199,3.324,23.766,9.886c6.631,6.633,9.998,14.64,9.998,23.877v9.842c0,9.236-3.425,17.298-10.056,23.929
	c-6.647,5.926-14.635,8.948-23.707,8.948c-5.235,0-10.116-1.013-14.604-3.076c-2.343-1.075-4.503-2.41-6.479-4v26.034H109.783
	L109.783,145.922z M158.226,69.646c-4.128-4.126-8.993-6.154-14.726-6.154c-11.515,0-20.753,9.246-20.753,20.753v9.842
	c0,5.649,1.975,10.55,6.036,14.825c4.284,4.068,9.152,6.036,14.717,6.036c11.512,0,20.864-9.35,20.864-20.861v-9.842
	C164.364,78.514,162.338,73.695,158.226,69.646L158.226,69.646z"/>
<path fill="#494948" d="M279.174,84.39l0.271,0.126c8.225,3.908,13.512,11.094,13.512,19.518c0,12.863-12.736,22.757-28.275,22.757
	c-10.438,0-19.318-3.995-25.605-12.338l12.713-7.386c2.9,4.824,7.154,7.145,12.891,7.145c7.742,0,13.412-4.852,13.412-10.178
	c0-3.894-2.912-6.942-8.027-9.33l-1.061-0.473c-0.182-0.078-0.594-0.264-0.594-0.264l-9.396-4.186
	c-11.426-4.503-16.475-10.542-16.475-19.63c0-11.086,10.893-19.537,24.156-19.537c9.391,0,17.303,3.771,22.531,11.594l-13.025,7.568
	c-1.656-4.354-4.564-6.592-9.506-6.592c-5.471,0-9.301,3.414-9.301,6.966c0,2.751,0.646,4.451,4.773,6.736l15.936,7.032
	C278.465,84.069,278.82,84.227,279.174,84.39L279.174,84.39z"/>
</svg>
