<?xml version="1.0" encoding="utf-8"?>
<svg version="1.1" id="Ebene_1" xmlns="http://www.w3.org/2000/svg" xmlns:xlink="http://www.w3.org/1999/xlink" x="0px" y="0px"
	 viewBox="-309 174 222.6 247.3" style="enable-background:new -309 174 222.6 247.3;" xml:space="preserve">
<style type="text/css">
	.st0{fill:#FFFFFF;}
	.st1{fill:#E2241B;}
</style>
<g>
	<g>
		<g>
			<path class="st0" d="M-297.6,421.3h-3.3v-10.3c0-2.7-0.8-3.2-2.8-3.2h-1.9v13.6h-3.3V392h5.7c3.6,0,5.5,2,5.5,5.9v4
				c0,2.1-1,3.4-2.6,4c1.5,0.5,2.8,1.9,2.8,4.7C-297.6,410.5-297.6,421.3-297.6,421.3z M-301.1,398.4c0-2.1-0.5-3.1-2.9-3.1h-1.7
				v9.4h1.7c2,0,2.9-0.9,2.9-3.2L-301.1,398.4L-301.1,398.4z"/>
			<path class="st0" d="M-285.5,421.3h-9.7V392h9.7v3.3h-6.4v9.3h3.7v3.3h-3.7V418h6.4V421.3z"/>
			<path class="st0" d="M-272,415.5c0,3.2-2.2,5.7-5.7,5.7h-5.7V392h5.7c3.5,0,5.7,2.5,5.7,5.7L-272,415.5L-272,415.5z
				 M-275.3,397.7c0-1.5-1-2.4-2.4-2.4h-2.4V418h2.4c1.4,0,2.4-1.1,2.4-2.4V397.7z"/>
			<path class="st0" d="M-251.2,403.2c0,3.2-1.7,6-5.5,6h-2.6v12.1h-3.3V392h5.9c3.6,0,5.5,2.3,5.5,5.9
				C-251.2,397.8-251.2,403.2-251.2,403.2z M-254.5,398.4c0-2.3-0.8-3.1-2.8-3.1h-1.9v10.6h1.9c1.8,0,2.8-0.8,2.8-3.2V398.4z"/>
			<path class="st0" d="M-246.1,421.3h-3.3V392h3.3V421.3z"/>
			<path class="st0" d="M-232.1,421.3h-2.9l-5.4-17.9v17.9h-3.1V392h3.3l5,18.1V392h3.1L-232.1,421.3L-232.1,421.3z"/>
			<path class="st0" d="M-219.9,421.3h-9.7V392h9.7v3.3h-6.4v9.3h3.7v3.3h-3.7V418h6.4V421.3z"/>
			<path class="st0" d="M-206.3,421.3h-3.3l-0.5-3.6h-4.2l-0.4,3.6h-3.5l4.5-29.3h3L-206.3,421.3z M-210.5,414.6l-1.7-12.8
				l-1.7,12.8H-210.5z"/>
			<path class="st0" d="M-192.9,403.2c0,3.2-1.7,6-5.5,6h-2.6v12.1h-3.3V392h5.9c3.6,0,5.5,2.3,5.5,5.9V403.2z M-196.2,398.4
				c0-2.3-0.8-3.1-2.8-3.1h-1.9v10.6h1.9c1.8,0,2.8-0.8,2.8-3.2V398.4z"/>
			<path class="st0" d="M-179.7,403.2c0,3.2-1.7,6-5.5,6h-2.6v12.1h-3.3V392h5.9c3.6,0,5.5,2.3,5.5,5.9V403.2z M-183,398.4
				c0-2.3-0.8-3.1-2.8-3.1h-1.9v10.6h1.9c1.8,0,2.8-0.8,2.8-3.2V398.4z"/>
			<path class="st0" d="M-168.9,421.3h-8.9V392h3.3v26h5.7V421.3z"/>
			<path class="st0" d="M-157.5,421.3h-9.7V392h9.7v3.3h-6.4v9.3h3.7v3.3h-3.7V418h6.4V421.3z"/>
			<path class="st0" d="M-131.9,421.3h-3v-16.5l-3.9,16.5h-2.8l-3.8-16.5v16.5h-3.1V392h4l4.5,21.7l4.8-21.7h3.3L-131.9,421.3
				L-131.9,421.3z"/>
			<path class="st0" d="M-119.7,421.3h-9.7V392h9.7v3.3h-6.4v9.3h3.7v3.3h-3.7V418h6.4V421.3z"/>
			<path class="st0" d="M-106.2,415.5c0,3.2-2.2,5.7-5.7,5.7h-5.7V392h5.7c3.5,0,5.7,2.5,5.7,5.7V415.5z M-109.5,397.7
				c0-1.5-1-2.4-2.4-2.4h-2.4V418h2.4c1.3,0,2.4-1.1,2.4-2.4V397.7z"/>
			<path class="st0" d="M-100.4,421.3h-3.3V392h3.3V421.3z"/>
			<path class="st0" d="M-86.4,421.3h-3.3l-0.5-3.6h-4.2l-0.4,3.6h-3.5l4.5-29.3h3L-86.4,421.3z M-90.6,414.6l-1.7-12.8l-1.7,12.8
				H-90.6z"/>
		</g>
	</g>
	<g>
		<g>
			<path class="st1" d="M-164.9,271.3c3.9,6.1,6.1,16.4,6.3,22.2c0.4,10.8-0.7,27.4-5.1,37c-3.4,7.5-9.7,12.1-13.7,13.3
				c-4,1.2-11.9,1.2-11.9,1.2l2.3,3.1l-6.4-3.1l-3.7,4.5l-3.1-4.1l-7.8,2.3l1.8-3.1c0,0-8,0-11.9-1.2c-4-1.2-10.3-5.9-13.7-13.3
				c-4.4-9.6-5.3-26.6-5.1-37.4c0.1-6.3,2.9-16.4,6.3-21.8c6.9-11,18.7-12.1,18.7-12.1s-11-19-32-21.1c10.8-12.3,33-3.8,33-3.8
				s-13.3-20-27.4-29.3c13.7-6.5,33.7,8.1,33.7,8.1s7.4-17.8,6.8-38.9c13.4,13.9,11.1,33.3,11.1,33.3s14.2-6.7,29.9-4.4
				c-4.2,4.4-22.5,11.5-28.2,27.9c0,0,30.6-7.1,32.9,5.5c-27,3.1-31.7,22.6-31.7,22.6S-171.9,260.4-164.9,271.3"/>
		</g>
	</g>
</g>
</svg>
