<?xml version="1.0" encoding="utf-8"?>
<!-- Generator: Adobe Illustrator 21.0.2, SVG Export Plug-In . SVG Version: 6.00 Build 0)  -->
<svg version="1.1" id="Layer_1" xmlns="http://www.w3.org/2000/svg" xmlns:xlink="http://www.w3.org/1999/xlink" x="0px" y="0px"
	 viewBox="0 0 197.425 250" style="enable-background:new 0 0 197.425 250;" xml:space="preserve">
<style type="text/css">
	.st0{fill:#4285F4;}
	.st1{fill:#EA4335;}
	.st2{fill:#FBBC05;}
	.st3{fill:#34A853;}
	.st4{fill:#0177B5;}
	.st5{fill:#FFFFFF;}
	.st6{fill-rule:evenodd;clip-rule:evenodd;fill:url(#SVGID_1_);}
	.st7{fill:#E2D8FF;}
	.st8{fill-rule:evenodd;clip-rule:evenodd;fill:#9F7FFF;}
	.st9{fill-rule:evenodd;clip-rule:evenodd;fill:#231F20;}
	.st10{fill-rule:evenodd;clip-rule:evenodd;fill:#FFFFFF;}
	.st11{fill:#A7A9AC;}
	.st12{fill:#ED1C27;}
	.st13{fill:#231F20;}
	.st14{fill:#00B6E2;}
	.st15{fill:#365EBE;}
	.st16{fill:#505050;}
	.st17{fill:#EA9740;}
	.st18{fill:#5D6265;}
	.st19{fill:#8CC53F;}
	.st20{fill:#0071C5;}
	.st21{fill:#EC1C24;}
	.st22{fill:#0E9D57;}
	.st23{opacity:0.7;fill:#0A7641;}
	.st24{opacity:0.5;fill:#7DC9A7;}
	.st25{fill:#E7F5EF;}
	.st26{opacity:0.5;}
	.st27{fill:url(#SVGID_2_);}
	.st28{fill:#0797DC;}
	.st29{fill:#0E91D6;}
	.st30{fill:#0DADEA;}
	.st31{fill:#00ADEF;}
	.st32{fill:#019FDE;}
	.st33{fill:#637077;}
	.st34{fill:#FDFDFD;}
	.st35{fill:none;}
	.st36{fill:url(#SVGID_3_);}
	.st37{fill:url(#SVGID_4_);}
	.st38{fill:url(#SVGID_5_);}
	.st39{fill:none;stroke:#FFFFFF;stroke-width:0;stroke-linecap:round;stroke-linejoin:round;}
	.st40{fill:#00A9E4;}
	.st41{fill:#2D5379;}
	.st42{fill:#2B5378;}
	.st43{fill:#D5D6D8;}
	.st44{fill:#EEEFEF;}
	.st45{fill:none;stroke:#000000;stroke-width:0;stroke-linecap:round;stroke-linejoin:round;}
	.st46{fill:url(#SVGID_6_);}
	.st47{fill:url(#SVGID_7_);}
	.st48{fill:url(#SVGID_8_);}
	.st49{fill:url(#SVGID_9_);}
	.st50{fill:url(#SVGID_10_);}
	.st51{fill:#676767;}
	.st52{fill:#EA2230;}
	.st53{fill:#518FF5;}
	.st54{fill:#A5C5FA;}
	.st55{fill:#4078D6;}
</style>
<g>
	<g>
		<path class="st22" d="M175.606,250H21.819C9.769,250,0,240.231,0,228.181V21.819C0,9.769,9.769,0,21.819,0h104.495l71.111,68.771
			v159.41C197.425,240.231,187.657,250,175.606,250z"/>
		<polygon class="st23" points="139.406,68.771 197.425,68.771 197.425,139.882 		"/>
		<path class="st24" d="M126.315,0v53.89c0,8.219,6.663,14.882,14.882,14.882h56.229L126.315,0z"/>
	</g>
	<path class="st25" d="M34.854,118.146v91.227h127.718v-91.227H34.854z M79.765,199.782H44.21v-17.31h35.555V199.782z
		 M79.765,172.414H44.21v-17.31h35.555V172.414z M79.765,145.28H44.21v-17.31h35.555V145.28z M154.166,199.782H90.058v-17.31h64.108
		V199.782z M154.166,172.414H90.058v-17.31h64.108V172.414z M154.166,145.28H90.058v-17.31h64.108V145.28z"/>
</g>
</svg>
