<svg xmlns="http://www.w3.org/2000/svg" xmlns:xlink= "http://www.w3.org/1999/xlink" viewBox="0 0 100 26"><g id="singular-flat-logo-white" stroke="none" stroke-width="1" fill="none" fill-rule="evenodd"><g transform="translate(0.000000, 3.000000)" fill="#3a92e5"><path d="M13.42,4.18 C14.6455799,5.93842477 15.2890851,8.03681129 15.26,10.18 C15.26,10.2186599 15.2913401,10.25 15.33,10.25 C15.3686599,10.25 15.4,10.2186599 15.4,10.18 C15.57,9.9 15.71,9.62 15.85,9.33 C16.8556981,7.11798911 16.9242252,4.59330881 16.04,2.33 C14.0425186,0.728013287 11.4799657,0.00616738923 8.94,0.33 C8.86,0.33 8.84,0.45 8.94,0.48 C10.7666228,1.24274681 12.3257841,2.53044702 13.42,4.18 Z" id="Path"/><path d="M16.85,9.81 C15.9361442,11.8566627 14.3717529,13.544096 12.4,14.61 C12.3686447,14.6216386 12.3478388,14.6515544 12.3478388,14.685 C12.3478388,14.7184456 12.3686447,14.7483614 12.4,14.76 C12.8720698,14.7581601 13.3433564,14.721393 13.81,14.65 C16.0650831,14.2871061 18.111807,13.1180571 19.57,11.36 C19.9616636,8.80810513 19.2933246,6.20700209 17.72,4.16 C17.6971918,4.13378818 17.6600719,4.12529571 17.6281355,4.13898276 C17.596199,4.15266981 17.5767488,4.18540661 17.58,4.22 C17.8716061,6.11485818 17.6184288,8.05357214 16.85,9.81 Z" id="Path"/><path d="M7,4.14 C9.03956931,4.00097407 11.0714322,4.50456832 12.81,5.58 C12.8394414,5.59437594 12.8746727,5.58934677 12.8989159,5.56730748 C12.9231591,5.5452682 12.9315133,5.51067422 12.92,5.48 C12.79,5.25 12.65,5.02 12.5,4.8 C11.1169871,2.77583369 8.9681012,1.403436 6.55,1 C4.16245155,1.94957681 2.25399736,3.81482072 1.25,6.18 C1.2404977,6.21206738 1.25194678,6.24666156 1.27870329,6.26672894 C1.3054598,6.28679633 1.34187596,6.28810108 1.37,6.27 C3.00084436,5.02985415 4.95668291,4.28990103 7,4.14 Z" id="Path"/><path d="M14,15.73 C13.4771033,15.8097013 12.9489359,15.8498153 12.42,15.85 C10.5458448,15.8439265 8.71298436,15.2989283 7.14,14.28 C7.11055861,14.2656241 7.07532732,14.2706532 7.05108411,14.2926925 C7.02684089,14.3147318 7.0184867,14.3493258 7.03,14.38 C7.20550736,14.6965394 7.40264198,15.0005945 7.62,15.29 C9.08555378,17.2208415 11.2305168,18.5221191 13.62,18.93 C16.0421818,17.9946489 17.9827957,16.1189625 19,13.73 C19.0095023,13.6979326 18.9980532,13.6633384 18.9712967,13.6432711 C18.9445402,13.6232037 18.908124,13.6218989 18.88,13.64 C17.4532042,14.7329397 15.7755742,15.4514328 14,15.73 Z" id="Path"/><path d="M6.79,16 C5.46056024,14.2252868 4.78575894,12.0454313 4.88,9.83 C4.86591049,9.80453473 4.83910316,9.78872983 4.81,9.78872983 C4.78089684,9.78872983 4.75408951,9.80453473 4.74,9.83 C4.6,10.06 4.47,10.3 4.35,10.54 C3.34472823,12.7497225 3.26195019,15.2690541 4.12,17.54 C6.14746221,19.1670207 8.75410387,19.8900836 11.33,19.54 C11.3613553,19.5283614 11.3821612,19.4984456 11.3821612,19.465 C11.3821612,19.4315544 11.3613553,19.4016386 11.33,19.39 C9.53561229,18.6955697 7.96554417,17.523206 6.79,16 Z" id="Path"/><path d="M3.26,10.06 C4.14064696,8.0244902 5.69891227,6.35668697 7.67,5.34 C7.70135529,5.32836141 7.72216118,5.29844564 7.72216118,5.265 C7.72216118,5.23155436 7.70135529,5.20163859 7.67,5.19 C7.4,5.19 7.13,5.19 6.86,5.19 C4.43109914,5.41230984 2.19343596,6.60140621 0.65,8.49 C0.240018872,11.0569872 0.897573532,13.67998 2.47,15.75 C2.49280819,15.7762118 2.52992807,15.7847043 2.56186453,15.7710172 C2.59380099,15.7573302 2.61325118,15.7245934 2.61,15.69 C2.31217024,13.7891115 2.53685294,11.8430137 3.26,10.06 Z" id="Path"/><path d="M59.45,5.93 C59.45,5.62 59.45,5.3 59.45,4.99 C59.45,4.68 59.51,4.76 59.69,4.76 L61.57,4.76 C61.76,4.76 61.82,4.76 61.82,5 C61.82,5.75 61.82,6.49 61.82,7.23 L61.82,14.15 C61.8603365,15.3874548 61.4834835,16.6025415 60.75,17.6 C59.9827303,18.5947602 58.8752972,19.271327 57.64,19.5 C55.4806472,19.9596197 53.2272411,19.5190499 51.4,18.28 L51.25,18.16 L52.25,16.27 L52.52,16.44 C53.6833713,17.1987574 55.0654604,17.550434 56.45,17.44 C57.5844866,17.4121387 58.6061485,16.7465105 59.09,15.72 C59.3326214,15.135489 59.4221099,14.4987435 59.35,13.87 C59.35,13.87 59.25,13.87 59.23,13.94 C58.4069301,14.7848396 57.2691425,15.2486511 56.09,15.22 C54.1428665,15.3185405 52.3160336,14.2763089 51.41,12.55 C50.1720636,10.2677391 50.6784954,7.43255114 52.63,5.72 C54.0759565,4.46418828 56.1035838,4.12431932 57.88,4.84 C58.3749016,5.04029608 58.821473,5.3436919 59.19,5.73 C59.25,5.79 59.31,5.87 59.36,5.93 L59.45,5.93 Z M53.33,9.93 C53.33,11.6199913 54.7000087,12.99 56.39,12.99 C58.0799913,12.99 59.45,11.6199913 59.45,9.93 C59.45,8.24000867 58.0799913,6.87 56.39,6.87 C54.7000087,6.87 53.33,8.24000867 53.33,9.93 Z" id="Shape" fill-rule="nonzero"/><path d="M90.89,15.23 L88.51,15.23 L88.51,14 C88.3,14.19 88.15,14.33 87.99,14.46 C86.9917556,15.3070084 85.6717794,15.6726527 84.38,15.46 C82.8945466,15.2903125 81.5683451,14.4503849 80.78,13.18 C80.0416004,12.0187038 79.7370257,10.6339513 79.92,9.27 C80.00224,8.28980896 80.347744,7.35003811 80.92,6.55 C82.4167209,4.54686597 85.163129,3.95743468 87.35,5.17 C87.73,5.42 88.08,5.73 88.48,6.04 L88.48,5.45 C88.48,4.76 88.48,4.76 89.17,4.76 L90.65,4.76 C90.81,4.76 90.88,4.76 90.88,4.97 C90.88,8.35 90.88,11.7233333 90.88,15.09 C90.8876446,15.1362583 90.8909922,15.1831248 90.89,15.23 Z M88.58,10 C88.5594406,9.73467391 88.5227056,9.47085005 88.47,9.21 C88.2305181,8.15983168 87.4598252,7.31106695 86.4375635,6.97167607 C85.4153019,6.6322852 84.290012,6.85158364 83.47,7.55 C82.6398358,8.30947953 82.2615563,9.44431783 82.47,10.55 C82.6249473,12.0472137 83.8653809,13.1978228 85.37,13.24 C86.2359362,13.2716577 87.0755979,12.9394431 87.6854599,12.3238815 C88.2953218,11.7083199 88.6197114,10.8656042 88.58,10 Z" id="Shape" fill-rule="nonzero"/><path d="M48.76,15.23 L46.22,15.23 L46.22,9.61 C46.2473461,9.09379544 46.1725855,8.5772671 46,8.09 C45.6667317,7.41498963 45.0302523,6.9404987 44.2881826,6.81385214 C43.5461129,6.68720558 42.788286,6.9237349 42.25,7.45 C41.7219289,7.95253103 41.4251502,8.65104662 41.43,9.38 C41.43,11.23 41.43,13.08 41.43,14.93 L41.43,15.23 L38.93,15.23 C38.9250545,15.1434039 38.9250545,15.0565961 38.93,14.97 L38.93,5.05 C38.93,4.83 38.93,4.75 39.21,4.76 L41.21,4.76 C41.4,4.76 41.46,4.82 41.45,5.01 C41.45,5.38 41.45,5.75 41.45,6.16 C41.45,6.11 41.53,6.1 41.54,6.07 C42.1834877,5.12153676 43.244267,4.54089966 44.39,4.51 C45.531239,4.37202403 46.6766754,4.73171426 47.5341676,5.49733228 C48.3916598,6.26295031 48.8783104,7.36048065 48.87,8.51 C48.87,10.31 48.87,12.12 48.87,13.93 L48.76,15.23 Z" id="Path"/><path d="M73.34,4.76 L73.34,10.76 C73.3706153,11.6761757 73.1566109,12.5839689 72.72,13.39 C72.1435958,14.3899318 71.1558227,15.0850314 70.02,15.29 C68.6760594,15.6277508 67.2553031,15.4679157 66.02,14.84 C64.8509374,14.2141419 64.0763215,13.0409371 63.96,11.72 C63.9018088,11.2724857 63.8784053,10.8211329 63.89,10.37 C63.89,8.58 63.89,6.8 63.89,5.02 C63.89,4.76 63.97,4.71 64.2,4.72 L66.2,4.72 C66.42,4.72 66.48,4.72 66.48,4.99 C66.48,6.91 66.48,8.83 66.48,10.75 C66.4626865,11.2441684 66.5765458,11.7341086 66.81,12.17 C67.2804971,12.9316638 68.168831,13.3282414 69.05,13.17 C70.1019635,13.0021451 70.85477,12.0633002 70.79,11 C70.79,9.81 70.79,8.61 70.79,7.42 C70.79,6.61 70.79,5.79 70.79,4.98 C70.79,4.9 70.87,4.75 70.92,4.75 L73.34,4.76 Z" id="Path"/><path d="M32,6 L30.69,7.58 L30.47,7.38 C29.835556,6.77175229 28.9776646,6.45321032 28.1,6.5 C27.6534189,6.51164934 27.2582352,6.79222974 27.1,7.21 C26.978623,7.54998734 27.0968911,7.92926095 27.39,8.14 C27.6163496,8.30222469 27.8614562,8.43652971 28.12,8.54 C28.98,8.92 29.86,9.23 30.69,9.65 C31.7004689,10.0954324 32.3324624,11.1169565 32.28,12.22 C32.3080446,13.4027854 31.6383112,14.4915918 30.57,15 C28.3623983,16.1089987 25.6822892,15.5589146 24.09,13.67 C23.97,13.52 23.98,13.44 24.09,13.3 C24.52,12.86 24.93,12.4 25.34,11.97 C25.63,12.23 25.88,12.5 26.18,12.72 C26.8841261,13.2950777 27.8080874,13.5260681 28.7,13.35 C28.9446299,13.2952892 29.1736926,13.1858861 29.37,13.03 C29.6088689,12.8727729 29.7526671,12.6059698 29.7526671,12.32 C29.7526671,12.0340302 29.6088689,11.7672271 29.37,11.61 C29.0595299,11.390546 28.7237839,11.2092431 28.37,11.07 C27.63,10.74 26.87,10.48 26.15,10.07 C25.1532398,9.61443474 24.537907,8.59417322 24.6,7.5 C24.5752273,6.41240511 25.1893701,5.41100035 26.17,4.94 C28.0442201,4.0034659 30.3035805,4.33478554 31.83,5.77 L32,6 Z" id="Path"/><path d="M77.85,15.23 L75.35,15.23 L75.35,0.35 L75.58,0.35 L77.58,0.35 C77.76,0.35 77.84,0.35 77.84,0.59 C77.84,5.33 77.84,10.31 77.84,15.05 C77.86,15.08 77.85,15.14 77.85,15.23 Z" id="Path"/><path d="M99.29,7.08 C98.9599339,7.00794002 98.6260722,6.95452214 98.29,6.92 C97.6246451,6.84472905 96.9572405,7.04281637 96.4406834,7.46888169 C95.9241264,7.89494701 95.6026853,8.51247688 95.55,9.18 C95.4981352,9.54775161 95.4714065,9.91861176 95.47,10.29 C95.47,11.82 95.47,13.35 95.47,14.89 L95.47,15.22 L92.92,15.22 L92.92,15 C92.92,11.7 92.92,8.4 92.92,5.1 C92.92,4.85 92.99,4.79 93.23,4.8 L95.33,4.8 L95.33,6.08 L95.39,6.08 C95.39,6.01 95.5,5.94 95.54,5.87 C96.3969528,4.6545939 97.9525841,4.14962459 99.36,4.63 C99.4353066,4.66843888 99.4900879,4.73782858 99.51,4.82 C99.45,5.55 99.38,6.28 99.32,7.01 L99.29,7.08 Z" id="Path"/><path d="M36.81,15.23 L34.3,15.23 C34.3,15.14 34.3,15.05 34.3,14.97 C34.3,11.6366667 34.3,8.33 34.3,5.05 C34.3,4.83 34.3,4.75 34.58,4.76 L36.58,4.76 C36.76,4.76 36.84,4.76 36.84,5 C36.84,8.35 36.84,11.69 36.84,15 C36.8366666,15.0773897 36.826629,15.1543445 36.81,15.23 Z" id="Path"/><path d="M37.16,1.92 C37.1762678,2.57457898 36.7944861,3.1738077 36.1943418,3.43565702 C35.5941974,3.69750634 34.895251,3.56981077 34.426464,3.11267068 C33.957677,2.65553059 33.8124411,1.96001722 34.059112,1.3534764 C34.3057829,0.746935592 34.8952189,0.350202116 35.55,0.35 C35.9732765,0.339212362 36.3829659,0.499847937 36.6861068,0.795457387 C36.9892477,1.09106684 37.1601374,1.4965861 37.16,1.92 Z" id="Path"/></g></g></svg>