<svg id="svg" version="1.1" xmlns="http://www.w3.org/2000/svg" xmlns:xlink="http://www.w3.org/1999/xlink" width="400" height="400" viewBox="0, 0, 400,400"><g id="svgg"><path id="path0" d="M178.094 40.200 C 178.152 62.311,178.140 80.219,178.066 79.998 C 177.992 79.776,177.800 79.676,177.639 79.776 C 177.478 79.875,174.841 77.447,171.778 74.378 C 168.716 71.310,166.467 68.800,166.781 68.800 C 167.178 68.800,167.090 68.557,166.492 68.000 C 166.020 67.560,165.446 67.200,165.217 67.200 C 164.988 67.200,164.800 67.009,164.800 66.776 C 164.800 66.543,165.025 66.476,165.300 66.628 C 165.575 66.779,157.521 58.599,147.402 48.451 C 137.283 38.303,128.914 30.000,128.805 30.000 C 128.696 30.000,132.294 33.690,136.800 38.200 C 141.306 42.710,144.844 46.400,144.662 46.400 C 144.028 46.400,117.130 19.790,116.561 18.600 C 116.246 17.940,116.069 17.699,116.168 18.065 C 116.320 18.625,116.164 18.676,115.174 18.393 C 114.268 18.133,114.000 18.186,114.000 18.625 C 114.000 18.938,111.044 22.150,107.432 25.762 C 103.819 29.375,100.969 32.436,101.099 32.565 C 101.228 32.694,101.023 32.800,100.643 32.800 C 100.263 32.800,100.064 32.980,100.200 33.200 C 100.336 33.420,100.172 33.600,99.836 33.600 C 99.500 33.600,99.313 33.828,99.420 34.108 C 99.527 34.387,98.720 35.497,97.625 36.575 C 96.531 37.653,95.731 38.689,95.848 38.877 C 95.964 39.066,95.821 39.170,95.530 39.110 C 95.238 39.049,95.045 39.225,95.100 39.500 C 95.155 39.775,94.975 39.955,94.700 39.900 C 94.425 39.845,94.245 40.025,94.300 40.300 C 94.355 40.575,94.175 40.755,93.900 40.700 C 93.625 40.645,93.449 40.838,93.510 41.130 C 93.570 41.421,93.456 41.558,93.255 41.434 C 93.055 41.310,92.645 41.511,92.345 41.881 C 91.970 42.344,91.956 42.460,92.300 42.253 C 93.146 41.745,92.855 42.674,91.759 43.976 C 90.732 45.197,90.086 49.200,90.916 49.200 C 91.098 49.200,91.119 49.408,90.962 49.662 C 90.796 49.930,90.851 50.016,91.093 49.866 C 91.322 49.725,91.755 49.911,92.055 50.281 C 92.430 50.744,92.444 50.860,92.100 50.653 C 91.077 50.039,91.662 50.844,93.764 52.947 C 95.446 54.629,95.825 55.223,95.464 55.615 C 95.102 56.007,95.150 56.065,95.680 55.879 C 96.186 55.701,96.296 55.806,96.110 56.290 C 95.918 56.790,96.027 56.875,96.587 56.660 C 97.165 56.438,97.222 56.492,96.864 56.923 C 96.256 57.655,98.391 59.807,99.121 59.199 C 99.471 58.907,99.491 58.931,99.193 59.287 C 98.894 59.645,103.523 64.516,116.693 77.700 C 131.296 92.319,134.489 95.704,134.000 96.051 C 133.479 96.420,133.484 96.449,134.038 96.274 C 134.478 96.135,139.754 101.151,151.036 112.436 C 160.034 121.436,167.138 128.800,166.823 128.800 C 166.420 128.800,166.504 129.038,167.108 129.600 C 167.580 130.040,168.154 130.400,168.383 130.400 C 168.612 130.400,168.800 130.591,168.800 130.824 C 168.800 131.057,168.575 131.125,168.300 130.976 C 168.025 130.827,170.003 132.932,172.695 135.653 C 175.387 138.374,177.709 140.732,177.855 140.893 C 178.001 141.055,178.084 143.425,178.039 146.162 C 177.979 149.883,178.090 151.220,178.479 151.468 C 179.073 151.847,179.268 176.800,178.676 176.800 C 178.498 176.800,178.464 176.980,178.600 177.200 C 178.736 177.420,178.646 177.600,178.400 177.600 C 178.154 177.600,178.037 177.735,178.140 177.900 C 178.242 178.065,176.903 178.141,175.163 178.070 C 172.993 177.980,172.000 178.082,172.000 178.393 C 172.000 178.643,171.820 178.736,171.600 178.600 C 171.380 178.464,171.200 178.498,171.200 178.676 C 171.200 178.854,167.240 179.000,162.400 179.000 C 155.409 179.000,153.600 178.892,153.600 178.476 C 153.600 178.061,152.474 177.987,148.212 178.119 C 145.248 178.211,142.919 178.132,143.035 177.943 C 143.152 177.754,142.763 177.600,142.171 177.600 C 141.566 177.600,140.766 177.222,140.347 176.739 C 139.645 175.929,139.598 175.923,139.568 176.639 C 139.545 177.205,139.480 177.247,139.315 176.800 C 139.029 176.024,128.346 165.200,127.866 165.200 C 127.666 165.200,127.726 165.470,128.000 165.800 C 128.274 166.130,128.353 166.400,128.175 166.400 C 127.997 166.400,122.122 160.688,115.118 153.706 C 108.114 146.724,102.073 140.891,101.692 140.743 C 101.311 140.596,100.115 139.566,99.033 138.455 C 97.951 137.345,96.916 136.528,96.733 136.642 C 96.550 136.755,96.400 136.556,96.400 136.200 C 96.400 135.844,96.220 135.664,96.000 135.800 C 95.780 135.936,95.600 135.756,95.600 135.400 C 95.600 135.044,95.420 134.864,95.200 135.000 C 94.980 135.136,94.800 134.956,94.800 134.600 C 94.800 134.244,94.620 134.064,94.400 134.200 C 94.180 134.336,94.000 134.156,94.000 133.800 C 94.000 133.444,93.834 133.256,93.630 133.381 C 93.427 133.507,93.178 133.293,93.077 132.905 C 92.913 132.278,92.888 132.284,92.846 132.962 C 92.802 133.696,92.770 133.697,92.009 133.009 C 91.575 132.615,91.318 132.133,91.439 131.937 C 91.560 131.741,91.421 131.630,91.130 131.690 C 90.838 131.751,90.645 131.575,90.700 131.300 C 90.755 131.025,90.575 130.845,90.300 130.900 C 90.025 130.955,89.845 130.775,89.900 130.500 C 89.955 130.225,89.775 130.045,89.500 130.100 C 89.225 130.155,89.060 129.930,89.133 129.600 C 89.207 129.270,89.133 129.133,88.970 129.297 C 88.807 129.460,88.432 129.393,88.137 129.148 C 87.040 128.237,87.652 129.189,89.200 130.800 L 90.800 132.465 90.800 200.000 L 90.800 267.535 89.200 269.200 C 87.652 270.811,87.040 271.763,88.137 270.852 C 88.432 270.607,88.807 270.540,88.970 270.703 C 89.133 270.867,89.207 270.730,89.133 270.400 C 89.060 270.070,89.225 269.845,89.500 269.900 C 89.775 269.955,89.955 269.775,89.900 269.500 C 89.845 269.225,90.025 269.045,90.300 269.100 C 90.575 269.155,90.755 268.975,90.700 268.700 C 90.645 268.425,90.838 268.249,91.130 268.310 C 91.421 268.370,91.560 268.259,91.439 268.063 C 91.318 267.867,91.559 267.399,91.974 267.023 C 92.688 266.377,92.740 266.380,92.918 267.070 C 93.099 267.767,93.109 267.768,93.154 267.076 C 93.179 266.678,93.380 266.464,93.600 266.600 C 93.820 266.736,94.000 266.556,94.000 266.200 C 94.000 265.844,94.180 265.664,94.400 265.800 C 94.620 265.936,94.800 265.756,94.800 265.400 C 94.800 265.044,94.980 264.864,95.200 265.000 C 95.420 265.136,95.600 264.956,95.600 264.600 C 95.600 264.244,95.780 264.064,96.000 264.200 C 96.220 264.336,96.400 264.156,96.400 263.800 C 96.400 263.444,96.550 263.245,96.733 263.358 C 96.916 263.472,97.951 262.655,99.033 261.545 C 100.115 260.434,101.290 259.407,101.644 259.263 C 101.999 259.118,110.684 250.714,120.944 240.586 C 131.205 230.459,139.600 222.357,139.600 222.581 C 139.600 222.806,137.125 225.512,134.100 228.595 L 128.600 234.200 134.305 228.601 C 137.442 225.521,140.109 222.687,140.231 222.301 C 140.429 221.678,140.924 221.618,144.727 221.760 C 147.077 221.848,155.688 221.937,163.863 221.960 L 178.726 222.000 178.863 224.251 C 178.957 225.791,178.842 226.563,178.500 226.694 C 177.841 226.946,177.766 248.000,178.424 248.000 C 178.657 248.000,178.736 248.180,178.600 248.400 C 178.464 248.620,178.498 248.800,178.676 248.799 C 179.123 248.798,179.087 255.337,178.639 255.661 C 178.440 255.805,178.213 256.516,178.134 257.241 C 178.054 257.966,177.857 258.659,177.695 258.780 C 177.533 258.901,177.382 259.225,177.360 259.500 C 177.271 260.618,177.181 260.796,176.753 260.700 C 176.507 260.645,176.255 260.905,176.192 261.277 C 176.068 262.013,174.800 263.989,174.800 263.447 C 174.800 263.264,174.305 263.634,173.700 264.268 C 173.095 264.903,172.060 265.850,171.400 266.373 C 170.605 267.003,170.470 267.231,171.000 267.046 C 171.440 266.892,163.447 275.127,153.238 285.347 C 140.419 298.179,134.479 303.865,134.038 303.726 C 133.483 303.551,133.478 303.580,134.000 303.949 C 134.489 304.296,131.296 307.681,116.693 322.300 C 101.718 337.291,98.869 340.319,99.293 340.794 C 99.719 341.271,99.699 341.286,99.168 340.888 C 98.279 340.222,96.127 342.365,96.901 343.145 C 97.301 343.547,97.247 343.589,96.631 343.354 C 96.026 343.124,95.915 343.200,96.110 343.710 C 96.296 344.194,96.186 344.299,95.680 344.121 C 95.150 343.935,95.102 343.993,95.464 344.385 C 95.825 344.777,95.446 345.371,93.764 347.053 C 91.662 349.156,91.077 349.961,92.100 349.347 C 92.444 349.140,92.430 349.256,92.055 349.719 C 91.755 350.089,91.382 350.312,91.225 350.216 C 91.069 350.119,90.899 350.972,90.847 352.111 C 90.795 353.249,90.677 354.256,90.585 354.348 C 90.493 354.440,90.954 355.125,91.609 355.871 C 92.822 357.253,93.204 358.290,92.300 357.747 C 91.956 357.540,91.970 357.656,92.345 358.119 C 92.645 358.489,93.055 358.690,93.255 358.566 C 93.456 358.442,93.570 358.579,93.510 358.870 C 93.449 359.162,93.625 359.355,93.900 359.300 C 94.175 359.245,94.355 359.425,94.300 359.700 C 94.245 359.975,94.425 360.155,94.700 360.100 C 94.975 360.045,95.155 360.225,95.100 360.500 C 95.045 360.775,95.238 360.951,95.530 360.890 C 95.821 360.830,95.964 360.934,95.848 361.123 C 95.731 361.311,96.531 362.347,97.625 363.425 C 98.720 364.503,99.527 365.613,99.420 365.892 C 99.313 366.172,99.500 366.400,99.836 366.400 C 100.172 366.400,100.336 366.580,100.200 366.800 C 100.064 367.020,100.263 367.200,100.643 367.200 C 101.023 367.200,101.227 367.307,101.096 367.437 C 100.966 367.568,104.224 371.033,108.337 375.137 C 112.450 379.242,115.847 382.780,115.886 383.000 C 115.983 383.542,117.200 383.766,117.200 383.242 C 117.200 383.013,116.885 382.924,116.500 383.045 C 115.922 383.227,115.939 383.153,116.600 382.617 C 117.040 382.261,120.471 378.916,124.225 375.184 C 127.979 371.453,131.354 368.400,131.725 368.400 C 132.096 368.400,132.400 368.122,132.400 367.781 C 132.400 367.133,141.362 358.112,158.165 341.847 C 163.646 336.541,170.530 329.815,173.462 326.900 C 176.394 323.985,178.839 321.600,178.896 321.600 C 178.953 321.600,178.953 339.240,178.896 360.800 L 178.792 400.000 200.396 400.000 L 222.000 400.000 222.000 361.224 C 222.000 335.179,222.135 322.364,222.410 322.194 C 222.635 322.055,222.770 322.179,222.710 322.470 C 222.649 322.762,222.825 322.955,223.100 322.900 C 223.375 322.845,223.555 323.025,223.500 323.300 C 223.445 323.575,223.625 323.755,223.900 323.700 C 224.175 323.645,224.355 323.825,224.300 324.100 C 224.245 324.375,224.425 324.555,224.700 324.500 C 224.975 324.445,225.155 324.625,225.100 324.900 C 225.045 325.175,225.225 325.355,225.500 325.300 C 225.775 325.245,225.955 325.425,225.900 325.700 C 225.845 325.975,226.025 326.155,226.300 326.100 C 226.575 326.045,226.755 326.225,226.700 326.500 C 226.645 326.775,226.825 326.955,227.100 326.900 C 227.375 326.845,227.555 327.025,227.500 327.300 C 227.445 327.575,227.625 327.755,227.900 327.700 C 228.175 327.645,228.355 327.825,228.300 328.100 C 228.245 328.375,228.425 328.555,228.700 328.500 C 228.975 328.445,229.155 328.625,229.100 328.900 C 229.045 329.175,229.225 329.355,229.500 329.300 C 229.775 329.245,229.955 329.425,229.900 329.700 C 229.845 329.975,230.025 330.155,230.300 330.100 C 230.575 330.045,230.755 330.225,230.700 330.500 C 230.645 330.775,230.825 330.955,231.100 330.900 C 231.375 330.845,231.555 331.025,231.500 331.300 C 231.445 331.575,231.625 331.755,231.900 331.700 C 232.175 331.645,232.355 331.825,232.300 332.100 C 232.245 332.375,232.425 332.555,232.700 332.500 C 232.975 332.445,233.155 332.625,233.100 332.900 C 233.045 333.175,233.225 333.355,233.500 333.300 C 233.775 333.245,233.955 333.425,233.900 333.700 C 233.845 333.975,234.025 334.155,234.300 334.100 C 234.575 334.045,234.755 334.225,234.700 334.500 C 234.645 334.775,234.825 334.955,235.100 334.900 C 235.375 334.845,235.555 335.025,235.500 335.300 C 235.445 335.575,235.625 335.755,235.900 335.700 C 236.175 335.645,236.355 335.825,236.300 336.100 C 236.245 336.375,236.425 336.555,236.700 336.500 C 236.975 336.445,237.155 336.625,237.100 336.900 C 237.045 337.175,237.225 337.355,237.500 337.300 C 237.775 337.245,237.955 337.425,237.900 337.700 C 237.845 337.975,238.025 338.155,238.300 338.100 C 238.575 338.045,238.755 338.225,238.700 338.500 C 238.645 338.775,238.825 338.955,239.100 338.900 C 239.375 338.845,239.555 339.025,239.500 339.300 C 239.445 339.575,239.625 339.755,239.900 339.700 C 240.175 339.645,240.355 339.825,240.300 340.100 C 240.245 340.375,240.425 340.555,240.700 340.500 C 240.975 340.445,241.155 340.625,241.100 340.900 C 241.045 341.175,241.238 341.351,241.530 341.290 C 241.821 341.230,241.964 341.334,241.848 341.523 C 241.731 341.711,244.868 345.079,248.818 349.007 C 252.768 352.935,256.000 356.254,256.000 356.382 C 256.000 357.596,283.253 383.675,284.266 383.430 C 285.642 383.097,314.300 354.685,314.655 353.300 C 315.019 351.885,314.530 350.650,313.316 349.920 C 312.702 349.551,291.950 328.989,267.200 304.227 L 222.200 259.205 222.000 255.903 C 221.890 254.086,221.849 245.728,221.909 237.328 L 222.018 222.056 225.709 221.819 C 233.860 221.295,245.714 221.154,246.137 221.577 C 246.383 221.823,248.396 222.000,250.952 222.000 C 255.182 222.000,256.579 222.244,259.600 223.510 C 260.446 223.864,264.804 227.877,270.611 233.648 C 275.896 238.902,280.396 243.221,280.611 243.248 C 281.676 243.377,348.100 311.080,349.046 313.000 C 350.329 315.605,350.914 316.159,352.066 315.866 C 353.382 315.530,383.600 285.185,383.600 284.199 C 383.600 283.704,372.484 272.300,352.908 252.713 L 322.216 222.004 361.008 221.902 L 399.800 221.800 399.903 199.900 L 400.007 178.000 359.904 178.000 L 319.802 178.000 350.459 147.300 C 378.244 119.477,382.000 115.576,382.000 114.539 C 382.000 113.898,352.989 85.200,352.340 85.200 C 351.306 85.200,350.402 85.635,350.380 86.143 C 350.370 86.394,349.651 87.320,348.783 88.200 C 347.916 89.080,347.204 89.891,347.203 90.002 C 347.199 90.292,267.053 170.400,266.766 170.400 C 266.636 170.400,264.968 172.012,263.061 173.983 C 260.513 176.614,259.249 177.628,258.296 177.802 C 255.539 178.306,240.255 178.506,229.317 178.182 L 222.033 177.965 221.873 170.483 C 221.785 166.367,221.577 162.413,221.411 161.696 C 221.222 160.883,221.277 160.189,221.556 159.853 C 221.852 159.496,221.996 156.862,221.980 152.074 C 221.956 144.766,222.085 143.868,223.707 140.066 C 224.060 139.239,241.009 121.975,268.276 94.666 C 312.688 50.188,314.246 48.567,313.816 47.300 C 313.686 46.915,309.448 42.370,304.399 37.200 C 299.351 32.030,295.216 27.708,295.210 27.595 C 295.205 27.482,292.696 24.890,289.636 21.836 C 284.087 16.297,284.069 16.284,282.548 16.531 C 281.171 16.754,278.133 19.669,251.112 46.688 L 221.200 76.598 221.200 38.299 L 221.200 0.000 199.594 0.000 L 177.989 0.000 178.094 40.200 M164.617 66.316 C 164.420 66.514,144.800 46.900,144.800 46.505 C 144.800 46.341,149.293 50.696,154.785 56.185 C 160.276 61.673,164.701 66.232,164.617 66.316 M22.000 110.200 C 19.036 113.170,16.749 115.600,16.916 115.600 C 17.240 115.600,27.600 105.311,27.600 104.989 C 27.600 104.610,27.298 104.891,22.000 110.200 M46.984 148.384 C 63.694 165.095,77.434 178.700,77.517 178.617 C 77.713 178.420,17.295 118.000,16.902 118.000 C 16.737 118.000,30.274 131.673,46.984 148.384 M170.261 132.224 C 170.824 132.788,171.208 133.326,171.113 133.420 C 171.019 133.514,170.426 133.054,169.796 132.396 C 168.402 130.940,168.822 130.785,170.261 132.224 M39.400 221.598 L 0.200 221.802 39.296 222.001 C 70.350 222.159,78.431 222.097,78.583 221.700 C 78.689 221.425,78.736 221.244,78.687 221.297 C 78.639 221.350,60.960 221.486,39.400 221.598 M44.200 312.800 C 46.542 315.167,46.800 315.386,46.800 315.009 C 46.800 314.705,42.413 310.400,42.104 310.400 C 41.950 310.400,42.894 311.480,44.200 312.800 " stroke="none" fill="#1e74d4" fill-rule="evenodd"></path><path id="path1" d="M115.200 17.624 C 115.200 17.857,115.020 17.936,114.800 17.800 C 114.580 17.664,114.400 17.743,114.400 17.976 C 114.400 18.341,115.546 18.598,116.500 18.447 C 116.665 18.421,116.800 18.639,116.800 18.931 C 116.800 19.222,122.683 25.207,129.872 32.231 C 137.062 39.254,147.955 49.995,154.080 56.100 C 160.204 62.205,165.392 67.200,165.607 67.200 C 165.823 67.200,166.000 67.380,166.000 67.600 C 166.000 67.820,166.135 68.002,166.300 68.005 C 166.465 68.008,155.350 56.709,141.600 42.897 C 127.215 28.446,116.475 17.957,116.306 18.192 C 116.137 18.427,116.010 18.303,116.006 17.900 C 116.003 17.515,115.820 17.200,115.600 17.200 C 115.380 17.200,115.200 17.391,115.200 17.624 M99.900 32.036 C 87.814 44.185,86.000 46.165,86.000 47.211 C 86.000 48.406,132.849 96.000,134.025 96.000 C 134.257 96.000,134.336 96.180,134.200 96.400 C 134.064 96.620,134.244 96.800,134.600 96.800 C 134.956 96.800,135.136 96.980,135.000 97.200 C 134.864 97.420,135.044 97.600,135.400 97.600 C 135.756 97.600,135.936 97.780,135.800 98.000 C 135.664 98.220,135.844 98.400,136.200 98.400 C 136.556 98.400,136.736 98.580,136.600 98.800 C 136.464 99.020,136.644 99.200,137.000 99.200 C 137.356 99.200,137.536 99.380,137.400 99.600 C 137.264 99.820,137.444 100.000,137.800 100.000 C 138.156 100.000,138.336 100.180,138.200 100.400 C 138.064 100.620,138.244 100.800,138.600 100.800 C 138.956 100.800,139.136 100.980,139.000 101.200 C 138.864 101.420,139.044 101.600,139.400 101.600 C 139.756 101.600,139.936 101.780,139.800 102.000 C 139.664 102.220,139.844 102.400,140.200 102.400 C 140.556 102.400,140.736 102.580,140.600 102.800 C 140.464 103.020,140.644 103.200,141.000 103.200 C 141.356 103.200,141.536 103.380,141.400 103.600 C 141.264 103.820,141.444 104.000,141.800 104.000 C 142.156 104.000,142.336 104.180,142.200 104.400 C 142.064 104.620,142.244 104.800,142.600 104.800 C 142.956 104.800,143.136 104.980,143.000 105.200 C 142.864 105.420,143.044 105.600,143.400 105.600 C 143.756 105.600,143.936 105.780,143.800 106.000 C 143.664 106.220,143.844 106.400,144.200 106.400 C 144.556 106.400,144.736 106.580,144.600 106.800 C 144.464 107.020,144.644 107.200,145.000 107.200 C 145.356 107.200,145.536 107.380,145.400 107.600 C 145.264 107.820,145.444 108.000,145.800 108.000 C 146.156 108.000,146.336 108.180,146.200 108.400 C 146.064 108.620,146.244 108.800,146.600 108.800 C 146.956 108.800,147.136 108.980,147.000 109.200 C 146.864 109.420,147.044 109.600,147.400 109.600 C 147.756 109.600,147.936 109.780,147.800 110.000 C 147.664 110.220,147.844 110.400,148.200 110.400 C 148.556 110.400,148.736 110.580,148.600 110.800 C 148.464 111.020,148.644 111.200,149.000 111.200 C 149.356 111.200,149.536 111.380,149.400 111.600 C 149.264 111.820,149.444 112.000,149.800 112.000 C 150.156 112.000,150.336 112.180,150.200 112.400 C 150.064 112.620,150.244 112.800,150.600 112.800 C 150.956 112.800,151.136 112.980,151.000 113.200 C 150.864 113.420,151.044 113.600,151.400 113.600 C 151.756 113.600,151.936 113.780,151.800 114.000 C 151.664 114.220,151.844 114.400,152.200 114.400 C 152.556 114.400,152.736 114.580,152.600 114.800 C 152.464 115.020,152.644 115.200,153.000 115.200 C 153.356 115.200,153.536 115.380,153.400 115.600 C 153.264 115.820,153.444 116.000,153.800 116.000 C 154.156 116.000,154.336 116.180,154.200 116.400 C 154.064 116.620,154.244 116.800,154.600 116.800 C 154.956 116.800,155.136 116.980,155.000 117.200 C 154.864 117.420,155.044 117.600,155.400 117.600 C 155.756 117.600,155.936 117.780,155.800 118.000 C 155.664 118.220,155.844 118.400,156.200 118.400 C 156.556 118.400,156.736 118.580,156.600 118.800 C 156.464 119.020,156.644 119.200,157.000 119.200 C 157.356 119.200,157.536 119.380,157.400 119.600 C 157.264 119.820,157.444 120.000,157.800 120.000 C 158.156 120.000,158.336 120.180,158.200 120.400 C 158.064 120.620,158.244 120.800,158.600 120.800 C 158.956 120.800,159.136 120.980,159.000 121.200 C 158.864 121.420,159.044 121.600,159.400 121.600 C 159.756 121.600,159.936 121.780,159.800 122.000 C 159.664 122.220,159.844 122.400,160.200 122.400 C 160.556 122.400,160.736 122.580,160.600 122.800 C 160.464 123.020,160.644 123.200,161.000 123.200 C 161.356 123.200,161.536 123.380,161.400 123.600 C 161.264 123.820,161.444 124.000,161.800 124.000 C 162.156 124.000,162.336 124.180,162.200 124.400 C 162.064 124.620,162.244 124.800,162.600 124.800 C 162.956 124.800,163.136 124.980,163.000 125.200 C 162.864 125.420,163.044 125.600,163.400 125.600 C 163.756 125.600,163.936 125.780,163.800 126.000 C 163.664 126.220,163.844 126.400,164.200 126.400 C 164.556 126.400,164.736 126.580,164.600 126.800 C 164.464 127.020,164.644 127.200,165.000 127.200 C 165.356 127.200,165.536 127.380,165.400 127.600 C 165.264 127.820,165.444 128.000,165.800 128.000 C 166.156 128.000,166.336 128.180,166.200 128.400 C 166.064 128.620,166.256 128.800,166.626 128.800 C 167.130 128.800,105.771 66.352,99.846 60.835 C 98.986 60.033,98.894 59.762,99.305 59.235 C 99.732 58.688,99.712 58.668,99.163 59.097 C 98.338 59.740,97.860 59.262,98.503 58.437 C 98.932 57.887,98.913 57.868,98.363 58.297 C 97.538 58.940,97.060 58.462,97.703 57.637 C 98.132 57.087,98.113 57.068,97.563 57.497 C 96.777 58.110,96.240 57.675,96.860 56.928 C 97.223 56.491,97.168 56.437,96.587 56.660 C 96.027 56.875,95.918 56.790,96.110 56.290 C 96.296 55.806,96.186 55.701,95.680 55.879 C 95.144 56.067,95.100 56.010,95.473 55.606 C 95.844 55.204,95.518 54.679,93.948 53.149 C 92.849 52.079,92.053 51.037,92.179 50.834 C 92.305 50.630,92.001 50.135,91.504 49.732 C 90.182 48.661,90.307 45.701,91.748 43.989 C 92.853 42.676,93.150 41.743,92.300 42.253 C 91.956 42.460,91.970 42.344,92.345 41.881 C 92.645 41.511,93.055 41.310,93.255 41.434 C 93.456 41.558,93.570 41.421,93.510 41.130 C 93.449 40.838,93.625 40.645,93.900 40.700 C 94.175 40.755,94.355 40.575,94.300 40.300 C 94.245 40.025,94.425 39.845,94.700 39.900 C 94.975 39.955,95.155 39.775,95.100 39.500 C 95.045 39.225,95.238 39.049,95.530 39.110 C 95.821 39.170,95.964 39.066,95.848 38.877 C 95.731 38.689,96.531 37.653,97.625 36.575 C 98.720 35.497,99.527 34.387,99.420 34.108 C 99.313 33.828,99.500 33.600,99.836 33.600 C 100.172 33.600,100.336 33.420,100.200 33.200 C 100.064 32.980,100.263 32.800,100.643 32.800 C 101.023 32.800,101.228 32.694,101.099 32.565 C 100.969 32.436,103.819 29.375,107.432 25.762 C 111.044 22.150,114.000 18.925,114.000 18.597 C 114.000 17.792,115.363 16.493,99.900 32.036 M171.778 74.378 C 174.841 77.447,177.478 79.875,177.639 79.776 C 177.800 79.676,178.023 79.821,178.134 80.098 C 178.288 80.478,178.344 80.470,178.368 80.063 C 178.386 79.767,178.042 79.431,177.604 79.317 C 177.167 79.203,176.908 78.950,177.028 78.755 C 177.149 78.560,176.956 78.400,176.600 78.400 C 176.244 78.400,176.064 78.220,176.200 78.000 C 176.336 77.780,176.156 77.600,175.800 77.600 C 175.444 77.600,175.264 77.420,175.400 77.200 C 175.536 76.980,175.356 76.800,175.000 76.800 C 174.644 76.800,174.464 76.620,174.600 76.400 C 174.736 76.180,174.556 76.000,174.200 76.000 C 173.844 76.000,173.664 75.820,173.800 75.600 C 173.936 75.380,173.756 75.200,173.400 75.200 C 173.044 75.200,172.864 75.020,173.000 74.800 C 173.136 74.580,172.956 74.400,172.600 74.400 C 172.244 74.400,172.064 74.220,172.200 74.000 C 172.336 73.780,172.156 73.600,171.800 73.600 C 171.444 73.600,171.264 73.420,171.400 73.200 C 171.536 72.980,171.356 72.800,171.000 72.800 C 170.644 72.800,170.464 72.620,170.600 72.400 C 170.736 72.180,170.556 72.000,170.200 72.000 C 169.844 72.000,169.664 71.820,169.800 71.600 C 169.936 71.380,169.756 71.200,169.400 71.200 C 169.044 71.200,168.864 71.020,169.000 70.800 C 169.136 70.580,168.956 70.400,168.600 70.400 C 168.244 70.400,168.064 70.220,168.200 70.000 C 168.336 69.780,168.156 69.600,167.800 69.600 C 167.444 69.600,167.264 69.420,167.400 69.200 C 167.536 68.980,167.324 68.800,166.929 68.800 C 166.470 68.800,168.219 70.812,171.778 74.378 M45.600 86.957 C 42.993 89.417,26.845 105.677,22.400 110.320 C 19.650 113.192,17.220 115.555,17.000 115.571 C 16.541 115.604,16.443 118.000,16.901 118.000 C 17.311 118.000,77.709 178.424,77.504 178.629 C 77.414 178.719,59.939 178.798,38.671 178.804 L 0.000 178.816 -0.000 200.308 L -0.000 221.800 39.367 221.600 C 61.018 221.490,78.661 221.490,78.572 221.600 C 78.483 221.710,64.635 235.570,47.800 252.400 C 18.930 281.261,17.191 283.079,17.195 284.393 C 17.200 285.718,35.655 304.778,44.315 312.400 C 45.439 313.390,46.459 314.479,46.581 314.820 C 47.215 316.591,49.846 315.138,51.472 312.118 C 51.866 311.386,71.856 291.049,95.894 266.924 C 119.932 242.800,139.600 222.862,139.600 222.617 C 139.600 222.373,131.205 230.459,120.944 240.586 C 110.684 250.714,101.999 259.118,101.644 259.263 C 101.290 259.407,100.115 260.434,99.033 261.545 C 97.951 262.655,96.916 263.472,96.733 263.358 C 96.550 263.245,96.400 263.444,96.400 263.800 C 96.400 264.156,96.220 264.336,96.000 264.200 C 95.780 264.064,95.600 264.244,95.600 264.600 C 95.600 264.956,95.420 265.136,95.200 265.000 C 94.980 264.864,94.800 265.044,94.800 265.400 C 94.800 265.756,94.620 265.936,94.400 265.800 C 94.180 265.664,94.000 265.844,94.000 266.200 C 94.000 266.556,93.834 266.744,93.630 266.619 C 93.427 266.493,93.178 266.707,93.077 267.095 C 92.913 267.722,92.888 267.716,92.846 267.038 C 92.802 266.304,92.770 266.303,92.009 266.991 C 91.575 267.385,91.318 267.867,91.439 268.063 C 91.560 268.259,91.421 268.370,91.130 268.310 C 90.838 268.249,90.645 268.425,90.700 268.700 C 90.755 268.975,90.575 269.155,90.300 269.100 C 90.025 269.045,89.845 269.225,89.900 269.500 C 89.955 269.775,89.775 269.955,89.500 269.900 C 89.225 269.845,89.060 270.070,89.133 270.400 C 89.207 270.730,89.133 270.867,88.970 270.703 C 88.807 270.540,88.432 270.607,88.137 270.852 C 87.040 271.763,87.652 270.811,89.200 269.200 L 90.800 267.535 90.800 200.000 L 90.800 132.465 89.200 130.800 C 87.652 129.189,87.040 128.237,88.137 129.148 C 88.432 129.393,88.807 129.460,88.970 129.297 C 89.133 129.133,89.207 129.270,89.133 129.600 C 89.060 129.930,89.225 130.155,89.500 130.100 C 89.775 130.045,89.955 130.225,89.900 130.500 C 89.845 130.775,90.025 130.955,90.300 130.900 C 90.575 130.845,90.755 131.025,90.700 131.300 C 90.645 131.575,90.838 131.751,91.130 131.690 C 91.421 131.630,91.560 131.741,91.439 131.937 C 91.318 132.133,91.559 132.601,91.974 132.977 C 92.688 133.623,92.740 133.620,92.918 132.930 C 93.099 132.233,93.109 132.232,93.154 132.924 C 93.179 133.322,93.380 133.536,93.600 133.400 C 93.820 133.264,94.000 133.444,94.000 133.800 C 94.000 134.156,94.180 134.336,94.400 134.200 C 94.620 134.064,94.800 134.244,94.800 134.600 C 94.800 134.956,94.980 135.136,95.200 135.000 C 95.420 134.864,95.600 135.044,95.600 135.400 C 95.600 135.756,95.780 135.936,96.000 135.800 C 96.220 135.664,96.400 135.844,96.400 136.200 C 96.400 136.556,96.550 136.755,96.733 136.642 C 96.916 136.528,97.951 137.345,99.033 138.455 C 100.115 139.566,101.311 140.596,101.692 140.743 C 102.073 140.891,108.114 146.724,115.118 153.706 C 122.122 160.688,127.997 166.400,128.175 166.400 C 128.353 166.400,128.274 166.130,128.000 165.800 C 127.726 165.470,127.601 165.200,127.722 165.200 C 127.931 165.200,52.987 90.188,49.947 87.354 C 48.239 85.763,46.988 85.648,45.600 86.957 M168.824 131.557 C 170.021 132.634,171.063 133.456,171.140 133.384 C 171.368 133.171,168.464 130.400,168.013 130.400 C 167.786 130.400,167.600 130.220,167.600 130.000 C 167.600 129.780,167.386 129.600,167.124 129.600 C 166.862 129.600,167.627 130.481,168.824 131.557 M140.471 176.922 C 140.841 177.295,141.616 177.600,142.195 177.600 C 142.774 177.600,143.160 177.741,143.053 177.914 C 142.946 178.087,143.192 178.229,143.600 178.229 C 144.681 178.229,144.172 177.688,142.686 177.258 C 141.978 177.054,141.040 176.742,140.600 176.566 C 139.850 176.265,139.842 176.287,140.471 176.922 M170.857 178.356 C 170.479 178.596,170.449 178.783,170.757 178.974 C 171.001 179.124,171.200 179.046,171.200 178.800 C 171.200 178.554,171.380 178.464,171.600 178.600 C 171.820 178.736,172.000 178.657,172.000 178.424 C 172.000 177.914,171.592 177.890,170.857 178.356 M142.900 221.891 C 143.725 221.978,145.075 221.978,145.900 221.891 C 146.725 221.805,146.050 221.734,144.400 221.734 C 142.750 221.734,142.075 221.805,142.900 221.891 M175.600 261.656 C 175.600 261.907,175.303 262.329,174.939 262.595 C 174.567 262.867,174.448 263.182,174.666 263.317 C 174.879 263.449,175.366 263.026,175.749 262.378 C 176.136 261.723,176.258 261.200,176.023 261.200 C 175.790 261.200,175.600 261.405,175.600 261.656 M171.153 266.300 C 171.127 266.465,171.127 266.735,171.153 266.900 C 171.179 267.065,170.919 267.200,170.576 267.200 C 170.233 267.200,170.064 267.380,170.200 267.600 C 170.336 267.820,170.156 268.000,169.800 268.000 C 169.444 268.000,169.264 268.180,169.400 268.400 C 169.536 268.620,169.356 268.800,169.000 268.800 C 168.644 268.800,168.464 268.980,168.600 269.200 C 168.736 269.420,168.556 269.600,168.200 269.600 C 167.844 269.600,167.664 269.780,167.800 270.000 C 167.936 270.220,167.756 270.400,167.400 270.400 C 167.044 270.400,166.864 270.580,167.000 270.800 C 167.136 271.020,166.956 271.200,166.600 271.200 C 166.244 271.200,166.064 271.380,166.200 271.600 C 166.336 271.820,166.156 272.000,165.800 272.000 C 165.444 272.000,165.264 272.180,165.400 272.400 C 165.536 272.620,165.356 272.800,165.000 272.800 C 164.644 272.800,164.464 272.980,164.600 273.200 C 164.736 273.420,164.556 273.600,164.200 273.600 C 163.844 273.600,163.664 273.780,163.800 274.000 C 163.936 274.220,163.756 274.400,163.400 274.400 C 163.044 274.400,162.864 274.580,163.000 274.800 C 163.136 275.020,162.956 275.200,162.600 275.200 C 162.244 275.200,162.064 275.380,162.200 275.600 C 162.336 275.820,162.156 276.000,161.800 276.000 C 161.444 276.000,161.264 276.180,161.400 276.400 C 161.536 276.620,161.356 276.800,161.000 276.800 C 160.644 276.800,160.464 276.980,160.600 277.200 C 160.736 277.420,160.556 277.600,160.200 277.600 C 159.844 277.600,159.664 277.780,159.800 278.000 C 159.936 278.220,159.756 278.400,159.400 278.400 C 159.044 278.400,158.864 278.580,159.000 278.800 C 159.136 279.020,158.956 279.200,158.600 279.200 C 158.244 279.200,158.064 279.380,158.200 279.600 C 158.336 279.820,158.156 280.000,157.800 280.000 C 157.444 280.000,157.264 280.180,157.400 280.400 C 157.536 280.620,157.356 280.800,157.000 280.800 C 156.644 280.800,156.464 280.980,156.600 281.200 C 156.736 281.420,156.556 281.600,156.200 281.600 C 155.844 281.600,155.664 281.780,155.800 282.000 C 155.936 282.220,155.756 282.400,155.400 282.400 C 155.044 282.400,154.864 282.580,155.000 282.800 C 155.136 283.020,154.956 283.200,154.600 283.200 C 154.244 283.200,154.064 283.380,154.200 283.600 C 154.336 283.820,154.156 284.000,153.800 284.000 C 153.444 284.000,153.264 284.180,153.400 284.400 C 153.536 284.620,153.356 284.800,153.000 284.800 C 152.644 284.800,152.464 284.980,152.600 285.200 C 152.736 285.420,152.556 285.600,152.200 285.600 C 151.844 285.600,151.664 285.780,151.800 286.000 C 151.936 286.220,151.756 286.400,151.400 286.400 C 151.044 286.400,150.864 286.580,151.000 286.800 C 151.136 287.020,150.956 287.200,150.600 287.200 C 150.244 287.200,150.064 287.380,150.200 287.600 C 150.336 287.820,150.156 288.000,149.800 288.000 C 149.444 288.000,149.264 288.180,149.400 288.400 C 149.536 288.620,149.356 288.800,149.000 288.800 C 148.644 288.800,148.464 288.980,148.600 289.200 C 148.736 289.420,148.556 289.600,148.200 289.600 C 147.844 289.600,147.664 289.780,147.800 290.000 C 147.936 290.220,147.756 290.400,147.400 290.400 C 147.044 290.400,146.864 290.580,147.000 290.800 C 147.136 291.020,146.956 291.200,146.600 291.200 C 146.244 291.200,146.064 291.380,146.200 291.600 C 146.336 291.820,146.156 292.000,145.800 292.000 C 145.444 292.000,145.264 292.180,145.400 292.400 C 145.536 292.620,145.356 292.800,145.000 292.800 C 144.644 292.800,144.464 292.980,144.600 293.200 C 144.736 293.420,144.556 293.600,144.200 293.600 C 143.844 293.600,143.664 293.780,143.800 294.000 C 143.936 294.220,143.756 294.400,143.400 294.400 C 143.044 294.400,142.864 294.580,143.000 294.800 C 143.136 295.020,142.956 295.200,142.600 295.200 C 142.244 295.200,142.064 295.380,142.200 295.600 C 142.336 295.820,142.156 296.000,141.800 296.000 C 141.444 296.000,141.264 296.180,141.400 296.400 C 141.536 296.620,141.356 296.800,141.000 296.800 C 140.644 296.800,140.464 296.980,140.600 297.200 C 140.736 297.420,140.556 297.600,140.200 297.600 C 139.844 297.600,139.664 297.780,139.800 298.000 C 139.936 298.220,139.756 298.400,139.400 298.400 C 139.044 298.400,138.864 298.580,139.000 298.800 C 139.136 299.020,138.956 299.200,138.600 299.200 C 138.244 299.200,138.064 299.380,138.200 299.600 C 138.336 299.820,138.156 300.000,137.800 300.000 C 137.444 300.000,137.264 300.180,137.400 300.400 C 137.536 300.620,137.356 300.800,137.000 300.800 C 136.644 300.800,136.464 300.980,136.600 301.200 C 136.736 301.420,136.556 301.600,136.200 301.600 C 135.844 301.600,135.664 301.780,135.800 302.000 C 135.936 302.220,135.756 302.400,135.400 302.400 C 135.044 302.400,134.864 302.580,135.000 302.800 C 135.136 303.020,134.956 303.200,134.600 303.200 C 134.244 303.200,134.064 303.380,134.200 303.600 C 134.336 303.820,134.257 304.000,134.025 304.000 C 132.845 304.000,86.000 351.595,86.000 352.794 C 86.000 354.626,115.220 383.832,116.413 383.193 C 116.965 382.898,117.200 382.898,117.200 383.194 C 117.200 383.426,120.530 380.286,124.600 376.216 C 128.670 372.146,132.000 368.722,132.000 368.608 C 132.000 367.728,130.137 369.308,124.129 375.282 C 120.323 379.067,116.945 382.311,116.622 382.492 C 116.001 382.839,100.614 367.919,101.096 367.437 C 101.227 367.307,101.023 367.200,100.643 367.200 C 100.263 367.200,100.064 367.020,100.200 366.800 C 100.336 366.580,100.172 366.400,99.836 366.400 C 99.500 366.400,99.313 366.172,99.420 365.892 C 99.527 365.613,98.720 364.503,97.625 363.425 C 96.531 362.347,95.731 361.311,95.848 361.123 C 95.964 360.934,95.821 360.830,95.530 360.890 C 95.238 360.951,95.045 360.775,95.100 360.500 C 95.155 360.225,94.975 360.045,94.700 360.100 C 94.425 360.155,94.245 359.975,94.300 359.700 C 94.355 359.425,94.175 359.245,93.900 359.300 C 93.625 359.355,93.449 359.162,93.510 358.870 C 93.570 358.579,93.456 358.442,93.255 358.566 C 93.055 358.690,92.645 358.489,92.345 358.119 C 91.970 357.656,91.956 357.540,92.300 357.747 C 93.204 358.290,92.822 357.253,91.609 355.871 C 90.954 355.125,90.493 354.440,90.585 354.348 C 90.677 354.256,90.795 353.249,90.847 352.111 C 90.899 350.972,91.069 350.119,91.225 350.216 C 91.602 350.449,92.462 349.395,92.150 349.083 C 92.016 348.949,92.815 347.954,93.926 346.872 C 95.514 345.325,95.844 344.796,95.473 344.394 C 95.100 343.990,95.144 343.933,95.680 344.121 C 96.186 344.299,96.296 344.194,96.110 343.710 C 95.918 343.210,96.027 343.125,96.587 343.340 C 97.168 343.563,97.223 343.509,96.860 343.072 C 96.240 342.325,96.777 341.890,97.563 342.503 C 98.113 342.932,98.132 342.913,97.703 342.363 C 97.060 341.538,97.538 341.060,98.363 341.703 C 98.913 342.132,98.932 342.113,98.503 341.563 C 97.860 340.738,98.338 340.260,99.163 340.903 C 99.703 341.324,99.730 341.308,99.339 340.800 C 98.957 340.302,105.075 333.954,135.173 303.615 C 155.134 283.493,171.467 266.798,171.467 266.515 C 171.467 265.963,171.231 265.802,171.153 266.300 M163.600 336.499 C 143.833 355.790,132.400 367.253,132.400 367.781 C 132.400 368.124,136.494 364.308,141.498 359.302 C 146.502 354.296,154.695 346.105,159.704 341.100 C 164.714 336.095,168.675 332.002,168.506 332.005 C 168.338 332.007,166.130 334.029,163.600 336.499 " stroke="none" fill="#096bcf" fill-rule="evenodd"></path></g></svg>