<?xml version="1.0" encoding="utf-8"?>
<svg xmlns="http://www.w3.org/2000/svg" width="590" height="170" viewBox="0 0 590 170">
<path d="M201.5 60.5l-3.6 16.8h-6.3l12.8-56h7.1l12.5 56h-6.3L214 60.5h-12.5zm11.5-5.2l-2.9-14.2c-.8-4-1.5-8.6-2.3-12.8h-.2c-.7 4.2-1.5 9.1-2.3 12.8l-2.9 14.2H213zm40.7-35.5v47.8c0 2.7.2 7.3.4 9.7h-5.5l-.4-5h-.2c-1.3 2.8-4.2 5.7-8.5 5.7-6.7 0-11.6-7.3-11.6-20.6 0-14.2 5.9-20.8 12-20.8 3 0 5.8 1.3 7.4 4.7h.2V19.7l6.2.1zm-6.3 32.6c0-.8 0-1.8-.1-2.7-.4-4.2-2.9-7.8-6-7.8-5.3 0-7.1 7.4-7.1 15.4 0 8.5 2.1 15.3 6.8 15.3 2 0 4.7-1.1 6.1-6.9.2-.8.2-1.7.2-2.7l.1-10.6zm18.5-15.3l5.1 22.6c.6 2.7 1.3 6.3 1.7 9.8h.2c.4-3.3 1.1-6.7 1.7-9.8l5-22.6h6.3l-10.5 40.2h-5.7l-10.5-40.2h6.7zm46 31c0 3.1.1 6.6.4 9.1h-5.7l-.4-4.2h-.2c-1.7 3.1-4.6 4.9-8 4.9-5.3 0-9.5-4.5-9.5-11.4 0-10.1 8-14.5 17.1-14.6v-1.3c0-5.4-1.4-9.1-6.4-9.1-2.5 0-4.7.8-6.7 2.1l-1.4-4.5c1.7-1.3 5.4-2.7 9.4-2.7 8 0 11.4 5.2 11.4 14.2v17.5zm-6.2-11.7c-3.3 0-11 .7-11 9.4 0 5.3 2.7 7.1 4.9 7.1 2.8 0 5.1-2.1 5.9-6.1.2-.8.2-1.5.2-2.3v-8.1zm15.3-8.9c0-4.7-.2-7.1-.4-10.4h5.5l.4 4.9h.2c1.7-3.2 5-5.5 9.2-5.5 5.5 0 9.7 4.1 9.7 13.8v27h-6.4V51.5c0-4.8-.9-9.5-5.5-9.5-2.7 0-5.2 2.3-6 6.5-.2 1-.4 2.3-.4 3.6v25.3H321V47.5zm53.2 28.8c-1.4.8-3.8 1.5-6.7 1.5-8.8 0-14.7-7.1-14.7-20.4 0-11.6 5.8-20.9 15.8-20.9 2.1 0 4.5.6 5.7 1.3L373 43c-.8-.4-2.5-1.1-4.6-1.1-6.5 0-9.3 7.6-9.3 15.5 0 9.4 3.6 15 9.5 15 1.7 0 3.2-.4 4.6-1.1l1 5zm9.5-18.5c0 12.4 4.9 15 9.5 15 2.8 0 5.1-.7 6.7-1.5l1.1 4.6c-2.3 1.2-5.7 1.9-8.9 1.9-9.7 0-14.6-7.9-14.6-20.2 0-13 5.5-21.1 13.6-21.1 8.2 0 11.4 8.6 11.4 17.6 0 1.5-.1 2.7-.2 3.6h-18.6v.1zm12.6-4.8c.1-8-2.9-11.6-6-11.6-4.2 0-6.3 6.1-6.6 11.6h12.6zm37.2-33.2v47.8c0 2.7.2 7.3.4 9.7h-5.5l-.4-5h-.2c-1.3 2.8-4.2 5.7-8.5 5.7-6.7 0-11.6-7.3-11.6-20.6 0-14.2 5.9-20.8 12-20.8 3 0 5.8 1.3 7.4 4.7h.2V19.7l6.2.1zm-6.3 32.6c0-.8 0-1.8-.1-2.7-.4-4.2-2.9-7.8-6-7.8-5.3 0-7.1 7.4-7.1 15.4 0 8.5 2.1 15.3 6.8 15.3 2 0 4.7-1.1 6.1-6.9.2-.8.2-1.7.2-2.7l.1-10.6zm-226.9 93.5l-9.5-56h11.3l2.7 22.3c.8 6.4 1.3 12.8 1.9 19.6h.2c.8-6.9 2-13 3.2-19.7l4-22.3h8.8l3.8 22.1c1 6.3 2 12.6 2.7 19.8h.2c.8-7.3 1.4-13.3 2.1-19.8l2.7-22.2H245l-9.9 56H224l-3.3-18.3c-.9-5.1-1.7-11.6-2.5-18.3h-.2c-1 6.7-1.9 13-3.1 18.5l-3.8 18.3h-10.8zm74.3-24.6h-12.7v15.1h14.4v9.5H251v-56h24.4v9.5h-13.5v12.9h12.7v9zm9.1-30.6c3.3-.8 7.7-1.1 12.4-1.1 5.2 0 10.3.7 14.2 4 3 2.5 4.2 6.3 4.2 10.1 0 5-2.6 9.8-8 12.2v.4c6.5 1.8 9.9 7.1 9.9 13.3 0 4.6-1.5 8.2-4.2 11-3.3 3.6-9 5.7-18.3 5.7-4.2 0-7.6-.2-10.1-.7l-.1-54.9zm10.9 22.2h2.3c3.9 0 6.9-3.3 6.9-7.9 0-4.1-1.9-7.2-6.3-7.2-1.3 0-2.3.1-2.9.4v14.7zm0 24.8c.7.2 1.5.2 2.4.2 4.5 0 8-2.7 8-8.4s-3.8-8.6-8.2-8.6h-2.3l.1 16.8zm42.4-47c3.4-.7 7.7-1.1 11.9-1.1 6 0 11.4.9 15 4.2 3.4 3.1 4.5 6.8 4.5 11.6 0 6-3 11.4-8.6 13.9v.2c3.8 1.5 5.7 5.1 6.8 11.1 1.1 6.3 2.6 13.1 3.6 15.2h-11.4c-.8-1.5-2-7.2-2.8-13.5-1-6.9-2.7-8.9-6.3-8.9H348v22.3h-10.9l-.1-55zm10.9 24.4h2c4.7 0 7.4-3.8 7.4-8.7 0-4.8-1.9-8.2-6.7-8.3-1 0-2.1.1-2.7.4v16.6zm37 18l-2.5 12.8h-10.5l12.2-56h13l10.9 56h-10.5l-2.4-12.8h-10.2zm9.1-8.5l-1.8-11.7c-.6-3.4-1.3-9.1-1.8-12.7h-.2c-.6 3.8-1.4 9.5-2 12.7l-2.1 11.7h7.9zm20.1 21.3v-56h9.9l8.6 21.9c1.7 4.3 4.4 11.6 6 16.4h.2c-.4-5.9-1.1-15.6-1.1-25.9V89.9h9.5v56h-9.9l-8.6-21.3c-1.9-4.7-4.4-11.9-5.7-16.9h-.2c.4 5.7.8 14.3.8 25.6v12.6h-9.5zm42.9-56h10.8V115h.2c.9-2.3 1.7-4.8 2.7-7.2l7.4-17.9h12l-12.6 24.4 12.8 31.6h-12l-8.2-23.2-2.5 4.6v18.6h-10.9v-56h.3zm48.9 0v56H495v-56h10.9zm9.7 56v-56h9.9l8.6 21.9c1.7 4.3 4.4 11.6 6 16.4h.2c-.4-5.9-1.1-15.6-1.1-25.9V89.9h9.5v56h-9.9l-8.5-21.3c-1.9-4.7-4.4-11.9-5.7-16.9h-.2c.4 5.7.8 14.3.8 25.6v12.6h-9.6zm74-1.5c-2.4 1-7.4 2-11.6 2-6.5 0-11.4-1.8-15-5.5-4.8-4.6-7.4-13-7.2-22.6.2-20.4 11.8-28.8 23.8-28.8 4.2 0 7.3.8 9.1 1.7l-1.8 9.4c-1.7-.8-3.8-1.3-6.4-1.3-7.4 0-13.3 5.1-13.3 19.6 0 13.5 5.2 18.3 10.4 18.3 1 0 1.7-.1 2.1-.2v-13.6h-5.1v-8.9h15v29.9zM114.7.5c34 11.7 58.4 43.9 58.4 81.9 0 47.9-38.7 86.6-86.6 86.6S0 130.3 0 82.4c0-5.9.7-11.7 1.7-17.2 13.5 31.9 33.8 46.2 33.8 46.2l15.9-25.9 24.1 21.2L102 54.9l34.4 47.2c.3.1 41.5-79.9-21.7-101.6zm5.2 11.1c-.2 0-.2 0 0 0-.2.3-.2.3 0 0 0 .3 0 .3 0 0v.4s.2 0 .2.2c0 0 0 .2-.2.2h.5v.2h.2c.4-.4.4-1.3.4-2.1v.4s-.7.2-.8.4v.2c-.5.1-.5.1-.3.1zM90.7 43.4v.2h-.2c-.2.2 0 .7-.2 1.1.2.4.2.2.4.4v.2c.4.4.7.4 1.3.4-.2.2-.4.2-.4.7 0 0 .2 0 .4.2v.2c.2 0 .2.2.4.2v.4c.2.2.7.7 1.1.7v.4c.2.2.4.4.4.7v.4s.2 0 .2.2l-.2.2c0 .4.7.7.8.8v.4c.8.2 1.9 1.5 2.9 2.5l3.8-7.3 5.7 7.6c.7-.2 1.3-.2 1.9-.2.2-.2.2-.4.4-.4 1.1.4 1.9.2 2.7-.2.7.2 1.1.7 1.3 1.1h.2c0 .2-.2.2-.2.4 1.1.7 2.1 1.1 3.2.8v-.2c.4-.2 1.3.8 1.5 1.1 0 0-.2 0-.2.2s.2.7.4.8c-.2.2-.2.7 0 .8-.2.2-.4.7-.7 1.1h.2c0 .2-.2.7-.4.7.8.8.4.4 0 .4-.2.4-.2.8-.7 1.1.2.4.4.7.8.8 0 0-.2 0-.2.2.2.2.2.4.4.7.2.2.2 0 .4.2 0 0 0 .2-.2.2 1.5 1.1 5.2 8.6 3.3 10.7l14.1 19.1c5.2-13 14.5-41.2 5.9-62.8-.4-1.3-1.1-2.3-1.7-3.6 0 0 0-.2-.2-.2-.8-.4-1.9-.7-2.7-.4-.2-.2-.2-.4-.4-.7-.7 0-1.3-.2-1.7-.4-2.1-1.3-5.1 1.5-9.5-.8l-.2-.2c-1.3-.4-1.9-.2-3.2-.8v-.4h-.4c-.2-.2-.7-.4-.7-.8.2-.2 1.3-1.1 1.3-1.3-.2-.8-.2-1.5 0-2.3-.2.2-.4.2-.7.4h-.2c0-.2-.2-.2-.2-.4-.2 0-.4-.2-.4-.2-1.1 0-1.5.7-2.5.2-.2 0-.4.2-.4.2-.2 0-.4-.2-.7-.4-.8.7-1.9.7-2.9.2-.2 0-.2.2-.4.2s-.4-.2-.7 0c-1.3.4-1.9 0-3.2 1.1-.2 0-.2 0-.4-.2-1.9.2-3.8 1.7-5.7-.4-.2 0-.2 0-.4.2-2.5 1.7-10.1 10.1-10.5 12.6-.4.7-1.7 2.3-2.3 2.9-.2.2-.4.8-.4 1.5l.2-.2c1.9.2-.4 5.7-1.1 6.7 1.4-.6 1.4 0 1.8.3zM54 10.8c.2 0 .7 0 1.1-.2-.7-.8-1 0-1.1.2zm1.6-6.5l1.1-1.1c1.3.2 2.3 0 3.2-1.1-.2-.2-.2-.4-.4-.7.2-.2.2-.4.4-.8 0-.2-.4-.7-.7-.7-3.6 1.3-6.9 2.5-10.1 4.2.8.2 1.7.2 2.5.2 1.5.4 2.8.4 4 0zm64.9 8.6s-.2 0 0 0c-.7 0-1.1 0-1.3.4.4.8.7 1.5.7 2.3l.2-.2h.7c.2-.4.4-.8.2-1.3.2-.3-.1-.8-.5-1.2zM57.1 5.5s0 .2-.2.4l.4.4c-.4 0-.8.2-1.1.7.2 0 .4.2.7.2-.4.2-1.1.4-1.3.8v.4h3.8v.4h.2l.2-.2c.2 0 .4 0 .7.2-.4.2-.7.7-1.3.7v.2h.4c.4-.4 1.1-.7 1.3-1.1h.2c0 .2.2.2.2.4s-.2.4-.2.7v.2h.2l.2-.2v.4c.2 0 .4.2.7.2.2-.4.4-.7.4-1.1-.2-.2-.4-.2-.4-.4H62c0 .2-.2.2-.2.2-.2-.2-.2-.4-.2-.7.4-.2.4 0 .8-.4h-.3c-.2 0-.2.2-.7.2l-.4-.4.7-.7c-.2-.2-.7-.4-1.3-.4 0 0 0 .2-.2.2-.4 0-.8-.2-1.3-.7l.4-.4c-.2 0-.4-.2-.4-.2-.4 0-.4.4-.8.7 0-.8 1.3-1.5 1.1-2.1.2 0 .4 0 .7-.2v-.2h-.2s-.7.2-.8.2c-.5-.3-1.4 1-1.8 1.6zm79.8 16c-.2-.2-.2-.4-.4-.7h-.2l-.2-.2h-.2c-.2 0-.2 0-.2-.2v.2h-.2v.4c.1.3.8.3 1.4.5-.2 0-.2 0 0 0-.2 0-.2 0 0 0zm-3.6-4.2c0 .2-.2.2-.2.4.2.2.2.4.4.7v.7l.2.2s.2 0 .2-.2c0 .2.2.4.4.7 0 0 0-.2.2-.2s.4 0 .4.2c-.2-.2-.2-.4-.2-.7-.5-.8-.9-1.3-1.4-1.8zm-15.7 38.9c0-.2-.2-.2-.2-.2-.2.2-.2.4-.4.4v.2h.2c.2 0 .2-.4.4-.4zM100.1 15c-.1-.2-.1 0 0 0zm26.5 2.1c-.6 0-.2 0 0 0-.8.2-1.5.2-1.9-.2-.4.2-.8 0-1.1.4.8.7 1.7 1.1 2.7 1.5.2 0 .2-.2.4-.4.2-.4.2-1 .2-1.4-.5-.1-.1.1-.3.1zM113.2 4.9s-6.7-2.1-7.3-2.3c0 .2.2.2.4.2V3c.7 0 1.3.2 1.7.7h.5s0 .2-.2.2c.2.2.4.2.7.4 0 0 0 .2-.2.2.2.4.7.8 1.1 1.3 0 .2-.2.2-.2.4.2.2.4.4.4.8-.2-.2-.2-.4-.4-.4-.2.2-.2.7-.2 1.1h.2V8h-.2c-.2.7-.2 1.1-.7 1.5-1.9.2-5.1-1.5-6.9-.8 0 .2-.2.2-.2.4-.4 0-.8 0-1.1.4v.2c.4 0 .4.2.7.7s-.8 4.2-1.3 4.6c0 .2 0 0 .2.2.2 0 .2-.2.4-.2v.2c-.2.2-.4.2-.4.2h.4c0 .2 0 .4-.2.7.2.7-.2.7-.2 1.3.4-.2.8-.2 1.3 0 .2 0 .4-.2.4-.2.2 0 1.9 1.7 2.1 1.5v-.2.2c.4-.2.7-.4 1.1-.8.8.2 1.5.2 2.3 0l.2.2c.2-.7.8-1.1 1.5-1.1 0-.7.2-1.1 1.3-1.5-.2 0-.2-.2-.4-.2 0-.2-.2-.4-.2-.7.7-.4 1.1-1.1 1.5-1.7l-.2-.2c.4-.7 1.1-.2 1.5-.4 0 0 0-.2.2-.2.2-.2.8-.2 1.1-.4 1.1-2.3 2.7-1.9 5.5-2.3l.2-.2c.8-.7 5.9 4 6.1 4.8h.4s0 .2.2.2h-.2.4l.2.2v.4c.2.2.4.2.4.4h.2c.4.7.7 1.1.7 1.7h-.2c-.2.2-.4.4-.4.7h.4c-.2 0-.4 0-.4.2h.5c.2-.2.2-.4.7-.7v-.4c.2 0 .7-.2.7-.4v-.4c-.2-.2-.4-.2-.7-.4 0-.4.4-1.1.8-1.1s.8.2.8.7c.2 0 .2.2.4.2 0-.2.2-.4.2-.4-1.2-1.1-10.1-7.3-17.6-10zm-76 17.9c0-.2 0-.4-.2-.7-.1.2.2.5.2.7zm-4 20.1l-.2.2c.4.7 1.5.7 2.1.7v-.2c-.5-.5-1.3-.7-1.9-.7zm4.2-1.7c-.7 0-1.3-.2-1.7-.8l.2-.2c-.2-.4-1.3-.4-1.7-.7-.2-.2-.2-.4-.4-.4-1.1-.2-1.9-.7-2.3-1.3-2.3-.2-2.7-.4-4.8.2-.2.2-.2.2 0 .4-.2 0-.2.2-.4.2.4-.2 2.9-.4 3.2-.7-.2 0-.4 0-.7.2.8.7 2.9.4 3.8 1.1.2 0 .2.4.2.7.4.2 1.1.2 1.5.7l-.7.7c.8-.2 1.7 0 2.5.2.4 0 .8-.3 1.3-.3zm-27.3 2.3c2.5 1.7 8.8 4.4 12 4.6l.2-.2c.2 0 .2.2.4.4h-.2v.2c.7.7 1.3 1.5 2.1 2.1v.2h-.2s.2 0 .2.2v.2s-.2.2-.2.4c.2.4.4.7.8.8l.2-.2c0-.2-.2-.2-.2-.2v-.2c.2.2.4.2.4.4.2.7.8 1.7 1.5 1.9l-.3-.1c.2.2.4.4.4.8l.2-.2c.4 0 .8.2 1.3.2 0 .2.2.4.4.7v-.2c0 .2 0 .7.2.7.4 0 .7-.2.8-.2 0-.4-.4-.4-.4-.8.2-.2.7-.4.8-.4V54c.8-.2 1.3 0 1.3.7.2 0 .2 0 .4-.2 0 .2 0 .2.2.4H32c0 .2.2.7.2.8-.2.2-.8.4-1.3.2 0 .2-.2.4-.4.7 0-.2 0-.2-.2-.4-.8.2-1.1.7-1.3 1.7h-.4l-.8.8c0 .2 0 .2.2.4l-.2.2c-.2-.2-.2-.7-.7-.8 0 .2.2.4.4.8-.2 0-.2.2-.4.4 0 0 0-.2-.2-.2 0 .2-.2.4-.2.7l.7.7c0 .2-.2.2-.2.4s.2.2.2.4-.2.2-.4.2c.2.7.2 1.1 0 1.7l.4.4c-.2.4-.7.8-.8 1.3-.2.2-.7 0-.8.2 0 .2.2.4 0 .7h-.4v.2l.2.2c-.4.4-.6.4-1.2.7.2.7 0 1.1-.7 1.3 0 0 0 .2.2.2-.2.2-.4.2-.7.4.2.4.2.7.2 1.3l-.2.2c.7.8.8.2 1.3 0 .2 1.3-.4 1.9-1.9 2.5 0 .7.7.8.7 1.5h-.4c2.1 1.9 4.4 5.7 5.1 8.4v.8c1.1 1.7 3.2 2.7 4.8 3.6 0 .2.2.4.2.7 2.1 1.1 2.3 2.9.8 5.9-.2 0-.2.2-.4.2v.4l.2.2c-.2.7-.2 1.3-.2 1.9-.8 1.3-1.3 3.6-1.5 5.5l2.9 2.9 16.1-26 15.5 13.6c.2-.2.4-.4.4-.7v-.7c0-.7.2-1.1.8-1.3.2-1.9.7-3.8.7-5.7h.2c0 .2.2.2.2.4.7-.7 1.3-1.5 1.5-2.3.2 0 .4-.2.7-.2 6.5-4.4-4-11.1-8-8.6.4-.7.2-1.3-.4-1.7l-.2.2c-.7 0-1.7-1.1-2.1-1.3h-.8c-.4.2-1.1 1.3-1.7 1.5 0-.2 0-.4.2-.7-.4 0-1.1.2-1.5 0 0-.2-.2-.7-.2-.8-.4 0-.8.7-1.3.4.8-.4 1.5-2.3 2.5-2.7.2-.4-1.1-3.3-1.5-3.6-1.3-.2-2.7-2.7-4.6-2.1v.2c-.4-.2-.7-.2-1.1-.2 0 0-.2 0-.2.2-.2-.4-.7-1.3-1.5-1.3l-.2.2v-1.1c-.8-1.7-2.1-1.3-3.3-1.3.4-.2.8-.4 1.1-.8-.2-.2-.4-.2-.7-.4 0 0 0-.2-.2-.2-.2-.2-.4-.2-.7-.2l-.2.2c0-.4-.4-.7-.7-.8v-.2h.9c-1.9-.4-6.3-1.3-8-1.5-.2-.2-.2-.4-.2-.8-.2 0-.4 0-.4.2 0 0 0 .2.2.2h.3l.2.2c0 .2-1.7.7-1.9.7 0 .2 0 .2-.2.2.2.2.7 1.1.4 1.5 0 .2-.4.2-.7.2-.2-.2-.4-.7-.4-.8 0-.4.2-.7.4-.8 0-.4-.2-.7-.2-1.1.4 0 .8-.2 1.1-.4-.2-1.1-1.5.2-1.9.2 0-.2.2-.2.2-.4l.2.2.4-.4c-.2-.7-1.5-2.1-2.5-1.9-.7.4-2.3 1.3-2.9.4-.7-2.3-2.3-2.5-1.3-5.2 0-.2.2-.2.2-.4.2-.4.2-.8 0-1.3-.2 0-.4-.2-.7-.2-.2-.2 0-.2 0-.4-.7-.2-1.3 0-1.9-.4-.8.2-2.1.4-2.9-.2V45.3c.2-.8 1.1-1.7 1.1-2.7h-.2c0-.2.2-.2.2-.4 0 0 .2 0 .2-.2 0 .2.2.4.2.7 0-.4.2-.8.2-1.3h-.2c.2-.7 1.3-1.3 1.1-1.9-.8-.8-2.9-.2-4 .2-.2.4-.2.8-.2 1.3l-.2.2v.4c-.2.2-.7.4-.8.4l.2.2-.2.2H19v-.2c-3.6.2-1.7-.2-4-.2-.7-.8-1.5-2.3-1.7-3.3-1.1 1.7-2.7 5.1-2.7 5.1l-.5-.3zm27.5 0c.2 0 .2-.2.4-.2.7.2 1.1.2 1.7.2.2.2.4.7.7.7.2-.4.4-.7.8-.8l.2.2c.8.4.7-.7 1.9.2.2 0 .2-.2.4-.4-.7-.8-1.7-1.5-2.5-1.7-.8 0-1.9-.2-2.7-.2.2.2.7.2.8.4 0 .2.2.7.4.8-.4.2-1.5 0-2.1-.2l-.2.2c-.2.7 0 .7.2.8zm18.5 27.4c1.5.2 2.1-.2 2.3-1.3-.2-.2-1.7-.4-2.1-.4-.4.6-.4 1.3-.2 1.7zm-2-61.8c-1 1.1-1.3 1.7-.4 1.7h-.2c0-.4.4-.4.4-.4.2-.2.2-.7.4-.7.1-.3-.2-.6-.2-.6zm-6.7-4c-.4.2-.7.4-1.1.4.5.3.9 0 1.1-.4zm-3.1 52.3h.8c0-.2.2-.7.2-.8h-.8c.2 0 .2 0 .2.2v.2c-.2.4-.4.4-.4.4zM18.9 29.3l-.2-.2h.2c.4.2.7.4.7.7.2 0 .2.2.4.2s.4-.2.4-.2 0 .2.2.2h.2l-.2-.2v-.2c.2 0 .7.2.7.7h.7c-.2-.2-.7-.4-.7-.8.2 0 .2 0 .4-.2 0-.2-.2-.2-.4-.4-.2 0-.7.2-.7 0 0 0 0-.2.2-.2 0 0 2.5.2 2.3.2 0-.2 0-.2.2-.4 0 .2.2.4.2.4h.4v-.2c.7-.2 1.3 0 1.9.4.2.2.2.4.2.7 1.1-.2 2.7-.4 2.7 1.1 0 .4-.2.8-.2 1.3h.4V32c0 .2-.2.2-.4.2.2.2.2.7.4.8h.2v.4c.7.4.7 1.1 1.1 1.7h.7v.2c1-3.2-1.7-4.1-1.1-6.8.8-2.1 2.3-2.7 4-3.6.2-.2.4-.7.8-.8h.8c.2 0 .2-.2.4-.2 0 0-.2 0-.2-.2 0 0-.2.2-.4.2s-.2-.2-.2-.2l.2.2c.2-.2.2-.2.4-.2 0-.2-.2-.2-.4-.2v-.2c.2 0 .4.2.4.2v-.2c.2 0 .2.2.4.2l.2-.2h.2v-.2s0-.2-.2-.2c0 0-.2.2-.2.4v-.4h-.7v-.4.5h.3v-.2s.2 0 .2.2c0 0 0-.2-.2-.2.2 0 .2.2.4.2v.2c0-.2-.2-.4-.2-.4h.2v-.2c-.2-.2-1.1-.7-1.1-.8h.2c.2.2.4.4.7.4V22c-.2-.2-.4-.2-.4-.4l.2.2v-.2h.2c0-.2 0-.2-.2-.2-.2-.2-.4-.2-.7-.7l.4.4c.2.2.2 0 .2 0-.2-.2-.8-.7-1.1-.7V20h.2s-.2 0-.2.2v.2c.2 0 .2 0 .4.2v-.2c.2.2.4.2.7.4 0-.4-.2-.4-.4-.7l.2.2c-.2-.4-.2-.8-.2-1.1h.2v-.5.3c0-.2.2-.2.2-.2v.2h.2-.3s0 .2-.2.2h.2c-.2 0-.2 0-.4.2l.2.2v.4H35v.2h.4-.4c0 .2.2.2.2.2s.2 0 .2-.2c0 .2 0 .2-.2.2h.2v.2h.2c-.2.2-.4.4-.4.8v.2c0-.2.2-.2.2-.4h.2c.2-.4.4-.8.7-1.1 0-.4 0-.8-.2-1.1 0 .2.2.2.4.2v.4c.2-.2.7-.4.7-.8h.2c.2-.4.4-.7.4-1.1-.2 0-.2 0-.4-.2.2 0 .2-.2.2 0 0-.2.2-.4.2-.7 0 .2-.2.4-.2.4.7-.4 1.7-.8 2.7-.7 0-.2 0-.2.2-.4h.2v.4c.2 0 .4-.2.4-.2v.2c.2 0 .7 0 .8-.2 0-.2 0-.4-.2-.4h-.2s0 .2.2.2h.2v.2c-.2 0-.2 0-.4.2-.4-.2-.7-.4-.8-.8 0-.2.2-.2.4-.4-.2 0-.2 0-.2-.2.2-.2.4-.8.8-1.1v-.2h.2v.2h.2c.2-.2.2 0 .2-.2h.2v.2h.2s0-.2.2-.2h.2c.2-.2.4-.7.7-.8 0 0 0 .2-.2.2 0 0 .2 0 .2.2v-.2h.4v.2c.2 0 .2-.2.4-.4 0 0 .2 0 .2.2V13c.2 0 .4 0 .7-.2v-.2h-.2s0-.2.2-.2v-.2h.2c.2-.2.4 0 .7 0s.2-.2.4-.2v-.2s.2 0 .2.2c.4 0 .8-.4 1.3-.4 0 0 0-.2.2-.2v-.2l.2.2s.2-.2.2 0c-.2.2-.4.4-.7.4v.2c.4-.2 1.1 0 1.7 0-.4 0-.7 0-.8.2v.2h-.2v-.2c-.4.7-1.1.8-1.7.7-.6-.2-.2.2-.4.2.2 0 .2-.2.4-.2-.4.2-.4.7-.2 1.1 0 .2.2.2.2.4h.2s0-.2.2-.2h.4V14c.2-.2.4-.7.8-.7v-.4h.2v.2l.2-.2v.2h.4c0-.2.2 0 .2-.2h.2v-.2c.2 0 0 0 .2.2.4-.2 1.1-.4 1.5-.4H54c0-.2-.2-.2-.4-.2 0 0 .2 0 .2-.2-.2-.2-.4-.4-.7-.4-.2.2-.7.2-.8.2v-.2c-.2-.2-.4 0-.7 0 0 0-.2 0-.2-.2h-.2l-.2-.2h-.4.7c-.2-.4-.7-.7-1.1-.8v-.6s-.4-.2-.7-.2c.2-.4.4-.7.8-.8l-.3-.3h-.2v-.3c-.2 0-.4.2-.7.2-.2-.4-.4-.7-.8-.7.2 0 .4-.2.7 0 .2 0 .2.2.4.2s1.3-.4 1.5-.7C49.8 4.1 44 9 43.3 9.4c.4-.8 1.3-1.9 2.1-2.5C34.2 12.7 25.2 20.5 17.8 30c.7-.7.8-.7 1.1-.7zm18.3-11.4c.2 0 .2.2.2.2v-.2s.2 0 .2-.2c0 .1 0 .2-.4.2zm9.2 25.9c-.2-.2-1.1-.2-1.5-.2l-.2.2v.4c.6 0 1-.2 1.7-.4-.2.2 0 .2 0 0z"></path>
</svg>
