<svg id="svg" version="1.1" xmlns="http://www.w3.org/2000/svg" xmlns:xlink="http://www.w3.org/1999/xlink" width="400"
     height="400" viewBox="0, 0, 400,400">
    <g id="svgg">
        <path id="path0"
              d="M52.800 135.600 C 52.010 136.390,52.000 136.935,51.998 180.100 C 51.996 207.244,51.845 224.671,51.598 226.100 C 51.379 227.365,51.029 229.396,50.819 230.612 C 49.423 238.715,44.470 242.896,36.200 242.950 C 27.652 243.006,23.560 239.588,21.332 230.532 C 20.955 228.997,19.315 228.666,15.756 229.407 C 14.020 229.768,11.430 230.290,10.000 230.567 C 8.570 230.843,6.770 231.264,6.000 231.501 C 5.230 231.738,3.925 232.046,3.100 232.184 C 2.275 232.323,1.600 232.596,1.600 232.791 C 1.600 232.986,1.240 233.260,0.800 233.400 C -0.088 233.682,-0.403 236.999,0.432 237.277 C 0.669 237.356,1.108 238.406,1.407 239.611 C 2.005 242.018,2.807 244.287,3.371 245.171 C 3.571 245.486,4.200 246.598,4.768 247.644 C 10.983 259.089,27.026 266.200,40.800 263.614 C 41.790 263.429,43.770 263.052,45.199 262.778 C 52.978 261.286,62.549 255.195,66.221 249.400 C 66.639 248.740,67.097 248.110,67.238 248.000 C 67.754 247.597,70.340 242.132,71.118 239.800 C 73.504 232.643,73.374 235.597,73.521 185.400 C 73.657 138.647,73.615 136.472,72.548 135.405 C 71.492 134.349,53.877 134.523,52.800 135.600 M256.879 173.243 C 255.272 173.430,253.151 173.857,252.165 174.191 C 251.179 174.526,250.053 174.800,249.662 174.800 C 249.272 174.800,248.604 175.064,248.176 175.387 C 247.749 175.710,247.078 175.980,246.684 175.987 C 246.043 175.999,241.424 178.314,238.800 179.939 C 233.837 183.012,227.924 188.998,224.912 194.000 C 223.340 196.610,221.204 200.997,221.202 201.620 C 221.201 201.961,221.037 202.411,220.838 202.620 C 218.785 204.774,217.567 223.710,219.218 227.800 C 219.484 228.460,219.845 229.630,220.020 230.400 C 222.117 239.654,231.127 251.416,239.800 256.223 C 244.453 258.802,250.070 261.200,251.457 261.200 C 251.921 261.200,253.079 261.475,254.032 261.811 C 256.289 262.608,265.665 262.995,269.600 262.454 C 283.157 260.591,293.789 254.050,301.903 242.581 C 309.578 231.733,311.420 213.157,306.027 201.000 C 304.328 197.171,303.577 195.762,301.655 192.800 C 292.356 178.470,275.448 171.085,256.879 173.243 M105.800 177.642 C 103.600 179.171,101.080 180.925,100.200 181.540 C 99.320 182.155,97.493 183.424,96.139 184.358 C 94.786 185.293,93.573 186.450,93.445 186.929 C 93.101 188.211,93.161 258.923,93.506 259.440 C 94.241 260.541,95.779 260.758,103.437 260.842 C 112.298 260.939,113.023 260.782,113.398 258.695 C 114.129 254.629,113.397 175.933,112.624 175.368 C 111.233 174.351,109.893 174.798,105.800 177.642 M130.007 175.593 C 128.712 176.888,129.309 179.268,132.649 186.132 C 132.952 186.755,133.200 187.448,133.200 187.672 C 133.200 187.896,133.459 188.646,133.775 189.340 C 134.091 190.033,134.823 191.770,135.400 193.200 C 135.977 194.630,136.709 196.367,137.025 197.060 C 137.341 197.754,137.600 198.504,137.600 198.728 C 137.600 198.952,137.848 199.645,138.151 200.268 C 138.911 201.829,139.756 203.803,140.778 206.400 C 141.254 207.610,141.805 208.960,142.004 209.400 C 142.202 209.840,142.833 211.370,143.407 212.800 C 143.981 214.230,144.709 215.967,145.025 216.660 C 145.341 217.354,145.600 218.104,145.600 218.328 C 145.600 218.552,145.859 219.245,146.175 219.868 C 146.491 220.490,147.130 221.990,147.596 223.200 C 148.062 224.410,148.603 225.760,148.799 226.200 C 149.173 227.040,151.628 233.068,152.709 235.800 C 153.057 236.680,153.638 238.120,154.000 239.000 C 154.362 239.880,154.977 241.410,155.366 242.400 C 155.755 243.390,156.316 244.740,156.613 245.400 C 156.910 246.060,157.534 247.590,158.001 248.800 C 158.468 250.010,159.109 251.510,159.425 252.132 C 159.741 252.755,160.006 253.475,160.014 253.732 C 160.021 253.990,160.375 254.920,160.800 255.800 C 161.225 256.680,161.579 257.587,161.586 257.815 C 161.594 258.043,162.099 258.828,162.709 259.558 L 163.817 260.886 172.926 260.841 C 183.203 260.791,183.369 260.749,184.460 257.914 C 184.823 256.971,185.776 254.490,186.578 252.400 C 187.380 250.310,188.298 248.090,188.618 247.468 C 188.938 246.845,189.200 246.160,189.200 245.946 C 189.200 245.731,189.528 244.801,189.929 243.878 C 190.685 242.139,191.589 239.885,192.568 237.300 C 194.748 231.543,196.125 228.033,196.610 227.000 C 196.919 226.340,197.289 225.303,197.431 224.696 C 197.572 224.089,197.849 223.494,198.044 223.373 C 198.240 223.252,198.400 222.884,198.400 222.554 C 198.400 222.225,198.728 221.201,199.129 220.278 C 199.530 219.355,200.177 217.790,200.566 216.800 C 200.955 215.810,201.502 214.460,201.781 213.800 C 202.060 213.140,202.682 211.520,203.163 210.200 C 203.644 208.880,204.299 207.290,204.619 206.668 C 204.939 206.045,205.200 205.352,205.200 205.128 C 205.200 204.904,205.460 204.154,205.778 203.460 C 206.096 202.767,207.011 200.490,207.811 198.400 C 211.195 189.562,212.987 185.016,214.071 182.522 C 214.472 181.599,214.800 180.575,214.800 180.246 C 214.800 179.916,214.966 179.545,215.169 179.419 C 216.088 178.851,216.088 176.745,215.169 175.767 L 214.261 174.800 204.935 174.800 L 195.610 174.800 194.656 176.311 C 194.132 177.141,193.567 178.446,193.400 179.211 C 193.234 179.975,192.851 180.955,192.549 181.389 C 192.247 181.823,192.000 182.554,192.000 183.013 C 192.000 183.472,191.736 184.196,191.413 184.624 C 191.090 185.051,190.820 185.732,190.813 186.138 C 190.806 186.544,190.552 187.354,190.249 187.938 C 189.946 188.522,189.303 190.080,188.821 191.400 C 188.339 192.720,187.687 194.391,187.372 195.114 C 187.057 195.836,186.800 196.619,186.800 196.853 C 186.800 197.087,186.557 197.846,186.260 198.540 C 185.963 199.233,185.318 200.880,184.827 202.200 C 184.336 203.520,183.694 205.230,183.400 206.000 C 183.106 206.770,182.464 208.480,181.973 209.800 C 181.482 211.120,180.837 212.767,180.540 213.460 C 180.243 214.154,179.994 214.964,179.987 215.260 C 179.980 215.557,179.710 216.149,179.387 216.576 C 179.064 217.004,178.800 217.728,178.800 218.187 C 178.800 218.646,178.553 219.377,178.251 219.811 C 177.949 220.245,177.568 221.230,177.405 222.000 C 177.241 222.770,176.963 223.581,176.785 223.803 C 176.447 224.226,175.428 226.888,174.757 229.100 C 174.210 230.901,172.092 230.056,172.000 228.000 C 171.985 227.670,171.625 226.680,171.200 225.800 C 170.775 224.920,170.421 223.990,170.414 223.732 C 170.406 223.475,170.144 222.755,169.832 222.132 C 169.519 221.510,168.994 220.280,168.664 219.400 C 166.844 214.544,165.085 210.055,164.590 209.000 C 164.281 208.340,163.911 207.303,163.769 206.696 C 163.628 206.089,163.351 205.494,163.156 205.373 C 162.960 205.252,162.794 204.848,162.786 204.476 C 162.779 204.104,162.425 203.080,162.000 202.200 C 161.575 201.320,161.221 200.413,161.214 200.185 C 161.206 199.956,160.840 199.063,160.400 198.200 C 159.960 197.337,159.600 196.320,159.600 195.939 C 159.600 195.559,159.440 195.148,159.244 195.027 C 159.049 194.906,158.772 194.311,158.631 193.704 C 158.489 193.097,158.125 192.060,157.823 191.400 C 157.521 190.740,156.971 189.390,156.600 188.400 C 156.229 187.410,155.671 186.060,155.359 185.400 C 155.048 184.740,154.624 183.660,154.419 183.000 C 153.674 180.607,152.853 178.562,151.930 176.799 L 150.988 175.000 140.901 174.893 C 131.243 174.791,130.779 174.821,130.007 175.593 M313.118 175.500 C 311.652 177.195,311.877 177.750,316.536 183.908 C 318.991 187.153,321.495 190.527,322.100 191.404 C 322.705 192.282,323.762 193.630,324.449 194.400 C 325.136 195.170,325.988 196.250,326.341 196.800 C 326.695 197.350,329.626 201.245,332.854 205.456 C 336.083 209.667,339.020 213.564,339.382 214.116 C 340.037 215.116,340.013 215.154,331.490 226.460 C 323.052 237.652,309.586 255.361,308.824 256.266 C 307.958 257.295,307.951 258.630,308.806 259.717 L 309.658 260.800 320.069 260.800 L 330.479 260.800 331.570 259.632 C 332.170 258.990,333.510 257.235,334.548 255.732 C 335.586 254.230,337.337 251.740,338.438 250.200 C 339.539 248.660,340.936 246.680,341.543 245.800 C 342.149 244.920,343.346 243.210,344.202 242.000 C 345.672 239.922,346.708 238.429,350.782 232.512 C 352.409 230.149,353.995 228.984,354.307 229.922 C 354.386 230.158,355.043 231.127,355.767 232.075 C 356.491 233.024,358.145 235.341,359.442 237.224 C 362.212 241.247,365.567 246.022,370.750 253.320 C 372.813 256.224,374.583 258.814,374.684 259.076 C 375.452 261.071,395.239 261.915,398.700 260.100 C 400.135 259.347,400.522 257.487,399.419 256.644 C 399.099 256.400,396.944 253.680,394.628 250.600 C 392.313 247.520,390.272 244.820,390.093 244.600 C 389.913 244.380,389.016 243.210,388.098 242.000 C 387.180 240.790,385.875 239.080,385.197 238.200 C 376.091 226.378,368.000 215.450,368.000 214.971 C 368.000 214.640,369.215 212.758,370.700 210.790 C 372.185 208.821,374.736 205.363,376.369 203.105 C 378.002 200.847,380.661 197.200,382.279 195.000 C 389.663 184.959,390.636 183.628,391.200 182.792 C 391.530 182.302,391.980 181.694,392.200 181.440 C 394.458 178.833,394.992 176.660,393.669 175.462 C 392.353 174.271,372.828 174.483,371.721 175.700 C 370.582 176.953,366.054 183.536,356.725 197.500 C 354.026 201.540,354.246 201.629,349.508 194.600 C 343.185 185.219,338.516 178.515,336.906 176.500 L 335.546 174.800 324.635 174.800 C 314.741 174.800,313.668 174.865,313.118 175.500 M268.135 192.600 C 269.402 192.930,270.739 193.200,271.105 193.200 C 275.935 193.200,283.612 200.624,285.997 207.600 C 292.418 226.382,282.070 242.868,263.800 242.962 C 251.798 243.024,244.306 237.680,240.889 226.619 C 239.962 223.618,239.748 212.178,240.582 210.182 C 240.922 209.368,241.200 208.443,241.200 208.126 C 241.200 203.500,251.503 193.304,256.301 193.182 C 256.686 193.173,257.900 192.915,259.000 192.609 C 261.666 191.869,265.314 191.865,268.135 192.600 "
              stroke="none" fill="#49245c" fill-rule="evenodd"></path>
        <path id="path1"
              d="M0.000 116.600 C 0.000 216.929,0.079 233.200,0.567 233.200 C 0.878 233.200,1.198 233.006,1.277 232.768 C 1.418 232.347,3.753 231.659,8.600 230.612 C 9.920 230.327,11.810 229.903,12.800 229.669 C 20.052 227.961,20.579 228.057,21.935 231.330 C 22.411 232.477,22.800 233.620,22.800 233.869 C 22.800 234.572,25.550 239.270,26.317 239.878 C 29.741 242.591,40.012 243.923,42.261 241.944 C 42.668 241.587,43.360 241.178,43.800 241.036 C 46.647 240.116,49.391 235.455,50.886 229.000 C 51.215 227.580,51.414 213.803,51.575 181.465 L 51.800 135.929 52.769 135.144 C 54.239 133.955,72.144 134.160,73.033 135.376 C 73.690 136.277,73.852 229.462,73.202 232.800 C 71.910 239.432,69.567 245.539,67.359 248.031 C 67.052 248.379,66.800 248.810,66.800 248.990 C 66.800 250.661,59.295 257.390,55.200 259.391 C 53.990 259.982,52.687 260.631,52.305 260.833 C 47.166 263.549,32.537 265.016,26.600 263.411 C 16.504 260.682,11.973 257.871,6.571 250.984 C 4.499 248.343,1.206 241.700,1.195 240.140 C 1.186 238.955,0.737 237.600,0.353 237.600 C 0.150 237.600,0.000 272.081,0.000 318.800 L 0.000 400.000 200.000 400.000 L 400.000 400.000 400.000 330.000 C 400.000 291.500,399.854 260.000,399.676 260.000 C 399.499 260.000,399.004 260.264,398.576 260.587 C 397.941 261.068,395.897 261.177,387.286 261.187 C 375.584 261.201,375.605 261.206,373.919 258.459 C 373.426 257.656,371.668 255.108,370.012 252.796 C 368.355 250.485,366.460 247.820,365.800 246.875 C 365.140 245.930,363.374 243.411,361.875 241.278 C 360.376 239.145,358.357 236.230,357.388 234.800 C 353.515 229.082,353.491 229.076,350.803 233.105 C 349.815 234.587,348.864 235.980,348.691 236.200 C 348.205 236.817,345.472 240.614,344.800 241.606 C 344.470 242.093,343.656 243.236,342.992 244.146 C 341.388 246.342,339.496 249.079,339.000 249.919 C 338.780 250.292,337.745 251.704,336.700 253.056 C 335.655 254.407,334.800 255.642,334.800 255.800 C 334.800 255.958,333.885 257.237,332.766 258.643 L 330.731 261.200 320.266 261.187 C 305.216 261.168,304.515 259.850,313.885 249.200 C 314.175 248.870,316.849 245.360,319.826 241.400 C 322.804 237.440,325.546 233.807,325.920 233.328 C 326.294 232.848,326.870 232.068,327.200 231.595 C 327.530 231.122,330.474 227.224,333.743 222.933 L 339.686 215.131 338.256 213.066 C 337.469 211.930,336.415 210.543,335.913 209.986 C 334.564 208.486,333.200 206.491,333.200 206.016 C 333.200 205.787,333.048 205.600,332.862 205.600 C 332.676 205.600,330.958 203.485,329.044 200.900 C 327.129 198.315,324.896 195.416,324.082 194.457 C 323.267 193.498,322.114 192.000,321.520 191.126 C 320.926 190.253,319.998 188.967,319.458 188.269 C 308.637 174.274,308.593 174.400,324.383 174.400 C 336.982 174.400,335.952 174.152,338.287 177.750 C 339.304 179.317,340.736 181.339,341.468 182.241 C 342.201 183.144,342.800 184.004,342.800 184.152 C 342.800 184.301,343.929 185.993,345.310 187.911 C 346.690 189.830,348.260 192.120,348.797 193.000 C 349.335 193.880,349.926 194.780,350.111 195.000 C 350.296 195.220,351.124 196.390,351.950 197.600 C 352.777 198.810,353.737 199.854,354.084 199.921 C 354.626 200.025,357.200 196.886,357.200 196.121 C 357.200 195.990,357.830 195.114,358.600 194.174 C 359.370 193.234,360.000 192.344,360.000 192.196 C 360.000 192.047,360.315 191.514,360.700 191.009 C 361.085 190.505,361.628 189.757,361.907 189.346 C 363.353 187.217,365.850 183.453,366.205 182.867 C 366.952 181.636,368.180 179.802,368.392 179.600 C 368.508 179.490,369.140 178.590,369.798 177.600 C 372.050 174.210,371.288 174.400,382.607 174.400 C 392.204 174.400,392.743 174.440,393.746 175.229 C 395.433 176.556,395.020 178.824,392.613 181.451 C 392.386 181.699,391.930 182.303,391.600 182.794 C 391.270 183.285,389.740 185.360,388.200 187.407 C 386.660 189.453,385.130 191.522,384.800 192.004 C 383.448 193.980,378.603 200.601,370.983 210.886 C 368.700 213.968,367.795 215.994,368.700 216.003 C 368.865 216.004,369.448 216.679,369.997 217.503 C 370.545 218.326,373.610 222.420,376.808 226.600 C 380.007 230.780,383.017 234.842,383.499 235.626 C 383.980 236.411,384.760 237.401,385.231 237.826 C 385.702 238.252,386.686 239.500,387.418 240.600 C 388.150 241.700,389.075 242.963,389.475 243.406 C 389.874 243.849,392.269 246.954,394.797 250.306 C 397.326 253.658,399.531 256.400,399.697 256.400 C 399.864 256.400,400.000 198.710,400.000 128.200 L 400.000 0.000 200.000 0.000 L 0.000 0.000 0.000 116.600 M96.494 138.181 C 97.259 138.501,99.216 139.666,100.842 140.771 C 102.469 141.876,104.790 143.438,106.000 144.243 C 107.210 145.047,109.585 146.627,111.278 147.753 C 116.229 151.045,115.916 152.646,109.484 156.904 C 91.029 169.122,91.896 169.286,91.766 153.553 C 91.654 139.939,91.714 139.363,93.351 138.365 C 94.850 137.450,94.757 137.456,96.494 138.181 M269.200 172.837 C 269.970 173.034,271.281 173.197,272.113 173.198 C 272.945 173.199,274.272 173.470,275.062 173.800 C 275.851 174.130,276.846 174.400,277.271 174.400 C 278.044 174.400,280.861 175.517,282.862 176.616 C 283.446 176.937,284.130 177.200,284.383 177.200 C 284.636 177.200,286.138 178.032,287.721 179.049 C 289.305 180.067,291.030 181.167,291.556 181.495 C 292.602 182.148,298.325 187.819,300.134 189.995 C 301.658 191.829,305.600 198.566,305.600 199.337 C 305.600 199.676,305.756 200.049,305.947 200.167 C 306.302 200.387,307.394 203.773,308.602 208.400 C 312.920 224.938,304.789 244.861,289.376 255.507 C 288.003 256.456,281.138 259.998,280.643 260.014 C 280.399 260.021,279.480 260.375,278.600 260.800 C 277.720 261.225,276.493 261.579,275.874 261.586 C 275.254 261.594,274.373 261.800,273.916 262.045 C 271.791 263.182,254.935 263.237,253.510 262.112 C 253.230 261.891,252.259 261.596,251.353 261.458 C 250.447 261.320,249.187 260.937,248.553 260.606 C 247.919 260.276,247.006 260.004,246.524 260.002 C 246.042 260.001,245.543 259.832,245.416 259.626 C 245.289 259.420,244.200 258.801,242.996 258.250 C 241.144 257.402,237.756 255.354,235.645 253.807 C 233.423 252.178,225.200 243.418,225.200 242.679 C 225.200 242.548,224.673 241.659,224.029 240.705 C 223.385 239.751,222.737 238.489,222.590 237.901 C 222.442 237.314,222.069 236.623,221.761 236.367 C 221.452 236.111,221.200 235.570,221.200 235.165 C 221.200 234.759,220.949 233.836,220.643 233.114 C 219.462 230.328,218.388 226.114,218.370 224.200 C 218.360 223.100,218.202 221.300,218.019 220.200 C 217.618 217.797,218.515 208.568,219.380 206.200 C 219.702 205.320,219.979 204.240,219.995 203.800 C 220.012 203.360,220.290 202.651,220.613 202.224 C 220.936 201.796,221.200 201.054,221.200 200.573 C 221.200 200.092,221.470 199.474,221.800 199.200 C 222.130 198.926,222.400 198.556,222.400 198.377 C 222.400 197.868,223.137 196.314,224.002 195.000 C 224.436 194.340,224.914 193.530,225.065 193.200 C 225.618 191.990,228.762 188.131,231.258 185.600 C 233.757 183.065,234.549 182.422,238.230 179.938 C 240.322 178.526,245.998 175.604,246.654 175.602 C 246.904 175.601,247.624 175.331,248.254 175.002 C 248.884 174.674,249.727 174.404,250.126 174.402 C 250.526 174.401,251.227 174.200,251.684 173.955 C 254.132 172.645,265.595 171.913,269.200 172.837 M112.856 175.165 L 113.800 175.929 113.800 217.800 L 113.800 259.671 112.856 260.435 C 111.414 261.603,95.524 261.585,94.000 260.414 L 93.000 259.646 92.892 224.293 C 92.832 204.850,92.927 188.251,93.102 187.407 C 93.440 185.778,93.918 185.378,102.200 179.805 C 103.960 178.620,106.390 176.933,107.600 176.055 C 110.059 174.271,111.459 174.034,112.856 175.165 M150.842 174.822 C 151.639 175.249,153.600 179.037,153.600 180.151 C 153.600 180.482,153.766 180.855,153.969 180.981 C 154.172 181.106,154.463 181.792,154.615 182.505 C 154.768 183.217,155.120 184.250,155.399 184.800 C 155.934 185.858,157.118 188.737,158.112 191.400 C 159.492 195.095,160.129 196.690,160.844 198.244 C 161.260 199.148,161.606 200.138,161.613 200.444 C 161.620 200.750,161.890 201.349,162.213 201.776 C 162.536 202.204,162.800 202.934,162.800 203.400 C 162.800 203.866,163.064 204.596,163.387 205.024 C 163.710 205.451,163.980 206.116,163.987 206.501 C 163.994 206.887,164.360 207.875,164.800 208.696 C 165.240 209.516,165.600 210.401,165.600 210.662 C 165.600 210.922,165.864 211.645,166.187 212.268 C 166.510 212.890,167.230 214.615,167.787 216.100 C 170.335 222.893,170.872 224.277,171.390 225.400 C 171.696 226.060,172.072 227.050,172.228 227.600 C 172.832 229.741,174.378 230.896,174.414 229.233 C 174.421 228.885,174.775 227.880,175.200 227.000 C 175.625 226.120,175.979 225.196,175.986 224.946 C 175.994 224.696,176.269 223.976,176.598 223.346 C 176.926 222.716,177.202 221.840,177.210 221.400 C 177.219 220.960,177.490 220.251,177.813 219.824 C 178.136 219.396,178.406 218.766,178.414 218.424 C 178.421 218.081,178.775 217.080,179.200 216.200 C 179.625 215.320,179.979 214.396,179.986 214.146 C 179.994 213.896,180.269 213.176,180.598 212.546 C 180.926 211.916,181.196 211.125,181.198 210.789 C 181.199 210.453,181.447 209.823,181.749 209.389 C 182.051 208.955,182.434 207.976,182.600 207.213 C 182.766 206.450,183.051 205.550,183.233 205.213 C 184.020 203.753,185.200 200.643,185.200 200.026 C 185.200 199.656,185.464 199.004,185.787 198.576 C 186.110 198.149,186.380 197.557,186.387 197.260 C 186.394 196.964,186.662 196.154,186.982 195.460 C 187.843 193.597,188.848 190.750,189.082 189.513 C 189.195 188.915,189.537 188.218,189.844 187.964 C 190.150 187.710,190.406 187.119,190.414 186.651 C 190.421 186.183,190.775 185.080,191.200 184.200 C 191.625 183.320,191.985 182.330,191.999 182.000 C 192.014 181.670,192.290 181.051,192.613 180.624 C 192.936 180.196,193.198 179.566,193.197 179.224 C 193.190 178.006,194.967 174.850,195.783 174.631 C 198.557 173.885,214.379 174.411,215.184 175.275 C 216.155 176.317,216.274 178.685,215.413 179.824 C 215.090 180.251,214.820 180.932,214.813 181.338 C 214.806 181.744,214.534 182.554,214.209 183.138 C 213.884 183.722,212.970 185.910,212.176 188.000 C 209.272 195.652,207.929 199.024,207.371 200.062 C 207.057 200.646,206.800 201.466,206.800 201.885 C 206.800 202.304,206.536 202.996,206.213 203.424 C 205.890 203.851,205.620 204.435,205.613 204.722 C 205.599 205.280,204.375 208.265,203.395 210.132 C 203.068 210.755,202.800 211.497,202.800 211.782 C 202.800 212.254,202.038 214.191,200.567 217.460 C 200.255 218.154,199.994 218.964,199.987 219.260 C 199.980 219.557,199.710 220.149,199.387 220.576 C 199.064 221.004,198.799 221.634,198.798 221.976 C 198.796 222.319,198.526 223.116,198.198 223.746 C 197.869 224.376,197.600 225.076,197.600 225.302 C 197.600 225.693,196.577 228.085,195.362 230.532 C 195.053 231.155,194.800 231.976,194.800 232.356 C 194.800 232.736,194.536 233.396,194.213 233.824 C 193.890 234.251,193.620 234.892,193.613 235.249 C 193.601 235.831,193.027 237.334,191.416 241.000 C 190.057 244.092,189.600 245.259,189.600 245.636 C 189.600 245.860,189.272 246.799,188.871 247.722 C 188.470 248.645,187.823 250.210,187.434 251.200 C 187.045 252.190,186.493 253.540,186.208 254.200 C 185.923 254.860,185.371 256.290,184.982 257.377 C 183.608 261.217,183.663 261.200,172.958 261.200 L 163.632 261.200 162.604 260.100 C 162.038 259.495,161.476 258.550,161.354 258.000 C 161.131 256.990,160.777 256.110,159.243 252.756 C 158.779 251.742,158.400 250.722,158.400 250.489 C 158.400 250.256,158.152 249.555,157.849 248.932 C 156.766 246.708,156.015 244.968,155.200 242.800 C 154.745 241.590,154.126 240.060,153.823 239.400 C 153.521 238.740,152.968 237.390,152.594 236.400 C 151.291 232.947,149.447 228.509,148.551 226.668 C 148.248 226.045,148.000 225.360,148.000 225.146 C 148.000 224.931,147.672 224.001,147.271 223.078 C 146.870 222.155,146.223 220.590,145.834 219.600 C 144.866 217.138,144.038 215.215,143.365 213.868 C 143.054 213.245,142.800 212.544,142.800 212.311 C 142.800 212.078,142.460 211.148,142.044 210.244 C 141.628 209.340,140.966 207.790,140.573 206.800 C 140.180 205.810,139.562 204.280,139.200 203.400 C 138.838 202.520,138.223 200.990,137.834 200.000 C 137.445 199.010,136.887 197.660,136.594 197.000 C 136.302 196.340,135.580 194.540,134.990 193.000 C 134.401 191.460,133.757 190.029,133.559 189.820 C 133.362 189.611,133.200 189.196,133.200 188.898 C 133.200 188.425,132.874 187.591,131.204 183.800 C 129.607 180.175,129.201 178.882,129.206 177.449 C 129.213 175.654,129.478 175.043,130.400 174.692 C 131.527 174.263,150.017 174.381,150.842 174.822 M258.800 193.020 C 257.810 193.304,256.550 193.556,256.000 193.581 C 255.450 193.605,254.651 193.890,254.224 194.213 C 253.796 194.536,253.210 194.800,252.919 194.800 C 252.629 194.800,251.449 195.455,250.296 196.256 C 234.683 207.102,237.295 235.034,254.521 241.443 C 258.664 242.985,269.111 243.249,271.800 241.880 C 272.460 241.544,274.076 240.779,275.390 240.178 C 279.077 238.495,285.200 231.669,285.200 229.243 C 285.200 228.877,285.436 228.223,285.725 227.789 C 287.056 225.789,287.780 217.940,287.041 213.525 C 285.046 201.602,279.516 195.360,269.000 193.161 C 264.932 192.310,261.446 192.262,258.800 193.020 "
              stroke="none" fill="#ffffff" fill-rule="evenodd"></path>
        <path id="path2"
              d="M52.889 135.023 C 52.400 135.365,52.000 135.850,52.000 136.099 C 52.000 136.349,52.255 136.204,52.567 135.776 C 53.092 135.058,53.827 134.984,62.467 134.786 L 71.800 134.571 62.789 134.486 C 55.184 134.413,53.639 134.497,52.889 135.023 M72.571 135.429 C 72.917 135.774,73.221 136.449,73.246 136.929 C 73.281 137.573,73.339 137.623,73.472 137.121 C 73.682 136.321,72.952 134.800,72.357 134.800 C 72.129 134.800,72.226 135.083,72.571 135.429 M51.793 181.200 C 51.793 205.290,51.841 215.145,51.900 203.100 C 51.959 191.055,51.959 171.345,51.900 159.300 C 51.841 147.255,51.793 157.110,51.793 181.200 M93.351 138.365 C 91.714 139.363,91.654 139.939,91.766 153.553 C 91.896 169.286,91.029 169.122,109.484 156.904 C 115.916 152.646,116.229 151.045,111.278 147.753 C 109.585 146.627,107.210 145.047,106.000 144.243 C 104.790 143.438,102.469 141.876,100.842 140.771 C 96.128 137.570,95.163 137.260,93.351 138.365 M259.800 172.563 C 256.679 172.989,256.765 173.000,263.289 173.000 C 269.841 173.000,270.774 172.728,265.600 172.327 C 264.170 172.216,261.560 172.322,259.800 172.563 M252.200 173.822 C 251.185 174.318,251.154 174.372,252.000 174.169 C 252.550 174.038,253.630 173.787,254.400 173.611 C 255.783 173.296,255.785 173.292,254.600 173.264 C 253.940 173.249,252.860 173.500,252.200 173.822 M272.800 173.577 C 273.570 173.733,274.650 173.981,275.200 174.127 C 276.007 174.341,275.968 174.280,275.000 173.814 C 274.340 173.496,273.260 173.249,272.600 173.264 C 271.431 173.291,271.436 173.299,272.800 173.577 M108.400 175.459 C 106.342 176.914,105.980 177.399,107.701 176.395 C 108.527 175.913,109.303 175.358,109.425 175.160 C 110.045 174.157,112.838 175.046,113.322 176.400 C 113.496 176.885,113.543 176.870,113.568 176.323 C 113.657 174.433,110.577 173.919,108.400 175.459 M130.400 174.692 C 129.739 174.943,129.216 175.594,129.206 176.176 C 129.203 176.384,129.455 176.204,129.767 175.776 C 130.295 175.054,131.034 174.985,140.467 174.786 L 150.600 174.573 140.800 174.518 C 135.410 174.488,130.730 174.566,130.400 174.692 M204.982 174.700 C 213.832 174.811,214.201 174.848,215.170 175.708 C 216.022 176.464,216.086 176.478,215.588 175.800 C 214.581 174.430,214.423 174.410,205.000 174.498 L 195.800 174.584 204.982 174.700 M278.200 175.044 C 280.772 176.022,281.528 176.114,279.800 175.238 C 278.920 174.792,277.840 174.429,277.400 174.431 C 276.944 174.433,277.288 174.697,278.200 175.044 M312.816 175.275 C 312.367 175.757,312.021 176.522,312.046 176.975 C 312.092 177.779,312.098 177.780,312.288 177.000 C 312.823 174.804,312.847 174.800,324.635 174.800 L 335.546 174.800 337.053 176.700 C 339.659 179.985,339.803 179.937,337.517 176.543 C 336.016 174.315,336.540 174.400,324.383 174.400 C 313.837 174.400,313.616 174.417,312.816 175.275 M371.758 175.100 C 371.337 175.485,370.455 176.610,369.798 177.600 C 369.140 178.590,368.512 179.490,368.401 179.600 C 367.858 180.140,366.346 182.480,366.465 182.597 C 366.539 182.671,367.230 181.833,368.000 180.735 C 368.770 179.636,370.077 177.855,370.904 176.776 L 372.408 174.813 382.704 174.700 L 393.000 174.586 382.761 174.493 C 373.489 174.409,372.450 174.466,371.758 175.100 M151.913 176.799 C 152.478 177.896,152.998 178.736,153.067 178.666 C 153.258 178.475,151.661 175.285,151.246 175.028 C 151.048 174.906,151.348 175.703,151.913 176.799 M247.800 175.200 C 247.664 175.420,247.158 175.621,246.676 175.646 C 246.011 175.682,245.967 175.737,246.493 175.874 C 246.873 175.974,247.589 175.773,248.082 175.428 C 248.575 175.083,248.769 174.800,248.513 174.800 C 248.257 174.800,247.936 174.980,247.800 175.200 M393.700 175.431 C 394.628 176.534,394.586 178.237,393.600 179.491 C 393.160 180.050,392.800 180.705,392.800 180.947 C 392.800 181.188,393.250 180.723,393.800 179.914 C 395.056 178.065,395.094 176.373,393.900 175.362 C 393.001 174.601,393.001 174.601,393.700 175.431 M113.793 217.600 C 113.793 239.930,113.841 249.065,113.900 237.900 C 113.959 226.735,113.959 208.465,113.900 197.300 C 113.841 186.135,113.793 195.270,113.793 217.600 M240.185 178.714 C 235.975 181.304,234.377 182.529,231.552 185.332 C 228.854 188.008,225.200 192.443,225.200 193.042 C 225.200 193.208,225.905 192.400,226.766 191.246 C 230.445 186.315,235.280 181.979,240.400 179.021 C 243.256 177.370,243.507 177.193,242.967 177.214 C 242.765 177.222,241.513 177.897,240.185 178.714 M284.400 177.494 C 284.730 177.622,285.675 178.150,286.500 178.668 C 287.325 179.186,288.000 179.520,288.000 179.410 C 288.000 179.063,284.840 177.199,284.308 177.232 C 283.983 177.252,284.016 177.347,284.400 177.494 M215.304 179.084 C 215.031 179.666,214.882 180.215,214.972 180.305 C 215.212 180.546,216.073 178.818,215.926 178.391 C 215.857 178.190,215.577 178.502,215.304 179.084 M312.000 178.164 C 312.000 178.528,315.568 183.200,315.847 183.200 C 316.001 183.200,314.240 180.752,312.129 178.033 C 312.058 177.942,312.000 178.000,312.000 178.164 M129.209 178.656 C 129.204 178.907,129.556 179.897,129.991 180.856 C 130.426 181.815,130.786 182.395,130.791 182.144 C 130.796 181.893,130.444 180.903,130.009 179.944 C 129.574 178.985,129.214 178.405,129.209 178.656 M100.200 181.137 C 94.402 185.167,93.390 185.976,93.303 186.648 C 93.214 187.342,93.231 187.345,93.513 186.687 C 93.791 186.041,96.521 183.963,100.500 181.368 C 101.325 180.830,102.000 180.302,102.000 180.195 C 102.000 179.900,101.922 179.941,100.200 181.137 M289.924 180.696 C 290.432 181.083,292.142 182.453,293.724 183.741 L 296.600 186.082 294.200 183.827 C 292.880 182.587,291.170 181.217,290.400 180.782 C 289.355 180.193,289.234 180.171,289.924 180.696 M341.281 182.594 C 341.976 183.581,342.624 184.309,342.721 184.212 C 342.895 184.038,340.478 180.800,340.175 180.800 C 340.088 180.800,340.586 181.607,341.281 182.594 M214.104 182.284 C 213.831 182.866,213.682 183.415,213.772 183.505 C 214.012 183.746,214.873 182.018,214.726 181.591 C 214.657 181.390,214.377 181.702,214.104 182.284 M130.813 182.854 C 130.806 182.994,131.069 183.624,131.398 184.254 C 131.726 184.884,131.996 185.119,131.998 184.776 C 132.000 184.190,130.840 182.308,130.813 182.854 M191.304 183.884 C 191.031 184.466,190.882 185.015,190.972 185.105 C 191.212 185.346,192.073 183.618,191.926 183.191 C 191.857 182.990,191.577 183.302,191.304 183.884 M390.800 183.076 C 390.800 183.301,390.133 184.366,389.318 185.442 C 388.503 186.519,388.122 187.171,388.470 186.891 C 389.468 186.089,391.346 183.213,391.059 182.926 C 390.917 182.783,390.800 182.851,390.800 183.076 M364.133 185.900 C 363.756 186.505,363.257 187.260,363.024 187.577 C 362.716 187.996,362.725 188.079,363.060 187.878 C 363.546 187.587,365.299 184.800,364.996 184.800 C 364.898 184.800,364.510 185.295,364.133 185.900 M212.465 186.217 C 212.209 186.778,212.007 187.454,212.016 187.719 C 212.024 187.983,212.297 187.588,212.622 186.839 C 213.305 185.265,213.161 184.690,212.465 186.217 M318.051 186.400 C 318.560 187.170,319.387 188.248,319.889 188.796 C 320.390 189.344,320.800 189.907,320.800 190.048 C 320.800 190.189,321.610 191.347,322.600 192.622 C 323.590 193.897,324.400 194.750,324.400 194.519 C 324.400 194.287,324.145 193.886,323.834 193.628 C 323.522 193.369,322.441 191.952,321.431 190.479 C 320.421 189.005,319.039 187.170,318.359 186.400 L 317.124 185.000 318.051 186.400 M132.000 185.678 C 132.000 185.805,132.269 186.424,132.598 187.054 C 132.926 187.684,133.190 187.930,133.185 187.600 C 133.179 187.270,132.910 186.651,132.587 186.224 C 132.264 185.796,132.000 185.551,132.000 185.678 M344.315 187.000 C 344.722 187.769,347.269 191.340,348.596 193.000 C 349.750 194.445,347.919 191.546,346.069 189.000 C 344.107 186.301,343.699 185.835,344.315 187.000 M156.224 187.400 C 157.409 190.737,157.699 191.444,158.020 191.772 C 158.476 192.238,157.099 188.426,156.432 187.375 C 155.952 186.619,155.947 186.620,156.224 187.400 M189.680 188.080 C 189.416 188.344,189.221 188.929,189.246 189.380 C 189.292 190.183,189.297 190.184,189.489 189.400 C 189.598 188.960,189.869 188.375,190.092 188.100 C 190.610 187.462,190.312 187.448,189.680 188.080 M386.575 189.068 C 385.959 189.876,385.659 190.411,385.909 190.256 C 386.421 189.940,388.153 187.600,387.875 187.600 C 387.776 187.600,387.191 188.261,386.575 189.068 M92.991 223.200 C 92.991 242.670,93.040 250.635,93.100 240.900 C 93.160 231.165,93.160 215.235,93.100 205.500 C 93.040 195.765,92.991 203.730,92.991 223.200 M133.215 188.800 C 133.221 189.130,133.490 189.749,133.813 190.176 C 134.568 191.175,134.563 190.805,133.802 189.346 C 133.474 188.716,133.210 188.470,133.215 188.800 M211.265 189.417 C 210.595 190.888,210.723 191.202,211.447 189.865 C 211.786 189.240,211.988 188.654,211.896 188.563 C 211.805 188.471,211.521 188.856,211.265 189.417 M188.465 191.417 C 187.795 192.888,187.923 193.202,188.647 191.865 C 188.986 191.240,189.188 190.654,189.096 190.563 C 189.005 190.471,188.721 190.856,188.465 191.417 M301.835 193.076 C 303.862 196.161,304.577 196.949,303.038 194.400 C 302.440 193.410,301.758 192.205,301.521 191.722 C 301.285 191.239,300.874 190.761,300.609 190.659 C 300.343 190.557,300.895 191.644,301.835 193.076 M209.900 192.911 C 208.938 195.244,209.032 195.810,210.020 193.632 C 210.461 192.660,210.772 191.718,210.711 191.539 C 210.650 191.360,210.285 191.978,209.900 192.911 M263.800 192.380 C 265.560 192.555,267.630 192.815,268.400 192.959 C 269.672 193.197,269.709 193.180,268.800 192.770 C 268.250 192.521,266.180 192.261,264.200 192.190 L 260.600 192.063 263.800 192.380 M134.828 192.600 C 134.828 192.820,135.086 193.450,135.400 194.000 C 135.714 194.550,135.972 194.820,135.972 194.600 C 135.972 194.380,135.714 193.750,135.400 193.200 C 135.086 192.650,134.828 192.380,134.828 192.600 M258.200 192.800 L 257.400 193.144 258.200 193.144 C 258.640 193.144,259.360 192.989,259.800 192.800 L 260.600 192.456 259.800 192.456 C 259.360 192.456,258.640 192.611,258.200 192.800 M381.614 195.900 C 380.211 197.825,378.099 200.705,376.922 202.300 C 375.744 203.895,374.870 205.200,374.980 205.200 C 375.219 205.200,383.149 194.558,384.120 192.935 C 385.002 191.460,383.897 192.767,381.614 195.900 M358.385 194.418 C 357.680 195.309,357.170 196.099,357.252 196.174 C 357.333 196.250,357.991 195.522,358.713 194.556 C 360.362 192.350,360.108 192.243,358.385 194.418 M272.400 193.749 C 272.400 193.832,273.525 194.459,274.900 195.143 C 276.275 195.827,277.850 196.702,278.400 197.088 C 279.287 197.712,279.340 197.715,278.871 197.119 C 278.198 196.265,272.400 193.246,272.400 193.749 M249.700 196.258 C 248.545 197.042,247.600 197.857,247.600 198.070 C 247.600 198.283,247.899 198.158,248.264 197.793 C 248.629 197.428,249.619 196.693,250.464 196.160 C 251.309 195.626,252.000 195.102,252.000 194.995 C 252.000 194.702,251.961 194.724,249.700 196.258 M136.015 195.600 C 136.021 195.930,136.290 196.549,136.613 196.976 C 137.368 197.975,137.363 197.605,136.602 196.146 C 136.274 195.516,136.010 195.270,136.015 195.600 M208.465 196.617 C 207.795 198.088,207.923 198.402,208.647 197.065 C 208.986 196.440,209.188 195.854,209.096 195.763 C 209.005 195.671,208.721 196.056,208.465 196.617 M304.003 196.415 C 304.001 196.534,304.360 197.337,304.800 198.200 C 305.240 199.063,305.599 199.506,305.597 199.185 C 305.596 198.863,305.237 198.060,304.800 197.400 C 304.363 196.740,304.004 196.297,304.003 196.415 M351.456 197.400 C 353.091 200.237,354.248 200.949,355.251 199.736 C 355.754 199.127,355.723 199.118,354.875 199.636 C 353.883 200.241,353.928 200.274,351.482 197.124 C 350.786 196.227,350.785 196.235,351.456 197.400 M160.000 197.447 C 160.000 197.667,160.264 198.196,160.587 198.624 C 160.910 199.051,161.175 199.220,161.175 199.000 C 161.175 198.780,160.910 198.251,160.587 197.824 C 160.264 197.396,160.000 197.227,160.000 197.447 M185.607 198.787 C 185.355 199.257,185.230 199.947,185.328 200.321 C 185.469 200.854,185.517 200.824,185.554 200.180 C 185.579 199.729,185.813 199.147,186.073 198.887 C 186.334 198.626,186.438 198.305,186.306 198.172 C 186.173 198.040,185.859 198.316,185.607 198.787 M245.979 199.422 C 245.451 199.984,245.288 200.341,245.618 200.214 C 246.139 200.015,247.434 198.400,247.073 198.400 C 247.000 198.400,246.507 198.860,245.979 199.422 M137.924 200.200 C 138.126 200.640,138.392 201.270,138.514 201.600 C 138.707 202.118,138.741 202.115,138.768 201.576 C 138.786 201.234,138.520 200.604,138.178 200.176 C 137.566 199.412,137.562 199.413,137.924 200.200 M329.800 202.000 C 330.816 203.320,331.737 204.400,331.847 204.400 C 331.957 204.400,331.216 203.320,330.200 202.000 C 329.184 200.680,328.263 199.600,328.153 199.600 C 328.043 199.600,328.784 200.680,329.800 202.000 M305.613 200.054 C 305.606 200.194,305.869 200.824,306.198 201.454 C 306.526 202.084,306.796 202.319,306.798 201.976 C 306.800 201.390,305.640 199.508,305.613 200.054 M243.831 202.351 C 242.752 204.061,241.526 206.800,241.841 206.800 C 241.951 206.800,242.313 206.148,242.646 205.351 C 242.979 204.555,243.692 203.205,244.231 202.351 C 244.769 201.498,245.120 200.800,245.010 200.800 C 244.900 200.800,244.369 201.498,243.831 202.351 M282.400 200.983 C 282.400 201.143,282.760 201.731,283.200 202.291 C 283.640 202.850,284.000 203.177,284.000 203.017 C 284.000 202.857,283.640 202.269,283.200 201.709 C 282.760 201.150,282.400 200.823,282.400 200.983 M161.613 201.254 C 161.606 201.394,161.869 202.024,162.198 202.654 C 162.526 203.284,162.796 203.519,162.798 203.176 C 162.800 202.590,161.640 200.708,161.613 201.254 M184.465 202.217 C 183.795 203.688,183.923 204.002,184.647 202.665 C 184.986 202.040,185.188 201.454,185.096 201.363 C 185.005 201.271,184.721 201.656,184.465 202.217 M206.104 202.684 C 205.831 203.266,205.682 203.815,205.772 203.905 C 206.012 204.146,206.873 202.418,206.726 201.991 C 206.657 201.790,206.377 202.102,206.104 202.684 M220.485 202.413 C 220.218 202.840,220.001 203.417,220.002 203.695 C 220.004 203.973,220.277 203.678,220.610 203.040 C 221.303 201.711,221.211 201.250,220.485 202.413 M138.800 202.478 C 138.800 202.605,139.069 203.224,139.398 203.854 C 139.726 204.484,139.990 204.730,139.985 204.400 C 139.979 204.070,139.710 203.451,139.387 203.024 C 139.064 202.596,138.800 202.351,138.800 202.478 M306.816 203.054 C 306.807 203.304,307.063 204.114,307.384 204.854 C 307.706 205.594,307.976 205.996,307.984 205.746 C 307.993 205.496,307.737 204.686,307.416 203.946 C 307.094 203.206,306.824 202.804,306.816 203.054 M284.071 203.800 C 284.156 204.020,284.428 204.650,284.676 205.200 C 284.924 205.750,285.348 206.791,285.617 207.513 C 285.887 208.235,286.165 208.768,286.236 208.697 C 286.463 208.470,285.185 205.112,284.540 204.242 C 284.198 203.779,283.986 203.580,284.071 203.800 M183.244 205.244 C 182.952 205.905,182.798 206.531,182.902 206.636 C 183.007 206.740,183.321 206.274,183.600 205.600 C 184.262 204.001,183.938 203.677,183.244 205.244 M162.800 204.478 C 162.800 204.605,163.069 205.224,163.398 205.854 C 163.726 206.484,163.990 206.730,163.985 206.400 C 163.979 206.070,163.710 205.451,163.387 205.024 C 163.064 204.596,162.800 204.351,162.800 204.478 M140.028 205.400 C 140.028 205.620,140.286 206.250,140.600 206.800 C 140.914 207.350,141.172 207.620,141.172 207.400 C 141.172 207.180,140.914 206.550,140.600 206.000 C 140.286 205.450,140.028 205.180,140.028 205.400 M204.432 206.739 C 204.195 207.184,204.001 207.784,204.002 208.074 C 204.004 208.363,204.277 208.078,204.610 207.440 C 204.942 206.803,205.136 206.202,205.040 206.106 C 204.943 206.010,204.670 206.295,204.432 206.739 M333.200 206.150 C 333.200 206.566,334.830 208.797,336.152 210.188 C 337.012 211.093,335.294 208.565,333.329 206.033 C 333.258 205.942,333.200 205.994,333.200 206.150 M141.202 208.424 C 141.201 208.766,141.464 209.396,141.787 209.824 C 142.551 210.834,142.559 210.396,141.802 208.946 C 141.474 208.316,141.204 208.081,141.202 208.424 M372.344 208.700 C 371.193 210.089,370.706 210.800,370.904 210.800 C 371.014 210.800,371.586 210.170,372.173 209.400 C 373.263 207.971,373.395 207.432,372.344 208.700 M181.588 209.622 C 181.346 210.074,181.207 210.622,181.280 210.839 C 181.352 211.057,181.618 210.687,181.871 210.017 C 182.397 208.625,182.239 208.405,181.588 209.622 M308.662 210.200 C 308.796 211.080,308.972 211.875,309.053 211.967 C 309.356 212.310,309.129 210.168,308.781 209.400 C 308.529 208.842,308.493 209.085,308.662 210.200 M218.509 210.800 C 218.509 211.790,218.587 212.195,218.682 211.700 C 218.778 211.205,218.778 210.395,218.682 209.900 C 218.587 209.405,218.509 209.810,218.509 210.800 M240.418 210.618 C 240.145 211.507,240.006 212.677,240.107 213.218 C 240.256 214.015,240.301 213.950,240.346 212.874 C 240.375 212.144,240.592 211.189,240.826 210.752 C 241.060 210.314,241.176 209.741,241.082 209.478 C 240.989 209.215,240.690 209.728,240.418 210.618 M369.234 212.758 C 367.667 214.735,367.699 215.426,369.447 217.400 C 370.226 218.280,370.684 218.640,370.464 218.200 C 370.245 217.760,369.691 217.003,369.233 216.517 C 368.104 215.320,368.182 214.590,369.634 212.758 C 370.312 211.901,370.777 211.200,370.667 211.200 C 370.557 211.200,369.912 211.901,369.234 212.758 M165.924 212.200 C 166.126 212.640,166.392 213.270,166.514 213.600 C 166.707 214.118,166.741 214.115,166.768 213.576 C 166.786 213.234,166.520 212.604,166.178 212.176 C 165.566 211.412,165.562 211.413,165.924 212.200 M180.500 212.693 C 179.788 214.211,179.884 214.833,180.613 213.433 C 180.948 212.791,181.172 212.122,181.111 211.946 C 181.050 211.770,180.775 212.106,180.500 212.693 M286.895 212.400 C 286.895 212.950,287.032 213.940,287.200 214.600 C 287.472 215.670,287.505 215.692,287.505 214.800 C 287.505 214.250,287.368 213.260,287.200 212.600 C 286.928 211.530,286.895 211.508,286.895 212.400 M338.389 213.264 L 339.703 215.127 337.828 217.564 C 336.797 218.904,336.043 220.000,336.153 220.000 C 336.263 220.000,337.187 218.917,338.205 217.593 L 340.057 215.187 339.224 213.838 C 338.765 213.097,338.095 212.245,337.733 211.945 C 337.372 211.645,337.667 212.239,338.389 213.264 M142.827 212.400 C 142.826 212.730,143.090 213.349,143.413 213.776 C 144.160 214.764,144.152 214.115,143.400 212.800 C 143.068 212.220,142.828 212.052,142.827 212.400 M201.588 214.022 C 201.346 214.474,201.207 215.022,201.280 215.239 C 201.352 215.457,201.618 215.087,201.871 214.417 C 202.397 213.025,202.239 212.805,201.588 214.022 M217.912 215.700 C 217.803 217.075,217.846 219.010,218.007 220.000 C 218.233 221.389,218.311 220.818,218.350 217.500 C 218.406 212.702,218.212 211.906,217.912 215.700 M309.354 218.000 C 309.354 220.750,309.418 221.875,309.496 220.500 C 309.574 219.125,309.574 216.875,309.496 215.500 C 309.418 214.125,309.354 215.250,309.354 218.000 M166.828 214.600 C 166.828 214.820,167.086 215.450,167.400 216.000 C 167.714 216.550,167.972 216.820,167.972 216.600 C 167.972 216.380,167.714 215.750,167.400 215.200 C 167.086 214.650,166.828 214.380,166.828 214.600 M144.015 215.200 C 144.021 215.530,144.290 216.149,144.613 216.576 C 145.368 217.575,145.363 217.205,144.602 215.746 C 144.274 215.116,144.010 214.870,144.015 215.200 M179.470 215.410 C 179.321 215.845,179.091 216.470,178.958 216.800 C 178.826 217.130,179.019 216.990,179.388 216.490 C 179.758 215.989,179.988 215.364,179.900 215.100 C 179.810 214.831,179.622 214.967,179.470 215.410 M287.701 217.800 C 287.705 218.680,287.787 218.993,287.883 218.495 C 287.979 217.998,287.975 217.278,287.875 216.895 C 287.775 216.513,287.696 216.920,287.701 217.800 M168.030 217.600 C 168.028 218.176,169.157 220.466,169.186 219.946 C 169.194 219.806,168.937 219.086,168.616 218.346 C 168.294 217.606,168.031 217.270,168.030 217.600 M178.446 218.224 C 178.421 218.676,178.136 219.396,177.813 219.824 C 177.490 220.251,177.241 220.960,177.259 221.400 C 177.292 222.180,177.298 222.180,177.492 221.417 C 177.601 220.986,177.955 220.230,178.278 219.736 C 178.602 219.243,178.782 218.515,178.680 218.120 C 178.520 217.506,178.486 217.521,178.446 218.224 M199.470 219.410 C 199.321 219.845,199.091 220.470,198.958 220.800 C 198.826 221.130,199.019 220.990,199.388 220.490 C 199.758 219.989,199.988 219.364,199.900 219.100 C 199.810 218.831,199.622 218.967,199.470 219.410 M145.924 219.800 C 146.126 220.240,146.392 220.870,146.514 221.200 C 146.707 221.718,146.741 221.715,146.768 221.176 C 146.786 220.834,146.520 220.204,146.178 219.776 C 145.566 219.012,145.562 219.013,145.924 219.800 M287.018 221.818 C 286.865 222.839,286.822 223.755,286.922 223.855 C 287.022 223.955,287.229 223.202,287.382 222.182 C 287.535 221.161,287.578 220.245,287.478 220.145 C 287.378 220.045,287.171 220.798,287.018 221.818 M169.232 220.824 C 169.214 221.166,169.480 221.796,169.822 222.224 C 170.434 222.988,170.438 222.987,170.076 222.200 C 169.874 221.760,169.608 221.130,169.486 220.800 C 169.293 220.282,169.259 220.285,169.232 220.824 M331.640 225.700 C 329.441 228.615,327.489 231.180,327.303 231.400 C 326.615 232.213,326.270 232.927,326.693 232.666 C 327.172 232.370,336.067 220.400,335.808 220.400 C 335.714 220.400,333.838 222.785,331.640 225.700 M373.800 223.200 C 374.816 224.520,375.737 225.600,375.847 225.600 C 375.957 225.600,375.216 224.520,374.200 223.200 C 373.184 221.880,372.263 220.800,372.153 220.800 C 372.043 220.800,372.784 221.880,373.800 223.200 M240.050 222.654 C 240.023 223.344,240.280 224.514,240.622 225.254 C 241.019 226.112,241.149 226.238,240.983 225.600 C 240.840 225.050,240.582 223.880,240.411 223.000 C 240.121 221.508,240.097 221.485,240.050 222.654 M176.670 223.010 C 176.521 223.445,176.291 224.070,176.158 224.400 C 176.026 224.730,176.219 224.590,176.588 224.090 C 176.958 223.589,177.188 222.964,177.100 222.700 C 177.010 222.431,176.822 222.567,176.670 223.010 M218.509 225.200 C 218.509 226.190,218.587 226.595,218.682 226.100 C 218.778 225.605,218.778 224.795,218.682 224.300 C 218.587 223.805,218.509 224.210,218.509 225.200 M308.622 225.022 C 308.472 225.825,308.438 226.572,308.548 226.682 C 308.658 226.792,308.872 226.225,309.022 225.422 C 309.173 224.619,309.206 223.873,309.096 223.763 C 308.986 223.653,308.773 224.219,308.622 225.022 M286.493 225.600 C 286.493 226.370,286.575 226.685,286.676 226.300 C 286.776 225.915,286.776 225.285,286.676 224.900 C 286.575 224.515,286.493 224.830,286.493 225.600 M148.015 225.200 C 148.021 225.530,148.290 226.149,148.613 226.576 C 149.368 227.575,149.363 227.205,148.602 225.746 C 148.274 225.116,148.010 224.870,148.015 225.200 M170.800 224.878 C 170.800 225.005,171.069 225.624,171.398 226.254 C 171.726 226.884,171.990 227.130,171.985 226.800 C 171.979 226.470,171.710 225.851,171.387 225.424 C 171.064 224.996,170.800 224.751,170.800 224.878 M73.337 228.600 C 73.339 230.360,73.409 231.030,73.493 230.089 C 73.578 229.149,73.577 227.709,73.491 226.889 C 73.405 226.070,73.336 226.840,73.337 228.600 M51.022 227.422 C 50.872 228.225,50.828 228.962,50.926 229.060 C 51.024 229.157,51.227 228.581,51.378 227.778 C 51.528 226.975,51.572 226.238,51.474 226.140 C 51.376 226.043,51.173 226.619,51.022 227.422 M377.800 228.400 C 378.816 229.720,379.737 230.800,379.847 230.800 C 379.957 230.800,379.216 229.720,378.200 228.400 C 377.184 227.080,376.263 226.000,376.153 226.000 C 376.043 226.000,376.784 227.080,377.800 228.400 M196.432 227.139 C 195.779 228.360,195.914 228.700,196.641 227.663 C 196.993 227.160,197.188 226.654,197.073 226.540 C 196.959 226.425,196.670 226.695,196.432 227.139 M218.816 227.454 C 218.807 227.704,219.063 228.514,219.384 229.254 C 219.706 229.994,219.976 230.396,219.984 230.146 C 219.993 229.896,219.737 229.086,219.416 228.346 C 219.094 227.606,218.824 227.204,218.816 227.454 M285.588 228.022 C 285.346 228.474,285.207 229.022,285.280 229.239 C 285.352 229.457,285.618 229.087,285.871 228.417 C 286.397 227.025,286.239 226.805,285.588 228.022 M149.232 228.024 C 149.214 228.366,149.480 228.996,149.822 229.424 C 150.434 230.188,150.438 230.187,150.076 229.400 C 149.874 228.960,149.608 228.330,149.486 228.000 C 149.293 227.482,149.259 227.485,149.232 228.024 M172.025 227.937 C 172.011 228.232,172.360 228.931,172.800 229.491 C 173.240 230.050,173.600 230.314,173.600 230.078 C 173.600 229.841,173.407 229.528,173.172 229.383 C 172.937 229.237,172.588 228.732,172.397 228.259 C 172.207 227.787,172.039 227.642,172.025 227.937 M17.000 228.776 C 16.434 229.003,16.726 229.086,18.000 229.061 C 18.990 229.042,20.160 229.167,20.600 229.340 C 21.062 229.522,20.978 229.396,20.400 229.042 C 19.303 228.369,18.229 228.285,17.000 228.776 M12.000 229.833 C 10.465 230.461,11.111 230.405,14.400 229.624 C 15.780 229.297,15.783 229.292,14.600 229.276 C 13.940 229.268,12.770 229.519,12.000 229.833 M307.532 230.000 C 307.406 230.550,307.178 231.360,307.026 231.800 C 306.874 232.240,307.042 232.095,307.399 231.477 C 307.757 230.859,307.985 230.049,307.905 229.677 C 307.802 229.194,307.695 229.287,307.532 230.000 M352.464 230.336 C 351.734 231.066,349.455 234.303,347.679 237.132 C 346.942 238.306,346.922 238.400,347.579 237.600 C 348.762 236.159,348.827 236.068,350.803 233.105 C 352.728 230.219,353.379 229.719,354.260 230.450 C 354.707 230.821,354.768 230.782,354.566 230.257 C 354.234 229.391,353.376 229.424,352.464 230.336 M21.344 230.600 C 21.761 232.241,22.766 234.576,22.782 233.944 C 22.792 233.583,22.427 232.503,21.971 231.544 C 21.514 230.585,21.233 230.160,21.344 230.600 M50.454 230.651 C 50.425 231.119,50.130 232.149,49.800 232.938 C 49.470 233.728,49.210 234.605,49.222 234.887 C 49.234 235.169,49.602 234.515,50.041 233.434 C 50.480 232.353,50.764 231.093,50.674 230.634 C 50.510 229.805,50.509 229.805,50.454 230.651 M150.426 230.800 C 150.433 231.387,151.950 234.449,151.983 233.944 C 151.992 233.803,151.644 232.903,151.209 231.944 C 150.774 230.985,150.421 230.470,150.426 230.800 M283.690 232.276 C 283.091 233.308,281.880 234.972,281.000 235.974 C 280.120 236.975,279.759 237.526,280.197 237.198 C 281.560 236.177,285.622 230.400,284.978 230.400 C 284.869 230.400,284.290 231.244,283.690 232.276 M242.800 231.341 C 242.800 231.769,244.718 234.702,245.188 234.993 C 245.419 235.135,245.035 234.386,244.335 233.326 C 242.784 230.981,242.800 231.002,242.800 231.341 M220.028 231.800 C 220.028 232.020,220.286 232.650,220.600 233.200 C 220.914 233.750,221.172 234.020,221.172 233.800 C 221.172 233.580,220.914 232.950,220.600 232.400 C 220.286 231.850,220.028 231.580,220.028 231.800 M194.100 233.300 C 193.670 234.475,193.680 234.526,194.212 233.824 C 194.721 233.152,195.021 232.000,194.688 232.000 C 194.626 232.000,194.361 232.585,194.100 233.300 M72.854 233.067 C 72.825 233.544,72.696 234.264,72.570 234.667 C 72.352 235.361,72.364 235.362,72.796 234.688 C 73.047 234.297,73.175 233.577,73.081 233.088 C 72.909 232.201,72.909 232.201,72.854 233.067 M306.128 234.300 C 305.714 235.628,305.725 235.711,306.230 235.024 C 306.708 234.373,307.039 232.800,306.698 232.800 C 306.642 232.800,306.385 233.475,306.128 234.300 M381.999 233.900 C 382.522 234.615,383.013 235.200,383.089 235.200 C 383.393 235.200,382.401 233.700,381.745 233.167 C 381.313 232.816,381.410 233.096,381.999 233.900 M323.504 236.425 C 320.524 240.544,320.858 240.527,324.000 236.400 C 325.340 234.640,326.293 233.211,326.118 233.225 C 325.943 233.239,324.767 234.679,323.504 236.425 M357.805 235.500 C 358.163 236.105,358.994 237.230,359.652 238.000 C 360.501 238.993,360.367 238.674,359.189 236.900 C 357.522 234.388,356.591 233.446,357.805 235.500 M22.800 234.950 C 22.800 235.279,24.886 238.806,25.193 238.996 C 25.375 239.108,24.987 238.210,24.331 237.000 C 23.292 235.081,22.800 234.422,22.800 234.950 M152.028 235.000 C 152.028 235.220,152.286 235.850,152.600 236.400 C 152.914 236.950,153.172 237.220,153.172 237.000 C 153.172 236.780,152.914 236.150,152.600 235.600 C 152.286 235.050,152.028 234.780,152.028 235.000 M192.882 236.275 C 191.955 239.001,191.924 239.435,192.785 237.624 C 193.249 236.647,193.578 235.600,193.515 235.298 C 193.452 234.996,193.167 235.436,192.882 236.275 M47.584 237.486 C 46.884 238.523,46.592 239.139,46.935 238.854 C 47.563 238.333,49.310 235.600,49.015 235.600 C 48.928 235.600,48.284 236.449,47.584 237.486 M245.600 235.719 C 245.600 235.803,246.230 236.445,247.000 237.145 C 247.770 237.846,248.400 238.280,248.400 238.110 C 248.400 237.939,247.770 237.297,247.000 236.683 C 246.230 236.069,245.600 235.635,245.600 235.719 M385.222 238.182 C 385.784 238.852,386.751 240.161,387.370 241.091 C 387.989 242.021,388.780 243.011,389.126 243.291 C 390.054 244.041,387.230 240.156,385.600 238.439 C 384.830 237.628,384.660 237.513,385.222 238.182 M153.202 238.024 C 153.201 238.366,153.464 238.996,153.787 239.424 C 154.551 240.434,154.559 239.996,153.802 238.546 C 153.474 237.916,153.204 237.681,153.202 238.024 M71.515 238.610 C 71.392 239.045,71.169 239.760,71.020 240.200 C 70.871 240.640,71.042 240.494,71.400 239.876 C 71.758 239.258,71.981 238.542,71.895 238.286 C 71.810 238.030,71.639 238.176,71.515 238.610 M222.800 238.608 C 222.800 238.913,224.781 242.000,224.977 242.000 C 225.069 242.000,224.691 241.190,224.138 240.200 C 223.219 238.556,222.800 238.058,222.800 238.608 M248.933 238.692 C 249.204 239.130,252.676 241.200,253.139 241.200 C 253.415 241.200,252.459 240.541,250.229 239.195 C 249.365 238.674,248.782 238.447,248.933 238.692 M44.856 240.413 C 44.336 240.846,43.683 241.200,43.405 241.200 C 43.126 241.200,42.678 241.465,42.409 241.789 C 42.012 242.268,42.172 242.255,43.260 241.723 C 44.789 240.975,46.684 239.593,46.154 239.613 C 45.959 239.621,45.375 239.981,44.856 240.413 M302.955 240.612 C 302.590 241.169,302.364 241.698,302.453 241.787 C 302.542 241.876,302.918 241.420,303.289 240.774 C 304.114 239.336,303.869 239.217,302.955 240.612 M361.017 240.000 C 361.200 240.330,362.442 242.133,363.775 244.006 C 365.109 245.880,366.725 248.183,367.367 249.124 C 368.008 250.065,368.709 250.944,368.924 251.077 C 369.294 251.305,368.259 249.770,363.539 243.084 C 361.524 240.231,360.337 238.779,361.017 240.000 M274.624 240.613 C 274.196 240.936,274.027 241.200,274.247 241.200 C 274.467 241.200,274.996 240.936,275.424 240.613 C 275.851 240.290,276.020 240.025,275.800 240.025 C 275.580 240.025,275.051 240.290,274.624 240.613 M318.400 243.200 C 317.060 244.960,316.054 246.400,316.164 246.400 C 316.274 246.400,317.460 244.960,318.800 243.200 C 320.140 241.440,321.146 240.000,321.036 240.000 C 320.926 240.000,319.740 241.440,318.400 243.200 M254.746 241.816 C 255.486 242.137,256.206 242.394,256.346 242.386 C 256.866 242.357,254.576 241.228,254.000 241.230 C 253.670 241.231,254.006 241.494,254.746 241.816 M271.776 241.822 C 271.012 242.434,271.013 242.438,271.800 242.076 C 272.240 241.874,272.870 241.608,273.200 241.486 C 273.718 241.293,273.715 241.259,273.176 241.232 C 272.834 241.214,272.204 241.480,271.776 241.822 M154.814 241.654 C 154.806 241.794,155.063 242.514,155.384 243.254 C 155.706 243.994,155.969 244.330,155.970 244.000 C 155.972 243.424,154.843 241.134,154.814 241.654 M39.700 242.676 C 40.085 242.776,40.715 242.776,41.100 242.676 C 41.485 242.575,41.170 242.493,40.400 242.493 C 39.630 242.493,39.315 242.575,39.700 242.676 M225.206 242.633 C 225.209 242.835,225.856 243.720,226.644 244.600 L 228.076 246.200 226.761 244.400 C 226.037 243.410,225.390 242.525,225.323 242.433 C 225.255 242.342,225.203 242.432,225.206 242.633 M257.300 242.676 C 257.685 242.776,258.315 242.776,258.700 242.676 C 259.085 242.575,258.770 242.493,258.000 242.493 C 257.230 242.493,256.915 242.575,257.300 242.676 M301.600 242.764 C 301.600 242.964,300.915 243.999,300.078 245.064 C 298.265 247.371,297.482 248.702,298.940 247.000 C 300.892 244.721,302.448 242.400,302.025 242.400 C 301.791 242.400,301.600 242.564,301.600 242.764 M34.291 243.089 C 35.001 243.177,36.261 243.179,37.091 243.092 C 37.921 243.005,37.340 242.933,35.800 242.931 C 34.260 242.929,33.581 243.000,34.291 243.089 M262.112 243.095 C 263.164 243.177,264.784 243.176,265.712 243.092 C 266.640 243.008,265.780 242.941,263.800 242.942 C 261.820 242.943,261.060 243.012,262.112 243.095 M4.055 247.121 C 4.741 248.421,5.923 250.186,6.681 251.042 L 8.059 252.600 6.651 250.671 C 5.876 249.609,4.858 247.945,4.387 246.973 C 3.916 246.000,3.368 245.104,3.168 244.980 C 2.969 244.857,3.368 245.820,4.055 247.121 M390.723 245.400 C 390.955 245.840,391.713 246.830,392.408 247.600 L 393.672 249.000 392.365 247.200 C 390.764 244.996,390.164 244.338,390.723 245.400 M188.432 247.539 C 188.195 247.984,188.001 248.584,188.002 248.874 C 188.004 249.163,188.277 248.878,188.610 248.240 C 188.942 247.603,189.136 247.002,189.040 246.906 C 188.943 246.810,188.670 247.095,188.432 247.539 M157.232 247.624 C 157.214 247.966,157.480 248.596,157.822 249.024 C 158.434 249.788,158.438 249.787,158.076 249.000 C 157.874 248.560,157.608 247.930,157.486 247.600 C 157.293 247.082,157.259 247.085,157.232 247.624 M231.800 250.307 C 233.340 251.880,234.870 253.273,235.200 253.405 C 235.733 253.617,235.733 253.582,235.200 253.095 C 234.870 252.793,233.340 251.399,231.800 249.997 L 229.000 247.449 231.800 250.307 M295.600 250.200 C 294.628 251.190,293.923 252.000,294.033 252.000 C 294.143 252.000,295.028 251.190,296.000 250.200 C 296.972 249.210,297.677 248.400,297.567 248.400 C 297.457 248.400,296.572 249.210,295.600 250.200 M66.400 249.100 C 66.400 249.339,65.006 251.034,63.303 252.867 C 61.521 254.786,60.973 255.521,62.012 254.600 C 64.211 252.652,66.983 249.249,66.646 248.912 C 66.511 248.777,66.400 248.862,66.400 249.100 M312.263 251.300 C 311.002 253.058,310.960 253.172,312.006 252.000 C 313.183 250.682,314.185 249.200,313.899 249.200 C 313.829 249.200,313.092 250.145,312.263 251.300 M394.077 249.911 C 397.105 254.032,399.374 256.800,399.725 256.800 C 399.960 256.800,399.877 256.575,399.540 256.300 C 399.203 256.025,397.796 254.315,396.413 252.500 C 395.031 250.685,393.822 249.200,393.727 249.200 C 393.632 249.200,393.790 249.520,394.077 249.911 M187.265 250.617 C 186.595 252.088,186.723 252.402,187.447 251.065 C 187.786 250.440,187.988 249.854,187.896 249.763 C 187.805 249.671,187.521 250.056,187.265 250.617 M337.287 251.844 C 336.565 252.810,336.055 253.600,336.154 253.600 C 336.437 253.600,338.913 250.379,338.748 250.226 C 338.667 250.150,338.009 250.878,337.287 251.844 M370.400 253.400 C 371.081 254.390,371.728 255.200,371.838 255.200 C 371.948 255.200,371.481 254.390,370.800 253.400 C 370.119 252.410,369.472 251.600,369.362 251.600 C 369.252 251.600,369.719 252.410,370.400 253.400 M291.600 253.455 C 289.423 255.165,289.153 255.440,290.200 254.882 C 291.071 254.418,293.925 252.030,293.600 252.037 C 293.490 252.039,292.590 252.677,291.600 253.455 M186.100 253.700 C 185.670 254.875,185.680 254.926,186.212 254.224 C 186.721 253.552,187.021 252.400,186.688 252.400 C 186.626 252.400,186.361 252.985,186.100 253.700 M309.200 255.200 C 308.503 256.080,308.024 257.025,308.135 257.300 C 308.261 257.612,308.349 257.549,308.368 257.133 C 308.386 256.767,308.535 256.407,308.700 256.333 C 309.066 256.171,310.896 253.600,310.646 253.600 C 310.547 253.600,309.897 254.320,309.200 255.200 M9.597 254.540 C 10.248 255.389,14.595 258.800,15.027 258.800 C 15.185 258.800,14.434 258.142,13.358 257.339 C 12.281 256.535,10.867 255.410,10.215 254.839 C 9.564 254.267,9.286 254.133,9.597 254.540 M333.287 257.444 C 332.565 258.410,332.055 259.200,332.154 259.200 C 332.437 259.200,334.913 255.979,334.748 255.826 C 334.667 255.750,334.009 256.478,333.287 257.444 M56.800 258.033 C 55.150 259.114,53.925 259.999,54.079 259.999 C 54.582 260.000,59.060 257.251,59.585 256.619 C 60.300 255.757,60.177 255.819,56.800 258.033 M239.600 256.422 C 240.633 257.126,243.200 258.425,243.200 258.242 C 243.200 258.033,239.605 255.997,239.250 256.006 C 239.112 256.009,239.270 256.196,239.600 256.422 M184.465 257.817 C 183.795 259.288,183.923 259.602,184.647 258.265 C 184.986 257.640,185.188 257.054,185.096 256.963 C 185.005 256.871,184.721 257.256,184.465 257.817 M161.202 257.575 C 161.193 259.873,163.509 261.325,166.821 261.098 L 169.000 260.948 166.362 260.874 C 163.537 260.795,163.027 260.494,161.830 258.199 C 161.486 257.540,161.204 257.259,161.202 257.575 M373.877 258.338 C 374.757 259.966,376.554 261.323,377.502 261.075 C 378.060 260.930,378.031 260.883,377.358 260.846 C 376.522 260.800,375.260 259.748,373.877 257.943 C 373.179 257.033,373.179 257.047,373.877 258.338 M15.828 259.246 C 16.085 259.661,19.275 261.258,19.466 261.067 C 19.536 260.998,18.696 260.478,17.599 259.913 C 16.503 259.348,15.706 259.048,15.828 259.246 M113.232 259.276 C 113.194 260.078,112.702 260.424,111.035 260.823 C 109.857 261.105,109.849 261.120,110.856 261.159 C 112.142 261.209,113.799 259.957,113.488 259.170 C 113.316 258.734,113.256 258.759,113.232 259.276 M245.149 259.300 C 245.451 259.685,246.081 259.979,246.549 259.954 C 247.357 259.910,247.360 259.897,246.600 259.711 C 246.160 259.602,245.530 259.308,245.200 259.057 C 244.678 258.660,244.672 258.691,245.149 259.300 M281.200 259.433 C 280.642 259.743,280.465 259.985,280.800 259.981 C 281.130 259.978,281.749 259.710,282.176 259.387 C 283.139 258.659,282.545 258.687,281.200 259.433 M308.000 259.182 C 308.000 261.407,329.574 262.462,331.438 260.328 L 332.200 259.455 331.211 260.128 C 330.348 260.714,328.912 260.800,319.940 260.800 L 309.658 260.800 308.829 259.746 C 308.373 259.166,308.000 258.913,308.000 259.182 M93.200 259.525 C 93.200 260.844,95.141 261.200,101.886 261.119 L 108.600 261.037 101.600 260.795 C 97.750 260.661,94.568 260.518,94.529 260.476 C 93.644 259.535,93.200 259.218,93.200 259.525 M182.937 260.189 C 182.310 260.628,180.580 260.809,176.148 260.901 L 170.200 261.023 176.200 261.103 C 181.618 261.174,182.297 261.106,183.200 260.400 C 184.368 259.487,184.168 259.327,182.937 260.189 M398.576 260.187 C 397.964 260.651,396.069 260.797,389.600 260.879 L 381.400 260.982 389.477 261.099 C 396.988 261.208,397.646 261.160,398.877 260.410 C 399.605 259.966,400.009 259.602,399.776 259.601 C 399.544 259.601,399.004 259.864,398.576 260.187 M278.200 260.490 C 277.760 260.746,276.770 261.080,276.000 261.232 C 274.637 261.501,274.632 261.509,275.800 261.540 C 276.460 261.558,277.720 261.225,278.600 260.800 C 279.480 260.375,279.930 260.027,279.600 260.026 C 279.270 260.025,278.640 260.234,278.200 260.490 M51.000 261.014 C 50.340 261.317,50.081 261.572,50.424 261.582 C 50.766 261.592,51.396 261.336,51.824 261.013 C 52.772 260.296,52.569 260.296,51.000 261.014 M21.146 261.816 C 21.886 262.137,22.606 262.394,22.746 262.386 C 23.266 262.357,20.976 261.228,20.400 261.230 C 20.070 261.231,20.406 261.494,21.146 261.816 M48.687 261.846 C 48.551 261.982,47.846 262.233,47.120 262.405 C 46.027 262.664,45.972 262.723,46.800 262.745 C 47.350 262.760,48.250 262.514,48.800 262.200 C 49.350 261.886,49.605 261.622,49.367 261.614 C 49.128 261.606,48.822 261.711,48.687 261.846 M253.463 261.984 C 253.720 262.262,255.147 262.546,256.663 262.620 L 259.400 262.753 257.000 262.426 C 255.680 262.246,254.240 261.960,253.800 261.790 C 253.171 261.548,253.099 261.589,253.463 261.984 M272.800 262.000 C 272.267 262.345,272.267 262.388,272.800 262.388 C 273.130 262.388,273.670 262.213,274.000 262.000 C 274.533 261.655,274.533 261.612,274.000 261.612 C 273.670 261.612,273.130 261.787,272.800 262.000 M269.305 262.687 C 269.914 262.779,270.814 262.777,271.305 262.682 C 271.797 262.587,271.300 262.511,270.200 262.514 C 269.100 262.517,268.697 262.595,269.305 262.687 M26.800 263.366 C 27.570 263.681,28.830 263.930,29.600 263.920 L 31.000 263.900 29.400 263.610 C 28.520 263.451,27.260 263.202,26.600 263.057 C 25.512 262.817,25.530 262.846,26.800 263.366 M43.506 263.028 C 43.381 263.153,42.406 263.402,41.339 263.581 C 40.018 263.802,39.782 263.915,40.600 263.935 C 41.260 263.951,42.700 263.715,43.800 263.409 C 45.151 263.034,45.465 262.845,44.767 262.827 C 44.198 262.812,43.631 262.902,43.506 263.028 M263.300 263.087 C 263.905 263.178,264.895 263.178,265.500 263.087 C 266.105 262.995,265.610 262.920,264.400 262.920 C 263.190 262.920,262.695 262.995,263.300 263.087 "
              stroke="none" fill="#d5df53" fill-rule="evenodd"></path>
    </g>
</svg>
