<svg id="Layer_1" xmlns="http://www.w3.org/2000/svg" viewBox="0 0 94 31"><style>.st0,.st1{fill:#4c6072}.st1{fill-rule:evenodd;clip-rule:evenodd}</style><title>logo_trend_report</title><circle class="st0" cx="4.3" cy="26.8" r="4.1"/><circle class="st1" cx="19.1" cy="26.8" r="2.9"/><circle class="st1" cx="31.2" cy="26.8" r="1.3"/><g><path class="st0" d="M18.3 18.2c-.7 0-1.2-.6-1.2-1.2v-5.3c0-1.8-.9-3.2-2.8-3.2-2 0-3.2 1.5-3.2 3.3V17c0 .7-.5 1.2-1.2 1.2s-1.2-.6-1.2-1.2v-5.3c0-1.8-1-3.2-2.9-3.2-2 0-3.1 1.5-3.1 3.3V17c0 .7-.5 1.2-1.2 1.2-1 0-1.5-.5-1.5-1.2V7.6c0-.7.5-1.3 1.2-1.3.9 0 1.2.6 1.2 1.3v.9C3.2 7 4.7 6.2 6.3 6.2c1.9 0 3.3 1 4.1 2.4 1-1.6 2.6-2.4 4.4-2.4 3.2 0 4.8 2.2 4.8 5.3V17c-.1.7-.6 1.2-1.3 1.2zM23 1.6c.8 0 1.5.7 1.5 1.5s-.7 1.4-1.5 1.4-1.5-.7-1.5-1.5.7-1.4 1.5-1.4zm0 16.6c-.7 0-1.2-.6-1.2-1.2V7.5c0-.7.5-1.2 1.2-1.2s1.2.6 1.2 1.2V17c.1.7-.4 1.2-1.2 1.2zM31.3 10.6l3.2-3.9c.2-.2.5-.4.8-.4.7 0 1.1.5 1.1 1.1 0 .2-.1.5-.3.7l-3.5 4.1 3.5 4.2c.2.2.3.4.3.7 0 .6-.5 1.1-1.1 1.1-.4 0-.7-.1-.9-.4l-3.2-4-3.2 4c-.2.3-.5.4-.9.4-.6 0-1.1-.5-1.1-1.1 0-.3.1-.5.3-.7l3.5-4.2-3.5-4.1c-.2-.2-.3-.5-.3-.7 0-.6.5-1.1 1.1-1.1.3 0 .6.1.8.4l3.4 3.9zM45 18.4c-1.8 0-3.2-.9-4.1-2.3V22c0 .7-.5 1.2-1.2 1.2s-1.2-.6-1.2-1.2V7.5c0-.7.4-1.2 1.2-1.2.8 0 1.2.6 1.2 1.3v.9c.8-1.4 2.4-2.3 4.2-2.3 3.1 0 5.6 2.6 5.6 6.1-.2 3.6-2.7 6.1-5.7 6.1zm-.5-10.1c-2.2 0-3.6 1.9-3.6 4s1.4 4 3.6 4 3.6-1.6 3.6-4-1.5-4-3.6-4zM63.7 17c0 .7-.5 1.2-1.2 1.2s-1.2-.6-1.2-1.2v-.6c-.7 1.1-2.2 1.9-3.9 1.9-3.7 0-5.9-2.7-5.9-6.1 0-3.3 2.4-6.1 6.1-6.1 3.8 0 6.1 2.5 6.1 6.1V17zm-6.1-8.7c-2.1 0-3.6 1.8-3.6 4 0 2.3 1.2 4 3.6 4 2.2 0 3.6-1.9 3.6-4 0-2.5-1.5-4-3.6-4zM71.2 6.2c3.2 0 5.6 2.4 5.6 5.6V17c0 .7-.6 1.2-1.2 1.2-.7 0-1.2-.6-1.2-1.2v-5.6c0-1.7-1.3-3-3.1-3s-3.1 1.3-3.1 3V17c0 .7-.6 1.2-1.2 1.2-.7 0-1.2-.6-1.2-1.2v-5.3c-.1-3.1 2.2-5.5 5.4-5.5zM89.8 12.3c0 .4-.2.9-1 .9h-7.9c.1 1.8 1.4 3.2 3.6 3.2 1.4 0 2.2-.5 3.1-1.3.2-.2.5-.4.8-.4.6 0 1 .4 1 1 0 .3-.1.5-.3.7-1 1.2-2.8 1.9-4.7 1.9-4 0-6.1-2.8-6.1-6.1 0-3.5 2.5-6.1 6-6.1 3.3.1 5.5 2.8 5.5 6.2zm-5.5-4.1c-1.8 0-3.1 1.3-3.3 3h6.5c-.2-1.7-1.4-3-3.2-3zM92.7 18.2c-.7 0-1.2-.6-1.2-1.2V1.4c0-.7.5-1.2 1.2-1.2s1.2.6 1.2 1.2V17c.1.7-.4 1.2-1.2 1.2z"/></g></svg>