<?xml version="1.0" encoding="UTF-8" standalone="no"?>
<!-- Created with Inkscape (http://www.inkscape.org/) -->

<svg
   xmlns:dc="http://purl.org/dc/elements/1.1/"
   xmlns:cc="http://creativecommons.org/ns#"
   xmlns:rdf="http://www.w3.org/1999/02/22-rdf-syntax-ns#"
   xmlns:svg="http://www.w3.org/2000/svg"
   xmlns="http://www.w3.org/2000/svg"
   xmlns:sodipodi="http://sodipodi.sourceforge.net/DTD/sodipodi-0.dtd"
   xmlns:inkscape="http://www.inkscape.org/namespaces/inkscape"
   width="623.83728"
   height="166.27394"
   id="svg4409"
   version="1.1"
   inkscape:version="0.48.4 r9939"
   sodipodi:docname="Neues Dokument 5"
   viewBox="0 0 623.83728 166.27394">
  <defs
     id="defs4411">
    <clipPath
       clipPathUnits="userSpaceOnUse"
       id="clipPath3285">
      <path
         inkscape:connector-curvature="0"
         d="m 393.33,545.488 91.954,0 0,24.509 -91.954,0 0,-24.509 z"
         id="path3287" />
    </clipPath>
    <clipPath
       clipPathUnits="userSpaceOnUse"
       id="clipPath3285-9">
      <path
         inkscape:connector-curvature="0"
         d="m 393.33,545.488 91.954,0 0,24.509 -91.954,0 0,-24.509 z"
         id="path3287-9" />
    </clipPath>
    <clipPath
       clipPathUnits="userSpaceOnUse"
       id="clipPath3301">
      <path
         inkscape:connector-curvature="0"
         d="m 394.691,584.443 c 0,0 -5.276,0 -5.276,-5.277 l 0,0 0,-34.41 c 0,0 0,-5.276 5.276,-5.276 l 0,0 90.453,0 c 0,0 5.277,0 5.277,5.276 l 0,0 0,34.41 c 0,0 0,5.277 -5.277,5.277 l 0,0 -90.453,0 z"
         id="path3303" />
    </clipPath>
    <clipPath
       clipPathUnits="userSpaceOnUse"
       id="clipPath3285-7">
      <path
         inkscape:connector-curvature="0"
         d="m 393.33,545.488 91.954,0 0,24.509 -91.954,0 0,-24.509 z"
         id="path3287-7" />
    </clipPath>
    <clipPath
       clipPathUnits="userSpaceOnUse"
       id="clipPath3247">
      <path
         inkscape:connector-curvature="0"
         d="m 394.691,584.443 c 0,0 -5.276,0 -5.276,-5.277 l 0,0 0,-34.41 c 0,0 0,-5.276 5.276,-5.276 l 0,0 90.453,0 c 0,0 5.277,0 5.277,5.276 l 0,0 0,34.41 c 0,0 0,5.277 -5.277,5.277 l 0,0 -90.453,0 z"
         id="path3249" />
    </clipPath>
    <clipPath
       clipPathUnits="userSpaceOnUse"
       id="clipPath3235">
      <path
         inkscape:connector-curvature="0"
         d="m 0,0 595.276,0 0,841.89 L 0,841.89 0,0 z"
         id="path3237" />
    </clipPath>
    <clipPath
       clipPathUnits="userSpaceOnUse"
       id="clipPath3301-7">
      <path
         inkscape:connector-curvature="0"
         d="m 394.691,584.443 c 0,0 -5.276,0 -5.276,-5.277 l 0,0 0,-34.41 c 0,0 0,-5.276 5.276,-5.276 l 0,0 90.453,0 c 0,0 5.277,0 5.277,5.276 l 0,0 0,34.41 c 0,0 0,5.277 -5.277,5.277 l 0,0 -90.453,0 z"
         id="path3303-8" />
    </clipPath>
    <clipPath
       clipPathUnits="userSpaceOnUse"
       id="clipPath3285-7-5">
      <path
         inkscape:connector-curvature="0"
         d="m 393.33,545.488 91.954,0 0,24.509 -91.954,0 0,-24.509 z"
         id="path3287-7-1" />
    </clipPath>
    <clipPath
       clipPathUnits="userSpaceOnUse"
       id="clipPath3247-4">
      <path
         inkscape:connector-curvature="0"
         d="m 394.691,584.443 c 0,0 -5.276,0 -5.276,-5.277 l 0,0 0,-34.41 c 0,0 0,-5.276 5.276,-5.276 l 0,0 90.453,0 c 0,0 5.277,0 5.277,5.276 l 0,0 0,34.41 c 0,0 0,5.277 -5.277,5.277 l 0,0 -90.453,0 z"
         id="path3249-3" />
    </clipPath>
  </defs>
  <sodipodi:namedview
     id="base"
     pagecolor="#ffffff"
     bordercolor="#666666"
     borderopacity="1.0"
     inkscape:pageopacity="0.0"
     inkscape:pageshadow="2"
     inkscape:zoom="0.35"
     inkscape:cx="201.91867"
     inkscape:cy="66.166063"
     inkscape:document-units="px"
     inkscape:current-layer="g3243"
     showgrid="false"
     inkscape:window-width="505"
     inkscape:window-height="423"
     inkscape:window-x="130"
     inkscape:window-y="130"
     inkscape:window-maximized="0"
     fit-margin-top="0"
     fit-margin-left="0"
     fit-margin-right="0"
     fit-margin-bottom="0" />
  <metadata
     id="metadata4414">
    <rdf:RDF>
      <cc:Work
         rdf:about="">
        <dc:format>image/svg+xml</dc:format>
        <dc:type
           rdf:resource="http://purl.org/dc/dcmitype/StillImage" />
        <dc:title></dc:title>
      </cc:Work>
    </rdf:RDF>
  </metadata>
  <g
     inkscape:label="Ebene 1"
     inkscape:groupmode="layer"
     id="layer1"
     transform="translate(-148.08133,-432.25431)">
    <g
       id="g4597"
       transform="matrix(2.9913951,0,0,2.9913951,-619.63647,-958.66384)">
      <g
         id="g3243"
         transform="matrix(1.25,0,0,-1.25,-175.61066,1211.9565)">
        <g
           id="g4749"
           transform="matrix(1.8143386,0,0,1.8143386,-306.554,-338.3007)">
          <g
             id="g3245"
             clip-path="url(#clipPath3247-4)"
             transform="translate(-33.774085,-54.168561)">
            <g
               id="g3251"
               transform="translate(430.8365,562.9683)">
              <path
                 inkscape:connector-curvature="0"
                 d="m 0,0 0,-0.755 c -0.862,0.61 -1.99,0.948 -3.322,0.948 -3.315,0 -5.339,-2.326 -5.339,-5.277 0,-3.038 2.109,-5.491 5.081,-5.491 1.315,0 2.047,0.43 2.799,0.99 0.298,0.202 0.552,0.472 0.776,0.73 l 0,-1.504 1.895,0 0,4.529 c 0.003,0.057 0.004,0.119 0.004,0.183 L 1.894,0 0,0 z m -0.781,-7.345 c -0.645,-0.817 -1.526,-1.42 -2.603,-1.42 -1.982,0 -3.382,1.615 -3.382,3.53 0,1.962 1.312,3.62 3.401,3.62 1.724,0 3.36,-0.99 3.36,-2.928 l 0,-0.943 c 0,-0.521 -0.46,-1.545 -0.776,-1.859"
                 style="fill:#372b28;fill-opacity:1;fill-rule:nonzero;stroke:none"
                 id="path3253" />
            </g>
            <g
               id="g3255"
               transform="translate(436.7101,552.6089)">
              <path
                 inkscape:connector-curvature="0"
                 d="m 0,0 -1.894,0 0,10.659 c 0,2.347 1.529,3.769 3.661,3.769 l 1.334,0 0,-1.808 -1.077,0 C 0.775,12.62 0,12.016 0,10.702 l 0,-0.363 3.888,0 0,-1.809 L 0,8.53 0,0 z"
                 style="fill:#372b28;fill-opacity:1;fill-rule:nonzero;stroke:none"
                 id="path3257" />
            </g>
            <g
               id="g3259"
               transform="translate(442.1688,552.6089)">
              <path
                 inkscape:connector-curvature="0"
                 d="m 0,0 -1.895,0 0,10.659 c 0,2.347 1.529,3.769 3.661,3.769 l 1.336,0 0,-1.808 -1.078,0 C 0.776,12.62 0,12.016 0,10.702 l 0,-0.363 3.102,0 0,-1.809 L 0,8.53 0,0 z"
                 style="fill:#372b28;fill-opacity:1;fill-rule:nonzero;stroke:none"
                 id="path3261" />
            </g>
            <g
               id="g3263"
               transform="translate(447.7718,564.8486)">
              <path
                 inkscape:connector-curvature="0"
                 d="m 0,0 c -0.732,0 -1.141,0.562 -1.141,1.145 0,0.579 0.409,1.14 1.141,1.14 0.73,0 1.142,-0.561 1.142,-1.14 C 1.142,0.562 0.73,0 0,0 m 0.949,-12.24 -1.897,0 0,10.339 1.897,0 0,-10.339 z"
                 style="fill:#372b28;fill-opacity:1;fill-rule:nonzero;stroke:none"
                 id="path3265" />
            </g>
            <path
               inkscape:connector-curvature="0"
               d="m 450.875,552.608 1.896,0 0,14.429 -1.896,0 0,-14.429 z"
               style="fill:#372b28;fill-opacity:1;fill-rule:nonzero;stroke:none"
               id="path3267" />
            <g
               id="g3269"
               transform="translate(455.872,564.8486)">
              <path
                 inkscape:connector-curvature="0"
                 d="m 0,0 c -0.731,0 -1.141,0.562 -1.141,1.145 0,0.579 0.41,1.14 1.141,1.14 0.732,0 1.141,-0.561 1.141,-1.14 C 1.141,0.562 0.732,0 0,0 m 0.949,-12.24 -1.897,0 0,10.339 1.897,0 0,-10.339 z"
                 style="fill:#372b28;fill-opacity:1;fill-rule:nonzero;stroke:none"
                 id="path3271" />
            </g>
            <g
               id="g3273"
               transform="translate(467.7414,552.6089)">
              <path
                 inkscape:connector-curvature="0"
                 d="m 0,0 -1.896,0 0,6.032 c 0,1.593 -1.164,2.712 -2.52,2.712 -1.356,0 -2.521,-1.119 -2.521,-2.712 l 0,-6.032 -1.894,0 0,4.464 C -8.835,4.523 -8.837,4.589 -8.837,4.66 l 0,5.646 1.895,0 0,-0.483 c 0.706,0.47 1.57,0.731 2.526,0.731 C -1.896,10.554 0,8.744 0,6.032 L 0,0 z"
                 style="fill:#372b28;fill-opacity:1;fill-rule:nonzero;stroke:none"
                 id="path3275" />
            </g>
            <g
               id="g3277"
               transform="translate(477.3364,555.7366)">
              <path
                 inkscape:connector-curvature="0"
                 d="m 0,0 c -0.608,-0.927 -1.624,-1.554 -2.852,-1.554 -1.721,0 -3.05,1.217 -3.374,2.793 l 0.029,0 8.625,0 c 0.043,0.292 0.071,0.593 0.071,0.901 0,2.956 -2.027,5.287 -5.351,5.287 -3.325,0 -5.354,-2.331 -5.354,-5.287 0,-3.046 2.213,-5.491 5.354,-5.491 2.355,0 4.19,1.38 4.957,3.351 L 0,0 z m -2.896,5.614 c 0.014,0 0.028,-0.003 0.044,-0.003 0.013,0 0.027,0.003 0.043,0.003 1.733,0 2.917,-1.14 3.278,-2.647 l -6.646,0 c 0.363,1.507 1.548,2.647 3.281,2.647"
                 style="fill:#372b28;fill-opacity:1;fill-rule:nonzero;stroke:none"
                 id="path3279" />
            </g>
          </g>
          <g
             transform="translate(-33.774085,-54.168561)"
             id="g3281">
            <g
               id="g3283"
               clip-path="url(#clipPath3285-7-5)">
              <g
                 id="g3289"
                 transform="translate(481.2247,555.9464)">
                <path
                   inkscape:connector-curvature="0"
                   d="m 0,0 c 0,-2.045 1.121,-3.337 3.058,-3.337 l 1.001,0 0,1.809 -0.742,0 c -0.969,0 -1.422,0.322 -1.422,1.291 l 0,5.427 2.164,0 0,1.811 -2.164,0 0,2.584 L 0,9.585 0,0 z"
                   style="fill:#372b28;fill-opacity:1;fill-rule:nonzero;stroke:none"
                   id="path3291" />
              </g>
              <g
                 id="g3293"
                 transform="translate(414.8394,553.6332)">
                <path
                   inkscape:connector-curvature="0"
                   d="m 0,0 c -0.508,-1.144 -1.223,-2.176 -2.099,-3.052 -1.835,-1.834 -4.359,-2.966 -7.16,-2.966 -2.8,0 -5.325,1.132 -7.163,2.966 -1.832,1.835 -2.964,4.36 -2.964,7.161 0,2.803 1.132,5.327 2.964,7.164 1.838,1.832 4.363,2.964 7.163,2.967 2.801,-0.003 5.325,-1.135 7.16,-2.967 0.859,-0.858 1.561,-1.867 2.068,-2.982 l 2.292,0 c -0.618,1.703 -1.602,3.229 -2.858,4.482 -2.214,2.219 -5.282,3.591 -8.662,3.591 -3.38,0 -6.45,-1.372 -8.665,-3.591 -2.214,-2.212 -3.588,-5.281 -3.586,-8.664 -0.002,-3.379 1.372,-6.449 3.586,-8.663 2.215,-2.215 5.284,-3.591 8.665,-3.591 l 0.001,0 c 3.379,0 6.45,1.376 8.661,3.591 C 0.676,-3.283 1.67,-1.732 2.286,0 L 0,0 z"
                   style="fill:#ef2e30;fill-opacity:1;fill-rule:nonzero;stroke:none"
                   id="path3295" />
              </g>
            </g>
          </g>
          <g
             transform="translate(-33.774085,-54.168561)"
             id="g3297">
            <g
               id="g3299"
               clip-path="url(#clipPath3301-7)">
              <g
                 id="g3305"
                 transform="translate(411.4379,563.6049)">
                <path
                   inkscape:connector-curvature="0"
                   d="m 0,0 c -1.495,1.497 -3.572,2.427 -5.858,2.427 -2.285,0 -4.363,-0.93 -5.86,-2.427 -0.499,-0.499 -0.935,-1.067 -1.297,-1.681 l 2.629,0 c 0.057,0.059 0.113,0.12 0.172,0.179 1.119,1.115 2.652,1.805 4.356,1.805 1.705,0 3.239,-0.69 4.358,-1.805 1.116,-1.12 1.803,-2.654 1.803,-4.36 0,-1.706 -0.687,-3.239 -1.803,-4.357 -1.119,-1.119 -2.653,-1.805 -4.358,-1.805 -1.704,0 -3.237,0.686 -4.356,1.805 -0.081,0.082 -0.159,0.162 -0.234,0.247 l -2.607,0 c 0.368,-0.643 0.818,-1.232 1.337,-1.749 1.497,-1.498 3.575,-2.429 5.86,-2.429 2.286,0 4.363,0.931 5.858,2.429 1.497,1.496 2.428,3.575 2.428,5.859 C 2.428,-3.575 1.497,-1.498 0,0"
                   style="fill:#ef2e30;fill-opacity:1;fill-rule:nonzero;stroke:none"
                   id="path3307" />
              </g>
              <g
                 id="g3309"
                 transform="translate(405.5803,553.5647)">
                <path
                   inkscape:connector-curvature="0"
                   d="m 0,0 c -1.152,0 -2.202,0.469 -2.954,1.223 -0.755,0.752 -1.226,1.804 -1.226,2.958 0,1.151 0.471,2.201 1.226,2.954 C -2.202,7.89 -1.152,8.359 0,8.359 1.152,8.359 2.202,7.89 2.954,7.135 3.708,6.382 4.178,5.332 4.178,4.181 4.178,3.027 3.708,1.975 2.954,1.223 2.202,0.469 1.152,0 0,0 M -1.452,5.632 C -1.826,5.26 -2.053,4.75 -2.055,4.181 -2.053,3.607 -1.826,3.1 -1.452,2.725 -1.077,2.351 -0.571,2.124 0,2.124 c 0.571,0 1.078,0.227 1.452,0.601 0.373,0.375 0.6,0.882 0.6,1.456 0,0.569 -0.227,1.079 -0.6,1.451 C 1.078,6.006 0.571,6.233 0,6.233 c -0.571,0 -1.077,-0.227 -1.452,-0.601"
                   style="fill:#ef2e30;fill-opacity:1;fill-rule:nonzero;stroke:none"
                   id="path3311" />
              </g>
            </g>
          </g>
        </g>
      </g>
    </g>
  </g>
</svg>
