<svg id="svg" version="1.1" width="400" height="240" xmlns="http://www.w3.org/2000/svg" xmlns:xlink="http://www.w3.org/1999/xlink" style="display: block;"><g id="svgg"><path id="path0" d="M63.464 86.315 C 63.465 87.239,63.509 87.588,63.561 87.089 C 63.613 86.591,63.612 85.835,63.559 85.409 C 63.506 84.983,63.463 85.390,63.464 86.315 M40.036 142.066 C 40.333 142.123,40.819 142.123,41.116 142.066 C 41.414 142.009,41.170 141.962,40.576 141.962 C 39.982 141.962,39.739 142.009,40.036 142.066 M61.405 142.066 C 61.702 142.123,62.188 142.123,62.485 142.066 C 62.782 142.009,62.539 141.962,61.945 141.962 C 61.351 141.962,61.107 142.009,61.405 142.066 " stroke="none" fill="#000000" fill-rule="evenodd"></path><path id="path1" d="M50.605 79.646 C 51.036 79.699,51.684 79.698,52.045 79.643 C 52.406 79.589,52.053 79.545,51.261 79.546 C 50.468 79.548,50.173 79.592,50.605 79.646 M39.776 82.273 C 39.688 82.361,39.623 82.658,39.631 82.933 C 39.645 83.393,39.665 83.387,39.876 82.858 C 40.111 82.270,40.063 81.986,39.776 82.273 M62.905 84.365 C 62.905 84.563,63.013 84.792,63.145 84.874 C 63.277 84.956,63.385 84.860,63.385 84.662 C 63.385 84.464,63.277 84.235,63.145 84.154 C 63.013 84.072,62.905 84.167,62.905 84.365 M39.216 85.850 C 39.137 86.057,39.181 86.336,39.314 86.469 C 39.476 86.631,39.556 86.508,39.556 86.092 C 39.556 85.390,39.428 85.299,39.216 85.850 M39.852 90.268 C 40.200 90.918,40.555 91.087,40.410 90.533 C 40.343 90.278,40.135 90.010,39.947 89.938 C 39.676 89.834,39.656 89.903,39.852 90.268 M40.343 91.312 C 40.329 91.703,40.840 92.437,41.125 92.433 C 41.326 92.431,41.335 92.375,41.156 92.253 C 41.013 92.156,40.773 91.861,40.623 91.597 C 40.473 91.333,40.347 91.205,40.343 91.312 M280.343 93.763 C 280.229 94.061,280.290 94.082,280.678 93.875 C 281.234 93.577,281.287 93.397,280.818 93.397 C 280.634 93.397,280.420 93.562,280.343 93.763 M200.828 94.337 C 200.902 94.458,200.828 94.605,200.662 94.665 C 200.496 94.724,200.424 94.842,200.502 94.927 C 200.580 95.011,200.839 94.864,201.079 94.599 C 201.482 94.154,201.484 94.118,201.103 94.118 C 200.877 94.118,200.753 94.216,200.828 94.337 M221.849 94.289 C 222.047 94.362,222.346 94.531,222.514 94.664 C 222.743 94.845,222.782 94.807,222.669 94.512 C 222.586 94.295,222.286 94.126,222.003 94.137 C 221.652 94.150,221.603 94.198,221.849 94.289 M305.874 94.488 C 305.664 94.741,305.644 94.936,305.813 95.105 C 305.982 95.274,306.097 95.157,306.178 94.735 C 306.316 94.015,306.286 93.991,305.874 94.488 M349.500 94.278 C 349.270 94.507,349.302 94.838,349.554 94.838 C 349.672 94.838,349.831 94.676,349.907 94.478 C 350.047 94.112,349.791 93.986,349.500 94.278 M164.700 94.974 C 164.555 95.356,164.466 103.262,164.466 115.835 L 164.466 136.081 164.972 136.648 L 165.478 137.215 165.092 136.563 C 164.636 135.793,164.491 96.155,164.940 94.974 C 165.069 94.635,165.120 94.358,165.054 94.358 C 164.988 94.358,164.829 94.635,164.700 94.974 M285.114 98.439 C 284.512 98.592,284.611 98.627,285.714 98.647 C 286.647 98.665,286.929 98.604,286.675 98.439 C 286.271 98.179,286.138 98.179,285.114 98.439 M288.175 98.845 C 288.406 98.905,288.785 98.905,289.016 98.845 C 289.247 98.785,289.058 98.735,288.595 98.735 C 288.133 98.735,287.944 98.785,288.175 98.845 M228.764 99.208 C 228.922 99.366,229.052 99.708,229.052 99.968 C 229.052 100.228,229.119 100.373,229.201 100.291 C 229.437 100.055,229.072 98.920,228.759 98.920 C 228.543 98.920,228.545 98.989,228.764 99.208 M174.070 102.290 C 174.070 102.620,175.151 102.755,177.791 102.754 C 180.417 102.754,181.540 102.527,180.637 102.180 C 180.066 101.962,174.070 102.061,174.070 102.290 M210.147 102.393 C 209.486 102.684,209.214 103.481,209.775 103.481 C 209.841 103.481,209.833 103.319,209.757 103.121 C 209.681 102.923,209.751 102.754,209.911 102.746 C 210.072 102.738,211.959 102.729,214.103 102.726 C 217.329 102.722,217.947 102.667,217.685 102.405 C 217.219 101.939,211.198 101.930,210.147 102.393 M181.513 102.535 C 181.513 102.659,181.801 102.761,182.153 102.761 C 182.875 102.761,182.801 102.557,182.025 102.407 C 181.743 102.353,181.513 102.410,181.513 102.535 M269.688 103.174 C 269.342 103.298,269.275 104.202,269.612 104.202 C 269.831 104.202,270.231 103.272,270.070 103.136 C 270.025 103.098,269.853 103.115,269.688 103.174 M308.531 103.767 C 308.527 103.991,308.639 104.245,308.779 104.332 C 309.203 104.593,309.262 104.317,308.889 103.824 C 308.581 103.418,308.538 103.411,308.531 103.767 M67.047 104.701 C 67.278 104.836,67.467 105.121,67.467 105.334 C 67.467 105.548,67.531 105.658,67.609 105.580 C 67.878 105.311,67.434 104.442,67.031 104.449 C 66.662 104.456,66.664 104.478,67.047 104.701 M295.668 115.366 C 295.668 121.044,295.700 123.333,295.738 120.452 C 295.776 117.571,295.776 112.925,295.738 110.128 C 295.700 107.331,295.668 109.688,295.668 115.366 M146.699 105.882 C 146.699 106.014,146.861 106.122,147.059 106.122 C 147.257 106.122,147.419 106.248,147.419 106.403 C 147.419 106.557,147.488 106.613,147.573 106.528 C 147.752 106.350,147.222 105.642,146.909 105.642 C 146.793 105.642,146.699 105.750,146.699 105.882 M301.190 115.606 C 301.190 121.020,301.222 123.270,301.260 120.604 C 301.299 117.939,301.299 113.509,301.260 110.760 C 301.222 108.011,301.190 110.192,301.190 115.606 M337.515 109.338 C 337.284 109.513,337.095 109.723,337.095 109.803 C 337.095 110.073,337.777 109.690,337.909 109.345 C 338.067 108.933,338.049 108.933,337.515 109.338 M64.262 112.605 C 64.462 113.006,64.799 113.313,65.024 113.297 C 65.394 113.272,65.394 113.261,65.029 113.164 C 64.810 113.106,64.565 112.795,64.484 112.472 C 64.403 112.149,64.239 111.885,64.119 111.885 C 64.000 111.885,64.064 112.209,64.262 112.605 M209.527 113.952 C 209.635 114.232,209.595 114.309,209.405 114.191 C 209.223 114.079,209.124 114.202,209.124 114.541 C 209.124 114.979,209.182 115.016,209.484 114.766 C 209.896 114.424,209.955 113.903,209.607 113.687 C 209.466 113.600,209.433 113.708,209.527 113.952 M66.026 115.802 C 66.026 116.011,66.173 116.269,66.351 116.375 C 66.530 116.480,66.801 116.891,66.953 117.287 L 67.230 118.007 67.093 117.306 C 66.932 116.478,66.026 115.201,66.026 115.802 M328.829 115.863 C 328.621 116.071,328.451 116.359,328.451 116.504 C 328.451 116.648,328.480 116.722,328.514 116.667 C 328.548 116.612,328.781 116.324,329.031 116.026 C 329.549 115.412,329.400 115.292,328.829 115.863 M388.475 116.031 C 388.475 116.231,388.637 116.457,388.836 116.533 C 389.034 116.609,389.196 116.580,389.196 116.468 C 389.196 116.357,389.034 116.131,388.836 115.966 C 388.542 115.723,388.475 115.735,388.475 116.031 M141.312 116.807 C 141.466 117.605,141.802 118.062,142.051 117.813 C 142.141 117.723,142.049 117.460,141.847 117.228 C 141.645 116.996,141.410 116.645,141.326 116.447 C 141.242 116.248,141.236 116.411,141.312 116.807 M193.240 117.076 C 193.077 117.456,192.786 117.957,192.592 118.189 C 192.398 118.421,192.311 118.682,192.398 118.769 C 192.486 118.856,192.557 118.795,192.557 118.633 C 192.557 118.471,192.665 118.406,192.797 118.487 C 192.929 118.569,193.038 118.494,193.039 118.321 C 193.040 118.149,193.204 117.694,193.403 117.311 C 193.603 116.928,193.714 116.563,193.651 116.500 C 193.587 116.436,193.402 116.696,193.240 117.076 M313.380 117.452 C 313.433 117.609,313.604 117.780,313.761 117.832 C 313.936 117.891,313.990 117.781,313.900 117.547 C 313.733 117.111,313.236 117.020,313.380 117.452 M389.241 117.662 C 389.298 117.835,389.488 118.024,389.661 118.082 C 389.841 118.142,389.931 118.052,389.871 117.872 C 389.813 117.699,389.624 117.510,389.451 117.452 C 389.271 117.392,389.181 117.482,389.241 117.662 M67.752 119.103 C 67.810 119.276,67.999 119.465,68.172 119.523 C 68.352 119.583,68.442 119.493,68.382 119.313 C 68.325 119.139,68.136 118.950,67.962 118.893 C 67.782 118.833,67.692 118.923,67.752 119.103 M151.501 119.171 C 151.501 119.217,151.717 119.503,151.981 119.808 C 152.502 120.409,152.608 120.291,152.212 119.552 C 152.004 119.163,151.501 118.893,151.501 119.171 M320.697 119.904 C 320.934 120.222,321.163 120.448,321.205 120.408 C 321.331 120.288,320.669 119.328,320.459 119.328 C 320.353 119.328,320.460 119.587,320.697 119.904 M222.955 122.349 C 222.865 122.583,222.919 122.693,223.094 122.634 C 223.453 122.514,223.651 121.969,223.335 121.969 C 223.206 121.969,223.035 122.140,222.955 122.349 M77.072 122.503 C 77.072 122.599,77.287 123.031,77.550 123.464 C 77.814 123.896,78.029 124.142,78.029 124.010 C 78.028 123.878,77.813 123.445,77.551 123.049 C 77.289 122.653,77.073 122.407,77.072 122.503 M332.713 122.783 C 332.208 123.167,332.174 123.409,332.625 123.409 C 332.808 123.409,333.014 123.193,333.083 122.929 C 333.152 122.665,333.191 122.452,333.171 122.457 C 333.150 122.461,332.944 122.608,332.713 122.783 M325.570 124.970 C 325.401 125.174,325.316 125.396,325.382 125.462 C 325.448 125.528,325.641 125.415,325.810 125.210 C 325.980 125.006,326.065 124.784,325.999 124.718 C 325.933 124.652,325.740 124.766,325.570 124.970 M323.098 126.867 C 323.335 127.184,323.565 127.410,323.609 127.368 C 323.759 127.225,323.152 126.291,322.910 126.291 C 322.776 126.291,322.861 126.550,323.098 126.867 M29.433 127.697 C 29.096 128.242,28.830 129.189,29.052 129.051 C 29.184 128.970,29.292 128.755,29.292 128.574 C 29.292 128.394,29.461 128.076,29.669 127.868 C 29.877 127.661,29.937 127.491,29.803 127.491 C 29.670 127.491,29.503 127.583,29.433 127.697 M275.866 127.890 C 276.002 127.957,276.057 128.104,275.988 128.215 C 275.919 128.327,275.983 128.492,276.130 128.583 C 276.296 128.686,276.365 128.586,276.314 128.320 C 276.268 128.084,276.093 127.863,275.924 127.829 C 275.756 127.795,275.730 127.822,275.866 127.890 M317.175 127.885 C 317.171 128.035,317.379 128.413,317.639 128.725 C 318.069 129.241,318.112 129.250,318.119 128.832 C 318.124 128.578,318.052 128.447,317.960 128.539 C 317.867 128.631,317.655 128.460,317.488 128.159 C 317.321 127.858,317.180 127.734,317.175 127.885 M324.398 128.132 C 324.382 128.286,324.300 128.610,324.214 128.852 C 324.094 129.193,324.126 129.230,324.357 129.017 C 324.521 128.866,324.603 128.542,324.540 128.297 C 324.477 128.052,324.413 127.977,324.398 128.132 M330.312 129.191 C 329.861 129.454,329.743 129.892,330.124 129.892 C 330.251 129.892,330.471 129.676,330.612 129.412 C 330.904 128.866,330.889 128.855,330.312 129.191 M129.172 130.281 C 129.172 130.601,129.237 130.617,129.532 130.372 C 129.730 130.208,129.892 130.032,129.892 129.983 C 129.892 129.933,129.730 129.892,129.532 129.892 C 129.334 129.892,129.172 130.067,129.172 130.281 M389.196 130.061 C 389.196 130.338,389.877 130.978,390.011 130.827 C 390.057 130.775,389.892 130.524,389.645 130.270 C 389.398 130.016,389.196 129.922,389.196 130.061 M20.785 130.509 C 20.267 131.028,20.313 131.156,20.888 130.797 C 21.152 130.632,21.369 130.415,21.369 130.314 C 21.369 130.038,21.201 130.093,20.785 130.509 M249.415 131.032 C 251.834 131.071,255.723 131.071,258.059 131.032 C 260.394 130.993,258.415 130.961,253.661 130.961 C 248.908 130.961,246.997 130.993,249.415 131.032 M81.892 131.400 C 81.881 131.635,82.035 131.890,82.233 131.966 C 82.431 132.042,82.602 132.282,82.612 132.499 C 82.627 132.803,82.662 132.816,82.765 132.554 C 82.839 132.367,82.740 132.097,82.545 131.954 C 82.350 131.810,82.128 131.531,82.051 131.333 C 81.940 131.048,81.907 131.062,81.892 131.400 M118.993 131.472 C 118.768 132.060,118.817 132.137,119.208 131.813 C 119.607 131.481,119.686 131.092,119.353 131.092 C 119.235 131.092,119.073 131.263,118.993 131.472 M26.651 132.956 C 26.651 133.101,26.481 133.389,26.273 133.596 C 26.066 133.804,26.008 133.974,26.145 133.974 C 26.449 133.974,26.984 133.027,26.790 132.833 C 26.713 132.756,26.651 132.811,26.651 132.956 M328.754 133.904 C 328.590 134.253,328.501 134.583,328.554 134.637 C 328.699 134.781,329.216 133.744,329.127 133.488 C 329.086 133.368,328.918 133.555,328.754 133.904 M76.427 134.331 C 76.456 134.611,76.674 134.829,76.954 134.857 C 77.300 134.893,77.320 134.873,77.026 134.785 C 76.803 134.719,76.566 134.482,76.499 134.259 C 76.411 133.965,76.392 133.985,76.427 134.331 M128.211 134.606 C 128.211 134.866,128.082 135.208,127.923 135.366 C 127.704 135.585,127.703 135.654,127.919 135.654 C 128.232 135.654,128.597 134.519,128.360 134.283 C 128.278 134.201,128.211 134.346,128.211 134.606 M391.597 134.621 C 391.597 134.943,392.257 135.795,392.397 135.654 C 392.462 135.588,392.309 135.279,392.056 134.967 C 391.803 134.656,391.597 134.500,391.597 134.621 M157.263 135.266 C 157.263 135.464,157.371 135.693,157.503 135.774 C 157.635 135.856,157.743 135.761,157.743 135.563 C 157.743 135.364,157.635 135.136,157.503 135.054 C 157.371 134.972,157.263 135.068,157.263 135.266 M209.604 135.414 C 209.604 135.678,209.595 135.975,209.583 136.074 C 209.547 136.398,209.031 136.904,208.532 137.106 C 208.188 137.246,208.155 137.309,208.422 137.320 C 208.955 137.341,209.731 136.377,209.811 135.594 C 209.848 135.231,209.817 134.934,209.741 134.934 C 209.666 134.934,209.604 135.150,209.604 135.414 M147.659 135.341 C 147.659 135.473,147.875 135.830,148.139 136.134 C 148.403 136.439,148.619 136.580,148.619 136.448 C 148.619 136.316,148.403 135.959,148.139 135.654 C 147.875 135.350,147.659 135.209,147.659 135.341 M47.185 136.043 C 46.971 136.257,46.861 136.497,46.940 136.576 C 47.020 136.656,47.160 136.607,47.252 136.467 C 47.344 136.328,47.635 136.091,47.899 135.941 C 48.297 135.715,48.310 135.668,47.976 135.662 C 47.755 135.658,47.398 135.829,47.185 136.043 M50.230 135.832 C 51.115 135.878,52.628 135.878,53.591 135.833 C 54.554 135.787,53.830 135.749,51.981 135.749 C 50.132 135.749,49.344 135.786,50.230 135.832 M117.449 136.535 C 117.492 136.755,117.689 136.979,117.887 137.033 C 118.183 137.114,118.188 137.090,117.916 136.900 C 117.734 136.773,117.660 136.548,117.751 136.401 C 117.841 136.255,117.793 136.134,117.644 136.134 C 117.494 136.134,117.407 136.315,117.449 136.535 M157.329 136.620 C 157.308 136.887,157.393 137.042,157.518 136.966 C 157.790 136.797,157.820 136.134,157.554 136.134 C 157.450 136.134,157.349 136.353,157.329 136.620 M32.650 136.978 C 32.391 137.290,33.179 137.381,33.553 137.083 C 33.586 137.056,33.712 137.021,33.834 137.005 C 34.438 136.922,34.319 136.615,33.683 136.615 C 33.281 136.615,32.816 136.778,32.650 136.978 M68.034 136.782 C 68.126 136.874,68.333 136.976,68.494 137.010 C 68.656 137.043,69.058 137.138,69.388 137.221 C 69.966 137.365,69.971 137.357,69.522 136.993 C 69.077 136.632,67.687 136.435,68.034 136.782 M291.477 137.095 C 290.982 137.253,290.961 137.291,291.357 137.307 C 291.621 137.318,291.999 137.223,292.197 137.095 C 292.618 136.823,292.325 136.823,291.477 137.095 M121.309 137.273 C 122.332 137.318,124.007 137.318,125.030 137.273 C 126.053 137.228,125.216 137.191,123.169 137.191 C 121.122 137.191,120.285 137.228,121.309 137.273 M151.812 137.274 C 152.841 137.319,154.462 137.318,155.413 137.273 C 156.364 137.227,155.522 137.191,153.541 137.191 C 151.561 137.191,150.782 137.228,151.812 137.274 M168.007 137.272 C 168.700 137.320,169.835 137.320,170.528 137.272 C 171.221 137.223,170.654 137.184,169.268 137.184 C 167.881 137.184,167.314 137.223,168.007 137.272 M204.022 137.272 C 204.715 137.320,205.849 137.320,206.543 137.272 C 207.236 137.223,206.669 137.184,205.282 137.184 C 203.896 137.184,203.328 137.223,204.022 137.272 M246.639 137.275 C 249.643 137.313,254.559 137.313,257.563 137.275 C 260.567 137.237,258.109 137.205,252.101 137.205 C 246.092 137.205,243.634 137.237,246.639 137.275 M322.389 137.272 C 323.082 137.320,324.217 137.320,324.910 137.272 C 325.603 137.223,325.036 137.184,323.649 137.184 C 322.263 137.184,321.696 137.223,322.389 137.272 M352.281 137.270 C 352.776 137.322,353.586 137.322,354.082 137.270 C 354.577 137.218,354.172 137.176,353.181 137.176 C 352.191 137.176,351.786 137.218,352.281 137.270 M372.449 137.270 C 372.944 137.322,373.755 137.322,374.250 137.270 C 374.745 137.218,374.340 137.176,373.349 137.176 C 372.359 137.176,371.954 137.218,372.449 137.270 M395.498 137.270 C 395.993 137.322,396.804 137.322,397.299 137.270 C 397.794 137.218,397.389 137.176,396.399 137.176 C 395.408 137.176,395.003 137.218,395.498 137.270 M27.131 137.695 C 26.964 137.896,26.938 138.055,27.072 138.055 C 27.204 138.055,27.447 137.893,27.611 137.695 C 27.778 137.494,27.804 137.335,27.670 137.335 C 27.538 137.335,27.295 137.497,27.131 137.695 M78.035 137.498 C 78.042 137.866,78.484 138.402,78.647 138.240 C 78.736 138.151,78.634 137.903,78.420 137.689 C 78.206 137.476,78.033 137.389,78.035 137.498 M288.788 137.623 C 289.012 137.847,289.140 137.847,289.364 137.623 C 289.588 137.399,289.524 137.335,289.076 137.335 C 288.627 137.335,288.563 137.399,288.788 137.623 M42.617 141.538 L 41.897 141.877 42.617 141.736 C 43.013 141.658,43.440 141.501,43.565 141.386 C 43.908 141.072,43.449 141.145,42.617 141.538 M44.218 141.577 C 43.978 141.833,43.986 141.897,44.259 141.897 C 44.446 141.897,44.719 141.753,44.865 141.577 C 45.063 141.338,45.052 141.257,44.824 141.257 C 44.655 141.257,44.382 141.401,44.218 141.577 M59.304 141.412 C 58.742 141.561,58.758 141.580,59.544 141.706 C 60.510 141.860,60.637 141.819,60.210 141.489 C 60.042 141.359,59.634 141.324,59.304 141.412 M10.334 141.764 C 10.125 142.016,10.112 142.137,10.295 142.137 C 10.443 142.137,10.564 142.029,10.564 141.897 C 10.564 141.580,11.929 141.586,12.087 141.903 C 12.154 142.038,12.182 142.011,12.148 141.843 C 12.058 141.384,10.698 141.326,10.334 141.764 M90.526 141.765 C 90.162 142.203,90.260 142.222,91.141 141.887 C 91.634 141.700,91.851 141.715,92.015 141.947 C 92.183 142.185,92.211 142.173,92.137 141.897 C 92.003 141.400,90.903 141.310,90.526 141.765 M37.518 142.069 C 37.883 142.124,38.423 142.123,38.719 142.066 C 39.014 142.009,38.715 141.964,38.055 141.965 C 37.395 141.967,37.153 142.014,37.518 142.069 M63.806 142.066 C 64.103 142.123,64.589 142.123,64.886 142.066 C 65.183 142.009,64.940 141.962,64.346 141.962 C 63.752 141.962,63.508 142.009,63.806 142.066 M31.453 142.525 C 30.860 142.871,30.863 142.873,31.693 142.721 C 32.651 142.545,33.091 142.254,32.470 142.207 C 32.241 142.190,31.783 142.333,31.453 142.525 M22.955 143.958 C 22.865 144.191,22.919 144.301,23.094 144.243 C 23.453 144.123,23.651 143.577,23.335 143.577 C 23.206 143.577,23.035 143.749,22.955 143.958 M2.719 145.142 C 2.037 145.921,2.389 145.918,3.121 145.138 C 3.431 144.808,3.585 144.540,3.463 144.542 C 3.341 144.545,3.006 144.815,2.719 145.142 M17.332 151.035 C 17.390 151.209,17.579 151.398,17.752 151.456 C 17.932 151.516,18.022 151.426,17.962 151.245 C 17.904 151.072,17.715 150.883,17.542 150.825 C 17.362 150.765,17.272 150.855,17.332 151.035 M23.154 153.362 C 23.204 154.188,23.166 154.814,23.068 154.753 C 22.969 154.693,22.889 154.800,22.889 154.993 C 22.889 155.458,23.201 155.439,23.384 154.962 C 23.608 154.377,23.549 152.624,23.292 152.221 C 23.135 151.977,23.091 152.343,23.154 153.362 M98.038 153.782 C 98.039 154.706,98.082 155.055,98.134 154.556 C 98.186 154.058,98.186 153.302,98.132 152.876 C 98.079 152.450,98.037 152.857,98.038 153.782 M80.432 159.038 C 80.432 159.222,80.597 159.436,80.798 159.513 C 81.096 159.627,81.117 159.566,80.909 159.178 C 80.612 158.622,80.432 158.569,80.432 159.038 M8.334 160.144 C 8.403 160.408,8.626 160.624,8.829 160.624 C 9.139 160.624,9.129 160.548,8.764 160.144 C 8.524 159.880,8.302 159.664,8.269 159.664 C 8.235 159.664,8.265 159.880,8.334 160.144 M93.895 160.003 C 93.679 160.264,93.686 160.383,93.926 160.521 C 94.097 160.620,94.153 160.608,94.050 160.495 C 93.947 160.382,94.109 160.152,94.410 159.985 C 94.807 159.765,94.850 159.679,94.567 159.672 C 94.352 159.668,94.050 159.816,93.895 160.003 M82.117 161.401 C 82.121 161.724,83.265 162.914,83.421 162.757 C 83.472 162.706,83.199 162.312,82.813 161.881 C 82.428 161.450,82.115 161.234,82.117 161.401 M84.109 163.181 C 84.534 163.684,85.609 164.157,85.340 163.723 C 85.266 163.603,85.086 163.505,84.939 163.505 C 84.792 163.505,84.447 163.316,84.173 163.085 C 83.678 162.669,83.677 162.670,84.109 163.181 M98.679 162.998 C 98.679 163.159,98.364 163.400,97.978 163.535 C 97.593 163.669,97.210 163.955,97.128 164.169 C 96.995 164.516,97.027 164.514,97.428 164.152 C 97.675 163.929,97.990 163.745,98.129 163.745 C 98.472 163.745,99.025 163.051,98.834 162.859 C 98.749 162.774,98.679 162.837,98.679 162.998 M6.589 164.834 C 7.198 165.294,7.580 165.289,7.117 164.826 C 6.919 164.628,6.614 164.469,6.440 164.473 C 6.241 164.478,6.296 164.612,6.589 164.834 " stroke="none" fill="#005555" fill-rule="evenodd"></path><path id="path2" d="M269.258 115.486 C 269.258 121.495,269.289 123.953,269.328 120.948 C 269.366 117.944,269.366 113.028,269.328 110.024 C 269.289 107.020,269.258 109.478,269.258 115.486 " stroke="none" fill="#0000ff" fill-rule="evenodd"></path><path id="path3" d="M46.279 75.430 C 45.783 75.698,45.378 76.069,45.378 76.254 C 45.378 76.469,45.115 76.591,44.650 76.591 C 44.225 76.591,43.865 76.740,43.784 76.951 C 43.708 77.149,43.496 77.311,43.312 77.311 C 43.128 77.311,42.977 77.408,42.977 77.526 C 42.977 77.644,42.647 78.094,42.243 78.526 C 41.839 78.959,41.447 79.619,41.372 79.992 C 41.298 80.366,41.114 80.672,40.964 80.672 C 40.314 80.672,39.590 83.654,39.614 86.229 C 39.645 89.456,39.680 89.780,40.021 89.990 C 40.178 90.087,40.358 90.434,40.420 90.761 C 40.589 91.650,40.841 92.197,41.082 92.197 C 41.200 92.197,41.297 92.413,41.297 92.677 C 41.297 92.941,41.399 93.157,41.524 93.157 C 41.649 93.157,42.027 93.412,42.363 93.724 L 42.975 94.291 42.359 94.173 C 41.608 94.029,40.578 94.539,40.571 95.059 C 40.568 95.267,40.354 95.708,40.096 96.038 C 39.838 96.369,39.624 96.828,39.621 97.059 C 39.618 97.290,39.510 97.479,39.380 97.479 C 39.251 97.479,39.072 97.776,38.984 98.139 C 38.895 98.502,38.623 99.057,38.379 99.372 C 38.135 99.687,37.935 100.081,37.935 100.247 C 37.935 100.413,37.773 100.611,37.575 100.687 C 37.377 100.763,37.215 101.099,37.215 101.433 C 37.215 101.767,37.113 102.041,36.988 102.041 C 36.749 102.041,36.619 102.256,35.334 104.787 C 34.894 105.653,34.435 106.363,34.314 106.363 C 34.193 106.363,34.094 106.687,34.094 107.083 C 34.094 107.548,33.972 107.803,33.750 107.803 C 33.429 107.803,32.979 108.658,33.086 109.064 C 33.112 109.163,33.036 109.244,32.917 109.244 C 32.654 109.244,31.693 111.041,31.693 111.532 C 31.693 111.726,31.519 111.885,31.307 111.885 C 31.076 111.885,30.972 112.019,31.049 112.219 C 31.120 112.402,30.967 112.778,30.710 113.054 C 30.452 113.330,30.177 113.882,30.097 114.281 C 30.017 114.680,29.803 115.006,29.622 115.006 C 29.430 115.006,29.292 115.257,29.292 115.606 C 29.292 115.936,29.169 116.179,29.019 116.146 C 28.869 116.113,28.663 116.381,28.561 116.742 C 28.459 117.102,28.203 117.569,27.993 117.779 C 27.783 117.990,27.611 118.373,27.611 118.632 C 27.611 118.891,27.449 119.165,27.251 119.241 C 27.053 119.317,26.891 119.638,26.891 119.954 C 26.891 120.304,26.750 120.528,26.531 120.528 C 26.281 120.528,26.170 120.779,26.170 121.341 C 26.170 121.951,26.051 122.184,25.690 122.278 C 25.400 122.354,25.210 122.606,25.210 122.914 C 25.210 123.195,25.048 123.487,24.850 123.563 C 24.652 123.639,24.490 123.892,24.490 124.126 C 24.490 124.360,24.328 124.686,24.130 124.850 C 23.932 125.014,23.770 125.406,23.770 125.720 C 23.770 126.053,23.627 126.291,23.428 126.291 C 23.241 126.291,23.018 126.606,22.934 126.991 C 22.849 127.376,22.624 127.751,22.434 127.824 C 22.239 127.899,22.089 128.272,22.089 128.684 C 22.089 129.171,21.970 129.412,21.729 129.412 C 21.515 129.412,21.369 129.632,21.369 129.954 C 21.369 130.253,21.152 130.632,20.888 130.797 C 20.624 130.962,20.408 131.312,20.408 131.575 C 20.408 131.838,20.302 132.053,20.173 132.053 C 20.043 132.053,19.870 132.318,19.789 132.643 C 19.707 132.968,19.489 133.359,19.304 133.513 C 19.119 133.667,18.968 134.049,18.968 134.363 C 18.968 134.691,18.825 134.934,18.633 134.934 C 18.266 134.934,18.007 135.438,18.007 136.154 C 18.007 136.407,17.845 136.615,17.647 136.615 C 17.407 136.615,17.287 136.855,17.287 137.335 C 17.287 137.815,17.167 138.055,16.927 138.055 C 16.727 138.055,16.567 138.269,16.567 138.535 C 16.567 138.800,16.464 139.016,16.339 139.016 C 16.075 139.016,14.886 141.292,14.886 141.796 C 14.886 142.052,14.529 142.137,13.445 142.137 C 12.645 142.137,12.005 142.030,12.005 141.897 C 12.005 141.765,11.681 141.657,11.285 141.657 C 10.888 141.657,10.564 141.765,10.564 141.897 C 10.564 142.029,9.960 142.137,9.221 142.137 C 8.482 142.137,7.590 142.292,7.240 142.481 C 6.889 142.671,6.306 142.889,5.942 142.966 C 5.579 143.043,5.282 143.266,5.282 143.462 C 5.282 143.658,5.137 143.818,4.959 143.818 C 4.781 143.818,4.376 144.045,4.058 144.322 C 3.741 144.600,3.205 145.062,2.868 145.348 C 2.530 145.634,2.180 146.062,2.089 146.299 C 1.998 146.536,1.819 146.664,1.689 146.584 C 1.560 146.504,1.387 146.709,1.304 147.039 C 1.221 147.369,1.002 147.765,0.817 147.919 C 0.632 148.072,0.480 148.455,0.480 148.769 C 0.480 149.083,0.372 149.340,0.240 149.340 C 0.089 149.340,0.000 150.980,0.000 153.782 C 0.000 156.583,0.089 158.223,0.240 158.223 C 0.372 158.223,0.480 158.497,0.480 158.831 C 0.480 159.165,0.642 159.501,0.840 159.577 C 1.038 159.653,1.200 159.866,1.200 160.050 C 1.200 160.234,1.309 160.384,1.441 160.384 C 1.573 160.384,1.681 160.546,1.681 160.744 C 1.681 160.942,1.789 161.104,1.921 161.104 C 2.053 161.104,2.161 161.236,2.161 161.397 C 2.161 161.711,3.304 162.785,3.639 162.785 C 3.750 162.785,3.842 162.924,3.842 163.094 C 3.842 163.264,4.085 163.421,4.382 163.443 C 4.679 163.464,5.070 163.703,5.251 163.974 C 5.434 164.246,5.843 164.466,6.169 164.466 C 6.492 164.466,6.919 164.628,7.117 164.826 C 7.647 165.356,15.166 165.356,15.606 164.826 C 15.771 164.628,16.111 164.466,16.363 164.466 C 16.616 164.466,16.884 164.304,16.960 164.106 C 17.036 163.908,17.315 163.745,17.580 163.745 C 18.192 163.745,21.128 160.749,21.128 160.125 C 21.128 159.871,21.291 159.664,21.489 159.664 C 21.687 159.664,21.849 159.527,21.849 159.360 C 21.849 159.193,22.065 158.653,22.329 158.161 C 22.603 157.650,22.809 156.806,22.809 156.198 C 22.809 155.611,22.906 155.071,23.024 154.998 C 23.417 154.755,22.890 150.099,22.406 149.546 C 22.216 149.329,21.974 148.843,21.868 148.465 C 21.761 148.088,21.551 147.806,21.401 147.839 C 21.251 147.872,21.128 147.696,21.128 147.448 C 21.128 147.200,20.966 146.863,20.768 146.699 C 20.570 146.534,20.408 146.275,20.408 146.122 C 20.408 145.970,20.180 145.650,19.901 145.411 C 19.221 144.828,19.528 144.601,21.248 144.414 C 22.041 144.327,22.809 144.104,22.956 143.917 C 23.138 143.685,23.729 143.577,24.824 143.577 C 26.026 143.577,26.460 143.488,26.564 143.217 C 26.672 142.937,27.149 142.857,28.729 142.857 C 29.954 142.857,31.013 142.729,31.404 142.532 C 31.761 142.354,32.647 142.185,33.373 142.157 C 34.100 142.129,35.288 142.070,36.014 142.025 C 36.741 141.980,38.355 141.919,39.602 141.889 C 40.848 141.859,42.222 141.686,42.655 141.505 C 43.592 141.114,43.776 141.096,43.577 141.417 C 43.496 141.549,43.652 141.657,43.923 141.657 C 44.195 141.657,44.418 141.555,44.418 141.430 C 44.418 141.085,58.035 141.091,58.150 141.436 C 58.215 141.631,58.485 141.640,59.110 141.468 C 59.715 141.300,60.058 141.307,60.240 141.488 C 60.383 141.632,60.907 141.771,61.403 141.798 C 62.096 141.835,66.761 142.060,69.808 142.203 C 69.973 142.211,70.108 142.318,70.108 142.443 C 70.108 142.567,70.267 142.608,70.460 142.533 C 70.654 142.459,70.877 142.501,70.955 142.628 C 71.033 142.754,71.962 142.857,73.021 142.857 C 74.410 142.857,75.044 142.957,75.304 143.217 C 75.551 143.464,76.160 143.577,77.242 143.577 C 78.326 143.577,78.902 143.685,79.085 143.921 C 79.232 144.110,79.937 144.336,80.653 144.423 C 82.251 144.617,83.070 145.100,82.900 145.749 C 82.832 146.007,82.628 146.218,82.445 146.218 C 82.262 146.218,82.113 146.381,82.113 146.579 C 82.113 146.777,81.978 146.940,81.813 146.941 C 81.406 146.943,80.432 148.693,80.432 149.422 C 80.432 149.744,80.270 150.071,80.072 150.147 C 79.776 150.261,79.712 150.882,79.712 153.661 C 79.712 156.441,79.776 157.062,80.072 157.176 C 80.270 157.252,80.432 157.546,80.432 157.829 C 80.431 158.522,81.437 160.384,81.812 160.384 C 81.978 160.384,82.113 160.565,82.113 160.785 C 82.113 161.277,84.084 163.205,84.906 163.517 C 85.234 163.642,85.437 163.851,85.357 163.981 C 85.276 164.112,85.635 164.284,86.173 164.370 C 86.703 164.455,87.113 164.646,87.085 164.795 C 87.001 165.250,95.780 165.273,95.955 164.818 C 96.029 164.624,96.298 164.466,96.552 164.466 C 96.806 164.466,97.073 164.311,97.146 164.122 C 97.218 163.934,97.593 163.669,97.978 163.535 C 98.364 163.400,98.679 163.177,98.679 163.038 C 98.679 162.899,98.782 162.785,98.907 162.785 C 99.224 162.785,100.360 161.704,100.360 161.403 C 100.360 161.267,100.522 161.094,100.720 161.018 C 100.918 160.942,101.080 160.731,101.080 160.549 C 101.080 160.367,101.297 160.023,101.561 159.784 C 101.825 159.545,102.041 159.217,102.041 159.056 C 102.041 158.894,102.203 158.628,102.401 158.463 C 102.638 158.266,102.761 157.730,102.761 156.891 C 102.761 156.060,102.891 155.487,103.133 155.244 C 103.599 154.779,103.555 152.474,103.077 152.291 C 102.869 152.211,102.761 151.721,102.761 150.858 C 102.761 150.011,102.633 149.418,102.401 149.185 C 102.203 148.987,102.041 148.623,102.041 148.376 C 102.041 148.129,101.852 147.784,101.621 147.609 C 101.147 147.251,100.655 146.544,100.445 145.918 C 100.368 145.687,100.228 145.498,100.136 145.498 C 100.043 145.498,99.542 145.120,99.023 144.658 C 98.504 144.196,97.903 143.818,97.687 143.818 C 97.471 143.818,97.238 143.601,97.169 143.337 C 97.079 142.992,96.842 142.857,96.327 142.857 C 95.911 142.857,95.552 142.706,95.471 142.497 C 95.367 142.225,94.926 142.137,93.665 142.137 C 92.701 142.137,91.961 142.029,91.912 141.882 C 91.852 141.702,91.629 141.702,91.156 141.882 C 89.787 142.402,87.635 142.214,87.635 141.574 C 87.635 141.264,87.419 140.815,87.155 140.576 C 86.891 140.337,86.675 140.010,86.675 139.848 C 86.675 139.687,86.513 139.420,86.315 139.256 C 86.116 139.091,85.954 138.754,85.954 138.506 C 85.954 138.258,85.815 138.055,85.645 138.055 C 85.475 138.055,85.321 137.866,85.303 137.635 C 85.259 137.070,84.049 134.934,83.773 134.934 C 83.652 134.934,83.553 134.726,83.553 134.471 C 83.553 134.216,83.397 133.851,83.205 133.660 C 83.014 133.468,82.788 133.036,82.703 132.699 C 82.619 132.363,82.397 132.029,82.211 131.958 C 82.025 131.886,81.873 131.622,81.873 131.369 C 81.873 131.117,81.711 130.777,81.513 130.612 C 81.315 130.448,81.152 130.161,81.152 129.975 C 81.152 129.789,80.990 129.575,80.792 129.499 C 80.594 129.423,80.432 129.072,80.432 128.719 C 80.432 128.366,80.216 127.893,79.952 127.667 C 79.688 127.441,79.472 127.038,79.472 126.773 C 79.472 126.504,79.312 126.291,79.112 126.291 C 78.914 126.291,78.752 126.120,78.752 125.911 C 78.752 125.702,78.373 124.886,77.911 124.097 C 77.449 123.309,77.071 122.561,77.071 122.436 C 77.071 122.311,76.909 122.209,76.711 122.209 C 76.459 122.209,76.351 121.955,76.351 121.369 C 76.351 120.782,76.242 120.528,75.990 120.528 C 75.767 120.528,75.630 120.302,75.630 119.930 C 75.630 119.592,75.422 119.201,75.150 119.032 C 74.886 118.867,74.670 118.499,74.670 118.215 C 74.670 117.931,74.508 117.636,74.310 117.560 C 74.112 117.484,73.950 117.217,73.950 116.967 C 73.950 116.716,73.737 116.241,73.477 115.911 C 73.217 115.581,73.073 115.242,73.157 115.158 C 73.241 115.074,73.134 115.006,72.920 115.006 C 72.665 115.006,72.476 114.716,72.373 114.166 C 72.283 113.684,72.073 113.325,71.882 113.325 C 71.672 113.325,71.549 113.060,71.549 112.605 C 71.549 112.209,71.442 111.885,71.312 111.885 C 71.181 111.885,70.917 111.507,70.724 111.044 C 70.531 110.582,70.286 110.204,70.180 110.204 C 70.075 110.204,69.971 109.917,69.951 109.566 C 69.931 109.215,69.742 108.832,69.531 108.714 C 69.320 108.596,69.148 108.343,69.148 108.151 C 69.148 107.960,68.986 107.803,68.788 107.803 C 68.589 107.803,68.427 107.651,68.427 107.465 C 68.427 106.992,67.203 104.682,66.953 104.682 C 66.839 104.682,66.747 104.397,66.747 104.048 C 66.747 103.699,66.579 103.291,66.373 103.141 C 66.168 102.991,65.975 102.697,65.944 102.488 C 65.913 102.279,65.702 101.922,65.475 101.695 C 65.248 101.468,65.127 101.175,65.208 101.045 C 65.289 100.915,65.127 100.749,64.850 100.676 C 64.483 100.580,64.346 100.353,64.346 99.844 C 64.346 99.444,64.192 99.085,63.986 99.006 C 63.788 98.930,63.625 98.616,63.625 98.307 C 63.625 97.999,63.404 97.591,63.132 97.401 C 62.861 97.211,62.622 96.827,62.601 96.547 C 62.580 96.267,62.424 96.038,62.254 96.038 C 62.063 96.038,61.945 95.728,61.945 95.224 C 61.945 94.380,61.644 94.118,60.679 94.118 L 60.174 94.118 60.699 93.628 C 60.988 93.359,61.224 93.027,61.224 92.891 C 61.224 92.754,61.387 92.481,61.585 92.283 C 61.783 92.085,61.945 91.699,61.945 91.426 C 61.945 91.153,62.109 90.809,62.309 90.663 C 62.509 90.516,62.718 90.043,62.772 89.610 C 62.827 89.178,62.995 88.452,63.145 87.997 C 63.409 87.197,63.368 85.493,63.067 84.754 C 62.887 84.313,62.711 83.180,62.685 82.293 C 62.673 81.900,62.543 81.657,62.365 81.693 C 62.196 81.726,62.032 81.464,61.989 81.092 C 61.947 80.729,61.825 80.432,61.718 80.432 C 61.611 80.432,61.389 80.108,61.224 79.712 C 61.060 79.316,60.838 78.992,60.731 78.992 C 60.624 78.992,60.468 78.776,60.384 78.511 C 60.300 78.247,60.077 78.031,59.888 78.031 C 59.699 78.031,59.544 77.869,59.544 77.671 C 59.544 77.473,59.393 77.311,59.209 77.311 C 59.025 77.311,58.813 77.149,58.737 76.951 C 58.661 76.753,58.445 76.591,58.257 76.591 C 58.068 76.591,57.858 76.442,57.788 76.261 C 57.719 76.080,57.370 75.859,57.013 75.769 C 56.656 75.680,56.208 75.450,56.016 75.258 C 55.410 74.652,47.455 74.792,46.279 75.430 M54.377 80.033 C 54.597 80.253,54.931 80.432,55.119 80.432 C 55.478 80.432,56.423 81.260,56.423 81.575 C 56.423 81.675,56.643 81.895,56.912 82.063 C 57.181 82.231,57.339 82.469,57.263 82.592 C 57.187 82.715,57.334 83.024,57.589 83.279 C 58.309 84.000,58.445 89.316,57.743 89.316 C 57.545 89.316,57.383 89.442,57.383 89.596 C 57.383 89.875,57.121 90.210,56.194 91.116 C 55.170 92.117,54.731 92.437,54.382 92.437 C 54.184 92.437,53.806 92.653,53.541 92.917 C 52.929 93.530,49.220 93.649,49.220 93.056 C 49.220 92.869,48.880 92.641,48.465 92.550 C 48.050 92.458,47.406 92.072,47.033 91.690 C 46.660 91.309,46.243 90.996,46.107 90.996 C 45.970 90.996,45.858 90.831,45.858 90.629 C 45.858 90.426,45.696 90.199,45.498 90.123 C 45.300 90.047,45.138 89.723,45.138 89.403 C 45.138 89.082,44.976 88.758,44.778 88.682 C 44.495 88.574,44.418 88.084,44.418 86.401 C 44.418 84.718,44.495 84.229,44.778 84.120 C 44.987 84.040,45.138 83.681,45.138 83.264 C 45.138 82.450,47.039 80.432,47.805 80.432 C 48.042 80.432,48.322 80.282,48.427 80.099 C 48.843 79.378,53.669 79.325,54.377 80.033 M280.806 93.760 C 280.538 93.966,279.836 94.118,279.152 94.118 C 278.376 94.118,277.872 94.242,277.698 94.477 C 277.551 94.675,277.125 94.861,276.750 94.891 C 276.376 94.921,275.967 95.138,275.841 95.372 C 275.716 95.607,275.401 95.798,275.142 95.798 C 274.882 95.798,274.670 95.904,274.670 96.034 C 274.670 96.163,274.400 96.337,274.070 96.420 C 273.739 96.503,273.469 96.714,273.469 96.889 C 273.469 97.063,273.253 97.275,272.989 97.359 C 272.725 97.443,272.509 97.666,272.509 97.855 C 272.509 98.044,272.412 98.199,272.292 98.199 C 272.173 98.199,271.962 98.525,271.824 98.923 C 271.685 99.321,271.404 99.710,271.200 99.789 C 270.996 99.867,270.828 100.123,270.828 100.356 C 270.828 100.590,270.666 100.916,270.468 101.080 C 270.239 101.270,270.108 101.800,270.108 102.533 C 270.108 103.245,269.968 103.827,269.744 104.051 C 269.213 104.582,269.218 126.936,269.749 127.637 C 269.938 127.887,270.096 128.381,270.100 128.734 C 270.105 129.088,270.252 129.521,270.428 129.697 C 270.603 129.873,270.816 130.286,270.899 130.615 C 270.983 130.943,271.379 131.570,271.780 132.008 C 272.181 132.445,272.509 132.850,272.509 132.908 C 272.509 133.104,273.468 133.974,273.684 133.974 C 273.802 133.974,273.960 134.136,274.036 134.334 C 274.112 134.532,274.327 134.694,274.514 134.694 C 274.701 134.694,274.910 134.910,274.980 135.174 C 275.071 135.524,275.307 135.654,275.848 135.654 C 276.348 135.654,276.591 135.772,276.591 136.014 C 276.591 136.253,276.829 136.375,277.294 136.375 C 277.681 136.375,278.144 136.522,278.325 136.702 C 278.609 136.986,280.360 137.311,281.707 137.329 C 281.946 137.332,282.083 137.430,282.011 137.546 C 281.812 137.867,283.137 138.056,285.564 138.052 C 287.915 138.048,288.909 137.888,288.699 137.548 C 288.626 137.431,288.898 137.321,289.302 137.305 C 289.706 137.288,290.252 137.248,290.516 137.215 C 290.780 137.182,291.205 137.141,291.459 137.125 C 291.714 137.108,292.085 136.933,292.283 136.735 C 292.481 136.537,292.894 136.371,293.200 136.367 C 293.507 136.363,293.967 136.201,294.224 136.007 C 294.480 135.813,294.872 135.654,295.096 135.654 C 295.319 135.654,295.560 135.435,295.630 135.167 C 295.700 134.899,295.847 134.696,295.958 134.715 C 296.466 134.805,296.999 134.672,296.999 134.456 C 296.999 134.325,297.299 133.920,297.665 133.556 C 298.472 132.753,299.498 131.366,299.710 130.792 C 299.795 130.561,299.954 130.372,300.063 130.372 C 300.173 130.372,300.289 129.976,300.321 129.491 C 300.354 129.006,300.543 128.491,300.741 128.346 C 301.300 127.937,301.299 103.401,300.739 102.782 C 300.531 102.552,300.360 102.082,300.360 101.739 C 300.360 101.396,300.198 100.953,300.000 100.755 C 299.802 100.557,299.640 100.245,299.640 100.062 C 299.640 99.880,299.424 99.498,299.160 99.215 C 298.896 98.931,298.679 98.587,298.679 98.449 C 298.679 98.312,298.517 98.199,298.319 98.199 C 298.121 98.199,297.959 98.077,297.959 97.927 C 297.959 97.606,296.837 96.519,296.506 96.519 C 296.381 96.519,296.279 96.357,296.279 96.158 C 296.279 95.925,296.045 95.798,295.616 95.798 C 295.213 95.798,294.836 95.610,294.654 95.318 C 294.489 95.054,294.166 94.834,293.936 94.830 C 293.706 94.826,293.308 94.664,293.051 94.470 C 292.780 94.265,292.063 94.118,291.336 94.118 C 290.480 94.118,290.046 94.011,289.957 93.777 C 289.760 93.263,281.474 93.248,280.806 93.760 M132.533 95.092 C 132.533 95.661,132.436 96.007,132.300 95.923 C 132.172 95.843,132.000 96.080,131.917 96.449 C 131.631 97.733,131.507 98.059,131.181 98.385 C 131.000 98.566,130.852 99.127,130.852 99.631 C 130.852 100.225,130.725 100.598,130.492 100.687 C 130.266 100.774,130.132 101.141,130.132 101.673 C 130.132 102.192,130.024 102.498,129.853 102.461 C 129.700 102.428,129.481 102.828,129.367 103.349 C 129.253 103.871,128.973 104.503,128.745 104.755 C 128.518 105.007,128.358 105.255,128.391 105.307 C 128.636 105.694,128.402 107.083,128.091 107.083 C 127.825 107.083,127.731 107.362,127.731 108.151 C 127.731 108.861,127.608 109.289,127.363 109.426 C 127.039 109.607,126.738 110.477,126.703 111.334 C 126.696 111.493,126.613 111.575,126.518 111.517 C 126.321 111.395,126.059 112.233,126.054 113.000 C 126.052 113.283,125.888 113.576,125.690 113.652 C 125.455 113.743,125.330 114.117,125.330 114.733 C 125.330 115.311,125.202 115.724,125.000 115.802 C 124.819 115.871,124.596 116.423,124.505 117.028 C 124.415 117.632,124.240 118.127,124.118 118.127 C 123.995 118.127,123.826 118.557,123.742 119.083 C 123.658 119.609,123.441 120.162,123.259 120.313 C 123.078 120.464,122.929 120.947,122.929 121.386 C 122.929 121.837,122.776 122.270,122.578 122.381 C 122.385 122.489,122.176 122.992,122.113 123.498 C 122.050 124.004,121.830 124.605,121.624 124.833 C 121.417 125.061,121.248 125.598,121.248 126.026 C 121.248 126.455,121.086 126.967,120.888 127.165 C 120.690 127.363,120.528 127.899,120.528 128.356 C 120.528 128.861,120.391 129.239,120.180 129.321 C 119.988 129.394,119.760 129.927,119.673 130.506 C 119.587 131.084,119.365 131.682,119.182 131.834 C 118.998 131.987,118.848 132.411,118.848 132.777 C 118.848 133.147,118.688 133.503,118.487 133.580 C 118.281 133.659,118.127 134.018,118.127 134.421 C 118.127 134.823,117.974 135.182,117.767 135.261 C 117.372 135.413,117.266 136.134,117.640 136.134 C 117.767 136.134,117.815 136.283,117.746 136.464 C 117.525 137.038,118.383 137.150,122.683 137.106 C 126.938 137.064,127.491 136.952,127.491 136.134 C 127.491 135.903,127.645 135.586,127.832 135.430 C 128.020 135.274,128.249 134.693,128.342 134.140 C 128.434 133.586,128.614 133.067,128.741 132.987 C 128.867 132.906,129.031 132.177,129.105 131.366 C 129.197 130.348,129.339 129.892,129.565 129.892 C 129.768 129.892,129.892 129.619,129.892 129.172 L 129.892 128.451 137.935 128.451 C 145.428 128.451,145.980 128.480,145.998 128.872 C 146.063 130.219,146.387 131.333,146.715 131.333 C 146.838 131.333,146.939 131.765,146.939 132.293 C 146.939 132.987,147.039 133.253,147.299 133.253 C 147.557 133.253,147.659 133.516,147.659 134.177 C 147.659 134.756,147.838 135.307,148.139 135.654 C 148.403 135.959,148.619 136.407,148.619 136.651 C 148.619 137.163,148.361 137.139,153.417 137.095 C 156.968 137.065,157.719 136.918,157.353 136.326 C 157.288 136.221,157.371 136.134,157.537 136.134 C 157.772 136.134,157.775 136.070,157.551 135.846 C 157.393 135.688,157.263 135.162,157.263 134.678 C 157.263 134.162,157.065 133.546,156.783 133.188 C 156.519 132.852,156.303 132.243,156.303 131.835 C 156.303 131.335,156.185 131.092,155.942 131.092 C 155.683 131.092,155.582 130.828,155.582 130.149 C 155.582 129.630,155.420 129.044,155.222 128.846 C 155.024 128.648,154.862 128.208,154.862 127.868 C 154.862 127.529,154.646 127.035,154.382 126.771 C 154.081 126.470,153.902 125.970,153.902 125.433 C 153.902 124.961,153.739 124.413,153.541 124.215 C 153.343 124.017,153.181 123.605,153.181 123.300 C 153.181 122.994,153.020 122.434,152.823 122.056 C 152.625 121.678,152.463 121.142,152.462 120.865 C 152.462 120.588,152.245 120.112,151.981 119.808 C 151.680 119.461,151.501 118.910,151.501 118.331 C 151.501 117.670,151.398 117.407,151.140 117.407 C 150.882 117.407,150.780 117.143,150.780 116.476 C 150.780 115.964,150.630 115.420,150.446 115.268 C 150.263 115.115,150.040 114.508,149.951 113.918 C 149.847 113.219,149.670 112.845,149.445 112.845 C 149.204 112.845,149.100 112.564,149.100 111.914 C 149.100 111.380,148.946 110.856,148.739 110.684 C 148.541 110.520,148.379 110.041,148.379 109.620 C 148.379 109.200,148.221 108.646,148.027 108.389 C 147.833 108.133,147.671 107.689,147.667 107.403 C 147.655 106.622,147.408 106.122,147.033 106.122 C 146.792 106.122,146.699 105.788,146.699 104.922 C 146.699 104.015,146.611 103.721,146.339 103.721 C 146.105 103.721,145.968 103.468,145.948 103.001 C 145.932 102.605,145.891 102.173,145.858 102.041 C 145.825 101.909,145.785 101.686,145.768 101.546 C 145.752 101.407,145.644 101.351,145.529 101.422 C 145.413 101.493,145.247 101.008,145.159 100.344 C 145.063 99.626,144.857 99.083,144.648 99.003 C 144.414 98.913,144.298 98.516,144.298 97.806 C 144.298 97.083,144.183 96.699,143.938 96.605 C 143.720 96.522,143.577 96.159,143.577 95.690 C 143.577 94.193,143.290 94.118,137.616 94.118 L 132.533 94.118 132.533 95.092 M164.971 94.870 C 164.448 96.369,164.624 135.894,165.156 136.586 C 165.663 137.245,173.047 137.493,173.668 136.873 C 173.867 136.674,173.970 134.584,174.020 129.760 L 174.091 122.929 179.422 122.893 C 182.355 122.872,184.862 122.831,184.994 122.800 C 185.126 122.770,185.578 122.732,185.997 122.717 C 186.417 122.702,186.922 122.527,187.121 122.329 C 187.319 122.131,187.813 121.969,188.218 121.969 C 188.624 121.969,188.956 121.862,188.956 121.732 C 188.956 121.602,189.334 121.337,189.796 121.144 C 190.258 120.951,190.636 120.679,190.636 120.540 C 190.636 120.402,190.772 120.288,190.939 120.288 C 191.105 120.288,191.379 120.068,191.547 119.799 C 191.715 119.529,191.957 119.374,192.085 119.453 C 192.212 119.532,192.317 119.326,192.317 118.996 C 192.317 118.666,192.427 118.328,192.561 118.245 C 192.695 118.162,192.959 117.724,193.149 117.270 C 193.338 116.817,193.606 116.447,193.745 116.447 C 193.898 116.447,193.998 115.776,193.998 114.749 C 193.998 113.560,194.106 112.943,194.358 112.691 C 194.649 112.399,194.718 111.562,194.718 108.292 C 194.718 104.923,194.658 104.230,194.358 104.115 C 194.088 104.011,193.998 103.580,193.998 102.401 C 193.998 101.222,193.907 100.790,193.637 100.687 C 193.439 100.611,193.277 100.353,193.277 100.114 C 193.277 99.422,193.014 98.920,192.651 98.920 C 192.467 98.920,192.317 98.693,192.317 98.416 C 192.317 98.001,191.128 96.576,190.744 96.531 C 190.685 96.524,190.474 96.519,190.276 96.519 C 190.078 96.519,189.916 96.357,189.916 96.158 C 189.916 95.960,189.759 95.798,189.568 95.798 C 189.376 95.798,189.123 95.627,189.006 95.417 C 188.888 95.207,188.721 95.046,188.633 95.059 C 188.075 95.145,186.563 94.727,186.460 94.459 C 186.360 94.196,184.387 94.134,175.786 94.123 L 165.236 94.109 164.971 94.870 M201.318 94.362 C 201.235 94.496,201.050 94.533,200.907 94.445 C 200.757 94.352,200.715 94.395,200.807 94.544 C 200.896 94.687,200.860 94.872,200.727 94.954 C 200.407 95.152,200.392 135.812,200.713 136.010 C 200.837 136.087,200.882 136.299,200.812 136.481 C 200.473 137.366,208.301 137.500,209.232 136.625 C 209.895 136.003,210.199 124.017,209.562 123.624 C 208.745 123.118,210.129 122.965,216.166 122.889 C 221.968 122.817,222.638 122.767,222.915 122.389 C 223.104 122.130,223.539 121.969,224.047 121.969 C 224.669 121.969,225.018 121.793,225.461 121.259 C 225.785 120.868,226.163 120.544,226.301 120.538 C 226.770 120.519,228.331 118.850,228.331 118.368 C 228.331 118.101,228.491 117.887,228.691 117.887 C 228.890 117.887,229.061 117.806,229.072 117.707 C 229.083 117.608,229.118 117.295,229.150 117.012 C 229.182 116.728,229.392 116.312,229.616 116.088 C 230.284 115.420,230.194 101.496,229.518 100.770 C 229.262 100.495,229.052 100.087,229.052 99.864 C 229.052 99.641,228.890 99.324,228.691 99.160 C 228.493 98.995,228.331 98.712,228.331 98.530 C 228.331 98.348,228.169 98.199,227.971 98.199 C 227.771 98.199,227.611 97.986,227.611 97.719 C 227.611 97.455,227.461 97.239,227.277 97.239 C 227.093 97.239,226.880 97.077,226.804 96.879 C 226.728 96.681,226.512 96.519,226.324 96.519 C 226.136 96.519,225.920 96.357,225.844 96.158 C 225.763 95.948,225.403 95.798,224.978 95.798 C 224.495 95.798,224.250 95.679,224.250 95.443 C 224.250 95.247,223.953 95.021,223.589 94.940 C 223.226 94.859,222.589 94.641,222.173 94.455 C 221.234 94.036,201.574 93.948,201.318 94.362 M239.765 94.490 C 239.543 95.068,239.592 136.445,239.815 136.797 C 239.979 137.055,251.677 137.202,263.826 137.100 C 264.388 137.095,264.596 131.740,264.055 131.202 C 263.962 131.108,259.668 131.052,254.513 131.076 L 245.141 131.119 245.080 112.678 L 245.018 94.238 242.466 94.170 C 240.297 94.112,239.891 94.160,239.765 94.490 M306.283 94.278 C 305.942 94.618,306.111 97.183,306.483 97.326 C 306.705 97.411,306.843 97.776,306.843 98.282 C 306.843 98.733,306.993 99.226,307.177 99.378 C 307.464 99.616,307.711 100.396,307.847 101.490 C 307.867 101.650,308.027 101.835,308.203 101.903 C 308.379 101.970,308.523 102.332,308.523 102.706 C 308.523 103.079,308.647 103.509,308.797 103.659 C 308.948 103.810,309.160 104.498,309.269 105.189 C 309.378 105.879,309.596 106.524,309.753 106.621 C 309.910 106.718,310.070 107.089,310.108 107.446 C 310.146 107.803,310.345 108.281,310.551 108.508 C 310.756 108.736,310.924 109.202,310.924 109.546 C 310.924 109.889,311.086 110.332,311.285 110.530 C 311.483 110.728,311.645 111.165,311.645 111.502 C 311.645 111.838,311.860 112.467,312.124 112.899 C 312.388 113.332,312.604 114.025,312.604 114.440 C 312.605 114.889,312.751 115.251,312.965 115.333 C 313.178 115.415,313.325 115.775,313.325 116.216 C 313.325 116.626,313.487 117.123,313.685 117.321 C 313.884 117.519,314.046 117.998,314.046 118.385 C 314.046 118.773,314.262 119.493,314.526 119.985 C 314.790 120.478,315.006 121.075,315.006 121.313 C 315.006 121.550,315.168 121.806,315.366 121.882 C 315.585 121.966,315.726 122.329,315.726 122.805 C 315.726 123.237,315.888 123.725,316.086 123.890 C 316.293 124.061,316.447 124.585,316.447 125.119 C 316.447 125.669,316.561 126.050,316.727 126.050 C 316.881 126.050,316.940 126.117,316.858 126.199 C 316.776 126.281,316.867 126.506,317.060 126.699 C 317.253 126.892,317.355 127.141,317.286 127.252 C 317.107 127.542,317.676 128.702,317.922 128.550 C 318.035 128.480,318.127 128.848,318.127 129.368 C 318.127 129.888,318.275 130.436,318.456 130.586 C 318.637 130.737,318.845 131.306,318.918 131.851 C 318.991 132.396,319.152 132.908,319.275 132.988 C 319.398 133.068,319.572 133.535,319.663 134.026 C 319.753 134.517,319.979 135.071,320.165 135.257 C 320.352 135.443,320.541 135.875,320.587 136.216 C 320.706 137.102,320.613 137.079,324.074 137.110 C 327.590 137.141,328.451 136.759,328.451 135.166 C 328.451 134.805,328.613 134.199,328.810 133.821 C 329.007 133.443,329.169 132.903,329.170 132.622 C 329.171 132.341,329.334 131.977,329.532 131.813 C 329.751 131.631,329.892 131.105,329.892 130.471 C 329.892 129.674,330.005 129.368,330.372 129.172 C 330.659 129.018,330.852 128.669,330.852 128.306 C 330.852 127.971,331.014 127.535,331.212 127.337 C 331.411 127.139,331.573 126.619,331.573 126.183 C 331.573 125.746,331.735 125.254,331.933 125.090 C 332.132 124.925,332.293 124.401,332.293 123.918 C 332.293 123.305,332.436 122.955,332.773 122.745 C 333.124 122.526,333.253 122.185,333.253 121.479 C 333.253 120.842,333.376 120.466,333.613 120.375 C 333.837 120.289,333.974 119.924,333.974 119.415 C 333.974 118.905,334.111 118.540,334.334 118.454 C 334.569 118.364,334.694 117.991,334.694 117.381 C 334.694 116.867,334.785 116.447,334.895 116.447 C 335.181 116.447,335.654 115.330,335.654 114.655 C 335.654 114.342,335.769 114.047,335.910 114.000 C 336.050 113.954,336.228 113.449,336.304 112.879 C 336.381 112.309,336.590 111.787,336.769 111.718 C 336.971 111.641,337.095 111.214,337.095 110.596 C 337.095 109.859,337.220 109.521,337.575 109.299 C 337.906 109.093,338.055 108.740,338.055 108.161 C 338.055 107.619,338.161 107.344,338.355 107.383 C 338.554 107.423,338.680 107.055,338.729 106.290 C 338.776 105.560,338.930 105.088,339.149 105.004 C 339.340 104.930,339.496 104.573,339.496 104.208 C 339.496 103.844,339.712 103.271,339.976 102.936 C 340.240 102.600,340.460 102.018,340.464 101.643 C 340.468 101.267,340.630 100.751,340.824 100.494 C 341.018 100.238,341.176 99.771,341.176 99.457 C 341.176 99.142,341.339 98.723,341.537 98.525 C 341.735 98.327,341.897 97.741,341.897 97.222 C 341.897 96.579,342.002 96.279,342.229 96.279 C 342.599 96.279,342.864 95.277,342.680 94.574 C 342.573 94.162,342.314 94.118,339.994 94.118 C 337.117 94.118,336.818 94.242,336.382 95.618 C 336.226 96.113,336.020 96.519,335.925 96.519 C 335.830 96.519,335.725 96.921,335.692 97.412 C 335.659 97.904,335.475 98.480,335.283 98.692 C 335.091 98.904,334.934 99.381,334.934 99.752 C 334.934 100.124,334.770 100.547,334.570 100.694 C 334.370 100.840,334.153 101.382,334.087 101.897 C 334.021 102.411,333.820 102.952,333.639 103.097 C 333.459 103.242,333.247 103.793,333.168 104.320 C 333.089 104.847,332.914 105.315,332.779 105.360 C 332.644 105.405,332.533 105.826,332.533 106.296 C 332.533 106.766,332.376 107.270,332.184 107.417 C 331.878 107.650,331.657 108.405,331.592 109.438 C 331.582 109.611,331.476 109.692,331.358 109.619 C 331.081 109.448,330.852 110.051,330.852 110.952 C 330.852 111.360,330.700 111.718,330.492 111.798 C 330.280 111.879,330.132 112.239,330.132 112.672 C 330.132 113.076,329.980 113.578,329.794 113.787 C 329.608 113.995,329.422 114.490,329.380 114.886 C 329.338 115.282,329.112 115.864,328.877 116.179 C 328.643 116.494,328.451 117.107,328.451 117.542 C 328.451 117.977,328.289 118.495,328.091 118.693 C 327.893 118.891,327.731 119.380,327.731 119.779 C 327.731 120.178,327.579 120.591,327.394 120.696 C 327.208 120.802,326.989 121.316,326.907 121.839 C 326.825 122.361,326.644 122.859,326.506 122.945 C 326.367 123.030,326.194 123.546,326.121 124.091 C 326.048 124.637,325.840 125.206,325.659 125.356 C 325.478 125.506,325.330 125.982,325.330 126.414 C 325.330 126.891,325.189 127.254,324.970 127.338 C 324.766 127.416,324.610 127.774,324.610 128.164 C 324.610 128.542,324.543 128.918,324.461 129.000 C 324.228 129.234,323.649 128.536,323.649 128.021 C 323.649 127.765,323.433 127.281,323.169 126.945 C 322.891 126.592,322.689 125.971,322.689 125.472 C 322.689 124.866,322.582 124.610,322.329 124.610 C 322.062 124.610,321.969 124.329,321.969 123.522 C 321.969 122.776,321.855 122.390,321.609 122.296 C 321.390 122.212,321.248 121.849,321.248 121.375 C 321.248 120.945,321.032 120.318,320.768 119.983 C 320.504 119.647,320.288 119.051,320.288 118.659 C 320.288 118.267,320.126 117.811,319.928 117.647 C 319.730 117.483,319.568 117.030,319.568 116.640 C 319.568 116.251,319.406 115.770,319.208 115.572 C 319.010 115.374,318.848 114.958,318.848 114.648 C 318.848 113.836,318.606 113.325,318.222 113.325 C 317.991 113.325,317.887 113.025,317.887 112.357 C 317.887 111.719,317.765 111.343,317.527 111.251 C 317.277 111.155,317.167 110.764,317.167 109.968 C 317.167 109.287,317.033 108.711,316.836 108.547 C 316.533 108.296,316.097 106.975,316.174 106.543 C 316.192 106.444,316.044 106.363,315.846 106.363 C 315.586 106.363,315.486 106.095,315.486 105.395 C 315.486 104.756,315.364 104.380,315.126 104.289 C 314.891 104.198,314.766 103.825,314.766 103.216 C 314.766 102.584,314.659 102.281,314.437 102.281 C 314.223 102.281,314.052 101.860,313.948 101.080 C 313.839 100.258,313.678 99.880,313.437 99.880 C 313.188 99.880,313.085 99.605,313.085 98.937 C 313.085 98.418,312.923 97.831,312.725 97.633 C 312.527 97.435,312.365 96.894,312.365 96.430 C 312.365 95.966,312.250 95.516,312.110 95.429 C 311.970 95.342,311.756 95.012,311.636 94.695 C 311.418 94.122,306.798 93.762,306.283 94.278 M349.759 94.593 C 349.274 95.160,349.100 135.872,349.580 136.615 C 349.708 136.813,349.816 136.867,349.820 136.735 C 349.824 136.603,349.924 136.647,350.042 136.834 C 350.378 137.364,354.871 137.230,355.286 136.678 C 355.527 136.357,355.576 131.911,355.526 115.255 L 355.462 94.238 352.821 94.170 C 350.412 94.109,350.142 94.146,349.759 94.593 M370.097 94.421 C 370.033 94.587,370.009 104.229,370.044 115.847 L 370.108 136.970 370.796 137.093 C 371.175 137.160,372.364 137.161,373.437 137.095 L 375.390 136.975 375.513 119.928 C 375.580 110.552,375.661 103.225,375.693 103.644 C 375.724 104.064,375.912 104.570,376.110 104.768 C 376.309 104.966,376.471 105.298,376.471 105.505 C 376.471 105.713,376.633 105.882,376.831 105.882 C 377.070 105.882,377.191 106.122,377.191 106.594 C 377.191 107.060,377.357 107.395,377.671 107.563 C 377.954 107.715,378.151 108.066,378.151 108.419 C 378.151 108.749,378.313 109.081,378.511 109.157 C 378.709 109.233,378.872 109.492,378.872 109.732 C 378.872 109.973,379.034 110.332,379.232 110.530 C 379.430 110.728,379.592 111.060,379.592 111.267 C 379.592 111.475,379.800 111.853,380.054 112.107 C 380.309 112.362,380.552 112.875,380.595 113.248 C 380.639 113.632,380.802 113.900,380.972 113.866 C 381.137 113.833,381.273 113.959,381.273 114.146 C 381.273 114.443,381.894 115.757,382.758 117.287 C 382.907 117.551,383.121 117.929,383.233 118.127 C 383.345 118.325,383.503 118.649,383.584 118.848 C 384.214 120.386,384.728 121.248,385.015 121.248 C 385.229 121.248,385.354 121.505,385.354 121.943 C 385.354 122.339,385.509 122.697,385.714 122.776 C 385.912 122.852,386.074 123.182,386.074 123.510 C 386.074 123.838,386.233 124.195,386.428 124.304 C 386.622 124.412,386.820 124.757,386.868 125.070 C 386.916 125.382,387.135 125.770,387.355 125.931 C 387.575 126.092,387.755 126.449,387.755 126.725 C 387.755 127.001,387.908 127.313,388.094 127.419 C 388.281 127.525,388.470 127.935,388.515 128.331 C 388.561 128.749,388.722 129.026,388.896 128.992 C 389.061 128.959,389.196 129.127,389.196 129.366 C 389.196 129.606,389.412 130.033,389.676 130.317 C 389.940 130.600,390.156 131.045,390.156 131.305 C 390.156 131.566,390.304 131.926,390.485 132.107 C 390.665 132.288,390.889 132.675,390.982 132.968 C 391.075 133.261,391.229 133.452,391.324 133.393 C 391.419 133.335,391.514 133.516,391.535 133.796 C 391.556 134.076,391.795 134.604,392.065 134.970 C 392.336 135.336,392.557 135.801,392.557 136.005 C 392.557 136.208,392.719 136.375,392.917 136.375 C 393.115 136.375,393.277 136.537,393.277 136.735 C 393.277 137.129,393.258 137.126,396.685 137.135 C 397.964 137.138,399.126 137.070,399.266 136.984 C 399.441 136.875,399.520 130.241,399.520 115.472 L 399.520 94.118 396.904 94.118 C 394.741 94.118,394.264 94.183,394.143 94.497 C 394.063 94.706,393.994 101.864,393.990 110.404 C 393.982 125.875,393.980 125.928,393.509 125.364 C 393.250 125.052,393.037 124.593,393.037 124.343 C 393.037 124.094,392.875 123.890,392.677 123.890 C 392.458 123.890,392.317 123.666,392.317 123.319 C 392.317 123.005,392.155 122.613,391.957 122.449 C 391.759 122.285,391.597 121.960,391.597 121.729 C 391.597 121.497,391.440 121.177,391.249 121.019 C 391.057 120.860,390.779 120.360,390.630 119.909 C 390.481 119.457,390.259 119.088,390.137 119.088 C 390.016 119.088,389.916 118.883,389.916 118.633 C 389.916 118.383,389.754 118.116,389.556 118.040 C 389.358 117.964,389.196 117.625,389.196 117.287 C 389.196 116.948,389.044 116.613,388.859 116.542 C 388.674 116.471,388.452 116.037,388.366 115.577 C 388.279 115.117,388.053 114.681,387.862 114.608 C 387.671 114.534,387.515 114.224,387.515 113.917 C 387.515 113.610,387.353 113.198,387.155 112.999 C 386.957 112.801,386.795 112.483,386.795 112.291 C 386.795 112.100,386.643 111.818,386.458 111.664 C 386.273 111.511,386.055 111.119,385.973 110.794 C 385.892 110.470,385.665 110.204,385.470 110.204 C 385.223 110.204,385.114 109.946,385.114 109.364 C 385.114 108.777,385.005 108.523,384.754 108.523 C 384.515 108.523,384.394 108.285,384.394 107.815 C 384.394 107.425,384.230 107.015,384.029 106.903 C 383.828 106.790,383.614 106.434,383.552 106.110 C 383.490 105.787,383.268 105.397,383.060 105.244 C 382.852 105.091,382.688 104.902,382.697 104.824 C 382.777 104.112,382.655 103.721,382.353 103.721 C 382.114 103.721,381.993 103.482,381.993 103.010 C 381.993 102.544,381.827 102.209,381.513 102.041 C 381.248 101.899,381.032 101.568,381.032 101.305 C 381.032 101.041,380.870 100.763,380.672 100.687 C 380.471 100.610,380.312 100.253,380.312 99.880 C 380.312 99.507,380.153 99.150,379.952 99.073 C 379.754 98.997,379.592 98.668,379.592 98.341 C 379.592 98.015,379.482 97.680,379.348 97.597 C 379.214 97.514,378.949 97.075,378.760 96.622 C 378.571 96.169,378.302 95.798,378.164 95.798 C 378.025 95.798,377.911 95.591,377.911 95.338 C 377.911 94.133,377.860 94.118,373.916 94.118 C 371.157 94.118,370.183 94.195,370.097 94.421 M47.004 97.239 C 47.317 97.239,47.735 97.401,47.933 97.599 C 48.448 98.114,54.406 98.107,55.088 97.591 C 55.819 97.039,56.423 97.143,56.423 97.822 C 56.423 98.143,56.579 98.562,56.771 98.753 C 56.962 98.945,57.190 99.385,57.277 99.731 C 57.364 100.077,57.585 100.360,57.769 100.360 C 58.053 100.360,58.232 100.983,58.132 101.621 C 58.116 101.720,58.214 101.801,58.348 101.801 C 58.483 101.801,58.725 102.098,58.886 102.461 C 59.047 102.824,59.314 103.264,59.481 103.439 C 59.648 103.613,59.784 103.951,59.784 104.189 C 59.784 104.428,59.946 104.758,60.144 104.922 C 60.342 105.086,60.504 105.331,60.504 105.465 C 60.504 105.599,60.671 105.831,60.875 105.981 C 61.079 106.130,61.264 106.490,61.286 106.781 C 61.308 107.072,61.454 107.360,61.611 107.420 C 61.768 107.480,62.024 107.915,62.179 108.387 C 62.335 108.858,62.562 109.244,62.684 109.244 C 62.805 109.244,62.905 109.447,62.905 109.694 C 62.905 109.942,63.067 110.280,63.265 110.444 C 63.463 110.609,63.625 110.875,63.625 111.037 C 63.625 111.199,63.842 111.580,64.106 111.885 C 64.370 112.189,64.586 112.584,64.586 112.762 C 64.586 112.940,64.748 113.085,64.946 113.085 C 65.198 113.085,65.306 113.339,65.306 113.926 C 65.306 114.512,65.415 114.766,65.666 114.766 C 65.864 114.766,66.026 114.913,66.026 115.094 C 66.026 115.274,66.236 115.688,66.492 116.013 C 66.748 116.338,67.029 116.892,67.118 117.244 C 67.206 117.596,67.375 117.824,67.493 117.751 C 67.611 117.678,67.707 117.895,67.707 118.233 C 67.707 118.571,67.821 118.848,67.960 118.848 C 68.099 118.848,68.325 119.172,68.463 119.568 C 68.601 119.964,68.803 120.288,68.912 120.288 C 69.021 120.288,69.182 120.620,69.271 121.025 C 69.360 121.430,69.585 121.819,69.771 121.891 C 69.956 121.962,70.108 122.336,70.108 122.722 C 70.108 123.125,70.262 123.483,70.468 123.563 C 70.666 123.639,70.828 123.835,70.828 123.999 C 70.828 124.162,71.044 124.545,71.309 124.850 C 71.573 125.154,71.789 125.536,71.789 125.698 C 71.789 125.859,71.951 126.126,72.149 126.291 C 72.347 126.455,72.509 126.781,72.509 127.015 C 72.509 127.248,72.671 127.502,72.869 127.578 C 73.067 127.654,73.229 127.986,73.229 128.315 C 73.229 128.655,73.424 129.019,73.678 129.155 C 73.924 129.287,74.193 129.730,74.275 130.139 C 74.358 130.554,74.532 130.818,74.667 130.734 C 74.801 130.651,74.910 130.765,74.910 130.987 C 74.910 131.208,75.288 132.012,75.750 132.773 C 76.212 133.534,76.591 134.277,76.591 134.425 C 76.591 134.573,76.753 134.694,76.951 134.694 C 77.192 134.694,77.311 134.935,77.311 135.422 C 77.311 135.847,77.461 136.207,77.671 136.288 C 77.869 136.364,78.031 136.623,78.031 136.863 C 78.031 137.104,78.193 137.463,78.391 137.661 C 78.903 138.172,78.843 138.275,78.091 138.175 C 77.728 138.128,76.925 138.081,76.308 138.072 C 75.690 138.063,75.042 137.914,74.867 137.742 C 74.654 137.532,73.681 137.406,71.915 137.361 C 70.466 137.324,69.088 137.192,68.854 137.066 C 68.619 136.941,68.427 136.902,68.427 136.981 C 68.427 137.059,68.292 137.037,68.127 136.933 C 67.725 136.677,67.768 136.679,61.482 136.645 C 57.054 136.621,55.909 136.547,55.633 136.271 C 55.370 136.008,54.478 135.919,51.834 135.893 C 47.565 135.852,47.881 135.827,47.466 136.242 C 47.182 136.526,45.957 136.597,40.786 136.627 C 37.303 136.648,34.346 136.733,34.214 136.816 C 34.082 136.899,33.893 136.983,33.794 137.001 C 33.694 137.020,33.586 137.057,33.553 137.083 C 33.371 137.230,32.276 137.318,30.198 137.352 C 28.542 137.380,27.783 137.487,27.588 137.723 C 27.416 137.930,26.830 138.055,26.037 138.055 C 25.335 138.055,24.484 138.161,24.145 138.289 C 23.807 138.418,23.529 138.430,23.529 138.315 C 23.529 138.200,23.681 138.048,23.867 137.977 C 24.053 137.906,24.275 137.525,24.362 137.131 C 24.448 136.737,24.675 136.355,24.865 136.282 C 25.060 136.207,25.210 135.833,25.210 135.422 C 25.210 134.935,25.329 134.694,25.570 134.694 C 25.770 134.694,25.930 134.480,25.930 134.214 C 25.930 133.950,26.025 133.733,26.141 133.733 C 26.257 133.733,26.483 133.417,26.644 133.030 C 26.804 132.644,27.087 132.269,27.273 132.198 C 27.459 132.126,27.611 131.791,27.611 131.453 C 27.611 131.114,27.773 130.775,27.971 130.699 C 28.176 130.620,28.331 130.262,28.331 129.866 C 28.331 129.484,28.438 129.172,28.568 129.172 C 28.698 129.172,28.963 128.794,29.156 128.331 C 29.349 127.869,29.621 127.491,29.760 127.491 C 29.898 127.491,30.012 127.342,30.012 127.160 C 30.012 126.978,30.174 126.695,30.372 126.531 C 30.570 126.366,30.732 126.019,30.732 125.759 C 30.732 125.499,30.948 125.011,31.212 124.675 C 31.477 124.340,31.693 123.917,31.693 123.737 C 31.693 123.557,31.855 123.409,32.053 123.409 C 32.251 123.409,32.400 123.328,32.385 123.229 C 32.280 122.567,32.464 121.969,32.773 121.969 C 32.997 121.969,33.133 121.742,33.133 121.369 C 33.133 121.038,33.231 120.768,33.351 120.768 C 33.638 120.768,34.814 118.750,34.814 118.257 C 34.814 118.045,34.953 117.819,35.123 117.753 C 35.294 117.688,35.451 117.401,35.472 117.117 C 35.493 116.832,35.670 116.510,35.864 116.401 C 36.058 116.293,36.286 115.889,36.370 115.505 C 36.455 115.120,36.679 114.746,36.869 114.673 C 37.059 114.601,37.215 114.267,37.215 113.933 C 37.215 113.599,37.317 113.325,37.442 113.325 C 37.669 113.325,38.073 112.686,38.770 111.224 C 38.975 110.795,39.249 110.444,39.379 110.444 C 39.509 110.444,39.616 110.171,39.616 109.836 C 39.616 109.502,39.778 109.166,39.976 109.090 C 40.181 109.012,40.336 108.654,40.336 108.258 C 40.336 107.800,40.459 107.563,40.696 107.563 C 40.894 107.563,41.065 107.482,41.075 107.383 C 41.143 106.718,41.301 106.323,41.635 105.990 C 41.845 105.780,42.017 105.500,42.017 105.368 C 42.017 105.236,42.179 104.966,42.377 104.768 C 42.575 104.570,42.737 104.211,42.737 103.970 C 42.737 103.730,42.889 103.474,43.075 103.403 C 43.260 103.332,43.485 102.941,43.574 102.535 C 43.664 102.129,43.830 101.854,43.945 101.925 C 44.060 101.996,44.224 101.680,44.309 101.224 C 44.395 100.767,44.616 100.335,44.802 100.264 C 44.987 100.193,45.138 99.955,45.138 99.734 C 45.138 99.513,45.310 99.207,45.519 99.054 C 45.747 98.887,45.916 98.374,45.939 97.779 C 45.964 97.151,46.062 96.867,46.206 97.011 C 46.332 97.136,46.691 97.239,47.004 97.239 M286.630 98.410 C 286.853 98.526,287.791 98.691,288.715 98.777 C 289.640 98.863,290.526 98.948,290.686 98.966 C 290.845 98.985,290.927 99.078,290.867 99.175 C 290.737 99.386,291.342 99.640,291.976 99.640 C 292.230 99.640,292.437 99.742,292.437 99.867 C 292.437 99.992,292.731 100.235,293.090 100.407 C 293.449 100.579,293.881 100.990,294.050 101.321 C 294.219 101.651,294.465 101.894,294.597 101.861 C 294.730 101.828,294.838 102.035,294.838 102.322 C 294.838 102.609,295.027 103.052,295.258 103.308 C 295.646 103.737,295.678 104.675,295.678 115.649 C 295.678 126.710,295.649 127.541,295.258 127.760 C 295.006 127.901,294.838 128.278,294.838 128.703 C 294.838 129.173,294.717 129.412,294.478 129.412 C 294.280 129.412,294.118 129.574,294.118 129.772 C 294.118 129.970,294.015 130.132,293.890 130.132 C 293.765 130.132,293.373 130.400,293.019 130.728 C 292.666 131.055,292.282 131.265,292.167 131.194 C 292.051 131.122,291.957 131.233,291.957 131.438 C 291.957 131.692,291.730 131.813,291.254 131.813 C 290.867 131.813,290.388 131.975,290.190 132.173 C 289.667 132.696,281.468 132.702,280.778 132.181 C 280.522 131.987,279.961 131.825,279.532 131.820 C 278.994 131.815,278.752 131.698,278.752 131.445 C 278.752 131.243,278.571 131.008,278.350 130.923 C 277.837 130.726,277.071 129.965,277.071 129.652 C 277.071 129.520,276.921 129.412,276.739 129.412 C 276.439 129.412,276.019 128.603,276.084 128.151 C 276.099 128.052,276.013 127.971,275.893 127.971 C 275.773 127.971,275.601 127.431,275.510 126.771 C 275.419 126.110,275.247 125.570,275.128 125.570 C 274.721 125.570,274.853 105.810,275.262 105.268 C 275.456 105.012,275.618 104.343,275.623 103.782 C 275.628 103.038,275.728 102.761,275.990 102.761 C 276.213 102.761,276.351 102.535,276.351 102.169 C 276.351 101.823,276.550 101.471,276.831 101.321 C 277.095 101.179,277.311 100.905,277.311 100.712 C 277.311 100.518,277.514 100.360,277.762 100.360 C 278.010 100.360,278.347 100.198,278.511 100.000 C 278.676 99.802,279.013 99.640,279.261 99.640 C 279.509 99.640,279.712 99.539,279.712 99.416 C 279.712 99.038,280.340 98.912,284.032 98.554 C 284.889 98.471,285.636 98.357,285.692 98.301 C 285.852 98.141,286.190 98.181,286.630 98.410 M181.513 102.355 C 181.975 102.432,182.569 102.546,182.833 102.610 C 183.097 102.673,183.610 102.733,183.974 102.743 C 184.392 102.754,184.634 102.893,184.634 103.121 C 184.634 103.319,184.769 103.454,184.934 103.421 C 185.165 103.375,185.249 104.585,185.299 108.703 C 185.362 113.915,185.352 114.046,184.879 114.076 C 184.612 114.092,184.286 114.133,184.154 114.166 C 184.022 114.199,183.752 114.239,183.553 114.256 C 183.355 114.272,183.220 114.421,183.253 114.586 C 183.299 114.816,182.234 114.901,178.691 114.951 L 174.070 115.016 174.070 108.552 L 174.070 102.088 177.371 102.151 C 179.187 102.186,181.050 102.278,181.513 102.355 M217.583 102.328 C 217.627 102.462,218.254 102.620,218.976 102.679 C 219.728 102.740,220.402 102.934,220.555 103.134 C 220.701 103.325,220.944 103.481,221.095 103.481 C 221.291 103.481,221.369 104.852,221.369 108.293 C 221.369 113.539,221.277 113.907,219.904 114.170 C 219.587 114.230,219.208 114.443,219.061 114.643 C 218.580 115.298,209.124 115.173,209.124 114.512 C 209.124 114.240,209.220 114.077,209.339 114.150 C 209.890 114.491,210.128 104.220,209.592 103.219 C 209.375 102.813,209.450 102.700,210.132 102.400 C 211.077 101.985,217.448 101.923,217.583 102.328 M138.437 108.390 C 138.627 108.529,138.831 109.020,138.889 109.479 C 138.947 109.939,139.161 110.437,139.365 110.586 C 139.569 110.735,139.736 111.189,139.736 111.594 C 139.736 111.999,139.898 112.493,140.096 112.691 C 140.294 112.889,140.456 113.413,140.456 113.855 C 140.456 114.297,140.643 114.925,140.870 115.250 C 141.098 115.576,141.317 116.053,141.356 116.312 C 141.396 116.570,141.588 116.958,141.782 117.173 C 141.977 117.389,142.137 117.923,142.137 118.360 C 142.137 118.835,142.306 119.283,142.557 119.474 C 142.911 119.742,142.193 119.794,138.018 119.800 L 133.058 119.808 133.195 119.268 C 133.270 118.971,133.426 118.665,133.541 118.588 C 133.656 118.511,133.815 118.025,133.895 117.508 C 133.974 116.990,134.178 116.405,134.348 116.206 C 134.519 116.008,134.693 115.414,134.736 114.886 C 134.779 114.358,134.902 113.980,135.011 114.046 C 135.255 114.195,136.137 111.848,136.305 110.606 C 136.373 110.101,136.578 109.631,136.762 109.560 C 136.953 109.487,137.095 109.094,137.095 108.637 C 137.095 108.200,137.284 107.510,137.515 107.104 L 137.935 106.366 138.012 107.251 C 138.055 107.737,138.246 108.250,138.437 108.390 M13.985 147.348 C 14.410 147.585,14.902 147.914,15.079 148.079 C 15.256 148.244,15.555 148.379,15.743 148.379 C 15.932 148.379,16.086 148.541,16.086 148.739 C 16.086 148.938,16.194 149.100,16.327 149.100 C 16.459 149.100,16.567 149.250,16.567 149.434 C 16.567 149.618,16.729 149.831,16.927 149.907 C 17.125 149.983,17.287 150.199,17.287 150.387 C 17.287 150.575,17.449 150.791,17.647 150.867 C 17.935 150.978,18.007 151.506,18.007 153.517 C 18.007 155.429,17.921 156.114,17.647 156.388 C 17.449 156.586,17.287 157.080,17.287 157.486 C 17.287 157.981,17.169 158.223,16.927 158.223 C 16.729 158.223,16.567 158.385,16.567 158.583 C 16.567 158.782,16.395 158.944,16.184 158.944 C 15.974 158.944,15.529 159.158,15.196 159.420 C 14.862 159.683,14.514 159.851,14.421 159.794 C 14.329 159.736,14.102 159.900,13.916 160.157 C 13.397 160.877,8.523 160.866,8.334 160.144 C 8.257 159.851,8.006 159.664,7.691 159.664 C 7.404 159.664,7.241 159.556,7.325 159.421 C 7.408 159.286,7.148 159.113,6.739 159.031 C 6.244 158.932,6.002 158.742,6.002 158.451 C 6.002 158.212,5.817 157.833,5.591 157.606 C 5.365 157.380,5.155 157.024,5.125 156.816 C 5.094 156.607,4.901 156.313,4.695 156.163 C 4.166 155.775,4.155 151.698,4.682 151.261 C 4.880 151.096,5.042 150.759,5.042 150.511 C 5.042 150.263,5.154 150.060,5.290 150.060 C 5.427 150.060,5.762 149.682,6.034 149.220 C 6.324 148.728,6.719 148.379,6.987 148.379 C 7.238 148.379,7.443 148.229,7.443 148.046 C 7.443 147.855,7.802 147.645,8.283 147.555 C 8.745 147.468,9.124 147.302,9.124 147.186 C 9.124 146.625,12.918 146.752,13.985 147.348 M93.457 146.924 C 93.846 146.933,94.093 147.060,94.058 147.233 C 94.025 147.395,94.233 147.564,94.520 147.608 C 94.808 147.652,95.172 147.843,95.330 148.034 C 95.488 148.224,95.793 148.381,96.008 148.382 C 96.228 148.384,96.608 148.821,96.878 149.384 C 97.141 149.934,97.516 150.542,97.710 150.737 C 98.318 151.345,98.324 155.769,97.718 156.593 C 97.454 156.951,97.239 157.464,97.239 157.733 C 97.239 158.009,97.081 158.223,96.879 158.223 C 96.681 158.223,96.519 158.385,96.519 158.583 C 96.519 158.782,96.357 158.944,96.158 158.944 C 95.960 158.944,95.798 159.106,95.798 159.304 C 95.798 159.502,95.641 159.664,95.449 159.664 C 94.923 159.664,93.877 160.190,94.002 160.391 C 94.062 160.489,92.924 160.586,91.474 160.608 C 90.023 160.629,88.836 160.552,88.836 160.436 C 88.836 160.320,88.547 160.072,88.193 159.885 C 87.287 159.403,85.954 158.190,85.954 157.845 C 85.954 157.685,85.792 157.492,85.594 157.416 C 85.396 157.340,85.234 157.040,85.234 156.749 C 85.234 156.458,85.062 156.030,84.851 155.797 C 84.327 155.218,84.342 151.879,84.870 151.350 C 85.070 151.150,85.234 150.789,85.234 150.549 C 85.234 150.308,85.396 150.049,85.594 149.973 C 85.792 149.897,85.954 149.724,85.954 149.587 C 85.954 149.284,86.834 148.379,87.129 148.379 C 87.247 148.379,87.406 148.217,87.482 148.019 C 87.558 147.821,87.832 147.659,88.091 147.659 C 88.349 147.659,88.713 147.507,88.899 147.321 C 89.303 146.917,89.980 146.803,91.597 146.864 C 92.257 146.889,93.094 146.916,93.457 146.924 " stroke="none" fill="#0c83aa" fill-rule="evenodd"></path><path id="path4" d="" stroke="none" fill="#00ffff" fill-rule="evenodd"></path></g></svg>