<?xml version="1.0" encoding="utf-8"?>
<!-- Generator: Adobe Illustrator 20.1.0, SVG Export Plug-In . SVG Version: 6.00 Build 0)  -->
<svg version="1.1" id="Layer_1" xmlns="http://www.w3.org/2000/svg" xmlns:xlink="http://www.w3.org/1999/xlink" x="0px" y="0px"
	 viewBox="0 0 112.7 145.4" enable-background="new 0 0 112.7 145.4" xml:space="preserve">
<g id="XMLID_1_">
	<g id="XMLID_9_">
		<path id="XMLID_23_" fill="#231F20" d="M6.4,122.5L0,140.8h3.3l1.2-3.5h7.2l1.2,3.5h3.4L10,122.5H6.4z M5.5,134.1l2.6-7.6l2.6,7.6
			H5.5z"/>
		<path id="XMLID_20_" fill="#231F20" d="M27.7,128.2c-0.8-0.7-1.9-1.1-3.2-1.1c-1.5,0-2.9,0.6-3.7,1.8l-0.2-1.4h-2.6v18h3.2v-5.7
			c0.4,0.7,1.8,1.3,3.4,1.3c1.4,0,2.4-0.4,3.2-1.1c1.6-1.3,2.4-3.3,2.4-5.9C30.1,131.5,29.3,129.5,27.7,128.2 M26,137.3
			c-0.5,0.6-1.1,1-2.1,1c-2.5,0-3-2.4-3-4.3c0-1.9,0.5-4.3,3-4.3c1,0,1.7,0.5,2.1,1c0.7,0.9,0.8,2.1,0.8,3.2
			C26.9,135.2,26.7,136.4,26,137.3"/>
		<path id="XMLID_17_" fill="#231F20" d="M41.5,128.2c-0.8-0.7-1.9-1.1-3.2-1.1c-1.5,0-2.9,0.6-3.7,1.8l-0.2-1.4h-2.7v18h3.2v-5.7
			c0.7,0.7,1.9,1.3,3.5,1.3c1.4,0,2.4-0.4,3.2-1.1c1.6-1.3,2.4-3.3,2.4-5.9C43.9,131.5,43.1,129.5,41.5,128.2 M39.8,137.3
			c-0.5,0.6-1.1,1-2.1,1c-2.5,0-3-2.4-3-4.3c0-1.9,0.5-4.3,3-4.3c1,0,1.7,0.5,2.1,1c0.7,0.9,0.8,2.1,0.8,3.2
			C40.7,135.2,40.5,136.4,39.8,137.3"/>
		<polygon id="XMLID_16_" fill="#231F20" points="57,134.8 49.4,122.5 45.8,122.5 45.8,140.8 49.3,140.8 49.3,128.2 57,140.8 
			60.6,140.8 60.6,122.5 57,122.5 		"/>
		<path id="XMLID_13_" fill="#231F20" d="M70.2,137.8c-0.5,0.5-1,0.7-1.9,0.7c-0.9,0-1.5-0.3-2-0.7c-0.6-0.6-1-1.8-1-2.5h8.9
			c0-0.4,0-1,0-1c0.1-1.7-0.2-3.2-1.1-4.7c-1.1-1.7-2.9-2.5-4.9-2.5c-1.8,0-3.2,0.7-4.2,1.7c-1.3,1.3-1.9,3.2-1.9,5.3
			c0,2.2,0.7,4,2,5.3c1,1,2.4,1.6,4.2,1.6c1.7,0,3.3-0.6,4.5-1.9c0.5-0.6,1-1.4,1.1-2.5h-3.1C70.7,137.3,70.5,137.5,70.2,137.8
			 M66,130.6c0.5-0.6,1.3-1,2.2-1c0.9,0,1.6,0.3,2,0.8c0.5,0.6,0.8,1.3,0.8,2.3h-5.7C65.3,131.7,65.5,131.2,66,130.6"/>
		<polygon id="XMLID_12_" fill="#231F20" points="83.7,127.4 80.8,131.7 77.8,127.4 74.1,127.4 78.8,134 74.2,140.8 77.7,140.8 
			80.6,136.4 83.5,140.8 87.1,140.8 82.6,134 87.2,127.4 		"/>
		<path id="XMLID_11_" fill="#231F20" d="M96.5,134.4c0,1.1-0.2,2.3-1,3c-0.4,0.4-0.9,0.7-1.6,0.7c-1.7,0-2.3-1-2.3-2.5v-8.1h-3.2
			v8.8c0,2.8,1.8,4.8,4.6,4.8c1.7,0,3.2-0.7,3.8-2l0.2,1.8h2.7v-13.4h-3.2V134.4z"/>
		<path id="XMLID_10_" fill="#231F20" d="M109.1,132.8c-1.3-0.2-1.6-0.2-2.8-0.4c-0.7-0.1-1.5-0.4-1.5-1.3c0-0.7,0.5-1.2,1-1.4
			c0.5-0.2,0.9-0.2,1.4-0.2c0.7,0,1.4,0.2,1.7,0.6c0.3,0.3,0.5,0.9,0.5,1.2h3c0-1.1-0.5-1.9-1.2-2.7c-1-1-2.6-1.5-4.2-1.5
			c-1.7,0-3.1,0.5-4,1.3c-0.8,0.7-1.4,1.6-1.4,3c0,1.7,1.2,3.2,3,3.6c1.2,0.3,2.5,0.3,3.7,0.5c0.8,0.1,1.3,0.6,1.3,1.4
			c0,1.5-1.6,1.7-2.7,1.7c-0.9,0-1.5-0.2-2-0.7c-0.4-0.3-0.7-0.9-0.7-1.6h-3c0,1.4,0.6,2.4,1.4,3.2c1.1,1,2.6,1.6,4.3,1.6
			c1.8,0,3.5-0.4,4.5-1.5c0.7-0.7,1.1-1.6,1.1-2.9C112.7,134.4,111.2,133.1,109.1,132.8"/>
	</g>
	<g id="XMLID_2_">
		<path id="XMLID_8_" fill="#FF8700" d="M112.7,28.2l0-28.2H84.5C84.5,15.5,97.2,28.1,112.7,28.2z"/>
		<path id="XMLID_7_" fill="#FF8700" d="M112.7,38c-20.9,0-37.9-17.1-37.9-38L37.9,0c0.2,19.8,8.1,38.5,22.2,52.6
			c14.1,14.1,32.8,21.9,52.6,22.1V38z"/>
		<path id="XMLID_6_" fill="#FF8700" d="M84.5,112.7l28.2,0l0-28.2c-13,0-25.4-3.1-36.4-8.4C81.6,87.2,84.5,99.6,84.5,112.7z"/>
		<path id="XMLID_5_" fill="#FF8700" d="M28.2,112.7c0-15.6-12.6-28.1-28.2-28.2l0,28.2L28.2,112.7z"/>
		<path id="XMLID_4_" fill="#FF8700" d="M0,38l0,36.7c20.9,0,37.9,17.1,37.9,38h36.9c-0.2-19.8-8.1-38.6-22.2-52.6
			C38.6,46,19.9,38.1,0,38z"/>
		<path id="XMLID_3_" fill="#FF8700" d="M28.2,0H0l0,28.2c13,0,25.4,3.1,36.4,8.3C31.1,25.5,28.2,13.1,28.2,0z"/>
	</g>
</g>
</svg>
