<?xml version="1.0" encoding="UTF-8" standalone="no"?>
<svg
   xmlns:dc="http://purl.org/dc/elements/1.1/"
   xmlns:cc="http://creativecommons.org/ns#"
   xmlns:rdf="http://www.w3.org/1999/02/22-rdf-syntax-ns#"
   xmlns:svg="http://www.w3.org/2000/svg"
   xmlns="http://www.w3.org/2000/svg"
   xmlns:sodipodi="http://sodipodi.sourceforge.net/DTD/sodipodi-0.dtd"
   xmlns:inkscape="http://www.inkscape.org/namespaces/inkscape"
   width="4.8877611mm"
   height="4.6405401mm"
   viewBox ="0 0 18.1 18.1"
   version="1.2"
   id="svg60"
   sodipodi:docname="audiencereport.svg"
   inkscape:version="0.92.3 (2405546, 2018-03-11)">
  <metadata
     id="metadata64">
    <rdf:RDF>
      <cc:Work
         rdf:about="">
        <dc:format>image/svg+xml</dc:format>
        <dc:type
           rdf:resource="http://purl.org/dc/dcmitype/StillImage" />
      </cc:Work>
    </rdf:RDF>
  </metadata>
  <sodipodi:namedview
     pagecolor="#ffffff"
     bordercolor="#666666"
     borderopacity="1"
     objecttolerance="10"
     gridtolerance="10"
     guidetolerance="10"
     inkscape:pageopacity="0"
     inkscape:pageshadow="2"
     inkscape:window-width="2560"
     inkscape:window-height="1361"
     id="namedview62"
     showgrid="false"
     inkscape:zoom="2.46"
     inkscape:cx="-139.45653"
     inkscape:cy="176.78817"
     inkscape:window-x="1341"
     inkscape:window-y="-9"
     inkscape:window-maximized="1"
     inkscape:current-layer="svg60" />
  <desc
     id="desc2">Created by HiQPdf</desc>
  <defs
     id="defs4" />
  <g
     id="g58"
     style="fill:none;fill-rule:evenodd;stroke:#000000;stroke-width:1;stroke-linecap:square;stroke-linejoin:bevel"
     transform="translate(-556.016,-8)">
    <g
       stroke-miterlimit="2"
       id="g6"
       style="fill:#000000;fill-opacity:1;stroke:#000000;stroke-width:1;stroke-linecap:square;stroke-linejoin:miter;stroke-miterlimit:2;stroke-opacity:1" />
    <g
       stroke-miterlimit="2"
       id="g8"
       style="fill:#000000;fill-opacity:1;stroke:#000000;stroke-width:1;stroke-linecap:square;stroke-linejoin:miter;stroke-miterlimit:2;stroke-opacity:1" />
    <g
       stroke-miterlimit="2"
       id="g10"
       style="fill:#000000;fill-opacity:1;stroke:#000000;stroke-width:1;stroke-linecap:square;stroke-linejoin:miter;stroke-miterlimit:2;stroke-opacity:1" />
    <g
       stroke-miterlimit="2"
       id="g12"
       style="fill:#000000;fill-opacity:1;stroke:#000000;stroke-width:1;stroke-linecap:square;stroke-linejoin:miter;stroke-miterlimit:2;stroke-opacity:1" />
    <g
       stroke-miterlimit="2"
       transform="matrix(0.879687,0,0,0.879687,556.016,8)"
       id="g14"
       style="fill:#000000;fill-opacity:1;stroke:#000000;stroke-width:1;stroke-linecap:square;stroke-linejoin:miter;stroke-miterlimit:2;stroke-opacity:1" />
    <g
       transform="matrix(0.879687,0,0,0.879687,556.016,8)"
       id="g18"
       style="fill:#16cacc;fill-opacity:1;stroke:none">
      <path
         d="M 13.8,7 C 13.6,7.2 13.3,7.2 13.1,7 L 12.3,6.2 C 12.1,6 11.8,6 11.6,6.2 L 9.2,8.5 C 9,8.7 8.7,8.7 8.5,8.5 L 8.2,8.2 C 8,8 7.7,8 7.5,8.2 L 4.1,11.6 C 3.9,11.8 4,12 4.3,12 h 1 c 0.3,0 0.7,0 1,0 h 2 c 0.3,0 0.7,0 1,0 h 2 c 0.3,0 0.7,0 1,0 h 4.1 c 0.3,0 0.5,-0.2 0.5,-0.5 0,-0.3 0,-0.7 0,-1 V 4.3 C 16.9,4 16.7,3.9 16.5,4.1 L 13.8,7"
         id="path16"
         inkscape:connector-curvature="0"
         style="vector-effect:none;fill-rule:nonzero" />
    </g>
    <g
       stroke-miterlimit="2"
       transform="matrix(0.879687,0,0,0.879687,556.016,8)"
       id="g20"
       style="fill:#000000;fill-opacity:1;stroke:#000000;stroke-width:1;stroke-linecap:square;stroke-linejoin:miter;stroke-miterlimit:2;stroke-opacity:1" />
    <g
       transform="matrix(0.879687,0,0,0.879687,556.016,8)"
       id="g24"
       style="fill:#16cacc;fill-opacity:1;stroke:none">
      <path
         d="M 20,0 H 19 2 1 C 0.4,0 0,0.4 0,1 v 1 12 1 c 0,0.6 0.4,1 1,1 H 2 4.4 7 l 4.1,2.5 2.1,1.3 c 0.5,0.3 0.8,0.1 0.8,-0.5 V 18.4 16 h 3.4 1.6 1 c 0.6,0 1,-0.4 1,-1 V 14 2 1 C 21,0.4 20.6,0 20,0 m -2,14 h -0.6 -2 -0.7 -0.7 -0.2 -0.1 c -0.3,0 -0.5,0 -0.8,0 -0.5,0 -1,0.5 -1,1 0,0 0,0.1 0,0.1 v 0.4 0.5 0.8 L 8,14.3 7.6,14 H 4.4 3 2 V 13 3 2 h 1 15 1 v 1 10 1 h -1"
         id="path22"
         inkscape:connector-curvature="0"
         style="vector-effect:none;fill-rule:nonzero" />
    </g>
    <g
       stroke-miterlimit="2"
       transform="matrix(0.879687,0,0,0.879687,556.016,8)"
       id="g26"
       style="fill:#000000;fill-opacity:1;stroke:#000000;stroke-width:1;stroke-linecap:square;stroke-linejoin:miter;stroke-miterlimit:2;stroke-opacity:1" />
    <g
       stroke-miterlimit="2"
       transform="matrix(0.879687,0,0,0.879687,556.016,8)"
       id="g28"
       style="fill:#000000;fill-opacity:1;stroke:#000000;stroke-width:1;stroke-linecap:square;stroke-linejoin:miter;stroke-miterlimit:2;stroke-opacity:1" />
    <g
       stroke-miterlimit="2"
       transform="matrix(0.879687,0,0,0.879687,556.016,8)"
       id="g30"
       style="fill:#000000;fill-opacity:1;stroke:#000000;stroke-width:1;stroke-linecap:square;stroke-linejoin:miter;stroke-miterlimit:2;stroke-opacity:1" />
    <g
       stroke-miterlimit="2"
       id="g32"
       style="fill:#000000;fill-opacity:1;stroke:#000000;stroke-width:1;stroke-linecap:square;stroke-linejoin:miter;stroke-miterlimit:2;stroke-opacity:1" />
    <g
       stroke-miterlimit="2"
       id="g34"
       style="fill:#000000;fill-opacity:1;stroke:#000000;stroke-width:1;stroke-linecap:square;stroke-linejoin:miter;stroke-miterlimit:2;stroke-opacity:1" />
    <g
       stroke-miterlimit="2"
       id="g36"
       style="fill:#000000;fill-opacity:1;stroke:#000000;stroke-width:1;stroke-linecap:square;stroke-linejoin:miter;stroke-miterlimit:2;stroke-opacity:1" />
    <g
       stroke-miterlimit="2"
       id="g38"
       style="fill:#000000;fill-opacity:1;stroke:#000000;stroke-width:1;stroke-linecap:square;stroke-linejoin:miter;stroke-miterlimit:2;stroke-opacity:1" />
    <g
       stroke-miterlimit="2"
       transform="matrix(0.879687,0,0,0.879687,556.016,8)"
       id="g40"
       style="fill:#000000;fill-opacity:1;stroke:#000000;stroke-width:1;stroke-linecap:square;stroke-linejoin:miter;stroke-miterlimit:2;stroke-opacity:1" />
    <g
       stroke-miterlimit="2"
       transform="matrix(0.879687,0,0,0.879687,556.016,8)"
       id="g42"
       style="fill:#000000;fill-opacity:1;stroke:#000000;stroke-width:1;stroke-linecap:square;stroke-linejoin:miter;stroke-miterlimit:2;stroke-opacity:1" />
    <g
       stroke-miterlimit="2"
       transform="matrix(0.879687,0,0,0.879687,556.016,8)"
       id="g44"
       style="fill:#000000;fill-opacity:1;stroke:#000000;stroke-width:1;stroke-linecap:square;stroke-linejoin:miter;stroke-miterlimit:2;stroke-opacity:1" />
    <g
       stroke-miterlimit="2"
       id="g46"
       style="fill:#000000;fill-opacity:1;stroke:#000000;stroke-width:1;stroke-linecap:square;stroke-linejoin:miter;stroke-miterlimit:2;stroke-opacity:1" />
    <g
       stroke-miterlimit="2"
       id="g48"
       style="fill:#000000;fill-opacity:1;stroke:#000000;stroke-width:1;stroke-linecap:square;stroke-linejoin:miter;stroke-miterlimit:2;stroke-opacity:1" />
    <g
       stroke-miterlimit="2"
       id="g50"
       style="fill:#000000;fill-opacity:1;stroke:#000000;stroke-width:1;stroke-linecap:square;stroke-linejoin:miter;stroke-miterlimit:2;stroke-opacity:1" />
    <g
       stroke-miterlimit="2"
       id="g52"
       style="fill:#000000;fill-opacity:1;stroke:#000000;stroke-width:1;stroke-linecap:square;stroke-linejoin:miter;stroke-miterlimit:2;stroke-opacity:1" />
    <g
       stroke-miterlimit="2"
       id="g54"
       style="fill:#000000;fill-opacity:1;stroke:#000000;stroke-width:1;stroke-linecap:square;stroke-linejoin:miter;stroke-miterlimit:2;stroke-opacity:1" />
    <g
       stroke-miterlimit="2"
       id="g56"
       style="fill:#000000;fill-opacity:1;stroke:#000000;stroke-width:1;stroke-linecap:square;stroke-linejoin:miter;stroke-miterlimit:2;stroke-opacity:1" />
  </g>
</svg>
