<svg id="svg" version="1.1" width="400" height="266.6666666666667" xmlns="http://www.w3.org/2000/svg" xmlns:xlink="http://www.w3.org/1999/xlink" style="display: block;"><g id="svgg"><path id="path0" d="M68.800 105.595 C 68.800 106.580,69.560 106.842,71.164 106.410 C 73.180 105.867,72.762 104.800,70.533 104.800 L 68.800 104.800 68.800 105.595 M334.133 105.462 C 334.133 106.213,335.005 106.574,336.133 106.290 C 337.532 105.939,337.022 104.800,335.467 104.800 C 334.225 104.800,334.133 104.845,334.133 105.462 M66.133 106.769 C 66.133 107.231,66.311 107.438,66.783 107.529 C 67.664 107.697,68.010 107.430,67.826 106.724 C 67.593 105.836,66.133 105.875,66.133 106.769 M338.133 106.768 C 338.133 107.600,339.409 108.192,340.242 107.746 C 341.435 107.108,340.966 106.133,339.467 106.133 C 338.240 106.133,338.133 106.184,338.133 106.768 M63.467 108.102 C 63.467 108.703,64.530 109.248,64.927 108.851 C 65.438 108.340,65.021 107.467,64.267 107.467 C 63.602 107.467,63.467 107.574,63.467 108.102 M341.067 108.080 C 341.067 108.799,341.526 109.333,342.145 109.333 C 342.387 109.333,342.786 109.556,343.032 109.828 C 343.672 110.535,344.800 110.284,344.800 109.436 C 344.800 108.935,344.658 108.800,344.133 108.800 C 343.600 108.800,343.467 108.667,343.467 108.133 C 343.467 107.521,343.369 107.467,342.267 107.467 C 341.192 107.467,341.067 107.531,341.067 108.080 M74.933 108.008 C 73.980 108.120,72.484 108.465,71.609 108.773 C 70.734 109.081,69.828 109.333,69.595 109.333 C 69.009 109.333,63.266 112.257,61.983 113.209 C 51.954 120.649,48.102 128.618,49.292 139.467 C 50.230 148.026,56.304 155.108,65.200 158.016 L 67.600 158.800 196.933 158.800 L 326.267 158.800 328.342 158.067 C 329.483 157.663,330.599 157.333,330.822 157.333 C 331.045 157.333,331.671 157.094,332.214 156.801 C 332.756 156.508,333.620 156.090,334.133 155.872 C 334.647 155.655,335.427 155.261,335.867 154.997 C 336.904 154.376,339.028 152.977,339.200 152.802 C 339.273 152.728,339.933 152.199,340.667 151.628 C 341.400 151.056,342.626 149.916,343.390 149.094 C 344.608 147.785,345.311 146.842,347.186 144.000 C 350.543 138.911,352.078 127.880,350.047 123.436 C 349.820 122.940,349.517 122.087,349.374 121.541 C 349.231 120.995,348.863 120.197,348.557 119.766 C 348.251 119.336,348.000 118.858,348.000 118.703 C 348.000 118.293,345.740 115.541,344.176 114.047 C 340.922 110.936,335.977 108.595,331.409 108.002 C 329.065 107.698,77.515 107.703,74.933 108.008 M60.849 109.533 C 60.916 110.115,61.071 110.267,61.600 110.267 C 62.129 110.267,62.284 110.115,62.351 109.533 C 62.427 108.871,62.354 108.800,61.600 108.800 C 60.846 108.800,60.773 108.871,60.849 109.533 M58.133 110.800 C 58.133 111.333,58.000 111.467,57.467 111.467 C 56.933 111.467,56.800 111.600,56.800 112.133 C 56.800 112.667,56.667 112.800,56.133 112.800 C 55.600 112.800,55.467 112.933,55.467 113.467 C 55.467 114.000,55.333 114.133,54.800 114.133 C 54.267 114.133,54.133 114.267,54.133 114.800 C 54.133 115.333,54.000 115.467,53.467 115.467 C 52.933 115.467,52.800 115.600,52.800 116.133 C 52.800 116.667,52.667 116.800,52.133 116.800 C 51.600 116.800,51.467 116.933,51.467 117.467 C 51.467 118.000,51.333 118.133,50.800 118.133 C 50.200 118.133,50.133 118.240,50.133 119.200 C 50.133 120.554,51.150 120.743,51.923 119.533 C 52.180 119.130,52.603 118.643,52.862 118.452 C 53.121 118.260,53.333 117.884,53.333 117.616 C 53.333 117.348,53.573 117.066,53.867 116.989 C 54.178 116.908,54.400 116.626,54.400 116.310 C 54.400 115.953,54.603 115.742,55.000 115.685 C 55.386 115.630,55.630 115.386,55.685 115.000 C 55.742 114.603,55.953 114.400,56.310 114.400 C 56.626 114.400,56.908 114.178,56.989 113.867 C 57.066 113.573,57.348 113.333,57.616 113.333 C 57.884 113.333,58.260 113.121,58.452 112.862 C 58.643 112.603,59.130 112.180,59.533 111.923 C 60.743 111.150,60.554 110.133,59.200 110.133 C 58.240 110.133,58.133 110.200,58.133 110.800 M90.503 112.345 C 91.035 112.734,90.752 116.001,90.002 118.126 C 88.821 121.475,89.072 124.802,90.414 123.587 C 92.822 121.409,101.796 120.609,105.011 122.287 C 105.408 122.494,105.864 122.664,106.023 122.665 C 106.389 122.667,108.722 124.450,109.515 125.333 C 112.841 129.040,112.902 136.467,109.653 142.276 C 108.800 143.802,106.955 146.082,106.077 146.695 C 105.595 147.032,105.140 147.382,105.067 147.472 C 104.771 147.836,101.698 149.600,101.360 149.600 C 101.160 149.600,100.622 149.822,100.165 150.094 C 98.884 150.855,92.898 151.627,91.124 151.259 C 90.359 151.101,89.263 150.894,88.689 150.799 C 87.641 150.625,86.107 149.678,85.303 148.709 C 84.690 147.969,83.655 148.304,82.970 149.465 L 82.418 150.400 78.685 150.400 C 73.854 150.400,73.750 150.177,75.462 143.467 C 75.742 142.367,76.086 140.807,76.227 140.000 C 76.674 137.424,77.363 134.079,78.024 131.271 C 78.378 129.769,78.667 128.262,78.667 127.921 C 78.667 127.580,78.906 126.388,79.198 125.273 C 79.490 124.158,79.853 122.369,80.005 121.298 C 80.157 120.226,80.503 118.626,80.773 117.742 C 81.044 116.857,81.350 115.330,81.452 114.349 C 81.621 112.733,81.706 112.540,82.353 112.303 C 83.464 111.897,89.935 111.929,90.503 112.345 M169.716 112.260 C 170.544 112.575,170.559 112.894,169.888 115.790 C 168.954 119.821,168.278 123.047,168.027 124.667 C 167.891 125.547,167.530 127.219,167.223 128.384 C 166.917 129.548,166.666 130.868,166.665 131.317 C 166.664 131.766,166.426 132.910,166.138 133.859 C 165.849 134.808,165.540 136.308,165.451 137.192 C 165.362 138.077,165.065 139.520,164.790 140.400 C 164.516 141.280,164.164 142.960,164.009 144.133 C 163.747 146.104,163.311 147.834,162.614 149.667 L 162.335 150.400 158.434 150.396 C 153.433 150.391,153.229 150.236,154.115 147.122 C 154.375 146.212,154.671 144.714,154.774 143.794 C 154.877 142.874,155.135 141.629,155.348 141.026 C 155.560 140.423,155.852 139.136,155.995 138.165 C 156.138 137.194,156.497 135.320,156.791 134.000 C 157.686 129.993,158.616 125.549,158.886 124.000 C 159.675 119.462,161.097 113.307,161.520 112.600 C 161.917 111.937,168.183 111.677,169.716 112.260 M186.156 112.448 C 186.396 112.690,186.337 113.281,185.901 114.990 C 185.589 116.215,185.332 117.573,185.331 118.009 C 185.330 118.444,185.091 119.580,184.800 120.533 C 183.884 123.534,184.145 124.434,185.675 123.543 C 192.426 119.610,201.651 120.941,205.664 126.427 C 210.315 132.785,205.115 146.627,196.999 149.490 C 196.402 149.701,195.761 150.000,195.575 150.154 C 193.300 152.042,183.995 151.491,181.274 149.307 C 179.335 147.750,179.070 147.713,178.666 148.935 C 178.214 150.304,177.781 150.423,173.537 150.341 L 169.733 150.267 169.763 149.200 C 169.794 148.099,170.256 145.648,171.347 140.800 C 171.694 139.260,172.052 137.460,172.142 136.800 C 172.233 136.140,172.528 134.760,172.798 133.733 C 173.068 132.707,173.370 131.151,173.471 130.276 C 173.571 129.401,173.871 127.961,174.137 127.076 C 174.404 126.191,174.702 124.807,174.801 124.000 C 174.900 123.193,175.160 121.895,175.381 121.115 C 175.601 120.335,175.944 118.715,176.142 117.515 C 176.594 114.781,177.096 113.007,177.584 112.419 C 178.049 111.859,185.594 111.885,186.156 112.448 M336.266 114.298 C 337.857 115.735,337.875 118.473,336.305 120.443 C 334.682 122.481,334.393 122.666,332.936 122.603 C 332.177 122.570,331.599 122.669,331.542 122.842 C 331.300 123.565,328.697 122.593,328.209 121.597 C 325.755 116.590,332.270 110.688,336.266 114.298 M349.333 114.533 C 349.333 114.753,349.423 114.933,349.533 114.933 C 349.643 114.933,349.733 115.428,349.733 116.034 C 349.733 117.219,350.255 117.815,351.030 117.517 C 351.919 117.176,351.603 115.467,350.651 115.467 C 350.202 115.467,349.903 115.357,349.985 115.224 C 350.178 114.912,349.882 114.133,349.571 114.133 C 349.440 114.133,349.333 114.313,349.333 114.533 M333.467 115.397 C 335.081 115.633,335.442 117.407,334.155 118.777 C 332.926 120.085,333.520 120.877,335.051 119.974 C 336.083 119.365,336.133 119.147,335.827 116.600 L 335.659 115.200 334.163 115.240 C 333.264 115.264,332.986 115.327,333.467 115.397 M329.520 116.169 C 329.417 116.271,329.333 116.928,329.333 117.629 C 329.333 118.329,329.228 118.967,329.100 119.046 C 328.971 119.126,329.462 119.822,330.190 120.593 C 331.451 121.930,331.531 121.971,331.890 121.480 C 332.438 120.730,332.374 120.612,331.267 120.345 C 330.272 120.105,330.267 120.097,330.380 118.919 C 330.630 116.312,330.331 115.358,329.520 116.169 M351.032 118.841 C 350.824 119.672,351.450 120.291,352.279 120.074 C 352.666 119.973,352.800 119.706,352.800 119.036 C 352.800 117.815,351.331 117.653,351.032 118.841 M48.800 121.600 C 48.800 122.354,48.871 122.427,49.533 122.351 C 50.115 122.284,50.267 122.129,50.267 121.600 C 50.267 121.071,50.115 120.916,49.533 120.849 C 48.871 120.773,48.800 120.846,48.800 121.600 M352.295 121.398 C 351.871 122.545,352.618 124.125,353.505 123.956 C 353.907 123.879,354.015 123.574,354.080 122.331 L 354.160 120.800 353.338 120.800 C 352.730 120.800,352.459 120.956,352.295 121.398 M143.874 121.994 C 148.813 123.652,151.468 127.532,151.466 133.093 C 151.466 134.362,150.859 137.873,150.555 138.364 C 150.421 138.582,146.999 138.667,138.268 138.667 C 125.229 138.667,124.800 138.708,124.800 139.961 C 124.800 145.441,133.757 147.108,139.024 142.608 L 140.048 141.733 144.491 141.733 L 148.933 141.733 148.861 142.400 C 148.672 144.152,143.013 149.333,141.288 149.333 C 141.082 149.333,140.437 149.578,139.856 149.878 C 139.275 150.177,137.840 150.543,136.667 150.691 C 135.493 150.838,133.909 151.091,133.146 151.252 C 126.709 152.613,117.345 148.983,115.980 144.598 C 115.071 141.677,115.557 134.655,116.834 132.273 C 117.109 131.761,117.333 131.232,117.333 131.098 C 117.333 129.760,122.223 124.852,124.837 123.566 C 130.127 120.963,138.695 120.255,143.874 121.994 M236.744 121.353 C 238.168 121.511,239.859 121.871,240.501 122.153 C 241.143 122.436,241.813 122.667,241.990 122.667 C 242.380 122.667,244.683 124.408,245.517 125.333 C 249.827 130.117,247.331 142.223,241.044 147.023 C 239.717 148.037,236.897 149.600,236.396 149.600 C 236.216 149.600,235.543 149.831,234.901 150.113 C 231.166 151.755,221.153 151.570,216.933 149.781 C 211.755 147.586,209.336 141.236,211.434 135.343 C 211.745 134.468,212.004 133.568,212.008 133.343 C 212.043 131.662,215.588 126.701,218.036 124.907 C 219.078 124.143,221.920 122.668,222.351 122.667 C 222.543 122.667,223.263 122.427,223.951 122.134 C 226.139 121.202,232.091 120.838,236.744 121.353 M279.067 121.609 C 279.653 121.770,280.511 122.073,280.974 122.284 C 281.436 122.494,281.920 122.667,282.049 122.667 C 282.179 122.667,282.911 123.070,283.676 123.563 C 291.946 128.891,287.281 146.218,276.667 149.597 C 276.080 149.783,275.467 150.041,275.305 150.169 C 275.142 150.297,274.002 150.525,272.771 150.676 C 271.540 150.826,270.022 151.065,269.396 151.208 C 265.458 152.104,257.118 150.487,254.533 148.325 C 247.911 142.787,251.038 129.012,260.109 123.769 C 264.158 121.428,274.216 120.282,279.067 121.609 M321.368 122.458 C 325.490 124.395,326.730 128.766,324.910 134.933 C 324.672 135.740,324.361 137.180,324.219 138.133 C 324.078 139.087,323.733 140.767,323.452 141.867 C 323.172 142.967,322.770 144.918,322.560 146.204 C 322.350 147.489,321.952 148.929,321.675 149.404 L 321.171 150.267 317.586 150.343 C 312.829 150.445,312.714 150.412,312.874 148.988 C 313.157 146.466,313.578 144.350,315.329 136.645 C 316.264 132.528,316.230 131.541,315.116 130.411 C 313.752 129.030,311.290 128.472,309.067 129.042 C 308.553 129.174,307.824 129.350,307.446 129.434 C 305.910 129.776,302.696 133.317,302.673 134.692 C 302.670 134.925,302.444 135.765,302.172 136.558 C 301.900 137.351,301.533 138.996,301.356 140.213 C 301.179 141.431,300.871 142.886,300.673 143.448 C 300.475 144.009,300.232 145.173,300.133 146.034 C 299.644 150.280,299.491 150.401,294.674 150.396 C 292.690 150.394,290.900 150.286,290.697 150.158 C 290.238 149.867,290.701 145.631,291.471 143.075 C 291.737 142.191,292.037 140.807,292.138 140.000 C 292.238 139.193,292.541 137.693,292.812 136.667 C 293.082 135.640,293.387 134.084,293.490 133.208 C 293.592 132.333,293.830 131.249,294.017 130.800 C 294.205 130.350,294.490 129.027,294.651 127.858 C 295.413 122.316,295.826 121.867,300.160 121.867 C 303.764 121.867,304.626 122.286,304.519 123.988 C 304.450 125.092,304.500 125.131,305.236 124.553 C 305.622 124.249,306.047 124.000,306.179 124.000 C 306.311 124.000,306.736 123.790,307.125 123.533 C 310.660 121.197,317.574 120.675,321.368 122.458 M47.467 124.267 C 47.467 124.927,47.575 125.067,48.089 125.067 C 48.899 125.067,49.016 124.924,48.864 124.127 C 48.663 123.076,47.467 123.195,47.467 124.267 M46.133 127.600 C 46.133 129.457,47.178 129.814,47.729 128.146 C 48.116 126.973,47.725 126.133,46.791 126.133 C 46.172 126.133,46.133 126.219,46.133 127.600 M134.000 127.119 C 129.988 128.053,126.123 130.999,126.754 132.642 C 126.928 133.097,141.083 133.304,141.773 132.863 C 144.575 131.068,137.978 126.194,134.000 127.119 M226.511 128.898 C 220.745 131.661,218.531 139.773,222.627 143.129 L 223.852 144.133 227.460 144.126 C 234.393 144.113,238.486 139.676,237.789 132.928 C 237.328 128.454,231.661 126.430,226.511 128.898 M267.692 128.372 C 260.411 130.972,258.177 142.281,264.601 144.020 C 272.992 146.292,280.603 138.438,277.436 130.776 C 276.464 128.425,271.187 127.123,267.692 128.372 M94.400 128.509 C 94.033 128.631,93.059 128.927,92.234 129.168 C 89.579 129.943,87.591 131.971,86.298 135.221 C 83.349 142.634,91.816 147.087,98.901 141.848 C 101.866 139.657,103.258 134.203,101.559 131.441 C 100.314 129.418,96.442 127.832,94.400 128.509 M187.960 128.975 C 183.254 130.526,180.159 135.639,181.319 139.948 C 182.930 145.930,193.123 145.291,196.477 138.998 C 199.982 132.423,195.064 126.635,187.960 128.975 M353.158 136.735 C 351.919 136.941,352.108 139.200,353.364 139.200 C 354.096 139.200,354.133 139.143,354.133 138.016 C 354.133 136.730,354.027 136.590,353.158 136.735 M351.264 141.110 C 350.473 141.900,350.858 143.200,351.882 143.200 L 352.831 143.200 352.749 142.067 C 352.661 140.859,351.964 140.410,351.264 141.110 M46.133 144.284 L 46.133 145.900 47.000 145.817 C 48.433 145.679,48.222 142.667,46.779 142.667 C 46.167 142.667,46.133 142.750,46.133 144.284 M349.762 144.155 C 349.317 145.314,349.566 145.867,350.533 145.867 C 351.444 145.867,351.467 145.841,351.467 144.800 C 351.467 143.646,350.148 143.148,349.762 144.155 M348.303 146.852 C 347.996 147.263,347.578 147.780,347.373 148.000 C 347.168 148.220,346.918 148.670,346.816 149.000 C 346.714 149.330,346.516 149.600,346.375 149.600 C 346.235 149.600,346.002 149.912,345.857 150.292 C 345.712 150.673,345.366 151.044,345.088 151.117 C 344.810 151.190,344.523 151.478,344.450 151.757 C 344.377 152.036,344.096 152.347,343.825 152.448 C 343.555 152.549,343.177 152.849,342.985 153.116 C 342.793 153.382,342.525 153.600,342.390 153.600 C 341.766 153.600,339.765 155.368,339.750 155.933 C 339.735 156.469,339.862 156.533,340.933 156.533 C 342.036 156.533,342.133 156.479,342.133 155.867 C 342.133 155.333,342.267 155.200,342.800 155.200 C 343.333 155.200,343.467 155.067,343.467 154.533 C 343.467 154.000,343.600 153.867,344.133 153.867 C 344.667 153.867,344.800 153.733,344.800 153.200 C 344.800 152.667,344.933 152.533,345.467 152.533 C 346.000 152.533,346.133 152.400,346.133 151.867 C 346.133 151.333,346.267 151.200,346.800 151.200 C 347.333 151.200,347.467 151.067,347.467 150.533 C 347.467 150.000,347.600 149.867,348.133 149.867 C 348.667 149.867,348.800 149.733,348.800 149.200 C 348.800 148.663,348.932 148.533,349.482 148.533 C 350.119 148.533,350.159 148.459,350.082 147.400 C 349.977 145.953,349.162 145.702,348.303 146.852 M47.467 147.467 C 47.467 148.430,47.532 148.533,48.142 148.533 C 48.915 148.533,49.198 148.025,48.957 147.066 C 48.648 145.834,47.467 146.152,47.467 147.467 M48.800 150.133 C 48.800 151.093,48.867 151.200,49.467 151.200 C 50.000 151.200,50.133 151.333,50.133 151.867 C 50.133 152.391,50.269 152.533,50.769 152.533 C 51.535 152.533,51.950 151.476,51.322 151.124 C 51.105 151.003,50.755 150.491,50.544 149.985 C 49.946 148.554,48.800 148.652,48.800 150.133 M55.467 157.200 C 55.467 157.733,55.600 157.867,56.133 157.867 C 56.667 157.867,56.800 158.000,56.800 158.533 C 56.800 159.144,56.899 159.200,57.977 159.200 C 59.483 159.200,59.440 157.934,57.918 157.478 C 57.450 157.338,57.067 157.068,57.067 156.878 C 57.067 156.673,56.743 156.533,56.267 156.533 C 55.591 156.533,55.467 156.637,55.467 157.200 M337.680 156.884 C 337.563 157.076,337.047 157.350,336.533 157.492 C 334.849 157.958,335.030 159.200,336.782 159.200 C 338.046 159.200,338.133 159.157,338.133 158.533 C 338.133 158.044,338.276 157.867,338.667 157.867 C 339.058 157.867,339.200 157.689,339.200 157.200 C 339.200 156.455,338.083 156.222,337.680 156.884 M59.467 159.717 C 59.467 160.504,59.509 160.533,60.644 160.533 C 61.797 160.533,61.817 160.519,61.626 159.800 C 61.313 158.619,59.467 158.548,59.467 159.717 M332.267 159.867 C 332.267 160.451,332.382 160.533,333.200 160.533 C 334.018 160.533,334.133 160.451,334.133 159.867 C 334.133 159.283,334.018 159.200,333.200 159.200 C 332.382 159.200,332.267 159.283,332.267 159.867 M328.867 160.311 C 326.723 160.791,327.230 161.867,329.600 161.867 C 331.418 161.867,331.467 161.849,331.467 161.193 C 331.467 160.646,330.440 159.802,330.049 160.029 C 330.022 160.044,329.490 160.171,328.867 160.311 M64.067 160.483 C 62.683 160.684,63.310 161.867,64.800 161.867 C 66.028 161.867,66.133 161.816,66.133 161.230 C 66.133 160.563,65.383 160.292,64.067 160.483 " stroke="none" fill="#ffffff" fill-rule="evenodd"></path><path id="path1" d="M72.267 105.456 C 72.267 106.324,70.464 106.892,69.181 106.429 C 67.910 105.970,67.653 106.042,67.843 106.800 C 68.026 107.530,67.997 107.542,66.220 107.472 C 65.186 107.432,65.100 107.483,65.020 108.174 C 64.937 108.883,64.875 108.915,63.686 108.840 C 62.494 108.766,62.435 108.795,62.353 109.514 C 62.274 110.203,62.182 110.262,61.267 110.208 C 60.368 110.155,60.267 110.215,60.267 110.802 C 60.267 111.222,60.006 111.621,59.533 111.923 C 59.130 112.180,58.643 112.603,58.452 112.862 C 58.260 113.121,57.884 113.333,57.616 113.333 C 57.348 113.333,57.066 113.573,56.989 113.867 C 56.908 114.178,56.626 114.400,56.310 114.400 C 55.953 114.400,55.742 114.603,55.685 115.000 C 55.630 115.386,55.386 115.630,55.000 115.685 C 54.603 115.742,54.400 115.953,54.400 116.310 C 54.400 116.626,54.178 116.908,53.867 116.989 C 53.573 117.066,53.333 117.348,53.333 117.616 C 53.333 117.884,53.121 118.260,52.862 118.452 C 52.603 118.643,52.180 119.130,51.923 119.533 C 51.621 120.006,51.222 120.267,50.802 120.267 C 50.215 120.267,50.155 120.368,50.208 121.267 C 50.262 122.182,50.203 122.274,49.514 122.353 C 48.795 122.435,48.766 122.494,48.840 123.686 C 48.914 124.868,48.880 124.938,48.192 125.018 C 47.401 125.110,47.235 125.736,47.750 126.697 C 48.210 127.556,47.591 129.067,46.779 129.067 L 46.133 129.067 46.133 135.867 L 46.133 142.667 46.774 142.667 C 47.695 142.667,48.505 145.256,47.733 145.733 C 47.247 146.034,47.457 146.400,48.115 146.400 C 48.881 146.400,49.188 147.105,48.932 148.273 C 48.773 148.997,48.820 149.067,49.459 149.067 C 50.010 149.067,50.245 149.269,50.555 150.012 C 50.773 150.531,51.108 151.017,51.301 151.091 C 51.552 151.187,51.616 151.606,51.526 152.546 C 51.403 153.826,51.420 153.867,52.099 153.867 C 52.669 153.867,52.800 153.991,52.800 154.533 C 52.800 155.067,52.933 155.200,53.467 155.200 C 54.000 155.200,54.133 155.333,54.133 155.867 C 54.133 156.497,54.213 156.533,55.600 156.533 C 56.622 156.533,57.067 156.638,57.067 156.878 C 57.067 157.068,57.453 157.338,57.925 157.478 C 58.506 157.651,58.832 157.942,58.932 158.380 C 59.061 158.939,59.239 159.028,60.261 159.046 C 61.291 159.064,61.461 159.151,61.600 159.733 C 61.767 160.434,61.708 160.422,65.400 160.515 C 66.000 160.530,66.133 160.655,66.133 161.200 L 66.133 161.867 196.933 161.867 L 327.733 161.867 327.733 161.222 C 327.733 160.450,329.723 159.857,330.861 160.290 C 331.916 160.691,332.267 160.585,332.267 159.867 C 332.267 159.230,332.339 159.200,333.849 159.200 C 335.372 159.200,335.434 159.173,335.516 158.475 C 335.582 157.902,335.796 157.696,336.533 157.492 C 337.047 157.350,337.563 157.076,337.680 156.884 C 337.797 156.691,338.307 156.533,338.813 156.533 C 339.585 156.533,339.736 156.436,339.750 155.933 C 339.765 155.368,341.766 153.600,342.390 153.600 C 342.525 153.600,342.793 153.382,342.985 153.116 C 343.177 152.849,343.555 152.549,343.825 152.448 C 344.096 152.347,344.377 152.036,344.450 151.757 C 344.523 151.478,344.810 151.190,345.088 151.117 C 345.366 151.044,345.712 150.673,345.857 150.292 C 346.002 149.912,346.235 149.600,346.375 149.600 C 346.516 149.600,346.714 149.330,346.816 149.000 C 346.918 148.670,347.168 148.220,347.373 148.000 C 347.578 147.780,347.999 147.259,348.311 146.843 C 348.726 146.287,349.043 146.118,349.505 146.206 C 349.850 146.272,350.133 146.223,350.133 146.096 C 350.133 145.970,350.013 145.867,349.867 145.867 C 349.572 145.867,349.508 144.817,349.762 144.155 C 349.858 143.905,350.238 143.733,350.695 143.733 C 351.120 143.733,351.467 143.613,351.467 143.467 C 351.467 143.320,351.347 143.200,351.200 143.200 C 350.780 143.200,350.889 141.435,351.332 141.068 C 351.551 140.886,351.986 140.804,352.298 140.885 C 352.836 141.026,352.856 140.968,352.674 139.784 C 352.269 137.138,352.344 136.832,353.421 136.743 L 354.133 136.684 354.133 130.245 L 354.133 123.807 353.498 123.929 C 352.809 124.061,352.608 123.857,352.271 122.682 C 352.122 122.162,352.172 121.683,352.426 121.194 C 352.935 120.212,352.896 119.913,352.279 120.074 C 351.294 120.332,350.761 119.646,351.138 118.606 C 351.570 117.411,351.560 117.359,350.932 117.523 C 350.638 117.600,350.218 117.514,349.999 117.332 C 349.501 116.919,349.441 115.088,349.933 115.337 C 350.117 115.430,350.057 115.334,349.800 115.124 C 349.543 114.913,349.331 114.574,349.329 114.371 C 349.326 114.074,349.274 114.080,349.067 114.400 C 348.874 114.698,348.807 114.544,348.804 113.800 C 348.800 112.912,348.725 112.800,348.133 112.800 C 347.600 112.800,347.467 112.667,347.467 112.133 C 347.467 111.600,347.333 111.467,346.800 111.467 C 346.262 111.467,346.133 111.335,346.133 110.780 C 346.133 110.126,346.072 110.097,344.810 110.164 C 343.866 110.214,343.344 110.105,342.989 109.784 C 342.715 109.536,342.315 109.333,342.099 109.333 C 341.523 109.333,341.067 108.780,341.067 108.080 C 341.067 107.385,340.980 107.351,340.225 107.756 C 339.389 108.203,338.133 107.589,338.133 106.733 C 338.133 106.076,338.107 106.067,336.577 106.241 C 334.684 106.455,334.133 106.274,334.133 105.438 L 334.133 104.800 203.200 104.800 L 72.267 104.800 72.267 105.456 M331.409 108.002 C 335.977 108.595,340.922 110.936,344.176 114.047 C 345.740 115.541,348.000 118.293,348.000 118.703 C 348.000 118.858,348.251 119.336,348.557 119.766 C 348.863 120.197,349.231 120.995,349.374 121.541 C 349.517 122.087,349.820 122.940,350.047 123.436 C 352.078 127.880,350.543 138.911,347.186 144.000 C 345.311 146.842,344.608 147.785,343.390 149.094 C 342.626 149.916,341.400 151.056,340.667 151.628 C 339.933 152.199,339.273 152.728,339.200 152.802 C 339.028 152.977,336.904 154.376,335.867 154.997 C 335.427 155.261,334.647 155.655,334.133 155.872 C 333.620 156.090,332.756 156.508,332.214 156.801 C 331.671 157.094,331.045 157.333,330.822 157.333 C 330.599 157.333,329.483 157.663,328.342 158.067 L 326.267 158.800 196.933 158.800 L 67.600 158.800 65.200 158.016 C 56.304 155.108,50.230 148.026,49.292 139.467 C 48.102 128.618,51.954 120.649,61.983 113.209 C 63.266 112.257,69.009 109.333,69.595 109.333 C 69.828 109.333,70.734 109.081,71.609 108.773 C 72.484 108.465,73.980 108.120,74.933 108.008 C 77.515 107.703,329.065 107.698,331.409 108.002 M82.353 112.303 C 81.706 112.540,81.621 112.733,81.452 114.349 C 81.350 115.330,81.044 116.857,80.773 117.742 C 80.503 118.626,80.157 120.226,80.005 121.298 C 79.853 122.369,79.490 124.158,79.198 125.273 C 78.906 126.388,78.667 127.580,78.667 127.921 C 78.667 128.262,78.378 129.769,78.024 131.271 C 77.363 134.079,76.674 137.424,76.227 140.000 C 76.086 140.807,75.742 142.367,75.462 143.467 C 73.750 150.177,73.854 150.400,78.685 150.400 L 82.418 150.400 82.970 149.465 C 83.655 148.304,84.690 147.969,85.303 148.709 C 86.107 149.678,87.641 150.625,88.689 150.799 C 89.263 150.894,90.359 151.101,91.124 151.259 C 92.898 151.627,98.884 150.855,100.165 150.094 C 100.622 149.822,101.160 149.600,101.360 149.600 C 101.698 149.600,104.771 147.836,105.067 147.472 C 105.140 147.382,105.595 147.032,106.077 146.695 C 106.955 146.082,108.800 143.802,109.653 142.276 C 112.902 136.467,112.841 129.040,109.515 125.333 C 108.722 124.450,106.389 122.667,106.023 122.665 C 105.864 122.664,105.408 122.494,105.011 122.287 C 101.796 120.609,92.822 121.409,90.414 123.587 C 89.072 124.802,88.821 121.475,90.002 118.126 C 90.752 116.001,91.035 112.734,90.503 112.345 C 89.935 111.929,83.464 111.897,82.353 112.303 M161.520 112.600 C 161.097 113.307,159.675 119.462,158.886 124.000 C 158.616 125.549,157.686 129.993,156.791 134.000 C 156.497 135.320,156.138 137.194,155.995 138.165 C 155.852 139.136,155.560 140.423,155.348 141.026 C 155.135 141.629,154.877 142.874,154.774 143.794 C 154.671 144.714,154.375 146.212,154.115 147.122 C 153.229 150.236,153.433 150.391,158.434 150.396 L 162.335 150.400 162.614 149.667 C 163.311 147.834,163.747 146.104,164.009 144.133 C 164.164 142.960,164.516 141.280,164.790 140.400 C 165.065 139.520,165.362 138.077,165.451 137.192 C 165.540 136.308,165.849 134.808,166.138 133.859 C 166.426 132.910,166.664 131.766,166.665 131.317 C 166.666 130.868,166.917 129.548,167.223 128.384 C 167.530 127.219,167.891 125.547,168.027 124.667 C 168.278 123.047,168.954 119.821,169.888 115.790 C 170.771 111.979,170.796 112.000,165.455 112.000 C 162.031 112.000,161.864 112.025,161.520 112.600 M177.584 112.419 C 177.096 113.007,176.594 114.781,176.142 117.515 C 175.944 118.715,175.601 120.335,175.381 121.115 C 175.160 121.895,174.900 123.193,174.801 124.000 C 174.702 124.807,174.404 126.191,174.137 127.076 C 173.871 127.961,173.571 129.401,173.471 130.276 C 173.370 131.151,173.068 132.707,172.798 133.733 C 172.528 134.760,172.233 136.140,172.142 136.800 C 172.052 137.460,171.694 139.260,171.347 140.800 C 170.256 145.648,169.794 148.099,169.763 149.200 L 169.733 150.267 173.537 150.341 C 177.781 150.423,178.214 150.304,178.666 148.935 C 179.070 147.713,179.335 147.750,181.274 149.307 C 183.995 151.491,193.300 152.042,195.575 150.154 C 195.761 150.000,196.402 149.701,196.999 149.490 C 205.115 146.627,210.315 132.785,205.664 126.427 C 201.651 120.941,192.426 119.610,185.675 123.543 C 184.145 124.434,183.884 123.534,184.800 120.533 C 185.091 119.580,185.330 118.444,185.331 118.009 C 185.332 117.573,185.589 116.215,185.901 114.990 C 186.337 113.281,186.396 112.690,186.156 112.448 C 185.594 111.885,178.049 111.859,177.584 112.419 M331.295 113.598 C 327.233 115.237,326.323 122.018,330.055 122.834 C 331.067 123.055,331.470 123.057,331.542 122.842 C 331.599 122.669,332.177 122.570,332.936 122.603 C 334.393 122.666,334.682 122.481,336.305 120.443 C 339.386 116.575,335.859 111.756,331.295 113.598 M335.827 116.600 C 336.133 119.147,336.083 119.365,335.051 119.974 C 333.520 120.877,332.926 120.085,334.155 118.777 C 335.442 117.407,335.081 115.633,333.467 115.397 C 332.986 115.327,333.264 115.264,334.163 115.240 L 335.659 115.200 335.827 116.600 M330.514 116.940 C 330.503 117.376,330.443 118.267,330.380 118.919 C 330.267 120.097,330.272 120.105,331.267 120.345 C 332.374 120.612,332.438 120.730,331.890 121.480 C 331.531 121.971,331.451 121.930,330.190 120.593 C 329.462 119.822,328.971 119.126,329.100 119.046 C 329.228 118.967,329.333 118.329,329.333 117.629 C 329.333 116.244,329.487 115.938,330.120 116.064 C 330.388 116.118,330.526 116.426,330.514 116.940 M132.133 121.302 C 128.151 121.719,124.041 123.566,121.162 126.234 C 119.369 127.896,117.333 130.482,117.333 131.098 C 117.333 131.232,117.109 131.761,116.834 132.273 C 115.557 134.655,115.071 141.677,115.980 144.598 C 117.345 148.983,126.709 152.613,133.146 151.252 C 133.909 151.091,135.493 150.838,136.667 150.691 C 137.840 150.543,139.275 150.177,139.856 149.878 C 140.437 149.578,141.082 149.333,141.288 149.333 C 143.013 149.333,148.672 144.152,148.861 142.400 L 148.933 141.733 144.491 141.733 L 140.048 141.733 139.024 142.608 C 133.757 147.108,124.800 145.441,124.800 139.961 C 124.800 138.708,125.229 138.667,138.268 138.667 C 146.999 138.667,150.421 138.582,150.555 138.364 C 151.394 137.007,151.630 132.729,151.030 129.760 C 149.673 123.047,143.190 120.146,132.133 121.302 M227.467 121.370 C 226.220 121.497,224.638 121.841,223.951 122.134 C 223.263 122.427,222.543 122.667,222.351 122.667 C 221.920 122.668,219.078 124.143,218.036 124.907 C 215.588 126.701,212.043 131.662,212.008 133.343 C 212.004 133.568,211.745 134.468,211.434 135.343 C 209.336 141.236,211.755 147.586,216.933 149.781 C 221.153 151.570,231.166 151.755,234.901 150.113 C 235.543 149.831,236.216 149.600,236.396 149.600 C 236.897 149.600,239.717 148.037,241.044 147.023 C 247.331 142.223,249.827 130.117,245.517 125.333 C 244.683 124.408,242.380 122.667,241.990 122.667 C 241.813 122.667,241.143 122.436,240.501 122.153 C 238.327 121.197,232.547 120.849,227.467 121.370 M267.715 121.333 C 261.326 122.072,255.830 125.761,253.206 131.073 C 249.870 137.823,250.413 144.879,254.533 148.325 C 257.118 150.487,265.458 152.104,269.396 151.208 C 270.022 151.065,271.540 150.826,272.771 150.676 C 274.002 150.525,275.142 150.297,275.305 150.169 C 275.467 150.041,276.080 149.783,276.667 149.597 C 287.281 146.218,291.946 128.891,283.676 123.563 C 282.911 123.070,282.179 122.667,282.049 122.667 C 281.920 122.667,281.436 122.494,280.974 122.284 C 278.797 121.292,272.171 120.817,267.715 121.333 M312.400 121.600 C 310.814 121.945,307.929 123.002,307.125 123.533 C 306.736 123.790,306.311 124.000,306.179 124.000 C 306.047 124.000,305.622 124.249,305.236 124.553 C 304.500 125.131,304.450 125.092,304.519 123.988 C 304.626 122.286,303.764 121.867,300.160 121.867 C 295.826 121.867,295.413 122.316,294.651 127.858 C 294.490 129.027,294.205 130.350,294.017 130.800 C 293.830 131.249,293.592 132.333,293.490 133.208 C 293.387 134.084,293.082 135.640,292.812 136.667 C 292.541 137.693,292.238 139.193,292.138 140.000 C 292.037 140.807,291.737 142.191,291.471 143.075 C 290.701 145.631,290.238 149.867,290.697 150.158 C 290.900 150.286,292.690 150.394,294.674 150.396 C 299.491 150.401,299.644 150.280,300.133 146.034 C 300.232 145.173,300.475 144.009,300.673 143.448 C 300.871 142.886,301.179 141.431,301.356 140.213 C 301.533 138.996,301.900 137.351,302.172 136.558 C 302.444 135.765,302.670 134.925,302.673 134.692 C 302.696 133.317,305.910 129.776,307.446 129.434 C 307.824 129.350,308.553 129.174,309.067 129.042 C 311.290 128.472,313.752 129.030,315.116 130.411 C 316.230 131.541,316.264 132.528,315.329 136.645 C 313.578 144.350,313.157 146.466,312.874 148.988 C 312.714 150.412,312.829 150.445,317.586 150.343 L 321.171 150.267 321.675 149.404 C 321.952 148.929,322.350 147.489,322.560 146.204 C 322.770 144.918,323.172 142.967,323.452 141.867 C 323.733 140.767,324.078 139.087,324.219 138.133 C 324.361 137.180,324.672 135.740,324.910 134.933 C 325.426 133.185,325.749 128.854,325.491 127.135 C 324.875 123.031,318.408 120.296,312.400 121.600 M138.585 127.790 C 141.375 128.960,143.237 131.925,141.773 132.863 C 141.083 133.304,126.928 133.097,126.754 132.642 C 126.260 131.356,128.914 128.847,131.867 127.807 C 135.032 126.692,135.964 126.689,138.585 127.790 M233.845 128.261 C 239.788 129.965,239.016 139.788,232.667 143.248 C 231.086 144.109,231.024 144.120,227.460 144.126 L 223.852 144.133 222.627 143.129 C 220.072 141.036,219.947 136.224,222.349 132.437 C 224.610 128.872,229.624 127.050,233.845 128.261 M274.427 128.311 C 278.449 129.691,279.407 135.594,276.330 140.032 C 272.282 145.869,262.418 145.977,261.072 140.200 C 259.345 132.785,267.168 125.821,274.427 128.311 M99.043 129.323 C 102.851 131.031,103.466 135.843,100.435 140.217 C 97.010 145.158,88.818 145.464,86.386 140.741 C 84.334 136.758,87.466 130.561,92.234 129.168 C 93.059 128.927,94.033 128.631,94.400 128.509 C 95.407 128.175,97.177 128.485,99.043 129.323 M193.397 128.937 C 196.773 130.117,197.872 131.929,197.488 135.683 C 196.867 141.744,189.579 146.025,184.338 143.407 C 176.094 139.290,184.517 125.835,193.397 128.937 " stroke="none" fill="#323267" fill-rule="evenodd"></path></g></svg>