<?xml version="1.0" encoding="utf-8"?>
<!-- Generator: Adobe Illustrator 16.0.0, SVG Export Plug-In . SVG Version: 6.00 Build 0)  -->
<!DOCTYPE svg PUBLIC "-//W3C//DTD SVG 1.1//EN" "http://www.w3.org/Graphics/SVG/1.1/DTD/svg11.dtd">
<svg version="1.1" id="Layer_1" xmlns="http://www.w3.org/2000/svg" xmlns:xlink="http://www.w3.org/1999/xlink" x="0px" y="0px"
	 width="1024px" height="768px" viewBox="0 0 1024 768" enable-background="new 0 0 1024 768" xml:space="preserve">
<path fill="#00AF66" d="M512.01,8.11C303.022,8.11,132.997,176.722,132.997,384S303.022,759.89,512.01,759.89
	c208.999,0,378.993-168.622,378.993-375.89C891.003,176.722,721.009,8.11,512.01,8.11z"/>
<g>
	<path fill="#FFFFFF" d="M465.388,355.317c28.549,0,142.254,0,142.254,0s-29.512,147.712-29.562,148.266
		c-1.721,7.28-7.158,18.114-17.398,26.398l-0.982,0.85c-8.028,6.277-19.036,11.183-33.669,11.183c0,0-80.374,0-100.199,0
		c-3.174,14.971-10.485,50.391-14.807,71.465c26.174,0,93.87,0,93.87,0c132.024,0,158.075-112.477,159.068-117.022
		c0,0,37.714-181.955,44.134-213.259c-30.935,0-206.868,0.369-227.922,0.369C477.153,298.537,469.821,334.192,465.388,355.317z"/>
	<path fill="#FFFFFF" d="M522.179,483.993c3.185-14.909,10.383-50.38,14.889-71.628c-26.357,0-94.505,0-94.505,0
		c-2.038,0-16.742-1.004-28.201-10.312c-1.781-1.505-3.543-3.153-5.059-5.119c-0.204-0.175-0.297-0.257-0.43-0.554
		c-8.95-11.396-6.462-26.204-5.857-29.419c0,0,21.136-102.247,21.197-102.697c1.73-7.281,7.127-17.777,17.131-26.102l1.71-1.403
		c8.162-6.185,18.914-10.721,33.332-10.721c0,0,80.312,0,100.219,0c3.071-15.216,10.424-50.483,14.756-71.516
		c-26.215,0-93.87,0-93.87,0c-132.086,0-158.024,112.169-159.161,116.838l-21.002,101.98c-0.102,0.543-8.786,47.524,17.808,79.289
		c17.408,20.858,46.551,31.354,86.846,31.354C422.001,483.993,502.293,483.993,522.179,483.993z"/>
</g>
</svg>
