<svg xmlns="http://www.w3.org/2000/svg" viewBox="0 0 78 20" width="100%" height="100%"><g fill="none" fill-rule="evenodd"><path d="M67.562 3v2.857h3.276L72.6 10.83l1.654-4.973H77L73.151 16h-2.697l.836-2.003-2.48-6.282v.088h-1.248v6.626h-2.59V7.803h-1.986v6.626h-2.59V5.857h4.576V3h2.59zm-45.21 2.563c1.336 0 2.12.603 2.493 1.111l.066.094v-.91h2.59v8.57h-2.59v-.925c-.468.833-1.545 1.22-2.559 1.22-2.745 0-4.352-2.132-4.352-4.588 0-2.81 2.044-4.572 4.352-4.572zM37.362 3v11.429h-2.465v-.926l-.125.169c-.316.401-.987 1.035-2.496 1.035-2.621 0-4.337-2.008-4.337-4.587 0-2.904 2.09-4.557 4.29-4.557 1.274 0 1.996.515 2.364.848l.18.172V3h2.589zm12.903 2.563c1.327 0 2.465.51 3.276 1.36 1.032 1.094 1.382 2.38 1.246 3.847l-.028.26h-6.444c.11.913.983 1.515 1.997 1.515.764 0 1.194-.303 1.502-.702l.074-.102h2.652c-.421.958-1.03 1.7-1.763 2.193a4.236 4.236 0 01-2.465.773c-2.48 0-4.587-1.993-4.587-4.54 0-2.395 1.904-4.604 4.54-4.604zm-9.812.294l1.669 5.344 1.67-5.344h2.683l-3.12 8.572h-2.482L37.77 5.857h2.684zm17.3 0v.957l.082-.139c.254-.394.715-.77 1.901-.811l.217-.004v2.283h-.094c-1.266 0-1.891.436-1.946 1.524l-.003.16v4.602h-2.59V5.857h2.434zm-35.026 2.1c-1.42 0-2.081 1.135-2.134 2.087l-.003.137c0 .788.592 2.147 2.152 2.147.92 0 1.482-.432 1.81-.957.218-.34.327-.71.359-1.097a2.174 2.174 0 00-.219-1.127c-.28-.587-.873-1.19-1.965-1.19zm10.001 0c-1.435 0-2.14 1.065-2.196 2.023l-.003.14c0 1.313.951 2.193 2.168 2.193.624 0 1.201-.247 1.607-.649.406-.402.64-.957.608-1.59 0-.618-.25-1.143-.639-1.514-.39-.386-.936-.603-1.545-.603zm17.553-.231c-1.275 0-1.817.864-1.922 1.295l-.013.064h3.87c-.063-.401-.594-1.36-1.935-1.36zM62.986 3v1.946h-2.59V3h2.59z" fill="#3C3C3C" fill-rule="nonzero"/><path d="M3.94 3.091C5.78 2.027 7.634 1 7.79 1c.032 0 .13.04.28.113.61.295 2.095 1.124 3.572 1.978L7.79 5.32 3.94 3.091z" fill="#ACCBF6"/><path d="M3.895 12.08L.163 14.24c-.08-.135-.118-2.258-.118-4.387l3.85 2.228z" fill="#D1E2FA"/><path d="M11.642 3.091c1.846 1.069 3.669 2.168 3.777 2.322l-3.733 2.16L7.791 5.32l1.947-1.127 1.904-1.1z" fill="#488BEB"/><path d="M15.42 5.413c.077.172.116 2.276.117 4.388l-3.85-2.228 3.732-2.16z" fill="#214982"/><path d="M15.42 14.24c-.08.138-1.922 1.25-3.778 2.323L7.79 14.335l3.895-2.254 3.733 2.16z" fill="#3873C7"/><path d="M15.536 9.853c0 2.115-.038 4.218-.117 4.387l-3.733-2.16 3.85-2.227z" fill="#214982"/><path fill="#ACCBF6" d="M7.79 9.827L3.896 12.08 0 9.827l3.895-2.254z"/><path fill="#7EADF1" d="M11.686 12.08l-3.895 2.255-3.896-2.254 3.896-2.254z"/><path d="M11.642 16.563c-1.841 1.064-3.695 2.09-3.851 2.09-.157 0-2.01-1.026-3.851-2.09l3.85-2.228 3.852 2.228z" fill="#76A8F0"/><path fill="#3873C7" d="M15.537 9.801v.052l-3.85 2.228L7.79 9.827l3.895-2.254 3.851 2.228z"/><path d="M.163 14.24l3.732-2.16 3.896 2.255-3.851 2.228C2.098 15.498.27 14.395.163 14.24z" fill="#ACCBF6"/><path d="M7.79 5.303l3.89 2.266-3.89 2.264-.007-.003.008-.003-3.896-2.254 3.896-2.27z" fill="#7EADF1"/><path d="M.045 9.801l.007-1.495.095-2.814.016-.079 3.732 2.16.312-.18L.045 9.8z" fill="#D1E2FA"/><path d="M3.94 3.091L7.79 5.32 3.896 7.573.163 5.413C.24 5.276 2.084 4.165 3.94 3.091z" fill="#C4DAF8"/></g></svg>
