<?xml version="1.0" encoding="UTF-8" standalone="no"?><!DOCTYPE svg PUBLIC "-//W3C//DTD SVG 1.1//EN" "http://www.w3.org/Graphics/SVG/1.1/DTD/svg11.dtd"><svg width="100%" height="100%" viewBox="0 0 500 363" version="1.1" xmlns="http://www.w3.org/2000/svg" xmlns:xlink="http://www.w3.org/1999/xlink" xml:space="preserve" style="fill-rule:evenodd;clip-rule:evenodd;stroke-linecap:round;stroke-linejoin:round;"><clipPath id="_clip1"><rect x="0" y="0" width="230" height="156.071"/></clipPath><g clip-path="url(#_clip1)"><g><path d="M157.248,15.829c-1.087,0 -1.854,0.13 -2.628,0.321l0,0.129l0.125,0c0.517,1.022 1.416,1.73 2.051,2.626c0.516,1.024 0.965,2.045 1.477,3.069c0.063,-0.062 0.125,-0.129 0.125,-0.129c0.903,-0.637 1.351,-1.661 1.351,-3.2c-0.388,-0.45 -0.448,-0.894 -0.771,-1.344c-0.383,-0.639 -1.217,-0.959 -1.73,-1.472Z" style="fill:#5e89a3;"/><path d="M55.305,142.181l-8.875,0c-0.314,-14.966 -1.179,-29.04 -2.593,-42.223l-0.077,0l-13.515,42.223l-6.758,0l-13.433,-42.223l-0.078,0c-0.996,12.661 -1.623,26.734 -1.884,42.223l-8.092,0c0.523,-18.837 1.832,-36.495 3.926,-52.977l11.001,0l12.806,38.926l0.078,0l12.884,-38.926l10.527,0c2.304,19.304 3.666,36.967 4.083,52.977Z" style="fill:#0c7691;fill-rule:nonzero;"/><path d="M93.802,103.094c-3.615,19.592 -8.383,33.83 -14.3,42.712c-4.611,6.844 -9.663,10.266 -15.162,10.266c-1.466,0 -3.275,-0.442 -5.42,-1.319l0,-4.723c1.047,0.154 2.278,0.236 3.692,0.236c2.566,0 4.634,-0.709 6.207,-2.123c1.884,-1.723 2.827,-3.66 2.827,-5.806c0,-1.466 -0.735,-4.473 -2.2,-9.024l-9.74,-30.219l8.719,0l6.992,22.601c1.57,5.132 2.226,8.715 1.963,10.756c3.824,-10.203 6.495,-21.323 8.016,-33.357l8.406,0Z" style="fill:#0c7691;fill-rule:nonzero;"/><path d="M211.956,142.181l-25.216,0l0,-52.977l8.485,0l0,46.462l16.731,0l0,6.515Z" style="fill:#f3921f;fill-rule:nonzero;"/><path d="M148.56,131.583c-2.148,-3.453 -3.225,-8.995 -3.225,-16.636c0,-13.341 4.061,-20.015 12.178,-20.015c4.244,0 7.359,1.596 9.351,4.785c2.145,3.455 3.221,8.949 3.221,16.484c0,13.447 -4.06,20.173 -12.178,20.173c-4.242,0 -7.358,-1.595 -9.347,-4.791Zm31.581,11.876l-9.748,-4.802c0.868,-0.71 1.692,-1.479 2.438,-2.366c4.139,-4.861 6.21,-12.055 6.21,-21.58c0,-17.527 -6.887,-26.295 -20.661,-26.295c-6.756,0 -12.022,2.223 -15.792,6.675c-4.14,4.866 -6.207,12.032 -6.207,21.504c0,9.312 1.831,16.144 5.498,20.483c3.352,3.923 8.407,5.887 15.165,5.887c2.523,0 4.838,-0.31 6.942,-0.931l12.694,7.38l3.461,-5.955Z" style="fill:#f3921f;"/><path d="M132.683,127.496c0,4.493 -1.653,8.182 -4.947,11.068c-3.296,2.873 -7.725,4.313 -13.271,4.313c-5.188,0 -10.215,-1.657 -15.084,-4.945l2.278,-4.552c4.19,2.094 7.983,3.138 11.387,3.138c3.194,0 5.694,-0.71 7.503,-2.113c1.804,-1.413 2.886,-3.384 2.886,-5.884c0,-3.146 -2.196,-5.835 -6.225,-8.09c-3.72,-2.039 -11.154,-6.297 -11.154,-6.297c-4.028,-2.935 -6.047,-6.085 -6.047,-11.274c0,-4.291 1.506,-7.76 4.514,-10.398c3.014,-2.645 6.904,-3.968 11.667,-3.968c4.923,0 9.4,1.313 13.432,3.928l-2.049,4.546c-3.45,-1.46 -6.852,-2.193 -10.206,-2.193c-2.721,0 -4.819,0.652 -6.281,1.965c-1.47,1.302 -2.379,2.977 -2.379,5.019c0,3.138 2.243,5.86 6.386,8.159c3.766,2.04 11.382,6.38 11.382,6.38c4.142,2.929 6.208,6.053 6.208,11.198Z" style="fill:#f3921f;fill-rule:nonzero;"/><path d="M222.605,71.457c-5.129,-0.129 -9.1,0.383 -12.431,1.793c-0.961,0.383 -2.498,0.383 -2.629,1.6c0.516,0.512 0.578,1.342 1.03,2.05c0.766,1.279 2.109,3.005 3.329,3.904c1.346,1.024 2.692,2.044 4.103,2.94c2.497,1.543 5.318,2.436 7.749,3.973c1.414,0.895 2.819,2.046 4.233,3.009c0.702,0.512 1.147,1.345 2.048,1.662l0,-0.194c-0.452,-0.575 -0.578,-1.406 -1.024,-2.05c-0.639,-0.636 -1.281,-1.215 -1.923,-1.852c-1.86,-2.496 -4.169,-4.671 -6.662,-6.464c-2.052,-1.411 -6.54,-3.332 -7.37,-5.694c0,0 -0.067,-0.068 -0.13,-0.131c1.41,-0.128 3.079,-0.641 4.424,-1.031c2.175,-0.575 4.161,-0.445 6.404,-1.019c1.027,-0.257 2.052,-0.58 3.082,-0.895l0,-0.579c-1.16,-1.151 -1.99,-2.689 -3.207,-3.777c-3.265,-2.814 -6.857,-5.565 -10.573,-7.872c-1.989,-1.282 -4.552,-2.109 -6.667,-3.2c-0.765,-0.385 -2.045,-0.575 -2.496,-1.219c-1.154,-1.407 -1.797,-3.262 -2.628,-4.928c-1.857,-3.517 -3.654,-7.42 -5.253,-11.138c-1.153,-2.496 -1.858,-4.99 -3.268,-7.295c-6.603,-10.885 -13.777,-17.474 -24.798,-23.94c-2.371,-1.348 -5.19,-1.923 -8.199,-2.626c-1.605,-0.069 -3.205,-0.192 -4.807,-0.255c-1.027,-0.45 -2.053,-1.668 -2.949,-2.243c-3.654,-2.303 -13.069,-7.295 -15.762,-0.704c-1.73,4.163 2.563,8.259 4.038,10.371c1.088,1.472 2.5,3.137 3.265,4.801c0.449,1.088 0.578,2.241 1.028,3.393c1.024,2.816 1.984,5.953 3.332,8.579c0.703,1.345 1.471,2.755 2.367,3.965c0.518,0.709 1.412,1.025 1.605,2.18c-0.894,1.278 -0.964,3.199 -1.476,4.801c-2.305,7.234 -1.41,16.195 1.859,21.507c1.023,1.6 3.461,5.122 6.729,3.773c2.883,-1.149 2.243,-4.798 3.075,-7.997c0.192,-0.774 0.063,-1.281 0.446,-1.793l0,0.13c0.897,1.791 1.796,3.514 2.629,5.312c1.989,3.134 5.446,6.398 8.332,8.573c1.533,1.157 2.752,3.137 4.674,3.845l0,-0.195l-0.126,0c-0.386,-0.574 -0.961,-0.831 -1.475,-1.277c-1.152,-1.153 -2.431,-2.562 -3.332,-3.842c-2.69,-3.583 -5.064,-7.554 -7.174,-11.65c-1.028,-1.99 -1.923,-4.163 -2.757,-6.148c-0.383,-0.763 -0.383,-1.918 -1.025,-2.301c-0.964,1.406 -2.37,2.624 -3.074,4.346c-1.218,2.756 -1.346,6.149 -1.797,9.671c-0.255,0.067 -0.126,0 -0.255,0.127c-2.048,-0.511 -2.753,-2.623 -3.524,-4.411c-1.922,-4.55 -2.245,-11.848 -0.576,-17.097c0.446,-1.34 2.374,-5.565 1.601,-6.845c-0.387,-1.222 -1.667,-1.919 -2.371,-2.883c-0.831,-1.216 -1.733,-2.751 -2.304,-4.097c-1.539,-3.584 -2.312,-7.553 -3.973,-11.137c-0.769,-1.667 -2.118,-3.396 -3.203,-4.929c-1.22,-1.73 -2.565,-2.944 -3.527,-4.991c-0.318,-0.707 -0.767,-1.858 -0.256,-2.624c0.126,-0.513 0.386,-0.706 0.899,-0.836c0.829,-0.703 3.202,0.19 4.034,0.576c2.372,0.956 4.359,1.859 6.342,3.2c0.898,0.642 1.859,1.856 3.011,2.18l1.348,0c2.05,0.444 4.358,0.125 6.282,0.702c3.393,1.087 6.468,2.689 9.226,4.416c8.39,5.315 15.311,12.87 19.986,21.894c0.771,1.469 1.094,2.815 1.798,4.348c1.346,3.144 3.013,6.345 4.356,9.414c1.345,3.009 2.629,6.078 4.554,8.578c0.958,1.343 4.804,2.046 6.534,2.752c1.279,0.574 3.268,1.087 4.422,1.79c2.178,1.342 4.352,2.881 6.406,4.355c1.023,0.769 4.228,2.367 4.421,3.649Z" style="fill:#0c7691;"/><path d="M218.013,142.176l1.406,0l0,-5.39l1.84,0l0,-1.1l-5.157,0l0,1.1l1.911,0l0,5.39Zm10.699,0l1.325,0l0,-6.49l-1.993,0l-1.623,4.423l-1.766,-4.423l-1.92,0l0,6.49l1.254,0l0,-4.94l0.071,0l1.849,4.94l0.956,0l1.847,-4.94l0,4.94Z" style="fill:#f3921f;fill-rule:nonzero;"/></g></g><path d="M343.358,266.404l18.211,0l-9.62,-15.573l-17.66,28.152l-8.052,0.004l21.501,-33.803c0.913,-1.373 2.486,-2.201 4.199,-2.201c1.689,0 3.245,0.804 4.158,2.141l21.573,33.863l-8.051,-0.004l-3.781,-6.294l-18.452,0l-4.026,-6.285Zm83.554,6.293l0,-29.363l-6.829,0l0,32.231c0,0.897 0.361,1.745 0.997,2.384c0.668,0.662 1.548,1.034 2.501,1.034l31.121,0l4.014,-6.286l-31.804,0Zm-112.913,-5.255c6.628,0 12.001,-5.401 12.001,-12.054c0,-6.657 -5.373,-12.054 -12.001,-12.054l-29.866,0l0,35.649l6.821,0l0,-29.363l22.575,0c3.181,0 5.747,2.581 5.747,5.768c0,3.187 -2.566,5.772 -5.747,5.772l-19.233,-0.004l20.367,17.827l9.917,0l-13.702,-11.549l3.121,0.008Zm-71.87,11.541c-9.797,0 -17.748,-7.978 -17.748,-17.823c0,-9.844 7.951,-17.826 17.748,-17.826l20.628,0c9.801,0 17.744,7.982 17.744,17.826c0,9.849 -7.943,17.827 -17.744,17.827l-20.628,-0.004Zm20.17,-6.282c6.346,0 11.486,-5.166 11.486,-11.541c0,-6.374 -5.14,-11.54 -11.486,-11.54l-19.711,0c-6.347,0 -11.491,5.166 -11.491,11.54c0,6.375 5.144,11.541 11.491,11.541l19.711,0Zm129.607,6.282c-9.793,0 -17.745,-7.978 -17.745,-17.823c0,-9.844 7.952,-17.826 17.745,-17.826l24.517,0l-4.018,6.286l-20.037,0c-6.346,0 -11.494,5.166 -11.494,11.54c0,6.375 5.148,11.541 11.494,11.541l24.606,0l-4.006,6.282l-21.062,0Zm83.489,-6.282c-5.253,0 -9.693,-3.546 -11.048,-8.386l29.174,0l4.018,-6.285l-33.2,-0.004c1.355,-4.852 5.791,-8.406 11.056,-8.406l20.024,0l4.022,-6.286l-24.513,0c-9.793,0 -17.744,7.982 -17.744,17.826c0,9.845 7.951,17.823 17.744,17.823l21.058,0l4.014,-6.282l-24.605,0Z" style="fill:#ec1c24;fill-rule:nonzero;"/><clipPath id="_clip2"><rect x="291.738" y="0" width="208.262" height="214.679"/></clipPath><g clip-path="url(#_clip2)"><g id="Layer_x0020_3"><g><path d="M447.526,156.28c1.365,-11.376 0.956,-13.044 9.429,-11.201l2.151,0.189c6.516,0.296 15.039,-1.048 20.046,-3.374c10.778,-5.001 17.17,-13.352 6.541,-11.158c-24.243,5.002 -25.91,-3.207 -25.91,-3.207c25.6,-37.984 36.302,-86.201 27.064,-98.004c-25.194,-32.192 -68.805,-16.969 -69.535,-16.574l-0.233,0.043c-4.79,-0.994 -10.151,-1.588 -16.173,-1.685c-10.971,-0.18 -19.296,2.876 -25.61,7.666c0,0 -77.801,-32.053 -74.181,40.309c0.77,15.394 22.065,116.48 47.463,85.947c9.283,-11.165 18.254,-20.605 18.254,-20.605c4.455,2.96 9.789,4.47 15.382,3.927l0.433,-0.368c-0.136,1.386 -0.076,2.742 0.173,4.347c-6.542,7.31 -4.62,8.594 -17.701,11.286c-13.235,2.728 -5.459,7.584 -0.384,8.854c6.154,1.539 20.391,3.719 30.013,-9.749l-0.383,1.537c2.567,2.053 2.393,14.759 2.757,23.836c0.365,9.079 0.973,17.55 2.823,22.544c1.85,4.994 4.034,17.859 21.226,14.174c14.368,-3.079 25.353,-7.51 26.355,-48.734" style="fill-rule:nonzero;"/><path d="M442.273,0l0.369,0.002l0.371,0.004l0.372,0.005l0.374,0.007l0.375,0.009l0.377,0.01l0.378,0.013l0.379,0.014l0.381,0.016l0.382,0.017l0.383,0.02l0.385,0.022l0.386,0.023l0.387,0.026l0.388,0.027l0.39,0.03l0.39,0.031l0.392,0.034l0.393,0.036l0.394,0.038l0.395,0.04l0.396,0.042l0.397,0.044l0.399,0.047l0.399,0.049l0.4,0.052l0.401,0.053l0.402,0.057l0.403,0.058l0.404,0.061l0.405,0.063l0.405,0.066l0.407,0.069l0.407,0.07l0.408,0.074l0.408,0.076l0.41,0.079l0.41,0.081l0.411,0.084l0.411,0.087l0.412,0.09l0.413,0.092l0.413,0.095l0.414,0.098l0.414,0.101l0.415,0.104l0.415,0.107l0.416,0.109l0.416,0.113l0.417,0.115l0.417,0.119l0.417,0.122l0.418,0.125l0.418,0.128l0.418,0.131l0.418,0.134l0.419,0.138l0.418,0.141l0.419,0.144l0.419,0.147l0.419,0.151l0.419,0.154l0.419,0.158l0.42,0.161l0.419,0.164l0.419,0.168l0.419,0.171l0.419,0.175l0.418,0.178l0.419,0.182l0.418,0.186l0.418,0.189l0.417,0.193l0.41,0.193l0.216,0.104l0.209,0.1l0.208,0.102l0.208,0.102l0.209,0.104l0.207,0.104l0.208,0.106l0.208,0.106l0.208,0.107l0.207,0.108l0.208,0.11l0.207,0.11l0.207,0.111l0.207,0.112l0.207,0.113l0.207,0.114l0.206,0.115l0.206,0.116l0.206,0.117l0.206,0.118l0.207,0.119l0.205,0.12l0.206,0.121l0.205,0.122l0.205,0.123l0.205,0.124l0.205,0.125l0.204,0.126l0.204,0.127l0.204,0.128l0.204,0.129l0.204,0.13l0.203,0.131l0.203,0.132l0.203,0.133l0.203,0.134l0.202,0.135l0.203,0.137l0.201,0.137l0.202,0.138l0.201,0.139l0.202,0.141l0.2,0.141l0.2,0.142l0.201,0.144l0.2,0.145l0.2,0.145l0.199,0.147l0.199,0.148l0.198,0.148l0.199,0.15l0.198,0.151l0.198,0.152l0.197,0.153l0.198,0.154l0.196,0.156l0.197,0.156l0.196,0.157l0.196,0.159l0.195,0.159l0.195,0.161l0.195,0.161l0.194,0.163l0.194,0.164l0.194,0.165l0.193,0.166l0.193,0.167l0.192,0.169l0.192,0.169l0.192,0.17l0.191,0.172l0.191,0.172l0.19,0.174l0.19,0.175l0.19,0.176l0.189,0.177l0.188,0.178l0.189,0.179l0.187,0.18l0.188,0.182l0.187,0.183l0.186,0.183l0.186,0.185l0.186,0.186l0.185,0.187l0.185,0.188l0.184,0.19l0.184,0.19l0.183,0.191l0.183,0.193l0.182,0.194l0.182,0.195l0.181,0.196l0.181,0.197l0.18,0.199l0.18,0.199l0.179,0.201l0.179,0.201l0.178,0.203l0.178,0.204l0.177,0.206l0.176,0.205l0.176,0.208l0.176,0.208l0.175,0.21l0.175,0.211l0.173,0.212l0.174,0.213l0.173,0.214l0.172,0.215l0.172,0.217l0.179,0.228l0.101,0.13l0.106,0.14l0.105,0.142l0.104,0.142l0.101,0.141l0.1,0.144l0.099,0.144l0.097,0.144l0.095,0.144l0.093,0.144l0.093,0.146l0.091,0.146l0.089,0.147l0.088,0.147l0.086,0.146l0.084,0.147l0.084,0.148l0.082,0.149l0.08,0.147l0.079,0.148l0.078,0.15l0.077,0.15l0.075,0.149l0.081,0.165l0.137,0.286l0.139,0.302l0.135,0.303l0.13,0.304l0.125,0.305l0.12,0.305l0.117,0.307l0.112,0.308l0.108,0.31l0.105,0.31l0.1,0.31l0.097,0.312l0.093,0.313l0.09,0.314l0.086,0.315l0.083,0.316l0.08,0.317l0.077,0.318l0.073,0.319l0.07,0.32l0.068,0.322l0.064,0.322l0.062,0.324l0.059,0.325l0.056,0.326l0.053,0.328l0.051,0.328l0.048,0.33l0.046,0.331l0.043,0.333l0.041,0.333l0.038,0.336l0.036,0.336l0.033,0.337l0.032,0.341l0.028,0.34l0.027,0.341l0.025,0.344l0.022,0.345l0.02,0.346l0.018,0.348l0.015,0.349l0.014,0.351l0.011,0.353l0.01,0.352l0.007,0.356l0.005,0.357l0.004,0.358l0.001,0.36l-0.001,0.361l-0.002,0.362l-0.005,0.365l-0.007,0.366l-0.008,0.367l-0.011,0.369l-0.012,0.37l-0.014,0.372l-0.016,0.374l-0.018,0.375l-0.02,0.376l-0.022,0.378l-0.024,0.38l-0.025,0.381l-0.028,0.383l-0.029,0.385l-0.031,0.385l-0.032,0.387l-0.035,0.389l-0.036,0.391l-0.039,0.391l-0.039,0.394l-0.042,0.395l-0.044,0.396l-0.045,0.397l-0.047,0.4l-0.049,0.401l-0.05,0.402l-0.053,0.404l-0.054,0.405l-0.056,0.407l-0.057,0.408l-0.059,0.41l-0.061,0.411l-0.063,0.412l-0.064,0.414l-0.066,0.415l-0.068,0.417l-0.07,0.418l-0.071,0.419l-0.073,0.42l-0.075,0.422l-0.076,0.424l-0.078,0.425l-0.08,0.426l-0.081,0.427l-0.083,0.429l-0.085,0.43l-0.086,0.431l-0.088,0.433l-0.09,0.434l-0.092,0.435l-0.093,0.436l-0.095,0.438l-0.096,0.438l-0.098,0.44l-0.1,0.441l-0.101,0.443l-0.103,0.443l-0.105,0.445l-0.106,0.446l-0.108,0.447l-0.11,0.448l-0.111,0.449l-0.113,0.45l-0.115,0.451l-0.116,0.453l-0.118,0.454l-0.119,0.454l-0.121,0.455l-0.123,0.457l-0.124,0.458l-0.126,0.458l-0.127,0.459l-0.13,0.461l-0.13,0.461l-0.133,0.463l-0.134,0.463l-0.135,0.464l-0.138,0.465l-0.139,0.466l-0.14,0.467l-0.142,0.468l-0.144,0.468l-0.145,0.47l-0.147,0.47l-0.148,0.471l-0.15,0.471l-0.152,0.473l-0.153,0.473l-0.155,0.474l-0.156,0.475l-0.158,0.476l-0.16,0.476l-0.161,0.476l-0.163,0.478l-0.164,0.478l-0.166,0.479l-0.168,0.479l-0.169,0.48l-0.171,0.481l-0.172,0.481l-0.174,0.482l-0.175,0.482l-0.177,0.483l-0.179,0.483l-0.18,0.485l-0.181,0.484l-0.184,0.485l-0.184,0.485l-0.187,0.486l-0.188,0.486l-0.189,0.487l-0.191,0.487l-0.193,0.487l-0.194,0.488l-0.196,0.488l-0.197,0.489l-0.199,0.489l-0.201,0.489l-0.202,0.489l-0.203,0.49l-0.205,0.49l-0.207,0.49l-0.208,0.491l-0.21,0.491l-0.211,0.49l-0.213,0.492l-0.214,0.491l-0.216,0.491l-0.218,0.492l-0.219,0.492l-0.22,0.492l-0.222,0.492l-0.224,0.492l-0.225,0.492l-0.227,0.492l-0.228,0.492l-0.23,0.493l-0.231,0.492l-0.233,0.492l-0.234,0.492l-0.236,0.492l-0.238,0.492l-0.238,0.492l-0.241,0.492l-0.242,0.492l-0.244,0.492l-0.245,0.492l-0.246,0.491l-0.248,0.491l-0.25,0.492l-0.251,0.491l-0.253,0.49l-0.254,0.491l-0.256,0.49l-0.257,0.49l-0.259,0.49l-0.26,0.489l-0.262,0.49l-0.264,0.488l-0.264,0.489l-0.267,0.488l-0.268,0.488l-0.269,0.487l-0.271,0.487l-0.273,0.487l-0.274,0.486l-0.275,0.486l-0.277,0.485l-0.278,0.485l-0.281,0.484l-0.281,0.484l-0.283,0.483l-0.285,0.483l-0.164,0.276l0.145,-0.004l0.152,-0.006l0.153,-0.006l0.155,-0.006l0.157,-0.007l0.16,-0.008l0.161,-0.009l0.163,-0.01l0.166,-0.01l0.167,-0.011l0.169,-0.012l0.172,-0.012l0.173,-0.014l0.176,-0.014l0.178,-0.015l0.179,-0.016l0.182,-0.016l0.184,-0.018l0.186,-0.018l0.188,-0.019l0.19,-0.02l0.192,-0.021l0.194,-0.022l0.197,-0.023l0.198,-0.024l0.201,-0.024l0.202,-0.026l0.205,-0.027l0.207,-0.027l0.209,-0.028l0.211,-0.03l0.214,-0.03l0.216,-0.032l0.217,-0.032l0.22,-0.033l0.222,-0.035l0.224,-0.035l0.226,-0.037l0.229,-0.037l0.231,-0.039l0.233,-0.04l0.235,-0.04l0.237,-0.042l0.24,-0.043l0.241,-0.044l0.244,-0.045l0.246,-0.047l0.249,-0.047l0.251,-0.049l0.253,-0.049l0.255,-0.051l0.257,-0.052l0.287,-0.059l0.307,-0.062l0.334,-0.063l0.331,-0.06l0.33,-0.055l0.329,-0.051l0.328,-0.047l0.329,-0.043l0.328,-0.038l0.329,-0.033l0.312,-0.027l0.183,-0.014l0.166,-0.011l0.166,-0.009l0.168,-0.009l0.168,-0.006l0.17,-0.006l0.169,-0.004l0.171,-0.002l0.172,0l0.174,0.001l0.175,0.003l0.176,0.005l0.177,0.007l0.18,0.01l0.181,0.011l0.183,0.014l0.185,0.016l0.187,0.019l0.189,0.022l0.192,0.024l0.193,0.028l0.198,0.031l0.199,0.035l0.202,0.038l0.206,0.042l0.206,0.047l0.212,0.051l0.214,0.056l0.218,0.061l0.221,0.067l0.222,0.072l0.227,0.079l0.232,0.085l0.233,0.092l0.235,0.099l0.24,0.108l0.241,0.115l0.243,0.124l0.247,0.134l0.25,0.143l0.249,0.153l0.249,0.162l0.249,0.173l0.249,0.183l0.248,0.194l0.248,0.207l0.245,0.219l0.24,0.227l0.236,0.239l0.232,0.25l0.224,0.26l0.22,0.273l0.209,0.279l0.2,0.286l0.194,0.298l0.182,0.305l0.171,0.309l0.158,0.312l0.15,0.32l0.137,0.325l0.124,0.323l0.112,0.326l0.1,0.326l0.087,0.322l0.076,0.322l0.066,0.324l0.053,0.313l0.043,0.31l0.034,0.31l0.023,0.302l0.015,0.297l0.006,0.293l-0.002,0.283l-0.009,0.277l-0.015,0.272l-0.023,0.266l-0.027,0.257l-0.033,0.251l-0.039,0.248l-0.042,0.236l-0.046,0.231l-0.05,0.228l-0.054,0.22l-0.056,0.211l-0.059,0.21l-0.062,0.206l-0.064,0.197l-0.065,0.19l-0.068,0.188l-0.07,0.185l-0.069,0.176l-0.072,0.174l-0.074,0.171l-0.074,0.166l-0.076,0.164l-0.089,0.185l-0.141,0.28l-0.159,0.297l-0.161,0.285l-0.163,0.275l-0.165,0.265l-0.168,0.257l-0.168,0.25l-0.171,0.243l-0.172,0.237l-0.174,0.231l-0.176,0.227l-0.177,0.221l-0.18,0.218l-0.181,0.214l-0.182,0.21l-0.186,0.208l-0.186,0.204l-0.188,0.201l-0.191,0.2l-0.192,0.197l-0.195,0.195l-0.196,0.194l-0.199,0.191l-0.2,0.189l-0.204,0.189l-0.204,0.187l-0.208,0.186l-0.21,0.184l-0.211,0.183l-0.215,0.182l-0.216,0.181l-0.219,0.18l-0.221,0.18l-0.223,0.178l-0.226,0.177l-0.228,0.176l-0.23,0.176l-0.233,0.174l-0.235,0.174l-0.238,0.173l-0.239,0.173l-0.243,0.171l-0.244,0.17l-0.247,0.17l-0.249,0.169l-0.251,0.168l-0.255,0.168l-0.255,0.166l-0.259,0.166l-0.261,0.164l-0.263,0.164l-0.265,0.164l-0.268,0.161l-0.269,0.161l-0.272,0.16l-0.275,0.16l-0.276,0.158l-0.279,0.157l-0.281,0.156l-0.283,0.155l-0.285,0.154l-0.288,0.152l-0.29,0.152l-0.291,0.15l-0.294,0.149l-0.296,0.148l-0.298,0.146l-0.3,0.145l-0.302,0.144l-0.302,0.141l-0.17,0.079l-0.173,0.078l-0.173,0.077l-0.173,0.075l-0.174,0.075l-0.174,0.074l-0.174,0.072l-0.175,0.072l-0.175,0.07l-0.175,0.07l-0.176,0.068l-0.187,0.072l-0.342,0.128l-0.356,0.129l-0.357,0.125l-0.358,0.122l-0.36,0.119l-0.362,0.116l-0.363,0.113l-0.366,0.11l-0.366,0.107l-0.369,0.105l-0.37,0.102l-0.371,0.099l-0.374,0.097l-0.374,0.094l-0.377,0.091l-0.377,0.09l-0.379,0.086l-0.38,0.084l-0.382,0.082l-0.383,0.08l-0.384,0.077l-0.385,0.075l-0.386,0.072l-0.387,0.07l-0.388,0.068l-0.389,0.065l-0.389,0.063l-0.39,0.061l-0.391,0.059l-0.392,0.056l-0.392,0.054l-0.392,0.051l-0.393,0.049l-0.392,0.047l-0.393,0.045l-0.394,0.042l-0.393,0.04l-0.393,0.037l-0.393,0.035l-0.393,0.032l-0.393,0.03l-0.392,0.028l-0.392,0.025l-0.392,0.023l-0.391,0.02l-0.39,0.018l-0.39,0.015l-0.389,0.012l-0.389,0.01l-0.388,0.007l-0.387,0.004l-0.386,0.002l-0.385,-0.001l-0.384,-0.004l-0.384,-0.007l-0.383,-0.009l-0.381,-0.013l-0.551,-0.023l-1.672,-0.147l-0.032,0.267l-0.107,0.92l-0.115,0.988l-0.062,0.524l-0.014,0.114l-0.001,0.069l-0.014,0.497l-0.014,0.493l-0.016,0.491l-0.016,0.488l-0.018,0.484l-0.018,0.482l-0.02,0.478l-0.02,0.475l-0.021,0.473l-0.022,0.469l-0.023,0.466l-0.025,0.464l-0.025,0.46l-0.026,0.457l-0.026,0.455l-0.028,0.451l-0.029,0.449l-0.03,0.446l-0.031,0.443l-0.031,0.44l-0.033,0.437l-0.033,0.435l-0.035,0.431l-0.035,0.429l-0.037,0.426l-0.037,0.424l-0.038,0.42l-0.04,0.418l-0.04,0.415l-0.041,0.412l-0.042,0.41l-0.043,0.408l-0.044,0.404l-0.045,0.401l-0.046,0.4l-0.047,0.397l-0.047,0.393l-0.049,0.392l-0.05,0.389l-0.051,0.386l-0.051,0.384l-0.053,0.382l-0.053,0.379l-0.055,0.376l-0.055,0.374l-0.057,0.372l-0.057,0.369l-0.059,0.367l-0.059,0.364l-0.06,0.362l-0.062,0.36l-0.062,0.357l-0.063,0.355l-0.065,0.353l-0.065,0.35l-0.066,0.348l-0.068,0.346l-0.068,0.343l-0.069,0.342l-0.07,0.339l-0.072,0.337l-0.072,0.335l-0.073,0.332l-0.075,0.331l-0.075,0.328l-0.077,0.326l-0.077,0.324l-0.079,0.322l-0.079,0.321l-0.081,0.317l-0.082,0.316l-0.082,0.313l-0.084,0.312l-0.085,0.31l-0.086,0.308l-0.087,0.306l-0.088,0.303l-0.09,0.302l-0.09,0.3l-0.092,0.298l-0.092,0.297l-0.094,0.293l-0.095,0.292l-0.096,0.291l-0.097,0.289l-0.098,0.286l-0.099,0.285l-0.101,0.283l-0.102,0.281l-0.103,0.279l-0.104,0.278l-0.105,0.276l-0.106,0.273l-0.108,0.272l-0.109,0.27l-0.11,0.269l-0.111,0.267l-0.113,0.265l-0.113,0.263l-0.115,0.262l-0.117,0.26l-0.117,0.258l-0.119,0.256l-0.12,0.255l-0.121,0.252l-0.122,0.252l-0.124,0.25l-0.125,0.247l-0.126,0.246l-0.128,0.244l-0.129,0.242l-0.13,0.241l-0.132,0.24l-0.133,0.238l-0.133,0.235l-0.136,0.234l-0.136,0.232l-0.139,0.231l-0.139,0.229l-0.14,0.227l-0.142,0.225l-0.143,0.224l-0.145,0.222l-0.146,0.22l-0.147,0.219l-0.149,0.217l-0.149,0.214l-0.151,0.213l-0.152,0.212l-0.154,0.209l-0.154,0.208l-0.156,0.206l-0.158,0.205l-0.158,0.202l-0.16,0.2l-0.162,0.2l-0.161,0.196l-0.164,0.195l-0.164,0.193l-0.166,0.192l-0.167,0.19l-0.168,0.187l-0.169,0.186l-0.171,0.184l-0.171,0.182l-0.173,0.18l-0.173,0.178l-0.174,0.176l-0.176,0.175l-0.177,0.173l-0.178,0.17l-0.178,0.168l-0.18,0.167l-0.18,0.165l-0.181,0.162l-0.182,0.161l-0.183,0.159l-0.184,0.157l-0.185,0.155l-0.185,0.153l-0.186,0.151l-0.187,0.149l-0.188,0.148l-0.188,0.145l-0.188,0.143l-0.19,0.142l-0.19,0.139l-0.19,0.137l-0.192,0.136l-0.191,0.134l-0.193,0.132l-0.191,0.129l-0.194,0.129l-0.193,0.126l-0.194,0.124l-0.194,0.123l-0.194,0.12l-0.195,0.119l-0.196,0.117l-0.195,0.115l-0.195,0.113l-0.196,0.112l-0.196,0.11l-0.196,0.108l-0.195,0.106l-0.197,0.105l-0.197,0.103l-0.196,0.102l-0.196,0.099l-0.197,0.099l-0.197,0.096l-0.196,0.095l-0.196,0.093l-0.197,0.092l-0.197,0.09l-0.196,0.089l-0.196,0.087l-0.196,0.086l-0.196,0.084l-0.197,0.084l-0.195,0.081l-0.196,0.08l-0.195,0.079l-0.195,0.077l-0.196,0.077l-0.195,0.075l-0.193,0.073l-0.195,0.073l-0.195,0.071l-0.193,0.07l-0.194,0.069l-0.193,0.067l-0.203,0.07l-0.375,0.127l-0.384,0.126l-0.383,0.121l-0.382,0.118l-0.38,0.114l-0.379,0.111l-0.377,0.107l-0.376,0.104l-0.375,0.101l-0.373,0.098l-0.371,0.096l-0.371,0.093l-0.368,0.09l-0.368,0.089l-0.365,0.086l-0.364,0.085l-0.363,0.082l-0.361,0.081l-0.36,0.08l-0.358,0.078l-0.364,0.078l-0.244,0.052l-0.252,0.052l-0.251,0.049l-0.249,0.049l-0.249,0.046l-0.249,0.045l-0.247,0.043l-0.247,0.041l-0.246,0.04l-0.245,0.038l-0.245,0.036l-0.243,0.034l-0.243,0.033l-0.243,0.031l-0.241,0.03l-0.242,0.027l-0.24,0.026l-0.239,0.025l-0.24,0.022l-0.237,0.021l-0.238,0.019l-0.237,0.017l-0.236,0.016l-0.236,0.013l-0.235,0.012l-0.234,0.011l-0.234,0.008l-0.233,0.007l-0.232,0.005l-0.232,0.003l-0.231,0.002l-0.23,-0.001l-0.23,-0.002l-0.229,-0.004l-0.229,-0.005l-0.227,-0.008l-0.227,-0.009l-0.227,-0.011l-0.225,-0.013l-0.225,-0.015l-0.225,-0.016l-0.224,-0.018l-0.222,-0.02l-0.223,-0.022l-0.222,-0.024l-0.22,-0.026l-0.22,-0.027l-0.219,-0.029l-0.219,-0.031l-0.218,-0.033l-0.217,-0.035l-0.217,-0.037l-0.214,-0.038l-0.215,-0.04l-0.214,-0.042l-0.214,-0.044l-0.211,-0.046l-0.211,-0.047l-0.211,-0.05l-0.208,-0.051l-0.209,-0.053l-0.208,-0.054l-0.206,-0.057l-0.207,-0.058l-0.203,-0.06l-0.204,-0.062l-0.203,-0.064l-0.2,-0.065l-0.201,-0.068l-0.2,-0.069l-0.197,-0.07l-0.198,-0.072l-0.196,-0.075l-0.194,-0.075l-0.193,-0.078l-0.193,-0.079l-0.191,-0.081l-0.19,-0.082l-0.188,-0.083l-0.186,-0.086l-0.188,-0.087l-0.185,-0.089l-0.183,-0.09l-0.18,-0.091l-0.181,-0.093l-0.18,-0.095l-0.178,-0.096l-0.176,-0.097l-0.174,-0.099l-0.174,-0.1l-0.172,-0.101l-0.17,-0.103l-0.17,-0.105l-0.167,-0.105l-0.165,-0.106l-0.165,-0.108l-0.163,-0.108l-0.16,-0.11l-0.16,-0.111l-0.159,-0.113l-0.156,-0.113l-0.155,-0.114l-0.153,-0.115l-0.152,-0.116l-0.151,-0.118l-0.149,-0.118l-0.146,-0.118l-0.146,-0.12l-0.143,-0.12l-0.142,-0.122l-0.141,-0.122l-0.139,-0.123l-0.138,-0.124l-0.135,-0.123l-0.134,-0.124l-0.132,-0.126l-0.132,-0.127l-0.13,-0.127l-0.127,-0.126l-0.125,-0.127l-0.126,-0.128l-0.123,-0.129l-0.121,-0.129l-0.12,-0.128l-0.118,-0.13l-0.117,-0.13l-0.117,-0.132l-0.113,-0.13l-0.112,-0.13l-0.111,-0.131l-0.109,-0.131l-0.108,-0.132l-0.107,-0.132l-0.114,-0.143l-0.197,-0.251l-0.199,-0.264l-0.195,-0.264l-0.19,-0.265l-0.184,-0.264l-0.178,-0.264l-0.174,-0.263l-0.169,-0.263l-0.163,-0.262l-0.16,-0.261l-0.154,-0.26l-0.15,-0.259l-0.146,-0.258l-0.141,-0.257l-0.138,-0.255l-0.133,-0.254l-0.129,-0.252l-0.126,-0.25l-0.121,-0.248l-0.119,-0.248l-0.114,-0.244l-0.112,-0.242l-0.108,-0.241l-0.105,-0.238l-0.101,-0.236l-0.099,-0.233l-0.096,-0.231l-0.092,-0.227l-0.09,-0.225l-0.088,-0.223l-0.085,-0.22l-0.082,-0.217l-0.08,-0.214l-0.078,-0.21l-0.078,-0.215l-0.14,-0.394l-0.135,-0.389l-0.127,-0.373l-0.12,-0.357l-0.113,-0.342l-0.201,-0.614l-0.091,-0.28l-0.084,-0.253l-0.075,-0.227l-0.068,-0.199l-0.063,-0.18l-0.022,-0.06l-0.033,-0.091l-0.054,-0.148l-0.064,-0.177l-0.061,-0.175l-0.062,-0.178l-0.059,-0.175l-0.058,-0.176l-0.057,-0.177l-0.056,-0.177l-0.055,-0.178l-0.058,-0.189l-0.101,-0.343l-0.101,-0.355l-0.097,-0.358l-0.094,-0.359l-0.091,-0.36l-0.088,-0.361l-0.084,-0.362l-0.082,-0.364l-0.079,-0.365l-0.077,-0.368l-0.074,-0.368l-0.071,-0.371l-0.07,-0.372l-0.067,-0.374l-0.065,-0.375l-0.063,-0.378l-0.061,-0.38l-0.059,-0.381l-0.058,-0.382l-0.055,-0.384l-0.054,-0.387l-0.052,-0.389l-0.051,-0.389l-0.049,-0.392l-0.048,-0.394l-0.046,-0.395l-0.044,-0.397l-0.044,-0.399l-0.042,-0.401l-0.04,-0.402l-0.04,-0.404l-0.038,-0.406l-0.037,-0.407l-0.036,-0.408l-0.035,-0.41l-0.034,-0.412l-0.033,-0.414l-0.032,-0.414l-0.031,-0.416l-0.03,-0.418l-0.029,-0.418l-0.028,-0.42l-0.027,-0.422l-0.027,-0.422l-0.025,-0.423l-0.025,-0.425l-0.025,-0.429l-0.046,-0.85l-0.044,-0.857l-0.041,-0.861l-0.04,-0.863l-0.037,-0.865l-0.036,-0.868l-0.017,-0.447l-0.017,-0.455l-0.031,-0.904l-0.029,-0.917l-0.027,-0.925l-0.052,-1.854l-0.026,-0.928l-0.027,-0.925l-0.029,-0.918l-0.014,-0.426l-0.174,0.076l-0.183,0.078l-0.182,0.077l-0.182,0.075l-0.183,0.074l-0.182,0.073l-0.182,0.072l-0.183,0.07l-0.182,0.069l-0.182,0.068l-0.182,0.067l-0.182,0.065l-0.182,0.064l-0.182,0.063l-0.181,0.062l-0.181,0.06l-0.181,0.06l-0.181,0.058l-0.181,0.057l-0.181,0.055l-0.18,0.055l-0.181,0.053l-0.18,0.052l-0.18,0.052l-0.18,0.05l-0.19,0.052l-0.346,0.091l-0.357,0.09l-0.356,0.085l-0.355,0.082l-0.353,0.077l-0.352,0.073l-0.351,0.069l-0.35,0.065l-0.347,0.061l-0.347,0.058l-0.344,0.054l-0.344,0.05l-0.341,0.046l-0.34,0.043l-0.338,0.04l-0.336,0.036l-0.335,0.033l-0.332,0.03l-0.331,0.027l-0.328,0.024l-0.327,0.02l-0.324,0.018l-0.323,0.015l-0.32,0.012l-0.318,0.01l-0.316,0.007l-0.314,0.004l-0.311,0.002l-0.309,0l-0.307,-0.003l-0.305,-0.005l-0.302,-0.007l-0.3,-0.01l-0.296,-0.011l-0.295,-0.014l-0.292,-0.015l-0.29,-0.017l-0.287,-0.02l-0.284,-0.02l-0.282,-0.023l-0.279,-0.024l-0.276,-0.025l-0.273,-0.028l-0.271,-0.028l-0.268,-0.03l-0.265,-0.031l-0.263,-0.032l-0.259,-0.034l-0.256,-0.035l-0.254,-0.035l-0.25,-0.037l-0.248,-0.038l-0.244,-0.038l-0.241,-0.04l-0.239,-0.04l-0.235,-0.04l-0.232,-0.042l-0.228,-0.042l-0.225,-0.042l-0.222,-0.043l-0.219,-0.044l-0.215,-0.043l-0.221,-0.046l-0.404,-0.087l-0.399,-0.089l-0.384,-0.088l-0.37,-0.089l-0.358,-0.088l-0.189,-0.048l-0.192,-0.051l-0.191,-0.052l-0.191,-0.053l-0.191,-0.056l-0.19,-0.056l-0.19,-0.058l-0.19,-0.06l-0.19,-0.061l-0.189,-0.063l-0.19,-0.064l-0.189,-0.066l-0.189,-0.068l-0.189,-0.069l-0.19,-0.07l-0.189,-0.073l-0.19,-0.073l-0.189,-0.076l-0.189,-0.077l-0.19,-0.079l-0.189,-0.081l-0.19,-0.083l-0.19,-0.084l-0.19,-0.086l-0.19,-0.089l-0.19,-0.09l-0.19,-0.092l-0.19,-0.094l-0.191,-0.096l-0.19,-0.099l-0.191,-0.101l-0.192,-0.104l-0.191,-0.106l-0.192,-0.108l-0.192,-0.112l-0.192,-0.114l-0.193,-0.117l-0.194,-0.121l-0.193,-0.124l-0.194,-0.127l-0.195,-0.131l-0.196,-0.135l-0.195,-0.139l-0.197,-0.143l-0.197,-0.149l-0.199,-0.154l-0.199,-0.158l-0.198,-0.164l-0.201,-0.171l-0.202,-0.178l-0.201,-0.184l-0.203,-0.192l-0.203,-0.2l-0.204,-0.209l-0.205,-0.219l-0.204,-0.228l-0.205,-0.24l-0.04,-0.049l-0.137,0.114l-0.225,0.183l-0.228,0.18l-0.228,0.177l-0.23,0.174l-0.233,0.172l-0.235,0.169l-0.237,0.167l-0.239,0.162l-0.24,0.16l-0.243,0.157l-0.245,0.154l-0.247,0.151l-0.249,0.148l-0.251,0.144l-0.253,0.141l-0.256,0.137l-0.257,0.135l-0.26,0.13l-0.262,0.127l-0.264,0.123l-0.265,0.119l-0.268,0.116l-0.27,0.112l-0.272,0.107l-0.273,0.104l-0.276,0.099l-0.277,0.096l-0.279,0.09l-0.281,0.087l-0.281,0.082l-0.284,0.078l-0.286,0.073l-0.285,0.068l-0.288,0.064l-0.289,0.059l-0.289,0.054l-0.291,0.049l-0.291,0.045l-0.292,0.039l-0.292,0.035l-0.292,0.03l-0.293,0.025l-0.294,0.02l-0.293,0.015l-0.292,0.009l-0.293,0.006l-0.293,0l-0.291,-0.005l-0.291,-0.01l-0.29,-0.014l-0.29,-0.02l-0.289,-0.024l-0.287,-0.028l-0.286,-0.033l-0.284,-0.038l-0.284,-0.043l-0.282,-0.046l-0.28,-0.051l-0.278,-0.056l-0.277,-0.059l-0.275,-0.064l-0.273,-0.067l-0.271,-0.072l-0.269,-0.075l-0.266,-0.079l-0.265,-0.083l-0.263,-0.086l-0.26,-0.09l-0.258,-0.093l-0.256,-0.096l-0.254,-0.1l-0.251,-0.103l-0.249,-0.106l-0.247,-0.108l-0.244,-0.112l-0.241,-0.114l-0.241,-0.117l-0.237,-0.12l-0.235,-0.122l-0.233,-0.125l-0.231,-0.127l-0.228,-0.129l-0.226,-0.132l-0.225,-0.135l-0.221,-0.136l-0.22,-0.138l-0.217,-0.14l-0.216,-0.143l-0.214,-0.144l-0.211,-0.146l-0.21,-0.149l-0.207,-0.149l-0.206,-0.152l-0.204,-0.153l-0.202,-0.155l-0.2,-0.157l-0.198,-0.159l-0.197,-0.16l-0.195,-0.161l-0.193,-0.163l-0.192,-0.165l-0.19,-0.166l-0.188,-0.168l-0.187,-0.169l-0.186,-0.171l-0.184,-0.172l-0.182,-0.173l-0.181,-0.174l-0.18,-0.176l-0.178,-0.178l-0.177,-0.178l-0.176,-0.18l-0.174,-0.181l-0.173,-0.183l-0.173,-0.184l-0.17,-0.185l-0.17,-0.186l-0.168,-0.187l-0.168,-0.189l-0.166,-0.19l-0.166,-0.191l-0.163,-0.192l-0.164,-0.194l-0.162,-0.195l-0.161,-0.195l-0.16,-0.197l-0.159,-0.198l-0.159,-0.2l-0.157,-0.2l-0.156,-0.201l-0.156,-0.203l-0.155,-0.204l-0.154,-0.205l-0.153,-0.205l-0.153,-0.207l-0.151,-0.208l-0.151,-0.21l-0.15,-0.21l-0.149,-0.211l-0.149,-0.212l-0.148,-0.214l-0.147,-0.215l-0.146,-0.215l-0.146,-0.217l-0.145,-0.217l-0.144,-0.219l-0.144,-0.22l-0.143,-0.221l-0.143,-0.221l-0.142,-0.224l-0.141,-0.223l-0.14,-0.225l-0.141,-0.226l-0.139,-0.227l-0.139,-0.227l-0.138,-0.229l-0.138,-0.23l-0.137,-0.231l-0.137,-0.232l-0.136,-0.232l-0.136,-0.233l-0.135,-0.235l-0.134,-0.236l-0.134,-0.236l-0.134,-0.238l-0.133,-0.237l-0.132,-0.24l-0.132,-0.24l-0.132,-0.241l-0.131,-0.242l-0.131,-0.244l-0.133,-0.249l-0.256,-0.484l-0.257,-0.494l-0.255,-0.497l-0.253,-0.5l-0.252,-0.504l-0.25,-0.508l-0.249,-0.51l-0.247,-0.514l-0.245,-0.517l-0.243,-0.52l-0.242,-0.523l-0.241,-0.525l-0.239,-0.53l-0.237,-0.531l-0.236,-0.535l-0.234,-0.537l-0.233,-0.54l-0.231,-0.543l-0.23,-0.545l-0.229,-0.547l-0.227,-0.551l-0.225,-0.552l-0.225,-0.555l-0.222,-0.557l-0.222,-0.56l-0.22,-0.561l-0.218,-0.564l-0.217,-0.565l-0.216,-0.568l-0.214,-0.569l-0.213,-0.571l-0.212,-0.573l-0.21,-0.575l-0.209,-0.576l-0.208,-0.578l-0.206,-0.579l-0.205,-0.581l-0.203,-0.582l-0.202,-0.583l-0.201,-0.585l-0.199,-0.585l-0.198,-0.587l-0.197,-0.588l-0.195,-0.588l-0.194,-0.59l-0.193,-0.59l-0.191,-0.591l-0.19,-0.592l-0.188,-0.592l-0.187,-0.593l-0.186,-0.593l-0.185,-0.594l-0.183,-0.594l-0.181,-0.594l-0.18,-0.595l-0.179,-0.594l-0.178,-0.594l-0.176,-0.595l-0.175,-0.594l-0.173,-0.594l-0.172,-0.594l-0.171,-0.593l-0.169,-0.593l-0.168,-0.593l-0.166,-0.592l-0.165,-0.591l-0.164,-0.591l-0.162,-0.59l-0.161,-0.589l-0.159,-0.588l-0.158,-0.587l-0.157,-0.586l-0.155,-0.585l-0.153,-0.584l-0.153,-0.582l-0.15,-0.581l-0.15,-0.58l-0.148,-0.578l-0.146,-0.576l-0.145,-0.575l-0.144,-0.573l-0.142,-0.572l-0.14,-0.569l-0.139,-0.568l-0.138,-0.566l-0.136,-0.563l-0.135,-0.561l-0.133,-0.559l-0.132,-0.557l-0.13,-0.554l-0.129,-0.552l-0.127,-0.55l-0.125,-0.546l-0.125,-0.544l-0.122,-0.542l-0.121,-0.538l-0.12,-0.536l-0.118,-0.533l-0.116,-0.529l-0.115,-0.527l-0.114,-0.523l-0.112,-0.52l-0.11,-0.517l-0.109,-0.513l-0.107,-0.51l-0.105,-0.507l-0.104,-0.503l-0.103,-0.499l-0.101,-0.495l-0.099,-0.492l-0.098,-0.487l-0.096,-0.484l-0.094,-0.479l-0.093,-0.476l-0.091,-0.472l-0.09,-0.467l-0.088,-0.463l-0.086,-0.458l-0.085,-0.454l-0.083,-0.45l-0.082,-0.445l-0.08,-0.441l-0.078,-0.435l-0.076,-0.431l-0.075,-0.427l-0.074,-0.421l-0.071,-0.417l-0.07,-0.411l-0.068,-0.406l-0.067,-0.402l-0.065,-0.396l-0.063,-0.391l-0.061,-0.386l-0.06,-0.381l-0.058,-0.375l-0.057,-0.37l-0.055,-0.365l-0.053,-0.359l-0.051,-0.353l-0.05,-0.349l-0.048,-0.342l-0.046,-0.338l-0.044,-0.332l-0.043,-0.326l-0.041,-0.321l-0.039,-0.315l-0.038,-0.31l-0.036,-0.305l-0.034,-0.299l-0.032,-0.295l-0.031,-0.289l-0.029,-0.284l-0.027,-0.28l-0.025,-0.275l-0.024,-0.27l-0.021,-0.267l-0.02,-0.263l-0.018,-0.26l-0.016,-0.257l-0.013,-0.246l-0.022,-0.468l-0.02,-0.458l-0.019,-0.456l-0.016,-0.454l-0.014,-0.451l-0.012,-0.45l-0.01,-0.447l-0.008,-0.446l-0.006,-0.443l-0.004,-0.441l-0.003,-0.44l0,-0.437l0.002,-0.435l0.003,-0.434l0.006,-0.431l0.008,-0.43l0.009,-0.427l0.011,-0.425l0.014,-0.424l0.015,-0.421l0.018,-0.42l0.019,-0.417l0.021,-0.416l0.023,-0.414l0.025,-0.412l0.027,-0.409l0.029,-0.408l0.031,-0.407l0.032,-0.404l0.035,-0.402l0.037,-0.401l0.038,-0.398l0.04,-0.397l0.043,-0.394l0.044,-0.393l0.046,-0.392l0.048,-0.389l0.05,-0.387l0.052,-0.385l0.054,-0.384l0.055,-0.382l0.058,-0.38l0.059,-0.378l0.062,-0.377l0.063,-0.374l0.065,-0.373l0.067,-0.371l0.069,-0.369l0.071,-0.367l0.073,-0.365l0.074,-0.364l0.077,-0.362l0.078,-0.36l0.081,-0.359l0.082,-0.356l0.084,-0.355l0.086,-0.353l0.087,-0.351l0.09,-0.349l0.092,-0.348l0.093,-0.345l0.095,-0.344l0.098,-0.343l0.099,-0.34l0.101,-0.339l0.102,-0.337l0.105,-0.335l0.107,-0.333l0.108,-0.332l0.11,-0.329l0.112,-0.328l0.114,-0.327l0.116,-0.324l0.117,-0.323l0.12,-0.321l0.121,-0.319l0.123,-0.317l0.125,-0.315l0.127,-0.314l0.129,-0.312l0.13,-0.31l0.132,-0.308l0.134,-0.307l0.136,-0.304l0.138,-0.303l0.139,-0.301l0.141,-0.299l0.144,-0.297l0.144,-0.296l0.147,-0.293l0.148,-0.292l0.15,-0.29l0.152,-0.288l0.154,-0.286l0.155,-0.285l0.157,-0.282l0.159,-0.281l0.16,-0.279l0.162,-0.276l0.164,-0.276l0.166,-0.272l0.167,-0.271l0.169,-0.27l0.171,-0.267l0.172,-0.266l0.174,-0.263l0.175,-0.262l0.177,-0.259l0.179,-0.258l0.18,-0.256l0.182,-0.254l0.183,-0.251l0.185,-0.25l0.187,-0.248l0.188,-0.246l0.189,-0.244l0.191,-0.242l0.193,-0.24l0.194,-0.238l0.195,-0.236l0.197,-0.234l0.198,-0.232l0.2,-0.23l0.201,-0.228l0.202,-0.226l0.204,-0.224l0.206,-0.222l0.206,-0.22l0.208,-0.218l0.209,-0.216l0.21,-0.214l0.212,-0.211l0.213,-0.21l0.214,-0.208l0.215,-0.206l0.217,-0.204l0.217,-0.201l0.219,-0.2l0.22,-0.197l0.221,-0.196l0.223,-0.194l0.223,-0.191l0.224,-0.19l0.225,-0.187l0.227,-0.186l0.227,-0.183l0.228,-0.182l0.23,-0.179l0.23,-0.178l0.231,-0.175l0.233,-0.173l0.233,-0.172l0.234,-0.169l0.235,-0.168l0.235,-0.165l0.237,-0.163l0.237,-0.162l0.238,-0.159l0.239,-0.158l0.24,-0.155l0.24,-0.154l0.241,-0.152l0.242,-0.15l0.243,-0.147l0.243,-0.146l0.244,-0.144l0.244,-0.142l0.245,-0.141l0.246,-0.138l0.247,-0.136l0.246,-0.135l0.248,-0.132l0.248,-0.131l0.249,-0.129l0.249,-0.127l0.249,-0.126l0.25,-0.123l0.251,-0.122l0.251,-0.12l0.251,-0.118l0.252,-0.116l0.253,-0.115l0.252,-0.113l0.253,-0.111l0.254,-0.109l0.254,-0.108l0.254,-0.105l0.254,-0.105l0.255,-0.102l0.256,-0.101l0.255,-0.099l0.256,-0.098l0.256,-0.096l0.256,-0.094l0.257,-0.092l0.257,-0.091l0.257,-0.09l0.257,-0.087l0.257,-0.087l0.258,-0.084l0.258,-0.083l0.258,-0.082l0.258,-0.08l0.259,-0.078l0.258,-0.077l0.259,-0.076l0.259,-0.074l0.259,-0.072l0.259,-0.071l0.259,-0.07l0.259,-0.068l0.26,-0.067l0.259,-0.065l0.26,-0.064l0.259,-0.063l0.26,-0.061l0.26,-0.06l0.259,-0.058l0.26,-0.057l0.26,-0.056l0.26,-0.054l0.26,-0.053l0.259,-0.052l0.26,-0.05l0.26,-0.049l0.26,-0.048l0.26,-0.047l0.26,-0.045l0.259,-0.044l0.26,-0.043l0.259,-0.042l0.26,-0.04l0.259,-0.04l0.26,-0.038l0.259,-0.037l0.259,-0.035l0.259,-0.035l0.259,-0.033l0.259,-0.033l0.259,-0.031l0.259,-0.03l0.258,-0.029l0.259,-0.028l0.258,-0.026l0.258,-0.026l0.258,-0.024l0.258,-0.024l0.258,-0.022l0.257,-0.022l0.258,-0.02l0.257,-0.02l0.257,-0.018l0.257,-0.017l0.256,-0.017l0.257,-0.015l0.256,-0.014l0.256,-0.014l0.256,-0.012l0.255,-0.012l0.256,-0.01l0.255,-0.01l0.255,-0.009l0.254,-0.008l0.254,-0.007l0.255,-0.006l0.253,-0.005l0.254,-0.004l0.253,-0.003l0.253,-0.003l0.26,-0.002l0.497,0l0.504,0.002l0.502,0.006l0.501,0.009l0.499,0.012l0.498,0.015l0.497,0.018l0.495,0.021l0.494,0.024l0.492,0.026l0.491,0.03l0.489,0.032l0.487,0.034l0.486,0.038l0.484,0.039l0.482,0.042l0.48,0.045l0.478,0.047l0.476,0.049l0.474,0.051l0.473,0.053l0.47,0.056l0.468,0.058l0.466,0.059l0.463,0.061l0.462,0.064l0.459,0.065l0.456,0.067l0.455,0.068l0.451,0.07l0.45,0.072l0.447,0.073l0.444,0.075l0.441,0.076l0.439,0.078l0.436,0.079l0.434,0.08l0.43,0.081l0.428,0.083l0.425,0.084l0.421,0.084l0.419,0.086l0.416,0.087l0.412,0.087l0.41,0.089l0.406,0.089l0.402,0.09l0.4,0.09l0.396,0.092l0.393,0.091l0.389,0.093l0.386,0.093l0.382,0.093l0.379,0.094l0.375,0.094l0.371,0.094l0.367,0.095l0.364,0.094l0.36,0.095l0.355,0.095l0.352,0.095l0.348,0.095l0.344,0.095l0.339,0.095l0.336,0.094l0.331,0.095l0.327,0.094l0.322,0.094l0.318,0.093l0.314,0.093l0.315,0.095l0.599,0.181l0.586,0.182l0.567,0.178l0.548,0.175l0.528,0.171l0.507,0.168l0.487,0.163l0.087,0.029l0.06,-0.035l0.207,-0.122l0.208,-0.12l0.208,-0.119l0.209,-0.119l0.211,-0.118l0.211,-0.116l0.213,-0.116l0.213,-0.115l0.215,-0.113l0.215,-0.113l0.216,-0.112l0.217,-0.111l0.218,-0.109l0.219,-0.109l0.22,-0.108l0.221,-0.107l0.222,-0.105l0.223,-0.105l0.224,-0.104l0.224,-0.102l0.226,-0.102l0.227,-0.1l0.227,-0.099l0.229,-0.099l0.229,-0.097l0.23,-0.096l0.232,-0.095l0.231,-0.094l0.233,-0.093l0.235,-0.092l0.234,-0.09l0.236,-0.09l0.237,-0.089l0.237,-0.087l0.239,-0.086l0.239,-0.085l0.241,-0.084l0.241,-0.082l0.242,-0.082l0.243,-0.08l0.244,-0.08l0.245,-0.078l0.245,-0.076l0.247,-0.076l0.247,-0.075l0.248,-0.073l0.249,-0.072l0.25,-0.071l0.251,-0.07l0.252,-0.068l0.253,-0.068l0.253,-0.066l0.254,-0.065l0.256,-0.063l0.256,-0.063l0.257,-0.061l0.257,-0.06l0.259,-0.059l0.259,-0.057l0.261,-0.056l0.261,-0.055l0.262,-0.054l0.263,-0.053l0.263,-0.051l0.265,-0.05l0.265,-0.048l0.266,-0.048l0.267,-0.046l0.268,-0.045l0.269,-0.043l0.269,-0.043l0.27,-0.041l0.272,-0.039l0.272,-0.039l0.272,-0.037l0.274,-0.036l0.274,-0.034l0.275,-0.034l0.276,-0.032l0.277,-0.03l0.278,-0.029l0.278,-0.028l0.28,-0.027l0.28,-0.026l0.281,-0.024l0.281,-0.022l0.283,-0.022l0.283,-0.02l0.284,-0.019l0.285,-0.017l0.286,-0.016l0.286,-0.015l0.287,-0.013l0.289,-0.012l0.289,-0.011l0.289,-0.009l0.291,-0.008l0.291,-0.007l0.292,-0.005l0.293,-0.004l0.294,-0.003l0.294,-0.001l0.296,0l0.296,0.002l0.297,0.002l0.298,0.005l0.607,0.011l0.607,0.015l0.603,0.017l0.6,0.021l0.596,0.024l0.593,0.027l0.589,0.031l0.586,0.033l0.583,0.036l0.579,0.04l0.576,0.042l0.573,0.046l0.569,0.048l0.566,0.052l0.562,0.054l0.559,0.058l0.556,0.06l0.553,0.064l0.549,0.066l0.546,0.07l0.543,0.072l0.54,0.075l0.536,0.078l0.533,0.081l0.53,0.084l0.527,0.087l0.524,0.089l0.173,0.031l0.106,-0.033l0.281,-0.084l0.293,-0.087l0.306,-0.089l0.319,-0.091l0.331,-0.092l0.343,-0.095l0.356,-0.096l0.369,-0.098l0.38,-0.099l0.393,-0.099l0.404,-0.101l0.415,-0.101l0.428,-0.102l0.438,-0.103l0.45,-0.102l0.462,-0.102l0.471,-0.103l0.483,-0.101l0.494,-0.102l0.503,-0.1l0.515,-0.1l0.524,-0.098l0.534,-0.097l0.538,-0.094l0.282,-0.049l0.278,-0.046l0.281,-0.047l0.283,-0.045l0.285,-0.046l0.288,-0.044l0.289,-0.044l0.293,-0.044l0.294,-0.043l0.297,-0.042l0.299,-0.042l0.301,-0.041l0.303,-0.04l0.306,-0.039l0.308,-0.039l0.309,-0.038l0.312,-0.037l0.315,-0.036l0.316,-0.036l0.318,-0.034l0.32,-0.034l0.322,-0.033l0.325,-0.031l0.326,-0.031l0.328,-0.03l0.33,-0.029l0.332,-0.028l0.334,-0.026l0.336,-0.026l0.338,-0.024l0.339,-0.023l0.342,-0.022l0.343,-0.021l0.345,-0.02l0.347,-0.018l0.348,-0.017l0.35,-0.016l0.352,-0.014l0.354,-0.013l0.355,-0.012l0.357,-0.01l0.359,-0.009l0.36,-0.008l0.362,-0.006l0.363,-0.004l0.365,-0.003l0.367,-0.001l0.368,0Zm-70.183,117.295l0.136,0.086l0.137,0.084l0.137,0.082l0.138,0.081l0.138,0.08l0.139,0.078l0.139,0.076l0.14,0.075l0.141,0.073l0.141,0.072l0.141,0.07l0.142,0.069l0.142,0.067l0.143,0.066l0.143,0.063l0.144,0.063l0.144,0.061l0.144,0.059l0.145,0.057l0.146,0.056l0.145,0.055l0.147,0.053l0.146,0.051l0.147,0.049l0.147,0.049l0.148,0.046l0.148,0.045l0.148,0.043l0.149,0.042l0.149,0.04l0.15,0.038l0.149,0.037l0.15,0.035l0.151,0.033l0.151,0.032l0.151,0.03l0.151,0.029l0.152,0.027l0.152,0.025l0.153,0.024l0.152,0.022l0.154,0.02l0.153,0.019l0.154,0.017l0.154,0.015l0.155,0.013l0.005,0.001l14.864,-12.677l-2.073,22.188l-0.005,0.051l-0.004,0.052l-0.003,0.051l-0.003,0.05l-0.003,0.051l-0.002,0.051l-0.001,0.05l-0.001,0.052l-0.001,0.053l-0.001,0.053l0.001,0.054l0,0.054l0.001,0.056l0.002,0.057l0.002,0.06l0.003,0.061l0.003,0.061l0.004,0.064l0.005,0.067l0.005,0.069l0.006,0.071l0.007,0.072l0.007,0.076l0.008,0.078l0.01,0.081l0.009,0.082l0.011,0.086l0.012,0.091l0.013,0.092l0.014,0.093l0.082,0.542l16.057,-22.332l4.107,1.902l-8.019,32.154l0.016,0.047l0.079,0.236l0.075,0.235l0.07,0.23l0.067,0.23l0.064,0.228l0.061,0.227l0.058,0.225l0.056,0.225l0.053,0.224l0.051,0.222l0.049,0.222l0.047,0.222l0.045,0.222l0.044,0.222l0.041,0.22l0.041,0.221l0.039,0.222l0.037,0.221l0.036,0.222l0.035,0.222l0.034,0.221l0.033,0.223l0.031,0.223l0.031,0.223l0.03,0.225l0.028,0.224l0.028,0.225l0.027,0.225l0.027,0.234l0.048,0.446l0.047,0.456l0.043,0.459l0.042,0.462l0.038,0.463l0.037,0.466l0.034,0.469l0.032,0.471l0.03,0.472l0.029,0.475l0.027,0.476l0.025,0.477l0.024,0.479l0.023,0.48l0.021,0.48l0.02,0.482l0.019,0.481l0.018,0.481l0.018,0.485l0.032,0.957l0.029,0.956l0.028,0.949l0.027,0.939l0.051,1.843l0.027,0.894l0.027,0.875l0.029,0.855l0.016,0.412l0.016,0.409l0.034,0.83l0.035,0.825l0.038,0.818l0.039,0.81l0.041,0.802l0.043,0.798l0.022,0.389l0.023,0.391l0.024,0.388l0.024,0.385l0.025,0.383l0.025,0.38l0.027,0.377l0.026,0.374l0.028,0.371l0.028,0.368l0.029,0.364l0.03,0.361l0.03,0.358l0.031,0.355l0.032,0.35l0.033,0.347l0.034,0.343l0.034,0.34l0.035,0.335l0.036,0.331l0.037,0.326l0.038,0.323l0.038,0.318l0.039,0.313l0.04,0.309l0.041,0.304l0.042,0.298l0.042,0.294l0.044,0.289l0.044,0.283l0.044,0.277l0.046,0.272l0.046,0.267l0.047,0.261l0.047,0.253l0.048,0.248l0.048,0.242l0.049,0.235l0.05,0.228l0.05,0.222l0.05,0.214l0.05,0.207l0.05,0.199l0.05,0.191l0.05,0.184l0.05,0.175l0.053,0.18l0.021,0.068l0.024,0.077l0.024,0.077l0.024,0.073l0.023,0.071l0.024,0.071l0.022,0.065l0.023,0.065l0.022,0.061l0.032,0.088l0.054,0.146l0.066,0.183l0.112,0.321l0.11,0.323l0.105,0.315l0.102,0.308l0.097,0.298l0.193,0.589l0.093,0.283l0.094,0.279l0.094,0.276l0.094,0.27l0.098,0.275l0.044,0.122l0.048,0.13l0.048,0.128l0.048,0.127l0.048,0.125l0.049,0.123l0.049,0.123l0.049,0.121l0.049,0.119l0.05,0.117l0.05,0.116l0.05,0.114l0.05,0.112l0.051,0.11l0.051,0.109l0.051,0.106l0.051,0.104l0.051,0.103l0.052,0.1l0.051,0.098l0.052,0.096l0.051,0.093l0.052,0.092l0.052,0.089l0.051,0.087l0.051,0.084l0.052,0.082l0.051,0.08l0.051,0.078l0.051,0.075l0.051,0.073l0.05,0.069l0.05,0.068l0.05,0.066l0.059,0.076l0.016,0.02l0.024,0.029l0.024,0.029l0.025,0.03l0.023,0.028l0.025,0.029l0.024,0.028l0.023,0.026l0.023,0.026l0.024,0.026l0.025,0.026l0.024,0.025l0.023,0.024l0.022,0.024l0.024,0.024l0.024,0.024l0.023,0.022l0.022,0.021l0.023,0.022l0.023,0.022l0.024,0.021l0.022,0.02l0.023,0.021l0.023,0.019l0.022,0.019l0.024,0.02l0.022,0.019l0.024,0.018l0.022,0.018l0.023,0.018l0.023,0.017l0.023,0.018l0.023,0.017l0.023,0.017l0.023,0.016l0.023,0.016l0.025,0.017l0.023,0.016l0.024,0.015l0.025,0.016l0.025,0.016l0.023,0.014l0.026,0.015l0.025,0.015l0.025,0.015l0.027,0.015l0.026,0.015l0.027,0.014l0.026,0.014l0.028,0.014l0.029,0.015l0.029,0.014l0.029,0.014l0.029,0.013l0.031,0.015l0.031,0.014l0.032,0.013l0.032,0.014l0.033,0.013l0.034,0.014l0.035,0.014l0.035,0.013l0.036,0.013l0.038,0.014l0.037,0.013l0.039,0.013l0.041,0.013l0.04,0.013l0.042,0.012l0.044,0.013l0.043,0.012l0.045,0.013l0.047,0.012l0.047,0.012l0.049,0.012l0.05,0.012l0.051,0.011l0.053,0.012l0.053,0.01l0.054,0.011l0.057,0.011l0.058,0.01l0.059,0.01l0.06,0.01l0.062,0.009l0.064,0.009l0.065,0.009l0.066,0.008l0.068,0.008l0.07,0.007l0.07,0.007l0.073,0.007l0.074,0.006l0.076,0.006l0.078,0.005l0.079,0.004l0.081,0.004l0.082,0.003l0.085,0.003l0.086,0.002l0.087,0.002l0.089,0.001l0.092,0l0.093,-0.001l0.095,-0.001l0.096,-0.002l0.098,-0.003l0.1,-0.004l0.102,-0.004l0.104,-0.006l0.106,-0.006l0.108,-0.007l0.109,-0.008l0.111,-0.009l0.114,-0.01l0.114,-0.01l0.117,-0.012l0.119,-0.013l0.12,-0.014l0.123,-0.015l0.124,-0.016l0.126,-0.017l0.129,-0.018l0.13,-0.019l0.132,-0.021l0.134,-0.021l0.136,-0.023l0.138,-0.024l0.139,-0.025l0.142,-0.026l0.144,-0.028l0.145,-0.029l0.147,-0.03l0.158,-0.034l0.308,-0.066l0.311,-0.068l0.308,-0.068l0.303,-0.068l0.3,-0.068l0.295,-0.069l0.291,-0.068l0.287,-0.069l0.282,-0.07l0.278,-0.07l0.274,-0.07l0.269,-0.071l0.265,-0.071l0.261,-0.073l0.256,-0.072l0.252,-0.074l0.247,-0.074l0.243,-0.075l0.238,-0.076l0.234,-0.076l0.24,-0.081l0.103,-0.036l0.112,-0.039l0.111,-0.039l0.11,-0.04l0.108,-0.04l0.108,-0.04l0.107,-0.04l0.106,-0.041l0.103,-0.04l0.104,-0.042l0.102,-0.041l0.101,-0.041l0.101,-0.042l0.099,-0.042l0.097,-0.042l0.098,-0.043l0.096,-0.043l0.096,-0.043l0.094,-0.043l0.093,-0.043l0.092,-0.044l0.092,-0.045l0.09,-0.044l0.089,-0.044l0.089,-0.045l0.088,-0.046l0.087,-0.046l0.085,-0.045l0.086,-0.046l0.085,-0.047l0.083,-0.047l0.083,-0.047l0.082,-0.048l0.081,-0.048l0.08,-0.048l0.08,-0.048l0.08,-0.05l0.078,-0.049l0.078,-0.05l0.077,-0.051l0.076,-0.05l0.077,-0.052l0.075,-0.052l0.075,-0.052l0.074,-0.052l0.074,-0.054l0.074,-0.054l0.073,-0.054l0.072,-0.055l0.073,-0.056l0.071,-0.056l0.071,-0.057l0.072,-0.058l0.07,-0.058l0.071,-0.06l0.07,-0.059l0.069,-0.061l0.07,-0.061l0.07,-0.063l0.069,-0.063l0.069,-0.064l0.069,-0.065l0.068,-0.066l0.069,-0.067l0.068,-0.067l0.068,-0.07l0.069,-0.07l0.068,-0.071l0.068,-0.072l0.068,-0.074l0.068,-0.074l0.068,-0.076l0.068,-0.077l0.067,-0.078l0.069,-0.08l0.068,-0.082l0.068,-0.083l0.068,-0.083l0.068,-0.086l0.068,-0.087l0.068,-0.088l0.068,-0.09l0.068,-0.091l0.069,-0.094l0.068,-0.095l0.069,-0.096l0.068,-0.099l0.069,-0.1l0.068,-0.102l0.069,-0.103l0.069,-0.106l0.068,-0.107l0.069,-0.11l0.069,-0.112l0.069,-0.113l0.069,-0.114l0.069,-0.118l0.069,-0.119l0.069,-0.122l0.069,-0.124l0.069,-0.124l0.069,-0.128l0.069,-0.131l0.069,-0.132l0.07,-0.134l0.069,-0.137l0.068,-0.139l0.069,-0.141l0.069,-0.144l0.069,-0.146l0.069,-0.148l0.069,-0.152l0.068,-0.152l0.068,-0.156l0.069,-0.158l0.068,-0.16l0.067,-0.163l0.068,-0.166l0.068,-0.168l0.068,-0.171l0.067,-0.173l0.067,-0.176l0.067,-0.178l0.067,-0.181l0.066,-0.184l0.066,-0.186l0.066,-0.189l0.066,-0.192l0.065,-0.194l0.065,-0.197l0.065,-0.2l0.065,-0.203l0.064,-0.205l0.064,-0.208l0.063,-0.21l0.064,-0.214l0.062,-0.217l0.063,-0.219l0.062,-0.222l0.061,-0.224l0.062,-0.228l0.061,-0.231l0.06,-0.234l0.06,-0.236l0.059,-0.239l0.06,-0.242l0.058,-0.245l0.058,-0.249l0.058,-0.25l0.057,-0.254l0.057,-0.258l0.056,-0.259l0.056,-0.263l0.055,-0.266l0.054,-0.269l0.054,-0.272l0.054,-0.274l0.053,-0.278l0.052,-0.281l0.052,-0.284l0.051,-0.287l0.051,-0.291l0.05,-0.292l0.049,-0.297l0.049,-0.3l0.048,-0.302l0.048,-0.305l0.047,-0.309l0.046,-0.312l0.046,-0.316l0.044,-0.317l0.045,-0.322l0.043,-0.324l0.043,-0.328l0.043,-0.331l0.041,-0.334l0.041,-0.337l0.04,-0.341l0.04,-0.343l0.039,-0.348l0.038,-0.35l0.037,-0.353l0.037,-0.357l0.036,-0.361l0.035,-0.362l0.034,-0.367l0.034,-0.371l0.033,-0.373l0.032,-0.376l0.031,-0.38l0.031,-0.383l0.03,-0.387l0.029,-0.39l0.028,-0.393l0.028,-0.397l0.026,-0.4l0.026,-0.403l0.026,-0.407l0.024,-0.411l0.023,-0.413l0.023,-0.417l0.022,-0.421l0.021,-0.424l0.02,-0.428l0.019,-0.431l0.019,-0.434l0.018,-0.438l0.017,-0.442l0.016,-0.445l0.015,-0.448l0.014,-0.452l0.014,-0.456l0.012,-0.459l0.012,-0.472l9.004,0.228l-8.943,-1.067l0.062,-0.52l0.059,-0.501l0.114,-0.977l0.109,-0.936l0.106,-0.896l0.054,-0.443l0.054,-0.434l0.055,-0.427l0.056,-0.423l0.057,-0.418l0.06,-0.415l0.062,-0.404l0.034,-0.215l0.033,-0.205l0.035,-0.205l0.035,-0.206l0.038,-0.208l0.038,-0.207l0.04,-0.206l0.041,-0.208l0.044,-0.21l0.045,-0.21l0.047,-0.211l0.05,-0.213l0.052,-0.217l0.055,-0.216l0.058,-0.218l0.061,-0.222l0.065,-0.224l0.068,-0.226l0.072,-0.229l0.077,-0.232l0.082,-0.236l0.087,-0.239l0.092,-0.241l0.098,-0.246l0.105,-0.249l0.112,-0.251l0.12,-0.256l0.127,-0.258l0.136,-0.262l0.145,-0.265l0.154,-0.267l0.164,-0.27l0.175,-0.271l0.185,-0.272l0.195,-0.27l0.209,-0.274l0.219,-0.27l0.23,-0.268l0.243,-0.266l0.252,-0.26l0.266,-0.258l0.275,-0.25l0.284,-0.242l0.293,-0.235l0.302,-0.225l0.31,-0.217l0.316,-0.206l0.321,-0.194l0.326,-0.183l0.327,-0.171l0.33,-0.159l0.33,-0.148l0.331,-0.135l0.329,-0.124l0.327,-0.112l0.325,-0.102l0.32,-0.09l0.317,-0.081l0.312,-0.071l0.308,-0.063l0.302,-0.053l0.296,-0.047l0.292,-0.038l0.286,-0.032l0.28,-0.026l0.276,-0.02l0.27,-0.015l0.265,-0.01l0.26,-0.006l0.256,-0.001l0.252,0.002l0.247,0.006l0.244,0.009l0.239,0.012l0.237,0.015l0.234,0.017l0.231,0.019l0.145,0.014l-0.172,-0.179l-0.168,-0.18l-0.165,-0.182l-0.158,-0.182l-0.153,-0.182l-0.15,-0.183l-0.143,-0.182l-0.139,-0.183l-0.135,-0.184l-0.129,-0.181l-0.124,-0.181l-0.12,-0.182l-0.115,-0.179l-0.11,-0.178l-0.106,-0.179l-0.101,-0.176l-0.096,-0.172l-0.092,-0.173l-0.088,-0.171l-0.083,-0.167l-0.093,-0.195l-0.133,-0.295l-0.13,-0.314l-0.115,-0.299l-0.102,-0.289l-0.089,-0.277l-0.077,-0.262l-0.07,-0.262l-0.941,-3.98l2.486,-3.702l0.283,-0.424l0.282,-0.424l0.28,-0.425l0.279,-0.427l0.277,-0.427l0.277,-0.428l0.275,-0.43l0.274,-0.43l0.273,-0.431l0.271,-0.431l0.27,-0.432l0.269,-0.434l0.268,-0.433l0.266,-0.435l0.266,-0.436l0.264,-0.436l0.262,-0.437l0.262,-0.438l0.26,-0.438l0.258,-0.439l0.258,-0.439l0.256,-0.441l0.255,-0.44l0.253,-0.442l0.253,-0.442l0.251,-0.442l0.249,-0.443l0.249,-0.444l0.247,-0.443l0.245,-0.445l0.245,-0.445l0.243,-0.445l0.241,-0.446l0.241,-0.446l0.239,-0.447l0.238,-0.447l0.236,-0.447l0.235,-0.448l0.234,-0.448l0.232,-0.448l0.231,-0.449l0.229,-0.448l0.229,-0.449l0.227,-0.45l0.225,-0.449l0.224,-0.45l0.223,-0.45l0.222,-0.45l0.22,-0.45l0.218,-0.45l0.218,-0.45l0.216,-0.451l0.214,-0.45l0.213,-0.451l0.212,-0.451l0.21,-0.45l0.209,-0.451l0.208,-0.451l0.206,-0.45l0.205,-0.45l0.203,-0.451l0.202,-0.45l0.2,-0.45l0.199,-0.45l0.198,-0.45l0.196,-0.45l0.195,-0.449l0.194,-0.45l0.192,-0.449l0.19,-0.449l0.189,-0.449l0.188,-0.448l0.186,-0.448l0.185,-0.448l0.183,-0.448l0.182,-0.447l0.18,-0.446l0.179,-0.447l0.178,-0.446l0.176,-0.445l0.175,-0.445l0.173,-0.445l0.172,-0.444l0.17,-0.444l0.169,-0.443l0.167,-0.442l0.166,-0.443l0.164,-0.441l0.163,-0.441l0.161,-0.44l0.16,-0.44l0.158,-0.439l0.157,-0.438l0.156,-0.438l0.154,-0.437l0.152,-0.436l0.151,-0.436l0.15,-0.435l0.147,-0.433l0.147,-0.434l0.145,-0.432l0.143,-0.432l0.142,-0.431l0.141,-0.429l0.139,-0.429l0.137,-0.428l0.136,-0.427l0.134,-0.427l0.133,-0.425l0.131,-0.424l0.13,-0.424l0.128,-0.422l0.127,-0.421l0.125,-0.42l0.124,-0.419l0.122,-0.418l0.12,-0.417l0.12,-0.415l0.117,-0.415l0.116,-0.413l0.114,-0.412l0.113,-0.412l0.111,-0.409l0.11,-0.408l0.108,-0.407l0.107,-0.407l0.105,-0.404l0.104,-0.403l0.102,-0.402l0.1,-0.4l0.099,-0.399l0.097,-0.398l0.096,-0.396l0.094,-0.395l0.093,-0.393l0.091,-0.391l0.089,-0.391l0.088,-0.388l0.086,-0.387l0.085,-0.386l0.083,-0.383l0.082,-0.383l0.08,-0.38l0.078,-0.379l0.077,-0.377l0.075,-0.375l0.074,-0.374l0.072,-0.372l0.07,-0.37l0.069,-0.369l0.067,-0.366l0.066,-0.364l0.064,-0.363l0.063,-0.361l0.061,-0.359l0.059,-0.357l0.058,-0.355l0.056,-0.353l0.055,-0.351l0.053,-0.349l0.051,-0.346l0.05,-0.345l0.048,-0.342l0.047,-0.341l0.045,-0.338l0.044,-0.336l0.042,-0.334l0.04,-0.331l0.039,-0.329l0.037,-0.328l0.036,-0.324l0.034,-0.322l0.032,-0.32l0.031,-0.317l0.029,-0.315l0.028,-0.312l0.026,-0.311l0.025,-0.307l0.023,-0.305l0.022,-0.302l0.02,-0.299l0.018,-0.297l0.017,-0.295l0.016,-0.291l0.013,-0.289l0.013,-0.286l0.011,-0.283l0.009,-0.28l0.008,-0.277l0.006,-0.275l0.005,-0.272l0.004,-0.268l0.002,-0.265l0,-0.263l-0.001,-0.259l-0.002,-0.257l-0.004,-0.252l-0.005,-0.249l-0.007,-0.248l-0.008,-0.243l-0.009,-0.239l-0.011,-0.236l-0.012,-0.233l-0.013,-0.23l-0.014,-0.226l-0.016,-0.222l-0.017,-0.219l-0.018,-0.215l-0.02,-0.211l-0.02,-0.207l-0.022,-0.205l-0.023,-0.2l-0.024,-0.196l-0.025,-0.192l-0.026,-0.188l-0.027,-0.184l-0.028,-0.18l-0.028,-0.176l-0.03,-0.171l-0.03,-0.168l-0.031,-0.163l-0.032,-0.159l-0.032,-0.154l-0.033,-0.15l-0.034,-0.145l-0.033,-0.14l-0.035,-0.137l-0.034,-0.132l-0.035,-0.126l-0.035,-0.122l-0.035,-0.117l-0.034,-0.112l-0.035,-0.108l-0.035,-0.102l-0.033,-0.097l-0.034,-0.092l-0.033,-0.088l-0.033,-0.082l-0.032,-0.078l-0.03,-0.071l-0.03,-0.067l-0.028,-0.061l-0.034,-0.072l-0.006,-0.012l-0.013,-0.025l-0.012,-0.023l-0.011,-0.022l-0.012,-0.022l-0.011,-0.021l-0.01,-0.018l-0.01,-0.017l-0.01,-0.017l-0.009,-0.016l-0.008,-0.013l-0.007,-0.013l-0.007,-0.01l-0.006,-0.01l-0.007,-0.01l-0.006,-0.009l-0.004,-0.006l-0.003,-0.005l-0.003,-0.004l-0.003,-0.005l-0.002,-0.001l0,-0.001l-0.001,-0.001l-0.007,-0.009l-0.116,-0.148l-0.125,-0.158l-0.125,-0.156l-0.126,-0.156l-0.125,-0.154l-0.126,-0.154l-0.126,-0.152l-0.127,-0.152l-0.126,-0.15l-0.127,-0.149l-0.128,-0.149l-0.127,-0.148l-0.127,-0.146l-0.129,-0.146l-0.128,-0.144l-0.128,-0.144l-0.129,-0.143l-0.129,-0.142l-0.129,-0.141l-0.129,-0.139l-0.13,-0.139l-0.13,-0.139l-0.13,-0.137l-0.13,-0.136l-0.131,-0.135l-0.131,-0.135l-0.131,-0.133l-0.131,-0.133l-0.131,-0.131l-0.132,-0.131l-0.132,-0.131l-0.132,-0.128l-0.132,-0.128l-0.133,-0.128l-0.133,-0.126l-0.133,-0.126l-0.133,-0.125l-0.133,-0.123l-0.134,-0.124l-0.134,-0.122l-0.134,-0.121l-0.134,-0.12l-0.135,-0.12l-0.135,-0.119l-0.134,-0.118l-0.135,-0.117l-0.136,-0.116l-0.135,-0.116l-0.136,-0.114l-0.136,-0.114l-0.136,-0.113l-0.137,-0.113l-0.136,-0.111l-0.137,-0.111l-0.137,-0.11l-0.137,-0.109l-0.137,-0.108l-0.138,-0.107l-0.137,-0.107l-0.139,-0.106l-0.138,-0.106l-0.138,-0.104l-0.139,-0.104l-0.138,-0.103l-0.139,-0.102l-0.139,-0.101l-0.139,-0.101l-0.14,-0.1l-0.14,-0.099l-0.139,-0.099l-0.14,-0.097l-0.14,-0.097l-0.141,-0.096l-0.14,-0.096l-0.141,-0.095l-0.141,-0.094l-0.141,-0.093l-0.141,-0.093l-0.142,-0.092l-0.141,-0.091l-0.142,-0.09l-0.142,-0.09l-0.142,-0.089l-0.142,-0.089l-0.143,-0.088l-0.142,-0.087l-0.143,-0.086l-0.143,-0.086l-0.143,-0.085l-0.143,-0.084l-0.144,-0.084l-0.143,-0.083l-0.144,-0.082l-0.144,-0.082l-0.144,-0.081l-0.145,-0.08l-0.144,-0.08l-0.144,-0.079l-0.145,-0.078l-0.145,-0.078l-0.145,-0.077l-0.145,-0.076l-0.145,-0.076l-0.146,-0.075l-0.146,-0.075l-0.145,-0.074l-0.147,-0.073l-0.145,-0.072l-0.147,-0.072l-0.146,-0.072l-0.147,-0.071l-0.139,-0.066l-0.301,-0.142l-0.294,-0.136l-0.295,-0.134l-0.295,-0.131l-0.296,-0.128l-0.296,-0.127l-0.297,-0.124l-0.298,-0.121l-0.297,-0.12l-0.299,-0.116l-0.298,-0.115l-0.299,-0.113l-0.3,-0.11l-0.3,-0.108l-0.3,-0.105l-0.301,-0.104l-0.301,-0.101l-0.301,-0.099l-0.302,-0.097l-0.302,-0.095l-0.302,-0.092l-0.303,-0.091l-0.303,-0.088l-0.303,-0.086l-0.303,-0.085l-0.304,-0.082l-0.303,-0.08l-0.304,-0.078l-0.304,-0.076l-0.305,-0.074l-0.304,-0.072l-0.304,-0.07l-0.305,-0.068l-0.305,-0.067l-0.304,-0.064l-0.305,-0.062l-0.305,-0.061l-0.304,-0.058l-0.305,-0.057l-0.305,-0.055l-0.304,-0.053l-0.305,-0.051l-0.304,-0.05l-0.305,-0.047l-0.304,-0.046l-0.304,-0.044l-0.304,-0.043l-0.303,-0.04l-0.303,-0.039l-0.303,-0.038l-0.303,-0.035l-0.303,-0.034l-0.302,-0.032l-0.302,-0.031l-0.301,-0.029l-0.301,-0.027l-0.301,-0.026l-0.3,-0.025l-0.3,-0.022l-0.299,-0.021l-0.299,-0.02l-0.298,-0.018l-0.298,-0.017l-0.297,-0.015l-0.296,-0.014l-0.296,-0.012l-0.296,-0.011l-0.294,-0.01l-0.294,-0.008l-0.293,-0.007l-0.293,-0.005l-0.291,-0.004l-0.291,-0.003l-0.29,-0.002l-0.29,0l-0.288,0.001l-0.288,0.002l-0.286,0.004l-0.286,0.004l-0.285,0.006l-0.283,0.007l-0.283,0.008l-0.282,0.009l-0.28,0.011l-0.28,0.011l-0.279,0.013l-0.277,0.013l-0.276,0.015l-0.275,0.016l-0.274,0.016l-0.273,0.018l-0.271,0.018l-0.27,0.02l-0.269,0.02l-0.268,0.022l-0.266,0.022l-0.265,0.023l-0.263,0.024l-0.262,0.025l-0.26,0.025l-0.259,0.026l-0.258,0.028l-0.256,0.027l-0.255,0.029l-0.253,0.029l-0.251,0.03l-0.25,0.031l-0.248,0.031l-0.246,0.032l-0.245,0.032l-0.243,0.033l-0.242,0.034l-0.239,0.034l-0.238,0.035l-0.236,0.035l-0.234,0.035l-0.232,0.036l-0.231,0.037l-0.228,0.037l-0.227,0.037l-0.224,0.038l-0.216,0.037l-0.446,0.078l-0.431,0.078l-0.423,0.08l-0.414,0.08l-0.405,0.081l-0.396,0.081l-0.387,0.082l-0.378,0.081l-0.368,0.082l-0.358,0.081l-0.348,0.082l-0.338,0.08l-0.327,0.08l-0.317,0.079l-0.306,0.078l-0.295,0.077l-0.284,0.075l-0.273,0.073l-0.26,0.072l-0.249,0.07l-0.237,0.067l-0.224,0.065l-0.211,0.063l-0.199,0.06l-0.185,0.056l-0.172,0.054l-0.157,0.05l-0.144,0.046l-0.128,0.042l-0.112,0.037l-0.086,0.03l-0.742,0.355l-3.134,0.579l-2.138,-0.437l-0.397,-0.078l-0.401,-0.077l-0.405,-0.074l-0.408,-0.073l-0.412,-0.07l-0.415,-0.069l-0.42,-0.066l-0.423,-0.064l-0.426,-0.062l-0.431,-0.06l-0.434,-0.058l-0.439,-0.056l-0.442,-0.053l-0.446,-0.051l-0.45,-0.049l-0.454,-0.047l-0.457,-0.044l-0.462,-0.042l-0.466,-0.04l-0.47,-0.037l-0.473,-0.035l-0.478,-0.033l-0.482,-0.03l-0.486,-0.028l-0.49,-0.025l-0.494,-0.022l-0.499,-0.02l-0.502,-0.018l-0.507,-0.015l-0.51,-0.012l-0.518,-0.01l-0.215,-0.003l-0.215,-0.002l-0.213,-0.001l-0.212,0l-0.212,0.001l-0.21,0.002l-0.208,0.002l-0.208,0.004l-0.207,0.005l-0.205,0.006l-0.205,0.006l-0.203,0.008l-0.202,0.008l-0.201,0.01l-0.2,0.01l-0.199,0.011l-0.198,0.012l-0.197,0.013l-0.196,0.014l-0.194,0.015l-0.194,0.015l-0.193,0.017l-0.191,0.017l-0.191,0.018l-0.189,0.019l-0.188,0.02l-0.188,0.021l-0.186,0.022l-0.185,0.022l-0.185,0.023l-0.183,0.024l-0.182,0.025l-0.182,0.026l-0.18,0.026l-0.179,0.027l-0.178,0.028l-0.178,0.029l-0.176,0.03l-0.175,0.03l-0.175,0.031l-0.173,0.032l-0.173,0.032l-0.171,0.034l-0.171,0.034l-0.169,0.034l-0.169,0.036l-0.168,0.036l-0.167,0.037l-0.166,0.038l-0.165,0.038l-0.164,0.039l-0.163,0.04l-0.162,0.041l-0.162,0.041l-0.161,0.042l-0.159,0.042l-0.159,0.043l-0.158,0.044l-0.157,0.045l-0.156,0.045l-0.156,0.046l-0.154,0.047l-0.154,0.047l-0.153,0.048l-0.152,0.048l-0.151,0.049l-0.151,0.05l-0.149,0.051l-0.149,0.051l-0.148,0.051l-0.148,0.053l-0.146,0.053l-0.146,0.053l-0.145,0.054l-0.144,0.055l-0.144,0.055l-0.142,0.056l-0.142,0.057l-0.141,0.057l-0.141,0.058l-0.14,0.058l-0.139,0.059l-0.138,0.06l-0.138,0.06l-0.136,0.06l-0.137,0.062l-0.135,0.062l-0.135,0.062l-0.134,0.063l-0.134,0.064l-0.132,0.064l-0.133,0.065l-0.131,0.065l-0.131,0.066l-0.13,0.066l-0.13,0.067l-0.129,0.068l-0.128,0.068l-0.128,0.068l-0.127,0.069l-0.126,0.07l-0.126,0.07l-0.125,0.071l-0.125,0.072l-0.124,0.072l-0.123,0.072l-0.123,0.073l-0.122,0.074l-0.122,0.074l-0.121,0.074l-0.121,0.076l-0.12,0.075l-0.119,0.076l-0.119,0.077l-0.118,0.078l-0.118,0.077l-0.117,0.079l-0.117,0.078l-0.116,0.08l-0.116,0.08l-0.115,0.081l-0.114,0.08l-0.114,0.082l-0.114,0.082l-0.113,0.083l-0.112,0.082l-0.112,0.084l-4.216,3.181l-4.774,-1.944l-0.116,-0.046l-0.226,-0.089l-0.14,-0.054l-0.172,-0.066l-0.196,-0.074l-0.219,-0.083l-0.242,-0.09l-0.266,-0.097l-0.287,-0.104l-0.31,-0.111l-0.331,-0.117l-0.351,-0.123l-0.372,-0.128l-0.392,-0.133l-0.412,-0.138l-0.43,-0.142l-0.449,-0.146l-0.467,-0.149l-0.484,-0.152l-0.502,-0.155l-0.523,-0.159l-0.26,-0.077l-0.269,-0.08l-0.272,-0.08l-0.277,-0.081l-0.28,-0.081l-0.284,-0.081l-0.288,-0.081l-0.291,-0.081l-0.295,-0.081l-0.298,-0.082l-0.302,-0.081l-0.305,-0.082l-0.308,-0.081l-0.311,-0.081l-0.315,-0.081l-0.318,-0.081l-0.32,-0.08l-0.324,-0.08l-0.326,-0.08l-0.33,-0.079l-0.332,-0.079l-0.334,-0.078l-0.338,-0.078l-0.34,-0.077l-0.342,-0.077l-0.345,-0.075l-0.347,-0.075l-0.349,-0.074l-0.352,-0.074l-0.354,-0.072l-0.356,-0.072l-0.358,-0.07l-0.36,-0.07l-0.362,-0.068l-0.364,-0.067l-0.366,-0.067l-0.367,-0.064l-0.369,-0.064l-0.371,-0.063l-0.372,-0.061l-0.373,-0.059l-0.375,-0.058l-0.376,-0.057l-0.378,-0.055l-0.378,-0.054l-0.38,-0.052l-0.381,-0.051l-0.382,-0.048l-0.383,-0.048l-0.383,-0.045l-0.384,-0.043l-0.385,-0.042l-0.386,-0.04l-0.386,-0.037l-0.387,-0.036l-0.387,-0.034l-0.388,-0.032l-0.388,-0.03l-0.388,-0.027l-0.388,-0.026l-0.388,-0.023l-0.388,-0.021l-0.389,-0.019l-0.388,-0.016l-0.388,-0.014l-0.387,-0.012l-0.387,-0.009l-0.387,-0.007l-0.387,-0.005l-0.386,-0.001l-0.392,0l-0.185,0.001l-0.192,0.002l-0.192,0.003l-0.192,0.003l-0.192,0.004l-0.191,0.004l-0.191,0.006l-0.191,0.006l-0.191,0.006l-0.19,0.007l-0.19,0.008l-0.19,0.009l-0.19,0.009l-0.189,0.01l-0.189,0.011l-0.189,0.011l-0.188,0.012l-0.188,0.013l-0.188,0.013l-0.187,0.014l-0.188,0.015l-0.186,0.015l-0.187,0.017l-0.186,0.017l-0.185,0.017l-0.185,0.019l-0.185,0.019l-0.185,0.02l-0.184,0.02l-0.183,0.022l-0.183,0.022l-0.183,0.022l-0.182,0.024l-0.182,0.024l-0.181,0.025l-0.181,0.026l-0.181,0.026l-0.18,0.028l-0.179,0.028l-0.179,0.028l-0.178,0.03l-0.178,0.03l-0.178,0.031l-0.176,0.032l-0.177,0.032l-0.175,0.033l-0.176,0.034l-0.174,0.035l-0.174,0.036l-0.174,0.036l-0.173,0.037l-0.172,0.038l-0.172,0.039l-0.171,0.039l-0.171,0.04l-0.17,0.041l-0.169,0.042l-0.169,0.042l-0.168,0.043l-0.167,0.044l-0.167,0.045l-0.166,0.046l-0.166,0.046l-0.165,0.047l-0.164,0.048l-0.164,0.049l-0.163,0.049l-0.161,0.051l-0.162,0.051l-0.161,0.052l-0.16,0.052l-0.159,0.053l-0.159,0.055l-0.158,0.055l-0.158,0.055l-0.156,0.057l-0.156,0.057l-0.156,0.058l-0.154,0.059l-0.154,0.06l-0.153,0.06l-0.152,0.062l-0.152,0.062l-0.151,0.063l-0.15,0.063l-0.15,0.065l-0.148,0.065l-0.148,0.066l-0.148,0.067l-0.146,0.068l-0.146,0.068l-0.145,0.069l-0.144,0.071l-0.144,0.07l-0.143,0.072l-0.142,0.073l-0.141,0.073l-0.141,0.074l-0.14,0.075l-0.139,0.076l-0.139,0.077l-0.138,0.077l-0.137,0.079l-0.136,0.079l-0.136,0.08l-0.134,0.081l-0.135,0.082l-0.133,0.082l-0.133,0.084l-0.132,0.084l-0.131,0.085l-0.131,0.087l-0.13,0.087l-0.129,0.088l-0.128,0.088l-0.128,0.09l-0.127,0.091l-0.127,0.091l-0.125,0.093l-0.126,0.093l-0.124,0.095l-0.124,0.095l-0.123,0.096l-0.122,0.097l-0.122,0.099l-0.121,0.099l-0.121,0.1l-0.12,0.101l-0.119,0.103l-0.119,0.103l-0.117,0.104l-0.118,0.106l-0.116,0.106l-0.116,0.108l-0.116,0.108l-0.115,0.11l-0.114,0.111l-0.113,0.112l-0.113,0.113l-0.113,0.114l-0.111,0.116l-0.112,0.116l-0.11,0.118l-0.11,0.119l-0.11,0.12l-0.108,0.122l-0.109,0.122l-0.107,0.125l-0.108,0.125l-0.106,0.126l-0.106,0.128l-0.105,0.129l-0.105,0.131l-0.104,0.132l-0.104,0.133l-0.103,0.135l-0.102,0.136l-0.102,0.138l-0.101,0.139l-0.101,0.141l-0.1,0.141l-0.1,0.144l-0.099,0.145l-0.098,0.147l-0.098,0.148l-0.097,0.15l-0.096,0.151l-0.096,0.153l-0.096,0.154l-0.094,0.157l-0.094,0.157l-0.094,0.16l-0.093,0.161l-0.092,0.163l-0.091,0.165l-0.091,0.166l-0.09,0.168l-0.09,0.171l-0.089,0.171l-0.088,0.174l-0.088,0.175l-0.087,0.178l-0.086,0.179l-0.085,0.181l-0.085,0.183l-0.084,0.185l-0.084,0.187l-0.082,0.188l-0.082,0.191l-0.081,0.193l-0.08,0.195l-0.08,0.196l-0.079,0.199l-0.078,0.201l-0.077,0.203l-0.076,0.205l-0.076,0.207l-0.074,0.209l-0.074,0.211l-0.073,0.213l-0.072,0.216l-0.071,0.218l-0.07,0.219l-0.069,0.222l-0.069,0.224l-0.067,0.227l-0.067,0.229l-0.065,0.23l-0.065,0.233l-0.064,0.236l-0.062,0.238l-0.062,0.239l-0.06,0.242l-0.06,0.245l-0.058,0.247l-0.058,0.249l-0.056,0.251l-0.055,0.254l-0.054,0.256l-0.053,0.259l-0.052,0.261l-0.051,0.263l-0.05,0.265l-0.048,0.268l-0.047,0.271l-0.047,0.273l-0.044,0.275l-0.044,0.278l-0.043,0.28l-0.041,0.282l-0.04,0.285l-0.038,0.288l-0.038,0.29l-0.036,0.293l-0.035,0.294l-0.033,0.298l-0.032,0.3l-0.031,0.302l-0.03,0.305l-0.028,0.308l-0.026,0.31l-0.026,0.312l-0.023,0.315l-0.023,0.318l-0.021,0.32l-0.02,0.323l-0.018,0.325l-0.016,0.328l-0.016,0.33l-0.013,0.334l-0.013,0.335l-0.01,0.338l-0.009,0.341l-0.008,0.344l-0.006,0.346l-0.005,0.348l-0.003,0.351l-0.001,0.354l0,0.357l0.002,0.359l0.003,0.362l0.006,0.364l0.006,0.367l0.009,0.37l0.01,0.372l0.011,0.375l0.014,0.378l0.015,0.38l0.017,0.383l0.018,0.377l0.006,0.123l0.008,0.127l0.01,0.14l0.011,0.151l0.013,0.164l0.015,0.174l0.017,0.184l0.019,0.195l0.021,0.204l0.022,0.213l0.025,0.223l0.026,0.232l0.029,0.24l0.03,0.248l0.032,0.257l0.034,0.264l0.035,0.273l0.038,0.279l0.039,0.287l0.041,0.295l0.043,0.301l0.045,0.309l0.047,0.315l0.048,0.322l0.05,0.329l0.052,0.335l0.054,0.341l0.055,0.348l0.057,0.353l0.059,0.36l0.061,0.366l0.062,0.371l0.064,0.378l0.066,0.382l0.068,0.388l0.069,0.394l0.07,0.399l0.073,0.404l0.074,0.409l0.076,0.414l0.078,0.42l0.079,0.424l0.08,0.428l0.083,0.434l0.084,0.438l0.085,0.442l0.088,0.447l0.089,0.451l0.09,0.455l0.092,0.46l0.094,0.463l0.095,0.467l0.096,0.472l0.099,0.475l0.1,0.478l0.101,0.482l0.103,0.486l0.104,0.49l0.106,0.492l0.108,0.496l0.109,0.499l0.11,0.502l0.112,0.506l0.114,0.508l0.114,0.511l0.117,0.513l0.118,0.517l0.119,0.519l0.121,0.521l0.122,0.525l0.123,0.526l0.126,0.529l0.126,0.53l0.128,0.533l0.129,0.535l0.131,0.537l0.132,0.539l0.133,0.541l0.135,0.542l0.136,0.544l0.138,0.545l0.139,0.547l0.14,0.548l0.142,0.549l0.142,0.551l0.145,0.552l0.145,0.553l0.147,0.554l0.148,0.554l0.15,0.556l0.15,0.556l0.152,0.557l0.154,0.557l0.154,0.558l0.156,0.558l0.157,0.558l0.158,0.559l0.159,0.559l0.161,0.559l0.162,0.559l0.163,0.558l0.164,0.559l0.166,0.558l0.166,0.558l0.168,0.557l0.169,0.557l0.17,0.556l0.171,0.556l0.172,0.554l0.174,0.554l0.174,0.553l0.176,0.552l0.177,0.55l0.177,0.55l0.179,0.548l0.18,0.547l0.181,0.545l0.182,0.544l0.183,0.542l0.184,0.54l0.185,0.539l0.185,0.536l0.187,0.535l0.188,0.533l0.189,0.53l0.19,0.528l0.19,0.526l0.192,0.523l0.192,0.521l0.193,0.518l0.194,0.516l0.195,0.513l0.196,0.51l0.197,0.506l0.197,0.504l0.198,0.501l0.199,0.497l0.2,0.494l0.2,0.491l0.201,0.487l0.202,0.483l0.202,0.48l0.203,0.476l0.203,0.472l0.205,0.468l0.204,0.464l0.206,0.46l0.205,0.455l0.207,0.452l0.206,0.446l0.207,0.442l0.208,0.438l0.208,0.432l0.208,0.428l0.208,0.422l0.209,0.418l0.209,0.412l0.209,0.407l0.209,0.402l0.212,0.402l0.102,0.191l0.104,0.194l0.105,0.193l0.104,0.192l0.105,0.189l0.104,0.189l0.105,0.188l0.104,0.186l0.105,0.184l0.104,0.182l0.104,0.181l0.105,0.18l0.104,0.178l0.104,0.177l0.104,0.174l0.104,0.174l0.104,0.171l0.103,0.17l0.104,0.168l0.103,0.167l0.103,0.165l0.103,0.164l0.103,0.161l0.103,0.16l0.102,0.158l0.102,0.156l0.102,0.154l0.102,0.153l0.102,0.151l0.101,0.15l0.101,0.147l0.101,0.145l0.1,0.144l0.101,0.142l0.099,0.14l0.1,0.138l0.099,0.136l0.099,0.134l0.098,0.132l0.098,0.13l0.097,0.129l0.097,0.126l0.097,0.124l0.097,0.123l0.095,0.12l0.095,0.118l0.094,0.116l0.095,0.115l0.093,0.112l0.093,0.11l0.092,0.108l0.091,0.106l0.091,0.103l0.091,0.102l0.089,0.099l0.089,0.098l0.088,0.095l0.087,0.093l0.086,0.091l0.085,0.089l0.085,0.087l0.084,0.084l0.082,0.082l0.082,0.08l0.08,0.078l0.081,0.076l0.078,0.073l0.077,0.071l0.076,0.069l0.076,0.067l0.074,0.065l0.072,0.062l0.072,0.06l0.07,0.058l0.069,0.057l0.067,0.053l0.066,0.052l0.065,0.05l0.062,0.047l0.062,0.045l0.061,0.044l0.057,0.041l0.057,0.039l0.055,0.037l0.054,0.036l0.052,0.033l0.049,0.031l0.049,0.03l0.046,0.028l0.044,0.025l0.043,0.025l0.041,0.022l0.038,0.021l0.037,0.019l0.035,0.018l0.033,0.016l0.031,0.014l0.029,0.014l0.027,0.012l0.025,0.01l0.023,0.01l0.021,0.008l0.018,0.006l0.003,-0.001l0.02,-0.009l0.024,-0.01l0.025,-0.012l0.028,-0.013l0.029,-0.015l0.032,-0.017l0.035,-0.018l0.037,-0.021l0.039,-0.023l0.042,-0.025l0.044,-0.026l0.046,-0.03l0.049,-0.031l0.051,-0.034l0.054,-0.037l0.055,-0.038l0.058,-0.042l0.059,-0.044l0.062,-0.047l0.065,-0.05l0.066,-0.053l0.069,-0.055l0.07,-0.059l0.073,-0.062l0.074,-0.064l0.077,-0.068l0.078,-0.071l0.08,-0.074l0.083,-0.078l0.083,-0.08l0.086,-0.084l0.087,-0.087l0.088,-0.09l0.091,-0.095l0.092,-0.097l0.094,-0.101l0.095,-0.104l0.097,-0.108l0.098,-0.112l0.099,-0.114l0.101,-0.118l0.116,-0.139l0.431,-0.516l0.444,-0.532l0.444,-0.529l0.442,-0.525l0.441,-0.521l0.439,-0.518l0.437,-0.515l0.435,-0.51l0.433,-0.506l0.431,-0.501l0.428,-0.497l0.425,-0.492l0.422,-0.488l0.419,-0.482l0.416,-0.478l0.412,-0.471l0.408,-0.467l0.406,-0.462l0.794,-0.902l0.778,-0.878l0.757,-0.852l0.737,-0.825l0.714,-0.795l0.689,-0.765l0.663,-0.734l0.635,-0.7l0.607,-0.665l0.576,-0.63l0.543,-0.592l0.51,-0.553l0.474,-0.514l0.437,-0.471l0.4,-0.431l0.673,-0.721l0.502,-0.535l0.315,-0.334l5.298,-5.593l6.476,4.257l0.136,0.087Zm42.407,-112.989l-0.874,0.419l0.32,-0.136l0.208,-0.083l0.175,-0.067l0.165,-0.062l0.167,-0.06l0.174,-0.061l0.072,-0.025l-0.407,0.075Z"/></g><path d="M485.696,130.735c-24.246,5.002 -25.913,-3.207 -25.913,-3.207c25.6,-37.987 36.302,-86.204 27.066,-98.005c-25.194,-32.191 -68.807,-16.967 -69.535,-16.572l-0.235,0.042c-4.79,-0.994 -10.151,-1.587 -16.176,-1.685c-10.971,-0.18 -19.293,2.876 -25.607,7.665c0,0 -77.802,-32.051 -74.184,40.31c0.77,15.395 22.065,116.481 47.464,85.948c9.284,-11.165 18.254,-20.605 18.254,-20.605c4.455,2.96 9.788,4.47 15.38,3.927l0.434,-0.368c-0.135,1.386 -0.073,2.742 0.174,4.347c-6.543,7.31 -4.621,8.594 -17.701,11.286c-13.236,2.728 -5.46,7.584 -0.384,8.854c6.155,1.539 20.393,3.719 30.013,-9.749l-0.384,1.537c2.564,2.053 4.365,13.357 4.063,23.604c-0.302,10.247 -0.503,17.282 1.517,22.776c2.02,5.495 4.033,17.859 21.228,14.174c14.369,-3.079 21.814,-11.058 22.85,-24.368c0.735,-9.462 2.398,-8.063 2.504,-16.523l1.334,-4.005c1.538,-12.827 0.244,-16.965 9.096,-15.04l2.151,0.189c6.516,0.296 15.043,-1.048 20.048,-3.374c10.776,-5.001 17.168,-13.352 6.542,-11.158l0.001,0Z" style="fill:#336791;fill-rule:nonzero;"/><path d="M395.787,138.088c-0.667,23.867 0.168,47.901 2.503,53.741c2.337,5.841 7.338,17.202 24.535,13.518c14.366,-3.08 19.594,-9.04 21.862,-22.197c1.671,-9.679 4.891,-36.562 5.305,-42.07" style="fill:none;stroke:#fff;stroke-width:6.01px;"/><path d="M375.176,18.44c0,0 -77.855,-31.821 -74.236,40.541c0.77,15.394 22.066,116.484 47.465,85.95c9.282,-11.166 17.676,-19.924 17.676,-19.924" style="fill:none;stroke:#fff;stroke-width:6.01px;"/><path d="M417.228,12.632c-2.694,0.845 43.308,-16.817 69.452,16.589c9.234,11.802 -1.467,60.02 -27.067,98.007" style="fill:none;stroke:#fff;stroke-width:6.01px;"/><path d="M459.613,127.228c0,0 1.668,8.211 25.915,3.207c10.623,-2.195 4.23,6.157 -6.545,11.16c-8.842,4.104 -28.667,5.156 -28.99,-0.515c-0.834,-14.631 10.434,-10.186 9.62,-13.852c-0.735,-3.302 -5.774,-6.543 -9.107,-14.623c-2.91,-7.054 -39.908,-61.143 10.261,-53.11c1.838,-0.38 -13.085,-47.72 -60.036,-48.489c-46.94,-0.77 -45.4,57.726 -45.4,57.726" style="fill:none;stroke:#fff;stroke-width:6.01px;stroke-linejoin:bevel;"/><path d="M382.647,132.231c-6.545,7.311 -4.62,8.594 -17.701,11.288c-13.236,2.728 -5.459,7.583 -0.384,8.852c6.154,1.54 20.392,3.72 30.012,-9.751c2.93,-4.101 -0.017,-10.645 -4.041,-12.314c-1.945,-0.805 -4.545,-1.814 -7.886,1.925l0,0Z" style="fill:none;stroke:#fff;stroke-width:6.01px;"/><path d="M382.218,132.104c-0.659,-4.298 1.412,-9.413 3.633,-15.397c3.336,-8.977 11.034,-17.957 4.876,-46.436c-4.59,-21.222 -35.377,-4.417 -35.397,-1.539c-0.019,2.877 1.393,14.586 -0.514,28.221c-2.488,17.792 11.321,32.84 27.223,31.3" style="fill:none;stroke:#fff;stroke-width:6.01px;"/><path d="M374.893,68.301c-0.139,0.983 1.799,3.605 4.326,3.956c2.523,0.351 4.682,-1.698 4.819,-2.68c0.137,-0.983 -1.799,-2.065 -4.327,-2.417c-2.524,-0.353 -4.684,0.16 -4.818,1.141l0,0Z" style="fill:#fff;fill-rule:nonzero;stroke:#fff;stroke-width:2px;stroke-linecap:butt;stroke-linejoin:miter;"/><path d="M451.736,66.297c0.137,0.983 -1.798,3.605 -4.326,3.956c-2.525,0.352 -4.684,-1.698 -4.823,-2.68c-0.133,-0.982 1.803,-2.065 4.328,-2.417c2.526,-0.352 4.685,0.161 4.821,1.141l0,0Z" style="fill:#fff;fill-rule:nonzero;stroke:#fff;stroke-width:1px;stroke-linecap:butt;stroke-linejoin:miter;"/><path d="M460.767,59.495c0.416,7.71 -1.661,12.961 -1.922,21.167c-0.388,11.929 5.687,25.582 -3.467,39.253" style="fill:none;stroke:#fff;stroke-width:6.01px;"/></g></g><g id="g3545"><path id="path2830" d="M13.65,316.18c-5.747,-0.081 -9.477,1.8 -11.221,5.639c-2.569,5.659 -0.278,9.936 7.895,14.709c4.59,2.681 6.626,4.99 6.626,7.52c0,5.219 -6.316,7.072 -12.828,3.768c-1.323,-0.671 -2.458,-1.224 -2.526,-1.225c-0.232,1.478 -0.128,5.028 -0.128,5.028c0,0 1.992,0.831 4.993,1.429c7.45,1.484 14.215,-2.01 14.853,-7.673c0.594,-5.268 -1.34,-8.066 -8.609,-12.437c-4.866,-2.927 -7.011,-5.053 -6.737,-7.571c0.755,-6.93 9.312,-5.956 14.028,-3.343l0.017,-4.662c0,0 -2.624,-1.13 -6.363,-1.182Zm28.633,0.025c-0.345,0.003 -0.701,0.015 -1.055,0.034c-7.06,0.384 -11.825,3.498 -14.631,9.57c-2.381,5.494 -2.117,12.682 0.042,18.188c2.493,5.398 6.547,8.249 13.279,9.34c1.418,0.23 2.388,1.029 5.138,4.253l3.395,3.981l6.176,0l-4.109,-4.134c-2.26,-2.271 -4.109,-4.258 -4.109,-4.415c0,-0.157 0.865,-0.542 1.923,-0.859c3.472,-1.04 6.329,-3.713 8.353,-7.809c1.62,-3.277 1.87,-4.288 2.084,-8.388c0.64,-12.22 -5.785,-19.856 -16.486,-19.761l0,0Zm63.152,0.043c-5.746,-0.081 -9.485,1.8 -11.229,5.64c-2.569,5.658 -0.269,9.935 7.903,14.708c4.591,2.681 6.618,4.982 6.618,7.511c0,5.219 -6.307,7.081 -12.819,3.777c-1.324,-0.671 -2.467,-1.224 -2.535,-1.225c-0.232,1.478 -0.119,5.028 -0.119,5.028c0,0 1.983,0.822 4.985,1.42c7.449,1.485 14.214,-2.01 14.852,-7.673c0.594,-5.268 -1.34,-8.065 -8.608,-12.437c-4.867,-2.926 -7.012,-5.044 -6.738,-7.562c0.756,-6.93 9.312,-5.956 14.028,-3.343l0.017,-4.662c0,0 -2.616,-1.13 -6.355,-1.182Zm-41.051,0.382l0,35.95l18.97,0l0,-1.744l0,-2.51l-14.479,0l0,-15.465l0,-16.231l-2.245,0l-2.246,0Zm-22.432,3.395c7.504,0 11.778,4.59 12.317,13.228c0.447,7.167 -1.958,12.583 -6.575,14.818c-2.988,1.447 -7.355,1.746 -10.208,0.698c-2.929,-1.076 -5.776,-4.125 -7.078,-7.58c-1.423,-3.775 -1.218,-10.751 0.408,-13.883c2.602,-5.012 6.072,-7.281 11.136,-7.281Zm151.896,6.286c-0.877,0.014 -1.8,0.12 -2.748,0.323c-5.983,1.57 -9.363,7.294 -9.136,13.194c0.004,4.951 0.963,7.397 3.343,9.979c4.872,4.017 9.301,4.319 15.278,2.186c1.031,-0.443 2.127,-0.936 2.127,-0.936l-0.009,-4.007l-2.118,1.115c-4.824,2.091 -8.463,2.096 -11.373,-0.383c-1.867,-1.904 -2.665,-4.136 -3.063,-6.737l18.051,0l0,-3.446c0,-6.982 -4.214,-11.385 -10.352,-11.288l0,0Zm-65.927,0.06c-0.877,0.013 -1.791,0.119 -2.74,0.323c-5.983,1.57 -9.371,7.285 -9.144,13.185c0.003,4.951 0.972,7.406 3.351,9.987c4.872,4.017 9.292,4.32 15.27,2.186c1.031,-0.442 2.127,-0.944 2.127,-0.944l0,-3.998l-2.127,1.114c-4.824,2.092 -8.463,2.097 -11.374,-0.382c-1.866,-1.904 -2.664,-4.145 -3.062,-6.746l18.06,0l0,-3.437c0,-6.982 -4.224,-11.386 -10.361,-11.288Zm92.238,0.187c-2.6,0 -4.583,1.043 -5.904,3.105l-1.046,1.641l-0.008,-2.118l-0.009,-2.126l-2.246,0l-2.245,0l0,25.469l4.491,0l0,-8.133c0,-7.441 0.095,-8.322 1.123,-10.361c1.414,-2.803 3.89,-4.187 6.269,-3.505l1.591,0.46l0,-2.221l0,-2.211l-2.016,0l0,0l0,0Zm-65.927,0.059c-2.6,0 -4.575,1.043 -5.895,3.105l-1.055,1.642l-0.009,-2.127l-0.008,-2.118l-2.246,0l-2.246,0l0,25.461l4.492,0l0,-8.133c0,-7.441 0.095,-8.322 1.123,-10.361c1.413,-2.803 3.89,-4.187 6.269,-3.505l1.6,0.46l0,-2.212l0,-2.212l-2.025,0l0,0Zm3.496,0.456c3.007,8.478 6.254,17.129 9.545,25.498c1.425,0.015 2.854,0.01 4.279,0.009l5.027,-12.607l5.113,-12.892l-4.432,0c0,0 -1.956,5.111 -3.999,10.842l-3.709,9.667l-3.564,-9.735l-3.624,-10.782l-4.636,0Zm35.856,3.092c1.341,0.005 2.665,0.432 3.786,1.293c2.271,1.744 2.654,6.039 2.654,6.039l-13.484,0c0,0 0.68,-4.366 3.148,-6.09c1.189,-0.831 2.555,-1.247 3.896,-1.242Zm-65.927,0.059c1.341,0.005 2.665,0.433 3.785,1.293c2.272,1.745 2.654,6.031 2.654,6.031l-13.474,0c0,0 0.68,-4.357 3.147,-6.082c1.189,-0.831 2.547,-1.247 3.888,-1.242Z" style="fill-rule:nonzero;"/><g id="g3073"><path id="path26" d="M79.917,303.601c0,-0.188 -0.052,-0.321 -0.156,-0.405c-0.118,-0.098 -0.321,-0.144 -0.601,-0.144l-0.404,0l0,1.109l0.488,0c0.448,0 0.673,-0.188 0.673,-0.56m0.626,2.31l-0.551,0l-0.355,-0.78c-0.179,-0.39 -0.373,-0.586 -0.581,-0.586l-0.3,0l0,1.366l-0.456,0l0,-3.252l0.918,0c0.404,0 0.71,0.093 0.921,0.275c0.176,0.155 0.266,0.36 0.266,0.612c0,0.222 -0.072,0.413 -0.217,0.569c-0.144,0.158 -0.349,0.262 -0.609,0.317l0,0.014c0.182,0.04 0.361,0.24 0.54,0.598l0.424,0.866l0,0.001Zm1.014,-1.591c0,-0.644 -0.219,-1.179 -0.655,-1.609c-0.436,-0.43 -0.968,-0.644 -1.597,-0.644c-0.65,0 -1.187,0.217 -1.614,0.65c-0.431,0.433 -0.644,0.967 -0.644,1.603c0,0.646 0.222,1.189 0.664,1.622c0.436,0.428 0.967,0.641 1.594,0.641c0.623,0 1.155,-0.216 1.594,-0.649c0.439,-0.433 0.658,-0.97 0.658,-1.614m0.306,-0.014c0,0.716 -0.248,1.316 -0.742,1.804c-0.494,0.488 -1.103,0.731 -1.828,0.731c-0.73,0 -1.34,-0.237 -1.822,-0.71c-0.482,-0.477 -0.725,-1.077 -0.725,-1.805c0,-0.713 0.246,-1.314 0.737,-1.805c0.491,-0.488 1.1,-0.733 1.83,-0.733c0.717,0 1.317,0.234 1.802,0.701c0.5,0.48 0.748,1.086 0.748,1.817" style="fill:#231f1f;fill-rule:nonzero;"/><path id="path28" d="M15.732,312.772l-1.488,0l0,-8.533c0,-0.673 0.041,-1.496 0.122,-2.463l-0.035,0c-0.142,0.566 -0.269,0.976 -0.381,1.23l-4.332,9.766l-0.727,0l-4.343,-9.694c-0.124,-0.272 -0.251,-0.708 -0.381,-1.302l-0.035,0c0.046,0.508 0.072,1.334 0.072,2.48l0,8.516l-1.438,0l0,-12.709l1.969,0l3.899,8.862c0.294,0.667 0.488,1.176 0.577,1.525l0.061,0c0.254,-0.696 0.456,-1.216 0.612,-1.559l3.979,-8.828l1.868,0" style="fill:#231f1f;fill-rule:nonzero;"/><path id="path30" d="M20.323,303.699l0,9.073l-1.453,0l0,-9.073l1.453,0Zm0.248,-3.252c0,0.266 -0.095,0.488 -0.28,0.673c-0.185,0.182 -0.413,0.274 -0.679,0.274c-0.259,0 -0.482,-0.089 -0.669,-0.265c-0.185,-0.176 -0.278,-0.404 -0.278,-0.682c0,-0.268 0.093,-0.491 0.278,-0.67c0.187,-0.182 0.41,-0.271 0.669,-0.271c0.266,0 0.494,0.089 0.679,0.271c0.185,0.179 0.28,0.402 0.28,0.67" style="fill:#231f1f;fill-rule:nonzero;"/><path id="path32" d="M29.378,312.356c-0.696,0.424 -1.527,0.638 -2.489,0.638c-1.299,0 -2.347,-0.43 -3.147,-1.294c-0.78,-0.84 -1.17,-1.92 -1.17,-3.242c0,-1.49 0.428,-2.692 1.282,-3.607c0.852,-0.915 2.001,-1.375 3.442,-1.375c0.792,0 1.49,0.154 2.1,0.462l0,1.488c-0.673,-0.471 -1.395,-0.708 -2.163,-0.708c-0.921,0 -1.672,0.321 -2.258,0.965c-0.61,0.661 -0.913,1.542 -0.913,2.642c0,1.057 0.277,1.891 0.838,2.506c0.557,0.615 1.305,0.921 2.246,0.921c0.791,0 1.536,-0.26 2.232,-0.779" style="fill:#231f1f;fill-rule:nonzero;"/><path id="path34" d="M36.308,305.169c-0.254,-0.197 -0.623,-0.292 -1.108,-0.292c-0.589,0 -1.086,0.266 -1.487,0.797c-0.457,0.595 -0.682,1.421 -0.682,2.472l0,4.626l-1.455,0l0,-9.076l1.455,0l0,1.871l0.035,0c0.211,-0.661 0.54,-1.172 0.984,-1.533c0.413,-0.329 0.875,-0.497 1.389,-0.497c0.384,0 0.676,0.043 0.87,0.124" style="fill:#231f1f;fill-rule:nonzero;"/><path id="path36" d="M44.405,308.252c0,-1.163 -0.263,-2.05 -0.788,-2.659c-0.508,-0.583 -1.219,-0.878 -2.137,-0.878c-0.904,0 -1.626,0.298 -2.168,0.887c-0.575,0.632 -0.861,1.527 -0.861,2.685c0,1.089 0.274,1.938 0.823,2.547c0.552,0.612 1.285,0.918 2.206,0.918c0.959,0 1.686,-0.309 2.189,-0.93c0.491,-0.603 0.736,-1.458 0.736,-2.57m1.49,-0.052c0,1.447 -0.41,2.608 -1.224,3.483c-0.814,0.872 -1.915,1.311 -3.295,1.311c-1.366,0 -2.446,-0.439 -3.245,-1.311c-0.78,-0.846 -1.17,-1.961 -1.17,-3.341c0,-1.58 0.445,-2.798 1.331,-3.661c0.82,-0.803 1.92,-1.205 3.295,-1.205c1.354,0 2.411,0.419 3.168,1.259c0.759,0.838 1.14,1.993 1.14,3.465" style="fill:#231f1f;fill-rule:nonzero;"/><path id="path38" d="M53.1,310.343c0,0.745 -0.277,1.363 -0.835,1.851c-0.606,0.534 -1.438,0.8 -2.489,0.8c-0.863,0 -1.611,-0.185 -2.249,-0.552l0,-1.559c0.707,0.58 1.493,0.869 2.356,0.869c1.152,0 1.727,-0.421 1.727,-1.267c0,-0.356 -0.127,-0.647 -0.381,-0.878c-0.254,-0.231 -0.748,-0.506 -1.487,-0.832c-0.763,-0.332 -1.303,-0.673 -1.623,-1.028c-0.384,-0.419 -0.575,-0.967 -0.575,-1.64c0,-0.757 0.297,-1.383 0.895,-1.883c0.595,-0.499 1.363,-0.748 2.304,-0.748c0.72,0 1.366,0.142 1.941,0.425l0,1.461c-0.598,-0.43 -1.282,-0.647 -2.056,-0.647c-0.485,0 -0.872,0.119 -1.161,0.355c-0.291,0.237 -0.436,0.54 -0.436,0.913c0,0.401 0.121,0.716 0.364,0.938c0.219,0.208 0.673,0.459 1.366,0.754c0.774,0.326 1.331,0.658 1.675,1.002c0.441,0.439 0.664,0.993 0.664,1.666" style="fill:#231f1f;fill-rule:nonzero;"/><path id="path40" d="M61.979,308.252c0,-1.163 -0.263,-2.05 -0.788,-2.659c-0.508,-0.583 -1.222,-0.878 -2.137,-0.878c-0.904,0 -1.626,0.298 -2.171,0.887c-0.572,0.632 -0.858,1.527 -0.858,2.685c0,1.089 0.274,1.938 0.823,2.547c0.551,0.612 1.285,0.918 2.206,0.918c0.959,0 1.686,-0.309 2.189,-0.93c0.491,-0.603 0.736,-1.458 0.736,-2.57m1.49,-0.052c0,1.447 -0.41,2.608 -1.224,3.483c-0.815,0.872 -1.915,1.311 -3.298,1.311c-1.363,0 -2.443,-0.439 -3.243,-1.311c-0.779,-0.846 -1.169,-1.961 -1.169,-3.341c0,-1.58 0.445,-2.798 1.331,-3.661c0.82,-0.803 1.917,-1.205 3.295,-1.205c1.354,0 2.408,0.419 3.168,1.259c0.759,0.838 1.14,1.993 1.14,3.465" style="fill:#231f1f;fill-rule:nonzero;"/><path id="path42" d="M69.874,300.615c-0.283,-0.159 -0.607,-0.24 -0.968,-0.24c-1.013,0 -1.521,0.641 -1.521,1.923l0,1.401l2.125,0l0,1.233l-2.125,0l0,7.84l-1.456,0l0,-7.84l-1.542,0l0,-1.233l1.542,0l0,-1.47c0,-0.999 0.312,-1.782 0.93,-2.351c0.534,-0.488 1.187,-0.733 1.961,-0.733c0.447,0 0.8,0.052 1.054,0.159" style="fill:#231f1f;fill-rule:nonzero;"/><path id="path44" d="M75.609,312.682c-0.344,0.196 -0.797,0.292 -1.366,0.292c-1.583,0 -2.374,-0.89 -2.374,-2.674l0,-5.371l-1.559,0l0,-1.233l1.559,0l0,-2.215c0.459,-0.147 0.944,-0.303 1.453,-0.468l0,2.683l2.287,0l0,1.233l-2.287,0l0,5.122c0,0.61 0.103,1.04 0.311,1.297c0.205,0.257 0.552,0.387 1.037,0.387c0.358,0 0.673,-0.098 0.939,-0.295" style="fill:#231f1f;fill-rule:nonzero;"/></g><path id="path3151" d="M226.685,328.126c0,-0.187 -0.052,-0.32 -0.156,-0.404c-0.118,-0.098 -0.32,-0.144 -0.6,-0.144l-0.405,0l0,1.108l0.489,0c0.447,0 0.672,-0.187 0.672,-0.56m0.627,2.31l-0.552,0l-0.355,-0.779c-0.179,-0.39 -0.372,-0.587 -0.58,-0.587l-0.301,0l0,1.366l-0.456,0l0,-3.251l0.919,0c0.404,0 0.71,0.092 0.921,0.274c0.176,0.156 0.265,0.361 0.265,0.612c0,0.223 -0.072,0.413 -0.216,0.569c-0.145,0.159 -0.35,0.263 -0.61,0.318l0,0.014c0.182,0.04 0.361,0.239 0.54,0.597l0.425,0.867l0,0Zm1.013,-1.591c0,-0.644 -0.219,-1.178 -0.655,-1.608c-0.436,-0.43 -0.967,-0.644 -1.597,-0.644c-0.65,0 -1.187,0.216 -1.614,0.65c-0.43,0.433 -0.644,0.967 -0.644,1.602c0,0.647 0.222,1.19 0.664,1.623c0.436,0.427 0.968,0.641 1.594,0.641c0.624,0 1.155,-0.216 1.594,-0.65c0.439,-0.433 0.658,-0.97 0.658,-1.614m0.307,-0.014c0,0.716 -0.249,1.317 -0.743,1.805c-0.493,0.488 -1.103,0.731 -1.827,0.731c-0.731,0 -1.34,-0.237 -1.822,-0.711c-0.483,-0.476 -0.725,-1.077 -0.725,-1.804c0,-0.714 0.245,-1.314 0.736,-1.805c0.491,-0.488 1.1,-0.734 1.831,-0.734c0.716,0 1.317,0.234 1.802,0.702c0.499,0.479 0.748,1.086 0.748,1.816" style="fill:#231f1f;fill-rule:nonzero;"/><g id="Ebene-1"><path id="path3639" d="M155.515,236.411l-25.115,8.19l-21.834,9.644l-6.117,1.617c-1.55,1.474 -3.196,2.971 -4.949,4.496c-1.926,1.676 -3.738,3.196 -5.115,4.294c-1.534,1.222 -3.815,3.485 -4.981,4.937c-1.735,2.159 -3.091,4.461 -3.674,6.232c-1.049,3.185 -0.538,6.412 1.485,9.389c2.585,3.804 7.731,7.669 13.715,10.3c3.053,1.342 8.204,3.072 12.067,4.047c6.437,1.626 18.879,3.392 25.73,3.654c1.39,0.053 3.24,0.048 3.325,-0.008c0.15,-0.099 1.217,-2.119 2.454,-4.647c4.211,-8.602 7.258,-16.666 8.898,-23.554c0.992,-4.17 1.766,-9.731 2.268,-16.324c0.14,-1.847 0.191,-8.007 0.083,-10.101c-0.176,-3.407 -0.476,-6.184 -0.957,-8.909c-0.071,-0.399 -0.097,-0.751 -0.06,-0.782c0.07,-0.06 0.307,-0.136 3.392,-1.033l-0.615,-1.442l0,0Zm-5.74,3.368c0.228,0 0.835,5.821 0.993,9.513c0.034,0.785 0.027,1.287 -0.02,1.287c-0.15,0 -3.216,-1.801 -5.39,-3.166c-1.898,-1.192 -5.5,-3.585 -6.073,-4.035c-0.18,-0.142 -0.161,-0.149 1.39,-0.683c2.641,-0.909 8.901,-2.916 9.1,-2.916l0,0Zm-12.794,4.199c0.163,-0.001 0.605,0.243 1.649,0.897c3.917,2.454 9.222,5.407 11.495,6.399c0.704,0.308 0.785,0.189 -0.838,1.291c-3.461,2.35 -7.763,4.66 -13.044,7.006c-0.921,0.409 -1.701,0.743 -1.732,0.743c-0.031,0 0.071,-0.467 0.226,-1.04c1.28,-4.733 2.002,-9.511 2.022,-13.342c0.01,-1.895 0.011,-1.905 0.191,-1.95c0.008,-0.002 0.021,-0.004 0.031,-0.004l0,0Zm-2.633,1.005c0.113,0.113 0.031,4.36 -0.107,5.517c-0.332,2.775 -0.876,5.342 -1.744,8.261c-0.207,0.698 -0.402,1.299 -0.433,1.335c-0.075,0.087 -2.672,-2.443 -3.535,-3.444c-1.475,-1.711 -2.641,-3.41 -3.491,-5.084c-0.432,-0.851 -1.121,-2.531 -1.057,-2.578c0.292,-0.212 10.296,-4.079 10.367,-4.007l0,0Zm-12.404,4.889c0.023,0.002 0.041,0.009 0.051,0.02c0.038,0.041 0.17,0.35 0.294,0.687c0.605,1.643 1.965,4.083 3.146,5.644c1.289,1.704 2.971,3.52 4.377,4.727c0.452,0.387 0.873,0.749 0.934,0.802c0.12,0.107 0.16,0.089 -2.936,1.263c-3.588,1.361 -7.496,2.724 -11.983,4.175c-1.71,0.552 -3.157,1.019 -3.213,1.04c-0.171,0.064 -0.119,-0.042 0.381,-0.822c2.229,-3.481 5.607,-10.289 7.495,-15.105c0.328,-0.835 0.639,-1.672 0.695,-1.859c0.082,-0.275 0.163,-0.368 0.421,-0.485c0.143,-0.064 0.268,-0.094 0.338,-0.087l0,0Zm-3.801,1.569c0.05,0.044 -0.912,2.077 -1.859,3.924c-1.837,3.583 -3.862,7.109 -6.55,11.412c-0.464,0.742 -0.891,1.421 -0.949,1.505c-0.096,0.139 -0.135,0.093 -0.429,-0.493c-0.644,-1.28 -1.183,-2.895 -1.462,-4.397c-0.276,-1.486 -0.229,-4.059 0.103,-5.656c0.247,-1.185 0.236,-1.159 0.795,-1.445c2.414,-1.238 10.272,-4.919 10.351,-4.85l0,0Zm32.74,1.331l0,0.806c-0.004,4.235 -0.456,10.033 -1.112,14.263c-0.115,0.742 -0.215,1.355 -0.222,1.362c-0.008,0.008 -0.543,-0.149 -1.188,-0.349c-2.85,-0.885 -5.939,-2.206 -8.726,-3.734c-1.846,-1.011 -4.516,-2.65 -4.441,-2.724c0.02,-0.021 0.807,-0.437 1.748,-0.926c3.727,-1.935 7.287,-4.02 10.382,-6.089c1.162,-0.776 2.899,-2.032 3.285,-2.371l0.274,-0.238l0,0Zm-47.075,5.612c0.077,-0.004 0.058,0.143 -0.064,0.842c-0.084,0.486 -0.179,1.404 -0.214,2.038c-0.153,2.775 0.297,4.823 1.676,7.626c0.383,0.779 0.683,1.428 0.667,1.441c-0.138,0.116 -12.691,3.79 -16.638,4.87c-1.17,0.32 -2.193,0.603 -2.276,0.628c-0.137,0.041 -0.149,0.011 -0.099,-0.31c0.432,-2.785 2.556,-6.44 5.525,-9.509c1.973,-2.04 3.553,-3.248 6.24,-4.782c1.928,-1.101 4.922,-2.753 5.143,-2.836c0.015,-0.006 0.029,-0.008 0.04,-0.008l0,0Zm29.611,5.302c0.012,-0.014 0.477,0.235 1.032,0.556c4.055,2.346 9.714,4.545 14.538,5.649l0.437,0.099l-0.6,0.334c-2.52,1.398 -10.819,4.851 -19.296,8.031c-1.237,0.464 -2.445,0.919 -2.681,1.013c-0.236,0.093 -0.429,0.157 -0.429,0.139c0,-0.019 0.35,-0.692 0.779,-1.494c2.379,-4.449 4.755,-9.856 5.973,-13.608c0.125,-0.382 0.235,-0.704 0.247,-0.719l0,0Zm-3.019,0.989c0.013,0.013 -0.135,0.412 -0.33,0.882c-1.654,4 -3.821,8.364 -6.585,13.266c-0.703,1.248 -1.296,2.267 -1.319,2.264c-0.022,-0.002 -0.594,-0.34 -1.271,-0.754c-4.025,-2.465 -7.587,-5.498 -9.926,-8.449l-0.333,-0.417l1.735,-0.476c6.192,-1.696 11.442,-3.51 16.663,-5.76c0.739,-0.318 1.353,-0.569 1.366,-0.556l0,0Zm18.752,6.546c0.008,0.002 0.011,0.008 0.011,0.016c0,0.422 -0.957,4.327 -1.755,7.154c-0.669,2.37 -1.231,4.225 -2.272,7.51c-0.46,1.452 -0.854,2.636 -0.878,2.63c-0.023,-0.006 -0.134,-0.027 -0.246,-0.048c-5.64,-1.02 -10.691,-2.444 -15.423,-4.345c-1.324,-0.532 -3.236,-1.379 -3.337,-1.478c-0.034,-0.033 1.109,-0.572 2.538,-1.195c8.643,-3.771 17.597,-8.065 20.658,-9.906c0.369,-0.222 0.641,-0.351 0.703,-0.338l0.001,0Zm-43.287,1.482c0.047,0.044 -2.371,3.504 -5.747,8.23c-1.174,1.642 -2.552,3.578 -3.062,4.301c-0.511,0.724 -1.283,1.869 -1.72,2.546l-0.799,1.231l-0.85,-0.714c-0.997,-0.838 -2.743,-2.616 -3.535,-3.603c-1.629,-2.031 -2.733,-4.169 -3.169,-6.133c-0.201,-0.906 -0.207,-1.368 -0.016,-1.426c0.276,-0.083 5.346,-1.276 10.101,-2.379c2.641,-0.612 5.694,-1.329 6.788,-1.593c1.093,-0.263 1.999,-0.47 2.009,-0.46l0,0Zm2.431,0.929l0.612,0.683c2.735,3.047 5.516,5.32 8.909,7.281c0.599,0.346 1.056,0.647 1.017,0.671c-0.142,0.087 -11.734,4.209 -17.095,6.077c-3.024,1.054 -5.508,1.913 -5.521,1.911c-0.014,-0.002 -0.185,-0.114 -0.378,-0.251l-0.349,-0.25l0.548,-0.79c1.779,-2.577 4.014,-5.411 8.905,-11.296l3.352,-4.036l0,0Zm15.149,10.828c0.014,-0.017 0.861,0.283 1.887,0.667c2.472,0.924 4.413,1.527 7.038,2.184c3.225,0.808 7.885,1.615 10.645,1.847c0.424,0.036 0.64,0.085 0.572,0.128c-0.128,0.081 -2.923,1.014 -4.977,1.66c-3.261,1.025 -13.227,3.969 -21.353,6.307c-1.508,0.434 -2.796,0.8 -2.864,0.814c-0.182,0.038 -0.818,-0.129 -0.818,-0.214c0,-0.041 0.456,-0.617 1.009,-1.279c2.731,-3.267 5.444,-6.916 7.709,-10.367c0.62,-0.944 1.139,-1.731 1.152,-1.747l0,0Zm-3.356,0.095c0.024,0.024 -1.322,2.18 -3.69,5.91c-1,1.575 -2.134,3.368 -2.522,3.984c-0.389,0.616 -0.958,1.553 -1.263,2.085l-0.556,0.969l-0.282,-0.075c-0.681,-0.184 -5.481,-1.88 -6.749,-2.383c-1.571,-0.624 -3.209,-1.377 -4.417,-2.03c-1.509,-0.815 -3.422,-2.026 -3.272,-2.073c0.043,-0.014 2.64,-0.725 5.767,-1.577c8.319,-2.268 12.921,-3.57 15.939,-4.512c0.564,-0.176 1.034,-0.309 1.045,-0.298l0,0Zm23.629,5.541c0.018,-0.004 0.026,-0.004 0.028,0c0.078,0.197 -3.001,8.727 -4.127,11.431c-0.252,0.606 -0.346,0.752 -0.477,0.747c-0.318,-0.014 -4.784,-0.639 -7.487,-1.049c-4.731,-0.718 -12.656,-2.102 -14.656,-2.558l-0.465,-0.103l2.836,-0.639c6.079,-1.37 8.998,-2.105 11.959,-3.011c3.736,-1.144 7.434,-2.569 11.17,-4.306c0.59,-0.274 1.093,-0.485 1.219,-0.512l0,0Z" style="fill:url(#_Linear3);fill-rule:nonzero;"/><path id="path3667" d="M129.632,177.882c-0.42,-0.049 -7.16,2.379 -11.491,4.138c-5.868,2.384 -10.424,4.669 -13.234,6.642c-1.047,0.734 -2.362,2.055 -2.554,2.561c-0.072,0.19 -0.106,0.412 -0.108,0.64l2.55,2.407l6.05,1.93l14.41,2.574l16.471,2.832l0.167,-1.414c-0.05,-0.008 -0.097,-0.016 -0.147,-0.024l-2.168,-0.341l-0.441,-0.775c-2.239,-3.95 -4.713,-8.838 -6.149,-12.146c-1.112,-2.562 -2.18,-5.513 -2.772,-7.65c-0.352,-1.269 -0.389,-1.351 -0.584,-1.374l0,0Zm-0.318,0.977c0.017,-0.003 0.025,-0.003 0.028,0c0.013,0.016 0.09,0.546 0.167,1.175c0.324,2.654 0.918,5.227 1.847,7.996c0.7,2.087 0.71,1.964 -0.123,1.732c-1.937,-0.541 -10.615,-2.03 -16.893,-2.9c-1.012,-0.14 -1.854,-0.264 -1.867,-0.278c-0.08,-0.08 4.527,-2.493 6.57,-3.443c2.619,-1.219 9.752,-4.189 10.271,-4.282l0,0Zm-18.291,8.496l0.735,0.25c4.031,1.372 14.133,3.302 19.717,3.765c0.63,0.053 1.159,0.109 1.176,0.124c0.016,0.014 -0.52,0.3 -1.188,0.635c-2.694,1.349 -5.659,2.994 -7.71,4.278c-0.602,0.377 -1.154,0.681 -1.227,0.675c-0.073,-0.006 -0.47,-0.07 -0.886,-0.139l-0.758,-0.123l-1.907,-1.851c-3.347,-3.239 -5.96,-5.745 -6.971,-6.693l-0.981,-0.921Zm-0.746,0.596l2.669,3.332c1.469,1.833 2.942,3.652 3.269,4.043c0.327,0.392 0.58,0.724 0.564,0.735c-0.076,0.056 -3.869,-0.683 -5.879,-1.144c-2.063,-0.473 -2.917,-0.699 -4.194,-1.108l-1.041,-0.333l0.004,-0.259c0.013,-1.28 1.627,-3.168 4.365,-5.1l0.243,-0.166l0,0Zm22.731,4.539c0.08,0.007 0.165,0.169 0.401,0.688c0.648,1.418 2.663,5.262 3.15,6.005c0.16,0.245 0.415,0.261 -2.26,-0.171c-6.428,-1.038 -8.508,-1.386 -8.508,-1.426c0,-0.024 0.193,-0.15 0.429,-0.282c1.991,-1.107 3.999,-2.5 5.787,-4.007c0.428,-0.361 0.838,-0.704 0.914,-0.767c0.031,-0.026 0.06,-0.042 0.087,-0.04l0,0Z" style="fill:url(#_Linear4);fill-rule:nonzero;"/><path id="path2851" d="M102.467,190.967c0,0 -0.418,0.661 -0.024,1.644c0.243,0.609 0.974,1.339 1.779,2.114c0,0 8.436,8.228 9.469,9.421c4.674,5.394 6.704,10.705 6.892,18.037c0.12,4.704 -0.788,8.84 -2.991,13.647c-3.95,8.616 -12.273,18.117 -25.127,28.681l1.887,-0.623c1.213,-0.909 2.859,-1.879 6.744,-4.004c8.947,-4.893 18.993,-9.395 31.335,-14.033c17.756,-6.673 46.964,-14.502 63.583,-17.047l1.731,-0.266l-0.266,-0.417c-1.519,-2.362 -2.557,-3.819 -3.805,-5.363c-3.645,-4.507 -8.058,-8.185 -13.465,-11.212c-7.43,-4.16 -17.067,-7.393 -29.249,-9.815c-2.303,-0.458 -7.347,-1.323 -11.451,-1.962c-8.694,-1.355 -14.302,-2.27 -20.495,-3.348c-2.221,-0.386 -5.537,-0.943 -7.738,-1.418c-1.147,-0.248 -3.326,-0.764 -5.02,-1.347c-1.399,-0.551 -3.368,-1.083 -3.789,-2.689l0,0Zm4.889,4.747c0.012,-0.011 0.329,0.087 0.715,0.218c0.712,0.242 1.651,0.525 2.745,0.83c0.765,0.214 1.608,0.439 2.502,0.667c1.141,0.292 2.085,0.543 2.097,0.556c0.126,0.143 2.043,6.26 2.697,8.608c0.25,0.896 0.439,1.642 0.421,1.66c-0.018,0.018 -0.23,-0.312 -0.469,-0.731c-2.217,-3.9 -5.729,-7.866 -9.79,-11.058c-0.507,-0.398 -0.918,-0.735 -0.918,-0.75l0,0Zm9.346,2.581c0.098,-0.006 0.519,0.064 1.021,0.175c3.234,0.715 9.008,1.83 12.722,2.455c0.619,0.104 1.128,0.216 1.128,0.25c0,0.034 -0.231,0.18 -0.512,0.322c-0.624,0.313 -3.145,1.822 -3.988,2.387c-2.106,1.409 -3.999,2.918 -5.378,4.289c-0.554,0.552 -1.018,1.001 -1.033,1.001c-0.015,0 -0.112,-0.321 -0.214,-0.715c-0.69,-2.642 -2.115,-6.544 -3.393,-9.29c-0.205,-0.442 -0.373,-0.832 -0.373,-0.866c0,-0.004 0.006,-0.007 0.02,-0.008l0,0Zm16.44,3.126c0.108,0.036 0.313,0.675 0.675,2.109c0.694,2.747 1.017,5.833 0.91,8.687c-0.03,0.794 -0.081,1.532 -0.112,1.64l-0.059,0.199l-0.981,-0.318c-2.023,-0.646 -5.327,-1.619 -8.159,-2.403c-1.608,-0.445 -2.927,-0.842 -2.927,-0.882c0,-0.117 2.347,-2.464 3.356,-3.356c1.928,-1.704 7.113,-5.737 7.297,-5.676l0,0Zm1.307,0.187c0.058,-0.055 7.856,1.296 11.399,1.974c2.641,0.506 6.462,1.306 6.693,1.402c0.111,0.046 -0.285,0.262 -1.553,0.834c-5.019,2.263 -8.737,4.283 -12.432,6.756c-0.974,0.652 -1.783,1.184 -1.8,1.184c-0.017,0 -0.031,-0.544 -0.031,-1.207c-0.003,-3.604 -0.723,-7.242 -2.042,-10.316c-0.142,-0.33 -0.249,-0.614 -0.234,-0.627Zm20.161,3.988c0.06,0.06 -0.195,1.598 -0.417,2.506c-0.69,2.827 -2.518,7.023 -4.774,10.967c-0.398,0.694 -0.753,1.274 -0.795,1.286c-0.041,0.013 -0.555,-0.257 -1.14,-0.599c-2.206,-1.291 -4.704,-2.511 -7.447,-3.643c-0.765,-0.315 -1.416,-0.596 -1.45,-0.627c-0.125,-0.118 5.971,-4.154 9.203,-6.093c2.585,-1.551 6.748,-3.87 6.82,-3.797l0,0Zm1.442,0.226c0.175,0 3.634,0.943 5.422,1.478c4.454,1.332 9.591,3.209 12.924,4.722l1.387,0.628l-0.978,0.226c-8.155,1.874 -15.145,4.036 -21.877,6.768c-0.559,0.228 -1.046,0.414 -1.08,0.414c-0.035,0 0.144,-0.433 0.393,-0.962c2.024,-4.299 3.331,-8.811 3.67,-12.642c0.031,-0.349 0.094,-0.632 0.139,-0.632l0,0Zm-34.373,7.9c0.055,-0.054 2.687,0.562 4.123,0.965c2.157,0.606 6.749,2.143 6.752,2.26c0,0.023 -0.506,0.465 -1.124,0.982c-2.483,2.076 -4.877,4.248 -7.745,7.018c-0.851,0.821 -1.573,1.489 -1.609,1.489c-0.036,0 -0.052,-0.119 -0.032,-0.266c0.432,-3.188 0.339,-7.283 -0.262,-11.451c-0.076,-0.528 -0.122,-0.978 -0.103,-0.997l0,0Zm55.424,0.052c0.04,0.039 -1.221,2.01 -2.006,3.134c-1.145,1.64 -2.804,3.793 -6.585,8.547c-1.986,2.498 -4.226,5.324 -4.981,6.28c-0.755,0.956 -1.388,1.74 -1.406,1.74c-0.018,0 -0.262,-0.343 -0.54,-0.759c-2.132,-3.184 -4.661,-5.981 -7.678,-8.492c-0.563,-0.468 -1.198,-0.982 -1.41,-1.14c-0.212,-0.157 -0.384,-0.303 -0.385,-0.326c-0.002,-0.051 3.22,-1.433 5.68,-2.434c4.281,-1.743 10.134,-3.829 14.513,-5.172c2.31,-0.708 4.763,-1.413 4.798,-1.378Zm1.454,0.381c0.069,-0.014 0.529,0.209 1.08,0.525c4.613,2.642 9.132,6.035 12.687,9.524c1.011,0.993 3.484,3.566 3.447,3.587c-0.009,0.005 -0.863,0.073 -1.898,0.151c-7.993,0.601 -18.212,2.301 -28.05,4.667c-0.668,0.16 -1.246,0.294 -1.283,0.294c-0.037,0 0.694,-0.734 1.624,-1.629c5.778,-5.554 8.414,-9.061 11.515,-15.327c0.462,-0.934 0.854,-1.739 0.87,-1.788c0.001,-0.003 0.003,-0.003 0.008,-0.004l0,0Zm-42.246,4.33c0.264,0.059 2.728,1.205 4.588,2.137c1.701,0.851 4.276,2.222 4.405,2.343c0.016,0.015 -0.891,0.489 -2.018,1.053c-3.566,1.784 -6.621,3.469 -9.811,5.417c-0.909,0.556 -1.671,1.013 -1.696,1.013c-0.079,0 -0.048,-0.069 0.461,-1.001c1.699,-3.111 3.069,-6.825 3.857,-10.454c0.07,-0.324 0.155,-0.522 0.214,-0.508l0,0Zm-2.482,0.444c0.051,0.052 -0.588,2.4 -0.993,3.655c-0.777,2.405 -2.09,5.429 -3.352,7.705c-0.297,0.535 -0.751,1.317 -1.009,1.74l-0.469,0.767l-1.064,-1.029c-1.237,-1.199 -2.245,-1.944 -3.531,-2.606c-0.506,-0.26 -0.917,-0.501 -0.918,-0.536c-0.002,-0.156 3.236,-3.102 5.736,-5.215c1.789,-1.513 5.554,-4.526 5.6,-4.481l0,0Zm15.085,6.205l0.926,0.599c2.123,1.379 4.637,3.233 6.554,4.83c1.074,0.895 3.161,2.765 3.59,3.218l0.231,0.242l-1.538,0.429c-8.693,2.412 -15.41,4.559 -23.247,7.439c-0.87,0.32 -1.621,0.584 -1.673,0.584c-0.108,0 -0.215,0.1 1.74,-1.7c5.013,-4.613 9.441,-9.696 12.75,-14.64l0.667,-1.001l0,0Zm-3.964,0.993c0.046,0.045 -2.569,3.707 -4.122,5.775c-1.859,2.474 -5.17,6.61 -7.448,9.302c-0.952,1.125 -1.767,2.058 -1.811,2.073c-0.049,0.017 -0.079,-0.259 -0.08,-0.695c-0.004,-2.297 -0.585,-4.752 -1.612,-6.831c-0.434,-0.878 -0.507,-1.091 -0.417,-1.172c0.357,-0.324 5.887,-3.477 9.374,-5.346c2.394,-1.284 6.071,-3.152 6.116,-3.106l0,0Zm-23.974,5.874c0.047,0 0.491,0.223 0.985,0.497c1.21,0.67 2.298,1.408 3.257,2.208c0.037,0.031 -0.46,0.437 -1.104,0.902c-1.799,1.298 -4.539,3.365 -6.125,4.627c-1.674,1.331 -1.73,1.372 -1.541,1.084c1.253,-1.917 1.884,-3.002 2.542,-4.389c0.585,-1.232 1.168,-2.695 1.585,-3.968c0.173,-0.528 0.353,-0.961 0.401,-0.961l0,0Zm6.387,5.013c0.086,-0.011 0.209,0.15 0.723,0.917c1.082,1.617 1.91,3.774 2.125,5.529l0.043,0.378l-2.593,1.004c-4.656,1.807 -8.942,3.588 -11.837,4.914c-0.81,0.371 -2.24,1.054 -3.173,1.521c-0.934,0.467 -1.696,0.834 -1.696,0.814c0,-0.02 0.586,-0.461 1.302,-0.981c5.682,-4.125 10.581,-8.64 14.272,-13.155c0.394,-0.483 0.753,-0.901 0.798,-0.929c0.012,-0.008 0.023,-0.011 0.036,-0.012l0,0Zm-2.948,0.731c0.076,0.075 -2.096,2.53 -3.558,4.023c-3.661,3.736 -7.29,6.665 -11.785,9.517c-0.563,0.357 -1.077,0.679 -1.144,0.719c-0.123,0.072 0.04,-0.114 2.014,-2.264c1.244,-1.355 2.196,-2.48 3.277,-3.885c0.711,-0.925 0.847,-1.054 1.89,-1.807c2.809,-2.028 9.232,-6.378 9.306,-6.303l0,0Z" style="fill:url(#_Radial5);fill-rule:nonzero;"/></g><g id="g3525"><path id="path168" d="M146.398,300.065l-1.053,0l0,3.27l-0.43,0l0,-3.27l-1.056,0l0,-0.386l2.539,0" style="fill:#231f1f;fill-rule:nonzero;"/><path id="path170" d="M150.705,303.335l-0.429,0l0,-2.458c0,-0.192 0.013,-0.429 0.037,-0.707l-0.013,0c-0.04,0.163 -0.074,0.281 -0.108,0.355l-1.248,2.81l-0.21,0l-1.25,-2.792c-0.034,-0.077 -0.071,-0.203 -0.108,-0.373l-0.01,0c0.013,0.145 0.019,0.383 0.019,0.713l0,2.452l-0.414,0l0,-3.659l0.568,0l1.121,2.553c0.087,0.192 0.142,0.337 0.167,0.439l0.018,0c0.075,-0.201 0.133,-0.352 0.176,-0.451l1.146,-2.541l0.537,0" style="fill:#231f1f;fill-rule:nonzero;"/></g></g><defs><linearGradient id="_Linear3" x1="0" y1="0" x2="1" y2="0" gradientUnits="userSpaceOnUse" gradientTransform="matrix(49.2749,-29.1157,29.1157,49.2749,106.855,298.945)"><stop offset="0%" style="stop-color:#909ca9;stop-opacity:1"/><stop offset="100%" style="stop-color:#ededee;stop-opacity:1"/></linearGradient><linearGradient id="_Linear4" x1="0" y1="0" x2="1" y2="0" gradientUnits="userSpaceOnUse" gradientTransform="matrix(39.6479,0,0,39.6479,102.245,189.744)"><stop offset="0%" style="stop-color:#939fab;stop-opacity:1"/><stop offset="100%" style="stop-color:#dcdee1;stop-opacity:1"/></linearGradient><radialGradient id="_Radial5" cx="0" cy="0" r="1" gradientUnits="userSpaceOnUse" gradientTransform="matrix(-50.5774,-7.64824,15.2751,-101.013,139.646,223.372)"><stop offset="0%" style="stop-color:#ee352c;stop-opacity:1"/><stop offset="100%" style="stop-color:#a91d22;stop-opacity:1"/></radialGradient></defs></svg>