<?xml version="1.0" encoding="UTF-8" standalone="no"?>
<!DOCTYPE svg PUBLIC "-//W3C//DTD SVG 1.1//EN" "http://www.w3.org/Graphics/SVG/1.1/DTD/svg11.dtd">
<svg width="100%" height="100%" viewBox="0 0 2167 767" version="1.1" xmlns="http://www.w3.org/2000/svg" xmlns:xlink="http://www.w3.org/1999/xlink" xml:space="preserve" style="fill-rule:evenodd;clip-rule:evenodd;stroke-linejoin:round;stroke-miterlimit:1.41421;">
    <g id="Layer-1" transform="matrix(4.16667,0,0,4.16667,0,0)">
        <g transform="matrix(1,0,0,1,-320.645,-547.215)">
            <path d="M369.466,547.228L369.466,563.031L360.718,563.031C360.718,563.031 352.816,561.902 352.816,569.522L352.816,581.939L369.466,581.939L367.491,599.091L352.816,599.091L352.816,647.127L333.627,647.127L333.627,598.872L320.645,598.872L320.645,581.939L334.191,581.939L334.191,567.546C334.191,567.546 332.498,559.645 339.553,553.154C346.608,546.664 355.92,547.228 355.92,547.228L369.466,547.228Z" style="fill:rgb(58,104,167);fill-rule:nonzero;"/>
        </g>
        <g transform="matrix(1,0,0,1,-320.645,-547.215)">
            <path d="M414.702,621.305C414.702,627.851 409.138,634.005 402.275,634.005C395.411,634.005 389.847,627.851 389.847,621.305L389.847,608.889C389.847,602.343 395.411,596.19 402.275,596.19C409.138,596.19 414.702,602.343 414.702,608.889L414.702,621.305ZM415.735,582.221L415.735,590.832C410.839,584.389 403.992,580.386 396.416,580.386C381.532,580.386 369.466,593.509 369.466,614.885C369.466,636.121 381.532,649.385 396.416,649.385C404.064,649.385 410.968,645.306 415.874,638.756L415.747,647.127L434.231,647.127L434.231,582.221L415.735,582.221Z" style="fill:rgb(58,104,167);fill-rule:nonzero;"/>
        </g>
        <g transform="matrix(1,0,0,1,-320.645,-547.215)">
            <path d="M586.253,608.466C586.253,601.92 591.817,595.766 598.68,595.766C605.544,595.766 611.108,601.92 611.108,608.466L611.108,620.882C611.108,627.428 605.544,633.581 598.68,633.581C591.817,633.581 586.253,627.428 586.253,620.882L586.253,608.466ZM585.22,647.55L585.22,638.939C590.116,645.382 596.963,649.385 604.539,649.385C619.423,649.385 631.489,636.262 631.489,614.885C631.489,593.65 619.423,580.386 604.539,580.386C596.891,580.386 589.987,584.465 585.081,591.015L585.208,548.15L565.986,550.313L565.986,647.254L585.22,647.55Z" style="fill:rgb(58,104,167);fill-rule:nonzero;"/>
        </g>
        <g transform="matrix(1,0,0,1,-320.645,-547.215)">
            <path d="M475.996,633.643C475.996,633.643 461.18,634.49 461.18,615.3L461.18,614.251C461.18,595.061 475.996,595.908 475.996,595.908C486.014,595.766 489.542,599.294 489.542,599.294L494.198,585.325C486.155,579.399 461.886,578.411 451.021,588.429C441.62,597.098 441.622,611.145 441.793,614.775C441.622,618.405 441.62,632.453 451.021,641.121C461.886,651.139 486.155,650.152 494.198,644.226L489.542,630.257C489.542,630.257 486.014,633.784 475.996,633.643" style="fill:rgb(58,104,167);fill-rule:nonzero;"/>
        </g>
        <g transform="matrix(1,0,0,1,-320.645,-547.215)">
            <path d="M516.351,608.606C516.351,608.606 515.363,594.214 528.345,594.214C541.326,594.214 540.338,608.606 540.338,608.606L516.351,608.606ZM557.976,621.728C557.976,621.728 565.736,581.091 528.627,580.871C491.517,580.65 496.879,617.636 496.879,617.636C497.726,640.071 508.026,646.562 525.664,648.679C543.301,650.795 556.706,644.022 556.706,644.022L552.614,630.9C552.614,630.9 538.363,635.274 527.075,634.286C515.787,633.299 516.633,621.728 516.633,621.728L557.976,621.728Z" style="fill:rgb(58,104,167);fill-rule:nonzero;"/>
        </g>
        <g transform="matrix(1,0,0,1,-320.645,-547.215)">
            <path d="M682.314,620.962C682.314,627.508 676.605,633.662 669.562,633.662C662.52,633.662 656.81,627.508 656.81,620.962L656.81,608.546C656.81,602 662.52,595.847 669.562,595.847C676.605,595.847 682.314,602 682.314,608.546L682.314,620.962ZM669.727,581.272C645.57,581.272 637.44,595.847 637.44,615.328C637.44,635.996 647.916,649.385 669.727,649.385C687.559,649.385 702.015,637.404 702.015,615.328C702.015,596.52 692.79,581.272 669.727,581.272" style="fill:rgb(58,104,167);fill-rule:nonzero;"/>
        </g>
        <g transform="matrix(1,0,0,1,-320.645,-547.215)">
            <path d="M753.612,620.962C753.612,627.508 747.903,633.662 740.86,633.662C733.818,633.662 728.108,627.508 728.108,620.962L728.108,608.546C728.108,602 733.818,595.847 740.86,595.847C747.903,595.847 753.612,602 753.612,608.546L753.612,620.962ZM741.025,581.272C716.868,581.272 708.738,595.847 708.738,615.328C708.738,635.996 719.214,649.385 741.025,649.385C758.857,649.385 773.313,637.404 773.313,615.328C773.313,596.52 764.088,581.272 741.025,581.272" style="fill:rgb(58,104,167);fill-rule:nonzero;"/>
        </g>
        <g transform="matrix(1,0,0,1,-320.645,-547.215)">
            <path d="M841.015,647.41L819.907,614.732L840.077,582.053L819.438,582.053L799.737,611.306L799.737,547.812L780.349,549.844L780.349,647.41L799.737,647.41L799.737,614.166L821.002,647.41L841.015,647.41Z" style="fill:rgb(58,104,167);fill-rule:nonzero;"/>
        </g>
        <g transform="matrix(3.68931,0,0,0.393312,-127.14,-77.6028)">
            <g transform="matrix(0.0650528,0,0,0.610202,32.22,197.306)">
                <path d="M443.632,638.075L410.819,555.002L377.877,638.075L443.632,638.075ZM472.538,711.773L451.575,658.388L369.934,658.388L348.71,711.773L323.319,711.773L399.752,519.065L426.835,519.065L502.095,711.773L472.538,711.773Z" style="fill:rgb(58,104,167);fill-rule:nonzero;"/>
            </g>
            <g transform="matrix(0.0650528,0,0,0.610202,32.22,197.306)">
                <path d="M621.496,711.773L621.496,685.211C611.08,705.089 595.368,715.028 574.361,715.028C557.347,715.028 543.957,708.822 534.192,696.408C524.426,683.995 519.543,667.025 519.543,645.497C519.543,621.973 525.077,603.049 536.145,588.726C547.213,574.403 561.774,567.242 579.83,567.242C596.583,567.242 610.472,573.665 621.496,586.513L621.496,506.174L647.278,506.174L647.278,711.773L621.496,711.773ZM621.496,604.091C608.215,592.372 595.628,586.513 583.736,586.513C559.17,586.513 546.887,605.306 546.887,642.893C546.887,675.966 557.825,692.502 579.7,692.502C593.936,692.502 607.868,684.733 621.496,669.195L621.496,604.091Z" style="fill:rgb(58,104,167);fill-rule:nonzero;"/>
            </g>
            <g transform="matrix(0.0650528,0,0,0.610202,32.22,197.306)">
                <path d="M736.08,715.028C724.361,715.028 710.125,712.294 693.371,706.825L693.371,683.257C710.125,691.591 724.708,695.757 737.121,695.757C744.5,695.757 750.62,693.761 755.481,689.768C760.342,685.775 762.773,680.783 762.773,674.794C762.773,666.026 755.958,658.778 742.33,653.049L727.356,646.669C705.22,637.467 694.153,624.23 694.153,606.955C694.153,594.629 698.515,584.928 707.239,577.854C715.963,570.779 727.92,567.242 743.111,567.242C751.01,567.242 760.776,568.327 772.408,570.497L777.746,571.539L777.746,592.893C763.424,588.639 752.052,586.513 743.632,586.513C727.139,586.513 718.892,592.502 718.892,604.481C718.892,612.207 725.142,618.717 737.642,624.013L750.012,629.221C763.988,635.124 773.884,641.352 779.7,647.906C785.516,654.46 788.424,662.641 788.424,672.45C788.424,684.863 783.519,695.063 773.71,703.049C763.901,711.035 751.358,715.028 736.08,715.028Z" style="fill:rgb(58,104,167);fill-rule:nonzero;"/>
            </g>
            <g transform="matrix(0.0650528,0,0,0.610202,32.22,197.306)">
                <rect x="917.981" y="519.065" width="27.344" height="192.708" style="fill:rgb(58,104,167);fill-rule:nonzero;"/>
            </g>
            <g transform="matrix(0.0650528,0,0,0.610202,32.22,197.306)">
                <path d="M995.715,711.773L995.715,570.367L1021.37,570.367L1021.37,596.929C1034.91,577.138 1051.49,567.242 1071.11,567.242C1083.35,567.242 1093.11,571.126 1100.4,578.895C1107.69,586.664 1111.34,597.103 1111.34,610.211L1111.34,711.773L1085.69,711.773L1085.69,618.544C1085.69,608.04 1084.15,600.553 1081.07,596.083C1077.99,591.612 1072.88,589.377 1065.77,589.377C1050.06,589.377 1035.26,599.664 1021.37,620.237L1021.37,711.773L995.715,711.773Z" style="fill:rgb(58,104,167);fill-rule:nonzero;"/>
            </g>
            <g transform="matrix(0.0650528,0,0,0.610202,32.22,197.306)">
                <path d="M1198.71,715.028C1186.99,715.028 1172.76,712.294 1156,706.825L1156,683.257C1172.76,691.591 1187.34,695.757 1199.75,695.757C1207.13,695.757 1213.25,693.761 1218.11,689.768C1222.97,685.775 1225.4,680.783 1225.4,674.794C1225.4,666.026 1218.59,658.778 1204.96,653.049L1189.99,646.669C1167.85,637.467 1156.78,624.23 1156.78,606.955C1156.78,594.629 1161.14,584.928 1169.87,577.854C1178.59,570.779 1190.55,567.242 1205.74,567.242C1213.64,567.242 1223.41,568.327 1235.04,570.497L1240.38,571.539L1240.38,592.893C1226.05,588.639 1214.68,586.513 1206.26,586.513C1189.77,586.513 1181.52,592.502 1181.52,604.481C1181.52,612.207 1187.77,618.717 1200.27,624.013L1212.64,629.221C1226.62,635.124 1236.51,641.352 1242.33,647.906C1248.15,654.46 1251.05,662.641 1251.05,672.45C1251.05,684.863 1246.15,695.063 1236.34,703.049C1226.53,711.035 1213.99,715.028 1198.71,715.028Z" style="fill:rgb(58,104,167);fill-rule:nonzero;"/>
            </g>
            <g transform="matrix(0.0650528,0,0,0.610202,32.22,197.306)">
                <path d="M1297.15,711.773L1297.15,570.367L1322.8,570.367L1322.8,711.773L1297.15,711.773ZM1297.15,544.716L1297.15,519.065L1322.8,519.065L1322.8,544.716L1297.15,544.716Z" style="fill:rgb(58,104,167);fill-rule:nonzero;"/>
            </g>
            <g transform="matrix(0.0650528,0,0,0.610202,32.22,197.306)">
                <path d="M1374.75,758.778L1377.75,736.513C1392.59,743.544 1407.22,747.059 1421.63,747.059C1450.53,747.059 1464.99,731.738 1464.99,701.096L1464.99,678.83C1455.52,698.622 1439.99,708.518 1418.37,708.518C1401.44,708.518 1387.99,702.355 1378.01,690.028C1368.02,677.702 1363.03,661.079 1363.03,640.158C1363.03,618.631 1368.72,601.096 1380.09,587.554C1391.46,574.013 1406.17,567.242 1424.23,567.242C1440.03,567.242 1453.62,573.665 1464.99,586.513L1464.99,570.367L1490.77,570.367L1490.77,673.231C1490.77,695.367 1489.62,711.751 1487.32,722.385C1485.02,733.019 1480.7,741.721 1474.36,748.492C1463.16,760.384 1445.76,766.33 1422.15,766.33C1405.65,766.33 1389.86,763.813 1374.75,758.778ZM1464.99,662.815L1464.99,604.091C1453.7,592.372 1441.42,586.513 1428.14,586.513C1416.33,586.513 1407.09,591.243 1400.4,600.705C1393.72,610.167 1390.38,623.145 1390.38,639.638C1390.38,670.627 1401.27,686.122 1423.06,686.122C1437.9,686.122 1451.88,678.353 1464.99,662.815Z" style="fill:rgb(58,104,167);fill-rule:nonzero;"/>
            </g>
            <g transform="matrix(0.0650528,0,0,0.610202,32.22,197.306)">
                <path d="M1540.51,711.773L1540.51,506.174L1566.16,506.174L1566.16,596.929C1579.7,577.138 1596.28,567.242 1615.9,567.242C1628.14,567.242 1637.9,571.126 1645.19,578.895C1652.49,586.664 1656.13,597.103 1656.13,610.211L1656.13,711.773L1630.48,711.773L1630.48,618.544C1630.48,608.04 1628.94,600.553 1625.86,596.083C1622.78,591.612 1617.68,589.377 1610.56,589.377C1594.85,589.377 1580.05,599.664 1566.16,620.237L1566.16,711.773L1540.51,711.773Z" style="fill:rgb(58,104,167);fill-rule:nonzero;"/>
            </g>
            <g transform="matrix(0.0650528,0,0,0.610202,32.22,197.306)">
                <path d="M1748.45,715.028C1735.43,715.028 1725.27,711.296 1717.98,703.83C1710.69,696.365 1707.04,685.992 1707.04,672.711L1707.04,589.638L1689.34,589.638L1689.34,570.367L1707.04,570.367L1707.04,544.716L1732.69,542.242L1732.69,570.367L1769.67,570.367L1769.67,589.638L1732.69,589.638L1732.69,668.023C1732.69,686.513 1740.68,695.757 1756.65,695.757C1760.04,695.757 1764.16,695.193 1769.02,694.065L1769.02,711.773C1761.12,713.943 1754.27,715.028 1748.45,715.028Z" style="fill:rgb(58,104,167);fill-rule:nonzero;"/>
            </g>
            <g transform="matrix(0.0650528,0,0,0.610202,32.22,197.306)">
                <path d="M1843.24,715.028C1831.52,715.028 1817.29,712.294 1800.53,706.825L1800.53,683.257C1817.29,691.591 1831.87,695.757 1844.28,695.757C1851.66,695.757 1857.78,693.761 1862.64,689.768C1867.5,685.775 1869.93,680.783 1869.93,674.794C1869.93,666.026 1863.12,658.778 1849.49,653.049L1834.52,646.669C1812.38,637.467 1801.31,624.23 1801.31,606.955C1801.31,594.629 1805.68,584.928 1814.4,577.854C1823.12,570.779 1835.08,567.242 1850.27,567.242C1858.17,567.242 1867.94,568.327 1879.57,570.497L1884.91,571.539L1884.91,592.893C1870.59,588.639 1859.21,586.513 1850.79,586.513C1834.3,586.513 1826.05,592.502 1826.05,604.481C1826.05,612.207 1832.3,618.717 1844.8,624.013L1857.17,629.221C1871.15,635.124 1881.05,641.352 1886.86,647.906C1892.68,654.46 1895.59,662.641 1895.59,672.45C1895.59,684.863 1890.68,695.063 1880.87,703.049C1871.06,711.035 1858.52,715.028 1843.24,715.028Z" style="fill:rgb(58,104,167);fill-rule:nonzero;"/>
            </g>
        </g>
    </g>
</svg>
