<?xml version="1.0" encoding="UTF-8"?>
<svg width="2177px" height="431px" viewBox="0 0 2177 431" version="1.1" xmlns="http://www.w3.org/2000/svg" xmlns:xlink="http://www.w3.org/1999/xlink">
    <g id="Page-1" stroke="none" stroke-width="1" fill="none" fill-rule="evenodd">
        <g id="ads_insights" fill="#3A68A7">
            <g id="Layer-1" transform="translate(0.833330, 0.833330)">
                <g id="Group" transform="translate(0.479168, 0.270836)">
                    <path d="M206.108498,0.95000076 L206.108498,66.7958868 L169.658469,66.7958868 C169.658469,66.7958868 136.733443,62.0917163 136.733443,93.8417417 L136.733443,145.579283 L206.108498,145.579283 L197.879325,217.046007 L136.733443,217.046007 L136.733443,417.196167 L56.7792121,417.196167 L56.7792121,216.133506 L2.68750215,216.133506 L2.68750215,145.579283 L59.129214,145.579283 L59.129214,85.6084018 C59.129214,85.6084018 52.0750417,52.6875421 81.4708985,25.6416872 C110.866755,-1.40000112 149.666786,0.95000076 149.666786,0.95000076 L206.108498,0.95000076 Z" id="Shape"></path>
                </g>
                <g id="Group" transform="translate(204.645998, 137.770946)">
                    <path d="M190.425152,172.104304 C190.425152,199.379326 167.2418,225.021013 138.645944,225.021013 C110.045921,225.021013 86.8625695,199.379326 86.8625695,172.104304 L86.8625695,120.37093 C86.8625695,93.0959078 110.045921,67.4583873 138.645944,67.4583873 C167.2418,67.4583873 190.425152,93.0959078 190.425152,120.37093 L190.425152,172.104304 Z M194.729322,9.25417407 L194.729322,45.1333694 C174.329306,18.2875146 145.800117,1.60833462 114.233425,1.60833462 C52.2167084,1.60833462 1.94166822,56.287545 1.94166822,145.354283 C1.94166822,233.837687 52.2167084,289.104398 114.233425,289.104398 C146.100117,289.104398 174.866807,272.108551 195.30849,244.816863 L194.779322,279.696057 L271.796051,279.696057 L271.796051,9.25417407 L194.729322,9.25417407 Z" id="Shape"></path>
                </g>
                <g id="Group" transform="translate(1025.313318, 4.437506)">
                    <path d="M84.5542375,251.941868 C84.5542375,224.666846 107.737589,199.025159 136.333446,199.025159 C164.933468,199.025159 188.11682,224.666846 188.11682,251.941868 L188.11682,303.675243 C188.11682,330.950265 164.933468,356.587785 136.333446,356.587785 C107.737589,356.587785 84.5542375,330.950265 84.5542375,303.675243 L84.5542375,251.941868 Z M80.2500674,414.791998 L80.2500674,378.912803 C100.650084,405.758658 129.179273,422.437838 160.745965,422.437838 C222.762681,422.437838 273.037722,367.758628 273.037722,278.687723 C273.037722,190.208485 222.762681,134.941775 160.745965,134.941775 C128.879273,134.941775 100.112583,151.937622 79.6709003,179.22931 L80.2000674,0.6250005 L0.10833662,9.63750771 L0.10833662,413.558664 L80.2500674,414.791998 Z" id="Shape"></path>
                </g>
                <g id="Group" transform="translate(504.646238, 137.770946)">
                    <path d="M145.816783,223.512679 C145.816783,223.512679 84.0834006,227.041848 84.0834006,147.083451 L84.0834006,142.712614 C84.0834006,62.7542169 145.816783,66.2833864 145.816783,66.2833864 C187.558483,65.6917192 202.258495,80.391731 202.258495,80.391731 L221.658511,22.1875178 C188.145984,-2.50416867 87.0250696,-6.62083863 41.7542001,35.1208614 C2.5833354,71.2417237 2.59166874,129.770937 3.30416931,144.895949 C2.59166874,160.020961 2.5833354,218.554342 41.7542001,254.671037 C87.0250696,296.412737 188.145984,292.300234 221.658511,267.608547 L202.258495,209.404334 C202.258495,209.404334 187.558483,224.100179 145.816783,223.512679" id="Shape"></path>
                </g>
                <g id="Group" transform="translate(733.813088, 137.770946)">
                    <path d="M84.7959012,119.191762 C84.7959012,119.191762 80.6792312,59.2250474 134.770941,59.2250474 C188.858484,59.2250474 184.741814,119.191762 184.741814,119.191762 L84.7959012,119.191762 Z M258.23354,173.866806 C258.23354,173.866806 290.566899,4.54583697 135.945942,3.62916957 C-18.6791816,2.7083355 3.66250293,156.816792 3.66250293,156.816792 C7.19167242,250.296034 50.1083734,277.341889 123.600099,286.162729 C197.087658,294.979403 252.941869,266.758547 252.941869,266.758547 L235.891855,212.083503 C235.891855,212.083503 176.512641,230.308518 129.47927,226.191848 C82.4458993,222.079344 85.9709021,173.866806 85.9709021,173.866806 L258.23354,173.866806 Z" id="Shape"></path>
                </g>
                <g id="Group" transform="translate(1321.313558, 141.937616)">
                    <path d="M188.808484,166.508467 C188.808484,193.783488 165.020965,219.425176 135.675109,219.425176 C106.333418,219.425176 82.5417327,193.783488 82.5417327,166.508467 L82.5417327,114.775092 C82.5417327,87.50007 106.333418,61.8625495 135.675109,61.8625495 C165.020965,61.8625495 188.808484,87.50007 188.808484,114.775092 L188.808484,166.508467 Z M136.362609,1.13333424 C35.7083619,1.13333424 1.8333348,61.8625495 1.8333348,143.033448 C1.8333348,229.150183 45.4833697,284.937728 136.362609,284.937728 C210.662669,284.937728 270.89605,235.016855 270.89605,143.033448 C270.89605,64.6667184 232.458519,1.13333424 136.362609,1.13333424 L136.362609,1.13333424 Z" id="Shape"></path>
                </g>
                <g id="Group" transform="translate(1617.147128, 141.937616)">
                    <path d="M190.050152,166.508467 C190.050152,193.783488 166.262633,219.425176 136.916776,219.425176 C107.575086,219.425176 83.7834004,193.783488 83.7834004,166.508467 L83.7834004,114.775092 C83.7834004,87.50007 107.575086,61.8625495 136.916776,61.8625495 C166.262633,61.8625495 190.050152,87.50007 190.050152,114.775092 L190.050152,166.508467 Z M137.604277,1.13333424 C36.9500296,1.13333424 3.07500246,61.8625495 3.07500246,143.033448 C3.07500246,229.150183 46.7250374,284.937728 137.604277,284.937728 C211.904336,284.937728 272.137718,235.016855 272.137718,143.033448 C272.137718,64.6667184 233.700187,1.13333424 137.604277,1.13333424 L137.604277,1.13333424 Z" id="Shape"></path>
                </g>
                <g id="Group" transform="translate(1917.147368, 0.270836)">
                    <polygon id="Shape" points="254.22937 418.375335 166.2793 282.216892 250.321034 146.054284 164.325131 146.054284 82.2375658 267.941881 82.2375658 3.38333604 1.45416783 11.8500095 1.45416783 418.375335 82.2375658 418.375335 82.2375658 279.858557 170.841803 418.375335"></polygon>
                </g>
            </g>
        </g>
    </g>
</svg>
