<?xml version="1.0" encoding="UTF-8" standalone="no"?>
<svg
   xmlns:dc="http://purl.org/dc/elements/1.1/"
   xmlns:cc="http://creativecommons.org/ns#"
   xmlns:rdf="http://www.w3.org/1999/02/22-rdf-syntax-ns#"
   xmlns:svg="http://www.w3.org/2000/svg"
   xmlns="http://www.w3.org/2000/svg"
   xmlns:sodipodi="http://sodipodi.sourceforge.net/DTD/sodipodi-0.dtd"
   xmlns:inkscape="http://www.inkscape.org/namespaces/inkscape"
   version="1.0"
   width="1600.000000pt"
   height="450.000000pt"
   viewBox="0 0 1600.000000 450.000000"
   preserveAspectRatio="xMidYMid meet"
   id="svg2"
   inkscape:version="0.91 r13725"
   sodipodi:docname="flashtalking.svg">
  <metadata
     id="metadata44">
    <rdf:RDF>
      <cc:Work
         rdf:about="">
        <dc:format>image/svg+xml</dc:format>
        <dc:type
           rdf:resource="http://purl.org/dc/dcmitype/StillImage" />
      </cc:Work>
    </rdf:RDF>
  </metadata>
  <defs
     id="defs42" />
  <sodipodi:namedview
     pagecolor="#ffffff"
     bordercolor="#666666"
     borderopacity="1"
     objecttolerance="10"
     gridtolerance="10"
     guidetolerance="10"
     inkscape:pageopacity="0"
     inkscape:pageshadow="2"
     inkscape:window-width="1920"
     inkscape:window-height="1056"
     id="namedview40"
     showgrid="false"
     inkscape:zoom="0.149"
     inkscape:cx="1000"
     inkscape:cy="281.25"
     inkscape:window-x="0"
     inkscape:window-y="24"
     inkscape:window-maximized="1"
     inkscape:current-layer="svg2" />
  <g
     transform="matrix(0.18700837,0,0,-0.18700837,-685.69399,661.8762)"
     id="g4"
     style="fill:#000000;stroke:none">
    <path
       d="m 10544,2804 c -140,-84 -157,-120 -162,-341 l -4,-163 156,0 156,0 0,135 0,135 -70,0 c -57,0 -70,3 -70,15 0,36 33,77 86,106 30,17 54,34 52,38 -21,46 -64,111 -73,111 -6,0 -38,-16 -71,-36 z"
       id="path6"
       inkscape:connector-curvature="0" />
    <path
       d="m 10921,2813 c -81,-44 -117,-78 -148,-140 -27,-55 -28,-66 -31,-215 l -4,-158 155,0 156,0 3,108 c 5,171 9,162 -73,162 -62,0 -69,2 -69,20 0,27 55,87 102,111 21,11 38,22 38,25 0,13 -62,114 -69,114 -5,0 -31,-12 -60,-27 z"
       id="path8"
       inkscape:connector-curvature="0" />
    <path
       d="m 4443,2700 c -78,-16 -123,-71 -123,-150 0,-40 -2,-43 -52,-81 -23,-17 -28,-28 -28,-65 0,-44 0,-44 35,-44 l 35,0 2,-197 3,-198 90,0 90,0 3,197 2,197 58,3 57,3 0,65 0,65 -58,3 c -53,3 -57,5 -57,27 0,31 31,48 74,40 33,-7 34,-6 51,44 9,29 15,58 12,65 -5,13 -38,21 -122,31 -16,2 -49,0 -72,-5 z"
       id="path10"
       inkscape:connector-curvature="0" />
    <path
       d="m 8801,2693 c -25,-22 -34,-66 -19,-98 19,-41 85,-57 145,-34 36,13 43,25 43,76 0,32 -5,46 -22,57 -31,22 -120,21 -147,-1 z"
       id="path12"
       inkscape:connector-curvature="0" />
    <path
       d="m 4690,2330 0,-371 88,3 87,3 3,368 2,367 -90,0 -90,0 0,-370 z"
       id="path14"
       inkscape:connector-curvature="0" />
    <path
       d="m 6122,2333 3,-368 90,0 90,0 5,167 c 4,149 7,170 26,195 15,20 31,29 57,31 55,5 61,-15 67,-218 l 5,-175 90,0 90,0 0,210 c 0,226 -3,243 -57,291 -64,58 -210,58 -256,-1 -11,-14 -22,-25 -25,-25 -2,0 -2,59 1,130 l 5,130 -97,0 -96,0 2,-367 z"
       id="path16"
       inkscape:connector-curvature="0" />
    <path
       d="m 7825,2687 c -3,-6 -4,-172 -3,-367 l 3,-355 93,-3 92,-3 0,371 0,370 -90,0 c -64,0 -92,-4 -95,-13 z"
       id="path18"
       inkscape:connector-curvature="0" />
    <path
       d="m 8142,2333 3,-368 90,0 90,0 3,74 c 2,61 7,77 25,92 12,10 25,18 28,19 4,0 28,-35 55,-77 73,-119 63,-113 176,-113 57,0 98,4 98,10 0,5 -43,75 -95,156 l -96,146 78,94 c 123,150 123,134 1,134 l -105,0 -69,-88 c -38,-48 -76,-98 -84,-111 -14,-20 -15,-2 -11,188 l 3,211 -96,0 -96,0 2,-367 z"
       id="path20"
       inkscape:connector-curvature="0" />
    <path
       d="m 6863,2598 c -6,-7 -19,-33 -30,-58 -13,-29 -34,-55 -62,-74 -38,-26 -42,-33 -39,-65 3,-33 6,-36 36,-39 l 32,-3 0,-140 c 0,-152 8,-186 55,-229 23,-22 37,-25 114,-28 62,-3 98,1 124,12 l 37,15 0,65 c 0,37 -3,66 -6,66 -3,0 -25,-5 -49,-11 -31,-8 -49,-8 -64,0 -20,11 -21,20 -21,131 l 0,120 65,0 65,0 0,70 0,70 -64,0 -65,0 -3,53 -3,52 -56,3 c -37,2 -59,-2 -66,-10 z"
       id="path22"
       inkscape:connector-curvature="0" />
    <path
       d="m 5150,2504 c -54,-11 -120,-36 -120,-47 0,-6 10,-35 22,-65 16,-39 26,-51 37,-47 48,19 136,36 157,31 24,-6 53,-50 41,-62 -3,-3 -48,-9 -101,-14 -156,-13 -216,-62 -216,-175 0,-62 25,-113 69,-142 27,-18 48,-23 103,-23 72,0 109,13 142,49 25,28 29,27 49,-14 l 17,-36 63,3 62,3 0,211 0,211 -27,40 c -37,56 -85,76 -188,79 -47,1 -96,0 -110,-2 z m 140,-338 c 0,-25 -7,-40 -26,-55 -49,-38 -104,-20 -104,33 0,29 41,56 87,56 42,0 43,-1 43,-34 z"
       id="path24"
       inkscape:connector-curvature="0" />
    <path
       d="m 5710,2495 c -83,-26 -128,-100 -110,-180 14,-62 37,-84 138,-133 53,-26 98,-53 100,-59 2,-7 -8,-18 -23,-25 -22,-10 -41,-9 -103,5 -126,29 -117,32 -117,-48 l 0,-69 45,-14 c 29,-8 83,-12 156,-10 102,3 114,5 153,31 54,36 75,83 69,155 -7,84 -29,105 -183,174 -64,30 -73,58 -18,58 22,0 63,-7 92,-16 30,-8 57,-12 60,-7 17,19 43,93 38,106 -7,19 -124,47 -194,46 -32,0 -78,-7 -103,-14 z"
       id="path26"
       inkscape:connector-curvature="0" />
    <path
       d="m 7375,2503 c -80,-18 -125,-35 -125,-49 0,-8 12,-37 26,-65 20,-40 29,-49 42,-43 9,4 44,14 76,22 52,14 62,14 85,1 14,-8 27,-24 29,-36 3,-23 1,-24 -143,-38 -114,-11 -175,-71 -175,-172 0,-60 25,-111 69,-140 62,-42 198,-28 245,26 25,28 29,27 49,-14 l 17,-36 63,3 62,3 3,195 c 2,160 0,203 -14,238 -18,49 -61,85 -119,101 -39,11 -150,13 -190,4 z m 135,-335 c 0,-43 -34,-78 -76,-78 -38,0 -59,28 -50,64 7,28 39,44 89,45 35,1 37,-1 37,-31 z"
       id="path28"
       inkscape:connector-curvature="0" />
    <path
       d="m 9345,2495 c -22,-8 -47,-23 -57,-35 -22,-27 -27,-25 -40,10 l -10,31 -72,-3 -71,-3 -3,-259 c -2,-201 1,-261 10,-268 22,-13 168,-10 173,5 2,6 5,83 7,169 4,140 6,161 24,185 15,20 32,29 56,31 58,5 62,-8 68,-212 l 5,-181 90,0 90,0 3,190 c 2,105 0,205 -3,223 -7,40 -59,101 -102,118 -41,18 -117,17 -168,-1 z"
       id="path30"
       inkscape:connector-curvature="0" />
    <path
       d="m 9875,2501 c -87,-23 -135,-74 -143,-151 -6,-60 11,-112 50,-150 l 30,-30 -31,-26 c -37,-31 -41,-69 -11,-107 11,-14 20,-27 20,-29 0,-2 -16,-12 -36,-23 -61,-33 -79,-95 -48,-161 59,-124 413,-116 509,11 37,48 45,125 19,180 -26,55 -75,75 -191,75 -98,0 -143,11 -143,33 0,11 21,16 83,19 145,7 211,65 210,184 0,63 0,63 33,74 32,11 34,14 34,56 l 0,44 -82,0 c -46,0 -126,2 -178,5 -52,2 -108,1 -125,-4 z m 115,-101 c 15,0 32,-69 25,-100 -8,-34 -40,-61 -64,-53 -28,10 -41,35 -41,80 0,47 30,89 57,79 8,-3 18,-6 23,-6 z m 88,-473 c 15,-16 15,-18 -4,-37 -11,-11 -46,-26 -77,-32 -48,-10 -65,-10 -100,2 -34,12 -42,20 -42,40 0,38 37,52 128,47 56,-3 83,-9 95,-20 z"
       id="path32"
       inkscape:connector-curvature="0" />
    <path
       d="m 8782,2233 3,-268 90,0 90,0 3,268 2,267 -95,0 -95,0 2,-267 z"
       id="path34"
       inkscape:connector-curvature="0" />
    <path
       d="m 11100,2075 0,-135 71,0 72,0 -7,-32 c -8,-40 -45,-80 -97,-103 -21,-10 -39,-21 -39,-25 0,-10 61,-120 66,-120 12,0 94,46 136,77 32,23 56,52 75,91 27,55 28,62 28,217 l 0,160 -152,3 -153,3 0,-136 z"
       id="path36"
       inkscape:connector-curvature="0" />
    <path
       d="m 11467,2204 c -4,-4 -7,-65 -7,-136 l 0,-128 70,0 c 67,0 70,-1 70,-24 0,-32 -41,-80 -96,-112 l -45,-26 32,-57 c 17,-31 33,-57 34,-59 9,-10 133,66 170,103 63,63 76,115 73,296 l -3,144 -146,3 c -80,1 -148,-1 -152,-4 z"
       id="path38"
       inkscape:connector-curvature="0" />
  </g>
</svg>
