<?xml version="1.0" encoding="UTF-8" standalone="no"?>
<!DOCTYPE svg PUBLIC "-//W3C//DTD SVG 1.1//EN" "http://www.w3.org/Graphics/SVG/1.1/DTD/svg11.dtd">
<svg width="100%" height="100%" viewBox="0 0 1484 1125" version="1.1" xmlns="http://www.w3.org/2000/svg" xmlns:xlink="http://www.w3.org/1999/xlink" xml:space="preserve" style="fill-rule:evenodd;clip-rule:evenodd;stroke-linejoin:round;stroke-miterlimit:1.41421;">
    <g transform="matrix(4.16667,0,0,4.16667,0,0)">
        <g transform="matrix(1,0,0,1,-192.501,-0.938995)">
            <path d="M346.763,0.939L275.995,122.755L307.56,180.487L341.204,122.569L378.957,57.581L346.763,0.939Z" style="fill:url(#_Linear1);"/>
        </g>
        <g transform="matrix(1,0,0,1,-192.501,-0.938995)">
            <path d="M482.783,122.167L415.775,122.359L341.204,122.569L307.56,180.487L448.798,180.459L482.783,122.167Z" style="fill:url(#_Linear2);"/>
        </g>
        <g transform="matrix(1,0,0,1,-192.501,-0.938995)">
            <path d="M411.748,1.132L346.763,0.939L378.957,57.581L415.775,122.359L482.783,122.167L411.748,1.132Z" style="fill:url(#_Linear3);"/>
        </g>
        <g transform="matrix(0.291954,0,0,0.291954,-111.332,178.42)">
            <path d="M979.38,205.45L1028.83,184.48C1023.7,175.64 1015.43,172.9 1008.35,172.9C989.54,172.9 976.64,194.3 979.38,205.45M881.65,217.63C881.89,216.9 882.27,215.27 882.53,213.63C882.59,213.37 882.63,213.12 882.6,213.1C882.92,211.17 883.07,209.19 883.06,207.16C883.04,205.25 882.89,203.38 882.58,201.57C882.55,201.22 882.5,200.88 882.47,200.86C882.19,199.14 881.77,197.46 881.22,195.88C877.02,182.82 865.82,173.53 852.74,173.64C836.12,173.77 822.73,189.01 822.85,207.65C822.98,226.28 836.56,241.3 853.17,241.17C866.26,241.06 877.34,231.59 881.65,217.63M763.77,207.43C763.77,191.33 752.44,173.59 732.76,173.59C713.08,173.59 701.75,191.34 701.75,207.44C701.75,223.55 713.08,241.29 732.76,241.29C752.44,241.29 763.77,223.53 763.77,207.43M643.16,207.43C643.16,191.33 631.83,173.59 612.15,173.59C592.47,173.59 581.14,191.34 581.14,207.44C581.14,223.55 592.47,241.29 612.15,241.29C631.83,241.29 643.16,223.53 643.16,207.43M920.28,94.91L944.94,94.91L944.94,260.21L920.28,260.21L920.28,94.91ZM970.21,246.94C950.42,225.09 950.42,189.28 970.21,167.43C990.01,145.58 1023.81,145.7 1043,167.3C1049.31,174.39 1053.55,183.56 1057.28,193.08L983.19,224.28C987.52,233.01 996.04,241.37 1009.53,241.37C1021.08,241.37 1028.93,237.5 1037.21,225.76L1056.59,238.8L1056.6,238.8C1054.37,241.74 1051.62,244.66 1049.55,246.94C1029.76,268.79 990.01,268.79 970.21,246.94M406.06,236.94C372.44,203.05 373.43,148.6 407.06,114.71C424.05,97.71 446.14,89.2 468.42,89.3C489.65,89.4 510.87,97.32 527.47,112.89L510.82,130.27C486.69,106.84 448.37,107.15 424.77,131.44C400.9,156.18 400.35,195.91 424.2,220.65C448.24,245.38 488.09,246.83 512.12,222.1C520.25,213.74 523.01,203.06 524.66,192.15L468.29,192.15L468.29,168.32L547.48,168.32C548.61,174.27 548.79,180.41 548.79,186.47C548.79,206.08 540.31,226.86 527.21,240.28C512.22,255.63 491.31,263.57 469.21,263.38C446.3,263.18 423.3,254.19 406.06,236.94M677.2,207.45C677.2,180.75 697.5,151.32 732.76,151.32C768.02,151.32 788.33,180.73 788.33,207.43C788.33,234.12 768.02,263.55 732.76,263.55C697.5,263.55 677.2,234.14 677.2,207.45M556.58,207.45C556.58,180.75 576.89,151.32 612.15,151.32C647.41,151.32 667.72,180.73 667.72,207.43C667.72,234.12 647.41,263.55 612.15,263.55C576.89,263.55 556.58,234.14 556.58,207.45M816.99,300.97C810.69,295.39 805.31,286.75 802.17,280.7L823.7,271.54C825.09,274.17 827.08,278.23 830.28,281.69C835.8,287.67 843.2,291.78 852.16,291.78C860.52,291.78 869.97,287.95 874.93,281.06C879.37,274.89 881.1,267.04 881.1,258.62L881.1,250.21C865.73,269.98 832.12,267.22 813.32,246.77C793.23,224.92 793.41,189.45 813.73,167.6C833.79,147.73 863.55,145.22 881.06,164.04C881.07,164.05 881.09,164.07 881.1,164.08L881.1,154.57L904.42,154.57L904.42,255.96C904.42,281.76 894.95,296.34 883.19,304.83C874.58,311.05 862.52,313.89 851.89,313.89C838.07,313.89 826.22,309.13 816.99,300.97" style="fill:rgb(103,103,103);"/>
        </g>
        <g transform="matrix(1,0,0,1,-62.3557,-0.938995)">
            <path d="M286.678,252.821C288.122,253.017 290.221,253.083 292.454,253.083C304.725,253.083 311.287,246.258 311.287,234.314C311.353,223.88 305.447,217.251 293.372,217.251C290.418,217.251 288.187,217.514 286.678,217.843L286.678,252.821ZM280.971,213.706C284.446,213.118 288.581,212.721 293.108,212.721C301.312,212.721 307.153,214.692 311.025,218.236C315.027,221.845 317.324,226.963 317.324,234.116C317.324,241.336 315.027,247.242 310.959,251.312C306.76,255.445 299.936,257.676 291.338,257.676C287.203,257.676 283.856,257.481 280.971,257.151L280.971,213.706Z" style="fill:rgb(103,103,103);fill-rule:nonzero;"/>
        </g>
        <g transform="matrix(1,0,0,1,-62.3557,-0.938995)">
            <path d="M324.484,235.43C324.484,231.69 324.418,228.474 324.221,225.52L329.272,225.52L329.537,231.82L329.731,231.82C331.177,227.555 334.722,224.862 338.592,224.862C339.184,224.862 339.643,224.929 340.167,224.995L340.167,230.442C339.576,230.312 338.987,230.312 338.198,230.312C334.13,230.312 331.242,233.328 330.455,237.66C330.323,238.448 330.258,239.432 330.258,240.351L330.258,257.282L324.484,257.282L324.484,235.43Z" style="fill:rgb(103,103,103);fill-rule:nonzero;"/>
        </g>
        <g transform="matrix(1,0,0,1,-62.3557,-0.938995)">
            <path d="M346.207,257.282L346.207,225.52L351.98,225.52L351.98,257.282L346.207,257.282ZM352.638,216.594C352.638,218.564 351.259,220.139 348.963,220.139C346.862,220.139 345.483,218.564 345.483,216.594C345.483,214.626 346.928,212.985 349.095,212.985C351.193,212.985 352.638,214.562 352.638,216.594Z" style="fill:rgb(103,103,103);fill-rule:nonzero;"/>
        </g>
        <g transform="matrix(1,0,0,1,-62.3557,-0.938995)">
            <path d="M363.796,225.52L370.031,243.305C371.08,246.258 371.934,248.883 372.589,251.507L372.787,251.507C373.508,248.883 374.427,246.258 375.477,243.305L381.646,225.52L387.684,225.52L375.214,257.282L369.701,257.282L357.626,225.52L363.796,225.52Z" style="fill:rgb(103,103,103);fill-rule:nonzero;"/>
        </g>
        <g transform="matrix(1,0,0,1,-62.3557,-0.938995)">
            <path d="M412.626,238.317C412.69,234.707 411.116,228.998 404.619,228.998C398.712,228.998 396.22,234.314 395.76,238.317L412.626,238.317ZM395.694,242.452C395.826,250.262 400.747,253.477 406.587,253.477C410.723,253.477 413.281,252.756 415.382,251.836L416.431,255.971C414.397,256.889 410.853,258.003 405.8,258.003C396.021,258.003 390.182,251.507 390.182,241.926C390.182,232.344 395.826,224.862 405.078,224.862C415.512,224.862 418.204,233.92 418.204,239.761C418.204,240.942 418.139,241.795 418.007,242.452L395.694,242.452Z" style="fill:rgb(103,103,103);fill-rule:nonzero;"/>
        </g>
    </g>
    <defs>
        <linearGradient id="_Linear1" x1="0" y1="0" x2="1" y2="0" gradientUnits="userSpaceOnUse" gradientTransform="matrix(-34.6413,28.8575,-28.8575,-34.6413,374.177,51.5468)"><stop offset="0%" style="stop-color:rgb(45,182,114);stop-opacity:1"/><stop offset="100%" style="stop-color:rgb(45,182,114);stop-opacity:1"/><stop offset="100%" style="stop-color:rgb(45,182,114);stop-opacity:1"/></linearGradient>
        <linearGradient id="_Linear2" x1="0" y1="0" x2="1" y2="0" gradientUnits="userSpaceOnUse" gradientTransform="matrix(57.0155,24.9291,-24.9291,57.0155,338.674,126.624)"><stop offset="0%" style="stop-color:rgb(82,122,189);stop-opacity:1"/><stop offset="100%" style="stop-color:rgb(82,122,189);stop-opacity:1"/><stop offset="100%" style="stop-color:rgb(82,122,189);stop-opacity:1"/></linearGradient>
        <linearGradient id="_Linear3" x1="0" y1="0" x2="1" y2="0" gradientUnits="userSpaceOnUse" gradientTransform="matrix(-11.1338,-33.7454,33.7454,-11.1338,437.311,129.864)"><stop offset="0%" style="stop-color:rgb(253,209,75);stop-opacity:1"/><stop offset="100%" style="stop-color:rgb(253,209,75);stop-opacity:1"/><stop offset="100%" style="stop-color:rgb(253,209,75);stop-opacity:1"/></linearGradient>
    </defs>
</svg>
