<?xml version="1.0" encoding="UTF-8" standalone="no"?>
<!-- Created with Inkscape (http://www.inkscape.org/) -->

<svg
   xmlns:dc="http://purl.org/dc/elements/1.1/"
   xmlns:cc="http://creativecommons.org/ns#"
   xmlns:rdf="http://www.w3.org/1999/02/22-rdf-syntax-ns#"
   xmlns:svg="http://www.w3.org/2000/svg"
   xmlns="http://www.w3.org/2000/svg"
   xmlns:sodipodi="http://sodipodi.sourceforge.net/DTD/sodipodi-0.dtd"
   xmlns:inkscape="http://www.inkscape.org/namespaces/inkscape"
   width="416.21558mm"
   height="49.995567mm"
   viewBox="0 0 416.21558 49.995567"
   version="1.1"
   id="svg6281"
   inkscape:version="0.92.3 (2405546, 2018-03-11)"
   sodipodi:docname="gotowebinar.svg">
  <defs
     id="defs6275">
    <style
       id="style2373">.bycls-1{fill:#53565a}.bycls-2{fill:#00c0f3}.bycls-3{fill:#a7a8aa}</style>
  </defs>
  <sodipodi:namedview
     id="base"
     pagecolor="#ffffff"
     bordercolor="#666666"
     borderopacity="1.0"
     inkscape:pageopacity="0.0"
     inkscape:pageshadow="2"
     inkscape:zoom="0.35"
     inkscape:cx="388.64468"
     inkscape:cy="56.105011"
     inkscape:document-units="mm"
     inkscape:current-layer="layer1"
     showgrid="false"
     inkscape:window-width="2560"
     inkscape:window-height="1361"
     inkscape:window-x="1341"
     inkscape:window-y="-9"
     inkscape:window-maximized="1" />
  <metadata
     id="metadata6278">
    <rdf:RDF>
      <cc:Work
         rdf:about="">
        <dc:format>image/svg+xml</dc:format>
        <dc:type
           rdf:resource="http://purl.org/dc/dcmitype/StillImage" />
        <dc:title></dc:title>
      </cc:Work>
    </rdf:RDF>
  </metadata>
  <g
     inkscape:label="Layer 1"
     inkscape:groupmode="layer"
     id="layer1"
     transform="translate(-3.0044294,-113.68222)">
    <svg
       id="lmi_g2w_icon_text"
       data-name="Layer 1"
       viewBox="-3 -3 422.22 56"
       width="422.22"
       height="56"
       y="110.68"
       version="1.1">
      <defs
         id="defs2375">
        <style
           id="style6298">.bycls-1{fill:#53565a}.bycls-2{fill:#00c0f3}.bycls-3{fill:#a7a8aa}</style>
      </defs>
      <path
         style="fill:#53565a"
         inkscape:connector-curvature="0"
         class="bycls-1"
         d="m 513.86,510.42 h -9.79 a 2,2 0 0 0 -2.17,2.13 v 1 a 2,2 0 0 0 2.17,2.13 h 5.36 v 4.79 a 12,12 0 0 1 -5.41,1.24 9.89,9.89 0 0 1 -0.31,-19.77 11.53,11.53 0 0 1 5.85,1.28 c 1.24,0.58 2.17,0.49 3,-0.62 l 1.11,-1.42 a 1.88,1.88 0 0 0 -0.53,-3 17.85,17.85 0 0 0 -9.4,-2.39 c -9.71,0 -16.71,7.27 -16.71,16 0,8.73 6.87,16 16.89,16 a 17.87,17.87 0 0 0 10.77,-3.59 3.06,3.06 0 0 0 1.37,-2.7 v -9 a 2,2 0 0 0 -2.2,-2.08 z M 531.9,504 c -7.22,0 -12.63,5.32 -12.63,11.88 0,6.56 5.41,11.88 12.63,11.88 7.22,0 12.63,-5.32 12.63,-11.88 0,-6.56 -5.4,-11.88 -12.63,-11.88 z m 0,18.22 a 6.32,6.32 0 1 1 6.1,-6.22 6.11,6.11 0 0 1 -6.1,6.25 z"
         transform="translate(-433,-487)"
         id="path2377" />
      <path
         style="fill:#53565a"
         inkscape:connector-curvature="0"
         class="bycls-1"
         d="m 565.37,500.09 v -1.68 a 2,2 0 0 0 -2.17,-2.13 H 542 a 1.92,1.92 0 0 0 -2.13,2.13 v 1.68 a 1.92,1.92 0 0 0 2.13,2.13 h 7.09 v 23 a 1.92,1.92 0 0 0 2.13,2.13 h 2.66 a 1.92,1.92 0 0 0 2.13,-2.13 v -23 h 7.18 a 2,2 0 0 0 2.18,-2.13 z"
         transform="translate(-433,-487)"
         id="path2379" />
      <path
         style="fill:#53565a"
         inkscape:connector-curvature="0"
         class="bycls-1"
         d="m 573.34,504 c -7.22,0 -12.63,5.32 -12.63,11.88 0,6.56 5.41,11.88 12.63,11.88 7.22,0 12.66,-5.29 12.66,-11.84 0,-6.55 -5.43,-11.92 -12.66,-11.92 z m 0,18.22 a 6.32,6.32 0 1 1 6.12,-6.29 6.11,6.11 0 0 1 -6.12,6.32 z m 52.48,-25.94 h -1.06 a 1.22,1.22 0 0 0 -1.33,1 l -7.76,24.33 -7.27,-23.31 a 1.22,1.22 0 0 0 -1.33,-1 h -0.89 a 1.25,1.25 0 0 0 -1.33,1 l -7.27,23.31 -7.71,-24.33 a 1.29,1.29 0 0 0 -1.33,-1 h -1.06 c -0.84,0 -1.24,0.53 -1,1.37 l 9,28.68 a 1.29,1.29 0 0 0 1.33,1 h 1.11 a 1.22,1.22 0 0 0 1.33,-1 l 7.36,-23.71 7.39,23.71 a 1.29,1.29 0 0 0 1.33,1 h 1.11 a 1.28,1.28 0 0 0 1.33,-1 l 9.09,-28.68 c 0.2,-0.84 -0.2,-1.37 -1.04,-1.37 z m 12.55,8.42 a 11.57,11.57 0 0 0 -11.83,11.66 c 0,6.25 4.79,11.43 12.41,11.43 a 12.68,12.68 0 0 0 8.38,-2.88 1.19,1.19 0 0 0 0.27,-1.86 l -0.35,-0.35 a 1.18,1.18 0 0 0 -1.64,-0.13 10.72,10.72 0 0 1 -6.65,2.22 c -5.45,0 -9.31,-3.63 -9,-8.55 h 18.3 c 0.8,0 1.29,-0.44 1.15,-1.2 -0.58,-7.1 -5.63,-10.34 -11.04,-10.34 z m -8.11,8.91 a 8.27,8.27 0 0 1 8.2,-5.9 c 3.06,0 6.51,1.33 7.54,5.9 z m 35.46,-8.91 a 9.66,9.66 0 0 0 -8.64,4.83 v -13.07 a 1.1,1.1 0 0 0 -1.2,-1.2 h -1 a 1.08,1.08 0 0 0 -1.15,1.2 v 29.65 a 1.08,1.08 0 0 0 1.15,1.2 h 1 a 1.1,1.1 0 0 0 1.2,-1.2 V 523 a 9.57,9.57 0 0 0 8.64,4.83 c 6.74,0 11.08,-5.19 11.08,-11.52 0,-6.33 -4.35,-11.61 -11.08,-11.61 z m -0.35,20.08 c -4.88,0 -8.33,-3.55 -8.38,-8.51 -0.05,-4.96 3.5,-8.55 8.38,-8.55 5.05,0 8,3.86 8,8.55 0,4.69 -2.95,8.51 -8.01,8.51 z m 17.86,-29.47 a 2.5,2.5 0 1 0 2.44,2.53 2.42,2.42 0 0 0 -2.44,-2.53 z m 0.53,9.88 h -1 a 1.12,1.12 0 0 0 -1.2,1.2 v 19.72 a 1.1,1.1 0 0 0 1.2,1.2 h 1 a 1.08,1.08 0 0 0 1.15,-1.2 v -19.73 a 1.08,1.08 0 0 0 -1.15,-1.19 z m 18.66,-0.49 a 7.84,7.84 0 0 0 -7.71,5.19 v -3.5 a 1.1,1.1 0 0 0 -1.2,-1.2 h -1 a 1.11,1.11 0 0 0 -1.15,1.2 v 19.72 a 1.08,1.08 0 0 0 1.15,1.2 h 1 a 1.1,1.1 0 0 0 1.2,-1.2 v -9.53 c 0,-7.14 5.05,-8.86 7.49,-8.86 2.79,0 5.58,1.68 5.58,7 v 11.35 a 1.1,1.1 0 0 0 1.2,1.2 h 1 a 1.1,1.1 0 0 0 1.2,-1.2 v -11.31 c 0.01,-7.31 -4.06,-10.06 -8.76,-10.06 z m 34.93,0.49 h -1 a 1.08,1.08 0 0 0 -1.15,1.2 v 3.19 a 9.68,9.68 0 0 0 -8.69,-4.88 c -6.78,0 -11,5.23 -11,11.57 0,6.34 4.34,11.52 11,11.52 a 9.6,9.6 0 0 0 8.69,-4.83 v 3.15 a 1.06,1.06 0 0 0 1.15,1.2 h 1 a 1.1,1.1 0 0 0 1.2,-1.2 v -19.73 a 1.1,1.1 0 0 0 -1.2,-1.19 z m -10.46,19.59 c -5.1,0 -8.07,-3.86 -8.07,-8.51 0,-4.65 2.92,-8.55 8,-8.55 5.08,0 8.38,3.68 8.38,8.55 a 8.1,8.1 0 0 1 -8.31,8.51 z m 27.97,-19.99 a 9.23,9.23 0 0 0 -1.06,-0.09 c -3.23,0 -5.63,2.26 -6.47,5.85 v -4.17 a 1.1,1.1 0 0 0 -1.2,-1.2 h -1 a 1.11,1.11 0 0 0 -1.15,1.2 v 19.72 a 1.08,1.08 0 0 0 1.15,1.2 h 1 a 1.1,1.1 0 0 0 1.2,-1.2 v -7.22 c 0,-8.42 3.41,-10.9 6.25,-10.9 a 11.54,11.54 0 0 1 1.2,0.09 c 0.58,0.18 0.89,-0.18 0.89,-1 v -0.93 c -0.02,-0.68 -0.15,-1.22 -0.81,-1.35 z"
         transform="translate(-433,-487)"
         id="path2381" />
      <path
         style="fill:#00c0f3"
         inkscape:connector-curvature="0"
         class="bycls-2"
         d="m 474.89,515.58 a 6.58,6.58 0 0 0 -7.21,0.26 1.32,1.32 0 0 1 -1.42,0.07 l -6.53,-3.77 a 0.16,0.16 0 0 1 0,-0.28 l 6.5,-3.75 a 1.32,1.32 0 0 1 1.43,0.08 6.58,6.58 0 0 0 7.23,0.29 6.65,6.65 0 0 0 2.39,-8.76 6.58,6.58 0 0 0 -12.34,3.69 1.32,1.32 0 0 1 -0.65,1.26 l -6.53,3.77 a 0.16,0.16 0 0 1 -0.25,-0.14 v -7.55 a 1.32,1.32 0 0 1 0.78,-1.19 6.58,6.58 0 1 0 -5.5,0 1.32,1.32 0 0 1 0.78,1.19 v 7.55 a 0.16,0.16 0 0 1 -0.25,0.14 l -6.53,-3.77 a 1.31,1.31 0 0 1 -0.65,-1.26 6.58,6.58 0 1 0 -2.72,4.78 1.32,1.32 0 0 1 1.43,-0.08 l 6.5,3.75 a 0.16,0.16 0 0 1 0,0.28 l -6.53,3.77 a 1.32,1.32 0 0 1 -1.42,-0.07 6.58,6.58 0 0 0 -7.21,-0.26 6.65,6.65 0 0 0 -2.38,8.75 6.58,6.58 0 0 0 12.34,-3.73 1.32,1.32 0 0 1 0.65,-1.27 l 6.53,-3.77 a 0.16,0.16 0 0 1 0.25,0.14 v 7.55 a 1.32,1.32 0 0 1 -0.78,1.19 6.58,6.58 0 1 0 5.5,0 1.32,1.32 0 0 1 -0.78,-1.19 v -7.55 a 0.16,0.16 0 0 1 0.25,-0.14 l 6.53,3.77 a 1.32,1.32 0 0 1 0.65,1.27 6.58,6.58 0 0 0 12.34,3.73 6.65,6.65 0 0 0 -2.4,-8.75 z"
         transform="translate(-433,-487)"
         id="path2383" />
      <path
         style="fill:#a7a8aa"
         inkscape:connector-curvature="0"
         class="bycls-3"
         d="m 847.27,510.88 h 0.14 a 0.11,0.11 0 0 0 0,-0.06 v -0.39 a 0.2,0.2 0 0 1 0,-0.06 h 0.17 l 0.06,0.07 v 0.07 l 0.19,0.31 v 0.05 h 0.16 v -0.06 l -0.18,-0.28 0.09,-0.08 a 0.31,0.31 0 0 0 0.06,-0.11 0.39,0.39 0 0 0 0,-0.07 0.11,0.11 0 0 0 0,-0.07 v -0.08 a 0.37,0.37 0 0 0 -0.07,-0.15 h -0.06 a 0.34,0.34 0 0 0 -0.2,-0.07 h -0.6 v 1.08 z m 0.2,-0.91 v -0.06 h 0.42 a 0.18,0.18 0 0 1 0.07,0.08 0.25,0.25 0 0 1 0,0.06 0.14,0.14 0 0 1 0,0.08 0.19,0.19 0 0 1 0,0.08 l -0.06,0.05 h -0.38 a 0.07,0.07 0 0 1 -0.07,0 0.14,0.14 0 0 1 0,-0.09 z"
         transform="translate(-433,-487)"
         id="path2385" />
      <path
         style="fill:#a7a8aa"
         inkscape:connector-curvature="0"
         class="bycls-3"
         d="m 847.69,511.61 a 1.33,1.33 0 1 0 -1.33,-1.33 1.33,1.33 0 0 0 1.33,1.33 z m 0,-2.45 a 1.12,1.12 0 1 1 -1.12,1.12 1.12,1.12 0 0 1 1.12,-1.11 z m -73.06,16.31 v -0.39 a 0.46,0.46 0 0 0 -0.1,-0.3 0.44,0.44 0 0 0 -0.26,-0.12 2.54,2.54 0 0 0 -0.41,-0.05 h -4.43 a 0.59,0.59 0 0 1 -0.57,-0.26 0.91,0.91 0 0 1 0,-0.24 2.36,2.36 0 0 1 0,-0.27 v -0.2 -0.26 -9.99 a 0.64,0.64 0 0 0 -0.1,-0.38 0.4,0.4 0 0 0 -0.32,-0.15 h -2.31 a 0.49,0.49 0 0 0 -0.32,0.2 0.64,0.64 0 0 0 -0.07,0.28 v 13.37 a 0.54,0.54 0 0 0 0.08,0.32 0.42,0.42 0 0 0 0.31,0.19 3.44,3.44 0 0 0 0.5,0 h 7.56 a 0.47,0.47 0 0 0 0.3,-0.08 0.43,0.43 0 0 0 0.2,-0.22 0.52,0.52 0 0 0 0,-0.24 v -1.23 z m 10.76,-4.97 a 3.09,3.09 0 0 0 -0.11,-0.34 c -0.07,-0.19 -0.13,-0.37 -0.18,-0.54 a 2.08,2.08 0 0 0 -0.22,-0.47 l -0.27,-0.42 a 4.85,4.85 0 0 0 -0.29,-0.4 2.14,2.14 0 0 0 -0.4,-0.41 l -0.45,-0.36 a 5.11,5.11 0 0 0 -0.84,-0.47 4.88,4.88 0 0 0 -2.45,-0.51 h -0.85 a 3.79,3.79 0 0 0 -1.57,0.44 3.09,3.09 0 0 0 -0.42,0.18 6.16,6.16 0 0 0 -1.24,1 5.06,5.06 0 0 0 -0.87,1.38 2.83,2.83 0 0 0 -0.16,0.49 c 0,0.17 -0.09,0.35 -0.14,0.52 a 0.55,0.55 0 0 0 0,0.19 V 521 a 0.52,0.52 0 0 0 0,0.15 7,7 0 0 0 -0.06,0.73 v 0.18 a 4.84,4.84 0 0 0 0.26,1.71 c 0,0.09 0,0.19 0.07,0.28 a 1.77,1.77 0 0 0 0.15,0.39 5.06,5.06 0 0 0 0.85,1.36 5.22,5.22 0 0 0 1.21,1 3.53,3.53 0 0 0 0.43,0.2 l 0.46,0.16 a 1.85,1.85 0 0 0 0.35,0.11 6.12,6.12 0 0 0 3.27,0 2.66,2.66 0 0 0 0.51,-0.15 6.11,6.11 0 0 0 1.66,-1 4.48,4.48 0 0 0 1.11,-1.58 2.33,2.33 0 0 0 0.16,-0.43 4.3,4.3 0 0 1 0.14,-0.46 v -0.1 a 5.6,5.6 0 0 0 0.18,-1.52 v -0.21 a 5.52,5.52 0 0 0 -0.19,-1.32 0.07,0.07 0 0 1 -0.1,0 z m -2.82,2.93 a 2.11,2.11 0 0 1 -0.12,0.4 3,3 0 0 1 -0.55,0.85 2.21,2.21 0 0 1 -0.85,0.54 2.94,2.94 0 0 1 -0.3,0.09 l -0.27,0.06 h -0.11 a 1.19,1.19 0 0 1 -0.27,0 1.66,1.66 0 0 1 -0.17,0 h -0.28 l -0.36,-0.1 a 1.15,1.15 0 0 1 -0.32,-0.16 2.16,2.16 0 0 1 -0.73,-0.68 4.28,4.28 0 0 1 -0.37,-0.79 3.93,3.93 0 0 1 -0.26,-1.56 4.3,4.3 0 0 1 0.2,-1.4 1.35,1.35 0 0 1 0,-0.16 3.16,3.16 0 0 1 0.49,-1 2,2 0 0 1 0.82,-0.64 0.89,0.89 0 0 1 0.23,-0.09 l 0.27,-0.07 h 0.64 a 1.15,1.15 0 0 1 0.35,0 l 0.26,0.07 0.24,0.07 a 2.15,2.15 0 0 1 0.81,0.6 3.76,3.76 0 0 1 0.52,0.9 1.94,1.94 0 0 1 0.09,0.33 v 0.05 a 5.17,5.17 0 0 1 0,2.66 z m 30.28,-10.57 h -3.48 a 0.49,0.49 0 0 0 -0.31,0.1 0.55,0.55 0 0 0 -0.22,0.26 l -0.12,0.33 -0.2,0.64 c -0.07,0.21 -0.13,0.42 -0.2,0.64 l -0.81,2.5 -0.81,2.48 c -0.11,0.31 -0.2,0.62 -0.29,0.92 -0.09,0.3 -0.19,0.61 -0.29,0.92 0,0.11 -0.08,0.23 -0.12,0.36 a 0.48,0.48 0 0 1 -0.07,0.14 c -0.07,0.13 -0.15,0.2 -0.23,0.2 -0.08,0 -0.28,-0.26 -0.38,-0.67 -0.08,-0.21 -0.15,-0.43 -0.21,-0.65 -0.06,-0.22 -0.17,-0.56 -0.28,-0.83 q -0.49,-1.3 -0.9,-2.61 c -0.28,-0.88 -0.57,-1.74 -0.88,-2.59 l -0.23,-0.67 -0.23,-0.66 -0.12,-0.37 a 0.56,0.56 0 0 0 -0.2,-0.29 0.83,0.83 0 0 0 -0.52,-0.14 h -3.47 a 0.49,0.49 0 0 0 -0.33,0.2 0.86,0.86 0 0 0 -0.06,0.24 1.84,1.84 0 0 0 0,0.31 v 12.76 a 3.69,3.69 0 0 0 0,0.44 0.42,0.42 0 0 0 0.14,0.31 0.5,0.5 0 0 0 0.3,0.11 h 1.78 a 0.75,0.75 0 0 0 0.3,0 0.39,0.39 0 0 0 0.3,-0.18 0.37,0.37 0 0 0 0.08,-0.26 v -6.69 -0.89 -0.37 -0.24 -0.29 c 0,-0.09 0,-0.26 0.16,-0.24 a 0.15,0.15 0 0 1 0.1,0 l 0.08,0.07 a 2.12,2.12 0 0 1 0.22,0.46 v 0.08 l 2.66,7.61 a 3.16,3.16 0 0 0 0.11,0.3 c 0.06,0.12 0.1,0.23 0.14,0.31 a 0.52,0.52 0 0 0 0.22,0.23 0.49,0.49 0 0 0 0.24,0.08 h 1.79 a 0.37,0.37 0 0 0 0.22,-0.08 0.39,0.39 0 0 0 0.12,-0.18 c 0,-0.07 0.06,-0.11 0.09,-0.2 l 0.09,-0.21 2.78,-8.08 a 1.08,1.08 0 0 1 0.09,-0.21 l 0.12,-0.2 v -0.07 a 0.26,0.26 0 0 1 0.16,-0.07 c 0.08,0 0.09,0 0.11,0.14 a 2.64,2.64 0 0 1 0,0.42 v 8.29 a 0.37,0.37 0 0 0 0.08,0.26 0.27,0.27 0 0 0 0.19,0.14 l 0.27,0.06 h 1.92 a 0.52,0.52 0 0 0 0.3,-0.11 0.4,0.4 0 0 0 0.13,-0.31 v -13.44 a 0.48,0.48 0 0 0 -0.22,-0.46 0.47,0.47 0 0 0 -0.11,-0.05 z M 796.56,517 a 0.51,0.51 0 0 0 -0.3,-0.11 h -1.78 a 0.63,0.63 0 0 0 -0.29,0.09 0.45,0.45 0 0 0 -0.11,0.19 v 0.13 c 0,0.24 -0.12,0.44 -0.3,0.46 a 0.3,0.3 0 0 1 -0.26,-0.12 l -0.14,-0.11 -0.22,-0.2 -0.14,-0.12 -0.12,-0.09 a 2.92,2.92 0 0 0 -0.58,-0.29 2.13,2.13 0 0 0 -0.8,-0.2 3.52,3.52 0 0 0 -0.58,0 h -0.49 a 2.55,2.55 0 0 0 -1,0.22 l -0.34,0.13 a 4,4 0 0 0 -0.55,0.28 l -0.2,0.13 -0.2,0.15 -0.12,0.12 -0.21,0.19 a 0.87,0.87 0 0 0 -0.18,0.2 l -0.27,0.35 a 2.73,2.73 0 0 0 -0.23,0.38 3.57,3.57 0 0 0 -0.33,0.69 l -0.09,0.25 a 4.59,4.59 0 0 0 -0.31,1.36 0.35,0.35 0 0 0 0,0.11 v 0.73 a 5.85,5.85 0 0 0 0.36,2.25 v 0.09 a 5.43,5.43 0 0 0 0.9,1.49 3.53,3.53 0 0 0 1.4,1 2.08,2.08 0 0 0 0.49,0.15 l 0.55,0.11 h 0.44 a 1.47,1.47 0 0 0 0.33,0 1.34,1.34 0 0 0 0.32,0 h 0.45 l 0.46,-0.12 a 2.67,2.67 0 0 0 0.44,-0.16 2.39,2.39 0 0 0 0.41,-0.22 l 0.36,-0.26 0.12,-0.1 0.1,-0.08 a 0.31,0.31 0 0 1 0.14,-0.07 0.29,0.29 0 0 1 0.24,0 c 0.14,0.08 0.16,0.25 0.14,0.5 v 0.11 a 1,1 0 0 0 0,0.16 v 0.42 a 2.51,2.51 0 0 1 -0.05,0.4 c 0,0.1 0,0.18 -0.06,0.26 a 2,2 0 0 1 -0.06,0.24 2.61,2.61 0 0 1 -0.47,0.71 1.86,1.86 0 0 1 -0.41,0.33 1.11,1.11 0 0 1 -0.23,0.13 h -0.18 a 3.2,3.2 0 0 1 -0.57,0.11 3,3 0 0 1 -1,0 1.57,1.57 0 0 1 -0.48,-0.17 0.93,0.93 0 0 1 -0.18,-0.1 l -0.23,-0.18 a 1.44,1.44 0 0 1 -0.21,-0.26 v -0.05 c -0.11,-0.15 -0.19,-0.27 -0.24,-0.35 a 0.65,0.65 0 0 0 -0.41,-0.21 h -1.5 a 1.71,1.71 0 0 0 -0.45,0 0.51,0.51 0 0 0 -0.31,0.17 0.42,0.42 0 0 0 -0.05,0.39 0.22,0.22 0 0 1 0,0.1 0.21,0.21 0 0 0 0,0.12 2.82,2.82 0 0 0 0.89,1.32 5.59,5.59 0 0 0 1.37,0.82 2.21,2.21 0 0 0 0.38,0.14 l 0.39,0.09 h 0.07 a 6.37,6.37 0 0 0 1.31,0.14 h 0.15 a 6.94,6.94 0 0 0 1.37,-0.12 2.83,2.83 0 0 0 0.43,-0.08 l 0.47,-0.12 a 2.73,2.73 0 0 0 0.45,-0.16 4.22,4.22 0 0 0 1.3,-0.83 4,4 0 0 0 0.88,-1.28 2.53,2.53 0 0 0 0.15,-0.47 5.17,5.17 0 0 1 0.13,-0.54 v -0.29 -0.29 -0.32 -8.95 -0.47 A 0.41,0.41 0 0 0 796.56,517 Z m -2.56,5.15 a 3.64,3.64 0 0 1 -0.08,0.6 2.27,2.27 0 0 1 -0.14,0.46 3,3 0 0 1 -0.51,0.87 2.06,2.06 0 0 1 -0.82,0.57 1,1 0 0 1 -0.32,0.1 l -0.31,0.05 h -0.74 a 1.81,1.81 0 0 1 -0.35,-0.12 l -0.15,-0.07 a 1.93,1.93 0 0 1 -0.73,-0.64 3.87,3.87 0 0 1 -0.44,-0.92 v -0.19 a 3.72,3.72 0 0 1 -0.07,-0.41 v -0.38 a 3,3 0 0 1 0,-0.49 3.8,3.8 0 0 1 0,-0.5 2.19,2.19 0 0 1 0.05,-0.3 0.41,0.41 0 0 1 0,-0.16 1.88,1.88 0 0 1 0.17,-0.45 5.1,5.1 0 0 1 0.29,-0.53 1.74,1.74 0 0 1 0.81,-0.67 h 0.06 a 1.88,1.88 0 0 1 0.85,-0.17 2.24,2.24 0 0 1 0.63,0.08 1.86,1.86 0 0 1 0.75,0.31 2.37,2.37 0 0 1 0.81,1.09 2.55,2.55 0 0 1 0.1,0.26 l 0.08,0.28 a 0.58,0.58 0 0 1 0,0.09 v 0.21 a 2.3,2.3 0 0 1 0.06,0.5 5.25,5.25 0 0 1 0,0.53 z m 30.5,-0.95 a 4.76,4.76 0 0 0 -0.16,-0.75 5.54,5.54 0 0 0 -0.35,-1 2.34,2.34 0 0 0 -0.15,-0.33 v -0.06 a 5.79,5.79 0 0 0 -0.54,-0.83 2.79,2.79 0 0 0 -0.42,-0.43 h -0.05 a 4.17,4.17 0 0 0 -0.36,-0.27 5.48,5.48 0 0 0 -1.33,-0.66 4.5,4.5 0 0 0 -1.57,-0.23 h -0.79 a 3.87,3.87 0 0 0 -0.58,0.12 2.9,2.9 0 0 0 -0.57,0.17 5.3,5.3 0 0 0 -3,3 2.82,2.82 0 0 0 -0.13,0.39 5.49,5.49 0 0 0 -0.24,1.33 v 0.53 a 5.43,5.43 0 0 0 0.38,2.13 2.94,2.94 0 0 0 0.15,0.4 4.53,4.53 0 0 0 0.83,1.25 5.92,5.92 0 0 0 1.15,0.94 1.78,1.78 0 0 0 0.35,0.17 c 0.12,0 0.56,0.23 0.76,0.29 a 3.93,3.93 0 0 0 0.55,0.14 3.29,3.29 0 0 0 0.64,0.07 h 0.51 a 6.06,6.06 0 0 0 2.26,-0.45 2.69,2.69 0 0 0 0.84,-0.46 4.25,4.25 0 0 0 1,-1.07 4.59,4.59 0 0 0 0.28,-0.44 3.4,3.4 0 0 0 0.22,-0.51 0.58,0.58 0 0 0 0,-0.24 0.25,0.25 0 0 0 0,-0.1 0.23,0.23 0 0 0 -0.21,-0.21 h -1.7 a 0.69,0.69 0 0 0 -0.44,0.24 l -0.15,0.18 -0.2,0.23 a 1.12,1.12 0 0 1 -0.29,0.23 l -0.46,0.26 a 2.09,2.09 0 0 1 -0.6,0.18 h -0.77 a 2.54,2.54 0 0 1 -1,-0.21 l -0.13,-0.07 a 2.08,2.08 0 0 1 -0.64,-0.56 2.78,2.78 0 0 1 -0.41,-0.79 v -0.09 a 1.53,1.53 0 0 1 0,-0.26 v -0.15 a 0.38,0.38 0 0 1 0,-0.15 0.28,0.28 0 0 1 0.06,-0.15 0.42,0.42 0 0 1 0.2,-0.16 0.68,0.68 0 0 1 0.23,0 h 5.62 a 3.61,3.61 0 0 0 0.46,0 h 0.42 a 0.59,0.59 0 0 0 0.29,-0.11 0.37,0.37 0 0 0 0.14,-0.26 3.85,3.85 0 0 0 0,-1.12 z m -3,-0.44 a 0.46,0.46 0 0 1 -0.41,0.17 h -3.39 a 0.82,0.82 0 0 1 -0.44,-0.1 0.35,0.35 0 0 1 -0.13,-0.21 0.64,0.64 0 0 1 0,-0.25 1.16,1.16 0 0 1 0.07,-0.26 1.87,1.87 0 0 1 0.09,-0.21 2.14,2.14 0 0 1 1.32,-1.11 l 0.23,-0.07 0.35,-0.06 a 2.17,2.17 0 0 1 1.45,0.33 2.63,2.63 0 0 1 0.75,0.84 c 0,0.09 0.1,0.24 0.17,0.44 a 0.5,0.5 0 0 1 -0.08,0.49 z"
         transform="translate(-433,-487)"
         id="path2387" />
      <path
         style="fill:#a7a8aa"
         inkscape:connector-curvature="0"
         class="bycls-3"
         d="m 837.22,508.24 a 12,12 0 1 0 12,12 12,12 0 0 0 -12,-12 z m -4.12,18.94 a 0.57,0.57 0 0 1 -0.36,0.22 0.66,0.66 0 0 1 -0.3,0 h -1.93 a 0.53,0.53 0 0 1 -0.31,-0.12 0.5,0.5 0 0 1 -0.12,-0.3 v -12.54 -0.66 a 1.07,1.07 0 0 1 0.09,-0.54 0.56,0.56 0 0 1 0.26,-0.2 h 2.36 a 0.38,0.38 0 0 1 0.3,0.15 0.66,0.66 0 0 1 0.11,0.36 v 13.15 a 0.83,0.83 0 0 1 -0.09,0.48 z m 11.9,-6.09 v 5.82 a 0.45,0.45 0 0 1 -0.29,0.45 1,1 0 0 1 -0.29,0 H 843 a 3.23,3.23 0 0 1 -0.43,0 0.43,0.43 0 0 1 -0.29,-0.18 0.6,0.6 0 0 1 -0.09,-0.31 V 522 c 0,-0.5 0,-1 -0.06,-1.39 a 2.26,2.26 0 0 0 -0.36,-1.08 1.45,1.45 0 0 0 -0.67,-0.51 2,2 0 0 0 -0.83,-0.15 1.7,1.7 0 0 0 -0.91,0.21 1.66,1.66 0 0 0 -0.36,0.2 1.88,1.88 0 0 0 -0.77,1.35 14.92,14.92 0 0 0 -0.13,2 v 4.13 a 0.64,0.64 0 0 1 -0.06,0.3 0.41,0.41 0 0 1 -0.33,0.26 3.21,3.21 0 0 1 -0.55,0 h -1.44 a 0.43,0.43 0 0 1 -0.32,-0.14 0.79,0.79 0 0 1 -0.13,-0.52 v -8.88 -0.4 a 0.53,0.53 0 0 1 0.12,-0.31 0.24,0.24 0 0 1 0.13,-0.09 l 0.19,-0.05 h 1.69 a 0.83,0.83 0 0 1 0.27,0.05 0.33,0.33 0 0 1 0.19,0.18 c 0,0.07 0,0.15 0.05,0.24 0.05,0.09 0.12,0.49 0.29,0.51 a 0.28,0.28 0 0 0 0.22,-0.09 1,1 0 0 0 0.14,-0.14 1.89,1.89 0 0 1 0.39,-0.35 l 0.2,-0.13 a 3,3 0 0 1 0.83,-0.36 1.49,1.49 0 0 1 0.34,-0.08 h 0.16 a 4.21,4.21 0 0 1 1.18,-0.05 3.89,3.89 0 0 1 1.46,0.34 2.92,2.92 0 0 1 1.27,1.13 2,2 0 0 1 0.23,0.48 l 0.16,0.51 a 2.58,2.58 0 0 1 0,0.31 1.53,1.53 0 0 0 0,0.28 0.43,0.43 0 0 0 0,0.16 3.67,3.67 0 0 1 0,0.59 c 0.22,0.2 0.22,0.39 0.22,0.58 z m -79,-10.31 a 0.72,0.72 0 0 0 0.27,0 h 1.62 a 0.58,0.58 0 0 0 0.28,-0.09 0.48,0.48 0 0 0 0.15,-0.29 0.8,0.8 0 0 1 0.13,-0.33 c 0,-0.1 0.1,-0.12 0.22,-0.08 l 0.13,0.06 0.12,0.08 0.21,0.18 0.23,0.16 a 2.53,2.53 0 0 0 0.61,0.28 l 0.71,0.2 h 0.58 a 1.19,1.19 0 0 0 0.32,0 0.79,0.79 0 0 0 0.33,0 h 0.44 a 0.79,0.79 0 0 0 0.25,0 l 0.41,-0.11 a 2.18,2.18 0 0 0 0.38,-0.13 3.75,3.75 0 0 0 1.43,-1 6.11,6.11 0 0 0 0.91,-1.58 2.34,2.34 0 0 0 0.15,-0.47 c 0,-0.17 0.07,-0.34 0.11,-0.5 a 1.57,1.57 0 0 0 0,-0.28 1.28,1.28 0 0 0 0,-0.32 1.22,1.22 0 0 1 0,-0.31 0.91,0.91 0 0 1 0,-0.17 1.36,1.36 0 0 0 0,-0.17 3,3 0 0 0 0,-0.42 1.56,1.56 0 0 0 0,-0.41 v -0.14 a 0.8,0.8 0 0 1 0,-0.24 0.52,0.52 0 0 0 0,-0.22 1.63,1.63 0 0 1 0,-0.29 1.45,1.45 0 0 0 0,-0.27 c -0.06,-0.19 -0.11,-0.37 -0.15,-0.55 a 5,5 0 0 0 -0.17,-0.51 5.24,5.24 0 0 0 -1,-1.51 4.45,4.45 0 0 0 -1.51,-1 1.87,1.87 0 0 0 -0.37,-0.11 l -0.42,-0.09 a 0.43,0.43 0 0 0 -0.16,0 0.34,0.34 0 0 1 -0.14,0 h -0.52 a 1.09,1.09 0 0 0 -0.3,0 1.45,1.45 0 0 1 -0.32,0.05 1.08,1.08 0 0 0 -0.32,0.07 4.79,4.79 0 0 0 -0.62,0.23 4,4 0 0 0 -0.55,0.31 l -0.26,0.19 -0.26,0.17 a 0.23,0.23 0 0 1 -0.11,0 0.16,0.16 0 0 1 -0.11,0 0.13,0.13 0 0 1 -0.1,-0.09 v -0.17 a 1.51,1.51 0 0 1 0,-0.38 v -2.64 -0.57 a 1.63,1.63 0 0 0 0,-0.54 0.39,0.39 0 0 0 -0.35,-0.31 5.48,5.48 0 0 0 -0.62,0 h -1.27 a 0.13,0.13 0 0 1 -0.09,0 H 766 a 0.4,0.4 0 0 0 -0.29,0.18 0.64,0.64 0 0 0 -0.1,0.38 v 12.77 a 5.9,5.9 0 0 0 0,0.62 0.42,0.42 0 0 0 0.39,0.36 z m 2.4,-5.35 a 0.53,0.53 0 0 0 0,-0.16 0.42,0.42 0 0 1 0,-0.16 0.83,0.83 0 0 1 0,-0.2 1.87,1.87 0 0 0 0.05,-0.33 1,1 0 0 1 0.07,-0.33 4.89,4.89 0 0 1 0.5,-1.08 1.94,1.94 0 0 1 0.89,-0.73 l 0.24,-0.07 0.26,-0.07 h 0.28 a 2.09,2.09 0 0 1 1.5,0.49 3.34,3.34 0 0 1 0.81,1.21 0.94,0.94 0 0 1 0.1,0.34 1.86,1.86 0 0 0 0.08,0.39 2.28,2.28 0 0 1 0.07,0.53 v 0.63 a 4.4,4.4 0 0 1 -0.06,0.61 3.36,3.36 0 0 1 -0.11,0.5 4.22,4.22 0 0 1 -0.52,1.09 2.08,2.08 0 0 1 -0.87,0.73 1.62,1.62 0 0 1 -0.34,0.09 l -0.37,0.07 a 1,1 0 0 1 -0.24,0 h -0.4 a 2.35,2.35 0 0 1 -0.67,-0.28 2.13,2.13 0 0 1 -0.71,-0.7 4.44,4.44 0 0 1 -0.44,-1 1.07,1.07 0 0 1 -0.07,-0.33 2.24,2.24 0 0 0 -0.05,-0.34 2.29,2.29 0 0 1 -0.06,-0.4 1.44,1.44 0 0 1 0.06,-0.49 z m 17.93,-4.94 a 0.48,0.48 0 0 0 -0.28,-0.12 H 784 a 0.49,0.49 0 0 0 -0.3,0.11 0.47,0.47 0 0 0 -0.19,0.25 l -0.11,0.31 a 4.86,4.86 0 0 0 -0.17,0.53 5.46,5.46 0 0 1 -0.17,0.55 c -0.19,0.57 -0.37,1.12 -0.54,1.68 -0.17,0.56 -0.36,1.11 -0.55,1.68 -0.05,0.16 -0.1,0.33 -0.14,0.49 a 2.86,2.86 0 0 1 -0.16,0.47 l -0.08,0.2 a 1.15,1.15 0 0 1 -0.1,0.2 0.12,0.12 0 0 1 -0.07,0 l -0.07,0.05 a 0.25,0.25 0 0 1 -0.29,-0.18 l -0.13,-0.36 a 2.44,2.44 0 0 1 -0.13,-0.37 l -0.11,-0.38 -0.42,-1.26 c -0.11,-0.3 -0.21,-0.6 -0.3,-0.9 -0.09,-0.3 -0.2,-0.61 -0.3,-0.92 a 7.33,7.33 0 0 1 -0.17,-0.5 3.61,3.61 0 0 0 -0.17,-0.51 c -0.07,-0.19 -0.13,-0.4 -0.19,-0.63 a 0.83,0.83 0 0 0 -0.33,-0.51 0.72,0.72 0 0 0 -0.35,-0.08 h -1.94 a 0.08,0.08 0 0 1 -0.07,0 h -0.07 a 0.32,0.32 0 0 0 -0.26,0.2 0.55,0.55 0 0 0 0,0.4 l 0.13,0.35 a 5.87,5.87 0 0 1 0.27,0.71 5.93,5.93 0 0 0 0.27,0.74 0.18,0.18 0 0 1 0,0.11 0.36,0.36 0 0 0 0,0.13 c 0.22,0.51 0.42,1 0.6,1.57 0.18,0.57 0.38,1.06 0.6,1.58 a 4.48,4.48 0 0 1 0.17,0.48 4.48,4.48 0 0 0 0.17,0.48 c 0.11,0.26 0.2,0.51 0.29,0.77 0.09,0.26 0.18,0.51 0.29,0.77 0.11,0.26 0.21,0.51 0.3,0.77 0.09,0.26 0.18,0.53 0.26,0.8 a 0.58,0.58 0 0 1 0,0.2 0.69,0.69 0 0 0 0,0.2 0.45,0.45 0 0 1 0,0.28 1.55,1.55 0 0 1 -0.88,1.07 0.34,0.34 0 0 1 -0.16,0 0.51,0.51 0 0 0 -0.17,0 h -0.74 a 0.76,0.76 0 0 0 -0.29,0 0.78,0.78 0 0 0 -0.27,0.05 c -0.16,0.06 -0.24,0.23 -0.24,0.48 v 1.21 c 0,0.1 0.05,0.2 0.08,0.27 a 0.36,0.36 0 0 0 0.13,0.19 0.61,0.61 0 0 0 0.25,0.1 h 1.72 a 1.28,1.28 0 0 1 0.32,0 1.3,1.3 0 0 0 0.33,0 c 0.24,-0.07 0.47,-0.14 0.68,-0.22 a 2.24,2.24 0 0 0 0.57,-0.29 2.54,2.54 0 0 0 0.55,-0.5 3.61,3.61 0 0 0 0.38,-0.62 c 0.11,-0.22 0.21,-0.45 0.3,-0.7 0.09,-0.25 0.19,-0.49 0.3,-0.75 a 1.22,1.22 0 0 0 0.1,-0.24 1.3,1.3 0 0 1 0.09,-0.26 c 0.27,-0.66 0.52,-1.33 0.75,-2 0.23,-0.67 0.49,-1.35 0.76,-2 0.07,-0.19 0.14,-0.37 0.2,-0.54 l 0.2,-0.54 c 0.08,-0.2 0.15,-0.41 0.22,-0.62 0.07,-0.21 0.14,-0.41 0.22,-0.61 0.19,-0.47 0.37,-1 0.54,-1.44 0.17,-0.44 0.36,-1 0.55,-1.44 l 0.12,-0.32 a 3.2,3.2 0 0 0 0.1,-0.32 0.35,0.35 0 0 0 0.15,-0.3 z"
         transform="translate(-433,-487)"
         id="path2389" />
    </svg>
  </g>
</svg>
