<svg id="svg" version="1.1" width="400" height="136.8421052631579" viewBox="0 0 400 136.8421052631579" xmlns="http://www.w3.org/2000/svg" xmlns:xlink="http://www.w3.org/1999/xlink" ><g id="svgg"><path id="path0" d="" stroke="none" fill="#000000" fill-rule="evenodd"></path><path id="path1" d="M301.583 37.015 C 301.308 37.099,300.708 37.235,300.250 37.317 C 299.423 37.464,299.021 37.590,297.417 38.202 C 295.711 38.853,293.708 40.031,293.083 40.750 C 292.992 40.855,292.713 41.074,292.464 41.236 C 291.492 41.869,288.833 45.964,288.833 46.829 C 288.833 46.978,288.769 47.171,288.691 47.258 C 288.271 47.726,287.677 51.478,287.677 53.667 C 287.677 59.372,289.749 63.148,295.073 67.144 C 296.067 67.890,296.950 68.500,297.035 68.500 C 297.119 68.500,297.428 68.680,297.719 68.900 C 298.206 69.268,300.644 70.670,303.333 72.129 C 306.032 73.593,307.436 74.386,307.667 74.577 C 307.804 74.690,308.442 75.139,309.083 75.575 C 310.286 76.391,312.408 78.449,312.683 79.067 C 312.769 79.259,313.039 79.754,313.283 80.167 C 313.880 81.176,313.966 84.597,313.425 85.838 C 310.800 91.863,302.747 91.531,299.453 85.262 C 298.903 84.215,298.178 82.143,297.918 80.877 C 297.769 80.146,297.786 80.149,295.995 80.519 C 295.127 80.699,293.972 80.922,293.429 81.015 C 292.886 81.108,292.381 81.221,292.307 81.266 C 292.233 81.312,291.590 81.463,290.878 81.602 C 287.716 82.220,286.580 82.494,286.188 82.737 C 286.091 82.797,286.095 83.072,286.198 83.458 C 288.014 90.268,292.017 95.756,296.811 98.011 C 298.945 99.015,299.475 99.197,301.868 99.744 C 303.423 100.100,309.364 100.104,310.723 99.750 C 311.251 99.612,311.836 99.500,312.024 99.500 C 312.460 99.500,314.700 98.836,314.908 98.645 C 314.995 98.565,315.188 98.500,315.337 98.500 C 315.848 98.500,318.251 97.140,319.750 96.003 C 322.480 93.931,324.691 90.410,325.350 87.083 C 325.422 86.717,325.558 86.079,325.650 85.667 C 326.588 81.491,325.154 75.371,322.408 71.833 C 320.598 69.502,315.474 65.167,314.529 65.167 C 314.422 65.167,314.333 65.110,314.332 65.042 C 314.332 64.973,314.088 64.778,313.791 64.608 C 312.785 64.033,307.756 61.272,306.917 60.834 C 300.311 57.386,298.333 53.935,300.509 49.651 C 300.839 49.002,302.276 47.501,302.569 47.499 C 302.669 47.498,302.969 47.384,303.236 47.244 C 307.242 45.156,312.326 48.346,314.215 54.133 C 314.455 54.867,315.025 55.018,315.984 54.599 C 316.314 54.456,316.883 54.267,317.250 54.181 C 317.617 54.094,318.329 53.899,318.833 53.748 C 319.337 53.596,320.125 53.369,320.583 53.244 C 321.042 53.118,321.942 52.857,322.583 52.664 C 323.225 52.472,324.061 52.239,324.441 52.147 C 325.452 51.903,325.462 51.533,324.528 49.083 C 323.631 46.729,323.399 46.292,321.817 43.991 C 319.404 40.482,315.892 38.283,310.799 37.094 C 309.536 36.799,302.486 36.739,301.583 37.015 M31.700 37.700 C 31.445 37.955,31.405 98.922,31.660 99.079 C 32.156 99.385,42.883 99.385,43.107 99.079 C 43.293 98.825,43.333 96.457,43.333 85.819 C 43.333 74.164,43.360 72.859,43.597 72.768 C 43.941 72.636,59.059 72.636,59.403 72.768 C 59.640 72.859,59.667 74.166,59.667 85.842 L 59.667 98.814 60.037 99.074 C 60.533 99.421,71.184 99.469,71.459 99.125 C 71.694 98.831,71.850 38.387,71.617 37.875 L 71.446 37.500 65.838 37.500 C 61.613 37.500,60.161 37.551,59.949 37.708 C 59.689 37.900,59.663 38.870,59.625 49.917 L 59.583 61.917 51.458 61.960 L 43.333 62.003 43.333 49.952 C 43.333 40.800,43.285 37.852,43.133 37.700 C 42.847 37.414,31.986 37.414,31.700 37.700 M98.095 37.762 C 97.951 37.906,97.833 38.155,97.833 38.316 C 97.833 38.476,97.731 38.939,97.606 39.345 C 97.371 40.107,97.137 41.018,96.730 42.750 C 96.482 43.807,96.149 45.150,95.760 46.667 C 95.631 47.171,95.418 48.033,95.287 48.583 C 95.156 49.133,94.957 49.921,94.845 50.333 C 94.520 51.530,94.213 52.816,93.910 54.250 C 93.755 54.983,93.524 55.886,93.397 56.256 C 93.270 56.625,93.167 57.075,93.167 57.256 C 93.168 57.436,93.057 57.921,92.921 58.333 C 92.784 58.746,92.294 60.658,91.832 62.583 C 91.369 64.508,90.874 66.533,90.733 67.083 C 90.591 67.633,90.375 68.496,90.254 69.000 C 90.132 69.504,89.947 70.254,89.843 70.667 C 89.467 72.157,89.154 73.436,88.923 74.417 C 88.794 74.967,88.566 75.904,88.415 76.500 C 88.265 77.096,88.045 77.996,87.926 78.500 C 87.807 79.004,87.620 79.754,87.509 80.167 C 87.399 80.579,87.196 81.367,87.058 81.917 C 86.787 83.001,86.587 83.826,85.745 87.333 C 85.624 87.837,85.411 88.700,85.271 89.250 C 84.505 92.271,84.080 94.003,83.780 95.333 C 83.646 95.929,83.463 96.604,83.375 96.833 C 82.428 99.288,82.527 99.333,88.819 99.333 L 93.992 99.333 94.260 98.925 C 94.502 98.555,95.013 96.830,95.323 95.333 C 95.390 95.013,95.526 94.487,95.626 94.167 C 96.054 92.792,96.333 91.699,96.333 91.402 C 96.332 91.227,96.436 90.746,96.564 90.333 C 97.174 88.371,97.311 87.866,97.416 87.208 C 97.567 86.267,97.049 86.317,106.000 86.370 L 113.750 86.417 114.136 88.083 C 114.348 89.000,114.622 90.200,114.744 90.750 C 114.866 91.300,115.084 92.237,115.228 92.833 C 115.372 93.429,115.573 94.292,115.675 94.750 C 115.777 95.208,115.967 95.948,116.097 96.394 C 116.227 96.840,116.333 97.373,116.333 97.578 C 116.333 99.288,116.493 99.333,122.469 99.333 C 128.619 99.333,128.389 99.433,127.658 97.083 C 127.572 96.808,127.238 95.458,126.915 94.083 C 126.593 92.708,126.247 91.246,126.147 90.833 C 126.047 90.421,125.859 89.633,125.730 89.083 C 125.601 88.533,125.381 87.633,125.242 87.083 C 125.102 86.533,124.917 85.709,124.831 85.252 C 124.745 84.795,124.604 84.232,124.517 84.002 C 124.431 83.772,124.200 82.833,124.005 81.917 C 123.809 81.000,123.541 79.885,123.408 79.439 C 123.275 78.993,123.167 78.512,123.167 78.371 C 123.167 78.229,123.059 77.731,122.928 77.265 C 122.614 76.153,122.036 73.798,121.554 71.667 C 121.419 71.071,121.199 70.133,121.064 69.583 C 120.929 69.033,120.712 68.133,120.580 67.583 C 120.449 67.033,120.230 66.133,120.093 65.583 C 119.956 65.033,119.762 64.208,119.663 63.750 C 119.563 63.292,119.380 62.542,119.256 62.083 C 119.132 61.625,118.908 60.688,118.757 60.000 C 118.606 59.313,118.377 58.337,118.248 57.833 C 118.119 57.329,117.854 56.204,117.658 55.333 C 117.463 54.462,117.241 53.591,117.165 53.397 C 117.089 53.202,116.974 52.677,116.909 52.230 C 116.844 51.783,116.720 51.280,116.634 51.114 C 116.547 50.947,116.410 50.460,116.328 50.031 C 116.024 48.425,115.478 46.044,115.079 44.583 C 114.673 43.093,114.478 42.266,114.315 41.353 C 114.227 40.860,114.092 40.335,114.016 40.187 C 113.939 40.038,113.825 39.566,113.763 39.137 C 113.701 38.708,113.498 38.164,113.313 37.928 L 112.976 37.500 105.666 37.500 C 99.244 37.500,98.325 37.532,98.095 37.762 M138.700 37.700 C 138.447 37.953,138.411 98.600,138.663 99.000 C 138.799 99.214,139.647 99.250,144.619 99.250 L 150.417 99.250 150.519 91.083 C 150.575 86.592,150.631 80.985,150.644 78.625 L 150.667 74.333 153.337 74.333 C 156.349 74.333,155.934 74.142,156.586 75.833 C 156.908 76.668,157.166 77.298,157.540 78.167 C 157.678 78.487,157.927 79.087,158.092 79.500 C 158.257 79.912,158.529 80.565,158.696 80.949 C 158.863 81.334,159.000 81.721,159.000 81.811 C 159.000 81.900,159.106 82.185,159.236 82.445 C 159.614 83.203,160.729 85.882,161.826 88.667 C 162.024 89.171,162.287 89.808,162.410 90.083 C 162.904 91.188,163.157 91.791,163.496 92.667 C 163.691 93.171,163.913 93.733,163.989 93.917 C 164.065 94.100,164.262 94.587,164.426 95.000 C 164.591 95.412,164.852 96.050,165.005 96.417 C 165.159 96.783,165.457 97.508,165.667 98.027 C 166.223 99.400,165.961 99.352,172.618 99.298 C 178.896 99.247,179.082 99.221,178.706 98.462 C 178.411 97.867,177.833 96.527,177.833 96.437 C 177.833 96.393,177.621 95.883,177.362 95.303 C 177.102 94.724,176.753 93.912,176.586 93.500 C 176.418 93.087,176.068 92.281,175.807 91.708 C 175.547 91.135,175.333 90.584,175.333 90.484 C 175.333 90.383,175.232 90.102,175.109 89.859 C 174.683 89.022,174.344 88.248,174.000 87.333 C 173.811 86.829,173.553 86.192,173.428 85.917 C 173.214 85.448,172.915 84.766,172.407 83.583 C 171.948 82.518,171.674 81.863,171.083 80.417 C 170.745 79.592,170.351 78.654,170.206 78.333 C 170.062 78.012,169.851 77.525,169.738 77.250 C 169.497 76.661,169.095 75.716,168.763 74.958 C 168.633 74.660,168.324 73.892,168.077 73.250 C 167.830 72.608,167.603 72.039,167.571 71.985 C 167.540 71.932,168.148 71.566,168.922 71.174 C 171.482 69.875,173.517 67.851,174.734 65.391 C 175.090 64.672,175.456 63.936,175.547 63.757 C 177.486 59.941,176.786 49.651,174.333 45.917 C 174.153 45.642,173.936 45.267,173.851 45.083 C 173.367 44.037,170.280 41.000,169.700 41.000 C 169.612 41.000,169.463 40.906,169.368 40.791 C 169.090 40.457,165.743 38.833,165.332 38.833 C 165.230 38.833,164.794 38.728,164.365 38.600 C 162.962 38.181,161.118 37.847,159.250 37.671 C 156.549 37.418,138.957 37.443,138.700 37.700 M186.279 37.875 C 186.173 38.318,186.388 39.401,187.082 41.917 C 187.209 42.375,187.430 43.181,187.573 43.708 C 187.716 44.235,187.942 45.060,188.074 45.542 C 188.206 46.023,188.398 46.754,188.499 47.167 C 188.686 47.925,188.936 48.926,189.392 50.750 C 189.530 51.300,189.806 52.350,190.006 53.083 C 190.205 53.817,190.423 54.679,190.490 55.000 C 190.556 55.321,190.696 55.846,190.800 56.167 C 190.904 56.487,191.185 57.538,191.424 58.500 C 192.210 61.667,192.313 62.074,192.566 63.000 C 192.703 63.504,192.899 64.254,193.001 64.667 C 193.102 65.079,193.291 65.792,193.419 66.250 C 193.659 67.109,194.365 69.883,194.754 71.500 C 194.876 72.004,195.100 72.867,195.253 73.417 C 195.406 73.967,195.629 74.842,195.747 75.361 C 195.866 75.880,196.013 76.387,196.075 76.486 C 196.136 76.586,196.251 77.024,196.330 77.459 C 196.409 77.894,196.637 78.850,196.838 79.583 C 197.038 80.317,197.261 81.179,197.333 81.500 C 197.405 81.821,197.628 82.683,197.829 83.417 C 198.351 85.329,198.640 86.443,198.908 87.583 C 199.037 88.133,199.306 89.183,199.506 89.917 C 199.705 90.650,199.928 91.513,200.000 91.833 C 200.072 92.154,200.293 93.017,200.490 93.750 C 201.238 96.532,201.663 98.260,201.665 98.532 C 201.670 99.293,202.020 99.333,208.685 99.333 C 215.803 99.333,215.545 99.382,215.814 98.000 C 216.052 96.776,216.448 95.189,217.071 92.957 C 217.347 91.965,217.593 90.995,217.904 89.667 C 218.134 88.681,218.388 87.728,218.764 86.439 C 218.894 85.993,219.000 85.482,219.000 85.303 C 219.000 85.124,219.073 84.843,219.161 84.677 C 219.305 84.408,219.479 83.725,219.998 81.387 C 220.083 81.004,220.261 80.329,220.394 79.887 C 220.744 78.727,221.084 77.429,221.414 76.000 C 221.573 75.313,221.814 74.337,221.950 73.833 C 222.086 73.329,222.299 72.542,222.423 72.083 C 222.860 70.461,223.046 69.739,223.280 68.750 C 223.609 67.362,223.919 66.144,224.341 64.583 C 224.540 63.850,224.758 62.987,224.826 62.667 C 224.953 62.073,225.169 61.242,225.585 59.750 C 225.991 58.294,226.299 57.109,226.494 56.250 C 226.723 55.239,227.063 53.898,227.401 52.667 C 227.540 52.163,227.739 51.413,227.844 51.000 C 227.948 50.587,228.136 49.875,228.261 49.417 C 228.386 48.958,228.612 48.021,228.763 47.333 C 228.914 46.646,229.136 45.783,229.257 45.417 C 229.377 45.050,229.525 44.432,229.585 44.043 C 229.646 43.653,229.755 43.298,229.829 43.253 C 229.902 43.208,230.013 42.814,230.077 42.377 C 230.140 41.941,230.294 41.246,230.419 40.833 C 231.546 37.118,232.137 37.500,225.264 37.500 L 219.551 37.500 219.270 38.125 C 219.116 38.469,218.922 39.125,218.839 39.583 C 218.694 40.377,218.582 40.844,218.080 42.750 C 217.868 43.555,217.731 44.115,217.230 46.250 C 217.101 46.800,216.881 47.700,216.741 48.250 C 216.600 48.800,216.414 49.688,216.326 50.224 C 216.239 50.760,216.118 51.278,216.057 51.375 C 215.997 51.473,215.841 52.010,215.711 52.568 C 215.581 53.126,215.376 53.996,215.255 54.500 C 215.134 55.004,214.946 55.792,214.836 56.250 C 214.727 56.708,214.556 57.346,214.456 57.667 C 214.356 57.987,214.222 58.550,214.159 58.917 C 214.096 59.283,213.952 59.958,213.839 60.417 C 213.726 60.875,213.535 61.663,213.413 62.167 C 213.291 62.671,213.101 63.421,212.991 63.833 C 212.880 64.246,212.685 65.033,212.557 65.583 C 212.187 67.177,211.867 68.507,211.596 69.583 C 211.458 70.133,211.261 70.958,211.160 71.417 C 210.984 72.210,210.817 72.898,210.250 75.167 C 210.112 75.717,209.892 76.598,209.761 77.125 C 208.716 81.309,208.634 81.509,208.458 80.293 C 208.374 79.711,206.972 74.116,206.574 72.773 C 206.442 72.327,206.333 71.816,206.333 71.637 C 206.333 71.459,206.230 70.961,206.104 70.531 C 205.849 69.665,205.526 68.393,205.333 67.500 C 205.264 67.179,205.021 66.204,204.793 65.333 C 204.565 64.462,204.247 63.150,204.086 62.417 C 203.926 61.683,203.722 60.821,203.633 60.500 C 203.460 59.872,203.109 58.473,202.755 57.000 C 202.243 54.867,202.122 54.366,201.888 53.417 C 201.752 52.867,201.542 52.004,201.420 51.500 C 201.299 50.996,201.114 50.246,201.010 49.833 C 200.432 47.542,200.305 47.001,200.150 46.167 C 200.056 45.663,199.911 45.100,199.829 44.917 C 199.746 44.733,199.605 44.208,199.515 43.750 C 199.338 42.845,199.097 41.874,198.733 40.606 C 198.605 40.160,198.500 39.626,198.500 39.419 C 198.500 39.212,198.346 38.695,198.159 38.271 L 197.818 37.500 192.094 37.500 L 186.369 37.500 186.279 37.875 M241.671 37.826 C 241.550 38.052,241.531 47.511,241.609 68.590 L 241.722 99.029 242.122 99.181 C 242.766 99.426,274.387 99.380,274.633 99.133 C 274.845 98.922,274.937 89.463,274.732 88.930 C 274.641 88.694,273.563 88.667,264.252 88.667 C 254.101 88.667,253.870 88.660,253.787 88.342 C 253.740 88.163,253.743 84.563,253.793 80.342 L 253.884 72.667 261.345 72.667 C 265.449 72.667,268.925 72.621,269.070 72.566 C 269.520 72.393,269.463 62.415,269.011 62.173 C 268.803 62.061,266.062 62.000,261.261 62.000 L 253.833 62.000 253.833 55.167 L 253.833 48.333 263.800 48.333 C 271.330 48.333,273.816 48.284,273.967 48.133 C 274.113 47.987,274.167 46.596,274.167 42.917 C 274.167 39.237,274.113 37.847,273.967 37.700 C 273.567 37.300,241.886 37.424,241.671 37.826 M336.792 37.680 C 336.335 37.946,336.346 47.642,336.803 48.056 C 337.071 48.298,337.848 48.334,343.594 48.373 L 350.083 48.417 350.167 73.638 C 350.248 98.363,350.256 98.865,350.574 99.097 C 351.020 99.423,361.738 99.450,361.948 99.125 C 362.023 99.010,362.121 87.554,362.167 73.667 L 362.250 48.417 368.908 48.373 C 373.980 48.340,375.597 48.280,375.697 48.123 C 375.850 47.883,375.883 38.156,375.732 37.764 C 375.609 37.443,337.339 37.361,336.792 37.680 M159.051 47.866 C 159.674 48.004,160.270 48.204,160.376 48.309 C 160.481 48.414,160.672 48.500,160.801 48.500 C 161.071 48.500,162.192 49.353,162.880 50.083 C 164.954 52.284,165.223 58.896,163.333 61.222 C 161.234 63.805,160.175 64.167,154.714 64.167 L 150.667 64.167 150.667 55.944 C 150.667 51.422,150.721 47.668,150.787 47.602 C 151.009 47.380,157.845 47.598,159.051 47.866 M105.989 53.292 C 106.187 54.185,106.451 55.329,106.575 55.833 C 106.937 57.302,107.184 58.341,107.445 59.500 C 107.764 60.910,108.136 62.502,108.439 63.750 C 108.572 64.300,108.790 65.275,108.923 65.917 C 109.056 66.558,109.275 67.533,109.410 68.083 C 109.545 68.633,109.739 69.458,109.840 69.917 C 110.016 70.708,110.213 71.538,110.671 73.417 C 111.090 75.134,111.143 75.578,110.943 75.705 C 110.517 75.976,100.164 75.853,100.057 75.576 C 99.962 75.326,100.049 74.829,100.557 72.750 C 100.692 72.200,100.962 71.037,101.158 70.167 C 101.355 69.296,101.583 68.283,101.666 67.917 C 101.749 67.550,101.902 66.875,102.005 66.417 C 102.108 65.958,102.293 65.208,102.416 64.750 C 102.694 63.714,103.085 62.066,103.770 59.042 C 103.900 58.470,104.115 57.532,104.249 56.959 C 104.382 56.386,104.605 55.418,104.743 54.809 C 104.882 54.199,105.071 53.501,105.164 53.256 C 105.257 53.012,105.333 52.604,105.333 52.350 C 105.333 51.961,105.445 51.667,105.592 51.667 C 105.613 51.667,105.791 52.398,105.989 53.292 " stroke="none" fill="#ffffff" fill-rule="evenodd"></path><path id="path2" d="M397.262 134.095 C 396.937 134.420,396.929 134.517,397.237 134.399 C 397.368 134.349,397.515 134.201,397.565 134.070 C 397.683 133.762,397.587 133.770,397.262 134.095 " stroke="none" fill="#993300" fill-rule="evenodd"></path><path id="path3" d="" stroke="none" fill="#ff0000" fill-rule="evenodd"></path><path id="path4" d="M6.667 0.156 C 6.667 0.242,6.423 0.336,6.125 0.364 C 5.801 0.396,5.600 0.500,5.625 0.625 C 5.652 0.760,5.461 0.833,5.083 0.833 C 4.676 0.833,4.500 0.909,4.500 1.083 C 4.500 1.221,4.387 1.333,4.250 1.333 C 4.112 1.333,4.000 1.446,4.000 1.583 C 4.000 1.721,3.891 1.833,3.758 1.833 C 3.443 1.833,1.833 3.443,1.833 3.758 C 1.833 3.891,1.721 4.000,1.583 4.000 C 1.446 4.000,1.333 4.112,1.333 4.250 C 1.333 4.387,1.221 4.500,1.083 4.500 C 0.909 4.500,0.833 4.676,0.833 5.083 C 0.833 5.461,0.760 5.652,0.625 5.625 C 0.500 5.600,0.396 5.801,0.364 6.125 C 0.336 6.423,0.242 6.667,0.156 6.667 C 0.059 6.667,0.000 30.114,0.000 68.333 C 0.000 109.333,0.056 130.000,0.167 130.000 C 0.258 130.000,0.333 130.227,0.333 130.505 C 0.333 130.801,0.437 131.050,0.583 131.106 C 0.727 131.161,0.833 131.410,0.833 131.690 C 0.833 131.969,0.940 132.218,1.083 132.273 C 1.221 132.326,1.333 132.473,1.333 132.601 C 1.333 132.729,1.446 132.833,1.583 132.833 C 1.721 132.833,1.833 132.911,1.833 133.007 C 1.833 133.256,2.140 133.612,3.031 134.402 C 3.278 134.620,3.434 134.844,3.379 134.899 C 3.323 134.955,3.440 135.000,3.639 135.000 C 3.849 135.000,4.000 135.105,4.000 135.250 C 4.000 135.387,4.104 135.500,4.232 135.500 C 4.360 135.500,4.508 135.612,4.560 135.750 C 4.615 135.893,4.864 136.000,5.144 136.000 C 5.423 136.000,5.672 136.107,5.727 136.250 C 5.787 136.407,6.042 136.500,6.411 136.500 C 6.735 136.500,7.000 136.575,7.000 136.667 C 7.000 136.778,71.472 136.833,200.083 136.833 C 328.694 136.833,393.167 136.778,393.167 136.667 C 393.167 136.575,393.429 136.500,393.750 136.500 C 394.157 136.500,394.333 136.425,394.333 136.250 C 394.333 136.083,394.501 136.000,394.839 136.000 C 395.134 136.000,395.384 135.896,395.440 135.750 C 395.492 135.613,395.640 135.500,395.768 135.500 C 395.896 135.500,396.000 135.396,396.000 135.268 C 396.000 135.141,396.174 134.993,396.386 134.939 C 396.598 134.886,396.869 134.661,396.988 134.440 C 397.106 134.218,397.385 133.940,397.606 133.821 C 397.828 133.703,398.053 133.432,398.106 133.219 C 398.159 133.007,398.307 132.833,398.435 132.833 C 398.562 132.833,398.667 132.729,398.667 132.601 C 398.667 132.473,398.779 132.326,398.917 132.273 C 399.054 132.220,399.167 131.987,399.167 131.755 C 399.167 131.491,399.260 131.333,399.417 131.333 C 399.597 131.333,399.667 131.148,399.667 130.667 C 399.667 130.300,399.742 130.000,399.833 130.000 C 399.944 130.000,400.000 109.333,400.000 68.333 C 400.000 30.114,399.941 6.667,399.844 6.667 C 399.758 6.667,399.664 6.423,399.636 6.125 C 399.604 5.801,399.500 5.600,399.375 5.625 C 399.245 5.651,399.167 5.477,399.167 5.161 C 399.167 4.866,399.063 4.616,398.917 4.560 C 398.779 4.508,398.667 4.360,398.667 4.232 C 398.667 4.104,398.564 4.000,398.438 4.000 C 398.311 4.000,398.163 3.775,398.108 3.500 C 398.050 3.207,397.903 3.000,397.754 3.000 C 397.614 3.000,397.500 2.925,397.500 2.833 C 397.500 2.558,396.871 2.016,396.421 1.903 C 396.189 1.845,396.000 1.693,396.000 1.565 C 396.000 1.438,395.896 1.333,395.768 1.333 C 395.640 1.333,395.492 1.221,395.440 1.083 C 395.387 0.946,395.162 0.833,394.940 0.833 C 394.717 0.833,394.492 0.721,394.440 0.583 C 394.384 0.437,394.134 0.333,393.839 0.333 C 393.561 0.333,393.333 0.258,393.333 0.167 C 393.333 0.056,328.778 0.000,200.000 0.000 C 79.941 0.000,6.667 0.059,6.667 0.156 M310.799 37.094 C 315.892 38.283,319.404 40.482,321.817 43.991 C 323.399 46.292,323.631 46.729,324.528 49.083 C 325.462 51.533,325.452 51.903,324.441 52.147 C 324.061 52.239,323.225 52.472,322.583 52.664 C 321.942 52.857,321.042 53.118,320.583 53.244 C 320.125 53.369,319.337 53.596,318.833 53.748 C 318.329 53.899,317.617 54.094,317.250 54.181 C 316.883 54.267,316.314 54.456,315.984 54.599 C 315.025 55.018,314.455 54.867,314.215 54.133 C 312.326 48.346,307.242 45.156,303.236 47.244 C 302.969 47.384,302.669 47.498,302.569 47.499 C 302.276 47.501,300.839 49.002,300.509 49.651 C 298.333 53.935,300.311 57.386,306.917 60.834 C 307.756 61.272,312.785 64.033,313.791 64.608 C 314.088 64.778,314.332 64.973,314.332 65.042 C 314.333 65.110,314.422 65.167,314.529 65.167 C 315.474 65.167,320.598 69.502,322.408 71.833 C 325.154 75.371,326.588 81.491,325.650 85.667 C 325.558 86.079,325.422 86.717,325.350 87.083 C 324.691 90.410,322.480 93.931,319.750 96.003 C 318.251 97.140,315.848 98.500,315.337 98.500 C 315.188 98.500,314.995 98.565,314.908 98.645 C 314.700 98.836,312.460 99.500,312.024 99.500 C 311.836 99.500,311.251 99.612,310.723 99.750 C 309.364 100.104,303.423 100.100,301.868 99.744 C 299.475 99.197,298.945 99.015,296.811 98.011 C 292.017 95.756,288.014 90.268,286.198 83.458 C 286.095 83.072,286.091 82.797,286.188 82.737 C 286.580 82.494,287.716 82.220,290.878 81.602 C 291.590 81.463,292.233 81.312,292.307 81.266 C 292.381 81.221,292.886 81.108,293.429 81.015 C 293.972 80.922,295.127 80.699,295.995 80.519 C 297.786 80.149,297.769 80.146,297.918 80.877 C 298.178 82.143,298.903 84.215,299.453 85.262 C 302.747 91.531,310.800 91.863,313.425 85.838 C 313.966 84.597,313.880 81.176,313.283 80.167 C 313.039 79.754,312.769 79.259,312.683 79.067 C 312.408 78.449,310.286 76.391,309.083 75.575 C 308.442 75.139,307.804 74.690,307.667 74.577 C 307.436 74.386,306.032 73.593,303.333 72.129 C 300.644 70.670,298.206 69.268,297.719 68.900 C 297.428 68.680,297.119 68.500,297.035 68.500 C 296.950 68.500,296.067 67.890,295.073 67.144 C 289.749 63.148,287.677 59.372,287.677 53.667 C 287.677 51.478,288.271 47.726,288.691 47.258 C 288.769 47.171,288.833 46.978,288.833 46.829 C 288.833 45.964,291.492 41.869,292.464 41.236 C 292.713 41.074,292.992 40.855,293.083 40.750 C 293.708 40.031,295.711 38.853,297.417 38.202 C 299.021 37.590,299.423 37.464,300.250 37.317 C 300.708 37.235,301.308 37.099,301.583 37.015 C 302.486 36.739,309.536 36.799,310.799 37.094 M43.133 37.700 C 43.285 37.852,43.333 40.800,43.333 49.952 L 43.333 62.003 51.458 61.960 L 59.583 61.917 59.625 49.917 C 59.663 38.870,59.689 37.900,59.949 37.708 C 60.161 37.551,61.613 37.500,65.838 37.500 L 71.446 37.500 71.617 37.875 C 71.850 38.387,71.694 98.831,71.459 99.125 C 71.184 99.469,60.533 99.421,60.037 99.074 L 59.667 98.814 59.667 85.842 C 59.667 74.166,59.640 72.859,59.403 72.768 C 59.059 72.636,43.941 72.636,43.597 72.768 C 43.360 72.859,43.333 74.164,43.333 85.819 C 43.333 96.457,43.293 98.825,43.107 99.079 C 42.883 99.385,32.156 99.385,31.660 99.079 C 31.405 98.922,31.445 37.955,31.700 37.700 C 31.986 37.414,42.847 37.414,43.133 37.700 M113.313 37.928 C 113.498 38.164,113.701 38.708,113.763 39.137 C 113.825 39.566,113.939 40.038,114.016 40.187 C 114.092 40.335,114.227 40.860,114.315 41.353 C 114.478 42.266,114.673 43.093,115.079 44.583 C 115.478 46.044,116.024 48.425,116.328 50.031 C 116.410 50.460,116.547 50.947,116.634 51.114 C 116.720 51.280,116.844 51.783,116.909 52.230 C 116.974 52.677,117.089 53.202,117.165 53.397 C 117.241 53.591,117.463 54.462,117.658 55.333 C 117.854 56.204,118.119 57.329,118.248 57.833 C 118.377 58.337,118.606 59.313,118.757 60.000 C 118.908 60.688,119.132 61.625,119.256 62.083 C 119.380 62.542,119.563 63.292,119.663 63.750 C 119.762 64.208,119.956 65.033,120.093 65.583 C 120.230 66.133,120.449 67.033,120.580 67.583 C 120.712 68.133,120.929 69.033,121.064 69.583 C 121.199 70.133,121.419 71.071,121.554 71.667 C 122.036 73.798,122.614 76.153,122.928 77.265 C 123.059 77.731,123.167 78.229,123.167 78.371 C 123.167 78.512,123.275 78.993,123.408 79.439 C 123.541 79.885,123.809 81.000,124.005 81.917 C 124.200 82.833,124.431 83.772,124.517 84.002 C 124.604 84.232,124.745 84.795,124.831 85.252 C 124.917 85.709,125.102 86.533,125.242 87.083 C 125.381 87.633,125.601 88.533,125.730 89.083 C 125.859 89.633,126.047 90.421,126.147 90.833 C 126.247 91.246,126.593 92.708,126.915 94.083 C 127.238 95.458,127.572 96.808,127.658 97.083 C 128.389 99.433,128.619 99.333,122.469 99.333 C 116.493 99.333,116.333 99.288,116.333 97.578 C 116.333 97.373,116.227 96.840,116.097 96.394 C 115.967 95.948,115.777 95.208,115.675 94.750 C 115.573 94.292,115.372 93.429,115.228 92.833 C 115.084 92.237,114.866 91.300,114.744 90.750 C 114.622 90.200,114.348 89.000,114.136 88.083 L 113.750 86.417 106.000 86.370 C 97.049 86.317,97.567 86.267,97.416 87.208 C 97.311 87.866,97.174 88.371,96.564 90.333 C 96.436 90.746,96.332 91.227,96.333 91.402 C 96.333 91.699,96.054 92.792,95.626 94.167 C 95.526 94.487,95.390 95.013,95.323 95.333 C 95.013 96.830,94.502 98.555,94.260 98.925 L 93.992 99.333 88.819 99.333 C 82.527 99.333,82.428 99.288,83.375 96.833 C 83.463 96.604,83.646 95.929,83.780 95.333 C 84.080 94.003,84.505 92.271,85.271 89.250 C 85.411 88.700,85.624 87.837,85.745 87.333 C 86.587 83.826,86.787 83.001,87.058 81.917 C 87.196 81.367,87.399 80.579,87.509 80.167 C 87.620 79.754,87.807 79.004,87.926 78.500 C 88.045 77.996,88.265 77.096,88.415 76.500 C 88.566 75.904,88.794 74.967,88.923 74.417 C 89.154 73.436,89.467 72.157,89.843 70.667 C 89.947 70.254,90.132 69.504,90.254 69.000 C 90.375 68.496,90.591 67.633,90.733 67.083 C 90.874 66.533,91.369 64.508,91.832 62.583 C 92.294 60.658,92.784 58.746,92.921 58.333 C 93.057 57.921,93.168 57.436,93.167 57.256 C 93.167 57.075,93.270 56.625,93.397 56.256 C 93.524 55.886,93.755 54.983,93.910 54.250 C 94.213 52.816,94.520 51.530,94.845 50.333 C 94.957 49.921,95.156 49.133,95.287 48.583 C 95.418 48.033,95.631 47.171,95.760 46.667 C 96.149 45.150,96.482 43.807,96.730 42.750 C 97.137 41.018,97.371 40.107,97.606 39.345 C 97.731 38.939,97.833 38.476,97.833 38.316 C 97.833 37.502,97.849 37.500,105.666 37.500 L 112.976 37.500 113.313 37.928 M159.250 37.671 C 161.118 37.847,162.962 38.181,164.365 38.600 C 164.794 38.728,165.230 38.833,165.332 38.833 C 165.743 38.833,169.090 40.457,169.368 40.791 C 169.463 40.906,169.612 41.000,169.700 41.000 C 170.280 41.000,173.367 44.037,173.851 45.083 C 173.936 45.267,174.153 45.642,174.333 45.917 C 176.786 49.651,177.486 59.941,175.547 63.757 C 175.456 63.936,175.090 64.672,174.734 65.391 C 173.517 67.851,171.482 69.875,168.922 71.174 C 168.148 71.566,167.540 71.932,167.571 71.985 C 167.603 72.039,167.830 72.608,168.077 73.250 C 168.324 73.892,168.633 74.660,168.763 74.958 C 169.095 75.716,169.497 76.661,169.738 77.250 C 169.851 77.525,170.062 78.012,170.206 78.333 C 170.351 78.654,170.745 79.592,171.083 80.417 C 171.674 81.863,171.948 82.518,172.407 83.583 C 172.915 84.766,173.214 85.448,173.428 85.917 C 173.553 86.192,173.811 86.829,174.000 87.333 C 174.344 88.248,174.683 89.022,175.109 89.859 C 175.232 90.102,175.333 90.383,175.333 90.484 C 175.333 90.584,175.547 91.135,175.807 91.708 C 176.068 92.281,176.418 93.087,176.586 93.500 C 176.753 93.912,177.102 94.724,177.362 95.303 C 177.621 95.883,177.833 96.393,177.833 96.437 C 177.833 96.527,178.411 97.867,178.706 98.462 C 179.082 99.221,178.896 99.247,172.618 99.298 C 165.961 99.352,166.223 99.400,165.667 98.027 C 165.457 97.508,165.159 96.783,165.005 96.417 C 164.852 96.050,164.591 95.412,164.426 95.000 C 164.262 94.587,164.065 94.100,163.989 93.917 C 163.913 93.733,163.691 93.171,163.496 92.667 C 163.157 91.791,162.904 91.188,162.410 90.083 C 162.287 89.808,162.024 89.171,161.826 88.667 C 160.729 85.882,159.614 83.203,159.236 82.445 C 159.106 82.185,159.000 81.900,159.000 81.811 C 159.000 81.721,158.863 81.334,158.696 80.949 C 158.529 80.565,158.257 79.912,158.092 79.500 C 157.927 79.087,157.678 78.487,157.540 78.167 C 157.166 77.298,156.908 76.668,156.586 75.833 C 155.934 74.142,156.349 74.333,153.337 74.333 L 150.667 74.333 150.644 78.625 C 150.631 80.985,150.575 86.592,150.519 91.083 L 150.417 99.250 144.619 99.250 C 139.647 99.250,138.799 99.214,138.663 99.000 C 138.411 98.600,138.447 37.953,138.700 37.700 C 138.957 37.443,156.549 37.418,159.250 37.671 M198.159 38.271 C 198.346 38.695,198.500 39.212,198.500 39.419 C 198.500 39.626,198.605 40.160,198.733 40.606 C 199.097 41.874,199.338 42.845,199.515 43.750 C 199.605 44.208,199.746 44.733,199.829 44.917 C 199.911 45.100,200.056 45.663,200.150 46.167 C 200.305 47.001,200.432 47.542,201.010 49.833 C 201.114 50.246,201.299 50.996,201.420 51.500 C 201.542 52.004,201.752 52.867,201.888 53.417 C 202.122 54.366,202.243 54.867,202.755 57.000 C 203.109 58.473,203.460 59.872,203.633 60.500 C 203.722 60.821,203.926 61.683,204.086 62.417 C 204.247 63.150,204.565 64.462,204.793 65.333 C 205.021 66.204,205.264 67.179,205.333 67.500 C 205.526 68.393,205.849 69.665,206.104 70.531 C 206.230 70.961,206.333 71.459,206.333 71.637 C 206.333 71.816,206.442 72.327,206.574 72.773 C 206.972 74.116,208.374 79.711,208.458 80.293 C 208.634 81.509,208.716 81.309,209.761 77.125 C 209.892 76.598,210.112 75.717,210.250 75.167 C 210.817 72.898,210.984 72.210,211.160 71.417 C 211.261 70.958,211.458 70.133,211.596 69.583 C 211.867 68.507,212.187 67.177,212.557 65.583 C 212.685 65.033,212.880 64.246,212.991 63.833 C 213.101 63.421,213.291 62.671,213.413 62.167 C 213.535 61.663,213.726 60.875,213.839 60.417 C 213.952 59.958,214.096 59.283,214.159 58.917 C 214.222 58.550,214.356 57.987,214.456 57.667 C 214.556 57.346,214.727 56.708,214.836 56.250 C 214.946 55.792,215.134 55.004,215.255 54.500 C 215.376 53.996,215.581 53.126,215.711 52.568 C 215.841 52.010,215.997 51.473,216.057 51.375 C 216.118 51.278,216.239 50.760,216.326 50.224 C 216.414 49.688,216.600 48.800,216.741 48.250 C 216.881 47.700,217.101 46.800,217.230 46.250 C 217.731 44.115,217.868 43.555,218.080 42.750 C 218.582 40.844,218.694 40.377,218.839 39.583 C 218.922 39.125,219.116 38.469,219.270 38.125 L 219.551 37.500 225.264 37.500 C 232.137 37.500,231.546 37.118,230.419 40.833 C 230.294 41.246,230.140 41.941,230.077 42.377 C 230.013 42.814,229.902 43.208,229.829 43.253 C 229.755 43.298,229.646 43.653,229.585 44.043 C 229.525 44.432,229.377 45.050,229.257 45.417 C 229.136 45.783,228.914 46.646,228.763 47.333 C 228.612 48.021,228.386 48.958,228.261 49.417 C 228.136 49.875,227.948 50.587,227.844 51.000 C 227.739 51.413,227.540 52.163,227.401 52.667 C 227.063 53.898,226.723 55.239,226.494 56.250 C 226.299 57.109,225.991 58.294,225.585 59.750 C 225.169 61.242,224.953 62.073,224.826 62.667 C 224.758 62.987,224.540 63.850,224.341 64.583 C 223.919 66.144,223.609 67.362,223.280 68.750 C 223.046 69.739,222.860 70.461,222.423 72.083 C 222.299 72.542,222.086 73.329,221.950 73.833 C 221.814 74.337,221.573 75.313,221.414 76.000 C 221.084 77.429,220.744 78.727,220.394 79.887 C 220.261 80.329,220.083 81.004,219.998 81.387 C 219.479 83.725,219.305 84.408,219.161 84.677 C 219.073 84.843,219.000 85.124,219.000 85.303 C 219.000 85.482,218.894 85.993,218.764 86.439 C 218.388 87.728,218.134 88.681,217.904 89.667 C 217.593 90.995,217.347 91.965,217.071 92.957 C 216.448 95.189,216.052 96.776,215.814 98.000 C 215.545 99.382,215.803 99.333,208.685 99.333 C 202.020 99.333,201.670 99.293,201.665 98.532 C 201.663 98.260,201.238 96.532,200.490 93.750 C 200.293 93.017,200.072 92.154,200.000 91.833 C 199.928 91.513,199.705 90.650,199.506 89.917 C 199.306 89.183,199.037 88.133,198.908 87.583 C 198.640 86.443,198.351 85.329,197.829 83.417 C 197.628 82.683,197.405 81.821,197.333 81.500 C 197.261 81.179,197.038 80.317,196.838 79.583 C 196.637 78.850,196.409 77.894,196.330 77.459 C 196.251 77.024,196.136 76.586,196.075 76.486 C 196.013 76.387,195.866 75.880,195.747 75.361 C 195.629 74.842,195.406 73.967,195.253 73.417 C 195.100 72.867,194.876 72.004,194.754 71.500 C 194.365 69.883,193.659 67.109,193.419 66.250 C 193.291 65.792,193.102 65.079,193.001 64.667 C 192.899 64.254,192.703 63.504,192.566 63.000 C 192.313 62.074,192.210 61.667,191.424 58.500 C 191.185 57.538,190.904 56.487,190.800 56.167 C 190.696 55.846,190.556 55.321,190.490 55.000 C 190.423 54.679,190.205 53.817,190.006 53.083 C 189.806 52.350,189.530 51.300,189.392 50.750 C 188.936 48.926,188.686 47.925,188.499 47.167 C 188.398 46.754,188.206 46.023,188.074 45.542 C 187.942 45.060,187.716 44.235,187.573 43.708 C 187.430 43.181,187.209 42.375,187.082 41.917 C 186.388 39.401,186.173 38.318,186.279 37.875 L 186.369 37.500 192.094 37.500 L 197.818 37.500 198.159 38.271 M273.967 37.700 C 274.113 37.847,274.167 39.237,274.167 42.917 C 274.167 46.596,274.113 47.987,273.967 48.133 C 273.816 48.284,271.330 48.333,263.800 48.333 L 253.833 48.333 253.833 55.167 L 253.833 62.000 261.261 62.000 C 266.062 62.000,268.803 62.061,269.011 62.173 C 269.463 62.415,269.520 72.393,269.070 72.566 C 268.925 72.621,265.449 72.667,261.345 72.667 L 253.884 72.667 253.793 80.342 C 253.743 84.563,253.740 88.163,253.787 88.342 C 253.870 88.660,254.101 88.667,264.252 88.667 C 273.563 88.667,274.641 88.694,274.732 88.930 C 274.937 89.463,274.845 98.922,274.633 99.133 C 274.387 99.380,242.766 99.426,242.122 99.181 L 241.722 99.029 241.609 68.590 C 241.531 47.511,241.550 38.052,241.671 37.826 C 241.886 37.424,273.567 37.300,273.967 37.700 M375.732 37.764 C 375.883 38.156,375.850 47.883,375.697 48.123 C 375.597 48.280,373.980 48.340,368.908 48.373 L 362.250 48.417 362.167 73.667 C 362.121 87.554,362.023 99.010,361.948 99.125 C 361.738 99.450,351.020 99.423,350.574 99.097 C 350.256 98.865,350.248 98.363,350.167 73.638 L 350.083 48.417 343.594 48.373 C 337.848 48.334,337.071 48.298,336.803 48.056 C 336.346 47.642,336.335 37.946,336.792 37.680 C 337.339 37.361,375.609 37.443,375.732 37.764 M150.787 47.602 C 150.721 47.668,150.667 51.422,150.667 55.944 L 150.667 64.167 154.714 64.167 C 160.175 64.167,161.234 63.805,163.333 61.222 C 165.223 58.896,164.954 52.284,162.880 50.083 C 162.192 49.353,161.071 48.500,160.801 48.500 C 160.672 48.500,160.481 48.414,160.376 48.309 C 159.838 47.771,151.251 47.138,150.787 47.602 M105.444 51.778 C 105.383 51.839,105.333 52.097,105.333 52.350 C 105.333 52.604,105.257 53.012,105.164 53.256 C 105.071 53.501,104.882 54.199,104.743 54.809 C 104.605 55.418,104.382 56.386,104.249 56.959 C 104.115 57.532,103.900 58.470,103.770 59.042 C 103.085 62.066,102.694 63.714,102.416 64.750 C 102.293 65.208,102.108 65.958,102.005 66.417 C 101.902 66.875,101.749 67.550,101.666 67.917 C 101.583 68.283,101.355 69.296,101.158 70.167 C 100.962 71.037,100.692 72.200,100.557 72.750 C 100.049 74.829,99.962 75.326,100.057 75.576 C 100.164 75.853,110.517 75.976,110.943 75.705 C 111.143 75.578,111.090 75.134,110.671 73.417 C 110.213 71.538,110.016 70.708,109.840 69.917 C 109.739 69.458,109.545 68.633,109.410 68.083 C 109.275 67.533,109.056 66.558,108.923 65.917 C 108.790 65.275,108.572 64.300,108.439 63.750 C 108.136 62.502,107.764 60.910,107.445 59.500 C 107.184 58.341,106.937 57.302,106.575 55.833 C 106.451 55.329,106.187 54.185,105.989 53.292 C 105.791 52.398,105.613 51.667,105.592 51.667 C 105.572 51.667,105.506 51.717,105.444 51.778 " stroke="none" fill="#f36825" fill-rule="evenodd"></path></g></svg>