<?xml version="1.0" encoding="utf-8"?>
<!-- Generator: Adobe Illustrator 16.0.0, SVG Export Plug-In . SVG Version: 6.00 Build 0)  -->
<!DOCTYPE svg PUBLIC "-//W3C//DTD SVG 1.1//EN" "http://www.w3.org/Graphics/SVG/1.1/DTD/svg11.dtd">
<svg version="1.1" id="Layer_1" xmlns="http://www.w3.org/2000/svg" xmlns:xlink="http://www.w3.org/1999/xlink" x="0px" y="0px"
	 width="448px" height="106px" viewBox="0 0 448 106" enable-background="new 0 0 448 106" xml:space="preserve">
<path fill="#2BBBE1" d="M42.14,35.334l21.407,45.904h-4.954l-7.22-15.104H31.598l-7.151,15.104h-5.118l21.688-45.904H42.14z
	 M41.561,45.087l-7.866,16.616h15.694L41.561,45.087z"/>
<path fill="#2BBBE1" d="M70.662,81.238V35.335h9.518c6.865,0,11.847,0.551,14.947,1.653c4.452,1.561,7.932,4.266,10.439,8.114
	c2.506,3.849,3.76,8.436,3.76,13.762c0,4.598-0.994,8.644-2.98,12.139c-1.987,3.495-4.567,6.075-7.739,7.739
	c-3.173,1.664-7.62,2.496-13.341,2.496H70.662z M75.062,76.901h5.305c6.345,0,10.745-0.395,13.2-1.185
	c3.453-1.123,6.168-3.144,8.145-6.064c1.976-2.921,2.964-6.491,2.964-10.71c0-4.428-1.072-8.211-3.214-11.35
	c-2.143-3.138-5.129-5.29-8.956-6.454c-2.871-0.873-7.604-1.31-14.198-1.31h-3.246V76.901z"/>
<path fill="#2BBBE1" d="M118.189,35.334h9.143c5.242,0,8.779,0.23,10.61,0.687c2.621,0.645,4.764,1.971,6.428,3.979
	c1.664,2.008,2.497,4.53,2.497,7.567c0,3.058-0.812,5.581-2.434,7.568c-1.623,1.986-3.86,3.323-6.71,4.009
	c-2.08,0.5-5.97,0.749-11.671,0.749h-3.276v21.345h-4.587V35.334z M122.776,39.828V55.4l7.77,0.094c3.141,0,5.44-0.286,6.897-0.857
	c1.456-0.571,2.6-1.495,3.432-2.772c0.832-1.276,1.248-2.704,1.248-4.282c0-1.536-0.416-2.943-1.248-4.22
	c-0.832-1.277-1.93-2.185-3.292-2.725c-1.363-0.54-3.594-0.81-6.694-0.81H122.776z"/>
<polygon fill="#2BBBE1" points="156.041,35.334 160.628,35.334 160.628,76.808 178.29,76.808 178.29,81.238 156.041,81.238 "/>
<path fill="#2BBBE1" d="M204.316,35.334l21.407,45.904h-4.954l-7.22-15.104h-19.775l-7.151,15.104h-5.118l21.688-45.904H204.316z
	 M203.737,45.087l-7.866,16.616h15.694L203.737,45.087z"/>
<polygon fill="#2BBBE1" points="228.283,39.828 228.283,35.334 253.435,35.334 253.435,39.828 243.199,39.828 243.199,81.238 
	238.518,81.238 238.518,39.828 "/>
<polygon fill="#2BBBE1" points="260.051,35.334 283.05,35.334 283.05,39.829 264.638,39.829 264.638,54.213 283.05,54.213 
	283.05,58.708 264.638,58.708 264.638,81.238 260.051,81.238 "/>
<path fill="#2BBBE1" d="M312.897,34.181c6.953,0,12.771,2.319,17.455,6.958c4.684,4.64,7.025,10.35,7.025,17.132
	c0,6.72-2.337,12.42-7.01,17.101c-4.674,4.681-10.372,7.021-17.096,7.021c-6.809,0-12.554-2.33-17.237-6.99
	c-4.684-4.66-7.025-10.298-7.025-16.913c0-4.41,1.066-8.498,3.199-12.264c2.135-3.765,5.043-6.714,8.729-8.847
	C304.621,35.247,308.608,34.181,312.897,34.181 M313.101,38.643c-3.396,0-6.616,0.885-9.658,2.655
	c-3.043,1.77-5.418,4.154-7.127,7.151c-1.708,2.998-2.563,6.34-2.563,10.025c0,5.455,1.892,10.062,5.674,13.82
	c3.78,3.758,8.34,5.637,13.675,5.637c3.563,0,6.859-0.864,9.893-2.592c3.031-1.728,5.396-4.091,7.094-7.089
	c1.699-2.999,2.549-6.33,2.549-9.994c0-3.644-0.85-6.939-2.549-9.885c-1.697-2.946-4.09-5.303-7.173-7.073
	C319.83,39.528,316.56,38.643,313.101,38.643"/>
<path fill="#2BBBE1" d="M346.835,35.334h9.143c5.096,0,8.55,0.209,10.36,0.625c2.726,0.626,4.94,1.964,6.646,4.015
	c1.706,2.052,2.56,4.578,2.56,7.578c0,2.499-0.589,4.697-1.765,6.592c-1.174,1.896-2.854,3.328-5.039,4.296
	c-2.184,0.969-5.201,1.464-9.049,1.485l16.507,21.313h-5.674l-16.509-21.313h-2.594v21.313h-4.587V35.334z M351.422,39.828v15.603
	l7.906,0.063c3.064,0,5.329-0.291,6.8-0.874c1.469-0.582,2.614-1.513,3.438-2.793c0.822-1.279,1.234-2.709,1.234-4.291
	c0-1.54-0.417-2.938-1.25-4.197c-0.834-1.259-1.929-2.158-3.282-2.699c-1.355-0.541-3.606-0.812-6.751-0.812H351.422z"/>
<polygon fill="#2BBBE1" points="383.282,81.238 389.854,35.334 390.599,35.334 409.261,73 427.742,35.334 428.477,35.334 
	435.084,81.238 430.585,81.238 426.05,48.409 409.819,81.238 408.646,81.238 392.222,48.16 387.713,81.238 "/>
<g>
	<defs>
		<rect id="SVGID_1_" x="19.584" y="18.08" width="339.493" height="7.725"/>
	</defs>
	<clipPath id="SVGID_2_">
		<use xlink:href="#SVGID_1_"  overflow="visible"/>
	</clipPath>
	
		<linearGradient id="SVGID_3_" gradientUnits="userSpaceOnUse" x1="-78.0005" y1="491" x2="-77.0005" y2="491" gradientTransform="matrix(-339.4936 0 0 -339.4936 -26121.502 166713.375)">
		<stop  offset="0" style="stop-color:#F7AB5F"/>
		<stop  offset="0.2" style="stop-color:#F79231"/>
		<stop  offset="0.4" style="stop-color:#CEDD47"/>
		<stop  offset="0.6" style="stop-color:#85C458"/>
		<stop  offset="0.8" style="stop-color:#04BFE0"/>
		<stop  offset="1" style="stop-color:#04BFE0"/>
	</linearGradient>
	<rect x="19.584" y="18.08" clip-path="url(#SVGID_2_)" fill="url(#SVGID_3_)" width="339.493" height="7.725"/>
</g>
<polygon fill="#2BBBE1" points="369,16.635 370.061,16.635 370.061,21.088 375.466,21.088 375.466,16.635 376.527,16.635 
	376.527,27.25 375.466,27.25 375.466,22.127 370.061,22.127 370.061,27.25 369,27.25 "/>
<polygon fill="#2BBBE1" points="379.535,17.674 379.535,16.635 385.352,16.635 385.352,17.674 382.984,17.674 382.984,27.25 
	381.901,27.25 381.901,17.674 "/>
<polygon fill="#2BBBE1" points="387.305,17.674 387.305,16.635 393.122,16.635 393.122,17.674 390.755,17.674 390.755,27.25 
	389.672,27.25 389.672,17.674 "/>
<path fill="#2BBBE1" d="M396.123,16.635h2.113c1.213,0,2.031,0.053,2.454,0.159c0.606,0.149,1.102,0.456,1.486,0.92
	s0.578,1.048,0.578,1.75c0,0.707-0.188,1.291-0.564,1.75c-0.374,0.459-0.891,0.768-1.551,0.927c-0.48,0.115-1.381,0.173-2.698,0.173
	h-0.758v4.936h-1.061V16.635z M397.184,17.674v3.601l1.797,0.022c0.727,0,1.259-0.066,1.596-0.198
	c0.337-0.132,0.601-0.346,0.793-0.641c0.191-0.295,0.288-0.626,0.288-0.991c0-0.355-0.097-0.68-0.288-0.975
	c-0.192-0.295-0.447-0.506-0.763-0.63c-0.314-0.125-0.831-0.188-1.547-0.188H397.184z"/>
<path fill="#2BBBE1" d="M410.227,16.369c1.607,0,2.953,0.536,4.037,1.609s1.625,2.394,1.625,3.962c0,1.554-0.54,2.872-1.621,3.955
	c-1.081,1.082-2.399,1.623-3.953,1.623c-1.575,0-2.904-0.539-3.986-1.616c-1.084-1.078-1.626-2.382-1.626-3.912
	c0-1.019,0.248-1.964,0.741-2.836c0.493-0.87,1.166-1.552,2.018-2.045C408.313,16.615,409.235,16.369,410.227,16.369 M410.274,17.4
	c-0.786,0-1.53,0.205-2.234,0.614c-0.703,0.409-1.253,0.96-1.647,1.653c-0.396,0.694-0.593,1.466-0.593,2.319
	c0,1.261,0.437,2.327,1.312,3.196s1.929,1.304,3.163,1.304c0.823,0,1.586-0.201,2.287-0.6c0.702-0.399,1.248-0.946,1.641-1.64
	c0.393-0.693,0.589-1.463,0.589-2.311c0-0.842-0.196-1.604-0.589-2.285c-0.393-0.682-0.945-1.227-1.659-1.636
	C411.83,17.605,411.073,17.4,410.274,17.4"/>
<path fill="#2BBBE1" d="M423.367,16.369c1.607,0,2.954,0.536,4.037,1.609c1.084,1.073,1.625,2.394,1.625,3.962
	c0,1.554-0.54,2.872-1.621,3.955c-1.081,1.082-2.399,1.623-3.953,1.623c-1.575,0-2.904-0.539-3.986-1.616
	c-1.084-1.078-1.626-2.382-1.626-3.912c0-1.019,0.248-1.964,0.741-2.836c0.493-0.87,1.166-1.552,2.019-2.045
	C421.454,16.615,422.376,16.369,423.367,16.369 M423.415,17.4c-0.786,0-1.53,0.205-2.234,0.614c-0.702,0.409-1.253,0.96-1.647,1.653
	c-0.396,0.694-0.592,1.466-0.592,2.319c0,1.261,0.436,2.327,1.311,3.196s1.929,1.304,3.163,1.304c0.823,0,1.586-0.201,2.287-0.6
	c0.702-0.399,1.248-0.946,1.641-1.64c0.394-0.693,0.589-1.463,0.589-2.311c0-0.842-0.195-1.604-0.589-2.285
	c-0.393-0.682-0.944-1.227-1.659-1.636C424.971,17.605,424.214,17.4,423.415,17.4"/>
<polygon fill="#2BBBE1" points="431.452,16.635 432.514,16.635 432.514,26.226 436.598,26.226 436.598,27.25 431.452,27.25 "/>
</svg>
