<svg xmlns="http://www.w3.org/2000/svg" xmlns:xlink="http://www.w3.org/1999/xlink" viewBox="0 0 500 250"><defs><style>.cls-1{fill:url(#linear-gradient);}.cls-2{fill:url(#linear-gradient-2);}.cls-3{fill:url(#linear-gradient-3);}.cls-4{fill:url(#linear-gradient-4);}.cls-5{fill:url(#linear-gradient-5);}.cls-6{fill:#6d6d66;}.cls-7{fill:url(#linear-gradient-6);}</style><linearGradient id="linear-gradient" x1="725.43" y1="-118.11" x2="717.72" y2="-99.44" gradientTransform="matrix(1, 0, 0, -1, -335.26, -1.44)" gradientUnits="userSpaceOnUse"><stop offset="0" stop-color="#009edf"/><stop offset="1" stop-color="#004281"/></linearGradient><linearGradient id="linear-gradient-2" x1="698.76" y1="-137.1" x2="772.94" y2="-114.9" gradientTransform="matrix(1, 0, 0, -1, -335.26, -1.44)" gradientUnits="userSpaceOnUse"><stop offset="0" stop-color="#006196"/><stop offset="0.07" stop-color="#006aa2"/><stop offset="0.19" stop-color="#0082c2"/><stop offset="0.23" stop-color="#008ccf"/><stop offset="1" stop-color="#1068b2"/></linearGradient><linearGradient id="linear-gradient-3" x1="722.47" y1="-95.57" x2="768.49" y2="-112.45" gradientTransform="matrix(1, 0, 0, -1, -335.26, -1.44)" gradientUnits="userSpaceOnUse"><stop offset="0" stop-color="#25a9e0"/><stop offset="0.85" stop-color="#3d6ab2" stop-opacity="0"/></linearGradient><linearGradient id="linear-gradient-4" x1="694.54" y1="-127.08" x2="710.08" y2="-127.08" gradientTransform="matrix(1, 0, 0, -1, -335.26, -1.44)" gradientUnits="userSpaceOnUse"><stop offset="0.39" stop-color="#77ad43"/><stop offset="0.77" stop-color="#627b37"/><stop offset="1" stop-color="#273a16"/></linearGradient><linearGradient id="linear-gradient-5" x1="695.76" y1="-88.57" x2="658.95" y2="-157.05" gradientTransform="matrix(1, 0, 0, -1, -335.26, -1.44)" gradientUnits="userSpaceOnUse"><stop offset="0.2" stop-color="#ffd800"/><stop offset="0.79" stop-color="#df7627"/><stop offset="1" stop-color="#a63c23"/></linearGradient><linearGradient id="linear-gradient-6" x1="567.86" y1="-126.1" x2="672.19" y2="-126.1" gradientTransform="matrix(1, 0, 0, -1, -335.26, -1.44)" gradientUnits="userSpaceOnUse"><stop offset="0.2" stop-color="#ffd800"/><stop offset="1" stop-color="#ce242a"/></linearGradient></defs><title>innovid</title><g id="Innovid"><path class="cls-1" d="M393.09,83.52h-2.18c-7,.32-12.66,7.06-12.91,15.46v25.39c.25,8.4,5.88,15.14,12.91,15.46h2.23V83.52Z"/><path class="cls-2" d="M436,100.73c-6.41-10.74-16.75-17.15-27.8-17.22H391.06a11.32,11.32,0,0,0-3.55.86,13.71,13.71,0,0,0-7.37,7.93A17.7,17.7,0,0,0,379,97.89v2.81h29.1c10.52.62,18,10.74,18,23.53,0,13.31-8,23.71-19,23.71H368.88v17.3H408c18.94,0,34.3-18.37,34.32-41A45.79,45.79,0,0,0,436,100.73Z"/><path class="cls-3" d="M442.37,124.26A45.8,45.8,0,0,0,436,100.73C429.57,90,419.23,83.58,408.18,83.52H390a11.32,11.32,0,0,0-3.53.86c-4.89,2-8.27,7.36-8.54,13.54v13s.07-10.16,8-10.16h22.17c10.52.62,18,10.74,18,23.53"/><path class="cls-4" d="M368.83,100a17.89,17.89,0,0,0-2.75-10.33c-.09-.16-.52-.3-.61-.46-1.33-1-2.1-1.4-3.36-2.27l.37-.94-8.75,22.66v41.26c.26,8.39,5.89,15.13,12.91,15.46h7.72s-5.47-.81-5.47-9.41C368.88,150.75,368.83,100,368.83,100Z"/><path class="cls-5" d="M364.23,87.23a12.74,12.74,0,0,0-8.91-3.84c-5.23,0-10.07,3.17-13,11.85l-17.08,50.43,5,15.65c1.09-.81,6.77-3.89,6.77-3.89l20.47-58.58c4.49-12.69,9.84-7,9.84-7A17.59,17.59,0,0,0,364.23,87.23Z"/><path class="cls-6" d="M131.93,165.39a5.41,5.41,0,0,1-4-2.36L97.93,116c-.82-1.3-1.51-1-1.51.62v45.86a2.77,2.77,0,0,1-2.48,3H84.12a2.77,2.77,0,0,1-2.5-3V86.88a2.77,2.77,0,0,1,2.5-3H93a5.43,5.43,0,0,1,4,2.36l28.94,45.44c.84,1.3,1.51,1,1.51-.6V86.88a2.77,2.77,0,0,1,2.5-3h9.83a2.78,2.78,0,0,1,2.48,3v75.53a2.77,2.77,0,0,1-2.48,3Z"/><path class="cls-6" d="M201.31,165.39a5.44,5.44,0,0,1-4-2.36l-30-47.06c-.84-1.3-1.51-1-1.51.62v45.86a2.77,2.77,0,0,1-2.48,3h-9.84a2.77,2.77,0,0,1-2.48-3V86.88a2.78,2.78,0,0,1,2.48-3h8.86a5.43,5.43,0,0,1,4,2.36l28.94,45.44c.84,1.3,1.51,1,1.51-.6V86.88a2.78,2.78,0,0,1,2.48-3h9.83a2.76,2.76,0,0,1,2.52,3v75.56a2.77,2.77,0,0,1-2.5,3Z"/><path class="cls-6" d="M254.12,166.79c-21,0-36.15-18.74-36.15-41.91v-.24c0-23.17,15.3-42.14,36.35-42.14s36.15,18.74,36.15,41.91v.24C290.52,147.81,275.22,166.79,254.12,166.79Zm20.72-42.14c0-14-8.57-25.61-20.67-25.61s-20.45,11.41-20.45,25.39v.22c0,14,8.58,25.61,20.67,25.61s20.47-11.39,20.47-25.39Z"/><path class="cls-6" d="M70.84,84H59.92a2.29,2.29,0,0,0-2.06,2.46v76.47a2.29,2.29,0,0,0,2.06,2.46H70.84a2.29,2.29,0,0,0,2.06-2.46V86.47A2.29,2.29,0,0,0,70.84,84Z"/><path class="cls-7" d="M315.64,161.82l.28.32h0c5.45,6,13.94,5.56,19-1a16.54,16.54,0,0,0,2.3-4.11l.13-.41c-.09.29-.62,1.38-2.95,1.38-2,0-4.82-1.32-6.72-6.24-2.66-7-20.64-60-20.64-60-3.18-7.57-10.73-10.89-17.27-7.6l-.2.11-1.85,1v.14L313,157.62A16.64,16.64,0,0,0,315.64,161.82Z"/></g></svg>