<?xml version="1.0" encoding="UTF-8" standalone="no"?>
<!-- Generator: Adobe Illustrator 21.0.0, SVG Export Plug-In . SVG Version: 6.00 Build 0)  -->

<svg
   xmlns:dc="http://purl.org/dc/elements/1.1/"
   xmlns:cc="http://creativecommons.org/ns#"
   xmlns:rdf="http://www.w3.org/1999/02/22-rdf-syntax-ns#"
   xmlns:svg="http://www.w3.org/2000/svg"
   xmlns="http://www.w3.org/2000/svg"
   xmlns:sodipodi="http://sodipodi.sourceforge.net/DTD/sodipodi-0.dtd"
   xmlns:inkscape="http://www.inkscape.org/namespaces/inkscape"
   version="1.1"
   id="Layer_1"
   x="0px"
   y="0px"
   viewBox="0 0 500 382.3"
   style="enable-background:new 0 0 500 382.3;"
   xml:space="preserve"
   sodipodi:docname="webgains-logo.svg"
   inkscape:version="0.92.3 (2405546, 2018-03-11)"><metadata
   id="metadata29"><rdf:RDF><cc:Work
       rdf:about=""><dc:format>image/svg+xml</dc:format><dc:type
         rdf:resource="http://purl.org/dc/dcmitype/StillImage" /><dc:title></dc:title></cc:Work></rdf:RDF></metadata><defs
   id="defs27" /><sodipodi:namedview
   pagecolor="#ffffff"
   bordercolor="#666666"
   borderopacity="1"
   objecttolerance="10"
   gridtolerance="10"
   guidetolerance="10"
   inkscape:pageopacity="0"
   inkscape:pageshadow="2"
   inkscape:window-width="2560"
   inkscape:window-height="1361"
   id="namedview25"
   showgrid="false"
   inkscape:zoom="1.48836"
   inkscape:cx="196.51903"
   inkscape:cy="122.98885"
   inkscape:window-x="1341"
   inkscape:window-y="-9"
   inkscape:window-maximized="1"
   inkscape:current-layer="Layer_1" />
<style
   type="text/css"
   id="style2">
	.st0{fill:#FFFFFF;}
	.st1{fill:#FFFFFF;stroke:#35A8E0;stroke-width:0.5;stroke-miterlimit:10;}
</style>
<g
   id="g22"
   style="fill:#ab3528;fill-opacity:1">
	<path
   class="st0"
   d="M389.3,14.1l33,0l10-13.8c0,0-37.3,0-46.3,0c-4.7,0-10,1.5-13.2,4c-4,3.1-6,7.4-6,12.6c0,2.9,0.5,5.4,1.6,7.6   c1.1,2.1,2.5,3.8,4.2,4.9c1.6,1.1,3.4,1.9,5.3,2.6c1.2,0.4,10.3,2.4,11.8,2.7c1.3,0.3,2.4,0.7,3.1,1.3c1.8,1.4,0.5,3,0.1,3.3   c-0.3,0.3-1.1,0.6-2.7,0.6l-27.5,0L359.7,54l34.2,0c0,0,4.3-0.2,5.6-0.7c2.4-0.7,3.2-0.4,6.3-2.9c4-3.1,5.5-7.8,5.5-13   c0-2.9-0.5-5.4-1.6-7.6c-1.1-2.1-2.5-3.8-4.2-4.9c-1.6-1.1-3.4-1.9-5.3-2.6c-1.2-0.4-10.3-2.4-11.8-2.7c-1.3-0.3-2.3-0.7-3.1-1.3   c-0.5-0.4-0.7-0.8-0.7-1.4c0-0.4,0-1,0.9-1.8C386.4,14,389.3,14.1,389.3,14.1z"
   id="path4"
   style="fill:#ab3528;fill-opacity:1" />
	<path
   class="st0"
   d="M96.2,40.6h25.5L119,53.7H78.9l11-53.4H130l-2.6,13.1H102l-1.3,7.2h20.4l-2.5,12.8H97.6L96.2,40.6z"
   id="path6"
   style="fill:#ab3528;fill-opacity:1" />
	<path
   class="st0"
   d="M172.1,37.7c-0.9,4.9-3.1,8.8-6.7,11.7c-3.5,2.9-7.6,4.3-12.3,4.3h-27.6l11.1-53.4h24.1   c4.8,0,8.5,1.3,10.9,3.9c2.4,2.6,3.1,6.1,2.2,10.6c-0.7,3.8-3.6,7.1-8.5,9.9l0,0.3C171,27.6,173.3,31.8,172.1,37.7z M157.8,36.2   c0.3-1.5,0.1-2.7-0.6-3.8c-0.7-1.1-1.7-1.6-3-1.6h-9.3l-2.2,10.8h9.5c1.2,0,2.4-0.6,3.5-1.7C156.8,38.9,157.5,37.6,157.8,36.2z    M148.9,12.3l-1.5,8.5h7.6c0.9,0,1.8-0.5,2.6-1.4c0.9-0.9,1.4-1.9,1.6-2.9c0.2-1,0-1.9-0.5-2.8c-0.5-0.9-1.2-1.4-2.1-1.4H148.9z"
   id="path8"
   style="fill:#ab3528;fill-opacity:1" />
	<path
   class="st0"
   d="M205.4,33.5l2.5-12.3H234l-6.6,32.6h-12.6l1.3-6.1l-0.3-0.2c-2.6,2.4-3.1,3.1-5.8,4.4c-2.6,1.3-6.3,2-10.4,2   c-7,0-14.3-1.5-18.3-6.7c-4-5.2-5.3-11.9-3.8-20.1c0.9-5.2,3.2-9.9,6.7-14.2c3.5-4.3,6.6-7,11.6-9.5c5-2.4,11-3.2,16.3-3.2   c6.4,0,13.3,1.7,16,3.9c4.1,3.3,6.3,7.7,6.5,13.4h-15c-1.2-3.7-4.5-5.5-9.9-5.5c-3.9,0-7.5,1.5-10.8,4.6c-3.3,3-5.3,6.5-6.1,10.5   c-0.8,4-0.1,7.5,2,10.4c2.1,2.9,5.1,4.4,8.9,4.4c3.2,0,6.1-0.8,8.5-2.3c2.5-1.6,4.2-3.6,5.3-6H205.4z"
   id="path10"
   style="fill:#ab3528;fill-opacity:1" />
	<path
   class="st0"
   d="M268,54l-0.9-7.9h-16.5l-3.9,7.9H232l28.7-53.4h14.5l7.5,53.4H268z M265.8,34.4L265,17h-0.7l-7.8,17.4H265.8z"
   id="path12"
   style="fill:#ab3528;fill-opacity:1" />
	<path
   class="st0"
   d="M287.1,54l11.1-53.4h14.5L301.6,54H287.1z"
   id="path14"
   style="fill:#ab3528;fill-opacity:1" />
	<path
   class="st0"
   d="M353.7,54h-14l-10.3-27.1h-0.5L323.1,54h-14.7l10.9-53.4H334L344.7,27l0.5,0l5-26.4h14.2L353.7,54z"
   id="path16"
   style="fill:#ab3528;fill-opacity:1" />
	<polygon
   class="st0"
   points="68.7,0.8 63,27 62.5,27 52.3,0 52.2,0 51.9,1.9 51.8,2 52.2,0 33.3,24.9 38.4,0.8 23.5,0.8 12.9,54    27.7,54 27.7,54 46.5,27.6 47.1,27.6 47.4,27.6 56.3,54 71,54 82,0.8  "
   id="polygon18"
   style="fill:#ab3528;fill-opacity:1" />
	<path
   class="st0"
   d="M499.8,0.3l-42.5,0c0,0,3.2,37.4-12,66.4C420,115,267.6,319.6,267.6,319.6l-25.2-34.8l55.4-77.9   c12.5-16.8,0.5-40.6-20.4-40.6h-90.6l25.8,42.4h26.8l-27.3,36.3l-61.7-84.8c-9.9-13.6-1.4-31.3,15.4-31.1h188.6l28.7-39.8l-234.1,0   c-44.7,0-69.9,49.5-43.6,85.6l78.6,108.3l-26.8,36.3c0,0-90.8-123.9-98.6-137.2c-7.5-13-11.4-19.1-15.2-34.7   C37,120,47.4,89.4,47.4,89.4l-41.3,0c0,0-4,12.5-5.9,36.8c-2,25.7,5.4,48.8,16.4,69.9c5.6,10.6,82.6,120.9,124,177.4   c8.4,11.5,25.5,11.5,34,0.1l37.4-50.2l7.8,11.3l28.3,39c8,11.2,24.6,11.4,32.9,0.4l130.5-182.8c15-20.2,44.6-59,68.8-101.9   C501.8,51.3,500.1,2.1,499.8,0.3z"
   id="path20"
   style="fill:#ab3528;fill-opacity:1" />
</g>
<path
   style="fill:#ab3528;fill-opacity:1;stroke:none;stroke-width:0.81;stroke-miterlimit:4;stroke-dasharray:none"
   d="m 152.95911,381.17228 c -4.29752,-1.01194 -7.0633,-2.59738 -9.99402,-5.72891 C 136.22541,368.2419 52.429505,249.64432 26.007624,209.91173 13.82007,191.58438 8.1012585,179.21553 3.738822,161.74795 1.0072788,150.81061 -0.20685312,138.63553 0.42876306,128.55532 1.036568,118.91617 3.6464883,100.19847 5.2307755,94.11649 l 1.0549238,-4.049788 20.3463077,-0.216283 20.346308,-0.216291 -0.788696,2.646164 c -1.893744,6.353712 -4.071774,18.708928 -4.724322,26.799438 -1.83373,22.73523 3.330682,41.86665 17.270804,63.97924 7.802592,12.3769 96.890859,135.95102 98.337569,136.40383 0.60958,0.19078 25.7176,-33.51739 26.51633,-35.59887 0.31107,-0.81063 -13.41035,-20.35884 -39.45687,-56.21219 -21.96358,-30.23315 -41.27367,-57.52073 -42.91131,-60.63907 -4.116606,-7.83868 -5.7944,-14.68288 -5.857366,-23.89375 -0.06091,-8.90571 1.099549,-14.34721 4.750006,-22.27383 6.53429,-14.18861 17.6507,-23.861302 33.63583,-29.267453 4.25136,-1.437812 9.99402,-1.516249 126.56984,-1.72879 l 122.11641,-0.222649 -10.40089,14.394512 c -5.72048,7.91698 -12.01467,16.66282 -13.98707,19.4352 l -3.58619,5.04069 -95.17002,0.0413 c -59.80144,0.026 -96.46255,0.33949 -98.64797,0.84359 -10.9939,2.53591 -17.26244,13.93527 -13.61754,24.76355 0.91671,2.72335 11.16498,17.47011 32.8526,47.27327 17.33617,23.82336 31.8173,43.39711 32.18032,43.49721 0.36302,0.10009 6.76127,-7.99292 14.21834,-17.98449 l 13.55831,-18.16649 -13.50056,-0.22204 -13.50057,-0.22203 -12.38633,-20.24894 c -6.81249,-11.13692 -12.39681,-20.53337 -12.40961,-20.881 -0.0128,-0.34763 21.57224,-0.52987 47.96673,-0.40498 l 47.98999,0.22708 4.01561,1.99072 c 5.1104,2.53345 9.34351,6.76657 11.841,11.841 1.63979,3.33174 1.96062,5.18592 1.95126,11.27697 -0.008,5.38656 -0.38073,7.97102 -1.42671,9.8997 -0.77852,1.43554 -14.03484,20.34796 -29.45847,42.02759 -15.42363,21.67964 -28.08517,39.92445 -28.13675,40.54404 -0.0964,1.15763 23.77866,34.9907 24.74012,35.05898 0.59374,0.0422 36.34221,-48.32234 67.62242,-91.48717 69.46252,-95.85415 106.16885,-150.153917 113.64814,-168.119986 5.49453,-13.198458 8.93928,-32.227607 8.93928,-49.381475 V 0.56638678 h 21.16284 21.16284 l -0.5674,10.73193822 c -1.5131,28.618994 -6.81691,51.921982 -16.26871,71.478758 -9.21125,19.059057 -33.07401,55.572987 -61.24223,93.710647 -6.1522,8.32962 -40.7277,56.53727 -76.83444,107.12812 -47.77664,66.9421 -66.54076,92.62965 -68.92574,94.35731 -6.6894,4.84578 -15.71217,5.02005 -22.70997,0.43862 -1.94896,-1.27597 -8.56187,-9.70231 -19.50908,-24.85897 -9.1084,-12.61079 -17.75384,-24.6928 -19.21207,-26.84891 -1.45824,-2.15612 -2.93246,-3.61404 -3.27604,-3.23983 -0.34358,0.37421 -9.21226,12.23514 -19.70818,26.35762 -12.25152,16.48469 -20.27476,26.5402 -22.41104,28.0877 -1.83014,1.32576 -5.14943,2.80119 -7.37618,3.27875 -4.57097,0.98029 -4.82895,0.97984 -9.05747,-0.0159 z"
   id="path4539"
   inkscape:connector-curvature="0" /><path
   style="fill:#ab3528;fill-opacity:1;stroke:none;stroke-width:0.38482389;stroke-miterlimit:4;stroke-dasharray:none"
   d="m 152.24065,381.18087 c -3.53625,-0.95798 -7.01789,-3.028 -9.53747,-5.67056 C 136.67133,369.18408 51.807641,248.93388 25.265051,209.10277 14.808004,193.41041 9.8445119,183.23 5.2506552,168.05204 -0.47280193,149.14192 -1.1988262,132.33686 2.6238973,107.25126 3.3787904,102.29747 5.8138687,90.23483 6.1022425,90.020587 6.1418651,89.991132 15.383488,89.824284 26.639177,89.649783 l 20.46489,-0.317275 -1.536393,5.943971 c -5.405156,20.911381 -5.788738,40.361681 -1.120105,56.797041 2.638454,9.28835 5.616787,15.91777 12.209386,27.17668 5.685117,9.7091 24.532884,36.26769 72.083075,101.57304 29.93016,41.10604 27.96446,38.44126 28.37315,38.46386 0.58015,0.0321 26.50768,-34.85439 26.50768,-35.66711 0,-1.15034 -3.81716,-6.51488 -46.27505,-65.0337 -18.29489,-25.21547 -34.18498,-47.44974 -35.3113,-49.40949 -11.216467,-19.5161 -8.880491,-43.74392 5.88631,-61.05052 7.41634,-8.691898 17.42166,-14.65482 29.31196,-17.469194 l 4.34251,-1.02785 120.59371,-0.143725 120.59372,-0.143725 -2.296,3.237196 c -1.26279,1.780457 -7.64077,10.653958 -14.17328,19.718888 l -11.87728,16.4817 -94.54315,0.0168 c -53.63167,0.01 -95.82635,0.20238 -97.50851,0.44568 -6.35653,0.91938 -11.75258,4.80264 -14.50258,10.43676 -1.42502,2.91955 -1.52821,3.46817 -1.53183,8.1437 -0.004,4.73273 0.0835,5.18469 1.55719,8.07655 0.85858,1.68481 4.85017,7.65979 8.87018,13.27775 16.08619,22.48037 54.73494,75.24901 55.23618,75.41609 0.2938,0.0979 6.64831,-7.9583 14.12115,-17.90273 l 13.58697,-18.08077 h -13.46401 -13.464 l -12.67608,-20.842 c -6.97184,-11.46308 -12.67608,-20.97679 -12.67608,-21.14156 0,-0.49033 89.67612,-0.31521 93.59298,0.18277 9.13963,1.16197 17.61712,8.42456 20.47047,17.53684 2.01727,6.44224 1.02257,14.72922 -2.41905,20.15347 -0.80377,1.26681 -12.42003,17.72872 -25.8139,36.58203 -13.39387,18.85331 -25.80844,36.37373 -27.58794,38.93427 l -3.23545,4.65552 1.79406,2.70839 c 1.71049,2.58225 22.29215,31.26665 23.01565,32.07663 0.8966,1.00378 87.41921,-117.69319 124.78161,-171.18297 26.86506,-38.4613 43.79925,-64.131827 51.91278,-78.694557 9.01876,-16.187494 13.79561,-37.403148 13.8108,-61.3385876 l 0.005,-7.72023256 h 21.14431 21.14437 L 499.8061,4.4389155 c -0.12708,2.1557265 -0.3424,7.0616585 -0.47841,10.9020715 -0.66062,18.649607 -5.24943,41.369348 -11.68772,57.867385 -7.90733,20.262447 -31.45121,57.245188 -67.90034,106.657978 -5.39692,7.31641 -38.95733,54.13665 -74.57869,104.04499 -35.62137,49.90833 -65.67967,91.60853 -66.79623,92.6671 -7.80607,7.40068 -20.35106,7.10265 -27.88866,-0.66254 -2.01309,-2.07387 -26.80997,-35.97447 -34.54476,-47.22722 -1.93081,-2.80897 -3.68783,-5.10723 -3.9045,-5.10723 -0.21667,0 -8.40245,10.743 -18.19061,23.87334 -9.78817,13.13033 -18.74162,25.06815 -19.89656,26.52849 -5.0635,6.40245 -13.86152,9.32077 -21.69897,7.19759 z"
   id="path4541"
   inkscape:connector-curvature="0" /></svg>
