<?xml version="1.0" encoding="UTF-8"?>
<svg width="78px" height="20px" viewBox="0 0 78 20" version="1.1" xmlns="http://www.w3.org/2000/svg" xmlns:xlink="http://www.w3.org/1999/xlink">
    <!-- Generator: Sketch 63.1 (92452) - https://sketch.com -->
    <title>Logo / Datatap - adverity</title>
    <desc>Created with Sketch.</desc>
    <g id="Logo-/-Datatap---adverity" stroke="none" stroke-width="1" fill="none" fill-rule="evenodd">
        <g id="Logo-/-Datatap-Icon" transform="translate(-4.000000, -2.000000)">
            <path d="M7.93996158,5.09133907 C9.78018316,4.02704936 11.6341671,3 11.7907956,3 C11.8215971,3 11.9192441,3.0398537 12.0693192,3.1130277 C12.680105,3.40768372 14.1651271,4.23742461 15.6416297,5.09133907 L11.7907956,7.31922604 L7.93996158,5.09133907 Z" id="Path" fill="#9BD2D2"></path>
            <path d="M7.89539781,14.0806344 L4.16252669,16.240574 L4.16252669,16.240574 C4.08388474,16.1046795 4.04456377,13.9819801 4.04456377,11.8527474 L7.89539781,14.0806344 Z" id="Path" fill="#C7E6E6"></path>
            <path d="M15.6416297,5.09133907 C17.4884047,6.15954881 19.3109319,7.25911883 19.4190646,7.4133069 C19.4190646,7.4133069 19.4190646,7.4133069 19.4190646,7.4133069 L15.6861934,9.57324659 L11.7907956,7.31922604 L13.7384945,6.19221577 L15.6416297,5.09133907 L15.6416297,5.09133907 Z" id="Path" fill="#219B9C"></path>
            <path d="M19.4190646,7.4133069 C19.4970512,7.58513514 19.5357168,9.68888765 19.5370275,11.8011336 L15.6861934,9.57324659 L19.4190646,7.4133069 Z" id="Path" fill="#115556"></path>
            <path d="M19.4190646,16.240574 C19.3397673,16.3777753 17.4975796,17.4891054 15.6416297,18.5625419 L11.7907956,16.3346549 L15.6861934,14.0806344 L19.4190646,16.240574 Z" id="Path" fill="#1B8485"></path>
            <path d="M19.5363721,11.8527474 C19.5363721,13.9676067 19.4977065,16.0707058 19.4190646,16.2399207 L15.6861934,14.0806344 L19.5363721,11.8527474 Z" id="Path" fill="#115556"></path>
            <polygon id="Path" fill="#9BD2D2" points="11.7907956 11.8266138 7.89539781 14.0806344 4 11.8266138 7.89539781 9.57324659"></polygon>
            <polygon id="Path" fill="#63B9B9" points="15.6861934 14.0806344 11.7907956 16.3346549 7.89539781 14.0806344 11.7907956 11.8266138"></polygon>
            <path d="M15.6416297,18.5625419 C13.8007527,19.6268316 11.9474242,20.6538809 11.7907956,20.6538809 C11.6341671,20.6538809 9.78083851,19.6268316 7.93996158,18.5625419 L11.7907956,16.3346549 L15.6416297,18.5625419 Z" id="Path" fill="#59B4B5"></path>
            <polygon id="Path" fill="#1B8485" points="19.5370275 11.8011336 19.5370275 11.8266138 19.5370275 11.8527474 15.6861934 14.0806344 11.7907956 11.8266138 15.6861934 9.57324659 19.5370275 11.8011336"></polygon>
            <path d="M4.16252669,16.240574 L7.89539781,14.0806344 L11.7907956,16.3346549 L7.93996158,18.5625419 C6.09842931,17.4975988 4.27065937,16.3947621 4.16252669,16.240574 Z" id="Path" fill="#9BD2D2"></path>
            <path d="M11.7907956,7.30289256 L15.6800706,9.56921741 L11.7897581,11.8333066 L11.7833978,11.8298926 L11.7907956,11.8266138 L7.89539781,9.57324659 L11.7907956,7.30289256 Z" id="Combined-Shape" fill="#63B9B9"></path>
            <path d="M4.04456377,11.8011336 L4.05177262,10.3062933 L4.1467983,7.49170762 L4.16252669,7.4133069 C4.16966832,7.40116149 4.19054386,7.38123056 4.2244628,7.35437458 C4.190634,7.38104098 4.16954829,7.40105679 4.16252669,7.4133069 L4.16252669,7.4133069 L7.89539781,9.57324659 L8.2073442,9.39292495 L4.04456377,11.8011336 Z" id="Combined-Shape" fill="#C7E6E6"></path>
            <path d="M7.93996158,5.09133907 L11.7907956,7.31922604 L7.89539781,9.57324659 L4.16252669,7.4133069 L4.16252669,7.4133069 C4.24116864,7.27610565 6.08401161,6.16477552 7.93996158,5.09133907 Z" id="Path" fill="#B9DFDF"></path>
        </g>
        <path d="M67.5618992,3 L67.5618992,5.85706776 L70.837966,5.85706776 L72.600472,10.8300679 L74.253904,5.85706776 L77,5.85706776 L73.1509744,16 L70.4536409,16 L71.2903019,13.9965115 L68.809833,7.71518685 L68.809833,7.80340247 L67.5618992,7.80340247 L67.5618992,14.4288923 L64.9717147,14.4288923 L64.9717147,7.80340247 L62.9859281,7.80340247 L62.9859281,14.4288923 L60.3963852,14.4288923 L60.3963852,5.85706776 L64.9717147,5.85706776 L64.9717147,3 L67.5618992,3 Z M22.3520488,5.56322279 C23.6884117,5.56322279 24.4717724,6.16580093 24.8454881,6.67434256 L24.9107943,6.76842206 L24.9107943,5.85706776 L27.5009787,5.85706776 L27.5009787,14.4288923 L24.9107943,14.4288923 L24.9107943,13.5026283 C24.4430597,14.336328 23.3664361,14.7227373 22.3520488,14.7227373 C19.6065945,14.7227373 18,12.591274 18,10.1349039 C18,7.32442894 20.0435317,5.56322279 22.3520488,5.56322279 Z M37.3619013,3 L37.3619013,14.4288923 L34.8968311,14.4288923 L34.8968311,13.5026283 L34.7719277,13.6719223 C34.4561052,14.0731714 33.7847147,14.7065851 32.2758493,14.7065851 C29.6548675,14.7065851 27.9391992,12.6993692 27.9391992,10.1199943 C27.9391992,7.21571251 30.0295685,5.56322279 32.2290117,5.56322279 C33.5031446,5.56322279 34.224779,6.07833158 34.5925618,6.41073638 L34.7723585,6.58267227 L34.7723585,3 L37.3619013,3 Z M50.2653443,5.56322279 C51.5915547,5.56322279 52.7304145,6.07325815 53.5414111,6.92248877 C54.5727655,8.01672826 54.9225089,9.30380423 54.787386,10.7701098 L54.7585476,11.0307273 L48.3148462,11.0307273 C48.4245617,11.9427029 49.2977946,12.5446813 50.3121819,12.5446813 C51.0756005,12.5446813 51.5060799,12.2424294 51.8135521,11.8431458 L51.887979,11.7414222 L54.5403998,11.7414222 C54.1188612,12.6993692 53.5106138,13.4405046 52.7772522,13.9343878 C52.0592892,14.4444232 51.201455,14.7065851 50.3121819,14.7065851 C47.831713,14.7065851 45.7253034,12.7142789 45.7253034,10.166587 C45.7253034,7.77234063 47.6289639,5.56322279 50.2653443,5.56322279 Z M40.4525425,5.85706776 L42.1220149,11.2009462 L43.7914872,5.85706776 L46.4747053,5.85706776 L43.35455,14.4288923 L40.8734395,14.4288923 L37.7693245,5.85706776 L40.4525425,5.85706776 Z M57.7535887,5.85706776 L57.7535887,6.81439358 L57.8352337,6.67520983 C58.0886669,6.28137339 58.5502404,5.90445834 59.7361328,5.86379444 L59.9530319,5.86017395 L59.9530319,8.14321896 L59.8593566,8.14321896 C58.5934286,8.14321896 57.9676469,8.57907301 57.9133732,9.66690708 L57.9095002,9.82677052 L57.9095002,14.4288923 L55.3193158,14.4288923 L55.3193158,5.85706776 L57.7535887,5.85706776 Z M22.7267497,7.95746918 C21.3063829,7.95746918 20.6455691,9.09228427 20.5929672,10.0436452 L20.5895428,10.1814967 C20.5895428,10.9692249 21.1823916,12.3284909 22.7421484,12.3284909 C23.6622189,12.3284909 24.2242703,11.8961101 24.5521336,11.3705438 C24.7702814,11.0307273 24.8793553,10.6604702 24.9107943,10.274061 C24.9422332,9.88765173 24.8639567,9.50186371 24.6920049,9.14713753 C24.4116208,8.56006881 23.818772,7.95746918 22.7267497,7.95746918 Z M32.7281852,7.95746918 C31.2930614,7.95746918 30.5886168,9.02153662 30.5324046,9.98012446 L30.528742,10.1199943 C30.528742,11.4326675 31.4802514,12.31296 32.6973879,12.31296 C33.321034,12.31296 33.8984841,12.0657077 34.3039823,11.6643888 C34.7101222,11.2624486 34.9436687,10.707063 34.9122298,10.0734015 C34.9122298,9.45589219 34.662643,8.93094715 34.273185,8.56006881 C33.8830854,8.17365956 33.3370743,7.95746918 32.7281852,7.95746918 Z M50.280743,7.72574787 C49.0062144,7.72574787 48.4636102,8.59029509 48.3591763,9.02083063 L48.3462852,9.08501386 L52.2152007,9.08501386 C52.1529645,8.68369492 51.622352,7.72574787 50.280743,7.72574787 Z M62.9859281,3 L62.9859281,4.94571347 L60.3963852,4.94571347 L60.3963852,3 L62.9859281,3 Z" id="Shape" fill="#3C3C3C" fill-rule="nonzero"></path>
    </g>
</svg>
