<?xml version="1.0" encoding="UTF-8" standalone="no"?>
<!DOCTYPE svg PUBLIC "-//W3C//DTD SVG 1.1//EN" "http://www.w3.org/Graphics/SVG/1.1/DTD/svg11.dtd">
<svg width="100%" height="100%" viewBox="0 0 2167 767" version="1.1" xmlns="http://www.w3.org/2000/svg" xmlns:xlink="http://www.w3.org/1999/xlink" xml:space="preserve" style="fill-rule:evenodd;clip-rule:evenodd;stroke-linejoin:round;stroke-miterlimit:1.41421;">
    <g id="Layer-1" transform="matrix(4.16667,0,0,4.16667,0,0)">
        <g>
            <g transform="matrix(1,0,0,1,-320.645,-547.215)">
                <path d="M369.466,547.228L369.466,563.031L360.718,563.031C360.718,563.031 352.816,561.902 352.816,569.522L352.816,581.939L369.466,581.939L367.491,599.091L352.816,599.091L352.816,647.127L333.627,647.127L333.627,598.872L320.645,598.872L320.645,581.939L334.191,581.939L334.191,567.546C334.191,567.546 332.498,559.645 339.553,553.154C346.608,546.664 355.92,547.228 355.92,547.228L369.466,547.228Z" style="fill:rgb(58,104,167);fill-rule:nonzero;"/>
            </g>
            <g transform="matrix(1,0,0,1,-320.645,-547.215)">
                <path d="M414.702,621.305C414.702,627.851 409.138,634.005 402.275,634.005C395.411,634.005 389.847,627.851 389.847,621.305L389.847,608.889C389.847,602.343 395.411,596.19 402.275,596.19C409.138,596.19 414.702,602.343 414.702,608.889L414.702,621.305ZM415.735,582.221L415.735,590.832C410.839,584.389 403.992,580.386 396.416,580.386C381.532,580.386 369.466,593.509 369.466,614.885C369.466,636.121 381.532,649.385 396.416,649.385C404.064,649.385 410.968,645.306 415.874,638.756L415.747,647.127L434.231,647.127L434.231,582.221L415.735,582.221Z" style="fill:rgb(58,104,167);fill-rule:nonzero;"/>
            </g>
            <g transform="matrix(1,0,0,1,-320.645,-547.215)">
                <path d="M586.253,608.466C586.253,601.92 591.817,595.766 598.68,595.766C605.544,595.766 611.108,601.92 611.108,608.466L611.108,620.882C611.108,627.428 605.544,633.581 598.68,633.581C591.817,633.581 586.253,627.428 586.253,620.882L586.253,608.466ZM585.22,647.55L585.22,638.939C590.116,645.382 596.963,649.385 604.539,649.385C619.423,649.385 631.489,636.262 631.489,614.885C631.489,593.65 619.423,580.386 604.539,580.386C596.891,580.386 589.987,584.465 585.081,591.015L585.208,548.15L565.986,550.313L565.986,647.254L585.22,647.55Z" style="fill:rgb(58,104,167);fill-rule:nonzero;"/>
            </g>
            <g transform="matrix(1,0,0,1,-320.645,-547.215)">
                <path d="M475.996,633.643C475.996,633.643 461.18,634.49 461.18,615.3L461.18,614.251C461.18,595.061 475.996,595.908 475.996,595.908C486.014,595.766 489.542,599.294 489.542,599.294L494.198,585.325C486.155,579.399 461.886,578.411 451.021,588.429C441.62,597.098 441.622,611.145 441.793,614.775C441.622,618.405 441.62,632.453 451.021,641.121C461.886,651.139 486.155,650.152 494.198,644.226L489.542,630.257C489.542,630.257 486.014,633.784 475.996,633.643" style="fill:rgb(58,104,167);fill-rule:nonzero;"/>
            </g>
            <g transform="matrix(1,0,0,1,-320.645,-547.215)">
                <path d="M516.351,608.606C516.351,608.606 515.363,594.214 528.345,594.214C541.326,594.214 540.338,608.606 540.338,608.606L516.351,608.606ZM557.976,621.728C557.976,621.728 565.736,581.091 528.627,580.871C491.517,580.65 496.879,617.636 496.879,617.636C497.726,640.071 508.026,646.562 525.664,648.679C543.301,650.795 556.706,644.022 556.706,644.022L552.614,630.9C552.614,630.9 538.363,635.274 527.075,634.286C515.787,633.299 516.633,621.728 516.633,621.728L557.976,621.728Z" style="fill:rgb(58,104,167);fill-rule:nonzero;"/>
            </g>
            <g transform="matrix(1,0,0,1,-320.645,-547.215)">
                <path d="M682.314,620.962C682.314,627.508 676.605,633.662 669.562,633.662C662.52,633.662 656.81,627.508 656.81,620.962L656.81,608.546C656.81,602 662.52,595.847 669.562,595.847C676.605,595.847 682.314,602 682.314,608.546L682.314,620.962ZM669.727,581.272C645.57,581.272 637.44,595.847 637.44,615.328C637.44,635.996 647.916,649.385 669.727,649.385C687.559,649.385 702.015,637.404 702.015,615.328C702.015,596.52 692.79,581.272 669.727,581.272" style="fill:rgb(58,104,167);fill-rule:nonzero;"/>
            </g>
            <g transform="matrix(1,0,0,1,-320.645,-547.215)">
                <path d="M753.612,620.962C753.612,627.508 747.903,633.662 740.86,633.662C733.818,633.662 728.108,627.508 728.108,620.962L728.108,608.546C728.108,602 733.818,595.847 740.86,595.847C747.903,595.847 753.612,602 753.612,608.546L753.612,620.962ZM741.025,581.272C716.868,581.272 708.738,595.847 708.738,615.328C708.738,635.996 719.214,649.385 741.025,649.385C758.857,649.385 773.313,637.404 773.313,615.328C773.313,596.52 764.088,581.272 741.025,581.272" style="fill:rgb(58,104,167);fill-rule:nonzero;"/>
            </g>
            <g transform="matrix(1,0,0,1,-320.645,-547.215)">
                <path d="M841.015,647.41L819.907,614.732L840.077,582.053L819.438,582.053L799.737,611.306L799.737,547.812L780.349,549.844L780.349,647.41L799.737,647.41L799.737,614.166L821.002,647.41L841.015,647.41Z" style="fill:rgb(58,104,167);fill-rule:nonzero;"/>
            </g>
        </g>
        <g transform="matrix(0.24,0,0,0.24,23.1477,4.55019)">
            <path d="M147.801,693.476L147.801,499.804L200.537,499.804C223.917,499.804 240.711,503.751 250.918,511.647C261.125,519.542 266.228,532.519 266.228,550.577C266.228,571.166 259.249,587.305 245.291,598.995C231.333,610.685 211.965,616.53 187.189,616.53L175.019,616.53L175.019,693.476L147.801,693.476ZM175.019,595.724L186.142,595.724C202.456,595.724 215.062,591.972 223.961,584.47C232.859,576.967 237.308,566.368 237.308,552.671C237.308,541.068 233.819,532.78 226.84,527.808C219.861,522.835 208.214,520.349 191.9,520.349L175.019,520.349L175.019,595.724Z" style="fill:rgb(64,106,179);fill-rule:nonzero;"/>
            <path d="M370,675.417C354.558,689.637 339.684,696.747 325.377,696.747C313.599,696.747 303.829,693.061 296.064,685.69C288.3,678.318 284.418,669.005 284.418,657.751C284.418,642.222 290.939,630.292 303.981,621.961C317.024,613.63 335.715,609.464 360.055,609.464L366.205,609.464L366.205,592.321C366.205,575.833 357.743,567.589 340.818,567.589C327.209,567.589 312.509,571.776 296.719,580.151L296.719,558.821C314.079,551.755 330.349,548.222 345.529,548.222C361.407,548.222 373.119,551.799 380.665,558.952C388.211,566.106 391.984,577.229 391.984,592.321L391.984,656.704C391.984,671.448 396.521,678.819 405.594,678.819C406.728,678.819 408.385,678.645 410.566,678.296L412.398,692.56C406.553,695.351 400.098,696.747 393.031,696.747C380.992,696.747 373.315,689.637 370,675.417ZM366.205,661.415L366.205,624.644L357.568,624.382C343.435,624.382 332.007,627.065 323.283,632.43C314.559,637.795 310.197,644.84 310.197,653.564C310.197,659.758 312.378,664.992 316.74,669.267C321.102,673.541 326.424,675.679 332.705,675.679C343.435,675.679 354.602,670.924 366.205,661.415Z" style="fill:rgb(64,106,179);fill-rule:nonzero;"/>
            <path d="M445.244,740.716L448.254,718.339C463.172,725.405 477.872,728.939 492.353,728.939C521.404,728.939 535.93,713.541 535.93,682.745L535.93,660.368C526.42,680.259 510.805,690.204 489.082,690.204C472.07,690.204 458.548,684.01 448.515,671.622C438.483,659.234 433.467,642.528 433.467,621.503C433.467,599.868 439.181,582.245 450.609,568.636C462.038,555.026 476.825,548.222 494.971,548.222C510.848,548.222 524.501,554.678 535.93,567.589L535.93,551.362L561.84,551.362L561.84,654.741C561.84,676.987 560.684,693.454 558.372,704.141C556.06,714.828 551.72,723.573 545.351,730.378C534.098,742.33 516.606,748.306 492.877,748.306C476.301,748.306 460.424,745.776 445.244,740.716ZM535.93,644.273L535.93,585.255C524.588,573.478 512.244,567.589 498.896,567.589C487.032,567.589 477.741,572.344 471.023,581.853C464.306,591.362 460.947,604.404 460.947,620.98C460.947,652.124 471.896,667.696 493.793,667.696C508.711,667.696 522.756,659.888 535.93,644.273Z" style="fill:rgb(64,106,179);fill-rule:nonzero;"/>
            <path d="M715.992,688.896C698.719,694.13 683.932,696.747 671.631,696.747C650.693,696.747 633.616,689.79 620.399,675.875C607.182,661.96 600.574,643.924 600.574,621.765C600.574,600.217 606.397,582.551 618.044,568.767C629.69,554.983 644.586,548.091 662.732,548.091C679.918,548.091 693.201,554.198 702.579,566.411C711.957,578.625 716.646,595.985 716.646,618.493L716.515,626.476L626.877,626.476C630.628,660.237 647.16,677.118 676.473,677.118C687.203,677.118 700.376,674.239 715.992,668.482L715.992,688.896ZM628.055,607.109L690.736,607.109C690.736,580.675 680.878,567.458 661.162,567.458C641.359,567.458 630.323,580.675 628.055,607.109Z" style="fill:rgb(64,106,179);fill-rule:nonzero;"/>
            <rect x="845.019" y="499.804" width="27.48" height="193.672" style="fill:rgb(64,106,179);fill-rule:nonzero;"/>
            <path d="M923.142,693.476L923.142,551.362L948.922,551.362L948.922,578.058C962.531,558.167 979.194,548.222 998.91,548.222C1011.21,548.222 1021.02,552.126 1028.35,559.934C1035.68,567.742 1039.35,578.232 1039.35,591.405L1039.35,693.476L1013.57,693.476L1013.57,599.78C1013.57,589.224 1012.02,581.7 1008.92,577.207C1005.82,572.714 1000.7,570.468 993.545,570.468C977.754,570.468 962.88,580.806 948.922,601.482L948.922,693.476L923.142,693.476Z" style="fill:rgb(64,106,179);fill-rule:nonzero;"/>
            <path d="M1127.15,696.747C1115.38,696.747 1101.07,693.999 1084.23,688.503L1084.23,664.817C1101.07,673.192 1115.72,677.38 1128.2,677.38C1135.61,677.38 1141.77,675.373 1146.65,671.36C1151.54,667.347 1153.98,662.331 1153.98,656.312C1153.98,647.5 1147.13,640.216 1133.43,634.458L1118.38,628.046C1096.14,618.799 1085.02,605.495 1085.02,588.134C1085.02,575.746 1089.4,565.997 1098.17,558.887C1106.93,551.777 1118.95,548.222 1134.22,548.222C1142.16,548.222 1151.97,549.312 1163.66,551.493L1169.03,552.54L1169.03,574.001C1154.63,569.726 1143.2,567.589 1134.74,567.589C1118.17,567.589 1109.88,573.609 1109.88,585.648C1109.88,593.412 1116.16,599.955 1128.72,605.276L1141.15,610.511C1155.2,616.443 1165.14,622.703 1170.99,629.289C1176.84,635.876 1179.76,644.098 1179.76,653.956C1179.76,666.431 1174.83,676.682 1164.97,684.708C1155.11,692.734 1142.51,696.747 1127.15,696.747Z" style="fill:rgb(64,106,179);fill-rule:nonzero;"/>
            <path d="M1226.08,693.476L1226.08,551.362L1251.86,551.362L1251.86,693.476L1226.08,693.476ZM1226.08,525.583L1226.08,499.804L1251.86,499.804L1251.86,525.583L1226.08,525.583Z" style="fill:rgb(64,106,179);fill-rule:nonzero;"/>
            <path d="M1304.07,740.716L1307.08,718.339C1322,725.405 1336.7,728.939 1351.18,728.939C1380.23,728.939 1394.76,713.541 1394.76,682.745L1394.76,660.368C1385.25,680.259 1369.63,690.204 1347.91,690.204C1330.9,690.204 1317.38,684.01 1307.35,671.622C1297.31,659.234 1292.3,642.528 1292.3,621.503C1292.3,599.868 1298.01,582.245 1309.44,568.636C1320.87,555.026 1335.65,548.222 1353.8,548.222C1369.68,548.222 1383.33,554.678 1394.76,567.589L1394.76,551.362L1420.67,551.362L1420.67,654.741C1420.67,676.987 1419.51,693.454 1417.2,704.141C1414.89,714.828 1410.55,723.573 1404.18,730.378C1392.93,742.33 1375.44,748.306 1351.71,748.306C1335.13,748.306 1319.25,745.776 1304.07,740.716ZM1394.76,644.273L1394.76,585.255C1383.42,573.478 1371.07,567.589 1357.73,567.589C1345.86,567.589 1336.57,572.344 1329.85,581.853C1323.14,591.362 1319.78,604.404 1319.78,620.98C1319.78,652.124 1330.73,667.696 1352.62,667.696C1367.54,667.696 1381.59,659.888 1394.76,644.273Z" style="fill:rgb(64,106,179);fill-rule:nonzero;"/>
            <path d="M1470.66,693.476L1470.66,486.849L1496.44,486.849L1496.44,578.058C1510.05,558.167 1526.71,548.222 1546.43,548.222C1558.73,548.222 1568.54,552.126 1575.87,559.934C1583.2,567.742 1586.86,578.232 1586.86,591.405L1586.86,693.476L1561.08,693.476L1561.08,599.78C1561.08,589.224 1559.53,581.7 1556.44,577.207C1553.34,572.714 1548.21,570.468 1541.06,570.468C1525.27,570.468 1510.4,580.806 1496.44,601.482L1496.44,693.476L1470.66,693.476Z" style="fill:rgb(64,106,179);fill-rule:nonzero;"/>
            <path d="M1679.64,696.747C1666.56,696.747 1656.35,692.996 1649.02,685.493C1641.69,677.991 1638.03,667.566 1638.03,654.218L1638.03,570.73L1620.23,570.73L1620.23,551.362L1638.03,551.362L1638.03,525.583L1663.81,523.097L1663.81,551.362L1700.97,551.362L1700.97,570.73L1663.81,570.73L1663.81,649.507C1663.81,668.089 1671.83,677.38 1687.88,677.38C1691.29,677.38 1695.43,676.813 1700.32,675.679L1700.32,693.476C1692.38,695.657 1685.49,696.747 1679.64,696.747Z" style="fill:rgb(64,106,179);fill-rule:nonzero;"/>
            <path d="M1774.91,696.747C1763.13,696.747 1748.82,693.999 1731.98,688.503L1731.98,664.817C1748.82,673.192 1763.48,677.38 1775.95,677.38C1783.37,677.38 1789.52,675.373 1794.4,671.36C1799.29,667.347 1801.73,662.331 1801.73,656.312C1801.73,647.5 1794.88,640.216 1781.19,634.458L1766.14,628.046C1743.89,618.799 1732.77,605.495 1732.77,588.134C1732.77,575.746 1737.15,565.997 1745.92,558.887C1754.69,551.777 1766.71,548.222 1781.97,548.222C1789.91,548.222 1799.73,549.312 1811.42,551.493L1816.78,552.54L1816.78,574.001C1802.39,569.726 1790.96,567.589 1782.5,567.589C1765.92,567.589 1757.63,573.609 1757.63,585.648C1757.63,593.412 1763.91,599.955 1776.48,605.276L1788.91,610.511C1802.95,616.443 1812.9,622.703 1818.74,629.289C1824.59,635.876 1827.51,644.098 1827.51,653.956C1827.51,666.431 1822.58,676.682 1812.72,684.708C1802.87,692.734 1790.26,696.747 1774.91,696.747Z" style="fill:rgb(64,106,179);fill-rule:nonzero;"/>
        </g>
    </g>
</svg>
