<?xml version="1.0" encoding="utf-8"?>
<!-- Generator: Adobe Illustrator 21.1.0, SVG Export Plug-In . SVG Version: 6.00 Build 0)  -->
<svg version="1.1" id="Layer_1" xmlns="http://www.w3.org/2000/svg" xmlns:xlink="http://www.w3.org/1999/xlink" x="0px" y="0px"
	 viewBox="0 0 693.9 86.2" style="enable-background:new 0 0 693.9 86.2;" xml:space="preserve">
<style type="text/css">
	.st0{fill:#585763;}
	.st1{fill:url(#SVGID_1_);}
</style>
<g>
	<g>
		<path class="st0" d="M66.2,63.3h13.3l-3.6,13.3L66.2,63.3z M27.3,10.2L37,23.4h53.2l3.6-13.3H27.3z M56.5,50h26.6l3.6-13.3H46.7
			L56.5,50z"/>
		<linearGradient id="SVGID_1_" gradientUnits="userSpaceOnUse" x1="40.4841" y1="84.9292" x2="58.2942" y2="18.4609">
			<stop  offset="0" style="stop-color:#59B890"/>
			<stop  offset="1" style="stop-color:#0584C2"/>
		</linearGradient>
		<path class="st1" d="M66.2,63.3l9.7,13.3H62.7L66.2,63.3z M37,23.4l-9.7-13.3L9.5,76.6h13.3L37,23.4z M56.5,50l-9.7-13.3
			L36.1,76.6h13.3L56.5,50z"/>
		<path class="st0" d="M168.6,33.2c1.8-6.9,1.1-12.5-2.3-16.7c-3.4-4.2-8.7-6.3-16-6.3h-30.1l-17.8,66.5H117l5.6-20.9h16.1
			c7.2,0,13.5-2,18.9-6.1C163.1,45.5,166.8,40,168.6,33.2z M154.2,32.7c-0.8,2.9-2.2,5.1-4.2,6.6c-2.1,1.6-5,2.4-8.6,2.4h-15.1
			l4.8-18.3h15.7c3.5,0,5.8,0.7,7,2.1C154.9,27,155,29.9,154.2,32.7z"/>
		<path class="st0" d="M192.3,10.2l-46,66.5h16.1l9.2-13.3H200l2,13.3h14.2l-10.4-66.5H192.3z M180.7,50l14.5-21.2l2.7,21.2H180.7z"
			/>
		<path class="st0" d="M270.4,10.2h-31.7l-17.8,66.5h14.5l6-22.5h15.9l8.1,22.5h15.5l-9.7-25.3c0.3-0.1,0.6-0.2,0.9-0.4
			c8.2-3.2,13.8-9.5,16.2-18.3c1.8-6.8,1-12.4-2.4-16.4C282.6,12.2,277.4,10.2,270.4,10.2z M274,32.1c-0.4,1.6-1,2.9-1.8,3.8
			c-2.4,2.8-6,4.1-10.9,4.1h-16.1l4.4-16.6h17c3.2,0,5.4,0.6,6.8,2.1C274.6,26.9,274.6,29.6,274,32.1z"/>
		<polygon class="st0" points="352.6,10.2 297.1,10.2 293.6,23.4 314,23.4 299.8,76.6 314.3,76.6 328.5,23.4 349,23.4 		"/>
		<polygon class="st0" points="400.4,10.2 389.7,50 369.9,10.2 357.2,10.2 339.4,76.6 354.7,76.6 365.3,36.7 385.1,76.6 397.9,76.6 
			415.7,10.2 		"/>
		<polygon class="st0" points="424.1,50 454.5,50 458,36.7 427.7,36.7 431.2,23.4 467.8,23.4 471.3,10.2 420.3,10.2 402.5,76.6 
			453.5,76.6 457.1,63.3 420.5,63.3 		"/>
		<path class="st0" d="M509.4,51c8.2-3.2,13.8-9.5,16.2-18.3c1.8-6.8,1-12.4-2.4-16.4c-3.3-4-8.6-6.1-15.6-6.1h-31.7l-17.8,66.5
			h14.5l6-22.5h16.7l8.1,22.5h14.7l-9.7-25.3C508.8,51.2,509.1,51.1,509.4,51z M498.5,40h-16.1l4.4-16.6h17c3.2,0,5.4,0.6,6.8,2.1
			c1.2,1.3,1.3,4,0.6,6.5c-0.4,1.6-1,2.9-1.8,3.8C507,38.7,503.4,40,498.5,40z"/>
		<polygon class="st0" points="540.6,10.2 522.8,76.6 537.3,76.6 555.1,10.2 		"/>
		<polygon class="st0" points="609.9,23.4 613.5,10.2 559.7,10.2 556.1,23.4 589.9,23.4 545.4,63.3 541.9,76.6 595.7,76.6 
			599.2,63.3 564.9,63.3 		"/>
		<polygon class="st0" points="665.6,23.4 669.1,10.2 618.1,10.2 600.3,76.6 651.3,76.6 654.9,63.3 618.4,63.3 621.9,50 652.3,50 
			655.8,36.7 625.5,36.7 629,23.4 		"/>
		<path class="st0" d="M354.9,76.6"/>
		<path class="st0" d="M368.6,76.6"/>
	</g>
	<g>
		<path class="st0" d="M674.1,16.6h-1.1l1.5-5.6h-1.9l0.2-0.9h4.9l-0.2,0.9h-1.9L674.1,16.6z"/>
		<path class="st0" d="M679.4,16.6l-0.4-5.4h0c-0.2,0.8-0.3,1.6-0.5,2.3l-0.8,3.2h-1l1.7-6.5h1.5l0.4,5.2h0l3.2-5.2h1.5l-1.7,6.5h-1
			l0.9-3.2c0.1-0.3,0.2-0.7,0.4-1.3c0.2-0.5,0.3-0.8,0.3-0.9h0l-3.4,5.4H679.4z"/>
	</g>
</g>
</svg>
