<svg xmlns="http://www.w3.org/2000/svg" viewBox="0 0 116.2 60.4" height="60" width="116">
<defs><style>
.a {fill: none;}
.b {fill: none;}
.c {fill: #bf0000;}
</style></defs><title>  logo_marketing_02</title><rect y="-18.8" x="-104.4" height="98" width="325" class="a" fill="none"/><g transform="translate(-104.38 -18.821)"><rect height="54.5" width="116.2" y="20.2" x="104.4" class="b"/><polygon points="130.5 50.2 189.1 45.1 125.4 45.1 " class="c"/><path d="m131.3 24.6v0.8a6.4 6.4 0 0 0-3.7-1.2c-4.5 0-7.9 4.1-7.9 9.1 0 5 3.4 9.1 7.9 9.1a6.4 6.4 0 0 0 3.7-1.2v0.8h3.9V24.6Zm-3.7 13.5c-2.2 0-3.8-2.2-3.8-4.9 0-2.7 1.6-4.9 3.8-4.9 2.2 0 3.8 2.2 3.8 4.9 0 2.7-1.5 4.9-3.8 4.9z" class="c"/><path d="m162.8 24.6v10.2a3.2 3.2 0 1 1-6.4 0V24.6h-3.9v10.2c0 4.2 2.9 7.6 7 7.6a6 6 0 0 0 3.3-1.1v0.6h3.9V24.6Z" class="c"/><path d="M199.3 41.8V31.7a3.2 3.2 0 1 1 6.4 0v10.2h3.9V31.7c0-4.2-2.8-7.6-7-7.6a6 6 0 0 0-3.3 1.1V24.6H195.4v17.3z" class="c"/><path d="m108.5 41.8v-6.7h2.9l5 6.7h5.1l-6.1-8.1A7.4 7.4 0 0 0 111.2 20.2h-6.8v21.6zm0-17.5h2.7a3.3 3.3 0 1 1 0 6.7h-2.7z" class="c"/><path d="m177.3 37.8a2.3 2.3 0 0 1-1.3 0.4 1.9 1.9 0 0 1-1.8-2.1v-7.4h3.4v-4.1H174.1v-4.3h-3.9v4.3h-2.1v4.1h2.1v7.5a5.9 5.9 0 0 0 5.8 6.2 8.1 8.1 0 0 0 3.8-1.1z" class="c"/><polygon points="146.2 24.6 141.5 30.6 141.5 18.8 137.5 18.8 137.5 41.8 141.5 41.8 141.5 34.7 147.3 41.8 152.8 41.8 145 32.7 151.7 24.6 " class="c"/><path d="m186.3 24.1c-4.5 0-7.8 4-7.8 9.1 0 5.4 4.1 9.1 8.2 9.1a8.2 8.2 0 0 0 6.9-3.9l-3.5-2c-2.7 4-7.1 1.9-7.7-2h11.3c1-6.2-3-10.3-7.5-10.3zm3.4 6.9h-7.1c0.8-4 6.3-4.3 7.1 0z" class="c"/><path d="m121.3 54.3v20.5h-2.3V57.2l-6.1 10-6.1-10v17.6h-2.3V54.3h3.2l5.3 8.8 5.3-8.8z" class="c"/><path d="m135 73a5.7 5.7 0 0 1-4.6 2.2c-4.3 0-7.2-3.5-7.2-8.6 0-5.1 3-8.6 7.3-8.6a5.8 5.8 0 0 1 4.6 1.9l0.3-1.5h2.1v16.4h-2.1zm-9.4-6.4c0 3.7 2 6.4 4.8 6.4 2.8 0 4.8-2.7 4.8-6.4 0-3.8-2-6.4-4.8-6.4-2.7 0-4.8 2.7-4.8 6.4z" class="c"/><path d="m142.2 59.9a7.2 7.2 0 0 1 4.7-2v2.2c-2.6 0.3-4.6 1.9-4.6 3.6v11h-2.3V58.4h2z" class="c"/><path d="m158.3 74.8-7.2-8.6v8.6h-2.3V52.9h2.3v12.5l6.5-7h3l-7 7.5 7.9 8.9z" class="c"/><path d="m175 71.8a7.4 7.4 0 0 1-6.6 3.4c-4.5 0-7.6-3.6-7.6-8.7 0-5.1 3-8.6 7.3-8.6 4 0 7.1 3.5 7.1 7.9a7.4 7.4 0 0 1-0.1 1.3h-11.8a6.4 6.4 0 0 0 1.7 4.3 4.7 4.7 0 0 0 3.4 1.6 5 5 0 0 0 4.7-2.8zm-2.5-6.7c-0.2-3-2-5-4.4-5a4.6 4.6 0 0 0-3.9 2.3 6.2 6.2 0 0 0-0.8 2.7z" class="c"/><path d="m180.8 54.8v3.6h4.1v2.2h-4.1v10.9c0 1 0.6 1.6 1.7 1.6a2 2 0 0 0 2-1.3l1.8 1.2A4.3 4.3 0 0 1 182.2 75.2 3.3 3.3 0 0 1 178.7 73 5.6 5.6 0 0 1 178.4 70.9V60.5H175.6v-2.2h2.8v-3.6z" class="c"/><path d="m187.8 56.3v-2.7h2.7v2.7zm0.2 18.5V58.4h2.3v16.4z" class="c"/><path d="m195.2 59.7a6.6 6.6 0 0 1 4.5-1.7c3.5 0 5.9 2.7 5.9 6.6V74.8H203.3V64.5c0-2.7-1.5-4.4-3.9-4.4a4.4 4.4 0 0 0-4.2 4.3v10.3h-2.3V58.4h2.1z" class="c"/><path d="m220.6 71.4c0 5-2.4 7.8-6.7 7.8a7.4 7.4 0 0 1-5.9-2.7l1.6-1.5a5.7 5.7 0 0 0 4.1 2.1c3 0 4.3-2 4.4-6.8a5.2 5.2 0 0 1-4.6 2.2c-3.6 0-6.2-2.9-6.2-7 0-4.4 2.7-7.5 6.4-7.5a5.8 5.8 0 0 1 4.4 1.7l0.5-1.3h2.1zm-10.9-6c0 3 1.7 5.1 4.2 5.1 2.5 0 4.2-2.1 4.2-5.1 0-3-1.8-5.3-4.3-5.3-2.5 0-4.2 2.2-4.2 5.3z" class="c"/></g></svg>
