<?xml version="1.0" encoding="UTF-8"?>
<svg width="145px" height="32px" viewBox="0 0 145 32" version="1.1" xmlns="http://www.w3.org/2000/svg" xmlns:xlink="http://www.w3.org/1999/xlink">
    <g id="Page-1" stroke="none" stroke-width="1" fill="none" fill-rule="evenodd">
        <g id="etracker">
            <g id="Page-1">
                <g id="etracker">
                    <g id="Group">
                        <g id="Shape">
                            <g id="Group">
                                <path d="M29.8,27.4 C30.9,27.4 31.7,27.1 32.5,26.8 C32.7,26.8 32.8,26.7 32.9,26.7 C33.2,26.7 33.4,26.8 33.4,27.2 L33.8,29.3 C33.9,29.8 33.7,30.1 33.2,30.4 C31.8,31 30.2,31.4 28.4,31.4 C26.1,31.4 24.4,30.8 23.2,29.6 C22.1,28.3 21.9,26.4 21.9,23.2 L21.9,13.7 C21.9,13.7 21.9,12.9 21.2,11.9 C20.9,11.4 20.4,10.8 19.5,10 L21.9,10 L21.9,5.2 C21.9,4.5 22.2,4.2 23,4.2 L26.3,3.8 C26.8,3.8 27.1,4.1 27.1,4.8 L27.1,10.1 L32,10.1 C32.5,10.1 32.8,10.3 32.8,10.8 L32.8,13 C32.8,13.5 32.5,13.8 31.9,13.8 L27.1,13.8 L27.1,23.6 C27.1,24.9 27.2,25.9 27.7,26.5 C28.1,27.1 28.8,27.4 29.8,27.4" id="Shape" fill="#000000"></path>
                                <path d="M46.9,9.5 C47.3,9.5 47.7,9.5 48.1,9.6 C48.4,9.6 48.5,9.9 48.5,10.2 C48.5,10.2 48.4,11.3 48,13.7 C47.9,14.2 47.7,14.4 47.2,14.3 C46.8,14.2 46.4,14.2 46.1,14.2 C44.5,14.2 43.2,15 42,16.3 L42,29.9 C42,30.6 41.7,31 40.9,31 L37.7,31 C37,31 36.7,30.6 36.7,29.9 L36.7,11.2 C36.7,10.4 37.1,10.1 37.8,10.1 L40.6,10.1 C41.3,10.1 41.7,10.4 41.7,10.9 L41.7,12.3 C42.9,10.5 44.6,9.6 46.9,9.5" id="Shape" fill="#000000"></path>
                                <path d="M70.9,28.1 L70.9,30.1 C70.9,30.6 70.6,30.9 70,30.9 L67.9,30.9 C65.8,30.8 64.6,29.9 64.4,28.4 L64.3,28.4 C63.7,29.2 62.8,29.9 61.6,30.5 C60.4,31.1 59.2,31.4 58,31.4 C55,31.3 52.7,30.3 51.3,28.2 C49.8,26.2 49.1,23.7 49.1,20.8 C49.2,17.1 50.1,14.2 51.9,12.3 C53.7,10.4 55.8,9.4 58.3,9.4 C60.7,9.5 62.6,10.3 63.8,11.9 L63.9,10.8 C63.9,10.3 64.3,10 64.8,10 L67.8,10 C68.3,10 68.6,10.3 68.7,10.9 L68.7,25.9 C68.7,26.5 68.8,27 69,27.2 C69.1,27.3 69.3,27.4 69.5,27.4 L69.8,27.4 C70.4,27.3 70.9,27.6 70.9,28.1 L70.9,28.1 Z M63.8,24.2 L63.8,15.9 C62.8,14.6 61.4,13.8 59.6,13.7 C58.3,13.7 57.1,14.2 56.2,15.4 C55.3,16.5 54.8,18.2 54.7,20.5 C54.7,22.4 55.1,23.9 55.8,25.2 C56.5,26.5 57.7,27.1 59.3,27.2 C60.4,27.2 61.3,26.8 62.1,26.2 C62.9,25.5 63.5,24.9 63.8,24.2 L63.8,24.1 L63.8,24.2 Z" id="Shape" fill="#000000"></path>
                                <path d="M83.3,27.4 C85,27.4 86.5,27.1 87.9,26.5 C88.4,26.2 88.7,26.3 88.9,26.8 L89.5,28.7 C89.6,29 89.6,29.2 89.6,29.4 C89.6,29.7 89.4,30 89,30.1 C87,31 85,31.4 82.8,31.4 C79.5,31.4 76.9,30.4 75.2,28.5 C73.5,26.6 72.6,24 72.6,20.7 C72.6,17.3 73.6,14.6 75.4,12.6 C77.3,10.6 79.9,9.5 83.2,9.5 C85.2,9.5 87.1,9.9 89,10.8 C89.5,11 89.7,11.4 89.5,12 L88.9,14.3 C88.8,14.7 88.6,14.9 88.4,14.9 C88.3,14.9 88.1,14.9 87.9,14.7 C86.7,14.2 85.3,13.8 83.8,13.8 C80,14 78.1,16.2 78,20.6 C78,22.7 78.5,24.3 79.4,25.6 C80.3,26.6 81.5,27.3 83.3,27.4" id="Shape" fill="#000000"></path>
                                <path d="M109.8,30.4 C109.8,30.8 109.5,31 109,30.9 L105.3,30.9 C104.6,30.9 104,30.6 103.6,30 L98,21 L97.5,21.4 L97.5,29.8 C97.5,30.5 97.2,30.9 96.5,30.9 L93.3,30.9 C92.7,30.9 92.3,30.5 92.3,29.8 L92.3,1.6 C92.3,1 92.6,0.6 93.2,0.5 L96.7,0 C97.2,0 97.5,0.3 97.6,1 L97.6,18.3 L97.7,18.3 L103.3,10.5 C103.6,10 104,9.9 104.5,9.9 L108.3,9.9 C108.6,9.9 108.8,10 108.8,10.3 C108.8,10.4 108.8,10.6 108.6,10.8 L102.4,18.6 L109.4,29.5 C109.8,29.8 109.8,30.1 109.8,30.4 L109.8,30.4 L109.8,30.4 Z" id="Shape" fill="#000000"></path>
                                <path d="M121.6,27.2 C123.5,27.2 125.3,26.8 127,26.1 C127.5,25.8 127.9,25.9 128.1,26.5 L128.7,28.7 C128.7,28.9 128.8,29.1 128.8,29.2 C128.8,29.5 128.6,29.7 128.1,30 C127,30.5 125.8,30.8 124.5,31 C123.2,31.2 122,31.3 120.8,31.3 C117.4,31.3 114.7,30.3 112.9,28.3 C111,26.3 110.1,23.6 110,20.2 C110,17 111.1,14.4 112.9,12.4 C114.8,10.4 117.4,9.4 120.7,9.4 C123.4,9.4 125.5,10.3 127.1,12 C129,14.1 129.8,16.6 129.7,19.5 L129.7,20.2 C129.7,21.1 129.3,21.5 128.3,21.5 L115.6,21.5 C116,25.1 118,27 121.6,27.2 L121.6,27.2 Z M115.5,18.1 L124.3,18.1 L124.3,17.6 C124.3,16.5 123.9,15.5 123.2,14.7 C122.5,13.9 121.5,13.5 120.2,13.4 C118.8,13.4 117.7,13.9 116.9,14.8 C116.1,15.7 115.6,16.8 115.5,18.1 L115.5,18.1 L115.5,18.1 Z" id="Shape" fill="#000000"></path>
                                <path d="M143.1,9.5 C143.5,9.5 143.9,9.5 144.3,9.6 C144.6,9.6 144.7,9.9 144.7,10.2 C144.7,10.2 144.6,11.3 144.2,13.7 C144.1,14.2 143.9,14.4 143.4,14.3 C143,14.2 142.6,14.2 142.3,14.2 C140.7,14.2 139.4,15 138.2,16.3 L138.2,29.9 C138.2,30.6 137.9,31 137.1,31 L133.9,31 C133.2,31 132.9,30.6 132.9,29.9 L132.9,11.2 C132.9,10.4 133.3,10.1 134,10.1 L136.8,10.1 C137.5,10.1 137.9,10.4 137.9,10.9 L137.9,12.3 C139.1,10.5 140.8,9.6 143.1,9.5" id="Shape" fill="#000000"></path>
                                <path d="M20.6,15.5 C20.6,17.7 19.5,19.6 17.7,21.1 C15.8,22.6 13.2,23.4 10,23.4 C8.7,23.4 7.4,23.3 6.2,23 L6.2,23.5 C6.4,26.1 7.8,27.4 10.6,27.5 C11.8,27.5 13,27.3 14.3,26.9 C15.6,26.5 16.7,26 17.8,25.5 L17,29.4 C15.9,30 14.7,30.5 13.3,30.9 C11.9,31.3 10.5,31.4 9.1,31.4 C6.6,31.4 4.5,30.8 2.9,29.5 C1.3,28.2 0.5,26.3 0.5,23.8 C0.6,20.1 1.8,16.8 4.2,14.1 C6.6,11.4 9.8,10 13.6,9.8 C15.7,9.8 17.3,10.3 18.6,11.2 C19.9,12.1 20.6,13.6 20.6,15.5 M15.2,15.5 C15.2,14.3 14.5,13.6 13.1,13.5 C11.6,13.5 10.4,14.2 9.2,15.4 C8.1,16.6 7.3,18 6.8,19.7 C7.5,19.9 8.2,20 9.1,20 C13.1,19.7 15.2,18.2 15.2,15.5" id="Shape" fill="#F49B00"></path>
                            </g>
                        </g>
                    </g>
                </g>
            </g>
        </g>
    </g>
</svg>
