<?xml version="1.0" encoding="UTF-8" standalone="no"?>
<svg
   xmlns:dc="http://purl.org/dc/elements/1.1/"
   xmlns:cc="http://creativecommons.org/ns#"
   xmlns:rdf="http://www.w3.org/1999/02/22-rdf-syntax-ns#"
   xmlns:svg="http://www.w3.org/2000/svg"
   xmlns="http://www.w3.org/2000/svg"
   xmlns:sodipodi="http://sodipodi.sourceforge.net/DTD/sodipodi-0.dtd"
   xmlns:inkscape="http://www.inkscape.org/namespaces/inkscape"
   inkscape:version="1.0beta2 (2b71d25, 2019-12-03)"
   sodipodi:docname="logo-zeta-light.svg"
   id="svg16"
   version="1.1"
   viewBox="0 0 70 48"
   height="48"
   width="70">
  <metadata
     id="metadata22">
    <rdf:RDF>
      <cc:Work
         rdf:about="">
        <dc:format>image/svg+xml</dc:format>
        <dc:type
           rdf:resource="http://purl.org/dc/dcmitype/StillImage" />
      </cc:Work>
    </rdf:RDF>
  </metadata>
  <defs
     id="defs20" />
  <sodipodi:namedview
     inkscape:current-layer="g14"
     inkscape:window-maximized="0"
     inkscape:window-y="24"
     inkscape:window-x="0"
     inkscape:cy="30.688134"
     inkscape:cx="66.95244"
     inkscape:zoom="4.8825038"
     showgrid="false"
     id="namedview18"
     inkscape:window-height="855"
     inkscape:window-width="1440"
     inkscape:pageshadow="2"
     inkscape:pageopacity="0"
     guidetolerance="10"
     gridtolerance="10"
     objecttolerance="10"
     borderopacity="1"
     inkscape:document-rotation="0"
     bordercolor="#666666"
     pagecolor="#ffffff" />
  <g
     id="g14"
     fill-rule="evenodd"
     fill="none">
    <path
       style="fill:#0dffff;fill-opacity:1"
       id="path10"
       d="M62.407 19.216c-5.367.568-7.892 2.192-7.892 5.035v.65c0 1.623 1.037 2.963 3.157 2.963 2.39 0 4.735-1.583 4.735-3.857v-4.791zm6.45 8.973v3.41h-1.534c-1.985 0-3.653-.811-3.698-3.126C62 30.423 59.52 31.6 56.77 31.6c-4.285 0-6.99-2.477-6.99-6.537v-.61c0-5.724 6.268-7.51 12.627-8.445v-3.492c0-1.948-1.082-3.167-3.428-3.167-2.75 0-3.427 1.097-3.427 3.37v1.3h-4.735v-1.462c0-3.939 2.57-7.146 8.162-7.146 6.089 0 8.254 3.41 8.254 7.958v13.399c0 .934.45 1.421 1.623 1.421zM44.826.076l-4.78 1.463v4.552h-3.562v3.82h3.247v13.291c0 3.699.36 5.934 1.443 7.967h5.186c-1.218-2.276-1.533-4.756-1.533-7.967V9.912h3.878v-3.82h-3.878V.075zm-14.453 13.09c0-2.274-1.302-3.857-3.814-3.857-2.603 0-3.904 1.583-3.904 3.857v3.005h7.718v-3.005zm4.441.731v4.872H22.656v5.157c0 2.314 1.301 3.816 3.904 3.816 2.512 0 3.814-1.502 3.814-3.816V22.18h4.441v1.137c0 5.156-2.96 8.283-8.345 8.283-5.384 0-8.704-3.208-8.704-8.405v-9.298c0-5.116 3.32-8.486 8.704-8.486s8.345 3.37 8.345 8.486zM14.964 27.45l2.265 3.718H.059V28.42L11.09 9.614H.596V5.842h15.739V8.59L5.485 27.45h9.479z"
       fill="#FFF" />
    <path
       id="path12"
       d="M68.856 34.186v3.988H53.654l-9.538 7.76v.023c-4.479 4.193-4.263.766-4.891-1.37a990.445 990.445 0 0 0-1.488-6.413H0v-3.988h36.792l.001.008 5.475 3.98c.032-.027.029.026.834 3.34 2.227-1.816 6.824-5.53 9.062-7.328h16.692z"
       fill="#BCD539" />
    <path
       inkscape:connector-curvature="0"
       id="path847"
       d="M 41.072988,30.901273 C 40.605685,29.974379 40.198994,28.622481 40.016043,27.387836 39.801981,25.943238 39.773394,24.762789 39.773119,17.356719 l -2.76e-4,-7.4512027 h -1.62942 -1.62942 V 8.0056532 6.1057906 l 1.782178,-0.0181 1.782178,-0.0181 0.01788,-2.2547916 0.01788,-2.2547918 0.694987,-0.2147067 C 41.191358,1.2272109 42.176238,0.9250266 42.997737,0.67377902 43.819236,0.42253141 44.560113,0.19511325 44.64413,0.16840535 l 0.152758,-0.0485598 V 3.1116908 6.1035361 h 1.934937 1.934936 v 1.9009901 1.9009901 h -1.934936 -1.934937 l 2.72e-4,7.3154177 c 1.36e-4,4.437967 0.02821,7.689285 0.0713,8.265912 0.160812,2.152173 0.507452,3.66756 1.155267,5.050416 0.146737,0.313231 0.266794,0.580558 0.266794,0.594059 4e-6,0.0135 -1.14506,0.02455 -2.544585,0.02455 h -2.544589 z"
       style="fill:#001c27;fill-opacity:1;stroke-width:0.0678925" />
    <path
       inkscape:connector-curvature="0"
       id="path849"
       d="m 55.261489,31.456439 c -1.545137,-0.249409 -2.688917,-0.807771 -3.67535,-1.794204 -0.962782,-0.962781 -1.413372,-1.862789 -1.668893,-3.333443 -0.157145,-0.904443 -0.104025,-2.791279 0.100053,-3.553981 0.899502,-3.361704 4.312527,-5.365362 11.107736,-6.520934 l 1.289958,-0.219365 0.01882,-1.859406 c 0.02101,-2.075216 -0.03176,-2.608399 -0.31922,-3.225632 -0.513024,-1.1015569 -1.503603,-1.6067218 -3.162121,-1.6125856 -1.891205,-0.00669 -2.835866,0.4963997 -3.234956,1.7228006 -0.117523,0.361148 -0.149654,0.666347 -0.176905,1.680339 l -0.0333,1.239038 h -2.333997 -2.333997 l 1.9e-4,-0.899575 c 2.36e-4,-1.105519 0.09819,-1.941836 0.316088,-2.698727 0.756092,-2.6263584 2.77663,-4.2620338 5.929025,-4.7996929 0.974055,-0.1661306 3.056237,-0.1479975 4.074358,0.035482 3.591236,0.6471918 5.558321,2.7642404 5.972272,6.4275769 0.04246,0.37575 0.06941,3.382141 0.06998,7.807638 6.11e-4,4.73923 0.02488,7.282821 0.07106,7.449094 0.144846,0.521541 0.527536,0.806573 1.208707,0.900258 l 0.349833,0.04811 v 1.665165 1.665165 L 67.557845,31.54425 C 66.711651,31.52078 66.16265,31.47386 65.920343,31.404308 64.626774,31.032995 63.879081,30.21195 63.714401,28.981954 l -0.07156,-0.534503 -0.613925,0.593888 c -1.256431,1.215424 -2.70819,1.976984 -4.485775,2.353136 -0.762989,0.161455 -2.466053,0.193609 -3.281654,0.06196 z m 3.260056,-3.633524 c 1.130238,-0.175362 2.07937,-0.64658 2.847593,-1.413749 0.575884,-0.575093 0.882678,-1.124037 1.00622,-1.800419 0.04425,-0.242274 0.07358,-1.402911 0.07358,-2.91178 v -2.508929 l -0.458274,0.04448 c -0.252051,0.02446 -0.901273,0.123762 -1.442716,0.220665 -3.61302,0.646628 -5.583509,1.947836 -5.976771,3.946749 -0.04894,0.248765 -0.07104,0.799532 -0.05577,1.390022 0.02513,0.971737 0.02692,0.981309 0.280348,1.494078 0.62612,1.266869 1.951284,1.814209 3.72579,1.538885 z"
       style="fill:#001c27;fill-opacity:1;stroke-width:0.0678925" />
    <path
       inkscape:connector-curvature="0"
       id="path851"
       d="m 25.243847,31.520779 c -3.656834,-0.451326 -6.049922,-2.284613 -7.020671,-5.378366 -0.412427,-1.314397 -0.413558,-1.335213 -0.413558,-7.614549 0,-6.38981 -0.0068,-6.278959 0.474481,-7.717442 0.277276,-0.8287149 0.550227,-1.386087 0.994367,-2.0305256 0.393383,-0.570791 1.288792,-1.4579514 1.857885,-1.8407709 1.673374,-1.125651 4.028406,-1.6668992 6.314003,-1.4511232 2.174641,0.2053011 3.789088,0.8978381 5.063151,2.1719016 1.001218,1.0012181 1.609792,2.150492 2.01599,3.8071401 0.17315,0.706178 0.175044,0.743627 0.201695,3.988684 l 0.0269,3.275814 h -6.087514 -6.087513 l 0.02999,3.004243 c 0.02557,2.560535 0.04705,3.064407 0.14547,3.411598 0.395715,1.395937 1.315219,2.247961 2.711937,2.512916 2.037165,0.386447 3.829092,-0.301963 4.508786,-1.732152 0.319856,-0.673031 0.424422,-1.316311 0.424422,-2.610999 v -1.123089 h 2.17256 2.17256 l -4.08e-4,1.103254 c -9.77e-4,2.688854 -0.693239,4.63623 -2.166274,6.093845 -1.045509,1.034565 -2.381338,1.695024 -4.054073,2.00441 -0.582307,0.107703 -2.754925,0.190535 -3.284203,0.125211 z m 5.159831,-17.060492 c 0,-2.025817 -0.07072,-2.556945 -0.440531,-3.308474 -0.600867,-1.2210889 -1.772745,-1.8549716 -3.429342,-1.8549716 -1.63389,0 -2.823666,0.6227221 -3.445038,1.8031126 -0.381591,0.724891 -0.434286,1.081147 -0.473564,3.201602 l -0.03553,1.917963 h 3.912001 3.912001 z"
       style="fill:#001c27;fill-opacity:1;stroke-width:0.0678925" />
    <path
       inkscape:connector-curvature="0"
       id="path853"
       d="M 0.12362093,29.769078 V 28.382287 L 5.6229137,19.008131 c 3.0246111,-5.155785 5.4992933,-9.3894377 5.4992933,-9.4081163 0,-0.018678 -2.3677516,-0.033961 -5.2616695,-0.033961 H 0.59886846 V 7.7329562 5.8998586 H 8.4404526 16.282037 v 1.3541787 1.3541788 l -5.397454,9.3816249 c -2.9686,5.159893 -5.3974543,9.408222 -5.3974543,9.440729 0,0.03296 2.0947886,0.06005 4.7355023,0.06124 l 4.735502,0.0021 0.950495,1.569782 c 0.522772,0.86338 1.020968,1.687314 1.107101,1.830962 l 0.156607,0.261177 H 8.6479783 0.12362093 Z"
       style="fill:#013040;fill-opacity:1;stroke-width:0.0678925" />
    <path
       inkscape:connector-curvature="0"
       id="path855"
       d="m 0.1424563,29.780995 c 0,-1.192472 0.006416,-1.204823 5.4532572,-10.496664 C 8.5950048,14.167799 11.093343,9.8663375 11.147576,9.7255286 11.224881,9.5248138 10.1133,9.4695125 6.0015381,9.4695125 H 0.75689515 V 7.7286024 5.9876923 H 8.4373807 16.117866 V 7.3201094 8.6525265 L 10.888581,17.7659 c -2.8761064,5.012356 -5.2822787,9.251474 -5.3470491,9.420262 -0.1025177,0.267158 0.4916207,0.30689 4.5891211,0.30689 h 4.706885 l 1.040456,1.74091 1.040456,1.74091 H 8.5304531 0.1424563 Z"
       style="fill:#013040;fill-opacity:1;stroke-width:0.204813" />
    <path
       inkscape:connector-curvature="0"
       id="path857"
       d="m 23.84872,31.172578 c -1.908111,-0.475617 -3.645004,-1.685627 -4.620992,-3.219221 -1.202831,-1.890041 -1.289415,-2.584139 -1.223587,-9.808866 0.05708,-6.264614 0.07824,-6.570948 0.531287,-7.692211 1.210651,-2.9962816 4.259312,-4.8693518 7.925492,-4.8693518 3.820138,0 6.519278,1.7679455 7.653482,5.0130558 0.358157,1.024737 0.438605,1.798816 0.484272,4.659767 l 0.05476,3.43089 -6.114645,-2.73e-4 -6.114645,-2.73e-4 0.07337,3.225804 c 0.08233,3.619466 0.333421,4.460937 1.584998,5.311691 1.380024,0.938066 3.868858,0.798436 5.161912,-0.289597 0.877852,-0.738665 1.210341,-1.624155 1.210341,-3.223402 v -1.337863 h 2.048129 2.04813 v 1.396517 c 0,3.264579 -1.451786,5.661768 -4.198666,6.932839 -1.076679,0.498215 -1.507908,0.574433 -3.48182,0.615395 -1.239118,0.02571 -2.59894,-0.03949 -3.021826,-0.144901 z m 6.606053,-17.051376 c 0,-1.778117 -0.07196,-2.249701 -0.460829,-3.020148 -0.631839,-1.2518204 -1.690904,-1.8285296 -3.366081,-1.8329853 -1.430706,-0.00381 -2.201597,0.2302999 -2.900174,0.8807293 -0.872738,0.812586 -1.1039,1.549194 -1.213799,3.867828 l -0.104831,2.211714 h 4.022857 4.022857 z"
       style="fill:#013040;fill-opacity:1;stroke-width:0.204813" />
    <path
       inkscape:connector-curvature="0"
       id="path859"
       d="m 40.734567,29.694791 c -0.731251,-2.097702 -0.850086,-3.76428 -0.854341,-11.981557 l -0.0041,-7.8340956 H 38.237665 36.599161 V 8.0358218 6.1925053 h 1.74091 c 0.957501,0 1.752204,-0.069124 1.766007,-0.1536097 0.01381,-0.084485 0.08293,-1.1182949 0.15361,-2.2973547 l 0.128513,-2.1437449 1.74091,-0.5396596 c 0.9575,-0.29681285 1.948283,-0.60561861 2.201739,-0.68623506 L 44.791679,0.22532601 V 3.2089156 6.1925053 h 1.843317 1.843316 v 1.8433165 1.8433166 h -1.843316 -1.843317 v 8.1745006 c 0,8.436858 0.128,10.131675 0.905776,11.993154 0.177706,0.42531 0.323102,0.808118 0.323102,0.850684 0,0.04257 -1.088946,0.0774 -2.419879,0.0774 h -2.419879 z"
       style="fill:#013040;fill-opacity:1;stroke-width:0.204813" />
    <path
       inkscape:connector-curvature="0"
       id="path861"
       d="m 53.876475,30.969373 c -1.451354,-0.573784 -2.781837,-1.801545 -3.3704,-3.110181 -0.401902,-0.893607 -0.487476,-1.423229 -0.48937,-3.028708 -0.002,-1.704866 0.06657,-2.08594 0.554006,-3.078436 0.658122,-1.340034 1.275538,-1.966375 2.899425,-2.941339 1.513623,-0.908762 3.850798,-1.691816 6.767945,-2.267551 l 2.269918,-0.447996 -0.0058,-2.239195 c -0.0093,-3.591969 -0.604222,-4.3969627 -3.352842,-4.5370924 -2.66159,-0.1356927 -3.706425,0.8159564 -3.707061,3.3764414 l -3.18e-4,1.280081 H 53.159769 50.87756 l 0.111539,-1.627321 c 0.183954,-2.6838317 1.256189,-4.5527529 3.227579,-5.6257179 1.440317,-0.783919 2.884849,-1.1389582 4.645835,-1.1418608 4.529298,-0.00747 7.218162,1.8998376 8.023313,5.6912097 0.146755,0.69105 0.23049,3.80243 0.23049,8.564405 0,4.552548 0.07948,7.627558 0.203109,7.85857 0.111711,0.208733 0.480374,0.440411 0.819252,0.51484 l 0.616142,0.135329 v 1.519824 1.519823 h -1.339443 c -2.121994,0 -3.576068,-1.033023 -3.576068,-2.540559 0,-0.292399 -0.05882,-0.531635 -0.130705,-0.531635 -0.07189,0 -0.539204,0.376542 -1.038482,0.836759 -0.499277,0.460217 -1.523408,1.125998 -2.275846,1.479513 -1.203066,0.565233 -1.615099,0.649663 -3.4162,0.700014 -1.671143,0.04672 -2.242031,-0.0194 -3.101575,-0.359217 z m 6.071362,-3.493531 c 2.145987,-0.972899 2.505097,-1.720758 2.622535,-5.461536 0.07884,-2.511315 0.04831,-2.918585 -0.218764,-2.918585 -0.660831,0 -3.733461,0.657715 -4.532724,0.970258 -2.350213,0.919022 -3.400996,2.301306 -3.400996,4.473942 0,2.284189 1.088211,3.366611 3.376218,3.358259 0.794121,-0.0029 1.559685,-0.153024 2.153731,-0.422338 z"
       style="fill:#014864;fill-opacity:1;stroke-width:0.204813" />
    <path
       inkscape:connector-curvature="0"
       id="path863"
       d="m 41.252711,30.839239 c -0.35583,-0.589661 -0.99365,-3.244454 -1.072199,-4.462803 -0.198614,-3.080655 -0.299401,-6.965246 -0.301821,-11.63299 l -0.0025,-4.8643076 H 38.237665 36.599161 V 8.0437958 6.2084532 l 1.792114,-0.059177 1.792113,-0.059177 0.05156,-1.4336907 c 0.02835,-0.7885298 0.121519,-1.7988752 0.20703,-2.2452117 0.149316,-0.7793647 0.204083,-0.8261345 1.382136,-1.1803071 0.674663,-0.2028322 1.342835,-0.41116274 1.484826,-0.46295678 0.141992,-0.051794 0.326323,-0.10773383 0.409626,-0.12431065 0.0833,-0.0165768 0.358833,-0.10898281 0.612289,-0.20534661 L 44.791679,0.26306833 V 3.2277868 6.1925053 h 1.843317 1.843316 v 1.8433165 1.8433166 h -1.85993 -1.85993 l 0.07944,9.0629726 c 0.07552,8.615574 0.101208,9.12826 0.520369,10.385467 0.242511,0.727371 0.391109,1.372531 0.330219,1.433691 -0.187112,0.187936 -4.325514,0.260679 -4.435769,0.07797 z"
       style="fill:#014864;fill-opacity:1;stroke-width:0.204813" />
    <path
       inkscape:connector-curvature="0"
       id="path865"
       d="m 22.322277,30.468415 c -1.624193,-0.816381 -2.816584,-1.999816 -3.583465,-3.55655 -0.464276,-0.94246 -0.47041,-1.051049 -0.47041,-8.328176 v -7.373266 l 0.565728,-1.151979 c 0.686982,-1.3988873 2.245722,-2.9030929 3.69671,-3.5673773 1.161292,-0.531657 3.374106,-0.8989846 4.851739,-0.8053895 0.979583,0.062048 1.009242,0.069174 2.503312,0.6014448 0.531969,0.1895169 1.016447,0.3373188 1.076619,0.3284487 0.33516,-0.049407 2.27884,2.2560618 2.72662,3.2341414 0.61855,1.3510919 1.076782,5.0638939 0.91098,7.3811859 l -0.104119,1.455197 h -6.123922 -6.123923 l 0.102516,0.972862 c 0.05638,0.535074 0.156362,2.070536 0.222175,3.412139 0.06581,1.341603 0.214332,2.616174 0.330042,2.83238 0.949744,1.774612 3.31384,2.490184 5.333175,1.61426 1.643303,-0.712813 2.218719,-1.705343 2.218719,-3.827057 v -1.317951 h 2.048129 2.04813 l -0.0016,0.768049 c -0.0028,1.389849 -0.416136,3.357728 -0.909945,4.332214 -0.563627,1.112265 -1.941471,2.450969 -3.215609,3.124265 -0.781157,0.412791 -1.243789,0.4795 -3.758197,0.541913 L 23.7983,31.210349 22.322225,30.46842 Z m 8.132496,-16.28406 c 0,-3.71484 -0.989486,-4.9196555 -4.040395,-4.9196555 -1.077678,0 -1.530986,0.1053853 -2.239609,0.5206661 -0.488647,0.2863664 -0.888449,0.6550294 -0.888449,0.8192514 0,0.164222 -0.07305,0.298586 -0.162334,0.298586 -0.236226,0 -0.59592,1.577933 -0.630282,2.764975 -0.01631,0.563236 -0.08315,1.369687 -0.14855,1.792113 L 22.22625,16.22834 h 4.114261 4.114262 z"
       style="fill:#014864;fill-opacity:1;stroke-width:0.204813" />
    <path
       inkscape:connector-curvature="0"
       id="path867"
       d="m 0.1424563,29.76469 c 0,-1.161462 0.0793811,-1.344925 1.9717601,-4.557088 4.5001462,-7.638641 9.0881396,-15.5292391 9.0881396,-15.6301136 0,-0.059387 -2.350229,-0.1079759 -5.2227306,-0.1079759 H 0.75689515 V 7.7286024 5.9876923 H 8.4373807 16.117866 v 1.3391773 1.3391772 l -5.230675,9.1102372 c -2.8768715,5.01063 -5.2830437,9.246706 -5.3470494,9.413501 -0.1006889,0.262392 0.5180326,0.303267 4.5905114,0.303267 h 4.706885 l 1.040456,1.74091 1.040456,1.74091 H 8.5304531 0.1424563 Z"
       style="fill:#014864;fill-opacity:1;stroke-width:0.204813" />
  </g>
</svg>
