<svg xmlns="http://www.w3.org/2000/svg" viewBox="0 0 475 210"><defs><style>.a{fill:#139cd8;}.b{fill:#fff;}.c{fill:#7d888e;}</style></defs><title>integration-tile</title><path class="a" d="M124.75,71.41a19.32,19.32,0,0,1,31,4.09,23.29,23.29,0,0,1,9.6-2,24,24,0,0,1,0,47.91,23.28,23.28,0,0,1-4.67-.48,17.41,17.41,0,0,1-15.15,8.89,16.81,16.81,0,0,1-7.57-1.76,19.81,19.81,0,0,1-36.81-.88,17.82,17.82,0,0,1-3.79.4A18.6,18.6,0,0,1,88.16,92.9a21,21,0,0,1-1.76-8.5,21.36,21.36,0,0,1,38.35-13"/><path class="b" d="M94.9,103c-.09.18,0,.22,0,.26l.62.4a6.56,6.56,0,0,0,3.3.75c2.25,0,3.65-1.19,3.65-3.13v0c0-1.81-1.59-2.42-3.08-2.91l-.18-.09c-1.1-.35-2.07-.66-2.07-1.41v0c0-.62.57-1.1,1.45-1.1a6.14,6.14,0,0,1,2.86.75s.22.13.31-.09.44-1.15.44-1.23a.25.25,0,0,0-.09-.26A6.29,6.29,0,0,0,98.9,94h-.22c-2.07,0-3.52,1.23-3.52,3v0c0,1.89,1.59,2.51,3.08,2.91l.22.09c1.1.35,2,.62,2,1.37v0c0,.7-.62,1.23-1.59,1.23a5.25,5.25,0,0,1-2.91-.84c-.18-.09-.26-.18-.35-.22a.2.2,0,0,0-.31.09Z"/><path class="b" d="M128,103c-.09.18,0,.22,0,.26l.62.4a6.56,6.56,0,0,0,3.3.75c2.25,0,3.65-1.19,3.65-3.13v0c0-1.81-1.59-2.42-3.08-2.91l-.18,0c-1.1-.35-2.07-.66-2.07-1.41v0c0-.62.57-1.1,1.45-1.1a6.14,6.14,0,0,1,2.86.75s.22.13.31-.09.44-1.14.44-1.23a.25.25,0,0,0-.09-.26A6.29,6.29,0,0,0,132,94h-.22c-2.07,0-3.52,1.23-3.52,3v0c0,1.89,1.59,2.51,3.08,2.91l.22.09c1.1.35,2,.62,2,1.36v0c0,.7-.62,1.23-1.59,1.23a5.25,5.25,0,0,1-2.91-.84c-.18-.09-.26-.18-.35-.22a.2.2,0,0,0-.31.09Z"/><path class="b" d="M152.45,97.17a4.77,4.77,0,0,0-.84-1.63,4.54,4.54,0,0,0-1.45-1.1,5.38,5.38,0,0,0-4.05,0,4.54,4.54,0,0,0-1.45,1.1,4.1,4.1,0,0,0-.84,1.63,7.9,7.9,0,0,0,0,4.05,4.76,4.76,0,0,0,.84,1.63,4.54,4.54,0,0,0,1.45,1.1,5.38,5.38,0,0,0,4.05,0,4,4,0,0,0,1.45-1.1,4.1,4.1,0,0,0,.84-1.63,7.52,7.52,0,0,0,.26-2,7.3,7.3,0,0,0-.26-2m-1.89,2a4.66,4.66,0,0,1-.62,2.55,2,2,0,0,1-1.85.88,2.11,2.11,0,0,1-1.85-.88,5.6,5.6,0,0,1,0-5.11,2,2,0,0,1,1.85-.88,2.11,2.11,0,0,1,1.85.88,4.56,4.56,0,0,1,.62,2.55"/><path class="b" d="M167.9,102.36a.18.18,0,0,0-.22-.13,5.19,5.19,0,0,1-.88.26,7.23,7.23,0,0,1-1,.09,2.89,2.89,0,0,1-2.16-.79,3.6,3.6,0,0,1-.79-2.6,4.1,4.1,0,0,1,.7-2.47,2.42,2.42,0,0,1,2.11-.92,6.75,6.75,0,0,1,2,.26s.13,0,.22-.13c.18-.44.31-.79.48-1.28a.18.18,0,0,0-.13-.22,6.81,6.81,0,0,0-1.28-.31,12.57,12.57,0,0,0-1.41-.09,5.33,5.33,0,0,0-2.11.4,4.31,4.31,0,0,0-1.54,1.1,4.93,4.93,0,0,0-.92,1.63,6.1,6.1,0,0,0-.31,2,5.55,5.55,0,0,0,1.23,3.74,4.78,4.78,0,0,0,3.74,1.41,7.3,7.3,0,0,0,2.69-.48.2.2,0,0,0,.09-.22Z"/><path class="b" d="M177.54,96.82a3.94,3.94,0,0,0-.84-1.5,3.37,3.37,0,0,0-1.23-.92,4.78,4.78,0,0,0-1.85-.35,5.18,5.18,0,0,0-2.11.4,4.11,4.11,0,0,0-1.45,1.1,5.06,5.06,0,0,0-.88,1.67,7.5,7.5,0,0,0-.26,2,5.93,5.93,0,0,0,.31,2,3.75,3.75,0,0,0,.92,1.63,5,5,0,0,0,1.59,1.06,5.44,5.44,0,0,0,2.33.35,6.67,6.67,0,0,0,3.21-.62c.09,0,.13-.09,0-.31l-.44-1.19c0-.18-.22-.09-.22-.09a6,6,0,0,1-2.64.48,3.22,3.22,0,0,1-2.2-.75,3,3,0,0,1-.75-2.11h6.38a.17.17,0,0,0,.18-.18,4.17,4.17,0,0,0-.09-2.73m-6.34,1.32a3.54,3.54,0,0,1,.53-1.5,2,2,0,0,1,1.81-.92,2.06,2.06,0,0,1,1.81.92,3.16,3.16,0,0,1,.44,1.5Z"/><path class="b" d="M126.42,96.82a3.94,3.94,0,0,0-.84-1.5,3.37,3.37,0,0,0-1.23-.92A4.77,4.77,0,0,0,122.5,94a5.18,5.18,0,0,0-2.11.4,4.11,4.11,0,0,0-1.45,1.1,5.06,5.06,0,0,0-.88,1.67,7.52,7.52,0,0,0-.26,2,5.93,5.93,0,0,0,.31,2,3.75,3.75,0,0,0,.92,1.63,5,5,0,0,0,1.59,1.06,5.44,5.44,0,0,0,2.33.35,6.67,6.67,0,0,0,3.21-.62c.09,0,.13-.09,0-.31l-.44-1.19c0-.18-.22-.09-.22-.09a6,6,0,0,1-2.64.48,3.22,3.22,0,0,1-2.2-.75,3,3,0,0,1-.75-2.11h6.38a.17.17,0,0,0,.18-.18,4.17,4.17,0,0,0-.09-2.73m-6.34,1.32a3.54,3.54,0,0,1,.53-1.5,2,2,0,0,1,1.81-.92,2.06,2.06,0,0,1,1.81.92,3.15,3.15,0,0,1,.44,1.5Z"/><path class="b" d="M108.81,97.83c-.26,0-.57,0-1,0a6.55,6.55,0,0,0-1.59.22,4.07,4.07,0,0,0-1.32.62,2.7,2.7,0,0,0-.93,1.06,3.22,3.22,0,0,0-.35,1.45,3,3,0,0,0,.31,1.45,2.66,2.66,0,0,0,.84,1,3.64,3.64,0,0,0,1.32.57,6.51,6.51,0,0,0,1.67.18,9.35,9.35,0,0,0,1.94-.18c.62-.09,1.41-.26,1.63-.31a2.85,2.85,0,0,0,.44-.13.18.18,0,0,0,.13-.22V97.65a3.6,3.6,0,0,0-1-2.82,4.45,4.45,0,0,0-3-.88,7.58,7.58,0,0,0-1.72.18,6.26,6.26,0,0,0-2,.7.2.2,0,0,0,0,.26l.44,1.23c0,.18.22.09.22.09a.14.14,0,0,0,.09,0,6.72,6.72,0,0,1,2.77-.66,2.63,2.63,0,0,1,1.59.4c.35.26.53.66.53,1.54v.26l-1-.09m-2.51,4.49a1.21,1.21,0,0,1-.35-.4,1.64,1.64,0,0,1,.35-2.07,2.69,2.69,0,0,1,1.85-.44,11.71,11.71,0,0,1,1.72.13v2.91a11.38,11.38,0,0,1-1.72.22,2.85,2.85,0,0,1-1.85-.35"/><path class="b" d="M160.33,94.53a.16.16,0,0,0-.09-.22,3.91,3.91,0,0,0-1.06-.18,3.2,3.2,0,0,0-1.63.26,2.79,2.79,0,0,0-1.06.79v-.79a.19.19,0,0,0-.18-.18H154.6a.19.19,0,0,0-.18.18v9.55a.19.19,0,0,0,.18.18h1.67a.19.19,0,0,0,.18-.18V99.19a5.71,5.71,0,0,1,.22-1.67,2,2,0,0,1,.57-.92,1.85,1.85,0,0,1,.79-.48,3.26,3.26,0,0,1,.84-.13,3.33,3.33,0,0,1,.7.09c.13,0,.18,0,.22-.18.13-.31.44-1.19.53-1.36"/><path class="b" d="M144.56,90.12l-.62-.13a5,5,0,0,0-.88-.09,3.53,3.53,0,0,0-2.69,1,5.56,5.56,0,0,0-1.28,2.91l-.09.44h-1.45a.23.23,0,0,0-.22.18l-.22,1.32c0,.13,0,.22.22.22h1.41l-1.45,8a8.26,8.26,0,0,1-.4,1.59,3,3,0,0,1-.44.92,1.12,1.12,0,0,1-.57.44,2.06,2.06,0,0,1-.75.09c-.13,0-.35,0-.53,0a1.17,1.17,0,0,1-.35-.13s-.18,0-.22.09-.44,1.19-.48,1.28a.2.2,0,0,0,.09.26,4.55,4.55,0,0,0,.57.18,3.62,3.62,0,0,0,.92.09,4.42,4.42,0,0,0,1.59-.26,3.1,3.1,0,0,0,1.19-.84,4.43,4.43,0,0,0,.84-1.41,15,15,0,0,0,.57-2.16l1.45-8.15h2.11a.23.23,0,0,0,.22-.18l.22-1.32c0-.13,0-.22-.22-.22h-2a6.46,6.46,0,0,1,.35-1.45,1.57,1.57,0,0,1,.44-.66,1.85,1.85,0,0,1,.53-.35,3.42,3.42,0,0,1,.7-.09c.18,0,.4,0,.53,0s.26,0,.31.09c.22,0,.22,0,.26-.09l.48-1.32c0-.09-.09-.13-.13-.18"/><path class="b" d="M116.07,103.95a.19.19,0,0,1-.18.18h-1.67a.19.19,0,0,1-.18-.18V90.3a.19.19,0,0,1,.18-.18h1.63a.19.19,0,0,1,.18.18v13.65Z"/><path class="c" d="M197.8,90.34h2.11v2.38A5.16,5.16,0,0,1,204.49,90,4.79,4.79,0,0,1,209,92.85,5.66,5.66,0,0,1,214,90c3.26,0,5.24,2.2,5.24,5.68v8.76h-2.11V96.24c0-2.73-1.36-4.27-3.65-4.27-2.11,0-3.92,1.59-3.92,4.36v8.15h-2.07V96.2c0-2.64-1.41-4.23-3.66-4.23s-3.92,1.85-3.92,4.45v8.06H197.8Z"/><path class="c" d="M221,100.38v0c0-3,2.47-4.62,6-4.62a14.7,14.7,0,0,1,4.32.62v-.44c0-2.51-1.54-3.83-4.18-3.83a9.73,9.73,0,0,0-4.32,1l-.62-1.72a11.69,11.69,0,0,1,5.15-1.19A6.32,6.32,0,0,1,232,91.71a5.59,5.59,0,0,1,1.5,4.14v8.63h-2.07v-2.11a6.15,6.15,0,0,1-5.11,2.42C223.6,104.79,221,103.29,221,100.38Zm10.39-1.06V98a14.42,14.42,0,0,0-4.14-.62c-2.64,0-4.14,1.15-4.14,2.86v0c0,1.76,1.63,2.82,3.57,2.82C229.28,103.11,231.39,101.53,231.39,99.33Z"/><path class="c" d="M236.1,90.34h2.11V94A6,6,0,0,1,244,90.12v2.29h-.18c-3.08,0-5.59,2.2-5.59,6.47v5.64H236.1V90.34Z"/><path class="c" d="M245.44,84.53h2.11V98.31l7.62-8h2.64l-5.94,6.08,6.12,8.06h-2.51l-5.06-6.6-2.86,2.91v3.7h-2.11V84.53Z"/><path class="c" d="M264.77,103a5.87,5.87,0,0,0,4.45-2l1.32,1.19a7.24,7.24,0,0,1-5.81,2.64,7,7,0,0,1-7-7.4c0-4.1,2.86-7.4,6.78-7.4,4.18,0,6.6,3.35,6.6,7.49a5.4,5.4,0,0,1,0,.75H259.79A4.93,4.93,0,0,0,264.77,103Zm4.14-6.38c-.26-2.55-1.72-4.76-4.54-4.76-2.42,0-4.31,2-4.58,4.76Z"/><path class="c" d="M273.66,100.73v-8.5h-1.94V90.39h2V86.12h2.11v4.27h4.49v1.85h-4.49v8.28a2.09,2.09,0,0,0,2.38,2.33,4.57,4.57,0,0,0,2.07-.48v1.81a5.22,5.22,0,0,1-2.55.62C275.42,104.74,273.66,103.64,273.66,100.73Z"/><path class="c" d="M282.29,84.93h2.42v2.33h-2.42Zm.13,5.42h2.11v14.13h-2.11Z"/><path class="c" d="M287.62,90.34h2.11v2.47A5.36,5.36,0,0,1,294.58,90C298,90,300,92.32,300,95.71v8.76h-2.11V96.24c0-2.64-1.41-4.27-3.92-4.27a4.15,4.15,0,0,0-4.23,4.45v8.1h-2.11Z"/><path class="c" d="M302.55,107l1-1.63a9,9,0,0,0,5.46,1.81c3.13,0,5.15-1.72,5.15-5v-1.72a6.74,6.74,0,0,1-5.55,3,6.54,6.54,0,0,1-6.65-6.6v0a6.59,6.59,0,0,1,6.65-6.69,6.73,6.73,0,0,1,5.55,2.86V90.39h2.11v11.67a6.83,6.83,0,0,1-1.81,5,7.34,7.34,0,0,1-5.37,1.89A11.84,11.84,0,0,1,302.55,107Zm11.62-10.22v0a5,5,0,0,0-5.2-4.8,4.66,4.66,0,0,0-4.89,4.76v0a4.77,4.77,0,0,0,4.89,4.8A5,5,0,0,0,314.17,96.77Z"/><path class="c" d="M324.65,97.48v0a7.39,7.39,0,0,1,12.95-4.89L336.19,94a5.62,5.62,0,0,0-4.32-2.11,5.22,5.22,0,0,0-5.06,5.46v0a5.28,5.28,0,0,0,5.2,5.5,5.84,5.84,0,0,0,4.31-2.11l1.32,1.28a7.3,7.3,0,0,1-13-4.62Z"/><path class="c" d="M339.58,84.53h2.11v20h-2.11Z"/><path class="c" d="M343.94,97.48v0a7.38,7.38,0,1,1,14.75,0v0a7.33,7.33,0,0,1-7.4,7.4A7.25,7.25,0,0,1,343.94,97.48Zm12.59,0v0a5.38,5.38,0,0,0-5.24-5.55,5.2,5.2,0,0,0-5.15,5.46v0a5.31,5.31,0,0,0,5.24,5.5A5.17,5.17,0,0,0,356.53,97.48Z"/><path class="c" d="M360.49,99.15V90.34h2.11v8.28c0,2.64,1.41,4.27,3.92,4.27a4.15,4.15,0,0,0,4.23-4.45v-8.1h2.07v14.13h-2.07V102a5.41,5.41,0,0,1-4.84,2.77C362.47,104.79,360.49,102.5,360.49,99.15Z"/><path class="c" d="M375,97.48v0c0-4.62,3.35-7.35,6.74-7.35a6.36,6.36,0,0,1,5.42,3V84.53h2.11v20h-2.11v-2.86a6.29,6.29,0,0,1-5.42,3.13C378.32,104.79,375,102.14,375,97.48Zm12.24,0v0a5.28,5.28,0,0,0-5.11-5.46c-2.73,0-5,2-5,5.46v0c0,3.35,2.29,5.46,5,5.46A5.25,5.25,0,0,0,387.22,97.43Z"/></svg>