<svg version="1.1" id="Layer_1" xmlns="http://www.w3.org/2000/svg" xmlns:xlink="http://www.w3.org/1999/xlink" x="0px" y="0px"
	 viewBox="0 0 864.666 133" xml:space="preserve">
<path style="fill:#FF9700;" d="M91.208,11.682c-1.134-0.392-2.305-0.799-3.525-1.154c-19.379-5.742-30.159,3.66-33.024,13.361
	c-3.925,13.254,2.766,22.335,20.105,35.696c21.255,16.37,30.053,31.573,23.889,52.429c-1.818,6.172-4.86,11.707-9.028,16.287
	c17.178-6.998,31.157-21.473,36.83-40.659C135.619,56.695,120.02,24.322,91.208,11.682z"/>
<path style="fill:#2B3D52;" d="M61.074,71.796C40.35,56.752,29.582,40.493,35.49,20.508c0.886-2.964,2.061-5.718,3.504-8.257
	C23.102,19.642,10.352,33.572,4.98,51.703c-5.607,18.929-1.942,38.38,8.327,53.55c7.086,8.668,13.946,15.178,27.871,19.02
	c18.856,5.208,34.059-2.027,38.29-16.349C83.401,94.666,78.07,84.855,61.074,71.796z"/>
<g>
	<g>
		<path style="fill:#2B3D52;" d="M186.271,62.607c-5.583-3.731-9.494-7.064-11.732-9.997c-2.239-2.932-3.357-6.371-3.357-10.317
			c0-3.999,0.934-7.158,2.805-9.477c1.869-2.319,4.542-3.479,8.018-3.479c3.16,0,6.122,0.587,8.888,1.76
			c2.765,1.173,5.411,2.507,7.94,3.999l7.11-17.435c-8.164-5.011-16.669-7.518-25.517-7.518c-9.27,0-16.657,2.933-22.16,8.797
			c-5.504,5.866-8.255,13.81-8.255,23.833c0,5.226,0.697,9.811,2.094,13.756c1.395,3.946,3.37,7.505,5.925,10.677
			c2.554,3.173,6.307,6.492,11.258,9.957c5.688,3.946,9.769,7.532,12.245,10.757c2.475,3.227,3.713,6.785,3.713,10.677
			c0,3.946-1.04,7.065-3.12,9.357c-2.081,2.293-5.174,3.439-9.282,3.439c-7.216,0-15.142-2.852-23.779-8.557v21.514
			c7.057,3.999,15.615,5.998,25.675,5.998c10.27,0,18.131-2.905,23.582-8.717c5.451-5.811,8.176-14.182,8.176-25.113
			c0-6.824-1.489-12.902-4.464-18.235C199.055,72.952,193.802,67.726,186.271,62.607z M219.609,128.748h21.014V39.654h-21.014
			V128.748z M230.274,4.944c-3.634,0-6.466,1.027-8.493,3.079c-2.028,2.053-3.041,4.839-3.041,8.358c0,3.626,1.053,6.438,3.16,8.438
			c2.106,1.999,4.898,2.999,8.374,2.999c3.318,0,6.03-1,8.137-2.999c2.106-1.999,3.16-4.811,3.16-8.438
			c0-3.519-1.027-6.305-3.081-8.358C236.436,5.971,233.697,4.944,230.274,4.944z M343.403,37.975
			c-9.902,0-17.091,5.146-21.567,15.435h-0.79c-3.582-10.289-10.744-15.435-21.488-15.435c-4.161,0-8.072,1.053-11.731,3.159
			c-3.661,2.107-6.545,5.426-8.651,9.957h-1.343l-2.528-11.437h-16.669v89.094h21.014V85.961c0-10.663,1.027-18.315,3.081-22.953
			c2.054-4.639,5.345-6.958,9.875-6.958c6.478,0,9.717,6.532,9.717,19.594v53.104h21.172V85.481c0-10.289,1-17.767,3.002-22.433
			c2.001-4.665,5.319-6.998,9.954-6.998c6.372,0,9.559,6.532,9.559,19.594v53.104h21.172V70.605c0-10.663-2.015-18.767-6.044-24.313
			C357.109,40.747,351.197,37.975,343.403,37.975z M384.325,128.748h21.014V39.654h-21.014V128.748z M394.99,4.944
			c-3.634,0-6.466,1.027-8.492,3.079c-2.028,2.053-3.042,4.839-3.042,8.358c0,3.626,1.053,6.438,3.16,8.438
			c2.106,1.999,4.898,2.999,8.374,2.999c3.318,0,6.03-1,8.137-2.999c2.106-1.999,3.16-4.811,3.16-8.438
			c0-3.519-1.027-6.305-3.081-8.358C401.152,5.971,398.413,4.944,394.99,4.944z M423.351,128.748h21.014V4.304h-21.014V128.748z
			 M491.923,37.814c-10.27,0-19.777,2.799-28.519,8.398l7.268,14.716c6.846-4.159,12.903-6.238,18.17-6.238
			c7.11,0,10.665,4.159,10.665,12.476v6.398l-11.692,0.48c-10.112,0.48-17.71,2.999-22.792,7.558
			c-5.083,4.559-7.624,11.53-7.624,20.914c0,8.745,1.857,15.569,5.57,20.474c3.713,4.906,8.808,7.358,15.286,7.358
			c5.056,0,9.243-0.987,12.561-2.959c3.318-1.972,6.53-5.571,9.638-10.797h0.474l4.187,12.156h15.405V68.926
			c0-9.917-2.437-17.581-7.307-22.993C508.342,40.521,501.245,37.814,491.923,37.814z M499.507,94.518
			c0,5.812-1.146,10.464-3.437,13.956c-2.291,3.493-5.36,5.239-9.203,5.239c-5.162,0-7.742-3.679-7.742-11.037
			c0-4.959,1.118-8.69,3.358-11.197c2.238-2.506,5.753-3.891,10.547-4.159l6.478-0.32V94.518z M565.472,41.574
			c-2.739,2.399-5.267,6.398-7.584,11.996h-0.711l-2.37-13.916h-17.301v89.094h21.014V82.921c0-7.784,1.369-13.716,4.108-17.795
			c2.738-4.079,6.662-6.118,11.771-6.118c2.37,0,4.292,0.267,5.767,0.8l2.449-20.634c-2.476-0.8-5.004-1.2-7.584-1.2
			C571.397,37.975,568.21,39.174,565.472,41.574z M678.522,77.803c-0.843,5.066-2.186,15.489-4.029,31.271
			c-0.948-10.663-2.239-20.927-3.871-30.791l-12.324-66.461H636.02l-12.324,66.461c-1.159,6.132-2.397,16.343-3.713,30.631
			c-1.686-14.128-3.029-24.499-4.029-31.111l-10.349-65.981h-21.093l20.935,116.926h26.86l10.981-60.942l3.239-24.073l0.632-5.918
			c0.737,11.411,1.975,21.301,3.713,29.671l11.297,61.262h26.86l20.777-116.926h-21.251L678.522,77.803z M747.252,37.975
			c-10.27,0-18.276,4.133-24.016,12.396c-5.741,8.265-8.611,19.754-8.611,34.47c0,14.503,3.172,25.712,9.52,33.63
			c6.346,7.918,15.022,11.877,26.031,11.877c9.427,0,17.511-2.052,24.253-6.158v-17.515c-7.163,4.319-14.168,6.478-21.014,6.478
			c-5.372,0-9.586-1.932-12.64-5.798c-3.055-3.865-4.661-9.77-4.819-17.715h42.265V78.283c0-12.743-2.765-22.646-8.295-29.711
			C764.395,41.507,756.837,37.975,747.252,37.975z M736.271,74.204c0.316-6.771,1.448-11.769,3.397-14.996
			c1.948-3.225,4.424-4.839,7.426-4.839c3.212,0,5.74,1.68,7.584,5.039c1.843,3.359,2.817,8.291,2.923,14.796H736.271z
			 M850.743,50.051c-4.582-8.05-10.876-12.076-18.881-12.076c-3.898,0-7.347,0.987-10.349,2.959
			c-3.002,1.973-5.794,5.412-8.374,10.317h-1.106c0.632-7.998,0.974-12.662,1.027-13.996c0.052-1.332,0.079-2.612,0.079-3.839V4.304
			h-21.014v124.444h15.484l3.555-10.157h1.343c2.686,4.372,5.542,7.425,8.572,9.157c3.028,1.732,6.518,2.599,10.467,2.599
			c8.163,0,14.549-4.025,19.158-12.076c4.608-8.05,6.912-19.461,6.912-34.23C857.616,69.433,855.325,58.102,850.743,50.051z
			 M824.751,112.033c-4.108,0-7.07-2.106-8.888-6.318c-1.817-4.211-2.725-11.489-2.725-21.834v-2.159
			c0.105-9.543,1.039-16.208,2.805-19.994c1.764-3.785,4.647-5.678,8.65-5.678c7.689,0,11.534,9.225,11.534,27.672
			C836.128,102.596,832.336,112.033,824.751,112.033z"/>
	</g>
</g>
</svg>
