<svg id="Camada_1" data-name="Camada 1" xmlns="http://www.w3.org/2000/svg" viewBox="0 0 199.89 92.33"><defs><style>.cls-1{fill:#555c60;}.cls-2{fill:#72be53;}.cls-3{fill:#47c3e1;}.cls-4{fill:#fbaf1b;}.cls-5{fill:#218acb;}</style></defs><title>svg+xml</title><path class="cls-1" d="M0.3,74.54l0.39-.46A1,1,0,0,1,2.26,74a14.5,14.5,0,0,0,9.28,3.33c4,0,7.52-2.09,7.52-6.15,0-8.31-18-6-18-16.61,0-5.82,4.9-8.83,10.46-8.83a13.88,13.88,0,0,1,8.89,2.81,1,1,0,0,1,.26,1.5l-0.39.52a1,1,0,0,1-1.57.13,12,12,0,0,0-7.39-2.29C7.63,48.46,4,50.16,4,54.41c0,8.5,18,6,18,16.81,0,5.23-4.45,8.83-10.46,8.83A16.09,16.09,0,0,1,.43,76a1,1,0,0,1-.13-1.5" transform="translate(-0.02)"/><path class="cls-1" d="M30.38,47.67a1,1,0,0,1,1.11-1.11H32a1,1,0,0,1,1.11,1.11v2.81a16.69,16.69,0,0,1-.2,2.62h0.13s2.68-7.32,11.77-7.32c8.76,0,14.12,7,14.12,17.13C59,73.3,52.87,80,44.44,80A12.49,12.49,0,0,1,33,72.65H32.86a14.6,14.6,0,0,1,.26,2.88V91.22A1,1,0,0,1,32,92.33H31.49a1,1,0,0,1-1.11-1.11V47.67ZM44.44,77.36c6.41,0,11.64-5.3,11.64-14.45,0-8.83-4.71-14.45-11.38-14.45-6,0-11.64,4.25-11.64,14.52,0,7.26,4.05,14.38,11.38,14.38" transform="translate(-0.02)"/><path class="cls-1" d="M67.72,47.67a1,1,0,0,1,1.11-1.11h0.52a1,1,0,0,1,1.11,1.11v5.1a13.7,13.7,0,0,1-.26,2.68h0.13c1.63-5,5.49-9.09,11-9.09a1.12,1.12,0,0,1,1.37,1.11v0.59a1.21,1.21,0,0,1-1.44,1.11c-7.32,0-10.79,8.7-10.79,16v13a1,1,0,0,1-1.11,1.11H68.83a1,1,0,0,1-1.11-1.11V47.67Z" transform="translate(-0.02)"/><path class="cls-1" d="M88.55,47.69a1,1,0,0,1,1.14-1.14h0.66a1,1,0,0,1,1.14,1.14v30.5a1,1,0,0,1-1.14,1.14H89.69a1,1,0,0,1-1.14-1.14V47.69Z" transform="translate(-0.02)"/><path class="cls-1" d="M101.77,47.67a1,1,0,0,1,1.11-1.11h0.52a1,1,0,0,1,1.11,1.11v4.64a13.7,13.7,0,0,1-.26,2.68h0.13a15.07,15.07,0,0,1,13.86-9.22c8.5,0,10.79,5,10.79,12.75V78.14a1,1,0,0,1-1.11,1.11H127.4a1,1,0,0,1-1.11-1.11V59.51c0-5.69-.72-11.05-8-11.05S104.51,54.6,104.51,63V78.14a1,1,0,0,1-1.11,1.11h-0.52a1,1,0,0,1-1.11-1.11V47.67Z" transform="translate(-0.02)"/><path class="cls-1" d="M139.56,34.59a1,1,0,0,1,1.11-1.11h0.52a1,1,0,0,1,1.11,1.11V59.44h5.82L158.2,47.21a1.64,1.64,0,0,1,1.37-.65h1c0.91,0,1.24.65,0.59,1.37L150.48,60.62v0.13l12,17.13c0.52,0.78.2,1.37-.72,1.37h-1a1.38,1.38,0,0,1-1.31-.72L148.13,62h-5.82V78.14a1,1,0,0,1-1.11,1.11h-0.52a1,1,0,0,1-1.11-1.11V34.59Z" transform="translate(-0.02)"/><path class="cls-1" d="M170,34.59a1,1,0,0,1,1.11-1.11h0.52a1,1,0,0,1,1.11,1.11V71.73c0,4.58,2.22,5,3.79,5.17a1,1,0,0,1,1,1v0.39a1,1,0,0,1-1.18,1.18c-1.9,0-6.41-.72-6.41-6.86V34.59Z" transform="translate(-0.02)"/><path class="cls-1" d="M184.94,47.67A1,1,0,0,1,186,46.56h0.52a1,1,0,0,1,1.11,1.11v5.1a13.7,13.7,0,0,1-.26,2.68h0.13c1.63-5,5.49-9.09,11-9.09a1.12,1.12,0,0,1,1.37,1.11v0.59a1.21,1.21,0,0,1-1.44,1.11c-7.32,0-10.79,8.7-10.79,16v13a1,1,0,0,1-1.11,1.11H186a1,1,0,0,1-1.11-1.11V47.67Z" transform="translate(-0.02)"/><path class="cls-2" d="M69.63,6.62a4.2,4.2,0,0,1,4.45-4,4.47,4.47,0,0,1,2.73,1,24.44,24.44,0,0,1,7.76,20.54c0,0.36-.46.35-0.57,0C82.46,19,77.38,13,72.86,11.17c-2.14-.85-3.37-2.42-3.23-4.55" transform="translate(-0.02)"/><path class="cls-3" d="M108.66,6.2A6.39,6.39,0,0,0,101.8,0c-7.73.18-18.13,20.07-12.18,38.15,0.07,0.37.43,0.3,0.45-.08,0.83-12.58,8.39-22.42,15.17-26.24a5.86,5.86,0,0,0,3.42-5.64" transform="translate(-0.02)"/><path class="cls-4" d="M66.26,24.41a4,4,0,0,0,4.21,3.75,22.89,22.89,0,0,1,13.18,4.77c0.27,0.22.32,0.15,0.14-.46-1.31-4.6-8.34-12.3-13.46-12.3a4,4,0,0,0-4.08,4.24" transform="translate(-0.02)"/><path class="cls-5" d="M113.65,24.41a4,4,0,0,1-4.21,3.75,22.89,22.89,0,0,0-13.18,4.77c-0.27.22-.32,0.15-0.14-0.46,1.31-4.6,8.34-12.3,13.46-12.3a4,4,0,0,1,4.08,4.24" transform="translate(-0.02)"/></svg>