<?xml version="1.0" encoding="utf-8"?>
<!-- Generator: Adobe Illustrator 22.1.0, SVG Export Plug-In . SVG Version: 6.00 Build 0)  -->
<svg version="1.1" id="Layer_1" xmlns="http://www.w3.org/2000/svg" xmlns:xlink="http://www.w3.org/1999/xlink" x="0px" y="0px"
	 viewBox="0 0 64 64" style="enable-background:new 0 0 64 64;" xml:space="preserve">
<style type="text/css">
	.st0{fill:#2A3B4D;}
	.st1{fill:url(#Shape_1_);}
	.st2{fill:#00B2B2;}
	.st3{fill:url(#Shape_2_);}
</style>
<g id="wordmark_1_" transform="translate(12.000000, 31.000000)">
	<polygon id="Shape_31_" class="st0" points="-4.9,0.5 -4.9,-0.6 -10,-0.6 -10,0.5 -8.1,0.5 -8.1,5.8 -6.9,5.8 -6.9,0.5 	"/>
	<path id="Shape_30_" class="st0" d="M17.9,3h-2.1c0-0.3,0.1-0.5,0.2-0.7c0.2-0.2,0.4-0.4,0.8-0.4c0.3,0,0.6,0.1,0.7,0.3
		C17.8,2.4,17.9,2.6,17.9,3 M19,3.5c0-0.6-0.1-1.1-0.4-1.6c-0.4-0.6-1-0.9-1.8-0.9c-0.7,0-1.2,0.2-1.5,0.6c-0.5,0.5-0.7,1.1-0.7,1.9
		c0,0.8,0.3,1.4,0.7,1.9c0.4,0.4,0.9,0.6,1.5,0.6c0.6,0,1.2-0.2,1.6-0.7c0.1-0.1,0.1-0.1,0.1-0.2l0,0l-0.9-0.5
		c-0.1,0.1-0.1,0.2-0.2,0.3C17.5,5,17.2,5,16.9,5c-0.3,0-0.5-0.1-0.7-0.3c-0.2-0.2-0.4-0.6-0.4-0.9H19C19,3.7,19,3.5,19,3.5"/>
	<path id="Shape_29_" class="st0" d="M-2.4,3h-2.1c0-0.3,0.1-0.5,0.2-0.7C-4,2-3.7,1.9-3.4,1.9C-3,1.9-2.8,2-2.6,2.2
		C-2.5,2.4-2.4,2.6-2.4,3 M-1.2,3.5c0-0.6-0.1-1.1-0.4-1.6C-2,1.3-2.7,1-3.4,1C-4,1-4.6,1.2-4.9,1.6c-0.5,0.5-0.7,1.1-0.7,1.9
		c0,0.8,0.3,1.4,0.7,1.9C-4.5,5.7-4,5.9-3.3,5.9c0.6,0,1.2-0.2,1.6-0.7c0.1-0.1,0.1-0.1,0.1-0.2l0,0l-0.9-0.5
		c-0.1,0.1-0.1,0.2-0.2,0.3C-2.8,5-3,5-3.3,5c-0.3,0-0.5-0.1-0.7-0.3c-0.2-0.2-0.4-0.6-0.4-0.9h3.2C-1.2,3.7-1.2,3.5-1.2,3.5"/>
	<path id="Shape_28_" class="st0" d="M32.9,3h-2.1c0-0.3,0.1-0.5,0.2-0.7c0.2-0.2,0.4-0.4,0.8-0.4c0.3,0,0.6,0.1,0.7,0.3
		C32.8,2.4,32.9,2.6,32.9,3 M34,3.5c0-0.6-0.1-1.1-0.4-1.6c-0.4-0.6-1-0.9-1.8-0.9c-0.7,0-1.2,0.2-1.5,0.6c-0.5,0.5-0.7,1.1-0.7,1.9
		c0,0.8,0.3,1.4,0.7,1.9c0.4,0.4,0.9,0.6,1.5,0.6c0.6,0,1.2-0.2,1.6-0.7c0.1-0.1,0.1-0.1,0.1-0.2l0,0l-0.9-0.5
		c-0.1,0.1-0.1,0.2-0.2,0.3C32.4,5,32.2,5,31.9,5c-0.3,0-0.5-0.1-0.7-0.3c-0.2-0.2-0.4-0.6-0.4-0.9h3.2C34,3.7,34,3.5,34,3.5"/>
	<path id="Shape_27_" class="st0" d="M2.4,3.9C2.4,4.6,1.9,5,1.2,5C0.8,5,0.5,4.8,0.5,4.4c0-0.4,0.3-0.6,0.7-0.6l1.2-0.1L2.4,3.9
		L2.4,3.9z M3.9,5.8V4.9c0,0-0.1,0-0.1,0c-0.2,0-0.3-0.1-0.3-0.3V2.9c0-0.3,0-0.6-0.1-0.9c-0.3-0.7-1-1-1.8-1c-1.1,0-1.9,0.5-2,1.5
		h1.1c0-0.4,0.3-0.7,0.9-0.7c0.7,0,0.8,0.3,0.8,0.7v0.3L1,3C0.1,3.1-0.7,3.6-0.7,4.5C-0.7,5.3-0.1,6,1.1,6c0.7,0,1.2-0.3,1.5-0.7
		c0,0.4,0.3,0.7,0.8,0.7C3.6,5.9,3.7,5.9,3.9,5.8L3.9,5.8z"/>
	<path id="Shape_26_" class="st0" d="M11.5,5.8V2.6c0-1-0.5-1.6-1.6-1.6C9.2,1,8.7,1.3,8.5,1.8C8.2,1.3,7.7,1,7.1,1
		C6.4,1,6,1.3,5.7,1.7L5.6,1.1h-1v4.7h1.1V3.2C5.8,2.7,6.1,2,6.7,2c0.6,0,0.7,0.3,0.7,0.9v2.9h1.1V3.2C8.6,2.7,8.9,2,9.6,2
		c0.6,0,0.7,0.3,0.7,0.9v2.9H11.5z"/>
	<path id="Shape_25_" class="st0" d="M22.5,3.9C22.5,4.6,22,5,21.3,5c-0.4,0-0.7-0.2-0.7-0.6c0-0.4,0.3-0.6,0.7-0.6l1.2-0.1
		L22.5,3.9L22.5,3.9z M24.1,5.8V4.9c0,0-0.1,0-0.1,0c-0.2,0-0.3-0.1-0.3-0.3V2.9c0-0.3,0-0.6-0.1-0.9c-0.3-0.7-1-1-1.8-1
		c-1.1,0-1.9,0.5-2,1.5h1.1c0-0.4,0.3-0.7,0.9-0.7c0.7,0,0.8,0.3,0.8,0.7v0.3L21.1,3c-0.9,0.1-1.6,0.6-1.6,1.5
		c0,0.8,0.6,1.5,1.7,1.5c0.7,0,1.2-0.3,1.5-0.7c0,0.4,0.3,0.7,0.8,0.7C23.8,5.9,23.9,5.9,24.1,5.8L24.1,5.8z"/>
	<path id="Shape_24_" class="st0" d="M37.6,2.2V1.1c-0.1,0-0.2,0-0.4,0c-0.6,0-1.1,0.2-1.4,0.8l-0.1-0.7h-1v4.7H36V3.4
		c0-0.8,0.4-1.3,1.2-1.3C37.4,2.1,37.5,2.1,37.6,2.2"/>
	<path id="Shape_23_" class="st0" d="M13.5-1.5l-1.1,0.6v5.5c0,0.9,0.5,1.3,1.3,1.3c0.2,0,0.3,0,0.5-0.1V4.9c-0.1,0-0.1,0-0.2,0
		c-0.4,0-0.5-0.2-0.5-0.4L13.5-1.5L13.5-1.5z M12.4-0.9L12.4-0.9L12.4-0.9L12.4-0.9z"/>
	<path id="Shape_22_" class="st0" d="M27.8,3.4c0,0.7-0.2,1.5-1.1,1.5c-0.4,0-0.6-0.2-0.8-0.4c-0.2-0.3-0.3-0.7-0.3-1.1
		s0.1-0.8,0.3-1.1c0.2-0.2,0.4-0.4,0.8-0.4C27.6,1.9,27.8,2.8,27.8,3.4L27.8,3.4z M27.7,1.4C27.5,1.2,27.1,1,26.5,1
		c-0.5,0-0.9,0.1-1.2,0.4c-0.6,0.5-0.9,1.2-0.9,2.1c0,0.9,0.3,1.6,0.9,2.1c0.3,0.2,0.7,0.4,1.2,0.4c0.5,0,1.1-0.2,1.3-0.6l0.1,0.5h1
		v-7.4l-1.2,0.7L27.7,1.4L27.7,1.4L27.7,1.4z"/>
</g>
<g id="Icon_2_" transform="translate(168.269767, 15.000000)">
	
		<linearGradient id="Shape_1_" gradientUnits="userSpaceOnUse" x1="-407.985" y1="-402.1924" x2="-407.985" y2="-402.3555" gradientTransform="matrix(9.9535 0 0 17 3945.5959 6854.7666)">
		<stop  offset="0" style="stop-color:#00B3B3"/>
		<stop  offset="1" style="stop-color:#007273"/>
	</linearGradient>
	<polygon id="Shape_13_" class="st1" points="-116.7,14.7 -113.9,19.6 -113.9,14.7 	"/>
	<polygon id="Shape_12_" class="st2" points="-113.9,10.1 -113.9,14.7 -121.5,14.7 	"/>
	
		<linearGradient id="Shape_2_" gradientUnits="userSpaceOnUse" x1="-378.8816" y1="-432.8945" x2="-378.8816" y2="-433.0576" gradientTransform="matrix(4.6922 8.1271 13.6596 -7.8864 7583.4028 -320.161)">
		<stop  offset="0" style="stop-color:#00B3B3"/>
		<stop  offset="1" style="stop-color:#007273"/>
	</linearGradient>
	<polygon id="Shape_11_" class="st3" points="-110.4,14.7 -105.2,14.7 -109,17 	"/>
	<polygon id="Shape_10_" class="st2" points="-113.3,19.6 -109,17 -113.3,10.2 	"/>
</g>
</svg>
