<?xml version="1.0" encoding="utf-8"?>
<!-- Generator: Adobe Illustrator 19.2.1, SVG Export Plug-In . SVG Version: 6.00 Build 0)  -->
<svg version="1.1" id="Layer_1" xmlns="http://www.w3.org/2000/svg" xmlns:xlink="http://www.w3.org/1999/xlink" x="0px" y="0px"
	 viewBox="0 0 760 171" style="enable-background:new 0 0 760 171;" xml:space="preserve">
<style type="text/css">
	.st0{fill:#424D54;}
	.st1{fill:#3796D3;}
	.st2{opacity:0.5;fill:#3796D3;}
</style>
<g>
	<g>
		<g>
			<path class="st0" d="M161.4,123c-0.7,0-1.1-0.4-1.1-1.1V57.8c0-0.4-0.2-0.7-0.7-0.7h-20.5c-0.7,0-1.1-0.4-1.1-1.1v-6.9
				c0-0.7,0.4-1.1,1.1-1.1h52.2c0.7,0,1.1,0.4,1.1,1.1v6.9c0,0.7-0.4,1.1-1.1,1.1h-20.5c-0.4,0-0.7,0.2-0.7,0.7v64.1
				c0,0.7-0.4,1.1-1.1,1.1H161.4z"/>
			<path class="st0" d="M253.5,123c-0.8,0-1.1-0.3-1.4-1.1l-15-30.7h-16.5c-0.4,0-0.7,0.2-0.7,0.7v30c0,0.7-0.4,1.1-1.1,1.1h-7.6
				c-0.7,0-1.1-0.4-1.1-1.1V49.1c0-0.7,0.4-1.1,1.1-1.1h27.1c14,0,23.5,8.6,23.5,21.6c0,10.1-5.7,17.5-14.8,20.4l16,31.6
				c0.4,0.7,0.1,1.3-0.7,1.3H253.5z M251.9,69.6c0-7.8-5.2-12.5-13.9-12.5h-17.5c-0.4,0-0.7,0.2-0.7,0.7v23.6c0,0.4,0.2,0.7,0.7,0.7
				H238C246.7,82.1,251.9,77.5,251.9,69.6z"/>
			<path class="st0" d="M281.2,49.1c0-0.7,0.4-1.1,1.1-1.1h45.1c0.7,0,1.1,0.4,1.1,1.1v6.9c0,0.7-0.4,1.1-1.1,1.1h-35.7
				c-0.4,0-0.7,0.2-0.7,0.7v22.1c0,0.4,0.2,0.7,0.7,0.7H322c0.7,0,1.1,0.4,1.1,1.1v6.9c0,0.7-0.4,1.1-1.1,1.1h-30.3
				c-0.4,0-0.7,0.2-0.7,0.7v22.8c0,0.4,0.2,0.7,0.7,0.7h35.7c0.7,0,1.1,0.4,1.1,1.1v6.9c0,0.7-0.4,1.1-1.1,1.1h-45.1
				c-0.7,0-1.1-0.4-1.1-1.1V49.1z"/>
			<path class="st0" d="M347.2,49.1c0-0.7,0.4-1.1,1.1-1.1h7.1c0.9,0,1.4,0.2,1.9,1.1l34,56.2h0.4V49.1c0-0.7,0.4-1.1,1.1-1.1h6.9
				c0.7,0,1.1,0.4,1.1,1.1v72.8c0,0.7-0.4,1.1-1.1,1.1h-7.1c-0.8,0-1.4-0.2-1.9-1.1l-34.1-56h-0.3v56c0,0.7-0.4,1.1-1.1,1.1h-6.9
				c-0.7,0-1.1-0.4-1.1-1.1V49.1z"/>
			<path class="st0" d="M421.2,49.1c0-0.7,0.4-1.1,1.1-1.1h25.3c12.7,0,21.1,5.4,24.5,16c1.3,4.1,2,8.2,2,21.5s-0.7,17.4-2,21.5
				c-3.4,10.6-11.8,16-24.5,16h-25.3c-0.7,0-1.1-0.4-1.1-1.1V49.1z M431.7,113.8h13.8c9,0,14.7-3,17.1-10.3c1-2.8,1.5-6.4,1.5-18.1
				s-0.6-15.3-1.5-18.1c-2.4-7.3-8.1-10.3-17.1-10.3h-13.8c-0.4,0-0.7,0.2-0.7,0.7v55.4C431,113.6,431.2,113.8,431.7,113.8z"/>
			<path class="st0" d="M493.4,49.1c0-0.7,0.4-1.1,1.1-1.1h7.6c0.7,0,1.1,0.4,1.1,1.1v39L535.1,49c0.6-0.8,1-1,1.8-1h9
				c0.7,0,1,0.7,0.4,1.3L523,77.5l25.7,44.3c0.4,0.7,0.1,1.2-0.7,1.2h-8.8c-0.8,0-1.1-0.2-1.5-1l-21.1-36.9l-13.3,16.1v20.7
				c0,0.7-0.4,1.1-1.1,1.1h-7.6c-0.7,0-1.1-0.4-1.1-1.1V49.1z"/>
			<path class="st0" d="M565.3,49.1c0-0.7,0.4-1.1,1.1-1.1h7.6c0.7,0,1.1,0.4,1.1,1.1v72.8c0,0.7-0.4,1.1-1.1,1.1h-7.6
				c-0.7,0-1.1-0.4-1.1-1.1V49.1z"/>
			<path class="st0" d="M616.8,123c-0.7,0-1.1-0.4-1.1-1.1V57.8c0-0.4-0.2-0.7-0.7-0.7h-20.5c-0.7,0-1.1-0.4-1.1-1.1v-6.9
				c0-0.7,0.4-1.1,1.1-1.1h52.2c0.7,0,1.1,0.4,1.1,1.1v6.9c0,0.7-0.4,1.1-1.1,1.1h-20.5c-0.4,0-0.7,0.2-0.7,0.7v64.1
				c0,0.7-0.4,1.1-1.1,1.1H616.8z"/>
			<path class="st0" d="M665.4,49.1c0-0.7,0.4-1.1,1.1-1.1h45.1c0.7,0,1.1,0.4,1.1,1.1v6.9c0,0.7-0.4,1.1-1.1,1.1h-35.7
				c-0.4,0-0.7,0.2-0.7,0.7v22.1c0,0.4,0.2,0.7,0.7,0.7h30.3c0.7,0,1.1,0.4,1.1,1.1v6.9c0,0.7-0.4,1.1-1.1,1.1h-30.3
				c-0.4,0-0.7,0.2-0.7,0.7v22.8c0,0.4,0.2,0.7,0.7,0.7h35.7c0.7,0,1.1,0.4,1.1,1.1v6.9c0,0.7-0.4,1.1-1.1,1.1h-45.1
				c-0.7,0-1.1-0.4-1.1-1.1V49.1z"/>
		</g>
	</g>
	<path class="st1" d="M117,77.4v-28c0-0.8-0.7-1.5-1.5-1.5H48.7c-1.6,0-2,2.2-0.6,2.8l66.8,28C116,79.2,117,78.5,117,77.4z"/>
	<path class="st2" d="M117,87v34.5c0,1.6-2.2,2-2.8,0.6l-17.8-42c-0.5-1.2,0.7-2.4,1.9-1.9l17.8,7.4C116.7,85.9,117,86.4,117,87z"/>
</g>
</svg>
