<?xml version="1.0" encoding="UTF-8" standalone="no"?>
<!DOCTYPE svg PUBLIC "-//W3C//DTD SVG 1.1//EN" "http://www.w3.org/Graphics/SVG/1.1/DTD/svg11.dtd">
<svg width="100%" height="100%" viewBox="0 0 834 825" version="1.1" xmlns="http://www.w3.org/2000/svg" xmlns:xlink="http://www.w3.org/1999/xlink" xml:space="preserve" style="fill-rule:evenodd;clip-rule:evenodd;stroke-linejoin:round;stroke-miterlimit:1.41421;">
    <g transform="matrix(4.16667,0,0,4.16667,0,0)">
        <path d="M200,19.705C192.642,22.968 184.733,25.174 176.434,26.166C184.904,21.087 191.411,13.046 194.475,3.464C186.546,8.167 177.765,11.582 168.418,13.421C160.934,5.447 150.27,0.464 138.468,0.464C115.808,0.464 97.435,18.836 97.435,41.496C97.435,44.712 97.797,47.843 98.497,50.847C64.396,49.135 34.161,32.8 13.923,7.975C10.391,14.035 8.368,21.083 8.368,28.603C8.368,42.839 15.611,55.398 26.622,62.756C19.896,62.543 13.568,60.697 8.037,57.624C8.033,57.796 8.033,57.967 8.033,58.14C8.033,78.021 22.177,94.604 40.947,98.375C37.504,99.312 33.879,99.814 30.137,99.814C27.493,99.814 24.923,99.556 22.417,99.078C27.639,115.378 42.792,127.242 60.748,127.572C46.705,138.578 29.012,145.138 9.788,145.138C6.476,145.138 3.209,144.943 0,144.564C18.158,156.206 39.727,163 62.898,163C138.372,163 179.645,100.476 179.645,46.254C179.645,44.475 179.604,42.705 179.525,40.945C187.543,35.16 194.499,27.933 200,19.705Z" style="fill:rgb(43,170,225);fill-rule:nonzero;"/>
        <g transform="matrix(0.24,0,0,0.24,29.0403,7.19543)">
            <path d="M218.853,704.019L235.478,704.019L269.853,793.269L253.103,793.269L244.728,769.644L209.103,769.644L200.728,793.269L184.603,793.269L218.853,704.019ZM213.353,757.769L240.603,757.769L227.228,719.394L226.853,719.394L213.353,757.769Z" style="fill:rgb(43,170,225);fill-rule:nonzero;"/>
            <path d="M337.228,793.269L323.728,793.269L323.728,784.519L323.478,784.519C321.561,788.269 318.77,790.957 315.103,792.582C311.436,794.207 307.561,795.019 303.478,795.019C298.395,795.019 293.957,794.123 290.165,792.332C286.374,790.54 283.228,788.102 280.728,785.019C278.228,781.936 276.353,778.29 275.103,774.082C273.853,769.873 273.228,765.352 273.228,760.519C273.228,754.686 274.02,749.644 275.603,745.394C277.186,741.144 279.29,737.644 281.915,734.894C284.54,732.144 287.54,730.123 290.915,728.832C294.29,727.54 297.728,726.894 301.228,726.894C303.228,726.894 305.27,727.082 307.353,727.457C309.436,727.832 311.436,728.436 313.353,729.269C315.27,730.102 317.04,731.165 318.665,732.457C320.29,733.748 321.645,735.269 322.728,737.019L322.978,737.019L322.978,704.019L337.228,704.019L337.228,793.269ZM287.478,761.644C287.478,764.394 287.832,767.102 288.54,769.769C289.249,772.436 290.332,774.811 291.79,776.894C293.249,778.977 295.103,780.644 297.353,781.894C299.603,783.144 302.27,783.769 305.353,783.769C308.52,783.769 311.249,783.102 313.54,781.769C315.832,780.436 317.707,778.686 319.165,776.519C320.624,774.352 321.707,771.915 322.415,769.207C323.124,766.498 323.478,763.727 323.478,760.894C323.478,753.727 321.874,748.144 318.665,744.144C315.457,740.144 311.103,738.144 305.603,738.144C302.27,738.144 299.457,738.832 297.165,740.207C294.874,741.582 292.999,743.373 291.54,745.582C290.082,747.79 289.04,750.29 288.415,753.082C287.79,755.873 287.478,758.727 287.478,761.644Z" style="fill:rgb(43,170,225);fill-rule:nonzero;"/>
            <path d="M363.478,772.519C363.895,776.686 365.478,779.602 368.228,781.269C370.978,782.936 374.27,783.769 378.103,783.769C379.436,783.769 380.957,783.665 382.665,783.457C384.374,783.248 385.978,782.852 387.478,782.269C388.978,781.686 390.207,780.832 391.165,779.707C392.124,778.582 392.561,777.102 392.478,775.269C392.395,773.436 391.728,771.936 390.478,770.769C389.228,769.602 387.624,768.665 385.665,767.957C383.707,767.248 381.478,766.644 378.978,766.144C376.478,765.644 373.936,765.102 371.353,764.519C368.686,763.936 366.124,763.227 363.665,762.394C361.207,761.561 358.999,760.436 357.04,759.019C355.082,757.602 353.52,755.79 352.353,753.582C351.186,751.373 350.603,748.644 350.603,745.394C350.603,741.894 351.457,738.957 353.165,736.582C354.874,734.207 357.04,732.29 359.665,730.832C362.29,729.373 365.207,728.352 368.415,727.769C371.624,727.186 374.686,726.894 377.603,726.894C380.936,726.894 384.124,727.248 387.165,727.957C390.207,728.665 392.957,729.811 395.415,731.394C397.874,732.977 399.915,735.04 401.54,737.582C403.165,740.123 404.186,743.186 404.603,746.769L389.728,746.769C389.061,743.352 387.499,741.061 385.04,739.894C382.582,738.727 379.77,738.144 376.603,738.144C375.603,738.144 374.415,738.227 373.04,738.394C371.665,738.561 370.374,738.873 369.165,739.332C367.957,739.79 366.936,740.457 366.103,741.332C365.27,742.207 364.853,743.352 364.853,744.769C364.853,746.519 365.457,747.936 366.665,749.019C367.874,750.102 369.457,750.998 371.415,751.707C373.374,752.415 375.603,753.019 378.103,753.519C380.603,754.019 383.186,754.561 385.853,755.144C388.436,755.727 390.978,756.436 393.478,757.269C395.978,758.102 398.207,759.227 400.165,760.644C402.124,762.061 403.707,763.852 404.915,766.019C406.124,768.186 406.728,770.852 406.728,774.019C406.728,777.852 405.853,781.102 404.103,783.769C402.353,786.436 400.082,788.602 397.29,790.269C394.499,791.936 391.395,793.144 387.978,793.894C384.561,794.644 381.186,795.019 377.853,795.019C373.77,795.019 369.999,794.561 366.54,793.644C363.082,792.727 360.082,791.332 357.54,789.457C354.999,787.582 352.999,785.248 351.54,782.457C350.082,779.665 349.311,776.352 349.228,772.519L363.478,772.519Z" style="fill:rgb(43,170,225);fill-rule:nonzero;"/>
        </g>
    </g>
</svg>
