<?xml version="1.0" encoding="UTF-8" standalone="no"?>
<svg
   xmlns:dc="http://purl.org/dc/elements/1.1/"
   xmlns:cc="http://creativecommons.org/ns#"
   xmlns:rdf="http://www.w3.org/1999/02/22-rdf-syntax-ns#"
   xmlns:svg="http://www.w3.org/2000/svg"
   xmlns="http://www.w3.org/2000/svg"
   xmlns:sodipodi="http://sodipodi.sourceforge.net/DTD/sodipodi-0.dtd"
   xmlns:inkscape="http://www.inkscape.org/namespaces/inkscape"
   id="Layer_1"
   width="160"
   height="36.3"
   viewBox="0 0 160 36.3"
   version="1.1"
   sodipodi:docname="uberall.svg"
   inkscape:version="0.92.3 (2405546, 2018-03-11)">
  <metadata
     id="metadata15">
    <rdf:RDF>
      <cc:Work
         rdf:about="">
        <dc:format>image/svg+xml</dc:format>
        <dc:type
           rdf:resource="http://purl.org/dc/dcmitype/StillImage" />
      </cc:Work>
    </rdf:RDF>
  </metadata>
  <defs
     id="defs13" />
  <sodipodi:namedview
     pagecolor="#ffffff"
     bordercolor="#666666"
     borderopacity="1"
     objecttolerance="10"
     gridtolerance="10"
     guidetolerance="10"
     inkscape:pageopacity="0"
     inkscape:pageshadow="2"
     inkscape:window-width="1920"
     inkscape:window-height="1052"
     id="namedview11"
     showgrid="false"
     inkscape:zoom="4.437095"
     inkscape:cx="94.513076"
     inkscape:cy="4.8734999"
     inkscape:window-x="0"
     inkscape:window-y="0"
     inkscape:window-maximized="1"
     inkscape:current-layer="Layer_1" />
  <style
     id="style2">.st0{fill:#2aa8c9}.st1{fill:#3e4b57}.st2{fill:none;stroke:#49ffff;stroke-width:.3;stroke-miterlimit:10}.st3{fill:#fff}</style>
  <path
     class="st0"
     d="M8.8 21.2H9c.2 0 .3 0 .5-.1 1.1-.3 1.7-1.4 1.5-2.5-1.1-6 2.5-11.9 8.4-13.7.9-.3 1.8-.4 2.7-.5h.9c4.8 0 9.1 2.8 11 7.1.3.8 1.1 1.3 2 1.3h.2c.2 0 .3 0 .5-.1.6-.2 1.1-.6 1.4-1.2.3-.6.3-1.2 0-1.8C35.3 3.8 29.4 0 22.9 0h-1.2c-1.2.1-2.5.3-3.7.7C10.1 3.2 5.2 11.2 6.6 19.4c.2 1 1.1 1.8 2.2 1.8z"
     id="path4" />
  <path
     class="st0"
     d="M45.6 9.5c-.6-1.9-2.4-2.8-3.7-3.2-1.2-.4-2.8-.6-4.6-.6-.1 0-.2.1-.2.1v.3c1 1.2 1.8 2.5 2.5 3.9.1.1.2.2.3.2.4.1.7.2 1 .3.2.1.3.2.4.4.1.2 0 .4-.1.5-.4.6-1.4 1.7-4 3.3-3.4 2.1-8 4.2-13.2 5.8-5 1.5-10 2.5-14 2.6-3 .1-4.5-.3-5.1-.5-.2-.1-.3-.2-.4-.4-.1-.2 0-.4.1-.5.2-.2.4-.5.6-.7.1-.1.1-.2.1-.4-.2-1.6-.3-3.1-.1-4.7 0-.1 0-.2-.1-.2h-.3c-1.4 1-2.5 2-3.3 3-.9 1.1-1.9 2.9-1.3 4.8.6 1.9 2.4 2.8 3.7 3.2 1.5.5 3.4.7 5.7.6h.9c1.9 2.1 4.4 3.8 7.3 4.9 2 .8 4 1.5 6 2.2 1 .4 2 .7 3.1 1.1l2.1.8.1.1 1.4-1.9c.6-.9 1.3-1.8 1.9-2.6 1.2-1.7 2.5-3.4 3.7-5.2 1.8-2.5 2.9-5.3 3.2-8.1.3-.2.6-.4.8-.5 1.9-1.3 3.4-2.5 4.3-3.7.9-1.3 1.8-3 1.2-4.9zm-19 19.1v.2-.2c-3.7 1.2-7.8.5-10.9-1.8 3.1-.5 6.4-1.3 9.7-2.3 3.3-1 6.4-2.2 9.2-3.5-1.3 3.6-4.3 6.4-8 7.6z"
     id="path6" />
  <path
     class="st3"
     d="M67.2 12.8v9.1c0 1.5 0 2.9-1.1 4-.8.9-2.1 1.2-3.3 1.2s-2.5-.3-3.3-1.2c-1.1-1.2-1.1-2.6-1.1-4v-9.1h-4V23c0 1.2.2 2.3.5 3.3.4 1 .9 1.8 1.6 2.5.7.7 1.6 1.3 2.6 1.7 1 .4 2.2.6 3.5.6h.2c1.3 0 2.5-.2 3.5-.6 1-.4 1.9-1 2.6-1.7.7-.7 1.3-1.6 1.6-2.5.4-1 .5-2.1.5-3.3V12.8h-3.8zm24.9 5c-.5-1.2-1.1-2.2-1.9-3.1-.8-.9-1.7-1.6-2.7-2-1-.5-2.2-.7-3.4-.7-1.1 0-2.1.2-3 .5-.9.3-1.5.7-2.2 1.2-.4.3-.8.7-.8.7V4h-4v12.9c0 2.8-.4 5.6.7 8.3.4 1.2 1.1 2.2 1.9 3 .8.9 1.8 1.5 2.9 2 1.1.5 2.4.7 3.8.7s2.6-.2 3.8-.7c1.1-.5 2.1-1.2 2.9-2 .8-.9 1.5-1.9 1.9-3 .5-1.2.7-2.4.7-3.7.1-1.3-.2-2.5-.6-3.7zm-8.6 9.6c-2.9 0-5.3-2.6-5.3-5.9 0-3.2 2.4-5.9 5.3-5.9s5.3 2.6 5.3 5.9c0 3.2-2.4 5.9-5.3 5.9zm29.2-2h-4.4c-.4.7-1 1.3-1.8 1.6-.8.4-1.6.6-2.5.6-1.3 0-2.4-.4-3.3-1.1-.9-.7-1.6-1.7-1.9-3l-.1-.5h14.6c.1-1.7 0-3.2-.4-4.5-.4-1.4-1.1-2.6-1.9-3.6-.8-1-1.9-1.7-3-2.2-1.2-.5-2.5-.8-3.8-.8-1.3 0-2.5.3-3.6.8s-2.1 1.2-3 2.1c-.8.9-1.5 1.9-2 3-.5 1.2-.7 2.4-.7 3.7 0 1.3.2 2.6.7 3.7.5 1.2 1.2 2.2 2 3 .8.9 1.8 1.5 3 2 1.1.5 2.3.7 3.6.7 2.3 0 4.2-.6 5.7-1.7 1.3-.9 2.2-2.2 2.8-3.8zm-13.8-6.3c.4-1.2 1-2 1.9-2.7.9-.7 2-1.1 3.2-1.1 1.3 0 2.4.4 3.3 1.1.9.7 1.6 1.5 1.9 2.7l.1.6H98.8l.1-.6zm22.6-2.6c.9-.7 2.1-1 3.6-.8V12c-1.4-.1-2.6 0-3.7.3-1.2.3-2.2.9-3 1.6-.8.7-1.4 1.6-1.9 2.6-.4 1-.7 2.2-.7 3.5v10.6h4V20c.1-1.5.6-2.6 1.7-3.5zm19.7 12.3v1.8h4v-9.1c0-1.2-.2-2.5-.7-3.7-.5-1.2-1.1-2.2-1.9-3-.8-.9-1.8-1.5-2.9-2-1.1-.5-2.4-.8-3.8-.8s-2.7.3-3.8.8c-1.1.5-2.1 1.2-2.9 2-.8.9-1.5 1.9-1.9 3-.5 1.2-.7 2.4-.7 3.7 0 1.3.2 2.6.7 3.7 1.1 2.7 3.4 5 6.3 5.5 1.5.3 3.1.3 4.6-.1 1.1-.3 2.4-.8 3-1.8zm-5.4-1.4c-.7 0-1.4-.1-2.1-.4-.6-.3-1.2-.7-1.7-1.2s-.9-1.1-1.1-1.8c-.3-.7-.4-1.5-.4-2.3 0-.8.1-1.6.4-2.3.3-.7.7-1.3 1.1-1.9.5-.5 1.1-1 1.7-1.2 1.3-.6 2.9-.6 4.2 0 .6.3 1.2.7 1.7 1.3.5.5.9 1.2 1.1 1.9.3.7.4 1.5.4 2.3 0 .8-.1 1.5-.4 2.2-.3.7-.7 1.3-1.1 1.8-.5.5-1.1.9-1.7 1.2-.6.3-1.3.4-2.1.4zM148.6 4h4v26.6h-4zm7.4 0h4v26.6h-4z"
     id="path8"
     style="fill:#4d4d4d" />
</svg>
