<svg id="svg" xmlns="http://www.w3.org/2000/svg" xmlns:xlink="http://www.w3.org/1999/xlink" width="400" height="400" viewBox="0, 0, 400,400"><g id="svgg"><path id="path0" d="M87.316 189.700 C 87.440 281.017,87.428 280.344,88.964 283.600 C 91.549 289.080,98.854 296.400,101.739 296.400 C 102.076 296.400,102.451 296.558,102.570 296.752 C 102.690 296.946,103.736 297.419,104.894 297.804 C 110.118 299.542,111.196 299.584,150.632 299.592 L 188.264 299.600 189.548 297.813 C 190.253 296.830,191.053 295.795,191.324 295.513 C 191.838 294.979,197.636 287.204,199.985 283.900 C 200.728 282.855,201.485 282.000,201.668 282.000 C 201.851 282.000,202.000 281.730,202.000 281.400 C 202.000 281.070,202.141 280.800,202.314 280.800 C 202.486 280.800,202.920 280.305,203.279 279.700 C 203.637 279.095,204.316 278.150,204.789 277.600 C 205.262 277.050,206.003 276.188,206.436 275.684 C 207.462 274.489,208.000 274.872,208.000 276.798 C 208.000 277.650,208.195 278.855,208.434 279.474 C 208.673 280.093,209.015 281.410,209.193 282.400 C 210.285 288.456,216.255 297.600,219.117 297.600 C 219.515 297.600,220.042 297.802,220.288 298.048 C 221.319 299.079,224.763 299.353,238.300 299.484 L 252.400 299.620 252.400 228.853 C 252.400 164.691,252.341 158.063,251.767 157.843 C 250.818 157.479,223.856 157.606,220.400 157.991 C 216.036 158.477,214.520 159.128,211.994 161.600 C 207.994 165.515,208.264 162.852,207.996 201.000 C 207.733 238.257,207.895 236.178,204.763 242.592 C 203.804 244.558,202.508 246.276,200.388 248.392 C 197.490 251.286,196.320 252.110,192.400 254.019 C 191.410 254.501,190.324 255.031,189.987 255.197 C 189.650 255.363,188.750 255.622,187.987 255.772 C 187.224 255.923,186.240 256.203,185.800 256.394 C 182.353 257.892,132.797 258.290,132.014 256.826 C 131.733 256.301,131.600 231.109,131.600 178.226 L 131.600 100.400 109.397 100.400 L 87.195 100.400 87.316 189.700 M147.600 171.183 L 147.600 241.985 148.579 242.231 C 151.139 242.873,181.774 242.219,182.789 241.500 C 183.333 241.115,184.027 240.800,184.331 240.800 C 185.295 240.800,188.120 238.436,190.346 235.767 C 190.545 235.528,190.832 234.765,190.984 234.071 C 191.137 233.377,191.428 232.706,191.631 232.581 C 191.851 232.445,192.000 219.301,192.000 199.903 C 192.000 171.896,192.085 167.120,192.620 165.026 C 193.645 161.017,194.485 158.682,195.468 157.108 C 195.981 156.287,196.404 155.477,196.410 155.308 C 196.425 154.800,201.295 149.810,202.792 148.768 C 204.465 147.604,205.593 146.919,206.400 146.577 C 206.730 146.437,207.540 146.089,208.200 145.803 C 210.924 144.625,211.471 144.418,213.000 143.986 C 217.919 142.596,221.264 142.428,244.420 142.414 C 261.807 142.403,267.557 142.517,267.920 142.880 C 268.290 143.250,268.400 161.253,268.400 221.480 L 268.400 299.600 290.800 299.600 L 313.200 299.600 313.171 212.500 C 313.155 164.595,312.992 124.500,312.809 123.400 C 311.875 117.785,312.025 118.298,310.089 114.127 C 308.440 110.574,303.856 106.134,300.000 104.354 C 295.825 102.427,294.134 101.836,290.709 101.104 C 289.267 100.797,277.566 100.612,253.723 100.521 L 218.846 100.387 208.018 111.294 C 195.818 123.582,196.512 123.202,195.612 118.080 C 195.091 115.111,195.040 114.967,193.138 111.033 C 191.822 108.312,187.708 103.600,186.648 103.600 C 186.380 103.600,185.950 103.390,185.693 103.133 C 185.124 102.564,182.828 101.681,180.400 101.097 C 179.329 100.840,172.324 100.607,163.100 100.523 L 147.600 100.382 147.600 171.183 " stroke="none" fill="#5c54d4" fill-rule="evenodd"></path><path id="path1" d="M0.000 200.000 L 0.000 400.000 200.000 400.000 L 400.000 400.000 400.000 200.000 L 400.000 0.000 200.000 0.000 L 0.000 0.000 0.000 200.000 M132.301 178.106 L 132.402 256.412 157.901 256.276 C 184.226 256.136,185.051 256.088,188.926 254.470 C 189.545 254.212,190.142 254.000,190.251 254.000 C 192.801 254.000,200.298 248.149,202.852 244.165 C 206.833 237.954,206.830 237.989,207.151 199.600 L 207.428 166.600 208.625 164.475 C 210.649 160.885,214.084 158.202,217.600 157.465 C 218.150 157.350,219.320 157.067,220.200 156.837 C 223.045 156.094,252.207 156.264,252.971 157.029 C 253.938 157.995,253.934 299.786,252.967 300.157 C 251.448 300.740,223.432 300.412,222.254 299.798 C 221.624 299.469,220.780 299.200,220.378 299.200 C 219.976 299.200,219.539 299.025,219.407 298.811 C 219.274 298.597,218.580 298.143,217.864 297.804 C 215.278 296.576,212.230 292.973,210.417 289.000 C 209.915 287.900,209.346 286.687,209.152 286.305 C 208.959 285.923,208.794 285.203,208.786 284.705 C 208.778 284.207,208.514 283.350,208.200 282.800 C 207.880 282.240,207.622 280.711,207.614 279.324 C 207.594 275.828,207.258 275.919,203.974 280.304 C 202.370 282.447,200.909 284.260,200.729 284.333 C 200.548 284.407,200.400 284.713,200.400 285.013 C 200.400 285.314,200.172 285.704,199.894 285.880 C 199.616 286.056,197.326 288.990,194.804 292.400 C 192.283 295.810,189.856 299.002,189.410 299.493 L 188.600 300.386 149.287 300.393 C 115.236 300.399,109.782 300.320,108.538 299.800 C 107.749 299.470,106.689 299.200,106.184 299.200 C 105.678 299.200,104.755 298.945,104.132 298.634 C 103.510 298.322,101.882 297.517,100.517 296.845 C 99.151 296.173,97.532 295.213,96.920 294.712 C 94.585 292.798,91.135 289.367,90.776 288.600 C 90.362 287.715,89.511 286.311,89.200 286.000 C 88.968 285.768,87.974 283.622,87.162 281.600 C 86.613 280.231,86.045 101.517,86.586 100.097 C 86.737 99.699,91.532 99.615,109.489 99.697 L 132.200 99.800 132.301 178.106 M180.854 100.240 C 187.369 102.181,191.657 105.647,194.167 111.000 C 194.580 111.880,195.069 112.909,195.254 113.286 C 195.757 114.315,196.462 117.180,196.684 119.100 C 196.951 121.410,196.176 122.028,207.868 110.188 L 218.348 99.576 254.554 99.688 C 282.864 99.776,290.869 99.909,291.260 100.300 C 291.535 100.575,292.309 100.801,292.980 100.802 C 293.651 100.804,294.716 101.074,295.346 101.402 C 295.976 101.731,296.716 102.000,296.989 102.000 C 297.544 102.000,301.421 104.010,303.593 105.423 C 307.931 108.246,311.143 112.832,312.960 118.800 C 313.580 120.835,313.622 127.736,313.515 210.600 L 313.400 300.200 290.600 300.200 L 267.800 300.200 267.699 221.891 L 267.598 143.583 242.099 143.711 C 215.878 143.843,215.449 143.867,211.740 145.459 C 211.046 145.757,210.291 146.000,210.061 146.000 C 209.831 146.000,208.796 146.450,207.762 147.000 C 206.727 147.550,205.638 148.000,205.340 148.000 C 205.043 148.000,204.800 148.175,204.800 148.390 C 204.800 148.604,204.305 149.037,203.700 149.353 C 201.674 150.408,196.800 155.616,196.800 156.724 C 196.800 156.949,196.665 157.193,196.500 157.267 C 196.167 157.415,195.192 159.451,194.425 161.600 C 193.310 164.724,193.107 169.814,192.858 201.000 L 192.600 233.400 191.514 235.333 C 189.403 239.091,186.054 241.470,180.765 242.967 C 177.433 243.911,147.971 243.914,147.029 242.971 C 146.198 242.140,146.051 100.909,146.880 100.080 C 147.691 99.269,178.076 99.411,180.854 100.240 " stroke="none" fill="#ffffff" fill-rule="evenodd"></path><path id="path2" d="M86.664 99.897 C 86.561 100.064,96.674 100.200,109.138 100.200 L 131.800 100.200 131.901 178.160 C 131.975 234.977,132.124 256.267,132.450 256.660 C 132.948 257.261,175.496 257.399,180.200 256.815 C 181.520 256.652,171.305 256.491,157.501 256.459 L 132.402 256.400 132.301 178.100 L 132.200 99.800 109.526 99.697 C 97.055 99.640,86.767 99.730,86.664 99.897 M146.896 100.064 C 146.052 100.908,146.183 242.126,147.029 242.971 C 147.837 243.780,178.088 243.869,180.296 243.070 C 181.315 242.700,177.984 242.627,164.709 242.724 C 149.000 242.840,147.789 242.800,147.312 242.148 C 146.900 241.584,146.800 227.624,146.800 170.931 L 146.800 100.415 147.700 100.189 C 148.974 99.870,179.148 100.209,180.600 100.559 C 181.689 100.822,181.726 100.800,181.000 100.324 C 179.858 99.576,147.631 99.329,146.896 100.064 M207.800 110.211 C 196.211 122.010,196.952 121.417,196.684 119.100 C 196.457 117.133,195.747 114.280,195.238 113.286 C 195.044 112.909,194.680 112.082,194.428 111.448 C 194.176 110.815,193.874 110.392,193.757 110.509 C 193.640 110.626,193.715 111.055,193.923 111.461 C 194.929 113.423,195.527 115.238,196.009 117.800 C 196.299 119.340,196.690 120.775,196.877 120.989 C 197.082 121.223,201.462 117.134,207.922 110.678 L 218.626 99.979 254.213 100.103 C 273.786 100.171,290.250 100.380,290.800 100.568 C 291.643 100.855,291.718 100.822,291.280 100.354 C 290.846 99.891,284.803 99.785,254.480 99.712 L 218.200 99.623 207.800 110.211 M182.600 101.148 C 184.891 101.916,187.440 103.524,189.867 105.735 C 191.725 107.427,192.294 107.801,191.679 106.928 C 190.046 104.604,184.229 100.743,182.508 100.840 C 181.905 100.874,181.919 100.920,182.600 101.148 M292.800 101.071 C 293.350 101.160,294.205 101.436,294.699 101.684 C 295.194 101.932,295.714 102.019,295.855 101.878 C 296.225 101.508,294.136 100.790,292.874 100.854 C 291.806 100.909,291.806 100.910,292.800 101.071 M298.757 103.210 C 300.163 103.875,301.378 104.355,301.458 104.276 C 301.679 104.054,297.468 102.000,296.794 102.000 C 296.467 102.000,297.351 102.545,298.757 103.210 M302.800 105.202 C 306.743 108.475,307.733 109.492,309.363 111.944 C 310.373 113.464,311.200 114.888,311.200 115.108 C 311.200 115.328,311.469 116.024,311.798 116.654 C 312.162 117.353,312.396 117.541,312.398 117.137 C 312.408 114.442,306.877 107.299,303.091 105.116 L 301.800 104.372 302.800 105.202 M312.634 119.200 C 312.785 119.970,313.040 121.500,313.199 122.600 L 313.487 124.600 313.544 122.546 C 313.575 121.414,313.321 119.888,312.979 119.146 L 312.358 117.800 312.634 119.200 M220.600 143.200 C 219.280 143.346,229.315 143.496,242.899 143.533 L 267.598 143.600 267.699 221.900 L 267.800 300.200 290.377 300.303 C 302.794 300.360,313.090 300.270,313.257 300.103 C 313.424 299.937,303.354 299.800,290.880 299.800 L 268.200 299.800 268.099 221.840 C 268.025 165.023,267.876 143.733,267.550 143.340 C 267.069 142.760,225.690 142.637,220.600 143.200 M213.800 144.240 C 212.700 144.537,211.440 144.943,211.000 145.142 C 210.560 145.341,209.390 145.832,208.400 146.232 C 207.410 146.632,206.245 147.194,205.811 147.480 C 204.479 148.358,205.774 148.057,207.675 147.046 C 208.661 146.522,210.036 145.968,210.730 145.815 C 211.423 145.663,212.094 145.372,212.219 145.169 C 212.345 144.966,212.932 144.786,213.524 144.770 C 214.116 144.753,215.230 144.497,216.000 144.200 C 217.811 143.503,216.435 143.528,213.800 144.240 M202.565 149.589 C 199.267 152.089,194.201 158.734,194.990 159.524 C 195.113 159.647,195.430 159.174,195.695 158.474 C 195.959 157.773,196.316 157.200,196.488 157.200 C 196.659 157.200,196.800 157.001,196.800 156.758 C 196.800 155.620,201.639 150.426,203.700 149.353 C 204.305 149.037,204.800 148.604,204.800 148.390 C 204.800 147.874,204.891 147.825,202.565 149.589 M220.080 156.795 C 219.354 156.967,218.693 157.173,218.613 157.254 C 218.532 157.334,226.072 157.346,235.367 157.280 C 249.504 157.180,252.345 157.252,252.736 157.722 C 253.088 158.147,253.177 175.600,253.101 229.042 L 253.000 299.800 238.400 299.800 C 230.370 299.800,223.260 299.642,222.600 299.448 C 221.588 299.152,221.481 299.183,221.920 299.648 C 222.455 300.217,250.609 300.729,252.700 300.209 L 253.600 299.985 253.600 228.821 C 253.600 164.660,253.538 157.595,252.971 157.029 C 252.282 156.339,222.885 156.130,220.080 156.795 M215.424 158.213 C 214.996 158.536,214.825 158.800,215.044 158.800 C 215.262 158.800,215.611 158.637,215.820 158.439 C 216.029 158.240,216.560 157.991,217.000 157.885 L 217.800 157.693 217.000 157.659 C 216.560 157.641,215.851 157.890,215.424 158.213 M212.366 159.896 C 211.012 160.902,208.800 163.584,208.800 164.219 C 208.800 164.379,209.355 163.810,210.034 162.955 C 211.436 161.189,212.177 160.465,213.589 159.486 C 214.133 159.109,214.403 158.807,214.189 158.815 C 213.975 158.823,213.155 159.309,212.366 159.896 M194.100 161.270 C 193.402 163.205,193.503 164.096,194.230 162.421 C 194.559 161.662,194.777 160.781,194.714 160.462 C 194.651 160.144,194.375 160.507,194.100 161.270 M193.015 165.400 C 192.825 166.060,192.646 181.090,192.617 198.800 L 192.564 231.000 192.831 199.800 C 192.978 182.640,193.228 167.946,193.387 167.147 C 193.784 165.155,193.487 163.761,193.015 165.400 M208.085 165.613 C 207.818 166.040,207.625 166.977,207.654 167.695 C 207.699 168.752,207.740 168.810,207.871 168.000 C 207.960 167.450,208.236 166.595,208.484 166.101 C 209.053 164.964,208.734 164.574,208.085 165.613 M207.297 199.436 C 207.237 217.680,207.036 229.888,206.765 231.906 C 206.526 233.685,206.402 235.468,206.490 235.870 C 207.276 239.452,207.620 227.396,207.512 200.000 L 207.395 170.200 207.297 199.436 M192.032 232.704 C 191.870 235.278,188.241 239.438,184.637 241.180 C 183.296 241.827,182.446 242.367,182.746 242.378 C 185.745 242.497,193.172 234.960,192.269 232.713 C 192.107 232.310,192.056 232.308,192.032 232.704 M205.605 238.273 C 203.310 245.660,196.417 252.474,189.480 254.216 C 188.882 254.366,188.294 254.649,188.173 254.844 C 188.052 255.040,187.558 255.201,187.076 255.202 C 185.873 255.205,182.898 256.076,183.435 256.268 C 184.912 256.795,192.283 253.925,196.600 251.142 C 200.893 248.374,207.698 238.365,206.262 236.929 C 206.162 236.829,205.866 237.433,205.605 238.273 M86.473 277.000 C 86.443 278.876,86.630 280.130,87.039 280.800 L 87.650 281.800 87.389 280.800 C 87.245 280.250,86.990 278.540,86.822 277.000 L 86.517 274.200 86.473 277.000 M206.598 276.142 C 205.007 278.310,195.319 291.089,195.000 291.441 C 194.780 291.683,193.250 293.707,191.600 295.938 L 188.600 299.994 149.000 299.885 C 127.220 299.825,108.950 299.644,108.400 299.484 C 107.626 299.257,107.671 299.324,108.600 299.778 C 109.629 300.280,115.415 300.366,149.200 300.375 L 188.600 300.386 189.410 299.493 C 189.856 299.002,192.283 295.810,194.804 292.400 C 197.326 288.990,199.616 286.056,199.894 285.880 C 200.172 285.704,200.400 285.314,200.400 285.013 C 200.400 284.713,200.548 284.407,200.729 284.333 C 200.909 284.260,202.370 282.447,203.974 280.304 C 205.578 278.162,207.050 276.508,207.245 276.628 C 207.440 276.749,207.600 276.567,207.600 276.224 C 207.600 275.456,207.130 275.418,206.598 276.142 M207.664 280.000 C 207.644 280.990,207.902 282.250,208.236 282.800 L 208.844 283.800 208.596 282.600 C 208.460 281.940,208.203 280.680,208.024 279.800 L 207.700 278.200 207.664 280.000 M87.609 282.468 C 87.601 283.067,88.694 285.493,89.200 286.000 C 89.511 286.311,90.362 287.716,90.776 288.600 C 91.134 289.364,94.589 292.803,96.900 294.694 C 98.362 295.891,102.448 298.051,102.939 297.887 C 103.155 297.815,102.272 297.254,100.977 296.641 C 95.768 294.175,90.948 289.136,88.372 283.462 C 87.957 282.548,87.614 282.100,87.609 282.468 M208.821 284.905 C 208.809 285.293,208.960 285.923,209.156 286.305 C 209.351 286.687,209.965 287.990,210.519 289.200 C 212.222 292.917,216.644 298.000,218.175 298.000 C 218.338 298.000,217.601 297.311,216.536 296.469 C 213.598 294.147,211.412 290.851,209.460 285.800 C 209.120 284.920,208.832 284.517,208.821 284.905 M104.224 298.587 C 104.651 298.910,105.540 299.172,106.200 299.170 C 107.351 299.165,107.335 299.141,105.800 298.588 C 103.749 297.850,103.248 297.849,104.224 298.587 M219.200 298.600 C 219.474 298.930,220.081 299.199,220.549 299.198 C 221.287 299.195,221.247 299.115,220.254 298.598 C 218.810 297.844,218.573 297.845,219.200 298.600 " stroke="none" fill="#bcbcf0" fill-rule="evenodd"></path><path id="path3" d="M86.585 100.500 C 86.480 100.775,86.441 140.060,86.497 187.800 L 86.600 274.600 86.800 187.300 C 86.910 139.285,86.949 100.000,86.887 100.000 C 86.826 100.000,86.689 100.225,86.585 100.500 M146.996 171.000 C 146.996 209.940,147.043 225.811,147.100 206.268 C 147.157 186.726,147.157 154.866,147.100 135.468 C 147.043 116.071,146.996 132.060,146.996 171.000 M199.588 119.100 L 197.000 121.800 199.700 119.212 C 201.185 117.788,202.400 116.573,202.400 116.512 C 202.400 116.217,201.993 116.592,199.588 119.100 M313.396 212.000 C 313.396 260.290,313.443 280.045,313.500 255.900 C 313.557 231.755,313.557 192.245,313.500 168.100 C 313.443 143.955,313.396 163.710,313.396 212.000 M252.302 157.644 C 252.702 158.156,252.784 172.769,252.702 229.105 C 252.646 268.055,252.735 299.840,252.900 299.738 C 253.639 299.282,253.241 158.130,252.500 157.549 C 251.879 157.062,251.857 157.073,252.302 157.644 M214.800 295.000 C 215.546 295.770,216.247 296.400,216.357 296.400 C 216.467 296.400,215.946 295.770,215.200 295.000 C 214.454 294.230,213.753 293.600,213.643 293.600 C 213.533 293.600,214.054 294.230,214.800 295.000 " stroke="none" fill="#a4a4ec" fill-rule="evenodd"></path><path id="path4" d="M87.067 100.267 C 86.452 100.881,86.783 277.689,87.402 279.800 C 87.725 280.900,87.869 281.170,87.723 280.400 C 87.577 279.630,87.398 238.817,87.326 189.703 L 87.195 100.407 109.297 100.300 L 131.400 100.193 109.367 100.097 C 97.248 100.043,87.213 100.120,87.067 100.267 M155.126 100.300 C 159.155 100.365,165.635 100.365,169.526 100.299 C 173.417 100.234,170.120 100.180,162.200 100.181 C 154.280 100.181,151.097 100.234,155.126 100.300 M235.700 100.300 C 245.105 100.360,260.495 100.360,269.900 100.300 C 279.305 100.240,271.610 100.191,252.800 100.191 C 233.990 100.191,226.295 100.240,235.700 100.300 M131.698 178.126 C 131.631 231.260,131.732 256.299,132.014 256.826 C 132.442 257.625,176.208 258.020,181.200 257.270 C 182.190 257.122,171.615 257.055,157.700 257.122 C 143.785 257.189,132.356 257.189,132.303 257.122 C 132.249 257.055,132.113 221.720,132.001 178.600 L 131.796 100.200 131.698 178.126 M147.299 171.020 C 147.223 225.679,147.310 241.950,147.680 242.320 C 148.208 242.848,176.607 242.980,180.000 242.470 C 180.990 242.322,174.541 242.261,165.668 242.335 C 156.796 242.410,149.102 242.362,148.570 242.228 L 147.602 241.985 147.500 171.093 L 147.398 100.200 147.299 171.020 M178.800 100.800 C 179.130 101.013,179.850 101.173,180.400 101.154 L 181.400 101.120 180.400 100.800 C 178.858 100.306,178.036 100.306,178.800 100.800 M207.830 110.993 C 196.768 122.288,196.772 122.286,196.193 119.092 C 196.023 118.162,195.814 117.681,195.728 118.024 C 195.522 118.840,196.480 121.700,197.019 121.876 C 197.394 121.998,217.416 102.121,218.148 100.900 C 218.775 99.853,217.921 100.689,207.830 110.993 M288.600 100.800 C 289.040 100.989,289.850 101.138,290.400 101.132 L 291.400 101.120 290.400 100.800 C 289.850 100.624,289.040 100.474,288.600 100.468 L 287.800 100.456 288.600 100.800 M182.800 101.800 C 184.115 102.552,184.764 102.560,183.776 101.813 C 183.349 101.490,182.730 101.226,182.400 101.227 C 182.052 101.228,182.220 101.468,182.800 101.800 M293.400 101.812 C 295.433 102.544,296.092 102.539,294.800 101.800 C 294.250 101.486,293.350 101.230,292.800 101.232 C 292.007 101.234,292.132 101.355,293.400 101.812 M297.024 102.987 C 297.451 103.310,298.070 103.574,298.400 103.573 C 298.748 103.572,298.580 103.332,298.000 103.000 C 296.685 102.248,296.036 102.240,297.024 102.987 M189.400 105.851 C 190.753 107.216,192.366 109.391,193.098 110.836 C 193.813 112.246,194.398 113.168,194.398 112.884 C 194.403 111.303,190.591 105.951,188.328 104.362 C 187.485 103.770,187.877 104.314,189.400 105.851 M299.776 104.213 C 300.204 104.536,300.744 104.804,300.976 104.808 C 301.733 104.822,306.552 108.980,307.793 110.689 C 308.457 111.603,309.156 112.362,309.347 112.376 C 310.930 112.487,304.212 106.208,300.493 104.100 C 299.289 103.418,298.823 103.491,299.776 104.213 M309.603 112.938 C 309.601 113.124,309.850 113.754,310.155 114.338 C 310.460 114.922,310.917 115.918,311.170 116.552 C 311.423 117.185,311.746 117.587,311.888 117.445 C 312.030 117.303,311.934 116.974,311.673 116.713 C 311.413 116.453,311.199 115.961,311.197 115.620 C 311.196 115.279,310.837 114.460,310.400 113.800 C 309.963 113.140,309.604 112.752,309.603 112.938 M312.247 119.600 C 312.369 120.590,312.622 122.210,312.811 123.200 L 313.153 125.000 312.988 123.000 C 312.897 121.900,312.643 120.280,312.425 119.400 L 312.026 117.800 312.247 119.600 M219.200 142.753 C 218.430 142.889,229.005 142.945,242.700 142.878 C 256.395 142.810,267.644 142.810,267.697 142.878 C 267.751 142.945,267.886 178.280,267.997 221.400 L 268.200 299.800 290.700 299.805 L 313.200 299.810 290.800 299.702 L 268.400 299.593 268.400 221.477 C 268.400 161.253,268.290 143.250,267.920 142.880 C 267.408 142.368,222.048 142.250,219.200 142.753 M213.600 143.825 C 211.758 144.522,212.868 144.512,215.400 143.809 C 216.928 143.385,217.117 143.259,216.200 143.275 C 215.540 143.286,214.370 143.534,213.600 143.825 M210.600 144.800 C 210.464 145.020,210.038 145.200,209.653 145.200 C 209.268 145.200,208.604 145.464,208.176 145.787 C 207.627 146.203,208.028 146.150,209.551 145.603 C 211.902 144.760,212.482 144.400,211.490 144.400 C 211.137 144.400,210.736 144.580,210.600 144.800 M205.549 147.065 C 205.047 147.674,205.085 147.687,206.000 147.211 C 207.341 146.514,207.442 146.400,206.716 146.400 C 206.376 146.400,205.851 146.699,205.549 147.065 M202.745 148.752 C 200.939 150.113,198.624 152.404,199.069 152.389 C 199.251 152.383,199.940 151.821,200.600 151.141 C 201.260 150.461,202.475 149.473,203.300 148.947 C 204.729 148.035,205.154 147.568,204.500 147.627 C 204.335 147.642,203.545 148.148,202.745 148.752 M197.404 153.996 C 196.774 154.654,196.355 155.288,196.473 155.407 C 196.592 155.525,197.173 154.987,197.765 154.211 C 199.081 152.485,198.935 152.398,197.404 153.996 M195.223 157.450 C 194.753 158.248,194.452 158.986,194.556 159.089 C 194.659 159.193,195.120 158.540,195.580 157.639 C 196.615 155.611,196.381 155.488,195.223 157.450 M219.800 157.557 C 218.920 157.691,225.449 157.736,234.308 157.659 C 243.167 157.581,250.862 157.629,251.408 157.766 L 252.400 158.015 252.400 228.802 L 252.400 299.590 238.500 299.703 L 224.600 299.816 238.600 299.808 L 252.600 299.800 252.701 229.042 C 252.775 177.076,252.683 158.141,252.352 157.742 C 251.881 157.174,223.385 157.012,219.800 157.557 M215.600 158.633 C 215.044 158.942,214.867 159.185,215.200 159.180 C 215.530 159.175,216.250 158.914,216.800 158.600 C 217.350 158.286,217.530 158.040,217.200 158.053 C 216.870 158.067,216.150 158.328,215.600 158.633 M212.800 160.301 C 210.587 162.027,210.169 162.612,208.396 166.461 C 208.127 167.044,207.983 167.750,208.077 168.030 C 208.170 168.310,208.581 167.473,208.989 166.170 C 209.580 164.284,210.209 163.331,212.076 161.500 C 213.365 160.235,214.371 159.202,214.310 159.204 C 214.250 159.207,213.570 159.700,212.800 160.301 M193.677 160.938 C 193.415 161.664,193.209 162.514,193.219 162.828 C 193.230 163.143,193.512 162.618,193.847 161.661 C 194.182 160.705,194.388 159.855,194.305 159.771 C 194.222 159.688,193.939 160.213,193.677 160.938 M192.447 165.777 C 192.132 167.030,192.027 176.975,192.093 199.477 L 192.186 231.400 192.420 198.800 C 192.548 180.870,192.797 165.705,192.973 165.100 C 193.149 164.495,193.204 164.000,193.094 164.000 C 192.985 164.000,192.694 164.800,192.447 165.777 M207.563 202.400 C 207.434 219.890,207.215 234.830,207.076 235.600 L 206.822 237.000 207.291 235.600 C 207.784 234.127,208.118 205.050,207.905 182.200 C 207.845 175.820,207.691 184.910,207.563 202.400 M191.211 233.371 C 190.581 235.029,190.754 235.579,191.422 234.039 C 191.747 233.291,191.925 232.591,191.817 232.484 C 191.710 232.377,191.437 232.776,191.211 233.371 M190.000 235.986 C 190.000 236.440,188.355 238.140,186.391 239.716 C 185.139 240.721,185.120 240.764,186.200 240.143 C 188.403 238.875,191.451 235.600,190.427 235.600 C 190.192 235.600,190.000 235.774,190.000 235.986 M206.010 238.846 C 205.705 239.811,205.283 240.829,205.071 241.110 C 204.859 241.390,204.795 241.728,204.928 241.861 C 205.061 241.994,205.379 241.585,205.635 240.952 C 205.890 240.318,206.278 239.413,206.496 238.939 C 206.714 238.466,206.819 237.857,206.728 237.585 C 206.638 237.314,206.315 237.881,206.010 238.846 M182.976 241.387 C 181.966 242.151,182.404 242.159,183.854 241.402 C 184.484 241.074,184.719 240.804,184.376 240.802 C 184.034 240.801,183.404 241.064,182.976 241.387 M203.809 243.712 C 203.397 244.421,202.243 245.990,201.245 247.200 C 199.852 248.888,199.735 249.121,200.742 248.200 C 202.104 246.954,204.999 242.866,204.718 242.585 C 204.630 242.497,204.221 243.004,203.809 243.712 M198.733 249.535 C 198.660 249.719,197.808 250.439,196.840 251.135 C 195.872 251.831,195.213 252.400,195.375 252.400 C 195.856 252.400,199.200 249.893,199.200 249.532 C 199.200 249.102,198.905 249.104,198.733 249.535 M191.600 253.976 C 191.270 254.157,190.370 254.585,189.600 254.927 C 188.830 255.269,188.504 255.560,188.876 255.574 C 189.248 255.588,189.664 255.420,189.800 255.200 C 189.936 254.980,190.362 254.800,190.747 254.800 C 191.132 254.800,191.796 254.536,192.224 254.213 C 193.048 253.589,192.609 253.423,191.600 253.976 M184.400 256.400 L 183.400 256.720 184.476 256.760 C 185.068 256.782,185.664 256.620,185.800 256.400 C 186.081 255.945,185.820 255.945,184.400 256.400 M206.312 275.837 C 205.810 276.425,205.214 277.107,204.987 277.353 C 204.760 277.599,204.138 278.430,203.606 279.200 C 203.074 279.970,202.455 280.725,202.231 280.878 C 202.007 281.031,201.928 281.261,202.055 281.389 C 202.183 281.516,203.307 280.266,204.553 278.610 C 206.902 275.489,207.415 275.116,207.724 276.300 C 207.866 276.841,207.918 276.800,207.954 276.124 C 208.025 274.777,207.320 274.654,206.312 275.837 M208.172 279.800 C 208.267 280.460,208.519 281.630,208.732 282.400 L 209.118 283.800 209.129 282.600 C 209.134 281.940,208.883 280.770,208.569 280.000 C 208.014 278.638,208.004 278.632,208.172 279.800 M88.028 282.200 C 88.028 282.420,88.286 283.050,88.600 283.600 C 88.914 284.150,89.172 284.420,89.172 284.200 C 89.172 283.980,88.914 283.350,88.600 282.800 C 88.286 282.250,88.028 281.980,88.028 282.200 M199.103 285.100 C 197.873 286.805,196.280 289.010,195.563 290.000 C 193.252 293.193,195.044 291.123,198.161 287.000 C 199.825 284.800,201.376 282.775,201.608 282.500 C 201.841 282.225,201.876 282.000,201.686 282.000 C 201.496 282.000,200.334 283.395,199.103 285.100 M209.220 284.200 C 209.196 285.353,211.864 291.470,212.230 291.103 C 212.326 291.007,211.954 290.080,211.402 289.043 C 210.851 288.006,210.394 286.852,210.386 286.479 C 210.371 285.751,209.234 283.530,209.220 284.200 M89.200 284.969 C 89.200 286.808,96.201 293.993,99.900 295.952 C 101.548 296.824,100.830 296.172,98.293 294.492 C 95.340 292.537,91.929 289.057,90.753 286.800 C 89.999 285.352,89.200 284.411,89.200 284.969 M212.823 292.200 C 213.738 293.571,216.145 296.030,217.400 296.876 C 218.075 297.331,217.865 297.046,216.918 296.224 C 215.993 295.421,214.573 294.007,213.763 293.082 C 212.952 292.157,212.529 291.760,212.823 292.200 M193.544 292.700 C 192.275 294.232,191.819 294.942,192.281 294.665 C 192.793 294.358,194.569 292.000,194.289 292.000 C 194.198 292.000,193.863 292.315,193.544 292.700 M189.832 297.407 L 188.263 299.596 150.432 299.700 L 112.600 299.804 150.477 299.902 L 188.353 300.000 190.200 297.600 C 191.216 296.280,191.901 295.204,191.723 295.209 C 191.546 295.213,190.694 296.202,189.832 297.407 M102.056 297.006 C 103.456 297.766,106.831 298.903,107.047 298.686 C 107.141 298.592,106.224 298.203,105.010 297.821 C 103.795 297.439,102.701 296.963,102.577 296.763 C 102.454 296.563,102.048 296.407,101.676 296.416 C 101.206 296.427,101.322 296.607,102.056 297.006 M219.600 298.200 C 220.915 298.952,221.564 298.960,220.576 298.213 C 220.149 297.890,219.530 297.626,219.200 297.627 C 218.852 297.628,219.020 297.868,219.600 298.200 M108.600 299.200 C 109.040 299.389,110.030 299.535,110.800 299.525 L 112.200 299.505 111.000 299.200 C 109.203 298.743,107.536 298.743,108.600 299.200 M222.600 299.200 C 223.796 299.714,224.795 299.714,224.000 299.200 C 223.670 298.987,223.040 298.822,222.600 298.834 L 221.800 298.856 222.600 299.200 " stroke="none" fill="#a49ce4" fill-rule="evenodd"></path></g></svg>