<?xml version="1.0" encoding="UTF-8"?>
<svg width="342px" height="109px" viewBox="0 0 342 109" version="1.1" xmlns="http://www.w3.org/2000/svg" xmlns:xlink="http://www.w3.org/1999/xlink">
    <g id="Page-1" stroke="none" stroke-width="1" fill="none" fill-rule="evenodd">
        <g id="webtrekk">
            <g id="Group">
                <g id="Shape">
                    <g transform="translate(0.000000, 28.000000)" fill="#0D1914">
                        <polygon points="1.4 28.3 12.8 28.3 11.4 62.7 11.6 62.7 27.8 16.6 39.2 16.6 36.9 62.7 37.1 62.7 58.5 0.3 70 0.3 41 78.9 27.7 78.9 30.1 33.7 30 33.7 14.3 78.9 0.9 78.9"></polygon>
                        <path d="M71.4,57.2 L70.6,61 C70,63.8 69.9,66.3 70.4,68.4 C70.8,70.7 72.1,71.8 74.2,71.9 C77.9,71.9 80.7,69 82.4,63.1 L93.2,63.1 C90.6,74.3 83.8,80 72.8,80.1 C68.6,80 65.5,79.3 63.4,77.8 C61.3,76.3 59.9,74.3 59.2,72 C58.6,69.5 58.5,66.8 58.8,63.9 C59.1,60.9 59.6,58 60.2,55.1 C60.9,51.9 61.7,48.9 62.8,45.9 C63.8,43 65.2,40.4 66.9,38.1 C68.6,35.8 70.8,34 73.5,32.7 C76.2,31.4 79.4,30.8 83.3,30.8 C90,30.9 94,33 95.4,37.3 C96.8,41.5 96.6,47.3 95,54.6 L94.4,57.3 L71.4,57.3 L71.4,57.2 Z M85.1,50.1 C85.9,46.5 86,43.7 85.7,41.8 C85.3,39.9 83.9,38.9 81.5,38.9 C79.2,39 77.3,39.9 76,41.8 C74.7,43.7 73.8,45.9 73.4,48.2 L73,50 L85.1,50 L85.1,50.1 Z"></path>
                        <path d="M114.1,16.6 L125.5,16.6 L121.3,36.3 L121.5,36.3 C124.6,32.6 128.2,30.7 132.5,30.7 C137.3,30.6 140.4,32.6 141.9,36.5 C143.4,40.5 143.2,46.8 141.4,55.4 C138,72.1 131.7,80.3 122.4,80.1 C117.9,80.2 114.9,78.1 113.4,73.9 L113.2,73.9 L112.2,78.9 L101,78.9 L114.1,16.6 Z M117.3,55.4 C116.2,60.5 115.8,64.3 116.1,67 C116.4,69.6 117.8,70.9 120.4,70.9 C122.9,70.9 124.9,69.6 126.3,67 C127.6,64.3 128.8,60.5 129.9,55.4 C131,50.3 131.4,46.4 131.2,43.8 C131.1,42.5 130.6,41.5 129.9,40.8 C129.1,40.2 128.1,39.9 126.9,39.9 C125.6,39.9 124.5,40.2 123.6,40.8 C122.7,41.5 121.8,42.5 121,43.8 C119.5,46.4 118.3,50.3 117.3,55.4 Z"></path>
                        <path d="M161.6,18.5 L173.1,18.5 L170.2,31.9 L177.2,31.9 L175.5,40.1 L168.5,40.1 L163.1,65.5 C162.7,67.3 162.8,68.6 163.2,69.3 C163.6,70.2 164.6,70.6 166.3,70.6 C167.3,70.6 168.2,70.5 169,70.4 L167.3,78.8 C164.7,79.1 162.1,79.2 159.5,79.3 C155.1,79.3 152.4,78.4 151.4,76.7 C150.3,74.8 150.3,71.6 151.4,67 L157.1,40.1 L151,40.1 L152.7,31.9 L158.8,31.9 L161.6,18.5 Z"></path>
                        <path d="M187.3,31.9 L198.3,31.9 L196.9,38.2 L197.1,38.2 C200.5,33.3 204.6,30.8 209.6,30.7 C210.3,30.7 211,30.8 211.7,30.9 L209.3,42.4 C208.1,42.3 206.9,42.2 205.6,42.2 C203.4,42.2 201.3,42.8 199.2,44 C197,45.3 195.6,47.5 194.8,50.7 L188.8,78.9 L177.3,78.9 L187.3,31.9 Z"></path>
                        <path d="M220.9,57.2 L220.1,61 C219.5,63.8 219.4,66.3 219.9,68.4 C220.3,70.7 221.6,71.8 223.7,71.9 C227.5,71.9 230.2,69 231.9,63.1 L242.7,63.1 C240.1,74.3 233.3,80 222.3,80.1 C218.1,80 215,79.3 212.9,77.8 C210.8,76.3 209.4,74.3 208.7,72 C208.1,69.5 208,66.8 208.3,63.9 C208.6,60.9 209.1,58 209.7,55.1 C210.4,51.9 211.2,48.9 212.2,45.9 C213.2,43 214.6,40.4 216.3,38.1 C218,35.8 220.2,34 222.9,32.7 C225.6,31.4 228.8,30.8 232.7,30.8 C239.4,30.9 243.4,33 244.8,37.3 C246.2,41.5 246,47.3 244.4,54.6 L243.8,57.3 L220.9,57.3 L220.9,57.2 Z M234.6,50.1 C235.4,46.5 235.6,43.7 235.2,41.8 C234.8,39.9 233.4,38.9 231,38.9 C228.7,39 226.8,39.9 225.5,41.8 C224.2,43.7 223.3,45.9 222.9,48.2 L222.5,50 L234.6,50 L234.6,50.1 Z"></path>
                        <polygon points="273.7 16.6 266.7 49.5 266.9 49.5 282.8 31.9 296.1 31.9 278.7 50.4 288.2 78.9 274.9 78.9 268.9 59.7 263.4 65.3 260.5 79 249 79 262.2 16.6"></polygon>
                        <polygon points="319.1 16.6 312.2 49.5 312.4 49.5 328.3 31.9 341.6 31.9 324 50.4 333.5 78.9 320.2 78.9 314.2 59.7 308.7 65.3 305.8 79 294.4 79 307.6 16.6"></polygon>
                    </g>
                    <polygon fill="#8FBC13" points="82.9 14.2 74.3 0.4 55.1 14.2 63.9 14.2 60.4 22.9 71.9 22.9 75.6 14.2"></polygon>
                </g>
            </g>
        </g>
    </g>
</svg>
