<?xml version="1.0" encoding="UTF-8"?>
<!-- Generator: Adobe Illustrator 18.1.1, SVG Export Plug-In . SVG Version: 6.00 Build 0)  -->
<svg version="1.1" id="Layer_1" xmlns="http://www.w3.org/2000/svg" xmlns:xlink="http://www.w3.org/1999/xlink" x="0px" y="0px" viewBox="0 0 288 50.4" enable-background="new 0 0 288 50.4" xml:space="preserve">
<g>
	<path fill="#565859" d="M30.8,47L26,33c-0.2-0.6-0.4-1.2-0.5-1.8c-0.2,0.6-0.4,1.3-0.6,1.8l-5.5,14H19h-5L4.1,20.7H0.6v-0.4v-3.7   v-0.4h13.1v0.4v4h-0.4l-3.1,0l6.3,18.2c0.2,0.6,0.4,1.2,0.5,1.8c0.2-0.6,0.4-1.3,0.6-1.8l5.5-14l-1.5-4.1h-3.4v-0.4v-4h13.1v0.4v4   h-0.4l-3.5,0l6.2,18.2c0.2,0.5,0.4,1.2,0.5,1.7c0.2-0.6,0.3-1.2,0.5-1.7L41,20.7h-3.8v-0.4v-4h12.7v0.4v4h-0.4h-3.2L36.3,47H30.8z"/>
	<path fill="#565859" d="M72.6,28c-0.2-4.4-2.9-8-7.6-8c-4.8,0-8,3.4-8.5,8H72.6z M72.9,28.4V28V28.4z M50.7,31.7   c0-8.9,4.9-16.1,14.3-16.1c12.2,0,13.3,11.1,13.3,16.5v0.4H56.5c0.3,5.9,2.8,10.5,11,10.6c3.2,0,6.4-1,8.8-2.2l0.6-0.3l0,0.7   l-0.2,4.4l-0.2,0.1c-2.3,1.1-7,2.1-10,2.1C56.8,47.7,50.7,42.4,50.7,31.7"/>
	<path fill="#565859" d="M94.1,43c7.6,0,10.6-6.1,10.6-12.4c0-7.3-3.5-10.2-8-10.3c-4.1,0-8.2,2.3-8.4,10.3l-0.2,11.1   C90.6,42.6,92,43,94.1,43 M82.8,45.3l-0.3-0.1L82.8,6h-5.1V5.6v-4h10.7l-0.1,16.1c0,0.8-0.1,2.1-0.2,3.3c1.9-3.2,5.6-5.4,10-5.4   c8.5,0,12.4,6.8,12.5,14.8c0,7.2-3.8,17.3-16.5,17.3C88.9,47.7,87.1,46.8,82.8,45.3"/>
	<path fill="#565859" d="M154.6,15.8c0.5,0,2.7,0.1,3.3,0.6l0.1,0.1l-0.5,5l-0.5-0.2c-0.8-0.3-2-0.4-3.1-0.4c-5.8,0-8.5,5.8-8.6,11   L145,42.6h5.1V43v4.1h-14.8v-0.4v-4h0.4h3.9l0.2-21.9h-17.3c-0.1,4.9-0.2,9.8-0.2,14.7c0,4.4,0,7.6,4.2,7.6c2.4,0,4.5-0.7,5.8-1.2   l0.6-0.2l0,0.6l-0.2,4l-0.2,0.1c-1.6,0.8-4.4,1.4-6.9,1.4c-8.6,0-8.7-6.4-8.7-10.2c0-3.6,0.2-12.3,0.2-16.8h-4.8v-0.4v-4h0.4h4.5   l0.2-7.3l5.5-0.3l-0.2,7.6h22.8v0.4v1.6c0,1.1-0.1,2.8-0.3,4.5C146.3,19.2,148.7,15.8,154.6,15.8"/>
	<path fill="#565859" d="M179.7,28c-0.2-4.4-3-8-7.6-8c-4.8,0-8,3.4-8.5,8H179.7z M157.8,31.7c0-8.9,4.9-16.1,14.3-16.1   c12.2,0,13.3,11.1,13.3,16.5v0.4h-21.8c0.3,5.9,2.8,10.5,11,10.6c3.2,0,6.4-1,8.8-2.2l0.6-0.3l0,0.7l-0.2,4.4l-0.2,0.1   c-2.3,1.1-6.9,2.1-10,2.1C164,47.7,157.9,42.4,157.8,31.7"/>
	<path fill="#565859" d="M208.4,47v-0.4V43v-0.4h0.4h3.4c0-4.5,0.2-9.3,0.2-14c0-3-0.1-8.3-6.4-8.3c-4.1,0.1-8.5,2.3-8.5,10.3   l-0.1,12h4.4V43v4H188v-0.4v-4h0.4h3.5l0.2-21.9h-4.8v-0.4v-4h10.3v0.4c0,1.2-0.1,2.8-0.2,3.7l-0.1,0.6c2.1-3.4,6.1-5.3,10-5.3   c8.5,0,10.7,5.9,10.7,11.7c0,5-0.2,10.8-0.2,15.4h4.4V43v4H208.4z"/>
	<path fill="#565859" d="M229.1,33c0,5.5,2.5,10.1,8,10.1c6.9,0,8.3-6.4,8.3-12.2v-9.3c-1.1-0.5-2.1-1.2-5.5-1.2   C233.1,20.4,229.2,24.6,229.1,33 M236.2,47.7c-7,0-12.8-5.1-12.8-14.9c0-10,5.7-17.3,16.3-17.3c1.6,0,4.2,0.3,5.8,1.1L245.6,6h-6   V5.6v-4h11.5l-0.2,41h4.5V43v4h-10v-0.4c0-1.5,0.1-2.8,0.2-4C244.1,45.3,241.1,47.7,236.2,47.7L236.2,47.7z"/>
	<path fill="#565859" d="M279.6,25.4h-0.4h-4.7l0-0.4l-0.2-4.1c-1-0.7-3.6-0.9-4.9-0.9c-3,0-6.5,1-6.5,4.2c0,2.9,2.6,3.8,7,4.6   c7.6,1.2,11.1,3.8,11.1,8.9c0,5.6-3.9,10-12.6,10c-3.3,0-8.5-0.8-10.5-1.9l-0.2-0.1l-0.2-8.3h0.4h4.7l0,0.4l0.2,4.2   c1.7,0.8,4.6,1.2,6.4,1.2c3.1,0,6.5-1.3,6.5-4.6c0-2.6-2.8-3.6-6-4.3c-8-1.7-12.3-3.2-12.3-9.4c0-5,3.5-9.4,12.2-9.4   c2.6,0,7.2,0.8,9.6,1.8l0.2,0.1l0.2,7.4L279.6,25.4z"/>
	<path fill="#565859" d="M284.9,18.8h-0.5v0.9h0.4c0.6,0,0.7-0.1,0.7-0.5C285.5,18.9,285.4,18.8,284.9,18.8 M285.5,21.5l-0.8-1.3   h-0.3v1.3h-0.6v-3.1h1.1c0.8,0,1.2,0.3,1.2,0.8c0,0.6-0.3,0.9-0.8,0.9l0.9,1.3H285.5z M284.9,22.1c1.4,0,2.1-0.8,2.1-2.2   c0-1.4-0.7-2.2-2.1-2.2c-1.4,0-2.1,0.8-2.1,2.2C282.8,21.3,283.5,22.1,284.9,22.1 M284.9,17.3c1.7,0,2.7,1,2.7,2.7   c0,1.7-1,2.7-2.7,2.7c-1.7,0-2.7-1-2.7-2.7C282.2,18.3,283.2,17.3,284.9,17.3"/>
</g>
</svg>