<svg xmlns="http://www.w3.org/2000/svg" viewBox="0 0 747.26 205.53"><defs><style>.cls-1{fill:#ee8322;}.cls-2{fill:#231f20;}</style></defs><title>zemanta-logo</title><g id="Layer_2" data-name="Layer 2"><path class="cls-1" d="M199.49,375.28H148v16.33H132.18V359.39h88.27v13.68L150.94,475.39h73.56v15.89H128.87v-14.2Z" transform="translate(-128.87 -359.39)"/><path class="cls-1" d="M322,448.76H262.08v21a5.22,5.22,0,0,0,4.37,6h52.85v15.23H265.47c-13.24,0-19.86-6.4-19.86-19.42V412.13c0-14.71,6.84-22.07,20.74-22.07h34.2c14.12,0,21.18,6.84,21.4,20.74ZM262.38,434h43V412.79a6.69,6.69,0,0,0-7.72-7.36H270.76a7.36,7.36,0,0,0-8.68,8.24Z" transform="translate(-128.87 -359.39)"/><path class="cls-1" d="M399.41,490.91v-85.4H365.65v85.4H348.44v-85.4H336.3V390.28H446.63c13.9,0,20.74,6.4,20.74,19v66.2h11v15.23h-28V410.88a4.71,4.71,0,0,0-4-5.29h-29.8v85.33Z" transform="translate(-128.87 -359.39)"/><path class="cls-1" d="M569.11,475.39h12.14v15.23H517.69c-14.71,0-21.4-6.62-21.4-19.64V452.73c0-12.58,7.36-19,21.4-19h34.42V419a12.21,12.21,0,0,0-13.68-13.9h-20.3v11.92H502V390.28h36.19c20.52,0,30.89,9.49,30.89,28.25Zm-17,0V448.76H519.53a5.22,5.22,0,0,0-6,5.74v14.71a5.59,5.59,0,0,0,4.93,6.18Z" transform="translate(-128.87 -359.39)"/><path class="cls-1" d="M658,490.91v-79a5.81,5.81,0,0,0-5.15-6.4H617.21v85.4H600v-85.4H589V390.28h66.64a17.29,17.29,0,0,1,19.64,19.42v66.2h11v15.23Z" transform="translate(-128.87 -359.39)"/><path class="cls-1" d="M705,405.51H691.8V390.28H705V359.39h17v30.89H746.3v15.23H722v63.11a6.47,6.47,0,0,0,7.36,7.36H741.3a40,40,0,0,0,5.3,0V491.2H726.22Q705,491.2,705,468.69Z" transform="translate(-128.87 -359.39)"/><path class="cls-1" d="M835,475.39h12.14v15.23H783.52c-14.71,0-21.4-6.62-21.4-19.64V452.73c0-12.58,7.36-19,21.4-19h34.42V419a12.21,12.21,0,0,0-13.83-13.9h-20.6v11.92H767.71V390.28H803.9c20.52,0,31.11,9.49,31.11,28Zm-17,0V448.76h-33.1a5.22,5.22,0,0,0-6,5.74v14.71a5.59,5.59,0,0,0,4.93,6.18H818Z" transform="translate(-128.87 -359.39)"/><path class="cls-1" d="M858.33,361.3h-4v14.12h-2.28V361.3H849v2h-2.06v-3.9h11.4Z" transform="translate(-128.87 -359.39)"/><path class="cls-1" d="M868.19,371.38l4.63-12h3.31v16h-2.28v-14h0c0,.74-4.09,11.7-4.09,11.7h-3.14l-4.32-11.7h0v14H860V361.3H858.7v-1.91h4.71Z" transform="translate(-128.87 -359.39)"/><path class="cls-2" d="M365.33,554l-.55-3.81h-.18a11.4,11.4,0,0,1-3.73,3.29,10,10,0,0,1-4.52,1,7.82,7.82,0,0,1-5.51-1.82,6.48,6.48,0,0,1-2-5,6.2,6.2,0,0,1,2.93-5.46q2.93-1.95,8.48-2.06l4.58-.13v-1.59a8.19,8.19,0,0,0-1.39-5.18,5.41,5.41,0,0,0-4.49-1.75,15,15,0,0,0-6.92,1.86l-.82-1.9a18.34,18.34,0,0,1,7.83-1.86q4,0,5.92,2.06t2,6.41v16Zm-8.85-1.55a7.65,7.65,0,0,0,8.3-8.31V541.8l-4.2.18q-5.07.24-7.22,1.58a4.56,4.56,0,0,0-2.16,4.17,4.48,4.48,0,0,0,1.38,3.51A5.62,5.62,0,0,0,356.48,552.48Z" transform="translate(-128.87 -359.39)"/><path class="cls-2" d="M391.49,554V538.44q0-3.63-1.52-5.28a6.16,6.16,0,0,0-4.73-1.65q-4.31,0-6.32,2.18t-2,7.07V554h-2.19V530h1.86l.42,3.3h.13q2.34-3.76,8.34-3.76,8.18,0,8.18,8.78V554Z" transform="translate(-128.87 -359.39)"/><path class="cls-2" d="M672.17,523.27q-6.08,0-9.58,3.89t-3.5,10.66q0,6.92,3.3,10.75t9.42,3.83a25.42,25.42,0,0,0,7.47-1v2a24.44,24.44,0,0,1-8,1.13q-6.81,0-10.73-4.4t-3.91-12.3a19.29,19.29,0,0,1,1.87-8.69,13.51,13.51,0,0,1,5.37-5.81,15.88,15.88,0,0,1,8.15-2,19.57,19.57,0,0,1,8.47,1.77l-.91,2A16.39,16.39,0,0,0,672.17,523.27Z" transform="translate(-128.87 -359.39)"/><path class="cls-2" d="M705.84,542q0,5.88-2.86,9.19a9.85,9.85,0,0,1-7.87,3.31,10.19,10.19,0,0,1-5.57-1.53,9.76,9.76,0,0,1-3.69-4.38,15.93,15.93,0,0,1-1.28-6.59q0-5.88,2.86-9.17a9.83,9.83,0,0,1,7.83-3.29,9.65,9.65,0,0,1,7.78,3.33Q705.83,536.18,705.84,542Zm-19,0q0,5,2.18,7.73a8.23,8.23,0,0,0,12.32,0q2.18-2.77,2.18-7.73t-2.2-7.72a7.48,7.48,0,0,0-6.18-2.74,7.37,7.37,0,0,0-6.14,2.73Q686.86,537,686.86,542Z" transform="translate(-128.87 -359.39)"/><path class="cls-2" d="M742.53,554V538.26q0-3.52-1.37-5.13a5.21,5.21,0,0,0-4.2-1.62q-3.7,0-5.46,2t-1.77,6.39V554h-2.23V537.6q0-6.08-5.57-6.08-3.78,0-5.51,2.2t-1.72,7V554h-2.19V530h1.82l.47,3.3h.13a6.86,6.86,0,0,1,2.83-2.78,8.42,8.42,0,0,1,4-1q5.68,0,7.3,4.27h.09a8.21,8.21,0,0,1,3.15-3.16,9.09,9.09,0,0,1,4.5-1.11q3.93,0,5.91,2.1t2,6.68V554Z" transform="translate(-128.87 -359.39)"/><path class="cls-2" d="M762.77,554.48q-5.55,0-8.1-4.16h-.15l.07,1.86q.09,1.64.09,3.58v9.16h-2.19V530h1.86l.42,3.43h.13q2.48-3.89,7.92-3.89,4.87,0,7.42,3.2t2.55,9.3q0,5.93-2.69,9.19A9,9,0,0,1,762.77,554.48Zm0-1.95a6.69,6.69,0,0,0,5.72-2.74q2-2.74,2-7.68,0-10.59-7.65-10.59-4.2,0-6.17,2.31t-2,7.53v.71q0,5.64,1.89,8.05T762.72,552.53Z" transform="translate(-128.87 -359.39)"/><path class="cls-2" d="M794,554l-.55-3.81h-.18a11.4,11.4,0,0,1-3.73,3.29,10,10,0,0,1-4.52,1,7.82,7.82,0,0,1-5.51-1.82,6.48,6.48,0,0,1-2-5,6.2,6.2,0,0,1,2.93-5.46q2.93-1.95,8.48-2.06l4.58-.13v-1.59a8.19,8.19,0,0,0-1.39-5.18,5.41,5.41,0,0,0-4.49-1.75,15,15,0,0,0-6.92,1.86l-.82-1.9a18.34,18.34,0,0,1,7.83-1.86q4,0,5.92,2.06t2,6.41v16Zm-8.85-1.55a7.65,7.65,0,0,0,8.3-8.31V541.8l-4.2.18q-5.07.24-7.22,1.58a4.56,4.56,0,0,0-2.16,4.17,4.48,4.48,0,0,0,1.38,3.51A5.62,5.62,0,0,0,785.2,552.48Z" transform="translate(-128.87 -359.39)"/><path class="cls-2" d="M820.21,554V538.44q0-3.63-1.52-5.28a6.16,6.16,0,0,0-4.73-1.65q-4.31,0-6.32,2.18t-2,7.07V554h-2.19V530h1.86l.42,3.3h.13q2.34-3.76,8.34-3.76,8.18,0,8.18,8.78V554Z" transform="translate(-128.87 -359.39)"/><path class="cls-2" d="M826.14,530h2.26l5.09,13.49q2.32,6.22,2.94,8.38h.13q.93-2.85,3-8.51L844.67,530h2.26l-10.77,27.94a21.81,21.81,0,0,1-2.19,4.6,5.87,5.87,0,0,1-2.07,1.79,6.33,6.33,0,0,1-2.87.6,9.88,9.88,0,0,1-2.81-.47v-1.9a10.39,10.39,0,0,0,2.77.35,3.72,3.72,0,0,0,2-.53,5,5,0,0,0,1.56-1.65,21.68,21.68,0,0,0,1.62-3.54q.92-2.42,1.18-3.15Z" transform="translate(-128.87 -359.39)"/><path class="cls-1" d="M453.77,530.48a2.73,2.73,0,0,1,.9-2.29,4,4,0,0,1,2.54-.7,6.48,6.48,0,0,1,1.86.25q.85.26,1.13.37v14.84a8.45,8.45,0,0,0,1.81,5.84q1.81,2,5.53,2t5.53-2a8.45,8.45,0,0,0,1.81-5.84V530.48a2.73,2.73,0,0,1,.9-2.29,3.94,3.94,0,0,1,2.48-.7,6.69,6.69,0,0,1,1.92.25q.85.26,1.13.37v16.26a12.93,12.93,0,0,1-1,5.17,10.56,10.56,0,0,1-2.82,3.87,12.44,12.44,0,0,1-4.38,2.4,19.51,19.51,0,0,1-11.18,0,12.13,12.13,0,0,1-4.35-2.4,11,11,0,0,1-2.82-3.87,12.6,12.6,0,0,1-1-5.17Z" transform="translate(-128.87 -359.39)"/><path class="cls-1" d="M486.4,522.46a2.72,2.72,0,0,1,.9-2.29,3.94,3.94,0,0,1,2.48-.7,6.72,6.72,0,0,1,1.89.25q.87.25,1.16.37v7.39H501a3.65,3.65,0,0,1,2.62.76,3,3,0,0,1,.76,2.23,5.4,5.4,0,0,1-.28,1.78,10.88,10.88,0,0,1-.45,1.16H492.83V546a6.17,6.17,0,0,0,.4,2.4,3.74,3.74,0,0,0,1.1,1.49,4.14,4.14,0,0,0,1.64.79,8.3,8.3,0,0,0,1.95.22,8.91,8.91,0,0,0,3-.51,8.64,8.64,0,0,0,2-1l2.6,4.29q-.45.34-1.27.85a11.63,11.63,0,0,1-2,1,17.79,17.79,0,0,1-2.65.76,15.62,15.62,0,0,1-3.22.31q-5,0-7.51-2.57a9.16,9.16,0,0,1-2.54-6.74Z" transform="translate(-128.87 -359.39)"/><path class="cls-1" d="M508.25,517.21a2.74,2.74,0,0,1,.9-2.26,3.93,3.93,0,0,1,2.54-.73,6.47,6.47,0,0,1,1.86.25c.57.17.94.29,1.13.37V531a11.45,11.45,0,0,1,3.89-3.07,12.34,12.34,0,0,1,5.7-1.27,14.67,14.67,0,0,1,5.73,1.1,13.7,13.7,0,0,1,4.57,3.1,14.43,14.43,0,0,1,3,4.74,15.94,15.94,0,0,1,1.1,6,15.7,15.7,0,0,1-1.13,6,13.85,13.85,0,0,1-3.16,4.74,14.77,14.77,0,0,1-4.83,3.1,16.22,16.22,0,0,1-6.12,1.13,17.8,17.8,0,0,1-6.12-1,13,13,0,0,1-4.83-3,13.85,13.85,0,0,1-3.16-5.08,20.57,20.57,0,0,1-1.13-7.17Zm15.13,33.59a8.69,8.69,0,0,0,3.53-.71,8.49,8.49,0,0,0,2.77-1.92,8.34,8.34,0,0,0,1.78-2.88,10.36,10.36,0,0,0,.62-3.64,10.62,10.62,0,0,0-.62-3.67,8.29,8.29,0,0,0-1.78-2.91,8.52,8.52,0,0,0-2.77-1.92,8.69,8.69,0,0,0-3.53-.71,8.83,8.83,0,0,0-3.58.71,8,8,0,0,0-2.74,1.95,9.27,9.27,0,0,0-1.78,2.94,10,10,0,0,0-.65,3.61,10.34,10.34,0,0,0,.65,3.72,8.12,8.12,0,0,0,4.57,4.74,9,9,0,0,0,3.53.68" transform="translate(-128.87 -359.39)"/><path class="cls-1" d="M542.51,537.59q0-5.19,3.19-8t8.83-2.85a14.43,14.43,0,0,1,5.79,1,3.21,3.21,0,0,1,2.23,3,3.59,3.59,0,0,1-.53,1.86,3.81,3.81,0,0,1-.87,1.13,15.47,15.47,0,0,0-2.37-.85,12,12,0,0,0-3.22-.4q-6.6,0-6.6,7v16.37h-6.44Z" transform="translate(-128.87 -359.39)"/><path class="cls-1" d="M590.37,555.71c-.37.07-1,.16-1.78.25s-1.76.19-2.85.28-2.32.18-3.67.26-2.77.11-4.23.11a28.05,28.05,0,0,1-7.2-.76,12.3,12.3,0,0,1-4.4-2,6.55,6.55,0,0,1-2.2-2.94,10.1,10.1,0,0,1-.59-3.41,10.81,10.81,0,0,1,.71-4.06,6.72,6.72,0,0,1,2.31-2.93,11.26,11.26,0,0,1,4.2-1.78,28.81,28.81,0,0,1,6.32-.59c1.43,0,2.78,0,4.06.14s2.24.18,2.88.25a7.33,7.33,0,0,0-.65-3.27,5.09,5.09,0,0,0-1.78-2,7.26,7.26,0,0,0-2.71-1,20,20,0,0,0-3.5-.28,15,15,0,0,0-5.17.73,10.44,10.44,0,0,0-2.57,1.24,6.85,6.85,0,0,1-.93-1.07,3.11,3.11,0,0,1-.59-1.92,3.16,3.16,0,0,1,.42-1.55A3.68,3.68,0,0,1,568,528a9.81,9.81,0,0,1,2.88-.93,25.52,25.52,0,0,1,4.57-.34,26.4,26.4,0,0,1,6.07.65,13.29,13.29,0,0,1,4.71,2.06,9.5,9.5,0,0,1,3.08,3.73,12.89,12.89,0,0,1,1.1,5.59ZM584,543.17q-.56-.11-2.12-.34a35.37,35.37,0,0,0-4.66-.23q-3.84,0-5.59,1.16a4.05,4.05,0,0,0-1.75,3.64,4.6,4.6,0,0,0,.37,1.86,3.29,3.29,0,0,0,1.27,1.44,7,7,0,0,0,2.46.9,20.25,20.25,0,0,0,3.87.31,33.32,33.32,0,0,0,4.12-.2c1-.13,1.69-.23,2-.31Z" transform="translate(-128.87 -359.39)"/><path class="cls-1" d="M599.35,514.78a3.86,3.86,0,1,1-2.77,1.13,3.76,3.76,0,0,1,2.77-1.13m-3.22,15.69a2.73,2.73,0,0,1,.9-2.29,4.05,4.05,0,0,1,2.54-.7,6.48,6.48,0,0,1,1.86.25q.85.26,1.13.37v27.71h-6.44Z" transform="translate(-128.87 -359.39)"/><path class="cls-1" d="M608.33,538.72a11.76,11.76,0,0,1,1-5.05,11,11,0,0,1,2.88-3.78,12.79,12.79,0,0,1,4.35-2.37,17.67,17.67,0,0,1,5.5-.82,18,18,0,0,1,5.53.82,12.73,12.73,0,0,1,4.38,2.37,10.73,10.73,0,0,1,2.85,3.78,12.05,12.05,0,0,1,1,5.05v17.1h-6.44V540.35a8.29,8.29,0,0,0-1.86-5.84,8.52,8.52,0,0,0-11,0,8.37,8.37,0,0,0-1.83,5.84v15.47h-6.44Z" transform="translate(-128.87 -359.39)"/><path class="cls-1" d="M448.69,528.39a19.75,19.75,0,0,0-4.38-6.46,20.34,20.34,0,0,0-6.55-4.29,22.2,22.2,0,0,0-16.31,0,20.32,20.32,0,0,0-6.55,4.29,19.72,19.72,0,0,0-4.38,6.46,21.41,21.41,0,0,0,0,16.15,19.71,19.71,0,0,0,4.38,6.46,20.38,20.38,0,0,0,6.55,4.29,22.22,22.22,0,0,0,16.31,0,20.4,20.4,0,0,0,6.55-4.29,19.73,19.73,0,0,0,4.38-6.46,21.41,21.41,0,0,0,0-16.15M417.29,535c2.3-.76,5.36-1.73,5.36-1.73,6.72-2.14,7.62-4.66,7.62-4.66s1.41,2.53,6.29,4.19c0,0,2.69.89,5.2,1.79.12.25.25.5.37.76a12.87,12.87,0,0,1,.9,3.28h-3.45l0-.06a4.69,4.69,0,0,0-1-1.54,4.84,4.84,0,0,0-1.56-1,5.3,5.3,0,0,0-3.88,0,4.84,4.84,0,0,0-1.56,1,4.68,4.68,0,0,0-1,1.54,4.36,4.36,0,0,0-.2.57H429a4.36,4.36,0,0,0-.2-.57,4.63,4.63,0,0,0-1-1.54,4.84,4.84,0,0,0-1.56-1,5.3,5.3,0,0,0-3.88,0,4.84,4.84,0,0,0-1.56,1,4.68,4.68,0,0,0-1,1.54l0,.06h-3.45a12.87,12.87,0,0,1,.9-3.28c.05-.12.12-.23.17-.35m20.64,5.49a2.88,2.88,0,0,1-.22,1.14,2.79,2.79,0,0,1-.62.91,2.89,2.89,0,0,1-.93.61,3.15,3.15,0,0,1-2.3,0,2.87,2.87,0,0,1-.93-.61,2.82,2.82,0,0,1-.62-.91,3,3,0,0,1,0-2.28,2.82,2.82,0,0,1,.62-.91,2.9,2.9,0,0,1,.93-.6,3.12,3.12,0,0,1,2.3,0,2.92,2.92,0,0,1,.93.6,2.79,2.79,0,0,1,.62.91,2.9,2.9,0,0,1,.22,1.14m-10.78,0a2.91,2.91,0,0,1-.22,1.14,2.82,2.82,0,0,1-.62.91,2.89,2.89,0,0,1-.93.61,3.15,3.15,0,0,1-2.3,0,2.87,2.87,0,0,1-.93-.61,2.79,2.79,0,0,1-.62-.91,3,3,0,0,1,0-2.28,2.79,2.79,0,0,1,.62-.91,2.9,2.9,0,0,1,.93-.6,3.12,3.12,0,0,1,2.3,0,2.92,2.92,0,0,1,.93.6,2.82,2.82,0,0,1,.62.91,2.93,2.93,0,0,1,.22,1.14m12.1,9.67a13.4,13.4,0,0,1-4.29,2.81,14.55,14.55,0,0,1-10.69,0,13.4,13.4,0,0,1-4.29-2.81,12.89,12.89,0,0,1-2.86-4.23,13.33,13.33,0,0,1-1-5.1h3.24a4.72,4.72,0,0,0,.36,1.58,4.67,4.67,0,0,0,1,1.54,4.8,4.8,0,0,0,1.56,1,5.23,5.23,0,0,0,3.88,0,4.8,4.8,0,0,0,1.56-1,4.76,4.76,0,0,0,1.37-2.78h1a4.76,4.76,0,0,0,1.37,2.78,4.8,4.8,0,0,0,1.56,1,5.23,5.23,0,0,0,3.88,0,4.8,4.8,0,0,0,1.56-1,4.68,4.68,0,0,0,1-1.54,4.81,4.81,0,0,0,.36-1.58h3.24a13.33,13.33,0,0,1-1,5.1,12.87,12.87,0,0,1-2.87,4.23" transform="translate(-128.87 -359.39)"/></g></svg>