<?xml version="1.0" encoding="utf-8"?>
<!-- Generator: Adobe Illustrator 16.0.4, SVG Export Plug-In . SVG Version: 6.00 Build 0)  -->
<!DOCTYPE svg PUBLIC "-//W3C//DTD SVG 1.1//EN" "http://www.w3.org/Graphics/SVG/1.1/DTD/svg11.dtd">
<svg version="1.1" id="Layer_1" xmlns="http://www.w3.org/2000/svg" xmlns:xlink="http://www.w3.org/1999/xlink" x="0px" y="0px"
	 width="400px" height="150px" viewBox="0 0 400 150" style="enable-background:new 0 0 400 150;" xml:space="preserve">
<style type="text/css">
<![CDATA[
	.st0{fill-rule:evenodd;clip-rule:evenodd;}
	.st1{fill-rule:evenodd;clip-rule:evenodd;fill:#FF9900;}
]]>
</style>
<g>
	<g>
		<path class="st1" d="M242,124.6c-20.3,15-49.6,22.9-74.9,22.9c-35.5,0-67.4-13.1-91.5-34.9c-1.9-1.7-0.2-4.1,2.1-2.7
			c26.1,15.2,58.3,24.3,91.6,24.3c22.5,0,47.1-4.7,69.9-14.3C242.5,118.4,245.3,122.1,242,124.6z"/>
		<path class="st1" d="M250.4,114.9c-2.6-3.3-17.1-1.6-23.7-0.8c-2,0.2-2.3-1.5-0.5-2.7c11.6-8.1,30.6-5.8,32.8-3.1
			c2.2,2.7-0.6,21.8-11.5,30.9c-1.7,1.4-3.3,0.7-2.5-1.2C247.5,131.9,253,118.3,250.4,114.9z"/>
	</g>
	<g>
		<path class="st0" d="M227.2,53.9v-7.9c0-1.2,0.9-2,2-2l35.5,0c1.1,0,2,0.8,2,2v6.8c0,1.1-1,2.6-2.7,5l-18.4,26.2
			c6.8-0.2,14,0.9,20.2,4.3c1.4,0.8,1.8,1.9,1.9,3.1v8.5c0,1.2-1.3,2.5-2.6,1.8c-10.9-5.7-25.4-6.3-37.5,0.1
			c-1.2,0.7-2.5-0.7-2.5-1.8v-8c0-1.3,0-3.5,1.3-5.4l21.3-30.5h-18.5C228.1,55.9,227.2,55,227.2,53.9z"/>
		<path class="st0" d="M97.8,103.3H87c-1-0.1-1.8-0.8-1.9-1.8l0-55.4c0-1.1,0.9-2,2.1-2l10.1,0c1,0.1,1.9,0.8,2,1.9v7.2h0.2
			c2.6-7,7.6-10.3,14.2-10.3c6.8,0,11,3.3,14,10.3c2.6-7,8.6-10.3,14.9-10.3c4.5,0,9.5,1.9,12.5,6.1c3.4,4.7,2.7,11.4,2.7,17.4l0,35
			c0,1.1-0.9,2-2.1,2h-10.8c-1.1-0.1-1.9-0.9-1.9-2l0-29.4c0-2.3,0.2-8.2-0.3-10.4c-0.8-3.7-3.2-4.8-6.3-4.8c-2.6,0-5.3,1.8-6.5,4.5
			c-1.1,2.8-1,7.5-1,10.6v29.4c0,1.1-0.9,2-2.1,2h-10.8c-1.1-0.1-1.9-0.9-1.9-2l0-29.4c0-6.2,1-15.3-6.6-15.3
			c-7.8,0-7.5,8.9-7.5,15.3l0,29.4C99.9,102.4,99,103.3,97.8,103.3z"/>
		<path class="st0" d="M297.3,42.9c16,0,24.7,13.8,24.7,31.2c0,16.9-9.6,30.3-24.7,30.3c-15.7,0-24.3-13.8-24.3-30.9
			C273,56.3,281.7,42.9,297.3,42.9z M297.4,54.2c-8,0-8.5,10.8-8.5,17.6c0,6.8-0.1,21.2,8.4,21.2c8.4,0,8.8-11.7,8.8-18.8
			c0-4.7-0.2-10.3-1.6-14.7C303.2,55.7,300.8,54.2,297.4,54.2z"/>
		<path class="st0" d="M342.7,103.3H332c-1.1-0.1-1.9-0.9-1.9-2l0-55.4c0.1-1,1-1.8,2.1-1.8l10,0c0.9,0,1.7,0.7,1.9,1.5v8.5h0.2
			c3-7.6,7.3-11.2,14.7-11.2c4.8,0,9.6,1.7,12.6,6.5c2.8,4.4,2.8,11.9,2.8,17.2v34.9c-0.1,1-1,1.7-2.1,1.7h-10.8
			c-1-0.1-1.8-0.8-1.9-1.7V71.5c0-6.1,0.7-14.9-6.8-14.9c-2.6,0-5,1.8-6.2,4.4c-1.5,3.4-1.7,6.8-1.7,10.5v29.8
			C344.8,102.4,343.9,103.3,342.7,103.3z"/>
		<path class="st0" d="M198.9,76.8c0,4.2,0.1,7.7-2,11.5c-1.7,3-4.4,4.9-7.5,4.9c-4.1,0-6.6-3.2-6.6-7.8c0-9.2,8.2-10.9,16.1-10.9
			V76.8z M209.8,103.2c-0.7,0.6-1.7,0.7-2.5,0.3c-3.6-3-4.2-4.4-6.2-7.2c-5.9,6-10.1,7.8-17.8,7.8c-9.1,0-16.2-5.6-16.2-16.8
			c0-8.8,4.7-14.7,11.5-17.6c5.9-2.6,14-3,20.3-3.7v-1.4c0-2.6,0.2-5.6-1.3-7.8c-1.3-2-3.8-2.8-6.1-2.8c-4.1,0-7.8,2.1-8.7,6.5
			c-0.2,1-0.9,1.9-1.9,2l-10.5-1.1c-0.9-0.2-1.9-0.9-1.6-2.3c2.4-12.7,13.9-16.5,24.1-16.5c5.3,0,12.1,1.4,16.3,5.4
			c5.3,4.9,4.7,11.4,4.7,18.6v16.8c0,5.1,2.1,7.3,4.1,10c0.7,1,0.8,2.2,0,2.9C215.9,97.9,212,101.3,209.8,103.2L209.8,103.2z"/>
		<path class="st0" d="M57.4,76.8c0,4.2,0.1,7.7-2,11.5c-1.7,3-4.4,4.9-7.5,4.9c-4.1,0-6.6-3.2-6.6-7.8c0-9.2,8.2-10.9,16.1-10.9
			V76.8z M68.3,103.2c-0.7,0.6-1.7,0.7-2.6,0.3c-3.6-3-4.2-4.4-6.2-7.2c-5.9,6-10.1,7.8-17.8,7.8c-9.1,0-16.2-5.6-16.2-16.8
			c0-8.8,4.7-14.7,11.5-17.6c5.9-2.6,14-3,20.3-3.7v-1.4c0-2.6,0.2-5.6-1.3-7.8c-1.3-2-3.8-2.8-6.1-2.8c-4.1,0-7.8,2.1-8.7,6.5
			c-0.2,1-0.9,1.9-1.9,2l-10.5-1.1c-0.9-0.2-1.9-0.9-1.6-2.3c2.4-12.7,13.9-16.5,24.1-16.5c5.3,0,12.1,1.4,16.3,5.4
			c5.2,4.9,4.7,11.4,4.7,18.6v16.8c0,5.1,2.1,7.3,4.1,10c0.7,1,0.8,2.2,0,2.9C74.4,97.9,70.5,101.3,68.3,103.2L68.3,103.2z"/>
	</g>
</g>
</svg>
