<?xml version="1.0" encoding="utf-8"?>
<!-- Generator: Adobe Illustrator 22.1.0, SVG Export Plug-In . SVG Version: 6.00 Build 0)  -->
<svg version="1.1" id="Calque_1" xmlns="http://www.w3.org/2000/svg" xmlns:xlink="http://www.w3.org/1999/xlink" x="0px" y="0px"
	 viewBox="0 0 838.1 220.1" style="enable-background:new 0 0 838.1 220.1;" xml:space="preserve">
<style type="text/css">
	.st0{fill:#B53458;}
</style>
<g>
	<g>
		<path class="st0" d="M177.6,78.6l-41.7,54.1c1.6,2.6,2.5,5.6,2.5,8.8c0,9.2-7.5,16.7-16.7,16.7s-16.7-7.5-16.7-16.7
			c0-3.9,1.3-7.4,3.5-10.2L78.9,97.2c-2.1,0.9-4.4,1.5-6.8,1.5c-3.1,0-6.1-0.9-8.6-2.4l-42.8,50.6c2.2,2.8,3.5,6.3,3.5,10.1
			c0,7.2-4.6,13.3-11,15.7l82.1,47.4l95.3-55v-87c-2.1,1-4.5,1.5-7,1.5C181.5,79.7,179.5,79.3,177.6,78.6z"/>
		<path class="st0" d="M13.4,141.4l43.8-51.8c-1.2-2.3-1.9-4.9-1.9-7.7c0-9.2,7.5-16.7,16.7-16.7s16.7,7.5,16.7,16.7
			c0,3.5-1.1,6.7-2.9,9.4l30,34.5c1.8-0.7,3.8-1.1,5.9-1.1c2.7,0,5.2,0.6,7.4,1.8l41.2-53.4c-2.2-2.8-3.5-6.3-3.5-10.2
			c0-7,4.4-13,10.5-15.5L95.3,0L0,55v87c2.3-1.1,4.8-1.8,7.4-1.8C9.6,140.3,11.6,140.7,13.4,141.4z"/>
	</g>
	<g>
		<path class="st0" d="M242.2,87.3c4.9-3,15.5-8.7,26.8-8.7c14.8,0,33.3,5.5,33.3,25.3v24h7.4v15.7h-26.3l-2.9-5.5
			c-4.6,6.3-12.2,7.9-16.6,7.9c-11.7,0-24.2-6.3-24.2-20.5c0-13.9,11.7-22.6,25.6-22.6c7.2,0,11.6,3.6,12.2,4.3v-4.3
			c0-5.5-5-6.9-11.7-6.9c-7.3,0-13.6,3.1-18.3,5.6L242.2,87.3z M277.3,121.3c-0.4-0.6-2.1-3.6-7.2-3.6c-4.9,0-7.1,2.7-7.1,6.5
			c0,3.4,2.8,5.8,6.5,5.8s6.8-2.2,7.9-4.1L277.3,121.3L277.3,121.3z"/>
		<path class="st0" d="M319.7,152.6V98.5h-5.2V82.1h28.1l2.1,4.3c2.3-1.7,7.5-5.3,14.9-5.3c19.2,0,29,14.8,29,32.2
			c0,19.5-12.2,31.6-28,31.6c-10.2,0-15.1-4.1-16-4.8v12.4h6.6v16.1h-36.7v-16.1L319.7,152.6L319.7,152.6z M353.4,98.5
			c-4.8,0-9.2,6-8.7,15.7c0,8.3,4.2,14.7,8.8,14.7c5.2,0,8.7-6,8.7-15.4C362.2,106.3,358.8,98.5,353.4,98.5z"/>
		<path class="st0" d="M398.1,152.6V98.5h-5.2V82.1h28.2l2.1,4.3c2.3-1.7,7.5-5.3,14.9-5.3c19.2,0,29,14.8,29,32.2
			c0,19.5-12.2,31.6-28,31.6c-10.2,0-15.1-4.1-16-4.8v12.4h6.6v16.1h-36.8v-16.1L398.1,152.6L398.1,152.6z M431.8,98.5
			c-4.8,0-9.2,6-8.7,15.7c0,8.3,4.2,14.7,8.9,14.7c5.2,0,8.7-6,8.7-15.4C440.6,106.3,437.2,98.5,431.8,98.5z"/>
		<path class="st0" d="M476.8,82.2V70.9l22.6-7.3v18.6h11.7v16h-11.7v21.9c0,4.2-0.9,9.8,3.9,9.8c1.6,0,5.4-1.1,7.7-2.1v15.7
			c-3.7,1.5-12,2.3-14.9,2.3c-18.4,0-19-10.1-19.4-25.8V98.1h-6.6v-16L476.8,82.2L476.8,82.2z"/>
		<path class="st0" d="M547.8,124.8c0.4-5,1.3-16.7,5-28.9l3.9-13.8h22.7l4.7,16c2.9,9.5,4.8,22.4,5.3,26.7h0.3
			c0.4-3.9,1.5-12.9,3.3-19.4l2.1-7.3h-5v-16h30v16h-5l-14.4,45.5h-25.9l-8.5-27.8l-8.8,27.8h-25.4l-13.9-45.5h-5.3v-16H546v16h-4.2
			l2.7,9c1.7,5.9,2.8,14.1,3.1,17.7L547.8,124.8L547.8,124.8z"/>
		<path class="st0" d="M684.8,135.1c-9.1,7.9-18.9,10.7-31.7,10.7c-15.2,0-32.5-9.7-32.5-33.3c0-20.2,14.5-32.1,33.1-32.1
			c14.6,0,25.8,7.5,29.4,17.8c1.5,4.3,2.8,13.8,0.3,20.8h-38.7c0.7,3.3,2.3,10.1,12.7,10.1c4.2,0,10.6-0.4,17.2-5.9L684.8,135.1z
			 M663.5,106.9c-0.1-4.7-1.2-9.8-9.1-9.8c-7.5,0-9.2,6.8-9.5,9.8H663.5z"/>
		<path class="st0" d="M691.1,87.3c4.9-3,15.5-8.7,26.8-8.7c14.8,0,33.3,5.5,33.3,25.3v24h7.4v15.7h-26.3l-3-5.5
			c-4.6,6.3-12.2,7.9-16.6,7.9c-11.7,0-24.2-6.3-24.2-20.5c0-13.9,11.7-22.6,25.6-22.6c7.2,0,11.6,3.6,12.2,4.3v-4.3
			c0-5.5-5-6.9-11.7-6.9c-7.2,0-13.6,3.1-18.3,5.6L691.1,87.3z M726.2,121.3c-0.4-0.6-2.1-3.6-7.2-3.6c-4.9,0-7.1,2.7-7.1,6.5
			c0,3.4,2.8,5.8,6.5,5.8s6.8-2.2,7.9-4.1v-4.6H726.2z"/>
		<path class="st0" d="M765.1,127.6h5V67.5h-5V51.4h28.4V107l14.3-8.5h-8.9V82.3h34.4v16.2h-9.5l-8.4,5.3l16.6,23.7h6.1v16.1h-36.4
			v-16.1h5.2l-9.3-13.3l-4.3,3v10.3h4.6v16.1h-32.8V127.6z"/>
	</g>
</g>
</svg>
