<?xml version="1.0" encoding="UTF-8"?>
<svg width="179px" height="45px" viewBox="0 0 179 45" version="1.1" xmlns="http://www.w3.org/2000/svg" xmlns:xlink="http://www.w3.org/1999/xlink">
    <!-- Generator: Sketch 53 (72520) - https://sketchapp.com -->
    <title>2019sf_Audience-Studio_logo_blue_RGB</title>
    <desc>Created with Sketch.</desc>
    <defs>
        <polygon id="path-1" points="0.155489552 0.00337944664 64.2748925 0.00337944664 64.2748925 44.8114625 0.155489552 44.8114625"></polygon>
        <polygon id="path-3" points="0.0106865672 0.157766798 178.910945 0.157766798 178.910945 44.9763439 0.0106865672 44.9763439"></polygon>
    </defs>
    <g id="Audience-Studio-Header" stroke="none" stroke-width="1" fill="none" fill-rule="evenodd">
        <g id="audience-studio" transform="translate(-18.000000, -12.000000)">
            <g id="2019sf_Audience-Studio_logo_blue_RGB" transform="translate(18.000000, 12.000000)">
                <g id="Group-3" transform="translate(0.000000, 0.177866)">
                    <mask id="mask-2" fill="white">
                        <use xlink:href="#path-1"></use>
                    </mask>
                    <g id="Clip-2"></g>
                    <path d="M26.8378886,4.89166008 C28.9057393,2.74037549 31.7848786,1.40549407 34.9691194,1.40549407 C39.2013562,1.40549407 42.8946338,3.76221344 44.8604279,7.26136364 C46.5701005,6.49867589 48.4616229,6.07428854 50.4516398,6.07428854 C58.0859453,6.07428854 64.2748925,12.308834 64.2748925,19.9997431 C64.2748925,27.69083 58.0859453,33.9253755 50.4516398,33.9253755 C49.519593,33.9253755 48.6090975,33.8318182 47.7285244,33.6544862 C45.9971224,36.7386759 42.6965761,38.8229051 38.9092567,38.8229051 C37.3237264,38.8229051 35.8238667,38.4573913 34.488402,37.8067589 C32.7331333,41.9305731 28.6424935,44.8221344 23.8761065,44.8221344 C18.9116617,44.8221344 14.6804935,41.6854743 13.057204,37.2863241 C12.3472597,37.4362648 11.6113114,37.5150593 10.8573741,37.5150593 C4.94681194,37.5150593 0.155489552,32.6804941 0.155489552,26.7164822 C0.155489552,22.7193083 2.30794229,19.2297628 5.50696617,17.3625296 C4.8481393,15.8487154 4.48230249,14.178913 4.48230249,12.4233794 C4.48230249,5.56399209 10.0578408,0.00337944664 16.9358935,0.00337944664 C20.973991,0.00337944664 24.5625403,1.92059289 26.8378886,4.89166008" id="Fill-1" fill="#2A94C6" mask="url(#mask-2)"></path>
                </g>
                <path d="M9.44247264,23.4233004 C9.40186368,23.528419 9.45672139,23.5502964 9.46990149,23.5687945 C9.59012537,23.6557708 9.71248657,23.7187352 9.83609453,23.7893478 C10.4897562,24.1352964 11.1074398,24.2366798 11.7529085,24.2366798 C13.0684249,24.2366798 13.8854129,23.5382016 13.8854129,22.4137352 L13.8854129,22.391502 C13.8854129,21.3516996 12.9631622,20.973913 12.098797,20.7012451 L11.9858756,20.6646047 C11.3341731,20.4533004 10.7711692,20.2708103 10.7711692,19.8417984 L10.7711692,19.8195652 C10.7711692,19.4526285 11.1003154,19.1826285 11.6098866,19.1826285 C12.1764527,19.1826285 12.8479254,19.3708103 13.2809095,19.6095059 C13.2809095,19.6095059 13.4086139,19.6918577 13.4551005,19.5685968 C13.4802139,19.5024308 13.6992886,18.9138735 13.7224428,18.8498419 C13.7473781,18.78083 13.7033851,18.7290711 13.6586796,18.7018577 C13.1638915,18.4014427 12.4810199,18.1965415 11.7741035,18.1965415 L11.6430149,18.1970751 C10.4391731,18.1970751 9.59849652,18.923834 9.59849652,19.9643478 L9.59849652,19.986581 C9.59849652,21.0831225 10.5253781,21.4395652 11.3943741,21.6875099 L11.5338338,21.7303755 C12.1666567,21.924249 12.7127403,22.0916206 12.7127403,22.5362846 L12.7127403,22.5585178 C12.7127403,22.9654743 12.35759,23.2678458 11.7858587,23.2678458 C11.5641124,23.2678458 10.8564836,23.2639328 10.0918597,22.7808498 C9.99924279,22.7273123 9.94598806,22.6883597 9.87474428,22.6447826 C9.83716318,22.6216601 9.74312139,22.580751 9.70215622,22.7040119 L9.44247264,23.4233004" id="Fill-4" fill="#FFFFFE"></path>
                <path d="M28.6973512,23.4233004 C28.6569204,23.528419 28.7117781,23.5502964 28.7247801,23.5687945 C28.845004,23.6557708 28.9675433,23.7187352 29.0909731,23.7893478 C29.7446348,24.1352964 30.3624965,24.2366798 31.0079652,24.2366798 C32.3233035,24.2366798 33.1402915,23.5382016 33.1402915,22.4137352 L33.1402915,22.391502 C33.1402915,21.3516996 32.2182189,20.973913 31.3538537,20.7012451 L31.2409323,20.6646047 C30.5890517,20.4533004 30.0262259,20.2708103 30.0262259,19.8417984 L30.0262259,19.8195652 C30.0262259,19.4526285 30.3553721,19.1826285 30.8649433,19.1826285 C31.4315095,19.1826285 32.102804,19.3708103 32.5359662,19.6095059 C32.5359662,19.6095059 32.6634925,19.6918577 32.7101572,19.5685968 C32.7350925,19.5024308 32.9543453,18.9138735 32.9774995,18.8498419 C33.0022567,18.78083 32.9584418,18.7290711 32.9135582,18.7018577 C32.4189483,18.4014427 31.7360766,18.1965415 31.0291602,18.1965415 L30.8978935,18.1970751 C29.6942299,18.1970751 28.8535532,18.923834 28.8535532,19.9643478 L28.8535532,19.986581 C28.8535532,21.0831225 29.7804348,21.4395652 30.6494308,21.6875099 L30.7888905,21.7303755 C31.4215353,21.924249 31.9676189,22.0916206 31.9676189,22.5362846 L31.9676189,22.5585178 C31.9676189,22.9654743 31.6126468,23.2678458 31.0409154,23.2678458 C30.818991,23.2678458 30.1115403,23.2639328 29.3469164,22.7808498 C29.2542995,22.7273123 29.1999761,22.6899605 29.129801,22.6447826 C29.1061124,22.6294862 28.9951502,22.5864427 28.9572129,22.7040119 L28.6973512,23.4233004" id="Fill-5" fill="#FFFFFE"></path>
                <path d="M41.8421851,21.2200791 C41.8421851,21.8555929 41.7235642,22.356996 41.4898846,22.710415 C41.2583423,23.0613439 40.9085353,23.2317391 40.4205154,23.2317391 C39.9326736,23.2317391 39.5846478,23.0615217 39.3566677,22.7107708 C39.1265502,22.3571739 39.0097104,21.8555929 39.0097104,21.2200791 C39.0097104,20.5850988 39.1263721,20.0854743 39.3564896,19.7352569 C39.5846478,19.3882411 39.9326736,19.2198024 40.4205154,19.2198024 C40.9085353,19.2198024 41.2583423,19.3885968 41.4902408,19.7357905 C41.7237423,20.0856522 41.8421851,20.5850988 41.8421851,21.2200791 M42.940408,20.0418972 C42.8322955,19.6776285 42.6643383,19.3571146 42.4406328,19.0894269 C42.2167493,18.8212055 41.933199,18.6058103 41.5974627,18.4494664 C41.2620826,18.2929447 40.8661453,18.2139723 40.4205154,18.2139723 C39.9750637,18.2139723 39.5789483,18.2929447 39.24339,18.4494664 C38.9078318,18.6058103 38.6242816,18.8212055 38.4000418,19.0897826 C38.1765144,19.358004 38.0083791,19.6783399 37.9004448,20.0418972 C37.793401,20.4036759 37.7390776,20.8001383 37.7390776,21.2200791 C37.7390776,21.6405534 37.793401,22.0370158 37.9004448,22.3982609 C38.0083791,22.761996 38.1761582,23.0825099 38.4002199,23.3509091 C38.6244597,23.6194862 38.9087224,23.8332806 39.2439244,23.9858893 C39.5796607,24.1383202 39.975598,24.2158696 40.4205154,24.2158696 C40.8656109,24.2158696 41.261192,24.1383202 41.5969284,23.9858893 C41.9324866,23.8332806 42.2162149,23.6194862 42.4406328,23.3509091 C42.6643383,23.0833992 42.8322955,22.7627075 42.940408,22.3982609 C43.0474517,22.0363043 43.1017751,21.6400198 43.1017751,21.2200791 C43.1017751,20.8004941 43.0474517,20.4042095 42.940408,20.0418972" id="Fill-6" fill="#FFFFFE"></path>
                <path d="M51.9559522,23.0616996 C51.9196179,22.9551581 51.8157801,22.9953557 51.8157801,22.9953557 C51.6560159,23.0563636 51.4862776,23.112747 51.3051403,23.1410277 C51.1222219,23.169664 50.9198896,23.1840711 50.7033085,23.1840711 C50.1725423,23.1840711 49.7497104,23.0259486 49.4478149,22.7143281 C49.1448507,22.401996 48.9742219,21.897747 48.9761811,21.2152767 C48.9779622,20.5947036 49.1284647,20.1278063 49.3975881,19.7713636 C49.6651085,19.4175889 50.072801,19.2363439 50.6155005,19.2363439 C51.0686109,19.2363439 51.4141433,19.2886364 51.7762398,19.4019368 C51.7762398,19.4019368 51.8622667,19.4396443 51.90341,19.326166 C51.9997672,19.0599012 52.0710109,18.8699407 52.173602,18.5771739 C52.2028119,18.4937549 52.1312119,18.4581818 52.105208,18.4478656 C51.9630766,18.3925494 51.6266279,18.3018379 51.373,18.263419 C51.1355801,18.2274901 50.8582637,18.2081028 50.5492438,18.2081028 C50.0881184,18.2081028 49.6768637,18.2870751 49.3252756,18.4432411 C48.9745781,18.599585 48.6769572,18.8148024 48.4413184,19.0830237 C48.2056796,19.3512451 48.0259672,19.6717589 47.9071682,20.0353162 C47.788191,20.3974506 47.72799,20.7946245 47.72799,21.2156324 C47.72799,22.1252372 47.9737811,22.8598221 48.4582388,23.3980435 C48.9446557,23.9382213 49.6740139,24.2124901 50.6261871,24.2124901 C51.1884786,24.2124901 51.7655532,24.0990119 52.1809045,23.9357312 C52.1809045,23.9357312 52.2601632,23.897668 52.22561,23.8053557 L51.9559522,23.0616996" id="Fill-7" fill="#FFFFFE"></path>
                <path d="M53.8766846,20.6112451 C53.9292269,20.2578261 54.0264746,19.9645257 54.1769771,19.7352569 C54.4049572,19.3882411 54.7515582,19.1970356 55.2397562,19.1970356 C55.727598,19.1970356 56.0494418,19.3885968 56.2811622,19.7357905 C56.4343363,19.9648814 56.5013055,20.2706324 56.5274876,20.6116008 L53.8766846,20.6112451 Z M57.57299,19.8353953 C57.4796607,19.4837549 57.2488308,19.128913 57.097794,18.9665217 C56.8584149,18.7093281 56.6243791,18.5293281 56.3917682,18.4295455 C56.088804,18.2997036 55.7251045,18.2139723 55.3275642,18.2139723 C54.8635891,18.2139723 54.4421821,18.2920553 54.10039,18.4519565 C53.7582418,18.6122134 53.4704169,18.8316996 53.2447522,19.1040119 C53.0189095,19.3761462 52.8497055,19.7003953 52.7412368,20.0676877 C52.6331244,20.4332016 52.5784448,20.8316206 52.5784448,21.2520949 C52.5784448,21.6800395 52.6350836,22.0789921 52.7469363,22.4372134 C52.8598577,22.7989921 53.040995,23.1164822 53.2853612,23.3804348 C53.5297274,23.6456324 53.8442687,23.8537352 54.2200796,23.9986957 C54.5941095,24.1433004 55.0481104,24.2181818 55.5690806,24.2167589 C56.6425463,24.2133794 57.2076876,23.9739723 57.4408328,23.8453755 C57.4819761,23.8226087 57.5211602,23.7825889 57.4723582,23.6680435 L57.2292388,22.988419 C57.1920139,22.8870356 57.0892448,22.9240316 57.0892448,22.9240316 C56.8229711,23.0231028 56.4457353,23.2002569 55.5633811,23.1984783 C54.9875532,23.1974111 54.5604468,23.0273715 54.2920358,22.7616403 C54.0175692,22.4902174 53.8829184,22.0909091 53.8599423,21.527253 L57.5756617,21.5300988 C57.5756617,21.5300988 57.6736219,21.5290316 57.683596,21.4335178 C57.6878706,21.3942095 57.8114786,20.6711858 57.57299,19.8353953 L57.57299,19.8353953 Z" id="Fill-8" fill="#FFFFFE"></path>
                <path d="M24.1126358,20.6112451 C24.165,20.2578261 24.2620697,19.9645257 24.4127502,19.7352569 C24.6407303,19.3882411 24.9873313,19.1970356 25.4755294,19.1970356 C25.9635493,19.1970356 26.2852149,19.3885968 26.5171134,19.7357905 C26.6701095,19.9648814 26.7370786,20.2706324 26.7632607,20.6116008 L24.1126358,20.6112451 Z M27.8085851,19.8353953 C27.7152557,19.4837549 27.4847821,19.128913 27.3333891,18.9665217 C27.0941881,18.7093281 26.8603303,18.5293281 26.6277194,18.4295455 C26.3245771,18.2997036 25.9608776,18.2139723 25.5631592,18.2139723 C25.0993622,18.2139723 24.6779552,18.2920553 24.3361632,18.4519565 C23.9940149,18.6122134 23.7063682,18.8316996 23.4805254,19.1040119 C23.2546826,19.3761462 23.0853005,19.7003953 22.9771881,20.0676877 C22.8688975,20.4332016 22.8142179,20.8316206 22.8142179,21.2520949 C22.8142179,21.6800395 22.8706786,22.0789921 22.9827095,22.4372134 C23.0956308,22.7989921 23.2767682,23.1164822 23.5213124,23.3804348 C23.7656786,23.6456324 24.0800418,23.8537352 24.4558527,23.9986957 C24.8298826,24.1433004 25.2838836,24.2181818 25.8048537,24.2167589 C26.8784975,24.2133794 27.4434607,23.9739723 27.676606,23.8453755 C27.7179274,23.8226087 27.7567552,23.7825889 27.7079532,23.6680435 L27.46519,22.988419 C27.4277871,22.8870356 27.3250179,22.9240316 27.3250179,22.9240316 C27.0589224,23.0231028 26.6815085,23.2002569 25.7991542,23.1984783 C25.2233264,23.1974111 24.7962199,23.0273715 24.527809,22.7616403 C24.2535204,22.4902174 24.1186915,22.0909091 24.0957154,21.527253 L27.8114348,21.5300988 C27.8114348,21.5300988 27.909395,21.5290316 27.9193692,21.4335178 C27.9236438,21.3942095 28.0474299,20.6711858 27.8085851,19.8353953 L27.8085851,19.8353953 Z" id="Fill-9" fill="#FFFFFE"></path>
                <path d="M16.0793652,23.0414229 C15.9338498,22.9254545 15.9137234,22.8966403 15.8649214,22.8214032 C15.7913622,22.7075692 15.753603,22.5453557 15.753603,22.3386759 C15.753603,22.0126482 15.8620716,21.7778656 16.0852428,21.6199209 C16.0831055,21.6208103 16.4058398,21.3422727 17.1631612,21.3520553 C17.6958866,21.3588142 18.1723294,21.4376087 18.1723294,21.4376087 L18.1723294,23.1250198 L18.1725075,23.1250198 C18.1725075,23.1250198 17.7001612,23.2262253 17.1688607,23.2582411 C16.412608,23.3037747 16.0770498,23.0407115 16.0793652,23.0414229 Z M17.5583861,20.4332016 C17.4071711,20.4223518 17.2119632,20.4166601 16.9781055,20.4166601 C16.6598239,20.4166601 16.3518726,20.4561462 16.0629791,20.5338735 C15.7724826,20.6119565 15.5113741,20.733083 15.2869562,20.8933399 C15.0611134,21.0551976 14.8796199,21.2608103 14.747997,21.5051976 C14.6158398,21.7501186 14.5490488,22.038083 14.5490488,22.3607312 C14.5490488,22.6896047 14.6064,22.9749012 14.7193214,23.208083 C14.8327771,23.442332 14.9959254,23.6378063 15.2039572,23.7888142 C15.4105642,23.9391107 15.6654388,24.0492095 15.9609224,24.1162648 C16.2528438,24.1827866 16.5839493,24.2167589 16.9449771,24.2167589 C17.3264876,24.2167589 17.7062169,24.1849209 18.0740129,24.122668 C18.4387811,24.0607708 18.8858358,23.9698814 19.0098,23.9412451 C19.1339423,23.9127866 19.2703741,23.8754348 19.2703741,23.8754348 C19.3624567,23.8521344 19.3551542,23.7537747 19.3551542,23.7537747 L19.3535512,20.3599209 C19.3535512,19.6151976 19.1547811,19.0639921 18.7627622,18.7212451 C18.3727025,18.3806324 17.7986557,18.2081028 17.0559393,18.2081028 C16.7768418,18.2081028 16.3287184,18.2459881 16.0597731,18.2997036 C16.0597731,18.2997036 15.2484846,18.4567589 14.9141731,18.7183992 C14.9141731,18.7183992 14.840792,18.7635771 14.8808667,18.8660277 L15.1439343,19.5717984 C15.1767065,19.6632213 15.2657612,19.631917 15.2657612,19.631917 C15.2657612,19.631917 15.2940806,19.6207115 15.3270308,19.6013241 C16.0417841,19.2133992 16.9462239,19.2247826 16.9462239,19.2247826 C17.3478607,19.2247826 17.6570587,19.3055336 17.8647343,19.4647233 C18.067601,19.6201779 18.1707264,19.854249 18.1707264,20.3488933 L18.1707264,20.5057708 C17.8517323,20.4598814 17.5583861,20.4332016 17.5583861,20.4332016 L17.5583861,20.4332016 Z" id="Fill-10" fill="#FFFFFE"></path>
                <path d="M47.5334945,18.5213241 C47.561992,18.4373715 47.5023254,18.396996 47.4779244,18.387747 C47.4145174,18.3633794 47.0985512,18.2966798 46.8550756,18.2817391 C46.3878945,18.2531028 46.1287453,18.3315415 45.8966687,18.4359486 C45.666195,18.5396443 45.4107861,18.7071937 45.2686547,18.8983992 L45.2684766,18.4459091 C45.2684766,18.383834 45.2241274,18.333498 45.1617891,18.333498 L44.2089035,18.333498 C44.1467433,18.333498 44.1025721,18.383834 44.1025721,18.4459091 L44.1025721,23.9825099 C44.1025721,24.044585 44.1526209,24.0949209 44.2149592,24.0949209 L45.1915333,24.0949209 C45.2538716,24.0949209 45.3042766,24.044585 45.3042766,23.9825099 L45.3042766,21.2165217 C45.3042766,20.8451383 45.3454199,20.4751779 45.426994,20.2423518 C45.5076776,20.0120158 45.6172149,19.8284585 45.7527562,19.6964822 C45.8882975,19.5650395 46.0428965,19.4725494 46.2119224,19.4209684 C46.3846886,19.3681423 46.5756219,19.3508893 46.7104507,19.3508893 C46.9047682,19.3508893 47.1186776,19.4005138 47.1186776,19.4005138 C47.1906338,19.4085178 47.2301741,19.3647628 47.254397,19.3003755 C47.3181602,19.1306917 47.4991194,18.6221739 47.5334945,18.5213241" id="Fill-11" fill="#FFFFFE"></path>
                <path d="M38.3685164,15.9556126 C38.2498955,15.9187945 38.1421393,15.8944269 38.0010766,15.8684585 C37.8584109,15.842668 37.6886726,15.8291502 37.4961363,15.8291502 C36.8241294,15.8291502 36.2942537,16.0192885 35.9221831,16.3936957 C35.5527841,16.7654348 35.3012935,17.3319368 35.1755483,18.0770158 L35.1297741,18.3279842 L34.2860697,18.3279842 C34.2860697,18.3279842 34.1831224,18.3244269 34.1615711,18.4361265 L34.0231801,19.2078854 C34.0133841,19.2816996 34.0449095,19.3277668 34.1442945,19.3275889 L34.965201,19.3275889 L34.132005,23.9727273 C34.066995,24.3466008 33.9923672,24.6543083 33.9095463,24.8873123 C33.827794,25.1174704 33.7483572,25.29 33.6502189,25.4152174 C33.5554647,25.5363439 33.4655194,25.6256324 33.310208,25.6775692 C33.1819692,25.7204348 33.0344945,25.7401779 32.8729493,25.7401779 C32.783004,25.7401779 32.6631363,25.7252372 32.5751502,25.7076285 C32.486808,25.6901976 32.4406776,25.6702767 32.3744209,25.6425296 C32.3744209,25.6425296 32.2782418,25.6058893 32.2401264,25.7021146 C32.2091353,25.781087 31.9904169,26.3822727 31.9642348,26.4564427 C31.9382308,26.5299012 31.9750995,26.5880632 32.0215861,26.6044269 C32.1307672,26.6433794 32.2123413,26.6688142 32.3610627,26.7038538 C32.5680259,26.7524111 32.742395,26.7554348 32.9057214,26.7554348 C33.2475134,26.7554348 33.5593831,26.7074111 33.8176418,26.6142095 C34.0780378,26.5202964 34.3044149,26.3570158 34.50461,26.135751 C34.7208348,25.8965217 34.8572667,25.6467984 34.9874647,25.3054743 C35.1164159,24.9671739 35.2263095,24.5477668 35.3142955,24.0586364 L36.15141,19.3275889 L37.3755562,19.3275889 C37.3755562,19.3275889 37.4785035,19.3311462 37.5000547,19.2194466 L37.6386239,18.4478656 C37.6482418,18.3738735 37.6165383,18.3278063 37.5173313,18.3279842 L36.3291632,18.3279842 C36.3352189,18.3011265 36.3891861,17.8842095 36.5256179,17.4911265 C36.5835035,17.3233992 36.6930408,17.1880435 36.786192,17.0950198 C36.8773841,17.0037747 36.9822905,16.9388538 37.0971711,16.9016798 C37.2150796,16.8636166 37.3493741,16.844585 37.4961363,16.844585 C37.6081672,16.844585 37.7180607,16.8575692 37.8014159,16.8751779 C37.9166527,16.8997233 37.9615363,16.9127075 37.9914587,16.9216008 C38.1127512,16.958419 38.1287811,16.922668 38.1526478,16.8643281 L38.4369104,16.0847431 C38.4661204,16.001502 38.3945204,15.965751 38.3685164,15.9556126" id="Fill-12" fill="#FFFFFE"></path>
                <path d="M21.7656876,23.9825099 C21.7656876,24.044585 21.7211602,24.0949209 21.659,24.0949209 L20.6733423,24.0949209 C20.6113602,24.0949209 20.5668328,24.044585 20.5668328,23.9825099 L20.5668328,16.0614427 C20.5668328,15.9993676 20.6113602,15.9490316 20.6733423,15.9490316 L21.659,15.9490316 C21.7211602,15.9490316 21.7656876,15.9993676 21.7656876,16.0614427 L21.7656876,23.9825099" id="Fill-13" fill="#FFFFFE"></path>
                <path d="M74.2046726,21.0898814 L74.2046726,20.0262451 L73.4785204,20.0100593 C72.6716846,20.0100593 72.0287095,20.0639526 71.5501294,20.1712055 C71.0713711,20.2788142 70.716399,20.4613043 70.4852129,20.7192095 C70.2536706,20.9769368 70.1380776,21.3371146 70.1380776,21.7988538 C70.1380776,22.2717984 70.2778935,22.6342885 70.5577035,22.8866798 C70.8373353,23.139249 71.2247234,23.2653557 71.7195114,23.2653557 C72.2360289,23.2653557 72.682193,23.1552569 73.0588945,22.9350593 C73.4354179,22.7148617 73.7205711,22.4381028 73.9141761,22.1049605 C74.1077811,21.7721739 74.2046726,21.4336957 74.2046726,21.0898814 Z M68.7181891,21.8794269 C68.7181891,20.8157905 69.1027274,20.0772925 69.8719821,19.6635771 C70.6408806,19.2502174 71.8003731,19.0431818 73.349391,19.0431818 C73.7259144,19.0431818 74.0110677,19.0486957 74.2046726,19.0593676 L74.2046726,18.5921146 C74.2046726,17.9797233 74.0377841,17.5231423 73.7043632,17.2221937 C73.3707642,16.9216008 72.8597682,16.7711265 72.1713751,16.7711265 C71.3000637,16.7711265 70.4770199,17.0021739 69.7026,17.463913 L69.2183204,16.545415 C70.1434209,15.9760672 71.1547264,15.6913043 72.2520587,15.6913043 C73.4031801,15.6913043 74.2451035,15.9600593 74.7774726,16.4970356 C75.3100199,17.0343676 75.5762935,17.8507708 75.5762935,18.9466008 L75.5762935,22.2983004 C75.5762935,22.8895257 75.6138746,23.496581 75.6892149,24.1194664 L74.4305154,24.1194664 C74.3551751,23.6468775 74.317594,23.2762055 74.317594,23.0076285 L74.2691483,23.0076285 C73.9677871,23.4480237 73.5887701,23.7809881 73.1315632,24.0066996 C72.6741781,24.2322332 72.0851701,24.345 71.3645393,24.345 C70.56839,24.345 69.9284428,24.1328063 69.4443413,23.708419 C68.9602398,23.2842095 68.7181891,22.6744862 68.7181891,21.8794269 L68.7181891,21.8794269 Z" id="Fill-14" fill="#1E2A4A"></path>
                <path d="M77.1078567,20.9447431 L77.1078567,15.9170158 L78.4956856,15.9170158 L78.4956856,20.7514032 C78.4956856,21.503419 78.6595463,22.1078063 78.987802,22.5643874 C79.3158796,23.0211462 79.824204,23.24917 80.5127751,23.24917 C81.2656438,23.24917 81.8681881,22.967253 82.3200517,22.4030632 C82.7719154,21.8390514 82.9979363,21.138083 82.9979363,20.3001581 L82.9979363,15.9170158 L84.3693791,15.9170158 L84.3693791,22.2983004 C84.3693791,22.8895257 84.4069602,23.496581 84.4824786,24.1194664 L83.1753333,24.1194664 C83.1213662,23.7756522 83.0837851,23.3405929 83.0624119,22.8141107 L83.0301741,22.8141107 C82.4383164,23.8348814 81.4916647,24.345 80.1900408,24.345 C79.1678706,24.345 78.398794,24.0308893 77.8824547,23.4023123 C77.3661154,22.7737352 77.1078567,21.954664 77.1078567,20.9447431" id="Fill-15" fill="#1E2A4A"></path>
                <path d="M92.22739,20.5902569 L92.22739,18.011917 C91.9044776,17.6037154 91.5414905,17.3002767 91.1380726,17.1014229 C90.7346547,16.902747 90.2690766,16.8033202 89.7422289,16.8033202 C88.9459015,16.8033202 88.3194905,17.1040909 87.8622836,17.7058103 C87.4048985,18.3075296 87.1765622,19.0862253 87.1765622,20.042253 C87.1765622,21.03083 87.3968836,21.8125494 87.8380607,22.3870553 C88.2790597,22.961917 88.8869473,23.24917 89.6615453,23.24917 C90.4361433,23.24917 91.0573891,22.9994466 91.5252826,22.4998221 C91.9933542,22.0001976 92.22739,21.3637945 92.22739,20.5902569 Z M93.7117542,24.1194664 L92.4370249,24.1194664 C92.3616846,23.6468775 92.3241035,23.2386759 92.3241035,22.8946838 L92.2918657,22.8946838 C91.6786348,23.8617391 90.6995672,24.345 89.3550189,24.345 C88.1930328,24.345 87.3028418,23.9476482 86.6842677,23.1525889 C86.0655154,22.3575296 85.7563174,21.3209289 85.7563174,20.042253 C85.7563174,19.2260277 85.9096697,18.4873518 86.2163741,17.826581 C86.5229005,17.1658103 86.9612279,16.6448419 87.5315343,16.263498 C88.1014846,15.882332 88.7740259,15.6913043 89.5484458,15.6913043 C90.6459562,15.6913043 91.5386408,16.0459684 92.22739,16.7549407 L92.22739,12.7100988 L93.5988328,12.7100988 L93.5988328,22.2983004 C93.5988328,22.8895257 93.6364139,23.496581 93.7117542,24.1194664 L93.7117542,24.1194664 Z" id="Fill-16" fill="#1E2A4A"></path>
                <path d="M95.5669423,24.1194664 L96.9383851,24.1194664 L96.9383851,15.9170158 L95.5669423,15.9170158 L95.5669423,24.1194664 Z M95.3571294,13.1129644 C95.3571294,12.5329447 95.6583124,12.2428458 96.2606786,12.2428458 C96.852002,12.2428458 97.1480199,12.5329447 97.1480199,13.1129644 C97.1480199,13.3601976 97.078201,13.5617194 96.9383851,13.7173518 C96.7985692,13.8731621 96.5727264,13.9510672 96.2606786,13.9510672 C95.9379443,13.9510672 95.7065801,13.8731621 95.5669423,13.7173518 C95.4269483,13.5617194 95.3571294,13.3601976 95.3571294,13.1129644 L95.3571294,13.1129644 Z" id="Fill-17" fill="#1E2A4A"></path>
                <path d="M104.683297,19.4460474 C104.661745,18.6298221 104.451932,17.9743874 104.054036,17.4800988 C103.655961,16.986166 103.080311,16.7389328 102.327443,16.7389328 C101.563353,16.7389328 100.971852,16.99417 100.552404,17.5042885 C100.132778,18.014585 99.9069353,18.6620158 99.8746975,19.4460474 L104.683297,19.4460474 Z M105.990442,20.5096838 L99.8907274,20.5096838 C99.9445164,21.3476087 100.197432,22.0138933 100.649296,22.5078261 C101.100981,23.0021146 101.74645,23.24917 102.585701,23.24917 C103.080311,23.24917 103.523982,23.1822925 103.916892,23.0478261 C104.309445,22.9135375 104.704848,22.7120158 105.102922,22.4434387 L105.716153,23.3297431 C105.253425,23.6628854 104.761308,23.9154545 104.239626,24.0870949 C103.717587,24.258913 103.139444,24.345 102.505018,24.345 C101.24614,24.345 100.264579,23.9476482 99.5598,23.1525889 C98.855199,22.3575296 98.5030766,21.2992292 98.5030766,19.9778656 C98.5030766,19.1294466 98.6535791,18.3825889 98.9547622,17.738004 C99.2557672,17.093419 99.6942726,16.5913043 100.2701,16.2313043 C100.845394,15.8714822 101.536637,15.6913043 102.343473,15.6913043 C103.537518,15.6913043 104.449439,16.0781621 105.0787,16.8515217 C105.70796,17.6250593 106.022858,18.651166 106.022858,19.9294862 C106.022858,20.1873913 106.011815,20.3807312 105.990442,20.5096838 L105.990442,20.5096838 Z" id="Fill-18" fill="#1E2A4A"></path>
                <path d="M107.392876,17.7540119 C107.392876,17.1524704 107.354938,16.5400791 107.279776,15.9170158 L108.586921,15.9170158 C108.64071,16.2071146 108.678292,16.5937945 108.699843,17.0772332 L108.732081,17.0772332 C109.000848,16.6581818 109.377727,16.3225494 109.861651,16.0699802 C110.345752,15.8177668 110.921224,15.6913043 111.588422,15.6913043 C112.6211,15.6913043 113.387505,15.989585 113.887815,16.5857905 C114.387946,17.181996 114.63819,17.9260079 114.63819,18.8176482 L114.63819,24.1194664 L113.266569,24.1194664 L113.266569,19.0915613 C113.266569,18.4364822 113.105202,17.8964822 112.782468,17.4720949 C112.459733,17.0477075 111.937873,16.8355138 111.217242,16.8355138 C110.47506,16.8355138 109.880352,17.0800791 109.434188,17.5686759 C108.98749,18.0578063 108.764318,18.6726877 108.764318,19.4138538 L108.764318,24.1194664 L107.392876,24.1194664 L107.392876,17.7540119" id="Fill-19" fill="#1E2A4A"></path>
                <path d="M119.97809,15.6913043 C120.494607,15.6913043 120.986545,15.7693874 121.454617,15.9250198 C121.92251,16.08083 122.339287,16.2983597 122.705301,16.5776087 L122.156546,17.5284783 C121.532629,17.0665613 120.806477,16.8355138 119.97809,16.8355138 C119.095913,16.8355138 118.429072,17.1231225 117.977208,17.6976285 C117.525344,18.2724901 117.299323,19.0431818 117.299323,20.0100593 C117.299323,20.9555929 117.525344,21.7209486 117.977208,22.3064822 C118.429072,22.8921937 119.09057,23.1847826 119.961882,23.1847826 C120.704242,23.1847826 121.440902,22.953913 122.172576,22.4918182 L122.672886,23.4586957 C121.855185,24.0495652 120.91922,24.345 119.86499,24.345 C118.939711,24.345 118.181321,24.1379644 117.58982,23.7246047 C116.99814,23.3112451 116.5705,22.776581 116.307076,22.1211462 C116.043117,21.4658893 115.911673,20.762253 115.911673,20.0100593 C115.911673,18.6995455 116.271988,17.6520949 116.992797,16.8677075 C117.713428,16.0836759 118.708525,15.6913043 119.97809,15.6913043" id="Fill-20" fill="#1E2A4A"></path>
                <path d="M129.854971,19.4460474 C129.83342,18.6298221 129.623607,17.9743874 129.22571,17.4800988 C128.827636,16.986166 128.251986,16.7389328 127.499117,16.7389328 C126.735206,16.7389328 126.143526,16.99417 125.724079,17.5042885 C125.304453,18.014585 125.07861,18.6620158 125.046372,19.4460474 L129.854971,19.4460474 Z M131.162116,20.5096838 L125.062402,20.5096838 C125.116191,21.3476087 125.369106,22.0138933 125.82097,22.5078261 C126.272656,23.0021146 126.918124,23.24917 127.757376,23.24917 C128.251986,23.24917 128.695657,23.1822925 129.088566,23.0478261 C129.481298,22.9135375 129.876522,22.7120158 130.274597,22.4434387 L130.887828,23.3297431 C130.4251,23.6628854 129.932983,23.9154545 129.4113,24.0870949 C128.889262,24.258913 128.311118,24.345 127.676693,24.345 C126.417815,24.345 125.436254,23.9476482 124.731653,23.1525889 C124.027052,22.3575296 123.674751,21.2992292 123.674751,19.9778656 C123.674751,19.1294466 123.825254,18.3825889 124.126437,17.738004 C124.42762,17.093419 124.865947,16.5913043 125.441775,16.2313043 C126.017069,15.8714822 126.708311,15.6913043 127.515325,15.6913043 C128.709371,15.6913043 129.621113,16.0781621 130.250374,16.8515217 C130.879635,17.6250593 131.194532,18.651166 131.194532,19.9294862 C131.194532,20.1873913 131.18349,20.3807312 131.162116,20.5096838 L131.162116,20.5096838 Z" id="Fill-21" fill="#1E2A4A"></path>
                <path d="M142.670659,16.5616008 L142.057606,17.4157115 C141.422646,16.9753162 140.734253,16.7549407 139.992071,16.7549407 C139.475731,16.7549407 139.072135,16.8543676 138.781639,17.0530435 C138.49132,17.2518972 138.346161,17.5339921 138.346161,17.8991502 C138.346161,18.1677273 138.405115,18.3881028 138.523558,18.5597431 C138.641823,18.7317391 138.840771,18.8768775 139.120759,18.9948024 C139.400213,19.1132609 139.808974,19.2366996 140.347043,19.3654743 C141.186116,19.569664 141.80754,19.8677668 142.21078,20.2599605 C142.614198,20.6521542 142.815996,21.1651186 142.815996,21.7988538 C142.815996,22.604585 142.514635,23.2306719 141.912447,23.6764032 C141.309724,24.1217787 140.567542,24.345 139.685544,24.345 C138.501829,24.345 137.512253,24.0282213 136.716282,23.3943083 L137.34572,22.5400198 C137.711201,22.787253 138.071695,22.9700988 138.426667,23.0880237 C138.781639,23.2064822 139.185235,23.2653557 139.637099,23.2653557 C140.185676,23.2653557 140.61866,23.147253 140.936051,22.9108696 C141.253086,22.6744862 141.412137,22.3361858 141.412137,21.8954348 C141.412137,21.605336 141.352827,21.3717984 141.234562,21.1944664 C141.116119,21.0173123 140.919843,20.8696838 140.645554,20.7514032 C140.371266,20.6333004 139.959833,20.5043478 139.411256,20.3645455 C138.561139,20.1498617 137.942565,19.8597628 137.555533,19.4944269 C137.168145,19.1294466 136.97454,18.6243083 136.97454,17.9797233 C136.97454,17.2814229 137.245979,16.725415 137.789391,16.3118775 C138.332447,15.8983399 139.050584,15.6913043 139.943625,15.6913043 C140.997855,15.6913043 141.906747,15.9814032 142.670659,16.5616008" id="Fill-22" fill="#1E2A4A"></path>
                <path d="M146.415588,15.9170158 L148.594045,15.9170158 L148.594045,16.9644664 L146.415588,16.9644664 L146.415588,21.9116206 C146.415588,22.7927668 146.818828,23.2329842 147.625842,23.2329842 C147.91616,23.2329842 148.184927,23.1954545 148.432678,23.1203953 L148.642491,24.1356522 C148.276654,24.2750988 147.851685,24.345 147.367583,24.345 C146.646774,24.345 146.079139,24.1434783 145.665213,23.7407905 C145.25093,23.337747 145.043967,22.7657312 145.043967,22.0243874 L145.043967,16.9644664 L143.591663,16.9644664 L143.591663,16.0781621 L145.027937,15.9170158 L145.027937,13.9026877 L146.415588,13.419249 L146.415588,15.9170158" id="Fill-23" fill="#1E2A4A"></path>
                <path d="M149.577031,20.9447431 L149.577031,15.9170158 L150.96486,15.9170158 L150.96486,20.7514032 C150.96486,21.503419 151.12872,22.1078063 151.456798,22.5643874 C151.784876,23.0211462 152.293378,23.24917 152.981949,23.24917 C153.73464,23.24917 154.337362,22.967253 154.789048,22.4030632 C155.240911,21.8390514 155.466932,21.138083 155.466932,20.3001581 L155.466932,15.9170158 L156.838553,15.9170158 L156.838553,22.2983004 C156.838553,22.8895257 156.876134,23.496581 156.951475,24.1194664 L155.644329,24.1194664 C155.590362,23.7756522 155.552781,23.3405929 155.531408,22.8141107 L155.49917,22.8141107 C154.907312,23.8348814 153.960661,24.345 152.659037,24.345 C151.636867,24.345 150.867968,24.0308893 150.351451,23.4023123 C149.83529,22.7737352 149.577031,21.954664 149.577031,20.9447431" id="Fill-24" fill="#1E2A4A"></path>
                <path d="M164.517564,20.5902569 L164.517564,18.011917 C164.19483,17.6037154 163.831665,17.3002767 163.428247,17.1014229 C163.025007,16.902747 162.559429,16.8033202 162.032403,16.8033202 C161.236254,16.8033202 160.609665,17.1040909 160.152636,17.7058103 C159.695073,18.3075296 159.466736,19.0862253 159.466736,20.042253 C159.466736,21.03083 159.687058,21.8125494 160.128413,22.3870553 C160.569412,22.961917 161.1773,23.24917 161.951719,23.24917 C162.726317,23.24917 163.347563,22.9994466 163.815635,22.4998221 C164.283528,22.0001976 164.517564,21.3637945 164.517564,20.5902569 Z M166.001928,24.1194664 L164.727199,24.1194664 C164.651859,23.6468775 164.614278,23.2386759 164.614278,22.8946838 L164.58204,22.8946838 C163.968809,23.8617391 162.989741,24.345 161.645193,24.345 C160.483385,24.345 159.593016,23.9476482 158.974442,23.1525889 C158.355868,22.3575296 158.04667,21.3209289 158.04667,20.042253 C158.04667,19.2260277 158.200022,18.4873518 158.506548,17.826581 C158.813253,17.1658103 159.251402,16.6448419 159.821708,16.263498 C160.391659,15.882332 161.064378,15.6913043 161.838798,15.6913043 C162.93613,15.6913043 163.828815,16.0459684 164.517564,16.7549407 L164.517564,12.7100988 L165.889185,12.7100988 L165.889185,22.2983004 C165.889185,22.8895257 165.926766,23.496581 166.001928,24.1194664 L166.001928,24.1194664 Z" id="Fill-25" fill="#1E2A4A"></path>
                <path d="M167.792463,24.1194664 L169.164084,24.1194664 L169.164084,15.9170158 L167.792463,15.9170158 L167.792463,24.1194664 Z M167.58265,13.1129644 C167.58265,12.5329447 167.883833,12.2428458 168.486555,12.2428458 C169.077879,12.2428458 169.373897,12.5329447 169.373897,13.1129644 C169.373897,13.3601976 169.3039,13.5617194 169.164084,13.7173518 C169.024268,13.8731621 168.798425,13.9510672 168.486555,13.9510672 C168.163643,13.9510672 167.9321,13.8731621 167.792463,13.7173518 C167.652647,13.5617194 167.58265,13.3601976 167.58265,13.1129644 L167.58265,13.1129644 Z" id="Fill-26" fill="#1E2A4A"></path>
                <g id="Group-30">
                    <mask id="mask-4" fill="white">
                        <use xlink:href="#path-3"></use>
                    </mask>
                    <g id="Clip-28"></g>
                    <path d="M172.0849,19.9940514 C172.0849,20.9716008 172.308072,21.7584783 172.754592,22.3546838 C173.200756,22.9510672 173.875969,23.24917 174.779697,23.24917 C175.693932,23.24917 176.37716,22.9510672 176.829202,22.3546838 C177.280888,21.7584783 177.50673,20.9716008 177.50673,19.9940514 C177.50673,19.016502 177.280888,18.2374506 176.829202,17.6574308 C176.37716,17.0772332 175.693932,16.7871344 174.779697,16.7871344 C173.865104,16.7871344 173.187398,17.0772332 172.746577,17.6574308 C172.305222,18.2374506 172.0849,19.016502 172.0849,19.9940514 Z M178.910945,19.9940514 C178.910945,20.8428261 178.747085,21.5975099 178.419363,22.2581028 C178.090217,22.9188735 177.61698,23.4320158 176.998584,23.7971739 C176.379654,24.1621542 175.640321,24.345 174.779697,24.345 C173.929758,24.345 173.192741,24.159664 172.569002,23.7889921 C171.944906,23.4183202 171.471492,22.9055336 171.148935,22.2499209 C170.826023,21.5948419 170.664834,20.8428261 170.664834,19.9940514 C170.664834,18.6833597 171.025149,17.6387549 171.745958,16.8597036 C172.466589,16.08083 173.477895,15.6913043 174.779697,15.6913043 C175.651008,15.6913043 176.395862,15.8714822 177.014614,16.2313043 C177.63301,16.5913043 178.103931,17.093419 178.426488,17.738004 C178.748866,18.3825889 178.910945,19.1346047 178.910945,19.9940514 L178.910945,19.9940514 Z" id="Fill-27" fill="#1E2A4A" mask="url(#mask-4)"></path>
                    <path d="M26.6825771,5.04604743 C28.7504279,2.89476285 31.6293891,1.55970356 34.813808,1.55970356 C39.0460448,1.55970356 42.7391443,3.91660079 44.7051164,7.41575099 C46.4147891,6.65288538 48.3063114,6.22867589 50.2963284,6.22867589 C57.9304557,6.22867589 64.119403,12.4632213 64.119403,20.1541304 C64.119403,27.8450395 57.9304557,34.079585 50.2963284,34.079585 C49.3642816,34.079585 48.4537861,33.9860277 47.5732129,33.8086957 C45.8418109,36.8928854 42.5412647,38.9771146 38.7537672,38.9771146 C37.1684149,38.9771146 35.6685552,38.6116008 34.3330905,37.9609684 C32.5776438,42.0849605 28.487004,44.9763439 23.720795,44.9763439 C18.7563502,44.9763439 14.525004,41.8398617 12.9018925,37.4405336 C12.1917701,37.5904743 11.456,37.6692688 10.7018846,37.6692688 C4.79132239,37.6692688 0,32.8347036 0,26.8706917 C0,22.8735178 2.15245274,19.3839723 5.35147662,17.516917 C4.69282786,16.0031028 4.32699104,14.3333004 4.32699104,12.5777668 C4.32699104,5.71837945 9.90252935,0.157766798 16.7805821,0.157766798 C20.8186796,0.157766798 24.4072289,2.07498024 26.6825771,5.04604743" id="Fill-29" fill="#2A94C6" mask="url(#mask-4)"></path>
                </g>
                <path d="M9.28698308,23.3996443 C9.24655224,23.5047628 9.30140995,23.5266403 9.31441194,23.5451383 C9.43463582,23.6321146 9.55717512,23.6950791 9.68060498,23.7656917 C10.3342667,24.1116403 10.9521284,24.2130237 11.597597,24.2130237 C12.9129353,24.2130237 13.7301015,23.5145455 13.7301015,22.3902569 L13.7301015,22.3680237 C13.7301015,21.3282213 12.8078507,20.9502569 11.9434856,20.6777668 L11.8303861,20.6411265 C11.1786836,20.4298221 10.6158577,20.247332 10.6158577,19.8183202 L10.6158577,19.796087 C10.6158577,19.4291502 10.945004,19.1591502 11.4545751,19.1591502 C12.0211413,19.1591502 12.6926139,19.347332 13.125598,19.5858498 C13.125598,19.5858498 13.2531244,19.6682016 13.2996109,19.5451186 C13.3247244,19.4787747 13.5439771,18.8902174 13.5669532,18.8263636 C13.5918886,18.7571739 13.5480736,18.7055929 13.50319,18.6782016 C13.0085801,18.3777866 12.3257085,18.1730632 11.618792,18.1730632 L11.4875254,18.1735968 C10.2836836,18.1735968 9.44300697,18.9001779 9.44300697,19.9408696 L9.44300697,19.9631028 C9.44300697,21.0596443 10.3700667,21.416087 11.2390627,21.6640316 L11.3785224,21.7068972 C12.0111672,21.9007708 12.5572507,22.0681423 12.5572507,22.5128063 L12.5572507,22.5350395 C12.5572507,22.941996 12.2022786,23.2441897 11.6305473,23.2441897 C11.4086229,23.2441897 10.7011721,23.2402767 9.93654826,22.7573715 C9.84393134,22.7036561 9.79067662,22.6648814 9.71943284,22.6211265 C9.68185174,22.5981818 9.58763184,22.5572727 9.54666667,22.6805336 L9.28698308,23.3996443" id="Fill-31" fill="#FFFFFE"></path>
                <path d="M28.5420398,23.3996443 C28.501609,23.5047628 28.5564667,23.5266403 28.5694687,23.5451383 C28.6896925,23.6321146 28.8122318,23.6950791 28.9354836,23.7656917 C29.5893234,24.1116403 30.2071851,24.2130237 30.8526537,24.2130237 C32.167992,24.2130237 32.9849801,23.5145455 32.9849801,22.3902569 L32.9849801,22.3680237 C32.9849801,21.3282213 32.0629075,20.9502569 31.1983642,20.6777668 L31.0854428,20.6411265 C30.4337403,20.4298221 29.8707363,20.247332 29.8707363,19.8183202 L29.8707363,19.796087 C29.8707363,19.4291502 30.2000607,19.1591502 30.7094537,19.1591502 C31.276198,19.1591502 31.9474925,19.347332 32.3806547,19.5858498 C32.3806547,19.5858498 32.5081811,19.6682016 32.5546677,19.5451186 C32.5797811,19.4787747 32.7988557,18.8902174 32.82201,18.8263636 C32.8469453,18.7571739 32.8031303,18.7055929 32.7582468,18.6782016 C32.2636368,18.3777866 31.5805871,18.1730632 30.8738488,18.1730632 L30.742404,18.1735968 C29.5387403,18.1735968 28.6980637,18.9001779 28.6980637,19.9408696 L28.6980637,19.9631028 C28.6980637,21.0596443 29.6251234,21.416087 30.4939413,21.6640316 L30.6335791,21.7068972 C31.2660458,21.9007708 31.8123075,22.0681423 31.8123075,22.5128063 L31.8123075,22.5350395 C31.8123075,22.941996 31.4573353,23.2441897 30.885604,23.2441897 C30.6636796,23.2441897 29.9560507,23.2402767 29.1914269,22.7573715 C29.09881,22.7036561 29.0446647,22.6664822 28.9744896,22.6211265 C28.9506229,22.60583 28.8396607,22.5629644 28.8017234,22.6805336 L28.5420398,23.3996443" id="Fill-32" fill="#FFFFFE"></path>
                <path d="M41.6868736,21.1966008 C41.6868736,21.8319368 41.5682527,22.3335178 41.3345731,22.6869368 C41.1028527,23.0376877 40.7532239,23.208083 40.265204,23.208083 C39.7771841,23.208083 39.4291582,23.0378656 39.2013562,22.6871146 C38.9712388,22.3336957 38.8542209,21.8319368 38.8542209,21.1966008 C38.8542209,20.5616206 38.9710607,20.061996 39.2011781,19.7117787 C39.4291582,19.3647628 39.7771841,19.1963241 40.265204,19.1963241 C40.7532239,19.1963241 41.1028527,19.3649407 41.3347512,19.7121344 C41.5684308,20.061996 41.6868736,20.5616206 41.6868736,21.1966008 M42.7850965,20.018419 C42.676806,19.6541502 42.5088488,19.3336364 42.2853214,19.0659486 C42.0612597,18.7977273 41.7778876,18.582332 41.4421512,18.4258103 C41.1067711,18.2694664 40.7106557,18.1903162 40.265204,18.1903162 C39.8197522,18.1903162 39.4236368,18.2694664 39.0880786,18.4258103 C38.7525204,18.582332 38.468792,18.7977273 38.2447303,19.0663043 C38.021203,19.3343478 37.8528896,19.6548617 37.7451333,20.018419 C37.6380896,20.3801976 37.5837662,20.7764822 37.5837662,21.1966008 C37.5837662,21.6168972 37.6380896,22.0135375 37.7451333,22.3747826 C37.8528896,22.7385178 38.0208468,23.0588538 38.2449085,23.3274308 C38.4691483,23.59583 38.7532328,23.8098024 39.0886129,23.9622332 C39.4243493,24.114664 39.8201085,24.1922134 40.265204,24.1922134 C40.7102995,24.1922134 41.1058806,24.114664 41.4416169,23.9622332 C41.7771751,23.8098024 42.0609035,23.59583 42.2853214,23.3274308 C42.5088488,23.0597431 42.676806,22.7390514 42.7850965,22.3747826 C42.8921403,22.0128261 42.9464637,21.6163636 42.9464637,21.1966008 C42.9464637,20.7770158 42.8921403,20.3805534 42.7850965,20.018419" id="Fill-33" fill="#FFFFFE"></path>
                <path d="M51.8004627,23.0382213 C51.7643065,22.931502 51.6604687,22.9718775 51.6604687,22.9718775 C51.5005264,23.0327075 51.3309662,23.0890909 51.1498289,23.1173715 C50.9667323,23.1460079 50.7645781,23.160415 50.547997,23.160415 C50.0170527,23.160415 49.594399,23.0022925 49.2925035,22.6908498 C48.9895393,22.3785178 48.8189104,21.8740909 48.8206915,21.1917984 C48.8226507,20.5712253 48.9729751,20.1043281 49.2422766,19.7478854 C49.509797,19.3939328 49.9174896,19.2126877 50.4601891,19.2126877 C50.9132995,19.2126877 51.2588318,19.2649802 51.6209284,19.3782806 C51.6209284,19.3782806 51.7069552,19.4159881 51.7480985,19.3025099 C51.8444557,19.0364229 51.9156995,18.8464625 52.0182905,18.5535178 C52.0475005,18.4702767 51.9759005,18.4345257 51.9498965,18.4243874 C51.8075871,18.3690711 51.4713164,18.2783597 51.2176886,18.2399407 C50.9800905,18.203834 50.7029522,18.1846245 50.3939323,18.1846245 C49.932807,18.1846245 49.5213741,18.2635968 49.1699642,18.4197628 C48.8192667,18.5759289 48.5216458,18.7913241 48.286007,19.0595455 C48.05019,19.3277668 47.8706557,19.6482806 47.7518567,20.0118379 C47.6328796,20.3739723 47.5726786,20.7711462 47.5726786,21.1919763 C47.5726786,22.1017589 47.8184697,22.836166 48.3029274,23.3743874 C48.7893443,23.9145652 49.5187025,24.188834 50.4708756,24.188834 C51.0331672,24.188834 51.6102418,24.0753557 52.025593,23.9120751 C52.025593,23.9120751 52.1048517,23.8740119 52.0702985,23.7816996 L51.8004627,23.0382213" id="Fill-34" fill="#FFFFFE"></path>
                <path d="M53.7213731,20.5875889 C53.7739154,20.23417 53.8709851,19.9410474 54.0216657,19.7117787 C54.2496458,19.3647628 54.5962468,19.1735573 55.0842667,19.1735573 C55.5722866,19.1735573 55.8939522,19.3649407 56.1258507,19.7121344 C56.2788468,19.9414032 56.3458159,20.2469763 56.3721761,20.5881225 L53.7213731,20.5875889 Z M57.4175005,19.8117391 C57.3243493,19.4600988 57.0935194,19.1054348 56.9423045,18.9428656 C56.7029254,18.6858498 56.4690677,18.5056719 56.2364567,18.4060672 C55.9334925,18.2762253 55.569793,18.1903162 55.1722527,18.1903162 C54.7080995,18.1903162 54.2868706,18.2683992 53.9449005,18.4284783 C53.6027522,18.5887352 53.3151055,18.8082213 53.0892627,19.0805336 C52.863598,19.352668 52.694394,19.6767391 52.5859254,20.0442095 C52.4778129,20.4095455 52.4229552,20.8081423 52.4229552,21.2284387 C52.4229552,21.6565613 52.479594,22.0555138 52.5916249,22.4135573 C52.7043682,22.775336 52.8856836,23.0928261 53.1300498,23.3569565 C53.3744159,23.6219763 53.6889572,23.8300791 54.0647682,23.9750395 C54.4386199,24.1196443 54.8926209,24.1947036 55.413591,24.1931028 C56.4872348,24.1897233 57.052198,23.9504941 57.2855214,23.8217194 C57.3266647,23.7989526 57.3656706,23.7589328 57.3170468,23.6443874 L57.0737493,22.9649407 C57.0365244,22.8633794 56.9339333,22.9003755 56.9339333,22.9003755 C56.6676597,22.9994466 56.2902458,23.1766008 55.4080697,23.1748221 C54.8320637,23.1737549 54.4049572,23.0037154 54.1365463,22.7381621 C53.8622577,22.4665613 53.7274289,22.0674308 53.7044527,21.5037747 L57.4203502,21.5066206 C57.4203502,21.5066206 57.5183104,21.5055534 57.5282846,21.4100395 C57.5325592,21.3707312 57.6561672,20.6477075 57.4175005,19.8117391 L57.4175005,19.8117391 Z" id="Fill-35" fill="#FFFFFE"></path>
                <path d="M23.9571463,20.5875889 C24.0096886,20.23417 24.1067582,19.9410474 24.2572607,19.7117787 C24.4854189,19.3647628 24.8320199,19.1735573 25.3200398,19.1735573 C25.8080597,19.1735573 26.1299035,19.3649407 26.361802,19.7121344 C26.5146199,19.9414032 26.5815891,20.2469763 26.6079493,20.5881225 L23.9571463,20.5875889 Z M27.6532736,19.8117391 C27.5599443,19.4600988 27.3292925,19.1054348 27.1780776,18.9428656 C26.9388766,18.6858498 26.7048408,18.5056719 26.4722299,18.4060672 C26.1692657,18.2762253 25.8055662,18.1903162 25.4078478,18.1903162 C24.9440507,18.1903162 24.5226438,18.2683992 24.1806736,18.4284783 C23.8385254,18.5887352 23.5508786,18.8082213 23.3250358,19.0805336 C23.099193,19.352668 22.9299891,19.6767391 22.8216985,20.0442095 C22.7135861,20.4095455 22.6587284,20.8081423 22.6587284,21.2284387 C22.6587284,21.6565613 22.7153672,22.0555138 22.827398,22.4135573 C22.9403194,22.775336 23.1214567,23.0928261 23.3658229,23.3569565 C23.6103672,23.6219763 23.9245522,23.8300791 24.3005413,23.9750395 C24.6745711,24.1196443 25.128394,24.1947036 25.6495423,24.1931028 C26.7231861,24.1897233 27.2879711,23.9504941 27.5212945,23.8217194 C27.5624378,23.7989526 27.6014438,23.7589328 27.5526418,23.6443874 L27.3097005,22.9649407 C27.2724756,22.8633794 27.1697065,22.9003755 27.1697065,22.9003755 C26.9034328,22.9994466 26.526197,23.1766008 25.6438428,23.1748221 C25.0680149,23.1737549 24.6407303,23.0037154 24.3724975,22.7381621 C24.098209,22.4665613 23.963202,22.0674308 23.940404,21.5037747 L27.6561234,21.5066206 C27.6561234,21.5066206 27.7540836,21.5055534 27.7640577,21.4100395 C27.7683323,21.3707312 27.8919403,20.6477075 27.6532736,19.8117391 L27.6532736,19.8117391 Z" id="Fill-36" fill="#FFFFFE"></path>
                <path d="M15.9238756,23.0177668 C15.7783602,22.9017984 15.7582338,22.8729842 15.70961,22.797747 C15.6358726,22.683913 15.5982915,22.5218775 15.5982915,22.3150198 C15.5982915,21.98917 15.7067602,21.7542095 15.9299313,21.5964427 C15.927794,21.597332 16.2505284,21.3187945 17.0078498,21.3283992 C17.540397,21.335336 18.0170179,21.4141304 18.0170179,21.4141304 L18.0170179,23.1013636 L18.017196,23.1013636 C18.017196,23.1013636 17.5448498,23.2025692 17.0133711,23.234585 C16.2572965,23.2801186 15.9217383,23.0170553 15.9238756,23.0177668 Z M17.4028965,20.4097233 C17.2518597,20.3986957 17.0566517,20.3931818 16.8226159,20.3931818 C16.5045124,20.3931818 16.1965612,20.432668 15.9074896,20.5103953 C15.6171711,20.5884783 15.3560627,20.7094269 15.1314667,20.8698617 C14.9056239,21.0315415 14.7241303,21.237332 14.5925075,21.4817194 C14.4605284,21.7266403 14.3935592,22.0144269 14.3935592,22.3370751 C14.3935592,22.6659486 14.4509104,22.9512451 14.56401,23.1844269 C14.6774657,23.4186759 14.8406139,23.6141502 15.0486458,23.765336 C15.2552527,23.9154545 15.5099493,24.0255534 15.8056109,24.0926087 C16.0973542,24.1591304 16.4284597,24.1931028 16.7896657,24.1931028 C17.1711761,24.1931028 17.5509055,24.1612648 17.9185234,24.0990119 C18.2834697,24.0371146 18.7305244,23.9462253 18.8544886,23.9175889 C18.9784527,23.8891304 19.1150627,23.8517787 19.1150627,23.8517787 C19.2071453,23.8284783 19.1998428,23.7301186 19.1998428,23.7301186 L19.1980617,20.3362648 C19.1980617,19.5915415 18.9992915,19.0405138 18.6074507,18.6977668 C18.217391,18.3571542 17.6433443,18.1846245 16.9006279,18.1846245 C16.6213522,18.1846245 16.173407,18.222332 15.9042836,18.2762253 C15.9042836,18.2762253 15.0931731,18.4331028 14.7586836,18.6947431 C14.7586836,18.6947431 14.6854806,18.7400988 14.7255552,18.8423715 L14.9886229,19.5483202 C15.021395,19.6395652 15.1104498,19.6082609 15.1104498,19.6082609 C15.1104498,19.6082609 15.138591,19.5972332 15.1715413,19.5778458 C15.8864726,19.1897431 16.7909124,19.2013043 16.7909124,19.2013043 C17.1925493,19.2013043 17.5015692,19.2820553 17.7092448,19.4410672 C17.9122896,19.5966996 18.0152368,19.8305929 18.0152368,20.3252372 L18.0152368,20.4822925 C17.6962428,20.4362253 17.4028965,20.4097233 17.4028965,20.4097233 L17.4028965,20.4097233 Z" id="Fill-37" fill="#FFFFFE"></path>
                <path d="M47.3781831,18.497668 C47.4066806,18.4138933 47.3468358,18.3735178 47.3226129,18.3640909 C47.259206,18.3399012 46.9430617,18.2732016 46.6995861,18.2582609 C46.2325831,18.2296245 45.9734338,18.3078854 45.7411791,18.4122925 C45.5107055,18.5159881 45.2554746,18.6835375 45.1133433,18.8747431 L45.1129871,18.4224308 C45.1129871,18.3603557 45.0686378,18.3100198 45.0062995,18.3100198 L44.053592,18.3100198 C43.9914318,18.3100198 43.9470826,18.3603557 43.9470826,18.4224308 L43.9470826,23.9588538 C43.9470826,24.0209289 43.9973095,24.0712648 44.0596478,24.0712648 L45.0362219,24.0712648 C45.0983821,24.0712648 45.1487871,24.0209289 45.1487871,23.9588538 L45.1487871,21.1930435 C45.1487871,20.8216601 45.1901085,20.4516996 45.2716826,20.2188735 C45.3523662,19.9885375 45.4617254,19.8048024 45.5974448,19.6728261 C45.7329861,19.5413834 45.8875851,19.4490711 46.0564328,19.3973123 C46.2293771,19.344664 46.4203104,19.3272332 46.5551393,19.3272332 C46.7494567,19.3272332 46.9633662,19.3770356 46.9633662,19.3770356 C47.0351443,19.3850395 47.0748627,19.3412846 47.0989075,19.2768972 C47.1628488,19.1072134 47.343808,18.5986957 47.3781831,18.497668" id="Fill-38" fill="#FFFFFE"></path>
                <path d="M38.213205,15.9319565 C38.0945841,15.8953162 37.9868279,15.8709486 37.8457652,15.8448024 C37.7030995,15.8190119 37.5331831,15.8056719 37.3406468,15.8056719 C36.6688179,15.8056719 36.1389423,15.9956324 35.7666935,16.3700395 C35.3972945,16.7419565 35.1459821,17.3082806 35.0200587,18.0533597 L34.9744627,18.3045059 L34.1307582,18.3045059 C34.1307582,18.3045059 34.0278109,18.3007708 34.0062597,18.4126482 L33.8676905,19.1844071 C33.8580726,19.2582213 33.889598,19.3042885 33.9889831,19.3039328 L34.8098896,19.3039328 L33.9766935,23.9490711 C33.9115055,24.3229447 33.8370557,24.6306522 33.7542348,24.8636561 C33.6724826,25.0938142 33.5928677,25.2663439 33.4949075,25.3915613 C33.3999751,25.5126877 33.310208,25.6019763 33.1547184,25.653913 C33.0266577,25.6967787 32.8791831,25.7165217 32.7174597,25.7165217 C32.6275144,25.7165217 32.5078249,25.701581 32.4196607,25.6841502 C32.3313184,25.6665415 32.2853662,25.6467984 32.2191095,25.6188735 C32.2191095,25.6188735 32.1227522,25.5822332 32.0848149,25.6784585 C32.0538239,25.7574308 31.8351055,26.3587945 31.8089234,26.4329644 C31.7829194,26.5064229 31.8197881,26.5644071 31.8662746,26.5809486 C31.9754557,26.6197233 32.0568517,26.6451581 32.2057512,26.6801976 C32.4125363,26.7289328 32.5869055,26.7317787 32.7502318,26.7317787 C33.092202,26.7317787 33.4040716,26.6837549 33.6623303,26.5905534 C33.9225483,26.4966403 34.1489254,26.3333597 34.3491204,26.1120949 C34.5655234,25.8728656 34.7017771,25.6231423 34.8321532,25.2818182 C34.9611045,24.9436957 35.070998,24.5241107 35.158806,24.0349802 L35.9960985,19.3039328 L37.2202448,19.3039328 C37.2202448,19.3039328 37.323192,19.307668 37.3447433,19.1959684 L37.4831343,18.4242095 C37.4929303,18.3503953 37.4612269,18.3041502 37.3620199,18.3045059 L36.1738517,18.3045059 C36.1799075,18.2776482 36.2338746,17.8605534 36.3701284,17.4674704 C36.428192,17.2997431 36.5377294,17.1645652 36.6307025,17.0715415 C36.7220726,16.9802964 36.8269791,16.9151976 36.9418597,16.8782016 C37.0597682,16.8401383 37.1940627,16.8209289 37.3406468,16.8209289 C37.4526776,16.8209289 37.5625711,16.833913 37.6459264,16.8516996 C37.7613413,16.8762451 37.8062249,16.8890514 37.8361473,16.8981225 C37.9572617,16.9349407 37.9734697,16.8991897 37.9973363,16.8408498 L38.281599,16.0612648 C38.310809,15.9778458 38.239209,15.9422727 38.213205,15.9319565" id="Fill-39" fill="#FFFFFE"></path>
                <path d="M21.610198,23.9588538 C21.610198,24.0209289 21.5658488,24.0712648 21.5036886,24.0712648 L20.5180308,24.0712648 C20.4558706,24.0712648 20.4115214,24.0209289 20.4115214,23.9588538 L20.4115214,16.0379644 C20.4115214,15.9758893 20.4558706,15.9255534 20.5180308,15.9255534 L21.5036886,15.9255534 C21.5658488,15.9255534 21.610198,15.9758893 21.610198,16.0379644 L21.610198,23.9588538" id="Fill-40" fill="#FFFFFE"></path>
            </g>
        </g>
    </g>
</svg>