<?xml version="1.0" encoding="utf-8"?>
<!-- Generator: Adobe Illustrator 19.1.0, SVG Export Plug-In . SVG Version: 6.00 Build 0)  -->
<svg version="1.1" id="Layer_1" xmlns="http://www.w3.org/2000/svg" xmlns:xlink="http://www.w3.org/1999/xlink" x="0px" y="0px"
	 viewBox="0 0 255.1 113.4" enable-background="new 0 0 255.1 113.4" xml:space="preserve">
<g>
	<g>
		<path fill="#E6412F" d="M33.6,32.7L13.8,15.8c-0.6-0.5-1.6,0-1.4,0.9L20.2,48l15,8.9L33.6,32.7z"/>
		<path fill="#FAB51D" d="M33.9,96.3c-0.3,0.8-1.4,0.7-1.6-0.1L20.2,48L1.3,36.8c-0.7-0.4-1.6,0.3-1.2,1.1l33.3,75
			c0.3,0.8,1.5,0.6,1.6-0.2l7.2-38.4l-0.1,0.2L33.9,96.3z"/>
		<path fill="#DE0832" d="M33.9,96.3l8.2-21.9l-3.6,6.1c-0.4,0.7-1.5,0.5-1.6-0.4l-1.6-23.3l-15-8.9l12,48.2
			C32.4,97.1,33.6,97.1,33.9,96.3z"/>
		<path fill="#EC671C" d="M59.9,33.1l-27-32.8c-0.5-0.6-1.6-0.2-1.5,0.6l2.2,31.8l13.7,11.8c2.7,2.3,3.7,6.2,2.4,9.5l-7.5,20l0,0.2
			l18.5-31.3C62.5,39.8,62.2,35.9,59.9,33.1z"/>
		<path fill="#DE0832" d="M39.3,59.2c3.1,1.8,4.7,5.4,4.1,9L42.2,74l7.5-20c1.3-3.4,0.3-7.2-2.4-9.5L33.6,32.7l1.7,24.2L39.3,59.2z"
			/>
		<polygon opacity="0.5" fill="#000100" points="42.1,74.4 42.2,74.2 42.2,74 		"/>
		<polygon opacity="0.5" fill="#000100" points="42.1,74.4 42.2,74.2 42.2,74 		"/>
		<path fill="#BF1A39" d="M39.3,59.2l-4-2.4l1.6,23.3c0.1,0.8,1.2,1.1,1.6,0.4l3.6-6.1l0.2-0.5l1.1-5.8C44,64.7,42.4,61.1,39.3,59.2
			z"/>
	</g>
	<path fill="#343434" d="M86.5,44.8h1.3c1.7,0,3.2,1,3.9,2.6l18.9,48.4l-5.7,0c-1,0-2-0.6-2.3-1.6l-5.2-13.6l-20.7,0l-5.1,13.6
		c-0.4,1-1.3,1.6-2.3,1.6h-5.5l18.9-48.4C83.2,45.8,84.8,44.8,86.5,44.8z M78.9,74.5h16.2L87,52.9L78.9,74.5z"/>
	<path fill="#343434" d="M192.7,95.8v-51h6.9v51H192.7z"/>
	<path fill="#343434" d="M248.7,94L222,56.1v39.7l-6.4,0v-51h4c1.3,0,2.6,0.7,3.4,1.8l25.7,36.3V44.8l6.4,0v51H252
		C250.7,95.8,249.4,95.2,248.7,94z"/>
	<path fill="#343434" d="M165.6,95.8h-5.8L146,54.4l-13.8,41.4h-5.7l-15.3-51h5.5c1.1,0,2.1,0.7,2.4,1.8l10.7,38.1L142,46.9
		c0.4-1.3,1.6-2.1,3-2.1h2.4c1.3,0,2.5,0.9,3,2.1l12.3,37.8l10.6-38.1c0.3-1.1,1.3-1.8,2.4-1.8l5.3,0L165.6,95.8z"/>
</g>
<g>
</g>
<g>
</g>
<g>
</g>
<g>
</g>
<g>
</g>
<g>
</g>
</svg>
