<?xml version="1.0" encoding="UTF-8"?>
<svg width="866px" height="384px" viewBox="0 0 866 384" version="1.1" xmlns="http://www.w3.org/2000/svg" xmlns:xlink="http://www.w3.org/1999/xlink">
    <!-- Generator: Sketch 63.1 (92452) - https://sketch.com -->
    <title>Artboard@1x</title>
    <desc>Created with Sketch.</desc>
    <defs>
        <linearGradient x1="16.3990284%" y1="55.9308087%" x2="138.708197%" y2="54.3724609%" id="linearGradient-1">
            <stop stop-color="#F0E7FD" offset="0%"></stop>
            <stop stop-color="#8C49EB" offset="100%"></stop>
        </linearGradient>
    </defs>
    <g id="Artboard" stroke="none" stroke-width="1" fill="none" fill-rule="evenodd" opacity="0.7">
        <g id="Group-10" transform="translate(39.000000, 19.000000)" stroke="url(#linearGradient-1)" stroke-width="0.5">
            <path d="M0,20.1038143 C205.836142,-76.3070721 268.652622,210.427896 599,117.014239" id="Path-7"></path>
            <path d="M9,28.1038143 C214.836142,-68.3070721 277.652622,218.427896 608,125.014239" id="Path-7"></path>
            <path d="M18,36.1038143 C223.836142,-60.3070721 286.652622,226.427896 617,133.014239" id="Path-7"></path>
            <path d="M27,44.1038143 C232.836142,-52.3070721 295.652622,234.427896 626,141.014239" id="Path-7"></path>
            <path d="M36,52.1038143 C241.836142,-44.3070721 304.652622,242.427896 635,149.014239" id="Path-7"></path>
            <path d="M45,60.1038143 C250.836142,-36.3070721 313.652622,250.427896 644,157.014239" id="Path-7"></path>
            <path d="M54,68.1038143 C259.836142,-28.3070721 322.652622,258.427896 653,165.014239" id="Path-7"></path>
            <path d="M63,76.1038143 C268.836142,-20.3070721 331.652622,266.427896 662,173.014239" id="Path-7"></path>
            <path d="M72,84.1038143 C277.836142,-12.3070721 340.652622,274.427896 671,181.014239" id="Path-7"></path>
            <path d="M81,92.1038143 C286.836142,-4.30707209 349.652622,282.427896 680,189.014239" id="Path-7"></path>
            <path d="M90,100.103814 C295.836142,3.69292791 358.652622,290.427896 689,197.014239" id="Path-7"></path>
            <path d="M99,108.103814 C304.836142,11.6929279 367.652622,298.427896 698,205.014239" id="Path-7"></path>
            <path d="M0,20.1038143 C205.836142,-76.3070721 268.652622,210.427896 599,117.014239" id="Path-7"></path>
            <path d="M9,28.1038143 C214.836142,-68.3070721 277.652622,218.427896 608,125.014239" id="Path-7"></path>
            <path d="M18,36.1038143 C223.836142,-60.3070721 286.652622,226.427896 617,133.014239" id="Path-7"></path>
            <path d="M27,44.1038143 C232.836142,-52.3070721 295.652622,234.427896 626,141.014239" id="Path-7"></path>
            <path d="M36,52.1038143 C241.836142,-44.3070721 304.652622,242.427896 635,149.014239" id="Path-7"></path>
            <path d="M45,60.1038143 C250.836142,-36.3070721 313.652622,250.427896 644,157.014239" id="Path-7"></path>
            <path d="M54,68.1038143 C259.836142,-28.3070721 322.652622,258.427896 653,165.014239" id="Path-7"></path>
            <path d="M63,76.1038143 C268.836142,-20.3070721 331.652622,266.427896 662,173.014239" id="Path-7"></path>
            <path d="M72,84.1038143 C277.836142,-12.3070721 340.652622,274.427896 671,181.014239" id="Path-7"></path>
            <path d="M81,92.1038143 C286.836142,-4.30707209 349.652622,282.427896 680,189.014239" id="Path-7"></path>
            <path d="M90,100.103814 C295.836142,3.69292791 358.652622,290.427896 689,197.014239" id="Path-7"></path>
            <path d="M99,108.103814 C304.836142,11.6929279 367.652622,298.427896 698,205.014239" id="Path-7"></path>
            <path d="M108,116.103814 C313.836142,19.6929279 376.652622,306.427896 707,213.014239" id="Path-7"></path>
            <path d="M117,124.103814 C322.836142,27.6929279 385.652622,314.427896 716,221.014239" id="Path-7"></path>
            <path d="M126,132.103814 C331.836142,35.6929279 394.652622,322.427896 725,229.014239" id="Path-7"></path>
            <path d="M135,140.103814 C340.836142,43.6929279 403.652622,330.427896 734,237.014239" id="Path-7"></path>
            <path d="M144,148.103814 C349.836142,51.6929279 412.652622,338.427896 743,245.014239" id="Path-7"></path>
            <path d="M153,156.103814 C358.836142,59.6929279 421.652622,346.427896 752,253.014239" id="Path-7"></path>
            <path d="M162,164.103814 C367.836142,67.6929279 430.652622,354.427896 761,261.014239" id="Path-7"></path>
            <path d="M171,172.103814 C376.836142,75.6929279 439.652622,362.427896 770,269.014239" id="Path-7"></path>
            <path d="M180,180.103814 C385.836142,83.6929279 448.652622,370.427896 779,277.014239" id="Path-7"></path>
            <path d="M189,188.103814 C394.836142,91.6929279 457.652622,378.427896 788,285.014239" id="Path-7"></path>
            <path d="M198,196.103814 C403.836142,99.6929279 466.652622,386.427896 797,293.014239" id="Path-7"></path>
            <path d="M207,204.103814 C412.836142,107.692928 475.652622,394.427896 806,301.014239" id="Path-7"></path>
            <path d="M108,116.103814 C313.836142,19.6929279 376.652622,306.427896 707,213.014239" id="Path-7"></path>
            <path d="M117,124.103814 C322.836142,27.6929279 385.652622,314.427896 716,221.014239" id="Path-7"></path>
            <path d="M126,132.103814 C331.836142,35.6929279 394.652622,322.427896 725,229.014239" id="Path-7"></path>
            <path d="M135,140.103814 C340.836142,43.6929279 403.652622,330.427896 734,237.014239" id="Path-7"></path>
            <path d="M144,148.103814 C349.836142,51.6929279 412.652622,338.427896 743,245.014239" id="Path-7"></path>
            <path d="M153,156.103814 C358.836142,59.6929279 421.652622,346.427896 752,253.014239" id="Path-7"></path>
            <path d="M162,164.103814 C367.836142,67.6929279 430.652622,354.427896 761,261.014239" id="Path-7"></path>
            <path d="M171,172.103814 C376.836142,75.6929279 439.652622,362.427896 770,269.014239" id="Path-7"></path>
            <path d="M180,180.103814 C385.836142,83.6929279 448.652622,370.427896 779,277.014239" id="Path-7"></path>
            <path d="M189,188.103814 C394.836142,91.6929279 457.652622,378.427896 788,285.014239" id="Path-7"></path>
            <path d="M198,196.103814 C403.836142,99.6929279 466.652622,386.427896 797,293.014239" id="Path-7"></path>
            <path d="M207,204.103814 C412.836142,107.692928 475.652622,394.427896 806,301.014239" id="Path-7"></path>
        </g>
    </g>
</svg>