<?xml version="1.0" encoding="UTF-8" standalone="no"?>
<svg
   xmlns:dc="http://purl.org/dc/elements/1.1/"
   xmlns:cc="http://creativecommons.org/ns#"
   xmlns:rdf="http://www.w3.org/1999/02/22-rdf-syntax-ns#"
   xmlns:svg="http://www.w3.org/2000/svg"
   xmlns="http://www.w3.org/2000/svg"
   xmlns:sodipodi="http://sodipodi.sourceforge.net/DTD/sodipodi-0.dtd"
   xmlns:inkscape="http://www.inkscape.org/namespaces/inkscape"
   id="svg"
   width="400"
   height="211.78925404277518"
   viewBox="0, 0, 400,211.78925404277518"
   version="1.1"
   sodipodi:docname="box.svg"
   inkscape:version="0.92.3 (2405546, 2018-03-11)">
  <metadata
     id="metadata13">
    <rdf:RDF>
      <cc:Work
         rdf:about="">
        <dc:format>image/svg+xml</dc:format>
        <dc:type
           rdf:resource="http://purl.org/dc/dcmitype/StillImage" />
      </cc:Work>
    </rdf:RDF>
  </metadata>
  <defs
     id="defs11" />
  <sodipodi:namedview
     pagecolor="#ffffff"
     bordercolor="#666666"
     borderopacity="1"
     objecttolerance="10"
     gridtolerance="10"
     guidetolerance="10"
     inkscape:pageopacity="0"
     inkscape:pageshadow="2"
     inkscape:window-width="1920"
     inkscape:window-height="1025"
     id="namedview9"
     showgrid="false"
     inkscape:zoom="0.855"
     inkscape:cx="200"
     inkscape:cy="105.89463"
     inkscape:window-x="0"
     inkscape:window-y="27"
     inkscape:window-maximized="1"
     inkscape:current-layer="svg" />
  <g
     id="svgg"
     transform="matrix(0.580625,0,0,0.580625,83.885865,44.392055)">
    <path
       id="path0"
       d="M 11.209,0.316 C 7.017,1.37 3.362,4.341 1.458,8.242 -0.141,11.516 -0.014,5.156 0.055,78.712 l 0.062,65.993 0.45,2.817 c 2.804,17.558 10.225,32.04 22.368,43.652 34.603,33.089 91.495,25.389 115.866,-15.68 0.923,-1.556 1.703,-2.857 1.733,-2.891 0.03,-0.035 0.407,0.575 0.838,1.356 20.647,37.378 70.254,49.322 106.264,25.585 36.59,-24.119 44.612,-74.548 17.328,-108.927 C 237.079,55.48 184.3,52.86 152.945,85.055 c -4.676,4.801 -9.568,11.354 -11.884,15.917 l -0.466,0.919 -0.362,-0.606 c -0.198,-0.334 -0.884,-1.499 -1.524,-2.589 C 117.088,61.83 66.559,51.13 31.612,76.017 L 29.943,77.206 29.838,44.393 29.734,11.581 29.177,10.056 C 26.486,2.691 18.652,-1.556 11.209,0.316 m 273.994,63.429 c -10.424,1.981 -16.06,12.183 -11.643,21.075 0.687,1.382 4.034,5.608 19.421,24.518 10.225,12.566 19.482,23.947 20.57,25.291 l 1.98,2.443 -20.379,24.996 c -23.911,29.327 -22.79,27.728 -23.001,32.82 -0.536,12.925 15.21,20.362 26.323,12.433 1.815,-1.296 1.419,-0.828 20.451,-24.158 l 17.099,-20.961 1.896,2.311 c 1.043,1.27 8.955,10.961 17.582,21.533 16.522,20.249 17.198,21.007 20.075,22.493 11.131,5.749 24.329,-1.322 24.31,-13.025 -0.009,-5.741 1.845,-3.045 -23.153,-33.677 -11.017,-13.501 -20.055,-24.618 -20.084,-24.703 -0.029,-0.085 9.203,-11.515 20.516,-25.4 24.332,-29.863 22.997,-27.884 22.784,-33.781 -0.457,-12.603 -16.146,-18.991 -26.772,-10.9 -1.224,0.932 -4.23,4.507 -19.187,22.827 -9.755,11.948 -17.793,21.778 -17.861,21.845 -0.069,0.067 -6.498,-7.696 -14.288,-17.251 -7.79,-9.556 -15.8,-19.376 -17.8,-21.822 -6.461,-7.9 -11.53,-10.297 -18.839,-8.907 M 79.812,92.876 c 31.659,3.463 49.581,39.458 33.275,66.831 -16.573,27.821 -55.989,29.628 -74.747,3.427 -22.482,-31.403 2.941,-74.473 41.472,-70.258 m 131.873,0 c 31.652,3.462 49.577,39.464 33.274,66.831 -18.254,30.645 -63.273,28.866 -78.655,-3.108 -15.26,-31.722 10.266,-67.565 45.381,-63.723"
       inkscape:connector-curvature="0"
       style="fill:#0464d4;fill-rule:evenodd;stroke:none" />
    <path
       id="path1"
       d=""
       inkscape:connector-curvature="0"
       style="fill:#0864d4;fill-rule:evenodd;stroke:none" />
    <path
       id="path2"
       d=""
       inkscape:connector-curvature="0"
       style="fill:#0864d4;fill-rule:evenodd;stroke:none" />
    <path
       id="path3"
       d=""
       inkscape:connector-curvature="0"
       style="fill:#0864d4;fill-rule:evenodd;stroke:none" />
    <path
       id="path4"
       d=""
       inkscape:connector-curvature="0"
       style="fill:#0864d4;fill-rule:evenodd;stroke:none" />
  </g>
</svg>
