<svg id="Layer_1" data-name="Layer 1" xmlns="http://www.w3.org/2000/svg" viewBox="0 0 298.96 79"><defs><style>.cls-1{fill:#f78f1e;}.cls-2{fill:#f36d21;}.cls-3{fill:#f05a70;}.cls-4{fill:#8ea53c;}.cls-5{fill:#f4be18;}.cls-6{fill:#9c7db6;}.cls-7{fill:#969b9d;}.cls-8{fill:#0b8eb4;}.cls-9{fill:#60c3e6;}.cls-10{fill:#4d4d4d;}</style></defs><title>brandwatch</title><circle class="cls-1" cx="63.52" cy="32.98" r="6.79"/><circle class="cls-2" cx="43.9" cy="36.69" r="10.39"/><circle class="cls-3" cx="60.97" cy="50.26" r="8.7"/><circle class="cls-4" cx="83.88" cy="41.46" r="5.62"/><circle class="cls-5" cx="33.19" cy="56.73" r="4.88"/><circle class="cls-5" cx="53.76" cy="22.16" r="4.45"/><circle class="cls-6" cx="25.87" cy="2.65" r="2.65"/><circle class="cls-7" cx="2.44" cy="66.81" r="2.44"/><circle class="cls-8" cx="51.32" cy="75.5" r="3.5"/><circle class="cls-9" cx="22.27" cy="37.75" r="3.5"/><circle class="cls-2" cx="46.23" cy="52.28" r="3.18"/><circle class="cls-9" cx="78.26" cy="13.68" r="3.61"/><circle class="cls-1" cx="78.26" cy="61.93" r="2.86"/><path class="cls-10" d="M112.45,36.21h0a8.06,8.06,0,0,0-4.81,1.6V28.89H104V49.72c0,5.26,3.43,8.93,8.24,8.93h0a8.14,8.14,0,0,0,6.64-3.2c1.6-2.06,2.29-4.58,2.29-8s-0.69-6-2.29-7.78A7.11,7.11,0,0,0,112.45,36.21Zm5.26,11a10.06,10.06,0,0,1-1.37,5.72,4.58,4.58,0,0,1-3.89,1.83c-3.2,0-4.58-2.75-4.58-5.26V44.22c0-2.52,2.75-4.35,4.58-4.35a4.58,4.58,0,0,1,3.89,1.83A9.76,9.76,0,0,1,117.71,47.2Z"/><path class="cls-10" d="M166.23,36.21c-5,0-8.24,3.2-8.24,8.7V58h3.66v-13c0-4.58,3.2-5,4.58-5s4.58,0.46,4.58,5V58h3.66v-13C174.24,39.65,171.27,36.21,166.23,36.21Z"/><path class="cls-10" d="M134.65,40.1a2.9,2.9,0,0,0-1.37-.23c-1.37,0-4.58.46-4.58,5V58H125v-13c0-5.49,3-8.7,8.24-8.7a7.06,7.06,0,0,1,2.29.23Z"/><path class="cls-10" d="M191.63,28.66v8.93a11,11,0,0,0-4.58-1.6h0a8.14,8.14,0,0,0-6.64,3.2A12.1,12.1,0,0,0,178.13,47c0,3.43.69,6.18,2.29,8a8.83,8.83,0,0,0,6.64,3.2h0c4.81,0,8.24-3.66,8.24-8.93V28.43Zm0,15.56v5.26c0,2.52-1.37,5.26-4.58,5.26a4.58,4.58,0,0,1-3.89-1.83,10.06,10.06,0,0,1-1.37-5.72,9.26,9.26,0,0,1,1.37-5.49,4.58,4.58,0,0,1,3.89-1.83h0C188.89,39.88,191.63,41.71,191.63,44.22Z"/><path class="cls-10" d="M270.13,39.88A5.62,5.62,0,0,1,273.56,41a5.22,5.22,0,0,1,1.37,2.75l3.43-.23A6.65,6.65,0,0,0,275.85,38,8.79,8.79,0,0,0,270.13,36a8.14,8.14,0,0,0-6.64,3.2c-1.6,2.06-2.29,4.58-2.29,8s0.69,6,2.29,8a8.14,8.14,0,0,0,6.64,3.2,8,8,0,0,0,5.72-2.06,7.36,7.36,0,0,0,2.52-5.49l-3.43-.23a3.4,3.4,0,0,1-1.37,3,5.62,5.62,0,0,1-3.43,1.14,4.58,4.58,0,0,1-3.89-1.83,10.06,10.06,0,0,1-1.37-5.72,10.06,10.06,0,0,1,1.37-5.72A5.13,5.13,0,0,1,270.13,39.88Z"/><path class="cls-10" d="M291.18,36.21a7.73,7.73,0,0,0-4.58,1.37,0.87,0.87,0,0,0-.46.46V28.89h-3.66V58.18h3.66v-13c0-2.75,1.83-5.26,4.81-5.26,2.75,0,4.35,2.29,4.35,5V58H299V45.14C298.73,37.59,293.47,36.21,291.18,36.21Z"/><path class="cls-10" d="M258,54.52a2.41,2.41,0,0,1-2.75,0A2.68,2.68,0,0,1,254.11,52V40.33H258V36.67h-3.89V32.55h-3.66V36.9h-2.29v3.66h2.29V52.23c0,3,1.37,5,3.2,6a6.45,6.45,0,0,0,6.41-.69Z"/><path class="cls-10" d="M244.73,43.54A6.78,6.78,0,0,0,242.44,38a9,9,0,0,0-5.72-1.83A9.49,9.49,0,0,0,231,38a6.28,6.28,0,0,0-2.29,4.12l3.43,0.23a3.47,3.47,0,0,1,.92-1.83,4.47,4.47,0,0,1,3.2-.92,5.52,5.52,0,0,1,3.43.92,3.28,3.28,0,0,1,1.14,2.52v1.37h-4.12c-2.29,0-4.58,0-6.41,1.37a6.21,6.21,0,0,0-2.52,5.26c0,4.12,3.2,6.64,8.24,6.64a10.33,10.33,0,0,0,5.72-1.6L242,57.5h2.75V49.72h0V43.54Zm-3.66,6.87c0,3.2-2.75,4.35-5,4.35-1.37,0-4.58-.23-4.58-3a3.19,3.19,0,0,1,1.14-2.52c0.92-.69,2.52-0.69,4.35-0.69h3.89V48.8h0v1.6h0.23Z"/><path class="cls-10" d="M153.87,43.54A6.78,6.78,0,0,0,151.58,38a9,9,0,0,0-5.72-1.83A9.49,9.49,0,0,0,140.14,38a6.28,6.28,0,0,0-2.29,4.12l3.43,0.23a3.47,3.47,0,0,1,.92-1.83,4.47,4.47,0,0,1,3.2-.92,5.52,5.52,0,0,1,3.43.92A3.28,3.28,0,0,1,150,43.08v1.37h-4.12c-2.29,0-4.58,0-6.41,1.37a6.21,6.21,0,0,0-2.52,5.26c0,4.12,3.2,6.64,8.24,6.64a10.33,10.33,0,0,0,5.72-1.6l0.23,1.37h2.75V49.72h0V43.54Zm-3.43,6.87c0,3.2-2.75,4.35-5,4.35-1.37,0-4.58-.23-4.58-3A3.19,3.19,0,0,1,142,49.26c0.92-.69,2.52-0.69,4.35-0.69h3.89V48.8h0v1.6h0.23Z"/><polygon class="cls-10" points="223.21 36.67 218.87 52.23 214.29 36.67 210.86 36.67 206.51 52.23 201.93 36.67 198.5 36.67 204.68 58.18 208.11 58.18 212.69 42.62 217.03 58.18 220.47 58.18 226.65 36.67 223.21 36.67"/></svg>