<svg xmlns="http://www.w3.org/2000/svg" xmlns:xlink="http://www.w3.org/1999/xlink" width="792" height="167.289" viewBox="0 0 792 167.289"><path fill="#2A3441" d="M91.015 125.838h23.838c-3.502 13.35-10.182 23.516-20.025 30.505-9.86 7.308-22.238 10.945-37.17 10.945-18.113 0-32.243-5.866-42.413-17.616C5.075 138.24 0 121.864 0 100.562c0-20.324 4.91-36.21 14.77-47.637C24.923 41.167 39.07 35.27 57.183 35.27c19.077 0 33.833 5.73 44.325 17.162 5.716 6.994 9.844 15.097 12.398 24.3h-33.37c-1.593-3.16-3.176-5.534-4.75-7.14-4.162-4.45-10.022-6.68-17.636-6.68-7.01 0-12.726 2.23-17.164 6.68-5.717 6.356-8.578 16.866-8.578 31.475 0 14.604 2.86 24.922 8.578 30.963 4.108 5.08 10.298 7.618 18.587 7.618 5.402 0 9.984-1.098 13.82-3.327.952-.31 1.816-.878 2.605-1.667.803-.81 1.667-1.676 2.638-2.623.62-.962 1.9-2.22 3.794-3.812 1.937-1.576 4.783-2.38 8.585-2.38M137.648 153.484c-6.663-5.717-11.447-13.41-14.297-23.105-2.86-9.697-4.286-19.817-4.286-30.26 0-8.582 1.194-17.164 3.55-25.746 2.408-8.58 6.127-15.752 11.236-21.45 8.252-9.532 18.9-15.18 31.93-16.93 13.036-1.737 24.793-.725 35.274 3.107 12.07 4.75 20.96 13.036 26.657 24.78 5.407 10.494 8.125 22.71 8.125 36.682 0 10.197-1.115 18.938-3.324 26.245-2.225 7.308-5.11 13.494-8.562 18.573-7.664 10.477-17.36 16.996-29.1 19.543-10.48 2.874-21.058 3.1-31.687.698-10.64-2.363-19.16-6.42-25.512-12.136m22.88-83.892c-6.668 7.32-9.678 18.194-9.026 32.654.606 14.48 3.31 24.562 8.088 30.263 1.9 2.553 5.243 4.685 9.988 6.42 4.784 1.765 9.598 1.917 14.54.493 4.916-1.448 9.305-5.02 13.12-10.735 3.816-5.715 5.878-14.934 6.188-27.62 0-11.446-1.815-20.03-5.484-25.74-3.635-5.736-7.862-9.37-12.64-10.975-4.75-1.572-9.534-1.667-14.28-.242-4.764 1.438-8.27 3.272-10.495 5.482M351.64 164.924h-16.667c-4.77 0-8.666-1.516-11.68-4.534-3.027-3.03-4.52-6.905-4.52-11.673V83.905c0-7.63-2.32-13.2-6.926-16.7-4.6-3.488-9.76-5.243-15.49-5.243-5.717 0-10.808 1.755-15.242 5.242-4.458 3.502-6.683 9.07-6.683 16.7v81.02h-33.34V90.57c0-21.597 5.614-36.057 16.913-43.38 11.268-7.3 23.727-11.265 37.403-11.92 13.983 0 26.84 3.668 38.613 10.973 11.76 7.303 17.62 22.09 17.62 44.328v74.354zM569.605 125.838h23.835c-3.487 13.35-10.174 23.515-19.998 30.505-9.856 7.308-22.25 10.946-37.192 10.946-18.102 0-32.255-5.868-42.42-17.618-10.175-11.43-15.262-27.807-15.262-49.11 0-20.323 4.942-36.208 14.798-47.636 10.158-11.758 24.318-17.656 42.398-17.656 19.074 0 33.84 5.73 44.348 17.163 10.166 11.773 15.238 28.132 15.238 49.09v5.242c0 1.607-.158 2.714-.485 3.335H512.43c.305 9.85 2.686 17.163 7.135 21.933 4.115 5.078 10.333 7.617 18.596 7.617 5.397 0 10-1.1 13.813-3.326.955-.312 1.82-.88 2.623-1.668.805-.812 1.685-1.677 2.64-2.623.286-.964 1.5-2.222 3.57-3.813 2.038-1.58 5.01-2.382 8.8-2.382M512.43 88.654h48.594c-.638-8.583-2.844-14.936-6.656-19.062-4.147-4.45-10.022-6.68-17.656-6.68-6.982 0-12.69 2.23-17.147 6.68-4.45 4.457-6.832 10.81-7.135 19.062M600.597 164.924v-61.5c0-12.38 1.835-22.78 5.48-31.21 3.654-8.417 8.65-15.164 15.018-20.24 6.034-4.783 13.1-8.27 21.212-10.495 8.08-2.215 16.42-3.34 25-3.34h4.775v33.844h-10.946c-9.226 0-16.07 2.23-20.498 6.648-4.46 4.47-6.688 11.463-6.688 20.997v65.295h-33.355zM731.638 164.924c-10.46.613-21.832.47-34.053-.485-12.25-.955-18.337-8.734-18.337-23.35V.948h17.154c4.11 0 7.778 1.607 10.946 4.78 3.184 3.18 4.777 6.997 4.777 11.447v21.438h19.512v6.68c0 4.748-1.576 8.645-4.738 11.677-3.19 3.03-7.013 4.533-11.447 4.533h-3.327v70.528c0 5.392 3.152 8.105 9.528 8.105h9.983v24.79z"/><g opacity=".5"><defs><path id="a" d="M358.257 42.54h29.986v52.304h-29.986z"/></defs><clipPath id="b"><use xlink:href="#a" overflow="visible"/></clipPath><path clip-path="url(#b)" fill="#2A3441" d="M362.628 42.54l-4.37 11.333 14.34 40.97L388.242 51.6"/></g><g opacity=".75"><defs><path id="c" d="M378.97 36.665h52.317V154.06H378.97z"/></defs><clipPath id="d"><use xlink:href="#c" overflow="visible"/></clipPath><path clip-path="url(#d)" fill="#2A3441" d="M405.68 36.665l-26.71 76.405 14.314 40.99 38.003-108.355"/></g><path fill="#2A3441" d="M483.05 45.326L474.603 0l-35.04 29.967 8.377 2.945-45.687 132.012-.03.106h28.807l42.543-123.063M741.587 139.582H762.4v3.89h-8.173v21.822h-4.502V143.47h-8.138M765.317 139.582h6.337l7.094 20.13h.073l6.914-20.13H792v25.712h-4.285V145.45h-.07l-7.13 19.844h-3.712l-7.13-19.843h-.07v19.844h-4.286"/></svg>