<?xml version="1.0" encoding="utf-8"?>
<!-- Generator: Adobe Illustrator 19.0.1, SVG Export Plug-In . SVG Version: 6.00 Build 0)  -->
<svg version="1.1" id="Слой_2" xmlns="http://www.w3.org/2000/svg" xmlns:xlink="http://www.w3.org/1999/xlink" x="0px" y="0px"
	 width="500px" height="500px" viewBox="0 0 500 500" enable-background="new 0 0 500 500" xml:space="preserve">
<g>
	<path fill="#BEE3EC" d="M266,20.4c4.6,0.9,9.2,1.7,13.8,2.6c21.6,4.4,40.8,13.8,57.9,27.6c16.6,13.4,29.4,29.7,38.5,49
		c6.3,13.3,10.4,27.3,11.9,42c0.7,6.1,1.4,12.3,1.2,18.4c-1.1,31.3-10.6,59.6-30.3,84.3c-13,16.3-28.9,29.1-47.5,38.3
		c-13.3,6.6-27.4,10.7-42.2,12.7c-2.9,0.4-6-0.3-8.7,1.2c-6.4,0-12.8,0-19.2,0c-7-0.6-14-0.8-21-2.4c-24.8-5.9-46.7-17.3-65.2-35
		c-19.1-18.2-32-39.9-38.9-65.3c-2.1-7.6-3.4-15.3-3.4-23.2c0-1,0.3-2-0.3-2.9c0-6.4,0-12.8,0-19.2c0.9-2.6,0.3-5.2,0.5-7.8
		c2.9-27.7,14.2-51.7,32-72.8c14.9-17.7,33.3-30.6,54.7-39.1c11.3-4.5,22.9-8.1,35.3-8c0.3,0,0.6-0.1,0.9-0.3
		C246.1,20.4,256.1,20.4,266,20.4z"/>
	<path fill="#4B4B45" d="M55.5,404c0-18.7,0-37.4-0.1-56.1c0-2.5,0.5-3.3,3.2-3.3c21.9,0.1,43.8,0.1,65.7,0c2.5,0,3.6,0.5,3.3,3.3
		c-0.2,3-0.2,6,0,9c0.2,2.6-0.7,3.1-3.2,3.1c-16.3-0.1-32.5,0-48.8-0.1c-3.3,0-4,0.9-3.9,4c0.2,10.1,0.2,20.1,0,30.2
		c-0.1,3.1,0.5,4.1,3.9,4c14.4-0.2,28.8,0,43.1-0.2c3.2,0,4,1,3.7,3.9c-0.2,2.6-0.2,5.3,0,8c0.3,2.9-0.6,3.7-3.6,3.7
		c-14.5-0.2-29,0-43.5-0.1c-2.9,0-3.7,0.7-3.7,3.7c0.2,14.4,0,28.8,0.1,43.1c0,2.6-0.6,3.5-3.3,3.3c-3.4-0.2-6.9-0.2-10.3,0
		c-2.4,0.1-2.9-0.8-2.9-3C55.6,441.6,55.5,422.8,55.5,404z"/>
	<path fill="#4B4B45" d="M150.5,496.9c6.3-13.3,12.1-26,18.3-38.5c1.4-2.9,1.2-5.1-0.1-7.9c-10.5-21.4-20.8-42.9-31.2-64.3
		c-0.5-1-1.2-1.9-1.1-3.4c5.4,0,10.7,0,16.1,0c1.9,0,2,1.4,2.6,2.5c7.3,16.2,14.6,32.4,21.9,48.6c0.6,1.3,1.2,2.5,2.1,4.3
		c0.8-1.7,1.4-2.9,1.9-4.2c7-16.2,14.1-32.4,21-48.6c0.9-2.1,1.9-2.8,4.1-2.7c4.4,0.2,8.8,0.1,13.3,0.1c0.6,1.4-0.4,2.4-0.9,3.4
		c-16.5,36-33.1,72-49.5,108c-1,2.2-2.2,2.9-4.5,2.8C160.1,496.8,155.6,496.9,150.5,496.9z"/>
	<path fill="#4B4B45" d="M443.9,395.5c5.8-9.5,14-14.2,24.9-14c4.3,0.1,4.3,0.1,4.3,4.4c0,3.4-0.1,6.9,0,10.3
		c0.1,2.2-0.7,2.6-2.7,2.3c-3.4-0.6-6.9-0.4-10.2,0.3c-9.1,1.8-15,8.6-15.7,18.8c-1,13.9-0.3,27.9-0.4,41.8c0,3.1-0.6,4.4-4,4.1
		c-3.1-0.3-6.2-0.1-9.3,0c-1.8,0.1-2.5-0.4-2.5-2.4c0.1-25.3,0.1-50.7,0-76c0-2,0.8-2.4,2.5-2.3c3.4,0.1,6.9,0.1,10.3,0
		c2-0.1,2.8,0.4,2.6,2.5C443.7,388.6,443.9,392.1,443.9,395.5z"/>
	<path fill="#FEFEFE" d="M251.2,53.6c57-0.6,105.1,47.4,104.5,105.2c-0.6,57.3-45.9,104.2-104.6,104.2c-58.5,0-104.9-45.7-105-104.8
		C146,99.9,192.9,53.4,251.2,53.6z"/>
	<path fill="#4B4B45" d="M250.7,452.7c0,2.6-0.1,5.2,0,7.8c0.1,2.1-0.4,3-2.7,2.9c-3.3-0.2-6.6-0.2-9.9,0c-2.3,0.1-3-0.7-3-3
		c0.1-9.8,0-19.7,0-29.5c0-28.5,0-57-0.1-85.6c0-2.5,0.6-3.5,3.2-3.3c3.2,0.2,6.4,0.2,9.6,0c2.2-0.1,2.8,0.5,2.8,2.7
		c-0.1,14.9-0.1,29.8-0.1,44.8c0,1.2,0,2.4,0,4.2c7.4-10.4,17.5-13.8,29.2-13.2c13.7,0.7,24,7,29.6,19.5c7,15.3,6.9,30.9-0.5,46.1
		c-7.7,15.8-25.9,23.1-42.7,17.8C260,462,255,458.2,250.7,452.7z M254.8,439.9c4.6,7.8,11.5,11.9,20.5,11.6
		c9.3-0.3,16.1-5,19.9-13.5c3.2-7.2,3.7-14.7,2.5-22.4c-1.9-12.3-10.1-20.4-21.1-21c-12.6-0.7-21.6,6.1-24.9,18.7
		c-0.8,3.1-1.2,6.3-1.1,9.3C250.5,428.8,251.7,434.6,254.8,439.9z"/>
	<path fill="#4B4B45" d="M377.6,427.6c-9.1,0-18.1,0.1-27.2-0.1c-2.3,0-3.1,0.6-2.8,2.9c1,10.5,9.1,19.3,19.5,21.1
		c11.9,2.1,21.6-2.8,26.3-13.5c0.9-2.1,1.8-2.2,3.6-1.5c2.8,1.1,5.6,2.2,8.4,2.9c2.2,0.6,2.5,1.4,1.6,3.4
		c-6,13.7-16.5,21.3-31.3,22.7c-27.1,2.4-46.8-18.5-44.3-47.1c1.4-16,8.9-28.5,23.9-35.1c24.4-10.9,50.5,5.2,52.6,32.1
		c0.3,3.2,0.6,6.4,0.3,9.6c-0.1,2-0.9,2.6-2.9,2.5C396.2,427.5,386.9,427.6,377.6,427.6z M389.7,414.8c2,0,2.4-0.6,2.1-2.5
		c-1.6-11.1-9.5-17.8-21.4-18.1c-10.8-0.3-20.3,7.4-22.2,17.6c-0.4,2.4,0.3,3,2.6,3c6.3-0.2,12.6-0.1,18.9-0.1
		C376.5,414.7,383.1,414.7,389.7,414.8z"/>
	<path fill="#4B4B45" d="M232.5,122.1c-0.7,1.1-0.5,2.4-0.5,3.6c0,9,0.1,17.9-0.1,26.9c-0.1,3.1,0.5,4.1,3.9,4
		c19.9-0.2,39.8-0.1,59.7-0.1c2.3,0,3.2,0.4,3.2,3c-0.2,9.3-0.2,18.6,0,27.8c0,2.4-0.7,2.9-3,2.9c-19.9-0.1-39.8,0-59.7-0.1
		c-3.3,0-3.9,0.9-3.9,4c0.2,8.9,0,17.9,0.1,26.9c0,2.4-0.7,2.9-3,2.9c-9.4-0.1-18.8-0.1-28.2,0c-2.5,0-2.9-0.8-2.8-3
		c0.1-9.3,0.1-18.6,0-27.9c0-2,0.6-3.5,2-4.9c9.6-9.4,19.2-19,28.7-28.5c0.8-0.8,1.6-1.7,3-3.1c-5,0-9.3,0-13.7,0
		c-5.9,0-11.7,0-17.6,0c-0.8,0-2.5,0.8-2.3-1.2c1.4-1.3,3.1-1,4.7-1c7.6,0,15.2,0,22.9,0c4.2,0,4.4-0.2,4.4-4.5
		c0-8-0.1-15.9,0.1-23.9C230.6,124.3,229.9,122.2,232.5,122.1z"/>
	<path fill="#4B4B45" d="M232.5,122.1c-1.6,0.7-0.9,2.1-0.9,3.2c-0.1,8.8-0.1,17.7,0,26.5c0,2.5-0.6,3.5-3.3,3.4
		c-9.9-0.2-19.9-0.1-29.8-0.1c0-10.3-0.1-20.5-0.2-30.8c0-1.4,0.6-2.2,1.5-3.1c10.3-10.3,20.6-20.7,30.8-31.1
		c1.1-1.1,2.3-1.5,3.8-1.5c20.5,0,41.1,0.1,61.6,0c2,0,2.7,0.4,2.6,2.5c-0.1,9.5-0.1,19-0.1,28.5c0,1.3,0.4,2.6-1.8,2.6
		C275.3,122.2,253.9,122.1,232.5,122.1z"/>
</g>
</svg>
