<?xml version="1.0" encoding="UTF-8"?>
<svg xmlns="http://www.w3.org/2000/svg" xmlns:xlink="http://www.w3.org/1999/xlink" width="8pt" height="8pt" viewBox="0 0 8 8" version="1.1">
<g id="surface4320788">
<path style=" stroke:none;fill-rule:nonzero;fill:rgb(12.941176%,60.784314%,61.176471%);fill-opacity:1;" d="M 7.546875 3.394531 L 6.601562 3.242188 C 6.542969 3.050781 6.46875 2.867188 6.375 2.695312 L 6.925781 1.910156 C 6.972656 1.847656 6.964844 1.757812 6.910156 1.703125 L 6.285156 1.082031 C 6.230469 1.027344 6.144531 1.019531 6.078125 1.066406 L 5.304688 1.621094 C 5.128906 1.527344 4.945312 1.449219 4.753906 1.394531 L 4.589844 0.453125 C 4.578125 0.375 4.511719 0.320312 4.433594 0.320312 L 3.554688 0.320312 C 3.472656 0.320312 3.40625 0.375 3.394531 0.453125 L 3.242188 1.390625 C 3.050781 1.445312 2.867188 1.523438 2.691406 1.617188 L 1.917969 1.066406 C 1.855469 1.019531 1.769531 1.027344 1.714844 1.082031 L 1.089844 1.703125 C 1.035156 1.757812 1.027344 1.84375 1.074219 1.910156 L 1.617188 2.6875 C 1.519531 2.863281 1.441406 3.046875 1.386719 3.238281 L 0.453125 3.394531 C 0.378906 3.410156 0.320312 3.476562 0.320312 3.554688 L 0.320312 4.433594 C 0.320312 4.511719 0.375 4.578125 0.453125 4.589844 L 1.386719 4.757812 C 1.441406 4.949219 1.519531 5.132812 1.617188 5.308594 L 1.066406 6.078125 C 1.019531 6.144531 1.027344 6.230469 1.082031 6.285156 L 1.703125 6.910156 C 1.757812 6.964844 1.84375 6.972656 1.910156 6.925781 L 2.6875 6.382812 C 2.863281 6.476562 3.046875 6.554688 3.238281 6.609375 L 3.394531 7.546875 C 3.40625 7.625 3.476562 7.679688 3.554688 7.679688 L 4.433594 7.679688 C 4.511719 7.679688 4.578125 7.625 4.589844 7.546875 L 4.757812 6.605469 C 4.949219 6.550781 5.132812 6.472656 5.304688 6.375 L 6.089844 6.925781 C 6.15625 6.972656 6.242188 6.964844 6.296875 6.910156 L 6.917969 6.285156 C 6.972656 6.230469 6.980469 6.144531 6.933594 6.078125 L 6.375 5.300781 C 6.46875 5.128906 6.546875 4.945312 6.601562 4.757812 L 7.546875 4.589844 C 7.625 4.578125 7.679688 4.511719 7.679688 4.433594 L 7.679688 3.554688 C 7.679688 3.476562 7.621094 3.40625 7.546875 3.394531 Z M 4 5.121094 C 3.382812 5.121094 2.878906 4.617188 2.878906 4 C 2.878906 3.382812 3.382812 2.878906 4 2.878906 C 4.617188 2.878906 5.121094 3.382812 5.121094 4 C 5.121094 4.617188 4.617188 5.121094 4 5.121094 Z M 4 5.121094 "/>
</g>
</svg>
