<?xml version="1.0" encoding="UTF-8" standalone="no"?>
<!-- Created with Inkscape (http://www.inkscape.org/) -->

<svg
   xmlns:dc="http://purl.org/dc/elements/1.1/"
   xmlns:cc="http://creativecommons.org/ns#"
   xmlns:rdf="http://www.w3.org/1999/02/22-rdf-syntax-ns#"
   xmlns:svg="http://www.w3.org/2000/svg"
   xmlns="http://www.w3.org/2000/svg"
   version="1.1"
   width="307.8125"
   height="71.875"
   viewBox="0 0 246.25 57.5"
   id="svg2">
  <metadata
     id="metadata38">
    <rdf:RDF>
      <cc:Work
         rdf:about="">
        <dc:format>image/svg+xml</dc:format>
        <dc:type
           rdf:resource="http://purl.org/dc/dcmitype/StillImage" />
        <dc:title></dc:title>
      </cc:Work>
    </rdf:RDF>
  </metadata>
  <defs
     id="defs4">
    <clipPath
       id="clip1">
      <path
         d="m 0,932.5 0,57.5 246.25,0 0,-57.5"
         id="path7" />
    </clipPath>
  </defs>
  <g
     transform="translate(0,-932.5)"
     id="misc2svg">
    <g
       clip-path="url(#clip1)"
       id="g10">
      <path
         d="m 0,990 246.25,0 0,-57.5 L 0,932.5 0,990 z m 0,0"
         id="path12"
         style="fill:#ffffff;fill-opacity:1;fill-rule:nonzero;stroke:none" />
      <path
         d="m 0,978.75 246.25,0 0,-46.25 -246.25,0 0,46.25 z m 0,0"
         id="path14"
         style="fill:#265799;fill-opacity:1;fill-rule:nonzero;stroke:none" />
      <path
         d="m 0,990 246.25,0 0,-7 -246.25,0 0,7 z m 0,0"
         id="path16"
         style="fill:#f07023;fill-opacity:1;fill-rule:nonzero;stroke:none" />
      <path
         d="m 166.24219,970.0625 7.4375,0 0,-7.4375 -7.4375,0 0,7.4375 z m 0,0"
         id="path18"
         style="fill:#f07023;fill-opacity:1;fill-rule:nonzero;stroke:none" />
      <path
         d="m 13.261719,946.63672 7.484375,0 0,-5.76172 -7.484375,0 0,5.76172 z m 0,23.42578 7.484375,0 0,-20.45703 -7.484375,0 0,20.45703"
         id="path20"
         style="fill:#ffffff;fill-opacity:1;fill-rule:evenodd;stroke:none" />
      <path
         d="m 76.6875,957.11328 c 0,-2.85156 -1.34375,-4.00391 -5.886719,-4.00391 -5.089843,0 -5.894531,1.15625 -5.894531,3.82813 l 11.78125,0.17578 z m 0.222656,7.06641 7.019532,0.004 c 0,5.04297 -4.453126,6.20703 -10.148438,6.20703 l -5.882812,0 c -5.15625,0 -10.472657,-0.96093 -10.472657,-9.69531 l 0,-2.0039 c 0,-7.75 3.804688,-10.1211 9.453125,-10.1211 l 5.46875,0 c 8.292969,0 11.578125,2.4375 11.578125,9.51172 l 0,3.32813 -19.019531,0 0,1.4414 c 0,2.38672 1.742188,2.99219 4.996094,2.99219 l 2.40625,0 c 3.726562,0 4.601562,0 4.601562,-1.66406"
         id="path22"
         style="fill:#ffffff;fill-opacity:1;fill-rule:evenodd;stroke:none" />
      <path
         d="m 120.07422,970.0625 7.48047,0 0,-29.19531 -7.48047,0 0,29.19531 z m 0,0"
         id="path24"
         style="fill:#ffffff;fill-opacity:1;fill-rule:nonzero;stroke:none" />
      <path
         d="m 101.6875,965.83594 c 5.35156,0 6.05469,-0.80078 6.05469,-2.37891 0,-1.73437 -0.64063,-2.30078 -4.94922,-2.30078 l -3.472658,0 c -3.335937,0 -4.179687,0.75781 -4.179687,2.62891 0,1.53515 1.28125,2.05078 4.304687,2.05078 l 2.242188,0 z m -13.78125,-2.91016 c 0,-5.46875 3.6875,-5.82031 11.332031,-5.82031 4.316409,0 6.589849,0.1289 8.035159,1.61328 l 0.30469,0.3125 0,-2.26953 c 0,-2.16797 -0.72266,-2.95313 -3.84766,-2.95313 l -4.613282,0 c -2.421876,0 -3.183594,-0.0508 -3.183594,0.94141 l -7.253906,0 c 0,-4.23828 3.929687,-5.48438 9.214843,-5.48438 l 9.101559,0 c 5.30469,0 8.06641,2.51172 8.06641,7.29297 l 0,13.4961 -7.07422,0 0,-2.62891 -0.30078,0.31641 c -2.13281,2.21093 -2.89844,2.64062 -6.77344,2.64062 l -5.347654,0 c -4.753906,0.0391 -7.660156,-1.0039 -7.660156,-5.74219 l 0,-1.71484"
         id="path26"
         style="fill:#ffffff;fill-opacity:1;fill-rule:evenodd;stroke:none" />
      <path
         d="m 26.039062,957.96094 c 0,-5.21094 1.144532,-8.6836 10.960938,-8.6836 3.429688,0 7.539062,1.03516 8.003906,4.15235 l 0.542969,0.0117 0,-12.57422 7.480469,0 0,29.19531 -6.992188,0 0,-3.83594 -0.492187,0 c -0.863281,2.60156 -3.699219,4.16406 -8.378907,4.16406 -9.980468,0 -11.125,-3.47265 -11.125,-8.67578 l 0,-3.7539 z m 6.664063,3.09765 c 0,2.41016 0.4375,3.8086 4.304687,3.8086 l 3.621094,0 c 3.140625,0 4.910156,-0.72266 4.910156,-4.01172 l 0,-2.04297 c 0,-3.28906 -1.769531,-4.01172 -4.910156,-4.01172 l -3.621094,0 c -3.867187,0 -4.304687,1.40234 -4.304687,3.80859 l 0,2.44922"
         id="path28"
         style="fill:#ffffff;fill-opacity:1;fill-rule:evenodd;stroke:none" />
      <path
         d="m 139.35156,960.81641 c 0,2.67578 0.85156,4.40234 5.88281,4.40234 l 0.46094,0 c 5.09375,0 6.57422,-0.58594 6.57422,-3.95313 l 0,-2.85937 c 0,-3.25391 -0.96484,-3.96094 -6.57422,-3.96094 l -0.46094,0 c -5.28906,0 -5.88281,1.65235 -5.88281,4.40625 l 0,1.96485 z m -7.125,-3.47266 c 0,-6.71094 4.47656,-8.06641 8.4336,-8.06641 l 10.30078,0 c 3.95703,0 8.43359,1.35547 8.43359,8.06641 l 0,4.98047 c 0,6.70703 -4.47656,8.0664 -8.43359,8.0664 l -10.30078,0 c -3.95704,0 -8.4336,-1.35937 -8.4336,-8.0664 l 0,-4.98047"
         id="path30"
         style="fill:#ffffff;fill-opacity:1;fill-rule:evenodd;stroke:none" />
      <path
         d="m 204.51172,943.51953 -3.14844,0 0,10.33203 -0.0742,0 c -0.66015,-1.9414 -2.38281,-2.78125 -5.97265,-2.78125 l -4.80079,0 c -7.58203,0 -9.88671,2.125 -9.88671,8.09375 l 0,3.29688 c 0,6.44922 3.98828,7.875 9.70703,7.875 l 4.39453,0 c 3.29687,0 5.86328,-0.99219 6.77734,-3.26172 l 0.0742,0 0,2.96875 2.92969,0 0,-26.52344 z m -20.73828,15.23828 c 0,-4.32031 2.16406,-5.125 6.49218,-5.125 l 4.2461,0 c 4.24609,0 6.85156,0.73438 6.85156,5.20313 l 0,3.55078 c 0,3.41015 -1.5,5.38672 -6.19141,5.38672 l -5.13281,0 c -5.12109,0 -6.26562,-1.72266 -6.26562,-5.34766 l 0,-3.66797"
         id="path32"
         style="fill:#ffffff;fill-opacity:1;fill-rule:evenodd;stroke:none" />
      <path
         d="m 209.58984,962.67969 c 0,6.89062 4.69141,7.65625 8.78907,7.65625 l 5.71875,0 c 5.86328,0 9.41796,-1.28125 9.41796,-5.56641 l 0,-0.36328 -3.15625,0 c -0.17968,2.85156 -1.78906,3.36719 -5.75,3.36719 l -4.32031,0 c -5.49219,0 -7.55078,-1.09766 -7.55078,-5.34766 l 0,-1.17578 20.77734,0 0,-2.08594 c 0,-6.66797 -4.0664,-8.09375 -9.71093,-8.09375 l -5.0586,0 c -4.46484,0 -9.15625,0.76563 -9.15625,7.54297 l 0,4.06641 z m 20.76953,-3.98828 -17.62109,0 c 0.29297,-4.25391 1.46484,-5.0586 6.44922,-5.0586 l 4.61719,0 c 5.125,0 6.55468,1.90625 6.55468,3.8086 l 0,1.25"
         id="path34"
         style="fill:#ffffff;fill-opacity:1;fill-rule:evenodd;stroke:none" />
    </g>
  </g>
</svg>
