<?xml version="1.0" encoding="UTF-8"?>
<svg width="300px" height="100px" viewBox="0 0 300 100" version="1.1" xmlns="http://www.w3.org/2000/svg" xmlns:xlink="http://www.w3.org/1999/xlink">
    <!-- Generator: Sketch 49.1 (51147) - http://www.bohemiancoding.com/sketch -->
    <title>Artboard</title>
    <desc>Created with Sketch.</desc>
    <defs></defs>
    <g id="Page-1" stroke="none" stroke-width="1" fill="none" fill-rule="evenodd">
        <g id="Artboard" transform="translate(-109.000000, -366.000000)" fill-rule="nonzero">
            <g id="Radius-logo-web" transform="translate(134.000000, 383.000000)">
                <g id="Group" transform="translate(74.000000, 6.000000)" fill="#2F414C">
                    <g id="Group-2">
                        <g>
                            <path d="M14,11.7277354 L13.0931174,15.3664122 C12.0728745,14.8066158 10.5991903,14.5267176 9.35222672,14.5267176 C6.00809717,14.5267176 3.68421053,17.0458015 3.68421053,21.0203562 L3.68421053,33 L0,33 L0,11.5038168 L3.68421053,11.5038168 L3.68421053,14.302799 C5.2145749,12.1755725 7.48178138,11 10.0323887,11 C11.6194332,11.0559796 12.8663968,11.2798982 14,11.7277354 Z" id="Shape"></path>
                            <path d="M38,33.54 L34.3053435,33.54 L34.3053435,30.6075 C32.6259542,32.6775 30.1068702,34 26.7480916,34 C20.7022901,34 16,29.17 16,22.5 C16,15.83 20.7022901,11 26.7480916,11 C30.1068702,11 32.6259542,12.3225 34.3053435,14.45 L34.3053435,11.46 L38,11.46 L38,33.54 Z M19.8066158,22.5 C19.8066158,26.87 22.7735369,30.435 27.1959288,30.435 C31.562341,30.435 34.5852417,27.0425 34.5852417,22.5 C34.5852417,18.015 31.562341,14.565 27.1959288,14.565 C22.7175573,14.565 19.8066158,18.0725 19.8066158,22.5 Z" id="Shape"></path>
                            <path d="M63.3053435,13.9830508 L63.3053435,0 L67,0 L67,32.5525424 L63.3053435,32.5525424 L63.3053435,29.7 C61.6259542,31.7135593 59.1068702,33 55.7480916,33 C49.7022901,33 45,28.3016949 45,21.8135593 C45,15.3254237 49.7022901,10.6271186 55.7480916,10.6271186 C59.1068702,10.6271186 61.6259542,11.9135593 63.3053435,13.9830508 Z M48.8066158,21.8135593 C48.8066158,26.0644068 51.7735369,29.5322034 56.1959288,29.5322034 C60.562341,29.5322034 63.5852417,26.2322034 63.5852417,21.8135593 C63.5852417,17.4508475 60.562341,14.0949153 56.1959288,14.0949153 C51.7175573,14.0949153 48.8066158,17.5067797 48.8066158,21.8135593 Z" id="Shape"></path>
                            <polygon id="Shape" points="79 33 75 33 75 11 79 11"></polygon>
                            <path d="M106,23.5153061 C106,30.0255102 101.257143,33 96,33 C90.7428571,33 86,30.0255102 86,23.5153061 L86,11 L89.7714286,11 L89.7714286,23.1785714 C89.7714286,27.5561224 92.4,29.5204082 96,29.5204082 C99.5428571,29.5204082 102.228571,27.5561224 102.228571,23.1785714 L102.228571,11 L106,11 L106,23.5153061 Z" id="Shape"></path>
                            <path d="M127.939759,16.3165829 C126.638554,15.3341709 123.981928,14.2361809 121.216867,14.2361809 C118.39759,14.2361809 116.554217,15.5075377 116.554217,17.5301508 C116.554217,19.321608 118.072289,20.1306533 120.566265,20.419598 L122.951807,20.7663317 C127.39759,21.4020101 130,23.3668342 130,27.0653266 C130,31.2839196 126.475904,34 120.783133,34 C118.23494,34 114.76506,33.3643216 112,31.1683417 L113.680723,28.3366834 C115.253012,29.6080402 117.313253,30.7060302 120.783133,30.7060302 C124.198795,30.7060302 126.313253,29.4924623 126.313253,27.2964824 C126.313253,25.678392 124.957831,24.638191 122.138554,24.2914573 L119.753012,24.0025126 C115.090361,23.4246231 112.813253,21.1708543 112.813253,17.8190955 C112.813253,13.6005025 116.120482,11 121.162651,11 C124.46988,11 127.451807,11.9246231 129.457831,13.4271357 L127.939759,16.3165829 Z" id="Shape"></path>
                            <path d="M80,4.03225806 C80,5.70967742 78.6451613,7 76.9677419,7 C75.2903226,7 74,5.70967742 74,4.03225806 C74,2.29032258 75.2903226,1 76.9677419,1 C78.6451613,1 80,2.29032258 80,4.03225806 Z" id="Shape"></path>
                        </g>
                    </g>
                </g>
                <g id="Group">
                    <path d="M56.8901996,27.9848312 C56.8901996,12.5428842 44.3473154,0 28.9053684,0 C13.4634214,0 0.920537226,12.5428842 0.920537226,27.9848312 C0.920537226,43.4267782 13.4634214,55.9696624 28.9053684,55.9696624 C44.3473154,55.9104978 56.8901996,43.4267782 56.8901996,27.9848312 Z" id="Shape" fill="#E8273F"></path>
                    <circle id="Oval_41_" fill="#FFFFFF" cx="29.2011912" cy="27.6890085" r="2.8398983"></circle>
                    <circle id="Oval_40_" fill="#FFFFFF" cx="29.2011912" cy="6.38977118" r="4.02318926"></circle>
                    <circle id="Oval_39_" fill="#FFFFFF" cx="28.8462039" cy="14.9094661" r="1.89326554"></circle>
                    <circle id="Oval_38_" fill="#FFFFFF" cx="29.2011912" cy="21.1809082" r="1.06496186"></circle>
                    <circle id="Oval_37_" fill="#FFFFFF" cx="15.8300033" cy="14.3178206" r="1.89326554"></circle>
                    <circle id="Oval_36_" fill="#FFFFFF" cx="19.7348635" cy="18.2226808" r="1.06496186"></circle>
                    <circle id="Oval_35_" fill="#FFFFFF" cx="42.4540499" cy="14.3178206" r="1.89326554"></circle>
                    <circle id="Oval_34_" fill="#FFFFFF" cx="38.0758734" cy="18.2226808" r="1.06496186"></circle>
                    <circle id="Oval_33_" fill="#FFFFFF" cx="42.4540499" cy="40.9418672" r="1.89326554"></circle>
                    <circle id="Oval_32_" fill="#FFFFFF" cx="38.0758734" cy="36.5636907" r="1.06496186"></circle>
                    <circle id="Oval_31_" fill="#FFFFFF" cx="15.8300033" cy="40.9418672" r="1.89326554"></circle>
                    <circle id="Oval_30_" fill="#FFFFFF" cx="19.7348635" cy="37.1553361" r="1.06496186"></circle>
                    <circle id="Oval_29_" fill="#FFFFFF" cx="29.2011912" cy="48.9882457" r="4.02318926"></circle>
                    <circle id="Oval_28_" fill="#FFFFFF" cx="28.8462039" cy="40.3502217" r="1.89326554"></circle>
                    <circle id="Oval_27_" fill="#FFFFFF" cx="29.2011912" cy="34.1971087" r="1.06496186"></circle>
                    <circle id="Oval_26_" fill="#FFFFFF" cx="7.90195389" cy="27.6890085" r="4.02318926"></circle>
                    <circle id="Oval_25_" fill="#FFFFFF" cx="16.4216488" cy="27.9256666" r="1.89326554"></circle>
                    <circle id="Oval_24_" fill="#FFFFFF" cx="22.6930909" cy="27.6890085" r="1.06496186"></circle>
                    <circle id="Oval_23_" fill="#FFFFFF" cx="50.5004284" cy="27.6890085" r="4.02318926"></circle>
                    <circle id="Oval_22_" fill="#FFFFFF" cx="41.8624044" cy="27.9256666" r="1.89326554"></circle>
                    <circle id="Oval_21_" fill="#FFFFFF" cx="35.7092914" cy="27.6890085" r="1.06496186"></circle>
                </g>
            </g>
            <g id="altitude-color" transform="translate(136.000000, 390.000000)">
                <g id="Group" transform="translate(72.000000, 0.000000)">
                    <g transform="translate(0.000000, 10.000000)" fill="#2E404C" id="Shape">
                        <polygon points="78.83 22.324 75 22.324 75 0 78.83 0"></polygon>
                    </g>
                    <path d="M79.451,2.75 C79.451,4.277 78.228,5.428 76.701,5.428 C75.174,5.428 74,4.278 74,2.75 C74,1.199 75.174,0 76.701,0 C78.228,0 79.451,1.2 79.451,2.75 Z" id="Shape" fill="#2E404C"></path>
                    <g transform="translate(3.000000, 44.000000)" fill="#7A8B95" id="Shape">
                        <path d="M9.725,9.644 C9.725,12.513 7.637,14.591 4.979,14.591 C3.479,14.591 2.37,14.011 1.631,13.12 L1.631,14.391 L0,14.391 L0,0 L1.631,0 L1.631,6.167 C2.369,5.277 3.479,4.698 4.979,4.698 C7.637,4.698 9.725,6.776 9.725,9.644 Z M1.529,9.644 C1.529,11.593 2.869,13.062 4.789,13.062 C6.758,13.062 8.047,11.534 8.047,9.644 C8.047,7.755 6.727,6.237 4.789,6.237 C2.869,6.237 1.529,7.706 1.529,9.644 Z"></path>
                        <polygon points="13.629 18.544 11.82 18.544 15.328 12.467 11 5 12.83 5 16.248 10.838 19.496 5 21.295 5"></polygon>
                        <polygon points="29.758 13.992 28 13.992 28 0 29.758 0"></polygon>
                        <path d="M49.731,8.798 L49.731,14.694 L48.092,14.694 L48.092,9.327 C48.092,7.578 47.133,6.549 45.483,6.549 C43.915,6.549 42.684,7.64 42.684,9.367 L42.684,14.694 L41.045,14.694 L41.045,9.327 C41.045,7.578 40.086,6.549 38.438,6.549 C36.909,6.549 35.629,7.599 35.629,9.367 L35.629,14.694 L34,14.694 L34,5.199 L35.619,5.199 L35.619,6.438 C36.398,5.369 37.627,5 38.726,5 C40.335,5 41.605,5.72 42.234,6.908 C43.013,5.47 44.484,5 45.773,5 C48.122,5 49.731,6.519 49.731,8.798 Z"></path>
                        <path d="M62.725,9.946 C62.725,12.815 60.635,14.893 57.977,14.893 C56.477,14.893 55.368,14.313 54.629,13.422 L54.629,18.692 L53,18.692 L53,5.199 L54.629,5.199 L54.629,6.469 C55.367,5.579 56.477,5 57.977,5 C60.635,5 62.725,7.078 62.725,9.946 Z M54.53,9.946 C54.53,11.895 55.868,13.364 57.788,13.364 C59.757,13.364 61.046,11.836 61.046,9.946 C61.046,8.057 59.729,6.539 57.788,6.539 C55.867,6.539 54.53,8.008 54.53,9.946 Z"></path>
                        <path d="M73.735,14.693 L72.096,14.693 L72.096,13.422 C71.346,14.313 70.237,14.893 68.746,14.893 C66.078,14.893 64,12.815 64,9.946 C64,7.078 66.078,5 68.746,5 C70.234,5 71.346,5.579 72.096,6.479 L72.096,5.2 L73.735,5.2 L73.735,14.693 Z M65.668,9.945 C65.668,11.835 66.986,13.363 68.938,13.363 C70.856,13.363 72.196,11.894 72.196,9.945 C72.196,8.007 70.856,6.538 68.938,6.538 C66.957,6.538 65.668,8.057 65.668,9.945 Z"></path>
                        <path d="M85.457,6.499 L84.406,7.608 C83.707,6.926 82.898,6.539 81.888,6.539 C80.058,6.539 78.667,7.958 78.667,9.946 C78.667,11.934 80.058,13.364 81.888,13.364 C82.898,13.364 83.784,12.915 84.447,12.274 L85.457,13.405 C84.598,14.374 83.338,14.893 81.928,14.893 C78.99,14.893 77,12.764 77,9.946 C77,7.129 78.99,5 81.928,5 C83.338,5 84.607,5.521 85.457,6.499 Z"></path>
                        <path d="M94.656,6.469 L90.668,6.469 L90.668,11.098 C90.668,12.528 91.428,13.148 92.457,13.148 C93.156,13.148 93.857,12.877 94.396,12.506 L95.166,13.735 C94.437,14.263 93.486,14.673 92.318,14.673 C90.257,14.673 89.029,13.544 89.029,11.123 L89.029,6.468 L87,6.468 L87,4.979 L89.029,4.979 L89.029,2 L90.668,2 L90.668,4.979 L94.656,4.979 L94.656,6.469 Z"></path>
                    </g>
                </g>
            </g>
        </g>
    </g>
</svg>