<svg version="1.1" id="Layer_1" xmlns="http://www.w3.org/2000/svg" x="0" y="0" viewBox="0 0 420 120" xml:space="preserve"><style>.st0{fill:#26293c}</style><path class="st0" d="M399.8 80.9c-3 0-5.4 2.4-5.4 5.4 0 3 2.4 5.4 5.4 5.4 3 0 5.4-2.4 5.4-5.4-.1-3-2.4-5.4-5.4-5.4zm0 10.2c-2.6 0-4.6-2.1-4.6-4.7s2-4.7 4.6-4.7c2.6 0 4.6 2.1 4.6 4.7s-2 4.7-4.6 4.7z"/><path class="st0" d="M401.9 85.2c0-1-.6-1.8-1.9-1.8h-2v5.8h.7V87h1.4l1 2.2h.8l-1.1-2.3c.7-.3 1.1-1 1.1-1.7zm-1.9 1.1h-1.3v-2.2h1.3c.9 0 1.2.6 1.2 1.1 0 .5-.3 1.1-1.2 1.1zM42.1 80.9c0 5.2.6 6 7.2 6.7v4.2h-34v-4.2c6.7-.7 7.3-1.5 7.3-6.7V32.6c0-5.2-.6-6-7.3-6.7v-4.2h34V26c-6.6.7-7.2 1.5-7.2 6.7v48.2zm38 .1c2.8 4.1 4.6 6.1 9.1 6.6v4.2H66c-3.3-2.8-6.5-7.1-9.1-11.5L43 57.7l23.3-24.3c1.7-1.7 2.8-3.1 2.8-4.7s-1.6-2.6-6.9-2.8v-4.2h23.6V26c-4.1.2-5.8 1-8.5 3.8L59.4 49l20.7 32z"/><path class="st0" d="M135.6 58.8v2.5h-31.8c-.2 11.9 6.4 19.2 15.4 19.2 6.4 0 11.1-2.3 14.8-7.3l1.9 1.2c-2.7 11-10.4 18.2-22.9 18.2-14.7 0-25.9-9.9-25.9-26.6 0-17.7 12.3-29.1 26.6-29.1 14.6.1 21.9 9.3 21.9 21.9zm-31.6-2h15.9c0-9.7-1.9-15.5-7.3-15.5-5.4-.1-8.1 6.2-8.6 15.5zm76.9-8.5c.5-1.3.8-2 .8-2.9 0-2.2-1.4-2.8-6.6-3.5V38h17.1v3.9c-2.4 1.1-3.2 1.8-4.1 4l-22.7 54.5c-3.7 8.8-7.4 13.3-14.3 13.3-3.9 0-7-1.6-8.4-4.2v-7.1c2.6.5 4.7 1 7.8 1 5.6 0 8.5-1.6 10.3-5.8l1.6-3.5-22.7-48.3c-1-2.2-1.6-2.9-5.1-4V38h31.9v3.9c-5.3.7-6.6 1.3-6.6 3.5 0 .9.3 1.6.7 2.8L171 73.6l9.9-25.3z"/><path class="st0" d="M195.7 24.1l-5.5-2.8v-3l20.8-4.6h3.1V47c3.8-4.8 9.5-10 18.5-10 9.6 0 15 5.5 15 16.3v30.6c0 3.2 1.6 3.6 5.6 3.9v3.9H224v-3.9c4-.3 5.3-.7 5.3-3.9v-29c0-4.4-1.5-7-6.7-7-3.2 0-6 .9-8.5 2.2V84c0 3.2 1.3 3.6 5.3 3.9v3.9h-29.3v-3.9c4-.3 5.6-.7 5.6-3.9V24.1zm139.2 59.8c0 3.2 1.6 3.6 5.6 3.9v3.9h-29.6v-3.9c4-.3 5.6-.7 5.6-3.9V24.1l-5.5-2.8v-3l20.8-4.6h3.1v70.2zm55.2-25.1v2.5h-31.8c-.2 11.9 6.4 19.2 15.4 19.2 6.4 0 11.1-2.3 14.8-7.3l1.9 1.2c-2.7 11-10.4 18.2-22.9 18.2-14.7 0-25.9-9.9-25.9-26.6 0-17.7 12.3-29.1 26.6-29.1 14.5.1 21.9 9.3 21.9 21.9zm-31.7-2h15.9c0-9.7-1.9-15.5-7.3-15.5-5.4-.1-8.1 6.2-8.6 15.5zm-76.8-20.4c-15.7 0-28.4 12.7-28.4 28.4s12.7 28.4 28.4 28.4S310 80.5 310 64.8c.1-15.6-12.7-28.4-28.4-28.4zM274.4 79l4-14.5c.2-.8-.2-1.6-.9-2.1-2.2-1.4-3.6-3.9-3.6-6.6.1-4.1 3.5-7.6 7.6-7.6 4.3-.1 7.9 3.4 7.9 7.7 0 2.8-1.5 5.2-3.7 6.6-.7.4-1 1.3-.8 2.1l4 14.5c.3 1-.5 2-1.5 2h-11.6c-1-.1-1.7-1.1-1.4-2.1z"/></svg>