<?xml version="1.0" encoding="utf-8"?>
<svg id="svg" version="1.1" xmlns="http://www.w3.org/2000/svg" xmlns:xlink="http://www.w3.org/1999/xlink" style="enable-background:new 0 0 174 48;" x="0px" y="0px"
	 viewBox="0 0 400 400" xml:space="preserve"><g id="svgg"><path id="path0" d="M0.000 200.000 L 0.000 400.000 200.000 400.000 L 400.000 400.000 400.000 200.000 L 400.000 0.000 200.000 0.000 L 0.000 0.000 0.000 200.000 M393.812 6.475 C 394.198 6.888,394.360 48.314,394.568 200.084 L 394.832 393.168 394.016 393.984 L 393.200 394.800 200.076 394.800 C 33.887 394.800,6.845 394.721,6.176 394.232 C 5.351 393.628,5.207 95.970,6.031 94.366 C 6.508 93.440,12.569 92.066,18.322 91.579 C 21.030 91.351,23.721 90.982,24.302 90.761 C 24.884 90.540,27.889 90.099,30.980 89.782 C 34.071 89.465,37.770 88.938,39.200 88.610 C 40.630 88.282,43.870 87.832,46.400 87.609 C 48.930 87.387,51.630 87.018,52.400 86.790 C 53.170 86.562,56.261 86.112,59.268 85.790 C 62.275 85.467,65.875 84.946,67.268 84.630 C 68.661 84.315,72.202 83.841,75.137 83.577 C 82.429 82.921,81.947 82.309,82.431 92.839 C 82.637 97.328,83.069 103.070,83.392 105.600 C 83.714 108.130,84.171 114.340,84.408 119.400 C 84.644 124.460,85.096 130.580,85.413 133.000 C 85.729 135.420,86.176 141.450,86.406 146.400 C 86.636 151.350,87.083 157.380,87.399 159.800 C 87.715 162.220,88.166 168.340,88.400 173.400 C 88.635 178.460,89.088 184.580,89.407 187.000 C 89.725 189.420,90.172 195.450,90.400 200.400 C 90.628 205.350,91.077 211.470,91.398 214.000 C 91.719 216.530,92.172 222.650,92.405 227.600 C 92.638 232.550,93.086 238.580,93.402 241.000 C 93.717 243.420,94.170 249.540,94.408 254.600 C 94.646 259.660,95.098 265.782,95.413 268.204 C 95.838 271.466,96.701 285.658,96.795 290.900 C 96.804 291.441,100.269 291.214,101.804 290.572 C 102.635 290.225,105.561 289.772,108.353 289.557 C 111.129 289.344,114.089 288.903,114.930 288.576 C 115.772 288.250,118.825 287.793,121.715 287.561 C 124.606 287.329,127.598 286.877,128.365 286.557 C 129.131 286.237,132.108 285.793,134.979 285.572 C 137.851 285.351,140.889 284.902,141.730 284.576 C 142.572 284.249,145.591 283.795,148.439 283.567 C 151.287 283.339,154.245 282.890,155.012 282.569 C 155.779 282.249,158.754 281.798,161.624 281.568 C 164.493 281.338,167.597 280.880,168.521 280.550 C 169.444 280.220,172.450 279.775,175.200 279.560 C 177.950 279.346,180.886 278.904,181.725 278.578 C 182.564 278.253,185.624 277.790,188.525 277.550 C 191.426 277.310,194.421 276.858,195.179 276.544 C 195.938 276.231,198.872 275.789,201.700 275.562 C 204.528 275.335,207.597 274.880,208.521 274.549 C 209.444 274.219,212.325 273.784,214.923 273.582 C 217.520 273.381,220.457 272.941,221.449 272.604 C 222.441 272.267,225.535 271.805,228.326 271.577 C 231.117 271.349,234.116 270.886,234.991 270.548 C 235.865 270.211,238.835 269.767,241.591 269.562 C 244.346 269.358,247.294 268.916,248.143 268.581 C 248.992 268.246,252.094 267.790,255.036 267.569 C 257.978 267.347,261.014 266.903,261.782 266.582 C 262.550 266.261,265.479 265.810,268.289 265.580 C 271.100 265.351,274.092 264.896,274.938 264.570 C 275.783 264.243,278.933 263.783,281.938 263.546 C 285.039 263.302,287.876 262.870,288.501 262.547 C 289.133 262.221,291.903 261.805,294.994 261.572 C 297.959 261.348,300.974 260.923,301.693 260.627 C 302.412 260.331,303.931 259.964,305.069 259.811 C 308.288 259.379,308.919 257.989,309.798 249.400 C 309.933 248.080,310.294 246.100,310.599 245.000 C 310.905 243.900,311.445 240.765,311.800 238.033 C 312.154 235.301,312.610 232.755,312.813 232.375 C 313.016 231.996,313.369 229.911,313.597 227.743 C 313.826 225.574,314.280 222.900,314.607 221.800 C 314.934 220.700,315.466 217.682,315.791 215.092 C 316.115 212.503,316.554 210.061,316.765 209.665 C 316.977 209.269,317.361 206.977,317.618 204.572 C 317.875 202.168,318.330 199.475,318.628 198.589 C 318.927 197.702,319.371 195.182,319.616 192.989 C 319.860 190.795,320.310 188.190,320.616 187.200 C 320.923 186.210,321.440 183.201,321.765 180.514 C 322.091 177.826,322.532 175.301,322.745 174.902 C 322.959 174.503,323.339 172.291,323.589 169.988 C 323.839 167.685,324.300 164.968,324.613 163.952 C 324.926 162.935,325.432 159.953,325.738 157.326 C 326.043 154.698,326.486 152.187,326.722 151.746 C 326.958 151.305,327.361 148.977,327.618 146.572 C 327.875 144.168,328.331 141.470,328.632 140.577 C 328.933 139.685,329.369 137.165,329.601 134.977 C 329.832 132.790,330.282 130.171,330.600 129.157 C 330.919 128.143,331.374 125.533,331.612 123.357 C 331.850 121.181,332.293 118.680,332.597 117.800 C 333.443 115.352,334.053 109.354,333.565 108.283 C 333.166 107.407,333.056 107.393,328.678 107.663 C 326.215 107.816,318.170 108.141,310.800 108.386 C 303.430 108.632,295.510 109.000,293.200 109.204 C 290.890 109.407,282.610 109.768,274.800 110.006 C 266.990 110.243,257.450 110.609,253.600 110.819 C 243.378 111.376,231.043 111.911,217.200 112.396 C 210.490 112.631,202.660 112.993,199.800 113.200 C 196.940 113.407,188.570 113.769,181.200 114.004 C 173.830 114.239,164.470 114.596,160.400 114.798 C 156.330 114.999,149.310 115.346,144.800 115.568 C 133.969 116.102,111.662 116.938,110.411 116.858 C 108.582 116.740,108.561 116.696,105.028 105.400 C 104.202 102.760,103.293 99.970,103.008 99.200 C 102.723 98.430,101.930 96.000,101.246 93.800 C 99.392 87.843,96.070 77.469,94.757 73.536 C 94.120 71.631,93.600 69.795,93.600 69.456 C 93.600 67.448,91.201 66.744,85.134 66.973 C 76.560 67.297,76.947 67.299,54.600 66.840 C 8.948 65.903,6.606 65.756,5.848 63.782 C 5.158 61.982,5.590 7.210,6.300 6.500 C 7.236 5.564,392.937 5.539,393.812 6.475 M132.736 297.785 C 131.710 298.068,129.841 298.428,128.581 298.585 C 127.251 298.751,125.961 299.178,125.505 299.602 C 125.074 300.004,124.293 300.441,123.769 300.572 C 122.711 300.838,122.007 301.398,118.800 304.528 C 115.724 307.530,114.960 308.452,114.602 309.600 C 114.430 310.150,113.964 311.018,113.565 311.528 C 113.167 312.039,112.719 313.299,112.571 314.328 C 112.423 315.358,112.031 316.830,111.701 317.600 C 111.345 318.430,111.101 320.221,111.101 322.000 C 111.101 323.779,111.345 325.570,111.701 326.400 C 112.031 327.170,112.423 328.642,112.571 329.672 C 112.719 330.701,113.167 331.961,113.565 332.472 C 113.964 332.982,114.425 333.832,114.591 334.361 C 115.141 336.113,123.073 343.600,124.380 343.600 C 124.772 343.600,125.548 343.958,126.104 344.396 C 127.560 345.541,135.186 346.572,138.306 346.046 C 139.568 345.834,141.620 345.545,142.867 345.405 C 144.190 345.257,145.219 344.928,145.339 344.616 C 145.452 344.321,146.232 343.859,147.072 343.587 C 147.912 343.316,148.922 342.758,149.316 342.347 C 149.709 341.936,150.204 341.600,150.416 341.600 C 150.917 341.600,155.600 336.917,155.600 336.416 C 155.600 336.204,155.939 335.709,156.353 335.316 C 156.768 334.922,157.236 333.997,157.394 333.259 C 157.552 332.522,158.040 331.560,158.478 331.122 C 160.387 329.213,160.361 315.003,158.445 312.566 C 157.992 311.990,157.506 310.907,157.366 310.159 C 157.226 309.412,156.873 308.800,156.582 308.800 C 156.292 308.800,155.929 308.407,155.777 307.927 C 155.540 307.180,154.044 305.636,149.722 301.677 C 149.239 301.235,148.294 300.753,147.623 300.605 C 146.951 300.457,146.175 300.014,145.899 299.619 C 145.576 299.159,144.608 298.797,143.198 298.610 C 141.989 298.449,140.017 298.066,138.816 297.759 C 136.225 297.096,135.221 297.100,132.736 297.785 M255.800 298.012 C 254.040 298.408,252.133 298.748,251.562 298.766 C 250.991 298.785,250.207 299.150,249.821 299.577 C 249.434 300.005,248.588 300.471,247.941 300.613 C 247.294 300.755,246.345 301.260,245.832 301.736 C 245.319 302.211,244.292 303.149,243.549 303.819 C 241.520 305.653,238.947 308.871,238.607 310.000 C 238.441 310.550,238.035 311.308,237.704 311.685 C 235.093 314.660,235.099 329.556,237.712 332.169 C 238.054 332.511,238.454 333.335,238.600 333.999 C 238.746 334.663,239.210 335.391,239.633 335.617 C 240.055 335.843,240.400 336.228,240.400 336.473 C 240.400 337.071,244.874 341.581,245.477 341.592 C 245.740 341.596,246.190 341.929,246.477 342.331 C 246.765 342.734,247.618 343.276,248.374 343.536 C 249.130 343.797,250.030 344.260,250.374 344.565 C 252.635 346.571,267.583 346.441,269.800 344.397 C 270.240 343.991,271.140 343.527,271.800 343.365 C 272.460 343.203,273.235 342.740,273.523 342.335 C 273.810 341.931,274.260 341.596,274.523 341.592 C 275.121 341.581,279.600 337.073,279.600 336.481 C 279.600 336.242,279.929 335.810,280.331 335.523 C 280.734 335.235,281.276 334.382,281.536 333.626 C 281.797 332.870,282.262 331.970,282.570 331.626 C 284.625 329.329,284.495 314.773,282.396 312.104 C 281.958 311.548,281.600 310.772,281.600 310.380 C 281.600 309.611,280.994 308.813,277.600 305.112 C 276.390 303.793,274.995 302.557,274.500 302.367 C 274.005 302.176,273.600 301.765,273.600 301.454 C 273.600 301.123,273.011 300.778,272.177 300.622 C 271.394 300.475,270.454 300.005,270.088 299.578 C 269.722 299.150,269.057 298.797,268.611 298.794 C 268.165 298.790,266.108 298.430,264.039 297.994 C 259.682 297.074,259.963 297.073,255.800 298.012 " stroke="none" fill="#ffffff" fill-rule="evenodd"></path><path id="path1" d="M386.800 248.841 C 384.710 249.255,381.470 249.780,379.600 250.006 C 377.730 250.233,374.670 250.690,372.800 251.021 C 370.930 251.353,366.880 251.989,363.800 252.436 C 360.720 252.883,355.230 253.691,351.600 254.232 C 347.970 254.773,343.740 255.395,342.200 255.614 C 338.633 256.120,327.403 257.808,322.200 258.619 C 320.000 258.962,316.760 259.429,315.000 259.656 C 310.211 260.273,310.013 260.337,308.817 261.646 C 307.874 262.678,307.671 263.327,307.446 266.027 C 307.301 267.770,307.023 269.613,306.830 270.122 C 306.636 270.631,306.274 272.747,306.025 274.824 C 305.776 276.901,305.223 280.580,304.796 283.000 C 303.985 287.598,303.233 292.395,302.006 300.800 C 301.604 303.550,300.997 307.330,300.656 309.200 C 300.315 311.070,299.748 314.400,299.396 316.600 C 299.044 318.800,298.310 323.390,297.765 326.800 C 297.220 330.210,296.507 334.800,296.181 337.000 C 295.855 339.200,295.390 341.990,295.148 343.200 C 294.625 345.816,293.138 354.875,291.996 362.400 C 291.546 365.370,291.011 368.298,290.807 368.906 C 290.604 369.514,290.144 372.214,289.786 374.906 C 289.428 377.598,288.891 380.649,288.593 381.687 C 288.295 382.724,287.925 384.851,287.771 386.413 C 287.544 388.715,287.325 389.362,286.613 389.828 C 285.857 390.324,273.179 390.417,195.275 390.502 L 104.814 390.600 104.423 389.600 C 103.743 387.866,103.188 382.529,102.590 372.000 C 102.272 366.390,101.744 359.370,101.416 356.400 C 101.089 353.430,100.629 347.220,100.395 342.600 C 100.161 337.980,99.713 331.500,99.398 328.200 C 99.084 324.900,98.641 318.600,98.414 314.200 C 97.616 298.704,97.152 294.481,96.220 294.237 C 94.938 293.901,86.001 294.783,84.000 295.443 C 83.010 295.770,79.860 296.228,77.000 296.462 C 74.140 296.697,71.440 297.045,71.000 297.237 C 69.555 297.868,66.666 298.335,62.410 298.628 C 60.106 298.786,57.625 299.165,56.898 299.469 C 56.170 299.773,53.195 300.219,50.287 300.461 C 47.379 300.702,44.433 301.148,43.740 301.450 C 43.047 301.752,40.167 302.190,37.340 302.424 C 34.513 302.657,31.372 303.116,30.361 303.443 C 29.349 303.769,26.109 304.286,23.161 304.590 C 20.212 304.895,16.720 305.424,15.400 305.766 C 14.080 306.108,12.100 306.393,11.000 306.400 C 9.900 306.407,8.778 306.553,8.507 306.725 C 7.918 307.099,7.732 391.092,8.319 391.679 C 8.824 392.184,102.459 392.110,103.791 391.603 C 105.709 390.874,285.513 391.064,287.592 391.797 C 289.927 392.621,391.063 392.727,391.836 391.906 C 392.198 391.521,392.369 375.154,392.551 323.400 C 392.682 286.000,392.906 254.119,393.048 252.554 C 393.281 249.988,393.223 249.623,392.454 248.854 C 391.465 247.865,391.723 247.865,386.800 248.841 " stroke="none" fill="#b9251c" fill-rule="evenodd"></path><path id="path2" d="M7.981 7.820 C 6.932 8.937,6.548 63.018,7.586 63.416 C 8.370 63.717,23.531 64.306,38.200 64.606 C 39.960 64.642,41.940 64.782,42.600 64.916 C 43.260 65.050,51.180 65.267,60.200 65.397 C 69.220 65.527,77.244 65.727,78.031 65.840 C 80.405 66.183,80.486 65.800,79.615 58.368 C 79.192 54.756,78.650 48.560,78.412 44.600 C 78.174 40.640,77.721 35.240,77.405 32.600 C 76.726 26.934,75.825 10.207,76.168 9.652 C 76.299 9.441,75.851 8.712,75.172 8.034 C 73.895 6.756,73.200 6.478,73.200 7.243 C 73.200 7.489,72.908 7.574,72.542 7.433 C 70.453 6.632,8.750 7.001,7.981 7.820 M353.300 7.826 C 351.625 8.830,351.600 8.879,351.576 11.123 C 351.563 12.375,351.381 14.300,351.172 15.400 C 350.634 18.224,348.935 28.450,347.981 34.600 C 347.537 37.460,347.009 40.340,346.806 41.000 C 346.604 41.660,346.248 43.640,346.014 45.400 C 345.781 47.160,345.247 50.400,344.826 52.600 C 344.406 54.800,343.590 59.300,343.012 62.600 C 342.435 65.900,341.521 71.120,340.982 74.200 C 340.443 77.280,339.715 81.330,339.365 83.200 C 339.015 85.070,338.405 88.580,338.009 91.000 C 337.290 95.400,336.255 100.919,335.638 103.650 C 335.291 105.184,336.065 107.855,336.735 107.440 C 337.172 107.170,350.539 106.545,367.600 105.997 C 384.347 105.459,392.484 104.907,392.881 104.282 C 393.050 104.017,393.191 82.366,393.194 56.170 L 393.200 8.539 392.274 7.670 C 391.352 6.803,391.286 6.800,373.174 6.804 L 355.000 6.808 353.300 7.826 M95.366 291.994 C 94.952 292.408,89.882 293.364,85.800 293.798 C 84.480 293.939,81.960 294.306,80.200 294.614 C 78.440 294.923,74.840 295.454,72.200 295.796 C 69.560 296.137,65.960 296.671,64.200 296.981 C 62.440 297.292,59.920 297.659,58.600 297.798 C 57.280 297.936,54.130 298.385,51.600 298.795 C 49.070 299.205,45.830 299.654,44.400 299.793 C 42.970 299.931,39.910 300.384,37.600 300.800 C 35.290 301.216,32.050 301.673,30.400 301.817 C 28.750 301.960,26.194 302.326,24.719 302.629 C 23.245 302.933,19.915 303.374,17.319 303.610 C 14.724 303.846,11.839 304.314,10.909 304.649 C 9.979 304.985,8.889 305.155,8.488 305.028 C 6.292 304.331,6.405 301.969,6.392 349.040 C 6.379 394.402,6.348 393.385,7.728 393.755 C 9.276 394.170,101.752 394.019,102.400 393.600 C 102.876 393.292,102.793 393.210,102.000 393.200 C 101.450 393.193,80.196 393.193,54.768 393.200 C 10.068 393.212,8.513 393.188,7.857 392.463 C 6.795 391.290,6.842 307.244,7.905 306.614 C 8.799 306.083,12.666 305.403,20.311 304.431 C 23.673 304.004,27.003 303.478,27.711 303.261 C 28.420 303.045,31.070 302.661,33.600 302.408 C 36.130 302.155,39.280 301.694,40.600 301.384 C 41.920 301.074,44.980 300.624,47.400 300.383 C 49.820 300.143,52.880 299.695,54.200 299.387 C 55.520 299.079,58.490 298.627,60.800 298.383 C 63.110 298.139,66.080 297.692,67.400 297.391 C 68.720 297.090,71.780 296.640,74.200 296.393 C 76.620 296.145,79.680 295.691,81.000 295.384 C 82.320 295.077,85.200 294.637,87.400 294.407 C 94.414 293.672,97.193 292.960,96.628 292.045 C 96.288 291.495,95.881 291.479,95.366 291.994 " stroke="none" fill="#7c952d" fill-rule="evenodd"></path><path id="path3" d="M388.600 248.061 C 387.720 248.271,385.110 248.778,382.800 249.189 C 380.490 249.599,379.067 249.950,379.638 249.968 C 380.209 249.985,383.069 249.557,385.994 249.016 C 391.306 248.033,392.443 248.079,392.934 249.295 C 393.068 249.629,393.148 249.584,393.168 249.164 C 393.200 248.535,391.612 247.562,390.681 247.640 C 390.417 247.662,389.480 247.852,388.600 248.061 M372.000 250.823 C 368.351 251.624,370.278 251.504,375.200 250.623 C 376.965 250.307,377.624 250.084,376.800 250.081 C 376.030 250.078,373.870 250.412,372.000 250.823 M366.100 251.876 C 366.485 251.976,367.115 251.976,367.500 251.876 C 367.885 251.775,367.570 251.693,366.800 251.693 C 366.030 251.693,365.715 251.775,366.100 251.876 M362.900 252.276 C 363.285 252.376,363.915 252.376,364.300 252.276 C 364.685 252.175,364.370 252.093,363.600 252.093 C 362.830 252.093,362.515 252.175,362.900 252.276 M352.900 253.876 C 353.285 253.976,353.915 253.976,354.300 253.876 C 354.685 253.775,354.370 253.693,353.600 253.693 C 352.830 253.693,352.515 253.775,352.900 253.876 M392.657 285.098 C 392.507 302.424,392.392 333.420,392.400 353.978 C 392.413 384.436,392.318 391.453,391.888 391.884 C 391.047 392.725,289.983 392.641,287.592 391.797 C 285.513 391.064,105.709 390.874,103.791 391.603 C 102.459 392.110,8.824 392.184,8.319 391.679 C 7.732 391.092,7.918 307.099,8.507 306.725 C 8.778 306.553,9.900 306.407,11.000 306.400 C 13.103 306.387,17.438 305.508,17.918 304.997 C 18.481 304.398,9.082 305.916,7.905 306.614 C 6.849 307.240,6.794 391.289,7.849 392.455 C 8.690 393.383,391.938 393.822,392.864 392.896 C 393.184 392.576,393.379 254.046,393.061 253.727 C 392.989 253.656,392.807 267.773,392.657 285.098 M307.800 261.038 C 307.140 261.386,304.350 261.928,301.600 262.243 C 298.850 262.558,295.520 263.072,294.200 263.385 C 292.880 263.698,289.820 264.150,287.400 264.389 C 284.980 264.628,282.010 265.078,280.800 265.388 C 279.590 265.698,276.440 266.163,273.800 266.421 C 271.160 266.679,268.124 267.136,267.054 267.437 C 265.983 267.738,263.103 268.176,260.654 268.410 C 258.204 268.645,255.210 269.090,254.000 269.400 C 252.790 269.710,249.820 270.161,247.400 270.404 C 244.980 270.646,242.010 271.099,240.800 271.409 C 239.590 271.720,236.440 272.179,233.800 272.430 C 231.160 272.680,228.124 273.132,227.054 273.435 C 225.983 273.737,223.103 274.176,220.654 274.410 C 218.204 274.645,215.210 275.090,214.000 275.400 C 212.790 275.711,209.820 276.158,207.400 276.394 C 204.980 276.630,202.010 277.076,200.800 277.385 C 199.590 277.694,196.530 278.148,194.000 278.394 C 191.470 278.640,188.410 279.094,187.200 279.403 C 185.990 279.712,183.020 280.158,180.600 280.394 C 178.180 280.630,175.210 281.081,174.000 281.396 C 172.790 281.711,169.730 282.165,167.200 282.404 C 164.670 282.643,161.700 283.091,160.600 283.399 C 159.500 283.707,156.530 284.157,154.000 284.400 C 151.470 284.642,148.410 285.094,147.200 285.403 C 145.990 285.712,143.020 286.159,140.600 286.397 C 138.180 286.636,135.120 287.102,133.800 287.434 C 132.480 287.766,129.150 288.285,126.400 288.588 C 123.650 288.890,120.693 289.320,119.830 289.543 C 118.966 289.765,116.266 290.148,113.830 290.394 C 111.393 290.640,108.410 291.091,107.200 291.396 C 105.990 291.701,103.200 292.154,101.000 292.404 C 98.800 292.654,95.740 293.119,94.200 293.438 C 92.660 293.757,90.050 294.171,88.400 294.357 C 86.133 294.613,85.840 294.706,87.200 294.736 C 88.190 294.758,90.350 294.598,92.000 294.382 C 97.623 293.645,97.305 292.663,98.414 314.200 C 98.641 318.600,99.084 324.900,99.398 328.200 C 99.713 331.500,100.161 337.980,100.395 342.600 C 100.629 347.220,101.089 353.430,101.416 356.400 C 101.744 359.370,102.272 366.390,102.590 372.000 C 103.188 382.529,103.743 387.866,104.423 389.600 L 104.814 390.600 195.275 390.502 C 273.179 390.417,285.857 390.324,286.613 389.828 C 287.325 389.362,287.544 388.715,287.771 386.413 C 287.925 384.851,288.295 382.724,288.593 381.687 C 288.891 380.649,289.428 377.598,289.786 374.906 C 290.144 372.214,290.604 369.514,290.807 368.906 C 291.011 368.298,291.546 365.370,291.996 362.400 C 293.138 354.875,294.625 345.816,295.148 343.200 C 295.390 341.990,295.855 339.200,296.181 337.000 C 296.507 334.800,297.220 330.210,297.765 326.800 C 298.310 323.390,299.044 318.800,299.396 316.600 C 299.748 314.400,300.315 311.070,300.656 309.200 C 300.997 307.330,301.604 303.550,302.006 300.800 C 303.233 292.395,303.985 287.598,304.796 283.000 C 305.223 280.580,305.776 276.901,306.025 274.824 C 306.274 272.747,306.636 270.631,306.830 270.122 C 307.023 269.613,307.301 267.770,307.446 266.027 C 307.672 263.314,307.872 262.681,308.833 261.629 C 310.062 260.282,309.664 260.055,307.800 261.038 M81.634 295.237 C 81.103 295.449,78.763 295.868,76.434 296.167 C 74.105 296.466,72.792 296.731,73.516 296.755 C 75.848 296.835,82.519 295.955,83.778 295.402 L 85.000 294.865 83.800 294.858 C 83.140 294.854,82.165 295.024,81.634 295.237 M143.928 297.204 C 166.385 305.443,168.143 335.065,146.794 345.475 C 141.454 348.078,134.068 348.963,130.200 347.462 C 129.320 347.120,127.796 346.634,126.814 346.382 C 125.832 346.129,124.593 345.580,124.060 345.161 C 123.528 344.743,122.938 344.400,122.750 344.400 C 120.554 344.400,111.600 334.131,111.600 331.613 C 111.600 331.362,111.199 330.311,110.708 329.278 C 108.741 325.138,109.684 314.670,112.409 310.400 C 112.619 310.070,113.177 309.080,113.648 308.200 C 118.807 298.562,133.292 293.301,143.928 297.204 M267.838 297.154 C 273.873 299.239,282.400 306.030,282.400 308.751 C 282.400 308.938,282.727 309.521,283.126 310.046 C 285.891 313.681,286.963 323.142,285.229 328.600 C 283.533 333.941,282.217 336.089,278.153 340.153 C 274.556 343.749,274.407 343.871,272.705 344.582 C 271.908 344.915,271.157 345.346,271.038 345.539 C 270.918 345.732,269.961 346.113,268.910 346.385 C 267.860 346.657,266.280 347.155,265.400 347.492 C 263.201 348.334,256.147 348.331,254.457 347.488 C 253.781 347.151,252.506 346.753,251.625 346.604 C 250.744 346.455,249.613 346.026,249.112 345.651 C 248.610 345.275,247.660 344.734,247.000 344.448 C 245.549 343.818,245.331 343.636,241.847 340.153 C 236.884 335.190,234.475 330.404,233.801 324.170 C 233.535 321.715,234.136 315.836,234.735 315.035 C 234.914 314.796,235.291 313.793,235.574 312.807 C 235.856 311.821,236.428 310.582,236.844 310.053 C 237.260 309.525,237.600 308.938,237.600 308.751 C 237.600 307.408,244.286 300.535,246.400 299.705 C 246.730 299.576,247.450 299.159,248.000 298.780 C 248.550 298.401,249.810 297.858,250.800 297.575 C 251.790 297.292,252.803 296.908,253.051 296.722 C 254.915 295.323,263.245 295.567,267.838 297.154 M68.034 297.237 C 67.503 297.449,65.163 297.881,62.834 298.196 L 58.600 298.770 62.400 298.566 C 66.652 298.338,70.709 297.671,71.033 297.146 C 71.317 296.687,69.254 296.749,68.034 297.237 M54.804 299.248 C 54.256 299.467,51.826 299.886,49.404 300.180 C 46.982 300.474,45.682 300.734,46.516 300.757 C 49.059 300.829,55.682 299.971,56.978 299.402 L 58.200 298.865 57.000 298.858 C 56.340 298.854,55.352 299.030,54.804 299.248 M41.234 301.237 C 40.703 301.449,38.363 301.882,36.034 302.198 L 31.800 302.773 35.800 302.556 C 40.310 302.312,43.581 301.779,44.166 301.194 C 44.680 300.680,42.549 300.711,41.234 301.237 M27.634 303.237 C 27.103 303.449,24.763 303.868,22.434 304.167 C 20.105 304.466,18.882 304.731,19.716 304.755 C 22.249 304.830,28.879 303.973,30.178 303.402 L 31.400 302.865 30.000 302.858 C 29.230 302.854,28.165 303.024,27.634 303.237 " stroke="none" fill="#ec3d6a" fill-rule="evenodd"></path><path id="path4" d="M8.200 6.685 C 7.760 6.791,7.259 7.010,7.087 7.172 C 6.330 7.883,6.717 63.370,7.483 63.853 C 8.416 64.442,28.821 65.183,70.544 66.144 C 74.913 66.245,78.333 66.182,78.144 66.005 C 77.955 65.828,69.970 65.555,60.400 65.398 C 50.830 65.241,42.849 65.022,42.665 64.911 C 42.480 64.800,40.590 64.663,38.465 64.607 C 15.180 63.993,8.410 63.732,7.586 63.416 C 7.078 63.221,7.014 59.577,7.106 35.916 C 7.222 5.704,7.087 7.198,9.750 6.676 C 10.520 6.525,10.524 6.508,9.800 6.501 C 9.360 6.496,8.640 6.579,8.200 6.685 M25.500 7.100 C 33.695 7.160,47.105 7.160,55.300 7.100 C 63.495 7.039,56.790 6.990,40.400 6.990 C 24.010 6.990,17.305 7.039,25.500 7.100 M72.000 7.200 C 72.776 7.701,73.200 7.701,73.200 7.200 C 73.200 6.980,72.795 6.803,72.300 6.806 C 71.572 6.811,71.515 6.886,72.000 7.200 M74.400 84.610 C 72.310 84.888,69.790 85.299,68.800 85.524 C 67.810 85.750,64.930 86.146,62.400 86.405 C 59.870 86.664,57.160 87.036,56.378 87.232 C 55.595 87.429,51.943 87.945,48.261 88.381 C 44.580 88.817,41.422 89.263,41.244 89.373 C 41.066 89.483,37.968 89.927,34.360 90.359 C 30.752 90.791,27.530 91.246,27.200 91.370 C 26.870 91.494,23.630 91.957,20.000 92.399 C 12.158 93.355,7.694 94.146,7.168 94.672 C 6.927 94.913,6.751 133.830,6.693 200.085 L 6.600 305.115 8.000 305.111 C 8.770 305.109,10.120 304.867,11.000 304.573 C 11.880 304.280,14.724 303.846,17.319 303.610 C 19.915 303.374,23.245 302.933,24.719 302.629 C 26.194 302.326,28.750 301.960,30.400 301.817 C 32.050 301.673,35.290 301.216,37.600 300.800 C 39.910 300.384,42.970 299.931,44.400 299.793 C 45.830 299.654,49.070 299.205,51.600 298.795 C 54.130 298.385,57.280 297.936,58.600 297.798 C 59.920 297.659,62.440 297.292,64.200 296.981 C 65.960 296.671,69.560 296.137,72.200 295.796 C 74.840 295.454,78.440 294.923,80.200 294.614 C 81.960 294.306,84.480 293.939,85.800 293.798 C 94.473 292.876,96.429 292.154,95.987 290.039 C 95.822 289.248,95.571 286.082,95.429 283.005 C 95.287 279.928,95.006 276.238,94.806 274.805 C 94.606 273.372,94.156 267.430,93.807 261.600 C 93.458 255.770,93.003 249.560,92.795 247.800 C 92.587 246.040,92.138 239.920,91.798 234.200 C 91.458 228.480,91.013 222.540,90.809 221.000 C 90.605 219.460,90.153 213.250,89.805 207.200 C 89.457 201.150,88.992 194.850,88.773 193.200 C 88.553 191.550,88.109 185.520,87.785 179.800 C 87.462 174.080,87.019 168.092,86.802 166.494 C 86.584 164.895,86.130 158.775,85.793 152.894 C 85.455 147.012,85.010 141.030,84.804 139.600 C 84.598 138.170,84.150 132.050,83.810 126.000 C 83.469 119.950,83.020 113.830,82.811 112.400 C 82.602 110.970,82.150 104.760,81.806 98.600 C 80.998 84.136,80.934 83.833,78.726 84.052 C 78.437 84.081,76.490 84.332,74.400 84.610 " stroke="none" fill="#22bcbd" fill-rule="evenodd"></path><path id="path5" d="M389.567 104.964 C 389.475 105.054,384.270 105.329,378.000 105.575 C 351.459 106.617,337.351 107.219,336.619 107.341 C 335.662 107.500,335.365 108.489,334.564 114.200 C 334.225 116.620,333.703 119.590,333.405 120.800 C 333.107 122.010,332.648 124.708,332.385 126.796 C 332.122 128.884,331.738 131.037,331.532 131.580 C 331.325 132.123,330.888 134.645,330.560 137.184 C 330.233 139.723,329.709 142.790,329.397 144.000 C 329.084 145.210,328.631 147.810,328.389 149.777 C 328.147 151.744,327.712 154.268,327.421 155.385 C 327.130 156.501,326.676 159.122,326.413 161.208 C 326.150 163.293,325.683 165.900,325.375 167.000 C 325.068 168.100,324.627 170.703,324.395 172.785 C 324.163 174.867,323.719 177.477,323.408 178.585 C 323.098 179.693,322.645 182.310,322.403 184.400 C 322.160 186.490,321.711 189.100,321.405 190.200 C 321.099 191.300,320.643 193.910,320.392 196.000 C 320.140 198.090,319.691 200.700,319.394 201.800 C 319.096 202.900,318.651 205.420,318.405 207.400 C 318.158 209.380,317.711 211.990,317.412 213.200 C 317.112 214.410,316.662 217.020,316.412 219.000 C 316.161 220.980,315.711 223.590,315.412 224.800 C 315.112 226.010,314.662 228.620,314.412 230.600 C 314.161 232.580,313.710 235.190,313.410 236.400 C 313.109 237.610,312.657 240.310,312.406 242.400 C 312.155 244.490,311.751 246.830,311.509 247.600 C 311.266 248.370,310.783 251.231,310.434 253.958 C 309.597 260.504,309.171 260.804,299.000 261.999 C 297.020 262.231,293.330 262.770,290.800 263.196 C 285.970 264.009,281.064 264.734,271.860 265.993 C 268.813 266.410,265.473 266.933,264.438 267.155 C 263.403 267.377,260.946 267.748,258.978 267.981 C 257.010 268.213,253.330 268.756,250.800 269.187 C 245.887 270.024,240.848 270.766,231.692 272.003 C 228.553 272.427,225.313 272.947,224.492 273.160 C 223.671 273.372,221.290 273.738,219.200 273.973 C 217.110 274.208,213.330 274.754,210.800 275.185 C 205.895 276.023,200.878 276.762,191.692 278.003 C 188.553 278.427,185.313 278.948,184.492 279.161 C 183.671 279.374,181.200 279.746,179.000 279.986 C 176.800 280.227,173.650 280.680,172.000 280.994 C 170.350 281.309,166.750 281.852,164.000 282.202 C 161.250 282.552,158.370 282.998,157.600 283.194 C 156.830 283.390,153.860 283.831,151.000 284.174 C 148.140 284.517,145.243 284.957,144.562 285.153 C 143.881 285.349,141.361 285.726,138.962 285.993 C 136.563 286.259,133.419 286.720,131.975 287.017 C 130.531 287.314,127.021 287.843,124.175 288.193 C 121.329 288.542,118.370 288.994,117.600 289.196 C 116.830 289.398,113.950 289.840,111.200 290.178 C 108.450 290.516,104.789 291.064,103.065 291.396 C 101.340 291.728,99.225 292.000,98.365 292.000 C 97.504 292.000,96.800 292.180,96.800 292.400 C 96.800 293.068,102.333 292.537,107.000 291.422 C 108.320 291.106,111.393 290.645,113.830 290.398 C 116.266 290.150,118.966 289.765,119.830 289.543 C 120.693 289.320,123.650 288.890,126.400 288.588 C 129.150 288.285,132.480 287.766,133.800 287.434 C 135.120 287.102,138.180 286.636,140.600 286.397 C 143.020 286.159,145.990 285.712,147.200 285.403 C 148.410 285.094,151.470 284.642,154.000 284.400 C 156.530 284.157,159.500 283.707,160.600 283.399 C 161.700 283.091,164.670 282.643,167.200 282.404 C 169.730 282.165,172.790 281.711,174.000 281.396 C 175.210 281.081,178.180 280.630,180.600 280.394 C 183.020 280.158,185.990 279.712,187.200 279.403 C 188.410 279.094,191.470 278.640,194.000 278.394 C 196.530 278.148,199.590 277.694,200.800 277.385 C 202.010 277.076,204.980 276.630,207.400 276.394 C 209.820 276.158,212.790 275.711,214.000 275.400 C 215.210 275.090,218.204 274.645,220.654 274.410 C 223.103 274.176,225.983 273.737,227.054 273.435 C 228.124 273.132,231.160 272.680,233.800 272.430 C 236.440 272.179,239.590 271.720,240.800 271.409 C 242.010 271.099,244.980 270.646,247.400 270.404 C 249.820 270.161,252.790 269.710,254.000 269.400 C 255.210 269.090,258.204 268.645,260.654 268.410 C 263.103 268.176,265.983 267.738,267.054 267.437 C 268.124 267.136,271.160 266.679,273.800 266.421 C 276.440 266.163,279.590 265.698,280.800 265.388 C 282.010 265.078,284.980 264.628,287.400 264.389 C 289.820 264.150,292.880 263.698,294.200 263.385 C 295.520 263.072,298.850 262.556,301.600 262.239 C 304.350 261.922,307.157 261.379,307.838 261.033 C 308.949 260.468,312.082 259.891,322.200 258.389 C 323.960 258.127,328.100 257.496,331.400 256.985 C 334.700 256.475,338.390 255.944,339.600 255.806 C 340.810 255.667,343.150 255.297,344.800 254.984 C 346.450 254.670,349.910 254.142,352.489 253.811 C 355.068 253.479,357.948 253.037,358.889 252.829 C 359.830 252.620,362.220 252.248,364.200 252.002 C 366.180 251.756,369.150 251.296,370.800 250.980 C 372.450 250.663,375.895 250.134,378.455 249.803 C 381.015 249.471,384.882 248.836,387.048 248.390 C 391.671 247.439,393.200 247.727,393.200 249.549 C 393.213 366.110,393.154 392.606,392.882 392.878 C 392.700 393.060,327.402 393.209,247.776 393.209 C 168.149 393.210,102.793 393.343,102.539 393.505 C 102.286 393.667,167.482 393.800,247.419 393.800 C 366.138 393.800,392.855 393.705,393.280 393.280 C 393.833 392.727,393.864 337.082,393.399 176.700 L 393.191 104.800 391.462 104.800 C 390.511 104.800,389.658 104.874,389.567 104.964 M132.200 295.967 C 125.293 296.981,116.577 302.727,113.648 308.200 C 113.177 309.080,112.619 310.070,112.409 310.400 C 109.684 314.670,108.741 325.138,110.708 329.278 C 111.199 330.311,111.600 331.362,111.600 331.613 C 111.600 334.131,120.554 344.400,122.750 344.400 C 122.938 344.400,123.528 344.743,124.060 345.161 C 124.593 345.580,125.832 346.129,126.814 346.382 C 127.796 346.634,129.320 347.120,130.200 347.462 C 134.068 348.963,141.454 348.078,146.794 345.475 C 163.790 337.188,167.053 315.232,153.158 302.657 C 147.421 297.466,139.413 294.909,132.200 295.967 M255.851 296.021 C 254.559 296.220,253.299 296.536,253.051 296.722 C 252.803 296.908,251.790 297.292,250.800 297.575 C 249.810 297.858,248.550 298.401,248.000 298.780 C 247.450 299.159,246.730 299.576,246.400 299.705 C 244.286 300.535,237.600 307.408,237.600 308.751 C 237.600 308.938,237.260 309.525,236.844 310.053 C 236.428 310.582,235.856 311.821,235.574 312.807 C 235.291 313.793,234.914 314.796,234.735 315.035 C 234.136 315.836,233.535 321.715,233.801 324.170 C 234.475 330.404,236.884 335.190,241.847 340.153 C 245.331 343.636,245.549 343.818,247.000 344.448 C 247.660 344.734,248.610 345.275,249.112 345.651 C 249.613 346.026,250.744 346.455,251.625 346.604 C 252.506 346.753,253.781 347.151,254.457 347.488 C 256.147 348.331,263.201 348.334,265.400 347.492 C 266.280 347.155,267.860 346.657,268.910 346.385 C 269.961 346.113,270.918 345.732,271.038 345.539 C 271.157 345.346,271.908 344.915,272.705 344.582 C 274.407 343.871,274.556 343.749,278.153 340.153 C 282.217 336.089,283.533 333.941,285.229 328.600 C 286.963 323.142,285.891 313.681,283.126 310.046 C 282.727 309.521,282.400 308.938,282.400 308.751 C 282.400 308.563,281.570 307.318,280.557 305.985 C 275.109 298.822,264.758 294.647,255.851 296.021 M143.756 297.774 C 145.491 298.368,147.169 299.112,147.484 299.427 C 147.799 299.742,148.279 300.000,148.551 300.000 C 150.373 300.000,156.816 306.955,158.741 311.000 C 170.126 334.926,141.510 358.147,120.369 342.137 C 102.594 328.676,108.876 302.783,131.400 296.668 C 133.581 296.076,140.639 296.708,143.756 297.774 M267.600 297.690 C 286.086 303.945,291.483 326.174,277.830 339.827 C 255.740 361.917,221.448 332.332,239.548 306.800 C 242.340 302.862,247.748 298.976,252.200 297.708 C 253.300 297.394,254.740 296.981,255.400 296.789 C 257.745 296.106,264.365 296.595,267.600 297.690 " stroke="none" fill="#f6931e" fill-rule="evenodd"></path><path id="path6" d="M6.321 6.479 C 5.592 7.208,5.140 61.936,5.848 63.782 C 6.606 65.756,8.948 65.903,54.600 66.840 C 76.947 67.299,76.560 67.297,85.134 66.973 C 91.201 66.744,93.600 67.448,93.600 69.456 C 93.600 69.795,94.120 71.631,94.757 73.536 C 96.070 77.469,99.392 87.843,101.246 93.800 C 101.930 96.000,102.723 98.430,103.008 99.200 C 103.293 99.970,104.202 102.760,105.028 105.400 C 108.561 116.696,108.582 116.740,110.411 116.858 C 111.662 116.938,133.969 116.102,144.800 115.568 C 149.310 115.346,156.330 114.999,160.400 114.798 C 164.470 114.596,173.830 114.239,181.200 114.004 C 188.570 113.769,196.940 113.407,199.800 113.200 C 202.660 112.993,210.490 112.631,217.200 112.396 C 231.043 111.911,243.378 111.376,253.600 110.819 C 257.450 110.609,266.990 110.243,274.800 110.006 C 282.610 109.768,290.890 109.407,293.200 109.204 C 295.510 109.000,303.430 108.632,310.800 108.386 C 318.170 108.141,326.230 107.814,328.711 107.661 C 331.192 107.508,333.352 107.507,333.511 107.660 C 334.307 108.426,336.062 107.502,335.799 106.455 C 335.656 105.883,335.518 105.322,335.494 105.207 C 335.423 104.880,336.426 99.154,336.836 97.545 C 337.040 96.745,337.549 93.955,337.968 91.345 C 338.387 88.735,339.016 85.070,339.366 83.200 C 339.715 81.330,340.443 77.280,340.982 74.200 C 341.521 71.120,342.435 65.900,343.012 62.600 C 343.590 59.300,344.406 54.800,344.826 52.600 C 345.247 50.400,345.781 47.160,346.014 45.400 C 346.248 43.640,346.604 41.660,346.806 41.000 C 347.009 40.340,347.537 37.460,347.981 34.600 C 348.935 28.450,350.634 18.224,351.172 15.400 C 351.381 14.300,351.563 12.373,351.576 11.117 C 351.600 8.855,351.616 8.824,353.335 7.817 L 355.070 6.800 373.265 6.800 L 391.461 6.800 392.335 7.731 L 393.210 8.662 393.105 56.691 C 393.005 102.451,393.033 104.703,393.705 104.344 C 394.707 103.808,394.604 7.616,393.600 6.653 C 392.558 5.654,7.320 5.480,6.321 6.479 M75.183 8.045 C 75.856 8.717,76.299 9.441,76.168 9.652 C 75.825 10.207,76.726 26.934,77.405 32.600 C 77.721 35.240,78.174 40.640,78.412 44.600 C 78.650 48.560,79.193 54.766,79.618 58.390 C 80.631 67.029,81.700 66.234,69.285 66.066 C 43.600 65.719,8.446 64.460,7.483 63.852 C 6.717 63.370,6.330 7.883,7.087 7.172 C 7.676 6.618,8.997 6.600,41.450 6.711 L 73.961 6.823 75.183 8.045 M72.800 83.797 C 70.270 84.076,67.480 84.500,66.600 84.740 C 65.720 84.980,62.480 85.446,59.400 85.776 C 56.320 86.106,53.170 86.562,52.400 86.790 C 51.630 87.018,48.930 87.387,46.400 87.609 C 43.870 87.832,40.630 88.282,39.200 88.610 C 37.770 88.938,34.071 89.465,30.980 89.782 C 27.889 90.099,24.882 90.541,24.298 90.763 C 23.714 90.985,20.933 91.364,18.118 91.607 C 12.386 92.100,6.856 93.345,6.100 94.313 C 5.703 94.821,5.603 116.670,5.613 200.576 C 5.624 293.886,5.694 306.109,6.217 305.418 C 6.736 304.732,6.807 291.726,6.795 199.846 C 6.787 133.311,6.923 94.917,7.167 94.673 C 7.694 94.146,12.151 93.356,20.000 92.399 C 23.630 91.957,26.870 91.494,27.200 91.370 C 27.530 91.246,30.752 90.791,34.360 90.359 C 37.968 89.927,41.066 89.483,41.244 89.373 C 41.422 89.263,44.590 88.818,48.284 88.384 C 51.978 87.950,55.270 87.495,55.600 87.371 C 55.930 87.248,59.143 86.798,62.740 86.372 C 66.337 85.946,69.430 85.505,69.613 85.392 C 70.447 84.876,79.337 84.045,80.033 84.418 C 81.001 84.936,81.076 85.536,81.806 98.600 C 82.150 104.760,82.602 110.970,82.811 112.400 C 83.020 113.830,83.469 119.950,83.810 126.000 C 84.150 132.050,84.598 138.170,84.804 139.600 C 85.010 141.030,85.455 147.012,85.793 152.894 C 86.130 158.775,86.584 164.895,86.802 166.494 C 87.019 168.092,87.462 174.080,87.785 179.800 C 88.109 185.520,88.553 191.550,88.773 193.200 C 88.992 194.850,89.457 201.150,89.805 207.200 C 90.153 213.250,90.605 219.460,90.809 221.000 C 91.013 222.540,91.458 228.480,91.798 234.200 C 92.138 239.920,92.586 246.040,92.794 247.800 C 93.002 249.560,93.451 255.680,93.793 261.400 C 94.134 267.120,94.593 273.240,94.812 275.000 C 95.031 276.760,95.368 281.020,95.561 284.466 C 95.908 290.679,96.074 291.600,96.847 291.600 C 97.067 291.600,97.145 291.434,97.019 291.231 C 96.894 291.028,96.610 286.754,96.388 281.732 C 96.167 276.710,95.728 270.621,95.413 268.201 C 95.098 265.780,94.646 259.660,94.408 254.600 C 94.170 249.540,93.717 243.420,93.402 241.000 C 93.086 238.580,92.638 232.550,92.405 227.600 C 92.172 222.650,91.719 216.530,91.398 214.000 C 91.077 211.470,90.628 205.350,90.400 200.400 C 90.172 195.450,89.725 189.420,89.407 187.000 C 89.088 184.580,88.635 178.460,88.400 173.400 C 88.166 168.340,87.715 162.220,87.399 159.800 C 87.083 157.380,86.636 151.350,86.406 146.400 C 86.176 141.450,85.729 135.420,85.413 133.000 C 85.096 130.580,84.644 124.460,84.408 119.400 C 84.171 114.340,83.714 108.130,83.392 105.600 C 83.069 103.070,82.638 97.339,82.432 92.864 C 81.937 82.087,82.607 82.717,72.800 83.797 " stroke="none" fill="#b1d45c" fill-rule="evenodd"></path><path id="path7" d="M373.188 5.994 L 393.377 6.200 393.882 7.200 C 394.198 7.824,394.390 7.960,394.394 7.562 C 394.412 5.597,394.368 5.593,372.969 5.694 L 353.000 5.789 373.188 5.994 M393.696 104.341 C 393.292 104.591,393.233 118.972,393.399 176.626 C 393.863 337.107,393.833 392.727,393.280 393.280 C 392.776 393.784,10.193 394.198,7.707 393.697 C 6.216 393.396,6.193 392.575,6.400 348.080 C 6.592 306.959,6.570 305.196,5.891 306.035 C 4.735 307.463,5.013 393.382,6.176 394.232 C 7.626 395.292,392.939 395.061,394.000 394.000 C 394.794 393.206,394.800 392.706,394.742 329.500 C 394.611 186.578,394.227 104.012,393.696 104.341 M333.631 108.457 C 334.063 109.266,333.365 115.579,332.597 117.800 C 332.293 118.680,331.850 121.181,331.612 123.357 C 331.374 125.533,330.919 128.143,330.600 129.157 C 330.282 130.171,329.832 132.790,329.601 134.977 C 329.369 137.165,328.933 139.685,328.632 140.577 C 328.331 141.470,327.875 144.168,327.618 146.572 C 327.361 148.977,326.958 151.305,326.722 151.746 C 326.486 152.187,326.043 154.698,325.738 157.326 C 325.432 159.953,324.926 162.935,324.613 163.952 C 324.300 164.968,323.839 167.685,323.589 169.988 C 323.339 172.291,322.959 174.503,322.745 174.902 C 322.532 175.301,322.091 177.826,321.765 180.514 C 321.440 183.201,320.923 186.210,320.616 187.200 C 320.310 188.190,319.860 190.795,319.616 192.989 C 319.371 195.182,318.927 197.702,318.628 198.589 C 318.330 199.475,317.875 202.168,317.618 204.572 C 317.361 206.977,316.977 209.269,316.765 209.665 C 316.554 210.061,316.115 212.503,315.791 215.092 C 315.466 217.682,314.934 220.700,314.607 221.800 C 314.280 222.900,313.826 225.574,313.597 227.743 C 313.369 229.911,313.016 231.996,312.813 232.375 C 312.610 232.755,312.154 235.301,311.800 238.033 C 311.445 240.765,310.905 243.900,310.599 245.000 C 310.294 246.100,309.933 248.080,309.798 249.400 C 308.919 257.989,308.288 259.379,305.069 259.811 C 303.931 259.964,302.412 260.331,301.693 260.627 C 300.974 260.923,297.959 261.348,294.994 261.572 C 291.903 261.805,289.133 262.221,288.501 262.547 C 287.876 262.870,285.039 263.302,281.938 263.546 C 278.933 263.783,275.783 264.243,274.938 264.570 C 274.092 264.896,271.100 265.351,268.289 265.580 C 265.479 265.810,262.550 266.261,261.782 266.582 C 261.014 266.903,257.978 267.347,255.036 267.569 C 252.094 267.790,248.992 268.246,248.143 268.581 C 247.294 268.916,244.346 269.358,241.591 269.562 C 238.835 269.767,235.865 270.211,234.991 270.548 C 234.116 270.886,231.117 271.349,228.326 271.577 C 225.535 271.805,222.441 272.267,221.449 272.604 C 220.457 272.941,217.520 273.381,214.923 273.582 C 212.325 273.784,209.444 274.219,208.521 274.549 C 207.597 274.880,204.528 275.335,201.700 275.562 C 198.872 275.789,195.938 276.231,195.179 276.544 C 194.421 276.858,191.426 277.310,188.525 277.550 C 185.624 277.790,182.564 278.253,181.725 278.578 C 180.886 278.904,177.950 279.346,175.200 279.560 C 172.450 279.775,169.444 280.220,168.521 280.550 C 167.597 280.880,164.493 281.338,161.624 281.568 C 158.754 281.798,155.779 282.249,155.012 282.569 C 154.245 282.890,151.287 283.339,148.439 283.567 C 145.591 283.795,142.572 284.249,141.730 284.576 C 140.889 284.902,137.851 285.351,134.979 285.572 C 132.108 285.793,129.131 286.237,128.365 286.557 C 127.598 286.877,124.606 287.329,121.715 287.561 C 118.825 287.793,115.772 288.250,114.930 288.576 C 114.089 288.903,111.129 289.344,108.353 289.557 C 105.561 289.772,102.635 290.225,101.804 290.572 C 100.978 290.918,99.649 291.203,98.851 291.206 C 98.053 291.209,97.130 291.387,96.800 291.600 C 95.855 292.211,99.441 292.094,103.065 291.396 C 104.789 291.064,108.450 290.516,111.200 290.178 C 113.950 289.840,116.830 289.398,117.600 289.196 C 118.370 288.994,121.329 288.542,124.175 288.193 C 127.021 287.843,130.531 287.314,131.975 287.017 C 133.419 286.720,136.563 286.259,138.962 285.993 C 141.361 285.726,143.881 285.349,144.562 285.153 C 145.243 284.957,148.140 284.517,151.000 284.174 C 153.860 283.831,156.830 283.390,157.600 283.194 C 158.370 282.998,161.250 282.552,164.000 282.202 C 166.750 281.852,170.350 281.309,172.000 280.994 C 173.650 280.680,176.800 280.227,179.000 279.986 C 181.200 279.746,183.671 279.374,184.492 279.161 C 185.313 278.948,188.553 278.427,191.692 278.003 C 200.878 276.762,205.895 276.023,210.800 275.185 C 213.330 274.754,217.110 274.208,219.200 273.973 C 221.290 273.738,223.671 273.372,224.492 273.160 C 225.313 272.947,228.553 272.427,231.692 272.003 C 240.848 270.766,245.887 270.024,250.800 269.187 C 253.330 268.756,257.010 268.213,258.978 267.981 C 260.946 267.748,263.403 267.377,264.438 267.155 C 265.473 266.933,268.813 266.410,271.860 265.993 C 281.064 264.734,285.970 264.009,290.800 263.196 C 293.330 262.770,297.020 262.231,299.000 261.999 C 309.171 260.804,309.597 260.504,310.434 253.958 C 310.783 251.231,311.266 248.370,311.509 247.600 C 311.751 246.830,312.155 244.490,312.406 242.400 C 312.657 240.310,313.109 237.610,313.410 236.400 C 313.710 235.190,314.161 232.580,314.412 230.600 C 314.662 228.620,315.112 226.010,315.412 224.800 C 315.711 223.590,316.161 220.980,316.412 219.000 C 316.662 217.020,317.112 214.410,317.412 213.200 C 317.711 211.990,318.158 209.380,318.405 207.400 C 318.651 205.420,319.096 202.900,319.394 201.800 C 319.691 200.700,320.140 198.090,320.392 196.000 C 320.643 193.910,321.099 191.300,321.405 190.200 C 321.711 189.100,322.160 186.490,322.403 184.400 C 322.645 182.310,323.098 179.693,323.408 178.585 C 323.719 177.477,324.163 174.867,324.395 172.785 C 324.627 170.703,325.068 168.100,325.375 167.000 C 325.683 165.900,326.150 163.293,326.413 161.208 C 326.676 159.122,327.130 156.501,327.421 155.385 C 327.712 154.268,328.147 151.744,328.389 149.777 C 328.631 147.810,329.084 145.210,329.397 144.000 C 329.709 142.790,330.233 139.723,330.560 137.184 C 330.888 134.645,331.325 132.123,331.532 131.580 C 331.738 131.037,332.122 128.884,332.385 126.796 C 332.648 124.708,333.107 122.010,333.405 120.800 C 333.703 119.590,334.231 116.620,334.579 114.200 C 334.926 111.780,335.318 109.311,335.449 108.713 C 335.671 107.705,335.600 107.632,334.484 107.713 C 333.504 107.784,333.345 107.922,333.631 108.457 M131.400 296.668 C 108.876 302.783,102.594 328.676,120.369 342.137 C 141.510 358.147,170.126 334.926,158.741 311.000 C 156.816 306.955,150.373 300.000,148.551 300.000 C 148.279 300.000,147.799 299.742,147.484 299.427 C 145.615 297.558,134.896 295.719,131.400 296.668 M255.400 296.789 C 254.740 296.981,253.300 297.394,252.200 297.708 C 231.290 303.664,228.431 333.886,247.790 344.331 C 273.324 358.107,298.457 324.543,277.957 304.043 C 272.232 298.319,261.740 294.944,255.400 296.789 M138.816 297.759 C 140.017 298.066,141.989 298.449,143.198 298.610 C 144.608 298.797,145.576 299.159,145.899 299.619 C 146.175 300.014,146.951 300.457,147.623 300.605 C 148.294 300.753,149.239 301.235,149.722 301.677 C 154.044 305.636,155.540 307.180,155.777 307.927 C 155.929 308.407,156.292 308.800,156.582 308.800 C 156.873 308.800,157.226 309.412,157.366 310.159 C 157.506 310.907,157.992 311.990,158.445 312.566 C 160.361 315.003,160.387 329.213,158.478 331.122 C 158.040 331.560,157.552 332.522,157.394 333.259 C 157.236 333.997,156.768 334.922,156.353 335.316 C 155.939 335.709,155.600 336.204,155.600 336.416 C 155.600 336.917,150.917 341.600,150.416 341.600 C 150.204 341.600,149.709 341.936,149.316 342.347 C 148.922 342.758,147.912 343.316,147.072 343.587 C 146.232 343.859,145.452 344.321,145.339 344.616 C 145.219 344.928,144.190 345.257,142.867 345.405 C 141.620 345.545,139.568 345.834,138.306 346.046 C 135.186 346.572,127.560 345.541,126.104 344.396 C 125.548 343.958,124.772 343.600,124.380 343.600 C 123.073 343.600,115.141 336.113,114.591 334.361 C 114.425 333.832,113.964 332.982,113.565 332.472 C 113.167 331.961,112.719 330.701,112.571 329.672 C 112.423 328.642,112.031 327.170,111.701 326.400 C 111.345 325.570,111.101 323.779,111.101 322.000 C 111.101 320.221,111.345 318.430,111.701 317.600 C 112.031 316.830,112.423 315.358,112.571 314.328 C 112.719 313.299,113.167 312.039,113.565 311.528 C 113.964 311.018,114.430 310.150,114.602 309.600 C 114.960 308.452,115.724 307.530,118.800 304.528 C 122.007 301.398,122.711 300.838,123.769 300.572 C 124.293 300.441,125.074 300.004,125.505 299.602 C 125.961 299.178,127.251 298.751,128.581 298.585 C 129.841 298.428,131.710 298.068,132.736 297.785 C 135.221 297.100,136.225 297.096,138.816 297.759 M264.039 297.994 C 266.108 298.430,268.165 298.790,268.611 298.794 C 269.057 298.797,269.722 299.150,270.088 299.578 C 270.454 300.005,271.394 300.475,272.177 300.622 C 273.011 300.778,273.600 301.123,273.600 301.454 C 273.600 301.765,274.005 302.176,274.500 302.367 C 274.995 302.557,276.390 303.793,277.600 305.112 C 280.994 308.813,281.600 309.611,281.600 310.380 C 281.600 310.772,281.958 311.548,282.396 312.104 C 284.495 314.773,284.625 329.329,282.570 331.626 C 282.262 331.970,281.797 332.870,281.536 333.626 C 281.276 334.382,280.734 335.235,280.331 335.523 C 279.929 335.810,279.600 336.242,279.600 336.481 C 279.600 337.073,275.121 341.581,274.523 341.592 C 274.260 341.596,273.810 341.931,273.523 342.335 C 273.235 342.740,272.460 343.203,271.800 343.365 C 271.140 343.527,270.240 343.991,269.800 344.397 C 267.583 346.441,252.635 346.571,250.374 344.565 C 250.030 344.260,249.130 343.797,248.374 343.536 C 247.618 343.276,246.765 342.734,246.477 342.331 C 246.190 341.929,245.740 341.596,245.477 341.592 C 244.874 341.581,240.400 337.071,240.400 336.473 C 240.400 336.228,240.055 335.843,239.633 335.617 C 239.210 335.391,238.746 334.663,238.600 333.999 C 238.454 333.335,238.054 332.511,237.712 332.169 C 235.099 329.556,235.093 314.660,237.704 311.685 C 238.035 311.308,238.441 310.550,238.607 310.000 C 238.947 308.871,241.520 305.653,243.549 303.819 C 244.292 303.149,245.319 302.211,245.832 301.736 C 246.345 301.260,247.294 300.755,247.941 300.613 C 248.588 300.471,249.434 300.005,249.821 299.577 C 250.207 299.150,250.991 298.785,251.562 298.766 C 252.133 298.748,254.040 298.408,255.800 298.012 C 259.963 297.073,259.682 297.074,264.039 297.994 " stroke="none" fill="#eebcca" fill-rule="evenodd"></path></g></svg>
