<svg xmlns="http://www.w3.org/2000/svg" viewBox="13104 40 190 30.956"><defs><style>.cls-1{fill:#3c3c3b}</style></defs><g id="group-1" transform="translate(13104 40)"><path id="path" class="cls-1" d="M15.478 0a15.478 15.478 0 1 0 15.478 15.478A15.5 15.5 0 0 0 15.478 0m4.3 19.5a2.608 2.608 0 0 1-2.612 2.612h-5.989V8.862h.035a2.92 2.92 0 0 1 2.925 2.925v7.678h5.641z"/><g id="group" transform="translate(54.164 7.434)"><path id="path-2" data-name="path" class="cls-1" d="M311.1 60.478V45h3.465v12.4h6.6v3.082z" transform="translate(-311.1 -44.6)"/><path id="rectangle" class="cls-1" transform="translate(19.726 .4)" d="M0 0h3.447v15.478H0z"/><path id="path-3" data-name="path" class="cls-1" d="M513.034 50.857h3.482v5.484a8.126 8.126 0 0 1-6.372 2.559 7.851 7.851 0 0 1-5.728-2.263 7.6 7.6 0 0 1-2.316-5.693 7.733 7.733 0 0 1 2.35-5.745 7.844 7.844 0 0 1 5.693-2.3 8.447 8.447 0 0 1 5.8 2.194l-1.793 2.594a6.622 6.622 0 0 0-1.915-1.254 5.181 5.181 0 0 0-1.9-.348 4.585 4.585 0 0 0-3.325 1.341 4.736 4.736 0 0 0-1.358 3.534 4.859 4.859 0 0 0 1.288 3.517 4.232 4.232 0 0 0 3.082 1.323 6 6 0 0 0 2.995-.679v-4.264z" transform="translate(-468.846 -42.865)"/><path id="path-4" data-name="path" class="cls-1" d="M644.158 60.478l-1.445-3.343h-6.494l-1.445 3.343H631.1L637.8 45h3.343l6.686 15.478zM639.492 49.6l-1.95 4.492h3.883z" transform="translate(-575.387 -44.6)"/><path id="path-5" data-name="path" class="cls-1" d="M772.535 47.977v12.5h-3.447v-12.5H764.7V45h12.222v2.977z" transform="translate(-685.726 -44.6)"/><path id="path-6" data-name="path" class="cls-1" d="M893.6 56.473a2.852 2.852 0 0 0 2.333 1.079 2.818 2.818 0 0 0 2.316-1.079 4.555 4.555 0 0 0 .853-2.942V45h3.447v8.653a6.886 6.886 0 0 1-1.863 5.171 6.542 6.542 0 0 1-4.753 1.811 6.613 6.613 0 0 1-4.77-1.811 6.83 6.83 0 0 1-1.863-5.154V45h3.43v8.531a4.558 4.558 0 0 0 .87 2.942" transform="translate(-788.633 -44.6)"/><path id="path-7" data-name="path" class="cls-1" d="M1025.418 46.182a1.338 1.338 0 0 0-.5 1.079 1.26 1.26 0 0 0 .609 1.079 11.349 11.349 0 0 0 2.82.94 8.181 8.181 0 0 1 3.43 1.619 4.007 4.007 0 0 1 1.219 3.169 4.177 4.177 0 0 1-1.567 3.378 6.179 6.179 0 0 1-4.109 1.288 9.509 9.509 0 0 1-6.616-2.716l2.054-2.525a7.315 7.315 0 0 0 4.631 2.194 2.427 2.427 0 0 0 1.5-.418 1.393 1.393 0 0 0-.035-2.229 7.329 7.329 0 0 0-2.281-.836 10.194 10.194 0 0 1-3.952-1.671 3.931 3.931 0 0 1-1.254-3.238 4 4 0 0 1 1.584-3.4 6.353 6.353 0 0 1 3.952-1.2 9.223 9.223 0 0 1 3.1.54 8.3 8.3 0 0 1 2.7 1.5l-1.741 2.525a6.767 6.767 0 0 0-4.161-1.532 2.274 2.274 0 0 0-1.375.453" transform="translate(-897.156 -42.7)"/></g></g></svg>