<?xml version="1.0" encoding="UTF-8"?>
<svg width="24px" height="24px" viewBox="0 0 24 24" version="1.1" xmlns="http://www.w3.org/2000/svg" xmlns:xlink="http://www.w3.org/1999/xlink">
    <!-- Generator: Sketch 63.1 (92452) - https://sketch.com -->
    <title>Logo / Insights-Icon-XL</title>
    <desc>Created with Sketch.</desc>
    <g id="Logo-/-Insights-Icon-XL" stroke="none" stroke-width="1" fill="none" fill-rule="evenodd">
        <g id="Group" transform="translate(1.500000, 0.000000)">
            <path d="M5.25328211,2.78845209 C7.70691088,1.36939915 10.1788894,1.83556873e-14 10.3877275,1.83556873e-14 C10.4287961,1.83556873e-14 10.5589922,0.0531382622 10.7590922,0.150703596 C11.5734733,0.543578289 13.5535028,1.64989949 15.5221729,2.78845209 L10.3877275,5.75896806 L5.25328211,2.78845209 Z" id="Path" fill="#ACCBF6"></path>
            <path d="M5.19386375,14.7741791 L0.216702256,17.6540987 L0.216702256,17.6540987 C0.111846326,17.472906 0.0594183605,14.6426402 0.0594183605,11.8036632 L5.19386375,14.7741791 Z" id="Path" fill="#D1E2FA"></path>
            <path d="M15.5221729,2.78845209 C17.9845396,4.21273174 20.4145758,5.67882511 20.5587527,5.8844092 C20.5587527,5.8844092 20.5587527,5.8844092 20.5587527,5.8844092 L15.5815912,8.76432879 L10.3877275,5.75896806 L12.9846594,4.25628769 L15.5221729,2.78845209 L15.5221729,2.78845209 Z" id="Path" fill="#488BEB"></path>
            <path d="M20.5587527,5.8844092 C20.6627349,6.11351351 20.714289,8.91851686 20.7160366,11.7348448 L15.5815912,8.76432879 L20.5587527,5.8844092 Z" id="Path" fill="#214982"></path>
            <path d="M20.5587527,17.6540987 C20.453023,17.8370337 17.9967728,19.3188072 15.5221729,20.7500558 L10.3877275,17.7795399 L15.5815912,14.7741791 L20.5587527,17.6540987 Z" id="Path" fill="#3873C7"></path>
            <path d="M20.7151628,11.8036632 C20.7151628,14.6234755 20.6636087,17.4276078 20.5587527,17.6532276 L15.5815912,14.7741791 L20.7151628,11.8036632 Z" id="Path" fill="#214982"></path>
            <polygon id="Path" fill="#ACCBF6" points="10.3877275 11.7688184 5.19386375 14.7741791 1.53950926e-14 11.7688184 5.19386375 8.76432879"></polygon>
            <polygon id="Path" fill="#7EADF1" points="15.5815912 14.7741791 10.3877275 17.7795399 5.19386375 14.7741791 10.3877275 11.7688184"></polygon>
            <path d="M15.5221729,20.7500558 C13.0676703,22.1691088 10.5965656,23.5385079 10.3877275,23.5385079 C10.1788894,23.5385079 7.70778468,22.1691088 5.25328211,20.7500558 L10.3877275,17.7795399 L15.5221729,20.7500558 Z" id="Path" fill="#76A8F0"></path>
            <polygon id="Path" fill="#3873C7" points="20.7160366 11.7348448 20.7160366 11.7688184 20.7160366 11.8036632 15.5815912 14.7741791 10.3877275 11.7688184 15.5815912 8.76432879 20.7160366 11.7348448"></polygon>
            <path d="M0.216702256,17.6540987 L5.19386375,14.7741791 L10.3877275,17.7795399 L5.25328211,20.7500558 C2.79790574,19.3301318 0.36087916,17.8596828 0.216702256,17.6540987 Z" id="Path" fill="#ACCBF6"></path>
            <path d="M10.3877275,5.73719008 L15.5734275,8.75895655 L10.3863441,11.7777422 L10.3788637,11.7731901 L10.3877275,11.7688184 L5.19386375,8.76432879 L10.3877275,5.73719008 Z" id="Combined-Shape" fill="#7EADF1"></path>
            <path d="M0.216702256,5.8844092 L5.19386375,8.76432879 L5.60841836,8.5234092 L5.60979227,8.52389993 L0.0594183605,11.7348448 L0.0690301541,9.74172437 L0.19573107,5.98894349 L0.216702256,5.8844092 Z" id="Combined-Shape" fill="#D1E2FA"></path>
            <path d="M5.25328211,2.78845209 L10.3877275,5.75896806 L5.19386375,8.76432879 L0.216702256,5.8844092 L0.216702256,5.8844092 C0.321558186,5.7014742 2.77868215,4.21970069 5.25328211,2.78845209 Z" id="Path" fill="#C4DAF8"></path>
        </g>
    </g>
</svg>