<?xml version="1.0" encoding="utf-8"?>
<!-- Generator: Adobe Illustrator 15.0.2, SVG Export Plug-In . SVG Version: 6.00 Build 0)  -->
<!DOCTYPE svg PUBLIC "-//W3C//DTD SVG 1.1//EN" "http://www.w3.org/Graphics/SVG/1.1/DTD/svg11.dtd">
<svg version="1.1" id="Ebene_1" xmlns="http://www.w3.org/2000/svg" xmlns:xlink="http://www.w3.org/1999/xlink" x="0px" y="0px"
	 width="210px" height="95.402px" viewBox="40 -0.242 210 95.402" enable-background="new 40 -0.242 210 95.402"
	 xml:space="preserve">
<g id="Ebene_1_1_" display="none">
	<g display="inline">
		<path fill="#EC6608" d="M89.275,38.521c-2.529-2.53-5.252-5.061-8.367-7.589c-1.945-1.557-3.695-2.92-5.643-4.28
			c-0.195,0.389-0.195,0.583-0.389,0.973c3.307,1.945,6.615,4.28,9.729,6.811C86.357,35.795,87.719,37.159,89.275,38.521z
			 M46.662,75.883c-8.172-6.617-14.594-14.205-18.68-21.602c-2.334,0.779-4.475,1.363-6.617,1.557
			c4.477,6.813,10.508,13.816,18.291,20.043c21.016,16.928,46.115,22.57,58.959,14.203C86.357,96.115,64.953,90.67,46.662,75.883z
			 M27.205,24.122c3.502-3.892,8.949-6.032,15.371-6.227c0.195-1.558,0.584-3.113,1.168-4.477
			c-10.701-1.556-20.043,0.391-25.49,6.228c-7.199,7.782-6.031,20.626,1.361,33.663c2.334,0,4.67-0.389,7.199-0.975
			C21.367,41.245,20.979,30.738,27.205,24.122z"/>
		<path fill="#EC6608" d="M232.098,72.572V32.1h7.199v22.376h0.193l3.113-14.206H250l-3.504,14.008L250,72.768h-7.59l-2.92-17.123
			h-0.193v17.123 M213.225,72.572V40.077h7.199v2.725h0.193c0.584-1.168,1.361-1.945,2.141-2.529
			c0.78-0.584,1.945-0.778,2.918-0.778c1.557,0,2.725,0.389,3.502,1.362c0.779,0.973,1.17,2.335,1.17,4.086V57.59h-7.201V47.47
			c0-0.778,0-1.167-0.389-1.557c-0.195-0.194-0.584-0.388-0.975-0.388c-0.389,0-0.775,0.193-0.973,0.388
			c-0.193,0.39-0.39,0.778-0.39,1.557v25.296h-7.198v-0.193H213.225z M193.959,48.639c0-3.307,0.584-5.642,1.945-7.198
			c1.363-1.363,3.504-2.141,6.615-2.141c3.115,0,5.254,0.777,6.617,2.141c1.36,1.361,1.946,3.695,1.946,7.198v15.566
			c0,3.309-0.586,5.645-1.946,7.199c-1.363,1.363-3.502,2.139-6.617,2.139c-3.111,0-5.252-0.775-6.615-2.139
			c-1.361-1.363-1.945-3.695-1.945-7.199V48.639z M201.158,46.498V66.15c0,0.776,0.195,1.168,0.389,1.559
			c0.195,0.389,0.584,0.389,0.975,0.389c0.39,0,0.779-0.197,0.974-0.389c0.194-0.391,0.392-0.779,0.392-1.559V46.498
			c0-0.778-0.195-1.167-0.392-1.556c-0.192-0.39-0.584-0.39-0.974-0.39c-0.391,0-0.776,0.195-0.975,0.39
			C201.354,45.136,201.158,45.72,201.158,46.498z M167.498,72.572l-4.281-32.496h7.395l1.361,16.927
			c0,0.974,0.195,2.336,0.195,3.504c0,1.361,0,2.726,0,4.084h0.193c0-2.723,0.195-5.444,0.582-7.975c0-0.197,0-0.392,0-0.392
			l1.754-15.956h7.588l1.559,16.928c0,0.193,0,1.166,0.191,2.725c0,1.75,0.195,3.307,0.195,4.863h0.389
			c0.195-2.334,0.195-4.863,0.584-7.395c0-0.582,0-0.775,0-0.974l1.557-15.956h7.006L188.9,72.959h-8.367l-1.361-14.982
			c0-0.389,0-1.358-0.193-2.725c0-1.361-0.194-2.918-0.194-4.67h-0.193c0,2.336-0.194,4.67-0.584,6.811v0.195l-1.944,15.373H167.5
			v-0.389H167.498z"/>
		<path fill="#EC6608" d="M31.68,48.445c-11.869,4.863-23.35,3.307-25.686-3.698c-2.334-6.811,5.449-16.345,17.125-21.404
			c0.973-0.389,1.75-0.778,2.723-0.972c-1.557,0.389-3.309,0.972-4.863,1.75C8.135,29.375-0.23,39.882,2.299,47.277
			c2.529,7.588,14.982,9.34,28.02,3.891c11.674-4.865,19.652-13.815,19.07-21.014C48.803,36.575,41.799,44.163,31.68,48.445z"/>
		<path fill="#006EAB" d="M153.293,65.568L153.293,65.568c-0.586,1.168-1.363,2.141-2.143,2.723
			c-0.775,0.584-1.943,0.977-3.111,0.977c-1.559,0-2.725-0.393-3.5-1.367c-0.781-0.774-1.17-2.334-1.17-4.084V44.749
			c0-1.557,0.389-2.919,1.17-3.698c0.775-0.777,1.941-1.361,3.5-1.361c1.168,0,2.139,0.194,2.92,0.778
			c0.775,0.583,1.555,1.362,2.139,2.529h0.195v-2.918h7.004v30.548c0,3.309-0.584,5.838-1.945,7.201
			c-1.36,1.359-3.502,2.137-6.617,2.137c-2.723,0-4.862-0.582-6.225-1.943c-1.557-1.362-2.141-3.11-2.141-5.448v-2.527h7.199v2.527
			c0,0.778,0.192,1.17,0.391,1.557c0.191,0.394,0.582,0.394,0.971,0.394c0.391,0,0.777-0.195,0.975-0.394
			c0.193-0.387,0.39-0.774,0.39-1.557 M150.568,61.287c0,0.777,0,1.363,0.389,1.555c0.193,0.195,0.584,0.393,0.973,0.393
			c0.391,0,0.777-0.194,0.975-0.393c0.193-0.387,0.39-0.775,0.39-1.555v-14.01c0-0.584-0.192-1.167-0.39-1.362
			c-0.194-0.388-0.584-0.388-0.975-0.388c-0.582,0-0.777,0.193-0.973,0.388c-0.195,0-0.389,0.583-0.389,1.362V61.287z
			 M124.105,72.572V40.077h7.202v2.725h0.194c0.582-1.168,1.358-1.945,2.138-2.529c0.78-0.584,1.752-0.778,2.92-0.778
			c1.557,0,2.725,0.389,3.502,1.362c0.78,0.973,1.168,2.335,1.168,4.086V72.57h-7.199V47.277c0-0.778,0-1.167-0.193-1.557
			c-0.195-0.193-0.584-0.389-0.975-0.389c-0.389,0-0.777,0.195-0.973,0.389c-0.195,0.391-0.388,0.778-0.388,1.557V72.57h-7.396
			V72.572L124.105,72.572z M114.57,38.13v-6.226h7.201v6.226H114.57z M114.57,72.572V40.077h7.201v32.496L114.57,72.572
			L114.57,72.572z M104.842,72.572V32.1h7.199v40.667h-7.199V72.572z M95.307,38.13v-6.226h7.201v6.226H95.307z M95.307,72.572
			V40.077h7.201v32.496L95.307,72.572L95.307,72.572z M75.85,46.887c0-2.529,0.779-4.28,2.139-5.643
			c1.363-1.168,3.504-1.945,6.422-1.945c3.113,0,5.252,0.777,6.615,2.141c1.363,1.361,1.945,3.695,1.945,7.199v19.846
			c0,0.781,0,1.56,0.195,2.339c0,0.582,0.195,1.36,0.389,1.942H86.16c0-0.387-0.193-0.776-0.193-1.168c0-0.387,0-0.774,0-1.166
			v-0.584h-0.195c-0.584,0.976-1.166,1.945-2.141,2.531c-0.973,0.582-1.945,0.775-3.113,0.775c-1.557,0-2.723-0.389-3.502-1.361
			c-0.777-0.973-1.166-2.336-1.166-4.086v-6.811c0-1.75,0.389-3.111,0.973-4.088c0.584-0.974,1.557-1.943,2.918-2.724
			c0.389-0.192,1.166-0.584,1.945-0.974c2.725-1.36,4.086-2.725,4.086-3.891v-2.336c0-0.776-0.195-1.167-0.389-1.556
			c-0.195-0.39-0.584-0.39-0.975-0.39c-0.389,0-0.777,0.194-0.973,0.39c-0.193,0.389-0.387,0.779-0.387,1.556v4.67h-7.201v-4.669
			h0.003V46.887z M85.773,65.373v-8.563c-0.195,0-0.195,0.192-0.389,0.391c-1.361,1.166-2.143,2.139-2.143,2.916v5.254
			c0,0.779,0,1.168,0.391,1.559c0.193,0.193,0.584,0.391,0.973,0.391s0.779-0.194,0.973-0.391
			C85.773,66.541,85.773,65.955,85.773,65.373z M47.053,72.572V40.077h7.004v2.725h0.195c0.584-1.168,1.361-1.945,2.141-2.529
			c0.777-0.584,1.945-0.778,3.111-0.778c1.168,0,1.947,0.194,2.725,0.778c0.779,0.584,1.363,1.361,1.557,2.529h0.195
			c0.584-1.168,1.361-1.945,2.334-2.529c0.779-0.584,1.75-0.778,2.92-0.778c1.557,0,2.725,0.389,3.502,1.362
			c0.779,0.973,1.168,2.335,1.168,4.279v27.63h-7.199V47.471c0-0.778,0-1.167-0.195-1.557c-0.195-0.194-0.584-0.388-0.973-0.388
			s-0.779,0.193-0.973,0.388c-0.195,0.39-0.391,0.778-0.391,1.557v25.294h-7.199V47.471c0-0.778,0-1.167-0.389-1.557
			c-0.195-0.194-0.584-0.388-0.975-0.388c-0.389,0-0.777,0.193-0.971,0.388c-0.195,0.39-0.391,0.778-0.391,1.557v25.294H47.05
			v-0.193H47.053z"/>
		<path fill="#EC6608" d="M68.846,21.787c0-1.557,0-3.114-0.389-4.864c-1.752-9.34-8.367-15.957-14.984-14.79
			c-4.084,0.779-7.199,4.478-8.563,9.34c1.559-3.112,3.893-5.253,6.813-5.837c1.555-0.194,2.918-0.194,4.475,0.391
			c-6.811,1.944-10.896,8.562-9.924,15.372c2.725,1.751,6.033,2.919,9.924,3.308C61.256,25.094,65.73,23.927,68.846,21.787z
			 M71.375,19.647c1.166-1.362,1.943-3.113,1.943-4.865c-0.971-2.724-2.918-5.059-5.252-6.811c1.361,2.141,2.334,4.865,2.725,7.589
			C71.18,16.922,71.375,18.285,71.375,19.647z M58.338,28.013c-4.281-0.388-8.172-1.751-11.09-3.695
			c2.334,6.614,9.533,10.507,16.537,8.756c-0.777,1.168-1.557,1.946-2.334,2.723c1.752-0.583,3.113-1.75,4.281-3.307h0.195
			c0.582-0.778,0.973-1.558,1.361-2.335l0,0c0.195-0.194,0.195-0.389,0.389-0.778c0.389-0.778,0.584-1.75,0.779-2.529
			C65.342,27.625,62.035,28.208,58.338,28.013z M70.596,25.484c-0.582,2.141-1.361,4.086-2.531,5.643
			c2.727-1.944,4.865-4.67,5.645-7.978C72.932,23.927,71.764,24.706,70.596,25.484z"/>
		<path fill="#EC6608" d="M75.85,14.587c0.389-4.086-2.531-7.978-7.004-10.507c2.529,2.14,4.086,5.059,3.891,7.979
			c-0.389,6.226-7.979,10.701-16.928,9.923c-6.813-0.583-12.453-3.892-14.594-8.366c0.777,5.837,7.59,10.896,16.344,11.675
			C67.094,26.068,75.266,21.204,75.85,14.587z"/>
		<path fill="#EC6608" d="M89.275,38.521c-2.529-2.53-5.252-5.061-8.367-7.589c-1.945-1.557-3.695-2.92-5.643-4.28
			c-0.195,0.389-0.195,0.583-0.389,0.973c3.307,1.945,6.615,4.28,9.729,6.811C86.357,35.795,87.719,37.159,89.275,38.521z
			 M46.662,75.883c-8.172-6.617-14.594-14.205-18.68-21.602c-2.334,0.779-4.475,1.363-6.617,1.557
			c4.477,6.813,10.508,13.816,18.291,20.043c21.016,16.928,46.115,22.57,58.959,14.203C86.357,96.115,64.953,90.67,46.662,75.883z
			 M27.205,24.122c3.502-3.892,8.949-6.032,15.371-6.227c0.195-1.558,0.584-3.113,1.168-4.477
			c-10.701-1.556-20.043,0.391-25.49,6.228c-7.199,7.782-6.031,20.626,1.361,33.663c2.334,0,4.67-0.389,7.199-0.975
			C21.367,41.245,20.979,30.738,27.205,24.122z"/>
		<path fill="#EC6608" d="M232.098,72.572V32.1h7.199v22.376h0.193l3.113-14.206H250l-3.504,14.008L250,72.768h-7.59l-2.92-17.123
			h-0.193v17.123 M213.225,72.572V40.077h7.199v2.725h0.193c0.584-1.168,1.361-1.945,2.141-2.529
			c0.78-0.584,1.945-0.778,2.918-0.778c1.557,0,2.725,0.389,3.502,1.362c0.779,0.973,1.17,2.335,1.17,4.086V57.59h-7.201V47.47
			c0-0.778,0-1.167-0.389-1.557c-0.195-0.194-0.584-0.388-0.975-0.388c-0.389,0-0.775,0.193-0.973,0.388
			c-0.193,0.39-0.39,0.778-0.39,1.362V72.57h-7.196V72.572z M193.959,48.639c0-3.307,0.584-5.642,1.945-7.198
			c1.363-1.363,3.504-2.141,6.615-2.141c3.115,0,5.254,0.777,6.617,2.141c1.36,1.361,1.946,3.695,1.946,7.198v15.566
			c0,3.309-0.586,5.645-1.946,7.199c-1.363,1.363-3.502,2.139-6.617,2.139c-3.111,0-5.252-0.775-6.615-2.139
			c-1.361-1.363-1.945-3.695-1.945-7.199V48.639z M201.158,46.498V66.15c0,0.776,0.195,1.168,0.389,1.559
			c0.195,0.389,0.584,0.389,0.975,0.389c0.39,0,0.779-0.197,0.974-0.389c0.194-0.391,0.392-0.779,0.392-1.559V46.498
			c0-0.778-0.195-1.167-0.392-1.556c-0.192-0.39-0.584-0.39-0.974-0.39c-0.391,0-0.776,0.195-0.975,0.39
			C201.354,45.136,201.158,45.72,201.158,46.498z M167.498,72.572l-4.281-32.496h7.395l1.361,16.927
			c0,0.974,0.195,2.336,0.195,3.504c0,1.361,0,2.726,0,4.084h0.193c0-2.723,0.195-5.444,0.582-7.975c0-0.197,0-0.392,0-0.392
			l1.754-15.956h7.588l1.559,16.928c0,0.193,0,1.166,0.191,2.725c0,1.75,0.195,3.307,0.195,4.863h0.389
			c0.195-2.334,0.195-4.863,0.584-7.395c0-0.582,0-0.775,0-0.974l1.557-15.956h7.006L188.9,72.959h-8.367l-1.361-14.982
			c0-0.389,0-1.358-0.193-2.725c0-1.361-0.194-2.918-0.194-4.67h-0.193c0,2.336-0.194,4.67-0.584,6.811v0.195l-1.944,15.373H167.5
			v-0.389H167.498z"/>
		<path fill="#EC6608" d="M31.68,48.445c-11.869,4.863-23.35,3.307-25.686-3.698c-2.334-6.811,5.449-16.345,17.125-21.404
			c0.973-0.389,1.75-0.778,2.723-0.972c-1.557,0.389-3.309,0.972-4.863,1.75C8.135,29.375-0.23,39.882,2.299,47.277
			c2.529,7.395,14.982,9.34,28.02,3.891c11.674-4.865,19.652-13.815,19.07-21.014C48.803,36.575,41.799,44.163,31.68,48.445z"/>
		<path fill="#006EAB" d="M153.293,65.568L153.293,65.568c-0.586,1.168-1.363,2.141-2.143,2.723
			c-0.775,0.584-1.943,0.977-3.111,0.977c-1.559,0-2.725-0.393-3.5-1.367c-0.781-0.774-1.17-2.334-1.17-4.084V44.749
			c0-1.557,0.389-2.919,1.17-3.698c0.775-0.777,1.941-1.361,3.5-1.361c1.168,0,2.139,0.194,2.92,0.778
			c0.775,0.583,1.555,1.362,2.139,2.529h0.195v-2.918h7.004v30.548c0,3.309-0.584,5.838-1.945,7.201
			c-1.36,1.359-3.502,2.137-6.617,2.137c-2.723,0-4.862-0.582-6.225-1.943c-1.557-1.362-2.141-3.11-2.141-5.448v-2.527h7.199v2.527
			c0,0.778,0.192,1.17,0.391,1.557c0.191,0.394,0.582,0.394,0.971,0.394c0.391,0,0.777-0.195,0.975-0.394
			c0.193-0.387,0.39-0.774,0.39-1.557 M150.568,61.287c0,0.777,0,1.363,0.389,1.555c0.193,0.195,0.584,0.393,0.973,0.393
			c0.391,0,0.777-0.194,0.975-0.393c0.193-0.387,0.39-0.775,0.39-1.555v-14.01c0-0.584-0.192-1.167-0.39-1.362
			c-0.194-0.388-0.584-0.388-0.975-0.388c-0.582,0-0.777,0.193-0.973,0.388c-0.195,0-0.389,0.583-0.389,1.362V61.287z
			 M124.105,72.572V40.077h7.202v2.725h0.194c0.582-1.168,1.358-1.945,2.138-2.529c0.78-0.584,1.752-0.778,2.92-0.778
			c1.557,0,2.725,0.389,3.502,1.362c0.78,0.973,1.168,2.335,1.168,4.086V72.57h-7.199V47.277c0-0.778,0-1.167-0.193-1.557
			c-0.195-0.193-0.584-0.389-0.975-0.389c-0.389,0-0.777,0.195-0.973,0.389c-0.195,0.391-0.388,0.778-0.388,1.362v25.294h-7.396
			V72.572L124.105,72.572z M114.57,38.13v-6.226h7.201v6.226H114.57z M114.57,72.572V40.077h7.201v32.496L114.57,72.572
			L114.57,72.572z M104.842,72.572V32.1h7.199v40.667h-7.199V72.572z M95.307,38.13v-6.226h7.201v6.226H95.307z M95.307,72.572
			V40.077h7.201v32.496L95.307,72.572L95.307,72.572z M75.85,46.887c0-2.529,0.779-4.28,2.139-5.643
			c1.363-1.168,3.504-1.945,6.422-1.945c3.113,0,5.252,0.777,6.615,2.141c1.363,1.361,1.945,3.695,1.945,7.199v19.846
			c0,0.781,0,1.56,0.195,2.339c0,0.582,0.195,1.36,0.389,1.942H86.16c0-0.387-0.193-0.776-0.193-1.168c0-0.387,0-0.774,0-1.166
			v-0.584h-0.195c-0.584,0.976-1.166,1.945-2.141,2.531c-0.973,0.582-1.945,0.775-3.113,0.775c-1.557,0-2.723-0.389-3.502-1.361
			c-0.777-0.973-1.166-2.336-1.166-4.086v-6.811c0-1.75,0.389-3.111,0.973-4.088c0.584-1.166,1.557-1.943,2.918-2.724
			c0.389-0.192,1.166-0.584,1.945-0.974c2.725-1.36,4.086-2.725,4.086-3.891v-2.336c0-0.776-0.195-1.167-0.389-1.556
			c-0.195-0.39-0.584-0.39-0.975-0.39c-0.389,0-0.777,0.194-0.973,0.39c-0.193,0.389-0.387,0.779-0.387,1.556v4.67h-7.201v-4.669
			h0.003V46.887z M85.773,65.373v-8.563c-0.195,0-0.195,0.192-0.389,0.391c-1.361,1.166-2.143,2.139-2.143,2.916v5.254
			c0,0.779,0,1.168,0.391,1.559c0.193,0.193,0.584,0.391,0.973,0.391s0.779-0.194,0.973-0.391
			C85.773,66.541,85.773,65.955,85.773,65.373z M47.053,72.572V40.077h7.004v2.725h0.195c0.584-1.168,1.361-1.945,2.141-2.529
			c0.777-0.584,1.945-0.778,3.111-0.778c1.168,0,1.947,0.194,2.725,0.778c0.779,0.584,1.363,1.361,1.557,2.529h0.195
			c0.584-1.168,1.361-1.945,2.334-2.529c0.779-0.584,1.75-0.778,2.92-0.778c1.557,0,2.725,0.389,3.502,1.362
			c0.779,0.973,1.168,2.335,1.168,4.279v27.63h-7.199V47.471c0-0.778,0-1.167-0.195-1.557c-0.195-0.194-0.584-0.388-0.973-0.388
			s-0.779,0.193-0.973,0.388c-0.195,0.39-0.391,0.778-0.391,1.362V72.57h-7.199V47.277c0-0.779,0-1.167-0.389-1.558
			c-0.195-0.193-0.584-0.389-0.975-0.389c-0.389,0-0.777,0.195-0.971,0.389c-0.195,0.391-0.391,0.779-0.391,1.363v25.296H47.05
			v0.192h0.003V72.572z"/>
		<path fill="#EC6608" d="M68.846,21.787c0-1.557,0-3.114-0.389-4.864c-1.752-9.34-8.367-15.957-14.984-14.79
			c-4.084,0.779-7.199,4.478-8.563,9.34c1.559-3.112,3.893-5.253,6.813-5.837c1.555-0.194,2.918-0.194,4.475,0.391
			c-6.811,1.944-10.896,8.562-9.924,15.372c2.725,1.751,6.033,2.919,9.924,3.308C61.256,25.094,65.73,23.927,68.846,21.787z
			 M71.375,19.647c1.166-1.362,1.943-3.113,1.943-4.865c-0.971-2.724-2.918-5.059-5.252-6.811c1.361,2.141,2.334,4.865,2.725,7.589
			C71.18,16.922,71.375,18.285,71.375,19.647z M58.338,28.013c-4.281-0.388-8.172-1.751-11.09-3.695
			c2.334,6.614,9.533,10.507,16.537,8.756c-0.777,1.168-1.557,1.946-2.334,2.723c1.752-0.583,3.113-1.75,4.281-3.307h0.195
			c0.582-0.778,0.973-1.558,1.361-2.335l0,0c0.195-0.194,0.195-0.389,0.389-0.778c0.389-0.778,0.584-1.75,0.779-2.529
			C65.342,27.625,62.035,28.208,58.338,28.013z M70.596,25.484c-0.582,2.141-1.361,4.086-2.531,5.643
			c2.727-1.944,4.865-4.67,5.645-7.978C72.932,23.927,71.764,24.706,70.596,25.484z"/>
		<path fill="#EC6608" d="M75.85,14.587c0.389-4.086-2.531-7.978-7.004-10.507c2.529,2.14,4.086,5.059,3.891,7.979
			c-0.389,6.226-7.979,10.701-16.928,9.923c-6.813-0.583-12.453-3.892-14.594-8.366c0.777,5.837,7.59,10.896,16.344,11.675
			C67.094,26.068,75.266,21.204,75.85,14.587z"/>
	</g>
</g>
<g id="Ebene_2">
	<g>
		<polygon fill="#EE7D00" points="250,41.735 244.335,41.735 241.975,52.604 241.887,52.604 241.887,35.499 236.348,35.499 
			236.348,66.682 241.887,66.682 241.887,53.613 241.975,53.613 244.16,66.682 250,66.682 247.251,52.518 		"/>
		<path fill="#EE7D00" d="M230.695,41.271c-0.866,0-1.625,0.211-2.282,0.622c-0.647,0.418-1.211,1.061-1.679,1.933h-0.088v-2.091
			h-5.451v24.947h5.539V47.34c0-0.504,0.082-0.878,0.248-1.117c0.164-0.239,0.414-0.361,0.756-0.361c0.365,0,0.625,0.102,0.77,0.305
			c0.153,0.208,0.227,0.597,0.227,1.174v7.825h5.584v-9.642c0-1.408-0.312-2.47-0.908-3.183
			C232.805,41.626,231.902,41.271,230.695,41.271"/>
		<path fill="#EE7D00" d="M197.109,60.489l-1.629-18.755h-5.813l-2.334,18.755l-0.967-18.755h-5.626l3.432,24.948h6.322
			l1.703-17.189c0.044,1.372,1.705,17.189,1.705,17.189h6.412l3.742-24.948h-5.363L197.109,60.489z"/>
		<path fill="#EE7D00" d="M212.207,41.141c-2.331,0-4.007,0.542-5.023,1.618c-1.012,1.083-1.519,2.906-1.519,5.483v11.339
			c0,2.563,0.507,4.385,1.519,5.474c1.018,1.086,2.692,1.629,5.023,1.629c2.324,0,3.996-0.543,5.016-1.629
			c1.012-1.089,1.52-2.91,1.52-5.474V48.242c0-2.577-0.508-4.399-1.52-5.483C216.203,41.684,214.531,41.141,212.207,41.141
			 M213.248,61.039c0,0.549-0.082,0.938-0.234,1.175c-0.16,0.233-0.414,0.349-0.763,0.349c-0.354,0-0.61-0.114-0.771-0.349
			c-0.15-0.235-0.232-0.626-0.232-1.175V46.553c0-0.562,0.074-0.959,0.225-1.179c0.146-0.225,0.396-0.342,0.735-0.342
			c0.362,0,0.633,0.125,0.79,0.362c0.169,0.236,0.251,0.625,0.251,1.159L213.248,61.039L213.248,61.039z"/>
		<path fill="#006EB6" d="M125.404,48.242c0-2.604-0.504-4.438-1.503-5.504c-0.997-1.062-2.677-1.597-5.032-1.597
			c-2.159,0-3.796,0.479-4.892,1.438c-1.097,0.96-1.651,2.378-1.651,4.273v2.146h5.583v-2.19c0-0.534,0.073-0.922,0.225-1.161
			c0.146-0.239,0.392-0.362,0.735-0.362c0.363,0,0.632,0.123,0.792,0.362c0.167,0.239,0.249,0.627,0.249,1.161v1.775
			c0,0.961-1.049,1.972-3.134,3.022c-0.619,0.312-1.105,0.557-1.448,0.74c-1.044,0.564-1.81,1.258-2.288,2.082
			c-0.474,0.829-0.714,1.897-0.714,3.203v5.287c0,1.381,0.093,2.003,0.7,2.704c0.605,0.706,1.489,1.06,2.668,1.06
			c0.895,0,1.678-0.219,2.355-0.658c0.677-0.44,1.903-1.459,1.903-1.459v2.117h5.452V48.242L125.404,48.242z M119.91,61.059
			c0,0.506-0.081,0.873-0.249,1.111c-0.16,0.232-0.413,0.35-0.748,0.35c-0.371,0-0.633-0.104-0.778-0.309
			c-0.152-0.207-0.225-0.59-0.225-1.152v-4.127c0-0.643,0.551-1.392,1.658-2.236c0.143-0.117,0.253-0.195,0.342-0.252V61.059z"/>
		<rect x="127.503" y="41.735" fill="#006EB6" width="5.538" height="24.947"/>
		<rect x="127.503" y="35.499" fill="#006EB6" width="5.538" height="3.889"/>
		<path fill="#006EB6" d="M106.66,41.271c-0.865,0-1.621,0.211-2.283,0.637c-0.655,0.417-1.234,1.06-1.729,1.917h-0.086
			c-0.27-0.846-0.69-1.478-1.259-1.911c-0.574-0.425-1.279-0.644-2.123-0.644c-0.888,0-1.656,0.211-2.326,0.637
			c-0.66,0.417-1.214,1.06-1.657,1.917H95.11v-2.091h-5.409V66.68h5.496V47.34c0-0.504,0.08-0.878,0.247-1.117
			c0.166-0.239,0.429-0.361,0.777-0.361c0.372,0,0.641,0.102,0.792,0.305c0.155,0.208,0.228,0.597,0.228,1.174v19.341h5.451V47.34
			c0-0.504,0.08-0.878,0.239-1.117c0.16-0.239,0.415-0.361,0.75-0.361c0.363,0,0.619,0.102,0.77,0.305
			c0.146,0.208,0.216,0.597,0.216,1.174v19.341h5.562V45.523c0-1.451-0.29-2.524-0.873-3.212
			C108.777,41.62,107.882,41.271,106.66,41.271"/>
		<path fill="#006EB6" d="M173.3,41.735v2.091h-0.131c-0.479-0.887-1.048-1.535-1.683-1.941c-0.633-0.408-1.398-0.613-2.277-0.613
			c-1.164,0-2.053,0.333-2.662,1.004c-0.611,0.673-0.917,1.631-0.917,2.886v17.313c0,1.465,0.282,2.533,0.853,3.205
			c0.566,0.67,1.459,1.004,2.686,1.004c0.921,0,1.85-0.153,2.469-0.647c1.057-0.838,1.533-1.511,1.533-1.511v6.578
			c0,0.535-0.08,0.926-0.232,1.157c-0.16,0.241-0.412,0.361-0.762,0.361c-0.359,0-0.611-0.113-0.771-0.345
			c-0.152-0.238-0.233-0.629-0.233-1.176v-1.949h-5.54v1.906c0,1.787,0.577,3.186,1.717,4.178c1.143,0.986,2.748,1.486,4.828,1.486
			c2.34,0,4.01-0.537,5.021-1.595c1.013-1.069,1.514-2.899,1.514-5.506V41.735H173.3z M173.169,60.698
			c0,0.521-0.08,0.911-0.247,1.153c-0.162,0.248-0.416,0.371-0.747,0.371c-0.374,0-0.636-0.109-0.776-0.324
			c-0.154-0.225-0.229-0.621-0.229-1.2V47.146c0-0.565,0.073-0.945,0.229-1.155c0.142-0.202,0.402-0.303,0.776-0.303
			c0.331,0,0.585,0.116,0.747,0.345c0.167,0.24,0.247,0.609,0.247,1.113V60.698z"/>
		<rect x="135.139" y="35.499" fill="#006EB6" width="5.539" height="31.183"/>
		<path fill="#006EB6" d="M159.914,41.271c-0.869,0-1.631,0.211-2.283,0.622c-0.646,0.418-1.213,1.061-1.68,1.933h-0.085v-2.091
			h-5.453v24.947h5.538V47.34c0-0.504,0.082-0.878,0.248-1.117c0.156-0.239,0.414-0.361,0.754-0.361
			c0.365,0,0.628,0.102,0.773,0.305c0.152,0.208,0.224,0.597,0.224,1.174v19.341h5.581V45.523c0-1.408-0.305-2.47-0.908-3.183
			C162.021,41.626,161.119,41.271,159.914,41.271"/>
		<rect x="142.775" y="41.735" fill="#006EB6" width="5.539" height="24.947"/>
		<rect x="142.775" y="35.499" fill="#006EB6" width="5.539" height="3.889"/>
		<path fill="#EE7D00" d="M110.87,21.923c2.228,0.943,4.472,1.991,6.724,3.146c1.553,0.796,3.283,1.757,5.929,2.961
			c-1.836-1.271-5.551-3.595-7.998-5.064c-1.369-0.822-2.74-1.594-4.111-2.322C111.252,21.083,111.07,21.51,110.87,21.923"/>
		<path fill="#EE7D00" d="M91.9,77.072c-12.221-8.655-20.85-19.215-24.825-29.129c-2.424,1.278-4.756,2.415-6.961,3.397
			c5.026,9.133,13.439,18.442,24.498,26.274c22.832,16.165,49.083,20.47,61.988,10.968C134.117,95.366,111.624,91.037,91.9,77.072"
			/>
		<path fill="#EE7D00" d="M68.339,24.737c3.889-5.023,9.509-7.599,16.176-8.18c-0.074-1.417,0.065-2.871,0.452-4.316
			c-11.176-1.016-20.617,1.788-25.99,8.434c-5.646,6.984-5.369,17.089-0.377,27.683c2.296-0.897,4.796-2.013,7.446-3.325
			C63.625,37.274,64.202,30.081,68.339,24.737"/>
		<path fill="#EE7D00" d="M85.012,33.287C67.133,44.915,47.415,50.82,44.65,46.725c-2.312-3.42,5.46-12.897,18.275-23.066
			c-0.138-0.092-0.257-0.205-0.34-0.34c-15.151,12.01-24.418,23.636-21.524,27.805c3.437,4.948,22.733-2.504,43.099-16.647
			c0.721-0.5,1.433-1.003,2.135-1.506C86.749,32.708,85.292,33.129,85.012,33.287"/>
		<path fill="#EE7D00" d="M100.439,20.613c-0.272-0.761-0.445,0.31-0.482,0.306c-1.076-0.104-1.446,0.203-2.54,0.357
			c5.338-4.806,8.863-9.114,10.119-12.264c-1.48-1.986-3.605-3.512-6.184-4.205c-6.096-1.64-12.366,1.972-14.005,8.066
			c-1.639,6.095,1.972,12.365,8.068,14.005c6.094,1.641,12.365-1.971,14.003-8.066c0.636-2.362,0.475-4.746-0.304-6.882
			C107.085,14.403,104.082,17.312,100.439,20.613"/>
		<path fill="#EE7D00" d="M113.332,3.526c-1.057-1.82-4.116-2.185-8.601-1.455c-0.916,0.161-1.614,0.546-0.912,0.392
			c3.904-0.596,5.872,0.114,6.763,1.696c1.842,3.278-4.285,10.733-15.623,18.895c0.626,0.403,1.212,0.898,1.76,1.381
			C108.568,15.5,115.475,7.224,113.332,3.526"/>
	</g>
</g>
</svg>
