<?xml version="1.0" encoding="UTF-8" standalone="no"?>
<!DOCTYPE svg PUBLIC "-//W3C//DTD SVG 1.1//EN" "http://www.w3.org/Graphics/SVG/1.1/DTD/svg11.dtd">
<svg width="100%" height="100%" viewBox="0 0 1195 268" version="1.1" xmlns="http://www.w3.org/2000/svg" xmlns:xlink="http://www.w3.org/1999/xlink" xml:space="preserve" style="fill-rule:evenodd;clip-rule:evenodd;stroke-linejoin:round;stroke-miterlimit:1.41421;">
    <g id="Layer-1">
        <g>
            <clipPath id="_clip1">
                <rect x="0" y="0" width="1194.56" height="267.113"/>
            </clipPath>
            <g clip-path="url(#_clip1)">
                <path d="M517.978,148.561L517.979,148.561L517.978,148.556L517.978,148.561Z" style="fill-rule:nonzero;"/>
                <path d="M1124.49,181.976L1124.35,181.714L1124.07,180.81L1124.2,180.536C1133.16,162.065 1143.44,151.472 1152.38,151.472L1152.47,151.472C1162.57,151.55 1169.55,160.631 1169.45,173.555C1169.38,182.182 1165.58,187.149 1162.41,189.795C1158.78,192.815 1153.95,194.545 1149.16,194.545C1137.35,194.456 1129.24,187.662 1124.49,181.976M1122.05,251.72C1120.61,253.64 1118.6,254.612 1116.08,254.612C1113.19,254.59 1111.02,253.579 1109.55,251.609C1105.41,246.08 1106.58,233.092 1113.33,209.502C1114.13,206.689 1115.01,203.857 1115.93,201.083L1116.71,198.73L1117.4,201.112C1125.27,228.334 1126.83,245.361 1122.05,251.72M832.996,126.311C833.26,120.432 833.753,114.707 834.457,109.296C839.009,74.414 848.518,50.053 857.584,50.053L857.623,50.053C861.943,50.085 864.107,53.353 864.059,59.763C863.939,75.513 853.961,98.061 834.403,126.781L832.872,129.029L832.996,126.311ZM1150.19,205.878L1150.5,205.88C1169.54,205.88 1182.93,192.696 1183.08,173.819C1183.15,164.475 1180.45,155.923 1175.48,149.74C1170.22,143.197 1162.85,139.706 1154.18,139.64L1154.01,139.638C1142.3,139.638 1131.43,148.52 1120.78,166.794L1119.93,168.248L1119.38,166.654C1116.69,158.823 1114.3,152.299 1112.87,148.401C1111.87,145.676 1111.42,144.454 1111.32,144.06C1110.81,142.08 1109.11,140.854 1106.9,140.854C1105.54,140.854 1104.09,141.316 1102.72,142.186C1101.36,143.048 1100.61,144.106 1100.33,145.515L1100.27,145.726C1089.6,178.982 1080.81,195.134 1073.36,195.135C1072.28,195.127 1071.43,194.769 1070.8,194.071C1068.85,191.912 1069.33,186.783 1069.99,179.682C1070.48,174.47 1071.03,168.562 1070.8,162.295C1070.36,150.253 1063.77,143.016 1053.17,142.935C1039.7,142.933 1030.98,157.273 1026.96,165.82L1025.76,168.372L1025.49,165.565C1024.49,154.983 1020.94,142.35 1009.73,142.265C996.654,142.265 986.692,157.611 980.617,170.487L978.987,173.938L979.147,170.126C979.872,152.949 980.466,142.814 980.91,139.998C981.354,137.179 981.121,135.283 980.198,134.201C979.324,133.182 977.676,132.807 975.256,132.961C971.07,133.226 968.929,135.772 965.709,144.313C960.417,158.341 946.951,190.97 936.199,190.97C934.067,190.955 932.378,190.227 931.141,188.811C926.631,183.638 928.434,169.668 930.93,150.33L931.119,148.868C932.299,139.713 930.283,137.76 925.315,136.844C924.779,136.745 924.271,136.695 923.804,136.695C919.832,136.695 917.975,140.499 914.265,151.066C907.666,169.874 899.181,189.657 889.251,189.657C888.889,189.657 888.526,189.627 888.166,189.567C882.905,188.675 883.02,180.868 883.166,170.985C883.244,165.639 883.334,159.581 882.508,154.109C881.026,144.293 875.241,138.159 867.411,138.098C851.78,138.096 841.24,158.113 836.337,170.044L835.226,172.744L834.857,169.847C834.199,164.675 833.334,156.475 832.957,146.777L832.946,146.491L833.124,146.266C862.375,109.446 875.499,82.875 875.674,60.11C875.785,45.565 869.076,36.83 857.726,36.742C849.43,36.742 829.692,43.654 822.836,107.689C821.564,119.563 820.865,131.738 820.76,143.876L820.758,144.113L820.622,144.307C807.243,163.677 778.68,196.996 750.717,196.996C725.452,196.996 705.294,176.557 705.294,140.476C705.294,92.108 739.533,62.411 765.296,62.411L765.507,62.413C771.107,62.455 775.907,64.019 779.393,66.935C783.011,69.963 784.903,74.207 784.864,79.206C784.815,85.885 782.641,89.315 780.538,92.632C779.998,93.485 779.46,94.334 778.967,95.233C778.47,96.138 778.017,97.456 778.677,98.583C779.354,99.737 781.083,100.462 783.191,100.479C789.325,100.479 798.599,91.602 798.701,78.225C798.808,64.225 787.015,49.799 765.973,49.799C734.134,49.799 691.256,84.779 691.256,141.469C691.256,181.57 716.396,209.285 750.455,209.285C774.626,209.285 798.535,191.983 819.706,163.078L821.003,161.324L821.096,163.504C821.544,174.08 822.314,182.421 822.875,188.509C823.236,192.423 823.498,195.249 823.487,196.809C823.46,200.229 824.019,202.598 825.197,204.054C826.375,205.513 828.246,206.203 831.083,206.224C835.839,206.224 836.789,202.979 838.672,194.987L839.215,192.703C841.554,183.01 850.197,151.378 863.2,151.378C865.322,151.395 866.959,152.028 868.122,153.261C870.995,156.307 870.681,162.555 870.317,169.793C870.089,174.309 869.854,178.977 870.308,183.521C871.532,195.789 876.83,201.789 886.504,201.862C896.441,201.864 906.806,191.165 912.274,181.221L913.307,179.343L913.708,181.449C914.719,186.769 919.235,204.24 933.373,204.24C946.189,204.24 957.178,190.742 969.23,162.975L970.805,159.345L970.709,163.301C970.451,173.826 969.883,186.676 969.879,196.612C969.874,204.296 970.65,207.229 974.202,207.229C974.454,207.229 974.725,207.268 975.006,207.268C978.415,207.268 980.729,205.229 981.882,201.209C990.946,169.609 998.784,154.893 1006.55,154.893C1014.15,154.95 1014.86,168.85 1015.48,193.413L1015.51,195.133C1015.7,203.725 1016,207.524 1021.35,207.566C1025.39,207.566 1026.4,204.387 1028.5,196.554C1028.89,195.057 1029.33,193.42 1029.84,191.654C1037.16,166.252 1043.23,155.892 1050.79,155.892C1057.25,155.942 1057.61,162.609 1057.73,164.801C1057.98,169.495 1057.5,174.404 1057.03,179.15C1056.6,183.557 1056.15,188.112 1056.32,192.359C1056.72,202.293 1062.16,207.803 1071.64,207.876C1083.94,207.877 1095.05,193.487 1104.78,165.105L1105.46,163.128L1106.23,165.072C1107.99,169.527 1110.29,175.566 1112.42,182.771L1112.5,183.046L1112.38,183.307C1102.97,204.225 1096.32,227.526 1096.23,239.97C1096.1,256.368 1103.52,267.022 1115.13,267.112L1115.33,267.113C1121.64,267.113 1136.36,264.579 1136.64,241.115C1136.76,231.498 1134.49,217.899 1129.9,200.695L1129.37,198.726L1131.07,199.853C1136.93,203.744 1143.54,205.827 1150.19,205.878" style="fill-rule:nonzero;"/>
                <path d="M530.371,157.721C526.228,174.394 518.285,194.509 503.963,195.66C503.563,195.69 503.173,195.708 502.796,195.708C496.857,195.708 493.525,191.819 492.896,184.148C492.108,174.547 496.248,163.3 503.44,155.494C508.019,150.523 513.183,147.786 517.978,147.786L518.076,147.786C524.134,147.833 528.379,152.696 530.332,157.23L530.434,157.468L530.371,157.721ZM661.702,64.506L661.906,64.502C663.257,64.502 664.443,65.18 665.433,66.519C670.132,72.874 670.202,96.064 662.12,122.452C657.5,137.532 651.289,151.778 644.158,163.648L643.021,165.539L642.732,163.35C641.893,156.971 641.479,150.327 641.187,144.669C639.124,104.785 651.19,65.053 661.702,64.506M552.635,202.827C566.474,201.715 577.454,182.895 581.533,174.855L582.585,172.781L582.981,175.072C584.937,186.386 591.09,205.39 610.34,205.537L610.5,205.54C618.826,205.54 628.272,200.448 637.817,190.816L638.517,190.108L639.026,190.962C645.453,201.708 654.074,207.419 663.249,206.949C676.762,206.249 684.962,196.67 685.685,190.022C685.87,188.327 685.42,186.735 684.453,185.655C683.237,184.299 681.473,184.146 680.175,185.383L679.56,185.969C676.412,188.992 670.552,194.618 664.167,194.949C656.349,195.335 650.567,190.657 646.829,181.01L646.674,180.607L646.936,180.264C668.435,152.142 683.525,109.232 682.035,80.454C681.349,67.134 677.475,51.255 662.929,51.255C662.573,51.255 662.211,51.264 661.844,51.284C656.271,51.572 651.204,54.226 646.781,59.175C633.284,74.274 626.22,111.443 628.784,153.868C629.316,162.683 630.847,170.918 633.333,178.343L633.472,178.758L633.189,179.091C625.211,188.414 617.338,193.551 611.024,193.551C595.824,193.551 596.338,168.072 597.539,146.936C597.799,142.381 598.184,139.479 596.836,137.828C595.871,136.647 594.26,136.064 591.912,136.045L591.637,136.044C586.231,136.044 585.101,137.156 582.331,145.181C576.575,161.858 565.212,189.837 553.781,189.837C550.612,189.813 548.194,188.728 546.54,186.618C540.995,179.539 545.205,161.888 548.587,147.702C549.195,145.15 549.779,142.702 550.278,140.437C551.02,137.073 550.792,134.617 549.602,133.135C548.413,131.655 546.032,131.053 542.889,131.303C537.994,131.694 534.864,133.743 533.352,143.053L533.05,144.99L531.91,143.612C529.774,140.456 525.604,136.694 517.867,136.694C517.189,136.694 516.487,136.72 515.762,136.781C507.504,137.459 498.101,143.21 491.221,151.796C483.186,161.822 479.349,174.509 480.417,187.522C480.474,188.21 480.573,188.87 480.672,189.53L480.728,189.894L480.478,190.167C475.671,195.404 470.774,198.061 465.922,198.062C458.433,198.003 454.135,192.435 454.135,183.164C454.135,167.558 464.712,120.513 464.712,103.481C464.712,85.357 456.634,75.488 442.61,75.381L442.398,75.379C421.922,75.379 405.957,98.619 390.685,146.428C389.286,150.808 387.765,155.866 386.46,160.238L384.316,167.426L384.952,159.952C386.37,143.298 387.345,127.094 387.849,111.79C388.609,88.684 385.485,73.814 378.299,66.329C374.423,62.293 369.293,60.306 362.614,60.255L362.437,60.255C337.377,60.255 325.372,102.518 316.632,132.342C313.993,141.343 308.791,161.648 305.32,175.531L307.377,172.188C308.92,154.707 313.385,110.921 313.092,87.168C312.778,61.685 304.292,50.259 285.575,50.115L285.345,50.115C275.348,50.115 268.412,55.085 264.353,59.254C257.839,65.944 253.778,75.721 254.004,84.164C254.141,89.297 257.292,93.865 259.679,93.865C261.235,93.865 262.095,91.79 262.47,90.554C268.26,71.412 275.752,62.106 285.372,62.106C289.362,62.137 292.328,63.312 294.552,65.699C302.066,73.76 300.7,95.525 298.22,135.04C297.421,147.773 296.516,162.203 295.751,178.617C295.62,181.431 295.444,184.154 295.278,186.737C294.547,198.138 293.968,207.144 298.291,207.813C303.915,208.69 307.577,206.407 309.448,200.839C312.227,192.577 318.459,170.001 330.516,128.741C342.084,89.15 350.825,74.745 362.008,74.745C374.927,74.745 375.89,96.928 373.521,143.737C373.018,153.658 372.342,164.899 371.824,177.134C371.752,178.852 371.67,180.517 371.59,182.123C371.094,192.247 370.701,200.245 373.593,203.307C374.496,204.26 375.724,204.733 377.348,204.744C382.948,204.744 384.632,199.832 387.421,191.694C387.915,190.255 388.439,188.724 389.022,187.116C408.213,134.18 422.401,88.251 441.446,88.251C447.16,88.251 451.601,92.891 451.601,101.941C451.601,122.828 441.39,163.192 441.39,183.653C441.39,190.981 443.499,197.567 447.487,202.191C451.578,206.937 457.303,209.472 464.041,209.524L464.189,209.524C470.561,209.524 477.201,206.426 483.927,200.322L484.557,199.749L485.064,200.432C489.493,206.391 496.64,209.589 504.356,208.992C516.192,208.071 526.124,197.531 529.818,187.595L530.541,185.65L531.264,187.595C534.003,194.97 539.943,203.858 552.635,202.827" style="fill-rule:nonzero;"/>
                <path d="M596.8,96.616C591.513,96.616 587.241,100.782 587.202,105.902C587.162,111.06 591.403,115.288 596.656,115.329L596.732,116.096L596.732,115.329C601.942,115.329 606.213,111.167 606.251,106.048C606.292,100.887 602.051,96.657 596.8,96.616" style="fill-rule:nonzero;"/>
                <path d="M929.208,96.616C923.921,96.616 919.65,100.782 919.612,105.902C919.57,111.06 923.811,115.288 929.065,115.329L929.14,116.096L929.14,115.329C934.351,115.329 938.622,111.167 938.66,106.048C938.7,100.887 934.461,96.657 929.208,96.616" style="fill-rule:nonzero;"/>
                <path d="M1188.07,207.363C1185,207.363 1182.52,204.889 1182.52,201.815C1182.52,198.744 1185,196.265 1188.07,196.265C1191.14,196.265 1193.62,198.744 1193.62,201.815C1193.62,204.889 1191.14,207.363 1188.07,207.363M1188.07,195.32C1184.49,195.32 1181.58,198.236 1181.58,201.815C1181.58,205.393 1184.49,208.306 1188.07,208.306C1191.65,208.306 1194.56,205.393 1194.56,201.815C1194.56,198.236 1191.65,195.32 1188.07,195.32" style="fill-rule:nonzero;"/>
                <path d="M1187.86,201.414L1186.65,201.414L1186.65,198.883L1188.33,198.883C1189.13,198.883 1190.01,199.161 1190.01,200.122C1190.01,201.361 1188.89,201.414 1187.86,201.414M1190.95,200.122C1190.95,198.778 1190.29,198.044 1188.59,198.044L1185.71,198.044L1185.71,205.532L1186.65,205.532L1186.65,202.25L1188,202.25L1190.23,205.532L1191.3,205.532L1189.06,202.25C1190.08,202.077 1190.95,201.5 1190.95,200.122" style="fill-rule:nonzero;"/>
                <path d="M215.981,238.709L215.981,242.732L217.049,242.732L217.049,239.827L217.922,242.732L218.832,242.732L219.705,239.82L219.705,242.732L220.773,242.732L220.773,238.709L219.103,238.709L218.382,241.024L217.65,238.709L215.981,238.709ZM213.254,239.674L213.254,242.732L214.425,242.732L214.425,239.674L215.623,239.674L215.623,238.709L212.071,238.709L212.071,239.674L213.254,239.674ZM242.857,184.502C242.656,185.16 223.65,258.215 148.972,258.193C84.419,258.173 53.821,202.063 53.821,202.063C49.116,202.325 44.577,201.578 40.39,200.04C21.45,193.081 12.363,171.414 18.898,153.236L8.489,145.281C-31.833,114.565 82.391,-25.994 122.783,5.812C122.988,5.972 132.425,13.569 132.425,13.569C146.928,4.762 161.291,0.001 172.966,0C181.258,0 188.192,2.4 192.862,7.456C203.346,18.808 199.577,40.484 185.262,62.43C188.341,65.353 190.893,69.326 192.714,73.27C197.266,76.782 200.215,82.12 201.681,89.493C203.313,97.692 203.652,109.369 204.676,114.387C208.536,116.13 206.892,115.324 211.008,117.38C215.299,119.525 220.526,122.136 226.301,127.694C236.567,130.266 240.487,141.181 234.48,148.63C234.319,148.83 233.594,149.689 232.843,150.544C233.022,151.017 234.991,154.207 236.412,160.702C240.666,161.706 244.055,164.326 245.833,168.124C248.909,175.558 242.857,184.502 242.857,184.502" style="fill:rgb(104,76,70);fill-rule:nonzero;"/>
                <path d="M211.213,216.617C231.465,200.704 235.003,181.54 235.341,180.88C240.324,174.903 238.969,169.015 232.386,169.014C230.291,169.014 228.709,169.567 228.709,169.567C228.709,169.567 228.733,160.845 224.699,154.053C221.589,157.551 212.957,164.479 201.629,169.857C191.008,174.9 176.834,179.316 159.27,179.901L159.269,179.901C154.351,180.115 151.309,179.314 149.596,185.048C149.049,187.073 149.285,190.083 149.697,190.952C151.082,195.701 154.702,197.795 159.467,198.903C163.08,199.745 166.917,199.824 166.917,199.824C202.539,200.823 231.143,173.04 231.485,172.809C231.816,172.538 232.09,172.217 232.09,172.217C232.09,172.217 231.776,172.954 231.738,173.037C226.593,184.608 196.803,205.59 167.151,204.989L167.054,205.024C160.177,204.998 151.822,203.228 147.478,197.841C140.606,189.319 144.172,175.149 155.126,174.817C155.139,174.817 157.658,174.759 158.779,174.73C185.899,173.897 210.233,163.933 227.657,143.126C230.053,140.15 227.376,136.061 222.184,135.937C222.139,135.936 222.094,135.916 222.063,135.883C215.907,129.291 210.496,126.963 205.68,124.515C195.587,119.374 196.537,123.815 194.189,98.875C193.554,92.151 192.281,82.981 186.374,79.465C184.825,78.543 183.133,78.148 181.376,78.148C179.64,78.148 178.794,78.502 178.452,78.578C175.217,79.295 173.377,81.129 171.072,83.254C160.182,93.297 151.477,90.571 138.484,90.456C126.282,90.349 115.508,98.861 113.447,111.933L113.443,111.94C112.442,118.783 113.09,125.735 114.163,128.861C114.163,128.861 110.851,126.658 109.272,124.707C111.182,136.649 122.077,144.453 122.077,144.453C120.361,144.848 117.893,144.684 117.893,144.684C117.903,144.693 124.111,149.603 129.5,151.316C128.096,152.19 120.994,159.198 117.331,168.846C113.904,177.875 115.3,188.715 115.3,188.715L118.276,184.277C118.276,184.277 116.332,194.167 120.095,203.744C121.344,200.895 124.071,195.809 124.071,195.809C124.071,195.809 123.639,206.43 128.752,215.126C128.883,213.119 129.65,208.009 129.65,208.009C129.65,208.009 132.585,217.076 139.362,223.416C152.05,234.675 185.645,236.709 211.213,216.617M69.055,157.012C70.682,152.878 71.501,149.486 71.501,149.486C73.363,155.178 74.316,161.164 73.942,167.215C75.485,165.161 77.142,161.293 77.142,161.293C80.013,178.196 67.678,193.669 51.427,193.669C36.999,193.669 25.303,181.356 25.303,166.167C25.303,150.978 36.999,138.665 51.427,138.665C55.167,138.665 58.724,139.492 61.941,140.982C61.941,140.982 67.494,143.782 69.055,157.012" style="fill:rgb(245,220,186);fill-rule:nonzero;"/>
                <path d="M22.809,145.498C22.706,145.47 12.979,138.332 11.595,135.981C3.411,122.17 17.65,93.801 27.782,77.676C52.823,37.824 94.503,6.373 113.434,10.864L132.874,20.899C125.326,25.339 118.025,30.793 113.652,34.42L109.515,37.889C109.515,37.889 97.435,46.022 91.427,51.149C67.342,71.7 43.628,103.516 34.834,134.226C34.834,134.225 27.609,137.812 22.809,145.498" style="fill:rgb(7,136,191);fill-rule:nonzero;"/>
                <path d="M113.435,10.864C94.504,6.372 52.824,37.823 27.783,77.675C27.776,77.687 27.769,77.699 27.762,77.71L27.863,77.721L47.816,93.43C69.724,58.654 97.259,40.722 98.035,40.195L94.872,18.911L100.798,16.073L112.693,19.925L111.783,15.951L113.435,10.864Z" style="fill:rgb(70,184,227);fill-rule:nonzero;"/>
                <path d="M132.874,20.899L113.652,34.42L112.307,35.472L95.262,21.545L94.87,18.911L100.797,16.074C101.101,16.172 112.221,19.773 112.691,19.925L112.889,12.541L113.434,10.865L118.64,8.869C118.647,8.875 132.854,20.882 132.874,20.899" style="fill:rgb(255,209,79);fill-rule:nonzero;"/>
                <path d="M170.807,7.639C158.095,7.639 143.823,14.325 132.875,20.898C131.339,21.802 129.815,22.748 128.322,23.712L122.594,18.91L124.674,26.141C123.888,26.681 123.12,27.22 122.369,27.755L110.531,24.141L118.364,30.697C116.576,32.052 114.979,33.321 113.653,34.42L94.872,18.911L95.865,25.862L109.516,37.889C109.516,37.889 97.436,46.022 91.428,51.149C67.343,71.7 43.63,103.515 34.834,134.225L35.334,133.944C35.403,133.907 35.471,133.875 35.539,133.838C35.784,133.706 36.028,133.581 36.273,133.458C36.429,133.379 36.585,133.299 36.743,133.224C36.994,133.103 37.247,132.991 37.498,132.88C37.647,132.814 37.796,132.745 37.944,132.683C38.216,132.569 38.489,132.465 38.763,132.362C38.888,132.314 39.014,132.262 39.14,132.217C39.537,132.074 39.933,131.943 40.328,131.825C46.307,130.042 54.441,128.895 63.962,132.939C68.745,120.878 74.457,108.607 83.461,96.816C90.759,87.255 97.778,78.721 106.2,74.026C122.147,59.046 165.128,43.16 178.897,56.93C182.153,51.604 184.979,46.562 187.307,40.241C193.052,25.042 193.157,7.639 170.807,7.639" style="fill:rgb(18,32,48);fill-rule:nonzero;"/>
                <path d="M116.245,21.075L113.435,10.864L111.782,15.951L112.771,19.95L116.245,21.075Z" style="fill:rgb(18,32,48);fill-rule:nonzero;"/>
                <path d="M145.214,14.302C152.157,11.101 159.599,8.572 166.737,7.843C159.648,9.438 151.01,13.113 140.775,19.376C140.526,19.52 116.558,35.696 101.915,50.221C93.936,58.136 61.892,96.562 61.917,96.529C67.774,85.446 71.632,80.006 80.903,68.346C86.146,61.752 91.741,55.339 97.469,49.418C99.394,47.427 101.334,45.493 103.281,43.625C104.023,42.913 120.768,25.767 145.214,14.302M228.71,169.556C228.71,169.556 228.734,160.835 224.699,154.042C221.59,157.54 212.957,164.469 201.63,169.846C191.008,174.889 176.835,179.305 159.27,179.89C154.352,180.104 151.309,179.303 149.596,185.037C149.463,185.531 149.376,186.085 149.327,186.651L149.325,186.709C149.324,186.709 149.323,186.708 149.322,186.708C149.307,186.891 149.296,187.075 149.289,187.258C149.272,187.782 149.277,188.244 149.297,188.647C149.298,188.657 149.299,188.666 149.299,188.676C149.301,188.706 149.302,188.735 149.304,188.764C149.32,189.016 149.341,189.257 149.368,189.484C149.369,189.495 149.37,189.508 149.371,189.519C149.373,189.531 149.374,189.542 149.376,189.555C149.492,190.465 149.672,190.888 149.695,190.937C149.695,190.938 149.696,190.941 149.697,190.942L149.719,191.019C151.122,195.713 154.728,197.791 159.467,198.893C163.08,199.734 166.918,199.813 166.918,199.813C195.982,200.629 220.375,182.283 228.556,175.376C228.696,173.44 228.779,172.06 228.71,169.556" style="fill:white;fill-rule:nonzero;"/>
                <path d="M60.529,177.872C60.536,177.867 60.543,177.862 60.551,177.857C62.093,176.199 62.74,173.882 62.374,171.667C61.804,168.478 58.192,167.834 55.803,165.359C55.765,165.319 55.728,165.28 55.691,165.239C55.65,165.196 55.611,165.152 55.573,165.108C55.57,165.105 55.568,165.102 55.565,165.099C54.492,163.863 54.118,162.458 54.206,161.203C54.394,157.942 57.29,157.025 58.798,157.626C58.798,157.626 60.585,158.049 61.97,159.98C61.97,159.98 61.969,159.977 61.969,159.972C61.758,159.335 61.801,158.306 60.718,156.771C58.942,154.256 54.864,151.697 49.082,152.922L49.083,152.922C48.015,153.149 48.613,153.02 47.559,153.317C47.394,153.363 47.244,153.409 47.114,153.463C46.783,153.619 46.477,153.725 46.183,153.881C46.03,153.966 45.162,154.36 44.116,155.148C37.617,163.537 48.624,178.75 60.529,177.872M202.256,180.237C202.181,180.239 202.104,180.256 201.981,180.283C199.027,180.967 168.574,192.765 149.322,186.718C149.236,187.771 149.264,189.984 149.695,190.946C149.696,190.948 149.697,190.95 149.697,190.952C152.61,191.536 156.295,191.909 160.573,191.909C185.907,191.909 204.163,180.391 202.256,180.237M198.72,121.112C195.853,119.055 195.751,115.468 194.189,98.874C193.689,93.582 192.793,86.774 189.554,82.401C188.884,81.816 187.942,81.143 186.586,81.143C184.54,81.053 182.227,83.173 180.916,84.622C177.194,89.993 173.638,93.452 167.35,96.45C160.985,99.33 154.936,100.375 148.656,100.177C144.06,100.032 140.034,99.275 136.088,99.224C128.777,99.11 122.44,101.48 117.822,107.312C114.654,111.311 113.383,115.539 112.978,120.572C112.993,121.178 113.02,121.75 113.055,122.289C113.11,123.088 113.182,123.852 113.271,124.568C113.593,127.118 114.053,128.442 114.053,128.442C114.053,128.461 114.05,128.481 114.045,128.499C114.083,128.624 114.121,128.744 114.161,128.859C114.161,128.859 110.849,126.656 109.271,124.705C110.864,134.661 118.699,141.741 121.262,143.821C121.414,143.937 121.563,144.052 121.709,144.167C121.722,144.177 121.733,144.189 121.742,144.201C121.957,144.367 122.076,144.452 122.076,144.452C120.36,144.847 117.891,144.683 117.891,144.683C117.902,144.692 124.11,149.602 129.498,151.315C136.647,145.274 144.752,142.955 151.405,142.235C155.438,139.733 159.774,137.275 164.429,134.904C163.019,126.125 170.805,117.285 180.601,116.436C187.994,115.898 191.59,119.211 194.18,122.755C195.585,122.306 197.17,121.816 198.941,121.295C198.867,121.245 198.792,121.184 198.72,121.112M144.496,183.685C145.8,178.832 149.482,174.988 155.126,174.817C155.14,174.816 157.658,174.758 158.779,174.73C185.899,173.896 210.233,163.932 227.657,143.125C230.053,140.149 227.376,136.061 222.184,135.936C222.164,135.936 222.11,135.936 222.11,135.936C221.232,136.865 221.075,138.561 219.622,141.095C214.322,150.303 206.992,154.513 197.218,159.398C167.25,174.318 151.709,167.376 145.473,176.51C143.66,179.199 143.626,182.201 144.496,183.685C144.496,183.686 144.496,183.685 144.496,183.685M187.924,124.237C183.785,121.293 176.929,123.636 175.418,128.507C177.813,128.628 180.355,130.44 180.198,132.759C181.889,131.122 184.293,130.198 186.633,130.241C185.504,128.432 186.074,125.312 187.924,124.237M211.213,216.616C207.737,219.348 204.112,221.67 200.412,223.616C191.854,220.364 186.603,213.434 186.603,213.434C186.603,213.434 193.94,211.7 203.746,206.713C215.674,200.652 226.82,191.896 235.341,180.879C235.003,181.539 231.465,200.704 211.213,216.616" style="fill:rgb(234,190,141);fill-rule:nonzero;"/>
                <path d="M113.056,69.855C141.179,51.627 169.27,49.531 178.894,56.931C178.895,56.93 178.895,56.93 178.896,56.929C178.878,56.88 178.724,56.453 178.664,56.336C176.22,51.144 170.518,47.521 165.439,46.068C166.33,46.994 167.619,48.688 168.14,49.695C164.307,47.062 159.213,44.743 153.897,43.642C153.897,43.642 154.53,44.097 154.639,44.198C155.698,45.185 157.108,46.744 157.686,48.083C152.605,46.043 146.182,44.9 140.683,45.959C140.607,45.974 139.996,46.118 139.996,46.118C139.996,46.118 140.712,46.296 140.871,46.343C142.695,46.884 145.296,47.995 146.443,49.518C137.316,47.912 127.276,49.689 121.861,52.717C122.557,52.688 122.551,52.685 123.139,52.7C125.131,52.753 129.144,53.024 130.829,54.096C125.072,55.267 116.741,57.842 112.256,61.699C113.048,61.607 117.542,61.034 119.381,61.33C94.694,75.456 83.459,96.814 83.459,96.814C90.737,87.329 100.179,78.201 113.056,69.855M172.885,130.153C172.068,131.644 173.062,133.76 175.107,134.88C177.151,136 179.47,135.701 180.287,134.209C181.104,132.719 180.109,130.602 178.065,129.482C176.02,128.362 173.701,128.662 172.885,130.153M189.214,124.208C187.728,123.976 186.266,125.44 185.947,127.478C185.629,129.516 186.576,131.356 188.063,131.588C189.549,131.82 191.011,130.356 191.329,128.318C191.647,126.28 190.7,124.44 189.214,124.208M58.143,163.006C57.588,162.567 57.33,162.191 57.177,161.614C56.95,160.561 57.068,159.95 57.968,159.318C58.66,158.843 59.218,158.615 59.22,158.317C59.251,157.753 56.934,157.172 55.314,158.767C53.969,160.2 53.544,163.187 55.69,165.515C58.079,168.093 61.794,168.701 62.373,171.943C62.449,172.402 62.506,172.914 62.466,173.418C62.474,173.998 62.28,174.832 62.271,174.885C61.552,178.015 58.581,181.003 53.681,180.242C52.779,180.11 52.194,179.999 52.02,180.249C51.642,180.775 53.742,183.177 57.585,183.09C61.346,183.01 65.078,180.194 66.273,175.962C66.287,175.907 66.64,174.707 66.669,173.632C66.737,172.836 66.679,172.017 66.531,171.16C65.551,165.725 60.151,164.609 58.143,163.006M59,155.245L59.003,155.248C59.736,155.83 60.298,156.452 60.717,157.046C62.091,158.991 61.654,160.125 62.217,160.677C62.421,160.876 62.711,160.939 63.001,160.821C63.78,160.5 64.162,159.261 64.235,158.397L64.236,158.391C64.431,156.313 63.333,153.977 61.877,152.322L61.873,152.318C60.982,151.283 59.81,150.319 58.415,149.541C57.018,148.763 55.397,148.174 53.614,147.897C50.534,147.418 47.504,148.032 46.658,148.284L46.663,148.283C46.226,148.409 45.687,148.523 45.224,148.705C40.2,150.664 36.895,154.26 35.424,159.023L35.423,159.025L35.423,159.027C34.879,160.84 34.662,162.591 34.662,164.208C34.662,165.602 34.823,166.897 35.074,168.052L35.074,168.055L35.074,168.053C35.499,169.995 36.368,172.183 37.725,173.619L37.729,173.623C39.425,175.456 41.284,175.106 40.49,173.4C40.301,172.928 39.277,170.997 39.138,167.502C39.049,165.216 39.363,162.835 40.202,160.663C40.667,159.488 41.303,158.345 42.132,157.317C43.839,155.228 45.937,154.293 46.182,154.157C46.476,154.001 46.782,153.894 47.114,153.739C47.243,153.685 47.393,153.639 47.558,153.592C48.613,153.295 48.015,153.424 49.083,153.198L49.082,153.198C53.101,152.345 56.56,153.277 59,155.245M155.168,132.342C153.532,131.092 150.52,130.255 147.392,130.786C146.736,130.886 146.13,131.089 145.533,131.249C145.315,131.303 145.105,131.381 144.902,131.466C143.609,132.011 142.489,132.598 141.403,133.639C140.157,134.843 139.803,135.962 140.163,136.237C140.517,136.52 141.38,136.101 142.713,135.562C147.179,133.705 150.339,133.656 153.35,133.866C154.802,133.964 155.774,134.051 155.999,133.655C156.158,133.387 155.869,132.877 155.168,132.342M156.35,126.238C156.899,127.04 157.045,127.646 156.824,127.898C156.382,128.414 154.803,127.717 152.472,126.809C146.505,124.583 142.109,124.244 134.328,127.189C132.36,127.94 130.965,128.52 130.296,128.42C129.204,128.258 130.261,126.26 132.646,124.322C137.445,120.494 144.036,119.306 149.668,121.402C152.133,122.309 154.902,124.12 156.35,126.238" style="fill:rgb(156,115,86);fill-rule:nonzero;"/>
                <path d="M179.406,109.678C179.368,107.74 179.674,104.537 181.499,103.942C181.501,103.942 181.5,103.942 181.503,103.941C184.622,102.859 188.75,110.846 188.94,117.937C186.476,116.703 183.58,116.179 180.602,116.437C179.853,114.155 179.495,112.004 179.406,109.678" style="fill:rgb(104,76,70);fill-rule:nonzero;"/>
            </g>
        </g>
    </g>
</svg>
