<?xml version="1.0" encoding="UTF-8" standalone="no"?>
<svg width="2297px" height="1309px" viewBox="0 0 2297 1309" version="1.1" xmlns="http://www.w3.org/2000/svg" xmlns:xlink="http://www.w3.org/1999/xlink">
    <!-- Generator: Sketch 3.8.2 (29753) - http://www.bohemiancoding.com/sketch -->
    <title>makemereach</title>
    <desc>Created with Sketch.</desc>
    <defs></defs>
    <g id="Page-1" stroke="none" stroke-width="1" fill="none" fill-rule="evenodd">
        <g id="makemereach" fill="#4BABDB">
            <path d="M226.054859,1304.52293 L226.054859,1180.85634 C226.054859,1150.08622 212.742197,1134.68488 186.116873,1134.68488 C177.751704,1134.68488 169.907324,1137.28976 162.616282,1142.43439 C155.325239,1147.61159 150.345197,1153.50512 147.676155,1160.04988 L147.676155,1304.52293 L113.043704,1304.52293 L113.043704,1165.71549 C113.043704,1156.11 109.398183,1148.55585 102.204789,1143.02049 C94.9462958,1137.48512 85.3768028,1134.68488 73.4963099,1134.68488 C66.5633099,1134.68488 59.207169,1137.35488 51.3302394,1142.76 C43.5184085,1148.1 37.9524789,1153.99354 34.6324507,1160.44061 L34.6324507,1304.52293 L0,1304.52293 L0,1109.18963 L22.5892113,1109.18963 L34.0791127,1131.81951 C47.4568732,1114.26915 64.154662,1105.51024 84.2375775,1105.51024 C112.164873,1105.51024 131.759549,1114.20402 142.956507,1131.59159 C146.862423,1124.16768 154.055817,1118.01366 164.666887,1113.03183 C175.277958,1108.05 186.116873,1105.5428 197.313831,1105.5428 C217.461845,1105.5428 233.085507,1111.56659 244.152268,1123.51646 C255.186479,1135.4989 260.752408,1152.30037 260.752408,1173.95341 L260.752408,1304.55549 L226.054859,1304.55549 L226.054859,1304.52293 Z" id="Fill-1"></path>
            <path d="M416.956479,1208.59829 C406.019915,1206.18878 398.338282,1204.98402 393.976676,1204.98402 C376.465155,1204.98402 362.176014,1209.47744 351.109254,1218.46427 C340.075042,1227.4511 334.541662,1238.1311 334.541662,1250.37402 C334.541662,1270.65951 346.487254,1280.8511 370.443535,1280.8511 C387.955056,1280.8511 403.448521,1272.51549 416.956479,1255.84427 L416.956479,1208.59829 Z M420.243958,1282.08841 C406.410507,1299.44341 385.155817,1308.16976 356.610085,1308.16976 C341.311915,1308.16976 328.031803,1302.63439 316.769746,1291.49854 C305.50769,1280.36268 299.909211,1266.49171 299.909211,1249.98329 C299.909211,1230.18622 308.567324,1213.41732 325.916099,1199.74171 C343.232324,1186.0661 365.300746,1179.19573 392.186465,1179.19573 C399.477507,1179.19573 407.777577,1180.79122 416.989028,1183.94963 C416.989028,1152.33293 402.895183,1136.50829 374.674944,1136.50829 C353.029662,1136.50829 336.364423,1142.36927 324.711775,1154.0261 L310.097141,1125.04683 C316.672099,1119.67427 325.720803,1115.08317 337.373451,1111.27354 C348.961,1107.4639 360.06031,1105.51024 370.638831,1105.51024 C398.956718,1105.51024 419.527873,1111.95732 432.352296,1124.8189 C445.176718,1137.71305 451.58893,1158.22646 451.58893,1186.32659 L451.58893,1256.36524 C451.58893,1273.49232 456.699169,1284.95378 466.887099,1290.68451 L466.887099,1307.97439 C452.793254,1307.97439 442.247282,1305.98817 435.281732,1301.95061 C428.283634,1297.94561 423.303592,1291.33573 420.243958,1282.08841 L420.243958,1282.08841 Z" id="Fill-3"></path>
            <polygon id="Fill-5" points="632.27007 1304.52293 571.012296 1206.77488 540.774 1237.93573 540.774 1304.52293 506.141549 1304.52293 506.141549 1029.1222 540.774 1029.1222 540.774 1200.0022 615.539732 1109.18963 655.998507 1109.18963 593.47131 1183.3961 669.864507 1304.52293"></polygon>
            <path d="M774.868535,1134.68488 C759.440169,1134.68488 746.485549,1139.69927 736.069775,1149.69549 C726.077141,1159.17073 720.446113,1170.92524 719.111592,1185.05671 L827.240352,1185.05671 C827.240352,1171.05549 822.846197,1159.39866 814.090437,1150.0211 C804.455845,1139.82951 791.436127,1134.68488 774.868535,1134.68488 M858.943366,1210.22634 L718.167662,1210.22634 C718.167662,1233.05159 724.417127,1250.63451 736.981155,1262.94256 C748.015366,1273.62256 762.239408,1278.96256 779.653282,1278.96256 C799.475803,1278.96256 815.978296,1273.16671 829.258408,1261.67268 L843.807944,1286.67951 C838.469859,1291.98695 830.267437,1296.64317 819.233225,1300.55049 C805.399775,1305.63 789.938859,1308.16976 772.883028,1308.16976 C748.340859,1308.16976 727.541859,1299.83415 710.355831,1283.16293 C691.281944,1264.79854 681.745,1240.14988 681.745,1209.15183 C681.745,1176.91646 691.509789,1151.09561 711.104465,1131.59159 C728.583437,1114.20402 749.317338,1105.51024 773.27362,1105.51024 C801.070718,1105.51024 822.911296,1113.35744 838.697704,1129.08439 C854.028423,1144.12756 861.710056,1164.12 861.710056,1189.06171 C861.677507,1196.7461 860.766127,1203.81183 858.943366,1210.22634" id="Fill-7"></path>
            <path d="M1124.25268,1304.52293 L1124.25268,1180.85634 C1124.25268,1150.08622 1110.94001,1134.68488 1084.31469,1134.68488 C1075.94952,1134.68488 1068.10514,1137.28976 1060.8141,1142.43439 C1053.52306,1147.61159 1048.54301,1153.50512 1045.87397,1160.04988 L1045.87397,1304.52293 L1011.24152,1304.52293 L1011.24152,1165.71549 C1011.24152,1156.11 1007.62855,1148.55585 1000.37006,1143.02049 C993.144113,1137.48512 983.57462,1134.68488 971.661577,1134.68488 C964.728577,1134.68488 957.339887,1137.35488 949.495507,1142.76 C941.651127,1148.1 936.085197,1153.99354 932.797718,1160.44061 L932.797718,1304.52293 L898.132718,1304.52293 L898.132718,1109.18963 L920.787028,1109.18963 L932.24438,1131.81951 C945.622141,1114.26915 962.352479,1105.51024 982.402845,1105.51024 C1010.36269,1105.51024 1029.92482,1114.20402 1041.08923,1131.59159 C1044.99514,1124.16768 1052.18854,1118.01366 1062.79961,1113.03183 C1073.37813,1108.05 1084.24959,1105.5428 1095.414,1105.5428 C1115.62711,1105.5428 1131.21823,1111.56659 1142.28499,1123.51646 C1153.35175,1135.4989 1158.88513,1152.30037 1158.88513,1173.95341 L1158.88513,1304.55549 L1124.25268,1304.55549 L1124.25268,1304.52293 Z" id="Fill-9"></path>
            <path d="M1288.52897,1134.68488 C1273.10061,1134.68488 1260.14599,1139.69927 1249.66511,1149.69549 C1239.70503,1159.17073 1234.074,1170.92524 1232.70693,1185.05671 L1340.83569,1185.05671 C1340.83569,1171.05549 1336.47408,1159.39866 1327.71832,1150.0211 C1318.14883,1139.82951 1305.06401,1134.68488 1288.52897,1134.68488 M1372.6038,1210.22634 L1231.8281,1210.22634 C1231.8281,1233.05159 1238.07756,1250.63451 1250.60904,1262.94256 C1261.64325,1273.62256 1275.89985,1278.96256 1293.28117,1278.96256 C1313.10369,1278.96256 1329.60618,1273.16671 1342.85375,1261.67268 L1357.46838,1286.67951 C1352.09775,1291.98695 1343.86277,1296.64317 1332.82856,1300.55049 C1318.93001,1305.63 1303.50165,1308.16976 1286.51092,1308.16976 C1262.0013,1308.16976 1241.10465,1299.83415 1223.98372,1283.16293 C1204.87728,1264.79854 1195.37289,1240.14988 1195.37289,1209.15183 C1195.37289,1176.91646 1205.13768,1151.09561 1224.6998,1131.59159 C1242.17877,1114.20402 1262.91268,1105.51024 1286.86896,1105.51024 C1314.69861,1105.51024 1336.50663,1113.35744 1352.32559,1129.08439 C1367.65631,1144.12756 1375.30539,1164.12 1375.30539,1189.06171 C1375.33794,1196.7461 1374.42656,1203.81183 1372.6038,1210.22634" id="Fill-11"></path>
            <path d="M1517.93641,1142.56463 C1510.41752,1137.28976 1502.80099,1134.68488 1495.1519,1134.68488 C1482.88082,1134.68488 1472.13955,1140.35049 1462.96065,1151.64915 C1453.78175,1162.9478 1449.1923,1176.59085 1449.1923,1192.54573 L1449.1923,1304.49037 L1414.55985,1304.49037 L1414.55985,1109.15707 L1449.1923,1109.15707 L1449.1923,1140.31793 C1461.85397,1117.10195 1480.60237,1105.51024 1505.53513,1105.51024 C1511.71949,1105.51024 1520.67055,1106.61732 1532.35575,1108.7989 L1517.93641,1142.56463 Z" id="Fill-13"></path>
            <path d="M1637.32723,1134.68488 C1621.89886,1134.68488 1608.94424,1139.69927 1598.52846,1149.69549 C1588.53583,1159.17073 1582.9048,1170.92524 1581.57028,1185.05671 L1689.69904,1185.05671 C1689.69904,1171.05549 1685.33744,1159.39866 1676.54913,1150.0211 C1666.97963,1139.82951 1653.89482,1134.68488 1637.32723,1134.68488 M1721.40206,1210.22634 L1580.62635,1210.22634 C1580.62635,1233.05159 1586.87582,1250.63451 1599.43985,1262.94256 C1610.50661,1273.62256 1624.73065,1278.96256 1642.11197,1278.96256 C1661.93449,1278.96256 1678.43699,1273.16671 1691.68455,1261.67268 L1706.26663,1286.67951 C1700.92855,1291.98695 1692.72613,1296.64317 1681.69192,1300.55049 C1667.82592,1305.63 1652.365,1308.16976 1635.37427,1308.16976 C1610.8321,1308.16976 1589.968,1299.83415 1572.84707,1283.16293 C1553.77318,1264.79854 1544.23624,1240.14988 1544.23624,1209.15183 C1544.23624,1176.91646 1554.00103,1151.09561 1573.5957,1131.59159 C1591.10723,1114.20402 1611.84113,1105.51024 1635.79741,1105.51024 C1663.59451,1105.51024 1685.43508,1113.35744 1701.22149,1129.08439 C1716.55221,1144.12756 1724.23385,1164.12 1724.23385,1189.06171 C1724.1362,1196.7461 1723.25737,1203.81183 1721.40206,1210.22634" id="Fill-15"></path>
            <path d="M1867.64604,1208.59829 C1856.74203,1206.18878 1849.02785,1204.98402 1844.66624,1204.98402 C1827.12217,1204.98402 1812.86558,1209.47744 1801.79882,1218.46427 C1790.76461,1227.4511 1785.23123,1238.1311 1785.23123,1250.37402 C1785.23123,1270.65951 1797.20937,1280.8511 1821.16565,1280.8511 C1838.67717,1280.8511 1854.17063,1272.51549 1867.67859,1255.84427 L1867.67859,1208.59829 L1867.64604,1208.59829 Z M1870.93352,1282.08841 C1857.10007,1299.44341 1835.84538,1308.16976 1807.2671,1308.16976 C1791.96893,1308.16976 1778.68882,1302.63439 1767.42676,1291.49854 C1756.19725,1280.36268 1750.56623,1266.49171 1750.56623,1249.98329 C1750.56623,1230.18622 1759.22434,1213.41732 1776.50801,1199.74171 C1793.82424,1186.0661 1815.92521,1179.19573 1842.81093,1179.19573 C1850.10197,1179.19573 1858.40204,1180.79122 1867.61349,1183.94963 C1867.61349,1152.33293 1853.51965,1136.50829 1825.33196,1136.50829 C1803.65413,1136.50829 1787.02144,1142.36927 1775.33624,1154.0261 L1760.75415,1125.01427 C1767.36166,1119.64171 1776.41037,1115.05061 1787.99792,1111.24098 C1799.61801,1107.43134 1810.68477,1105.47768 1821.2633,1105.47768 C1849.58118,1105.47768 1870.15234,1111.92476 1882.97676,1124.78634 C1895.83373,1137.68049 1902.21339,1158.1939 1902.21339,1186.29402 L1902.21339,1256.33268 C1902.21339,1273.45976 1907.32363,1284.92122 1917.54411,1290.65195 L1917.54411,1307.94183 C1903.41772,1307.94183 1892.9043,1305.95561 1885.87365,1301.91805 C1879.00575,1297.94561 1873.96061,1291.33573 1870.93352,1282.08841 L1870.93352,1282.08841 Z" id="Fill-17"></path>
            <path d="M2104.14923,1125.04683 L2086.99575,1149.50012 C2083.48042,1145.95098 2077.26351,1142.62976 2068.31245,1139.43878 C2059.39394,1136.2478 2050.60563,1134.68488 2041.94752,1134.68488 C2023.13403,1134.68488 2008.1939,1141.29476 1997.12714,1154.51451 C1986.06038,1167.66915 1980.49445,1185.80561 1980.49445,1208.7611 C1980.49445,1231.6189 1986.15803,1249.00646 1997.45263,1261.02146 C2008.74724,1272.97134 2024.436,1278.96256 2044.51892,1278.96256 C2060.07748,1278.96256 2075.73369,1272.93878 2091.55265,1260.92378 L2105.22335,1290.09841 C2086.60515,1302.14598 2063.5928,1308.16976 2036.08865,1308.16976 C2009.46332,1308.16976 1987.46,1299.28061 1970.07868,1281.37207 C1952.6648,1263.4961 1944.00669,1239.30329 1944.00669,1208.79366 C1944.00669,1177.6328 1953.02285,1152.65854 1971.0877,1133.80573 C1989.15256,1114.98549 2013.82493,1105.5428 2045.20245,1105.5428 C2055.29273,1105.5428 2066.2293,1107.65927 2078.04469,1111.92476 C2089.82754,1116.19024 2098.55075,1120.58598 2104.14923,1125.04683" id="Fill-19"></path>
            <path d="M2262.04586,1304.52293 L2262.04586,1181.76805 C2262.04586,1167.18073 2258.43289,1155.68671 2251.27204,1147.25341 C2244.1112,1138.85268 2233.98837,1134.65232 2221.0012,1134.65232 C2212.63603,1134.65232 2204.20576,1137.12695 2195.77549,1142.07622 C2187.31268,1146.99293 2180.86792,1152.75622 2176.34356,1159.33354 L2176.34356,1304.49037 L2141.71111,1304.49037 L2141.71111,1029.08963 L2176.34356,1029.08963 L2176.34356,1130.64732 C2180.96556,1123.51646 2188.41935,1117.52524 2198.70493,1112.70622 C2208.95796,1107.91976 2219.53648,1105.47768 2230.50559,1105.47768 C2251.17439,1105.47768 2267.35139,1112.28293 2279.06914,1125.92598 C2290.81944,1139.53646 2296.67831,1158.09622 2296.67831,1181.73549 L2296.67831,1304.49037 L2262.04586,1304.49037 L2262.04586,1304.52293 Z" id="Fill-21"></path>
            <path d="M416.598437,207.087805 C416.598437,134.216341 415.166268,74.4343902 410.772113,16.052561 L523.034634,16.052561 L528.828408,129.755488 L533.222563,129.755488 C572.607211,62.712439 638.226592,0 754.850718,0 C851.066437,0 923.976859,58.3492683 954.605746,141.51 L957.535183,141.51 C979.40831,102.11122 1007.10776,71.4713415 1036.23938,49.5903659 C1078.48837,17.5503659 1125.19661,0.0325609756 1192.21561,0.0325609756 C1285.53444,0.0325609756 1424.03169,61.3123171 1424.03169,306.333659 L1424.03169,722.039634 L1298.61925,722.039634 L1298.61925,322.38622 C1298.61925,186.737195 1249.04668,105.074268 1145.53992,105.074268 C1072.62949,105.074268 1015.73332,159.027805 993.925296,221.772805 C988.098972,239.258049 983.704817,262.604268 983.704817,285.917927 L983.704817,722.072195 L858.32493,722.072195 L858.32493,299.04 C858.32493,186.769756 808.752352,105.106829 711.039366,105.106829 C630.903,105.106829 572.574662,169.284512 552.166254,233.462195 C544.842662,252.380122 541.945775,274.261098 541.945775,296.174634 L541.945775,722.072195 L416.565887,722.072195 L416.565887,207.087805 L416.598437,207.087805 Z" id="Fill-23"></path>
            <path d="M1641.62373,704.19622 C1641.62373,777.132805 1643.08845,836.849634 1647.45006,895.198902 L1535.15499,895.198902 L1529.36121,781.463415 L1524.96706,781.463415 C1485.61496,848.539024 1419.99558,911.251463 1303.37145,911.251463 C1207.12318,911.251463 1134.21276,852.934756 1103.61642,769.741463 L1100.68699,769.741463 C1078.81386,809.172805 1051.11441,839.747561 1021.95024,861.693659 C979.668704,893.79878 932.993014,911.218902 865.974014,911.218902 C772.655183,911.218902 634.12538,849.971707 634.12538,604.950366 L634.12538,189.211829 L759.537817,189.211829 L759.537817,588.865244 C759.537817,724.546829 809.077845,806.209756 912.617155,806.209756 C985.527577,806.209756 1042.35865,752.223659 1064.26432,689.51122 C1070.09065,672.025976 1074.45225,648.712317 1074.45225,625.333537 L1074.45225,189.179268 L1199.86469,189.179268 L1199.86469,612.178902 C1199.86469,724.514268 1249.43727,806.177195 1347.08515,806.177195 C1427.25407,806.177195 1485.58241,742.032073 1506.02337,677.886951 C1513.31441,658.903902 1516.2113,636.990366 1516.2113,615.141951 L1516.2113,189.179268 L1641.62373,189.179268 L1641.62373,704.19622 L1641.62373,704.19622 Z" id="Fill-25"></path>
            <path d="M1849.77648,186.867439 C1769.28207,186.867439 1696.37165,238.965 1660.53487,322.972317 L1660.53487,521.854756 C1661.5439,521.757073 1662.61803,521.757073 1663.62706,521.724512 C1664.53844,504.760244 1666.75179,488.870488 1669.09534,474.93439 C1686.70451,377.935244 1751.34741,308.873415 1842.45289,308.873415 C1860.06206,308.873415 1873.30962,310.273537 1886.52463,313.204024 L1886.52463,191.23061 C1874.77434,188.332683 1864.55386,186.867439 1849.77648,186.867439" id="Fill-27"></path>
        </g>
    </g>
</svg>