<?xml version="1.0" encoding="utf-8"?>
<!-- Generator: Adobe Illustrator 20.1.0, SVG Export Plug-In . SVG Version: 6.00 Build 0)  -->
<svg version="1.1" id="Layer_1" xmlns="http://www.w3.org/2000/svg" xmlns:xlink="http://www.w3.org/1999/xlink" x="0px" y="0px"
	 viewBox="0 0 250 153" style="enable-background:new 0 0 250 153;" xml:space="preserve">
<style type="text/css">
	.st0{fill:#FF9933;}
	.st1{fill:#FF3366;}
	.st2{fill:#663399;}
	.st3{fill:#F03333;}
	.st4{fill:#669933;}
	.st5{fill:#66CCFF;}
	.st6{fill:#334B8C;}
	.st7{fill:#FFFFFF;}
</style>
<g>
	<path class="st0" d="M134.9,0c12.5-0.1,25,0,37.6,0c0,8.5,0,17,0,25.4c0,8.9,0,17.9,0,26.8c-12.5,0-25.1,0-37.6,0
		c0-3.6,0-7.2,0-10.8c0-7.9,0-15.8,0-23.7C134.9,11.8,134.9,5.9,134.9,0z"/>
	<path class="st0" d="M134.9,102.8c12.5,0,25.1,0,37.6,0c0,7.6,0,15.2,0,22.8c0,9.1,0,18.3,0,27.4c-12.5-0.1-25,0-37.5-0.1
		c0-7.1,0-14.2,0-21.3C134.9,122.1,134.9,112.4,134.9,102.8z"/>
</g>
<g>
	<path class="st1" d="M53.8,7.6c14.5,0,29-0.1,43.5,0c0,11.2,0,22.5,0,33.7c-8.5,0-17.1,0-25.6,0c0,3.6,0,7.2,0,10.9
		c-6,0-11.9,0-17.9,0c0-7,0-14,0-21C53.8,23.3,53.8,15.5,53.8,7.6z"/>
	<path class="st1" d="M53.8,102.8c6,0,11.9,0,17.9,0c0,4.5,0,9.1,0,13.6c-6,0-11.9,0-17.9,0C53.8,111.9,53.8,107.3,53.8,102.8z"/>
</g>
<g>
	<path class="st2" d="M106.2,17.7c9.6,0,19.2,0,28.8,0c0,7.9,0,15.8,0,23.7c-9.6,0-19.2,0-28.8,0C106.2,33.5,106.2,25.6,106.2,17.7z
		"/>
</g>
<g>
	<path class="st3" d="M172.5,25.4c22,0,44,0,65.9,0c0,8.9,0,17.8,0,26.8c-22,0-43.9,0-65.9,0C172.5,43.3,172.5,34.3,172.5,25.4z"/>
	<path class="st3" d="M172.5,102.8c22,0,43.9,0,65.9,0c0,7.6,0,15.2,0,22.8c-22-0.1-43.9,0-65.9,0
		C172.5,118,172.5,110.4,172.5,102.8z"/>
</g>
<g>
	<path class="st4" d="M11.5,31.1c14.1,0,28.2,0,42.3,0c0,7,0,14,0,21c-14.1-0.1-28.2-0.1-42.3,0C11.5,45.1,11.5,38.1,11.5,31.1z"/>
</g>
<g>
	<path class="st5" d="M71.7,41.3c8.5,0,17.1,0,25.6,0c3,0,5.9,0,8.9,0c9.6,0,19.2,0,28.8,0c0,3.6,0,7.2,0,10.8
		c-21.1,0-42.2,0-63.2,0C71.7,48.6,71.7,45,71.7,41.3z"/>
	<path class="st5" d="M71.7,102.8c21.1,0,42.2,0,63.2,0c0,9.6,0,19.2,0,28.9c-21.1,0-42.2,0-63.3,0c0.1-5.1,0.1-10.2,0.1-15.3
		C71.7,111.9,71.7,107.4,71.7,102.8z"/>
</g>
<rect y="52.2" class="st6" width="250" height="50.6"/>
<g>
	<path class="st7" d="M20.5,61.9c0,10.2,0,20.5,0,30.8c1.4,0,2.8,0,4.2,0l0-25c3.6,8.3,6.9,16.7,10.3,25c0.7,0,2.1,0,2.8,0
		c3.5-8.3,6.8-16.7,10.3-25l0.1,25.1c1.1,0,3.2,0,4.3,0c0-10.2,0-20.5,0-30.7c-2.1,0-4.1,0-6.2-0.1c-3.4,7.7-6.4,15.6-9.8,23.3
		c-3.3-7.8-6.5-15.5-9.7-23.3C24.7,61.8,22.6,61.8,20.5,61.9z"/>
	<path class="st7" d="M137.5,61.9c0,10.3,0,20.5,0,30.8c1.4,0,2.8,0,4.3,0l0-25c3.6,8.3,6.9,16.7,10.3,25c0.7,0,2.1,0,2.8,0
		c3.5-8.3,6.8-16.8,10.3-25.1l0.1,25.1c1.1,0,3.2,0,4.2,0c-0.1-10.2,0-20.5,0-30.7c-2.1,0-4.1,0-6.1-0.1c-3.4,7.7-6.4,15.6-9.8,23.3
		c-3.2-7.8-6.5-15.5-9.7-23.3C141.7,61.8,139.6,61.8,137.5,61.9z"/>
	<path class="st7" d="M211.2,61.8l0,30.8c1.3,0,2.7,0,4,0c0.2-4.6-0.5-9.2,0.4-13.7c1.1-4.6,9-5.2,9.7-0.1c0.4,4.6,0,9.2,0.1,13.8
		c1.3,0,2.7,0,4,0c0-3.4,0.1-7.7,0-11.2c-0.1-2.2-0.1-4.1-0.5-5.4c-1.8-5.8-9-4.4-13.7-4.5c0-3.2,0-6.5-0.1-9.7
		C213.8,61.8,212.5,61.8,211.2,61.8z"/>
	<path class="st7" d="M106.5,64.9c0,1.3,0,2.6,0,3.9c1.3,0,2.7,0,4,0c0-1.3,0-2.6,0-4C109.2,64.8,107.8,64.8,106.5,64.9z"/>
	<path class="st7" d="M197.8,66.3c0,1.9,0,3.8,0,5.7c-1.5,0-3,0-4.5,0c0,1.2-0.1,2.3-0.1,3.5c1.5,0,3,0,4.5,0
		c0.2,4.8-0.5,9.7,0.4,14.5c1.3,3.8,6.1,3.6,9.3,2.7c0-1.2,0-2.3,0-3.5c-6.7,2.6-5.9-4.3-5.8-13.7c1.9,0,3.8,0,5.6,0
		c0-0.9,0-2.6,0-3.5c-1.9,0-3.7,0-5.6,0c0-1.9,0-3.8,0-5.7C200.4,66.3,199.1,66.3,197.8,66.3z"/>
	<path class="st7" d="M106.5,71.9c0,6.9,0,13.8,0,20.7c1.3,0,2.7,0,4,0c-0.1-6.9,0-13.8,0-20.6C109.1,71.9,107.8,71.9,106.5,71.9z"
		/>
	<path class="st7" d="M58.3,76.4c-3,4.8-1.8,12,3.1,15.2c4.8,3,11.5,1.7,15.2-2.5c-1-0.8-2-1.6-3-2.4c-3.3,5.1-12.2,3.4-12.8-2.8
		c5.6-0.1,11.1,0,16.7,0c0-3.1-0.3-6.3-2.3-8.8C70.9,69.6,61.6,70.6,58.3,76.4z M60.7,80.6c0.4-7.5,12.6-7.9,12.6,0
		C69.1,80.6,64.9,80.6,60.7,80.6z"/>
	<path class="st7" d="M97.5,61.9c0,4.3-0.1,8.6,0.1,12.8c-4-4.5-11.8-4.2-15.4,0.5c-4.1,5.1-2.8,14.3,3.8,16.6
		c5,1.5,10.4,0.4,15.5,0.7l0-30.7C100.1,61.8,98.8,61.8,97.5,61.9z M88.4,75.6c4.3-1.7,9.3,1.8,9.1,6.5c0.6,4.6-4.1,8.6-8.6,7.2
		C82.7,87.8,82.4,77.5,88.4,75.6z"/>
	<path class="st7" d="M115.5,74.3c0.7,0.9,1.4,1.8,2.2,2.6c3.5-3.3,11.1-3.3,11.1,2.8c-4.2,0.1-9.1-0.2-12.5,2.7
		c-3.1,2.6-2.4,8.5,1.8,9.7c4.6,1.2,9.4,0.6,14.2,0.6c0-5.5,0.9-13.8-0.4-16.7C129.1,69.7,120.1,70.8,115.5,74.3z M118.6,87.9
		c-1.1-5.6,6.5-5.2,10.1-5.2C130.2,88.3,122,92.9,118.6,87.9z"/>
	<path class="st7" d="M173.4,74.3c0.7,0.9,1.4,1.8,2.2,2.6c3.5-3.3,11.1-3.3,11.1,2.8c-4.2,0.1-9.1-0.2-12.5,2.7
		c-3.1,2.6-2.4,8.5,1.8,9.7c4.6,1.2,9.4,0.6,14.2,0.6c0-5.5,0.9-13.8-0.4-16.7C186.9,69.7,178,70.8,173.4,74.3z M176.5,87.9
		c-1.1-5.6,6.5-5.2,10.1-5.2C188,88.3,179.9,92.9,176.5,87.9z"/>
</g>
</svg>
