<?xml version="1.0" encoding="UTF-8" standalone="no"?>
<!DOCTYPE svg PUBLIC "-//W3C//DTD SVG 1.1//EN" "http://www.w3.org/Graphics/SVG/1.1/DTD/svg11.dtd">
<svg width="100%" height="100%" viewBox="0 0 253 203" version="1.1" xmlns="http://www.w3.org/2000/svg" xmlns:xlink="http://www.w3.org/1999/xlink" xml:space="preserve" style="fill-rule:evenodd;clip-rule:evenodd;stroke-linejoin:round;stroke-miterlimit:1.41421;">
    <path d="M67.317,137.852L52.441,200.257L52.446,200.293L11.025,203L0,192.31L25.465,0L126.106,83.704L126.894,83.704L227.535,0L227.545,0.136L227.535,0L227.549,0.105L227.563,0L227.597,0.466L253,192.31L242.159,202.821L242.172,203L241.987,202.988L241.975,203L241.974,202.987L200.5,200.293L200.525,200.112L185.698,137.912L126.5,203L67.317,137.852Z" style="fill:rgb(72,170,150);"/>
    <g>
        <g transform="matrix(-1,0,0,1,253,0)">
            <path d="M75.982,101.5L126.5,203L66.893,137.462" style="fill:rgb(72,170,150);"/>
        </g>
        <path d="M75.982,101.5L126.5,203L67.031,137.538" style="fill:rgb(72,170,150);"/>
        <path d="M126.5,84.031L25.465,0L76.154,101.5L126.5,84.031Z" style="fill:rgb(157,225,211);"/>
        <g transform="matrix(-1,0,0,1,253,0)">
            <path d="M126.5,84.031L25.465,0L75.982,101.5L126.5,84.031Z" style="fill:rgb(157,225,211);"/>
        </g>
        <g transform="matrix(-1,0,0,1,253,0)">
            <path d="M75.982,101.5L52.432,200.293L25.465,0L75.982,101.5Z" style="fill:rgb(60,196,168);"/>
        </g>
        <path d="M75.982,101.5L52.432,200.293L25.465,0L75.982,101.5Z" style="fill:rgb(60,196,168);"/>
        <g transform="matrix(-1,0,0,1,253.028,0)">
            <path d="M10.856,203L25.465,0L52.528,200.293L10.856,203Z" style="fill:rgb(108,211,191);"/>
        </g>
        <path d="M11.025,203L25.465,0L52.446,200.293L11.025,203Z" style="fill:rgb(108,211,191);"/>
        <g transform="matrix(-1,0,0,1,253,0)">
            <path d="M11.025,203L0,192.31L25.465,0" style="fill:rgb(72,170,150);"/>
        </g>
        <path d="M11.025,203L0,192.31L25.465,0" style="fill:rgb(157,225,211);"/>
        <path d="M126.5,83.564L126.5,203L75.982,101.5L126.5,83.564Z" style="fill:rgb(60,196,168);"/>
        <g transform="matrix(-1,0,0,1,253,0)">
            <path d="M126.5,83.564L126.5,203L75.982,101.5L126.5,83.564Z" style="fill:rgb(108,211,191);"/>
        </g>
    </g>
</svg>
