<svg xmlns="http://www.w3.org/2000/svg" xmlns:xlink="http://www.w3.org/1999/xlink" viewBox="0 0 516 163" fill="#fff" fill-rule="evenodd" stroke="#000" stroke-linecap="round" stroke-linejoin="round"><style><![CDATA[.B{stroke:none}.C{font-size:12px}.D{fill:#f2f2f2}.E{font-weight:bold}.F{text-decoration:underline}]]></style><use xlink:href="#A" x=".5" y=".5"/><symbol id="A" overflow="visible"><g fill="#021f52"><path d="M64 76l33-24L0 0v44zM0 52v110l100-55V58L4 156l28-83z" stroke="#021f52" stroke-linejoin="miter"/><path d="M152.358 35.433V62.04h-3.099v-17.85q0-2.115.26-5.177h-.074q-.445 1.8-.798 2.579l-9.092 20.447h-1.521l-9.073-20.299q-.39-.891-.798-2.728h-.074q.148 1.596.148 5.214V62.04h-3.006V35.433h4.119l8.164 18.555q.946 2.134 1.225 3.191h.111q.798-2.189 1.28-3.266l8.331-18.48h3.896z" class="B"/><path d="M158.004 38.216q-.816 0-1.392-.557-.575-.557-.575-1.41 0-.854.575-1.419.575-.566 1.392-.566.835 0 1.419.566.584.566.584 1.419 0 .816-.584 1.392-.584.575-1.419.575zm1.484 4.824v19h-3.043v-19h3.043z" class="B"/><path d="M176.599 58.274v2.895q-2.19 1.317-5.195 1.317-4.064 0-6.559-2.644-2.496-2.644-2.496-6.856 0-4.694 2.69-7.542 2.69-2.848 7.181-2.848 2.505 0 4.416.928v3.117q-2.115-1.484-4.527-1.484-2.913 0-4.778 2.087-1.865 2.087-1.865 5.483 0 3.34 1.753 5.27 1.753 1.93 4.704 1.93 2.486 0 4.676-1.651z" class="B"/><path d="M189.109 42.966v3.154q-.798-.612-2.301-.612-1.948 0-3.256 1.837-1.308 1.837-1.308 5.01v9.686h-3.043v-19h3.043v3.915h.074q.649-2.004 1.985-3.126 1.336-1.123 2.987-1.123 1.188 0 1.818.26z" class="B"/><use xlink:href="#C" class="B"/><path d="M208.526 61.354v-3.266q2.486 1.837 5.474 1.837 4.008 0 4.008-2.672 0-.761-.343-1.289-.343-.529-.928-.937-.584-.408-1.373-.733-.789-.325-1.698-.677-1.262-.501-2.217-1.011-.956-.51-1.596-1.15-.64-.64-.965-1.457-.325-.816-.325-1.911 0-1.336.612-2.366.612-1.03 1.633-1.726 1.02-.696 2.329-1.048 1.308-.352 2.7-.352 2.468 0 4.416.853v3.08q-2.097-1.373-4.824-1.373-.853 0-1.54.195-.686.195-1.178.547-.492.353-.761.844-.269.492-.269 1.085 0 .742.269 1.243.269.501.789.891.519.39 1.262.705.742.315 1.689.687 1.262.482 2.264.993 1.002.51 1.707 1.15.705.64 1.085 1.475.38.835.38 1.985 0 1.41-.621 2.449-.622 1.039-1.661 1.726-1.039.687-2.393 1.02-1.355.334-2.839.334-2.932 0-5.084-1.132z" class="B"/><use xlink:href="#C" x="33.889" class="B"/><path d="M252.268 33.837v2.746q-.891-.501-2.023-.501-3.191 0-3.191 4.026v2.932h4.453v2.598h-4.453V62.04h-3.024V45.638h-3.247V43.04h3.247v-3.08q0-2.987 1.726-4.722 1.726-1.735 4.305-1.735 1.392 0 2.208.334z" class="B"/><path d="M262.273 59.257v2.598q-1.076.594-2.839.594-4.991 0-4.991-5.566V45.638h-3.266V43.04h3.266v-4.639l3.043-.983v5.622h4.787v2.598h-4.787v10.706q0 1.911.649 2.727.649.816 2.152.816 1.15 0 1.985-.631z" class="B"/><path d="M137.113 119.59h-13.545V68.476h14.115q27.019 0 27.019 24.916 0 11.834-7.503 19.016-7.503 7.182-20.086 7.182zm.428-45.696h-7.984v40.278h7.628q10.052 0 15.648-5.382 5.596-5.382 5.596-15.256 0-19.64-20.888-19.64zm54.919 9.196h6.06l-16.789 42.346q-4.491 11.335-12.618 11.335-2.281 0-3.814-.463v-5.24q1.889.642 3.457.642 4.42 0 6.63-5.275l2.923-6.915-14.258-36.429h6.487l9.874 28.088q.178.535.749 2.78h.214q.178-.856.713-2.709l10.372-28.16zm38.131 14.186v22.314h-5.846V98.773q0-11.62-8.483-11.62-4.384 0-7.254 3.297-2.869 3.297-2.869 8.323v20.816h-5.846v-36.5h5.846v6.06h.143q4.135-6.915 11.976-6.915 5.988 0 9.161 3.867 3.172 3.867 3.172 11.175zm32.641-1.426v23.739h-5.846v-5.703h-.143q-3.814 6.559-11.228 6.559-5.454 0-8.537-2.887-3.083-2.887-3.083-7.663 0-10.23 12.048-11.905l10.943-1.533q0-9.303-7.521-9.303-6.594 0-11.905 4.491v-5.988q5.382-3.422 12.404-3.422 12.868 0 12.868 13.616zm-5.846 8.911v-3.636l-8.804 1.212q-4.064.57-6.131 2.014-2.067 1.444-2.067 5.115 0 2.673 1.907 4.367 1.907 1.693 5.079 1.693 4.349 0 7.182-3.048 2.834-3.048 2.834-7.717zm64.188-7.663v22.492h-5.846V98.631q0-6.06-1.871-8.769-1.871-2.709-6.291-2.709-3.743 0-6.363 3.422-2.62 3.422-2.62 8.198v20.816h-5.846V97.918q0-10.765-8.305-10.765-3.85 0-6.345 3.226-2.495 3.226-2.495 8.394v20.816h-5.846v-36.5h5.846v5.774h.143q3.885-6.63 11.335-6.63 3.743 0 6.523 2.085 2.78 2.085 3.814 5.471 4.063-7.557 12.119-7.557 12.048 0 12.048 14.864zm9.043-23.276q-1.568 0-2.673-1.069-1.105-1.069-1.105-2.709 0-1.64 1.105-2.727 1.105-1.087 2.673-1.087 1.604 0 2.727 1.087 1.123 1.087 1.123 2.727 0 1.568-1.123 2.673-1.123 1.105-2.727 1.105zm2.852 9.268v36.5h-5.846v-36.5h5.846zm32.214 29.264v5.561q-4.206 2.531-9.981 2.531-7.806 0-12.6-5.079-4.794-5.079-4.794-13.171 0-9.018 5.168-14.489 5.168-5.471 13.794-5.471 4.812 0 8.483 1.782v5.988q-4.064-2.852-8.697-2.852-5.596 0-9.178 4.01-3.582 4.01-3.582 10.533 0 6.416 3.368 10.123 3.368 3.707 9.036 3.707 4.776 0 8.982-3.172zm2.13 5.917v-6.273q4.776 3.529 10.515 3.529 7.699 0 7.699-5.133 0-1.461-.66-2.477-.659-1.016-1.782-1.8-1.123-.784-2.638-1.408-1.515-.624-3.262-1.301-2.424-.963-4.26-1.943-1.836-.98-3.065-2.21-1.23-1.23-1.853-2.798-.624-1.568-.624-3.671 0-2.566 1.176-4.545 1.176-1.978 3.137-3.315 1.96-1.337 4.473-2.014 2.513-.677 5.186-.677 4.741 0 8.483 1.64v5.917q-4.028-2.638-9.268-2.638-1.64 0-2.958.374-1.319.374-2.264 1.052-.945.677-1.461 1.622-.517.945-.517 2.085 0 1.426.517 2.388.517.962 1.515 1.711.998.748 2.424 1.354 1.426.606 3.244 1.319 2.424.927 4.349 1.907 1.925.98 3.279 2.21 1.354 1.23 2.085 2.834.731 1.604.731 3.814 0 2.709-1.194 4.705-1.194 1.996-3.19 3.315-1.996 1.319-4.598 1.96-2.602.642-5.454.642-5.632 0-9.767-2.174zm46.934-.57v-6.309q5.24 4.135 11.834 4.135 5.347 0 8.537-2.673 3.19-2.673 3.19-7.2 0-10.016-14.222-10.016h-4.242v-4.955h4.028q12.654 0 12.654-9.41 0-8.697-9.66-8.697-5.382 0-10.159 3.671v-5.703q4.919-2.923 11.62-2.923 6.452 0 10.319 3.422 3.867 3.422 3.867 8.769 0 10.087-10.266 12.975v.143q5.525.535 8.786 3.867 3.262 3.333 3.262 8.323 0 6.879-4.937 11.103-4.937 4.224-13.028 4.224-7.272 0-11.584-2.745zm63.474-48.62v5.525q-3.957-2.032-8.341-2.032-6.808 0-10.889 6.06-4.081 6.06-4.081 16.218h.142q3.565-7.236 11.692-7.236 6.701 0 10.658 4.295 3.957 4.295 3.957 11.495 0 7.521-4.527 12.28-4.527 4.758-11.513 4.758-7.699 0-12.084-6.131-4.384-6.131-4.384-17.216 0-13.438 5.739-21.458 5.739-8.02 15.149-8.02 5.347 0 8.483 1.461zm-12.761 23.49q-4.527 0-7.343 3.065-2.816 3.065-2.816 7.236 0 5.24 2.798 8.947 2.798 3.707 7.432 3.707 4.42 0 7.129-3.226 2.709-3.226 2.709-8.18 0-5.418-2.602-8.483-2.602-3.065-7.307-3.065zm20.167 25.772v-6.202q5.24 3.386 10.658 3.386 5.418 0 8.733-3.065 3.315-3.065 3.315-8.127 0-5.026-3.386-7.842-3.386-2.816-9.695-2.816-2.139 0-8.02.428V68.476h24.737v5.275h-19.212v14.971q2.353-.143 4.349-.143 8.198 0 12.689 4.117 4.491 4.117 4.491 11.282 0 7.414-4.83 11.941-4.83 4.527-13.242 4.527-7.093 0-10.586-2.103z" class="B"/></g></symbol><defs ><path id="C" d="M197.352 62.486q-4.212 0-6.726-2.663-2.514-2.663-2.514-7.06 0-4.787 2.616-7.478 2.616-2.69 7.069-2.69 4.249 0 6.633 2.616 2.384 2.616 2.384 7.255 0 4.546-2.57 7.283-2.57 2.737-6.893 2.737zm.223-17.33q-2.932 0-4.639 1.995-1.707 1.995-1.707 5.501 0 3.377 1.726 5.325 1.726 1.948 4.62 1.948 2.95 0 4.537-1.911 1.586-1.911 1.586-5.437 0-3.562-1.586-5.492-1.586-1.93-4.537-1.93z"/></defs></svg>