<?xml version="1.0" encoding="utf-8"?>
<!-- Generator: Adobe Illustrator 20.1.0, SVG Export Plug-In . SVG Version: 6.00 Build 0)  -->
<svg version="1.1" id="Layer_1" xmlns="http://www.w3.org/2000/svg" xmlns:xlink="http://www.w3.org/1999/xlink" x="0px" y="0px"
	 viewBox="0 0 335 231" enable-background="new 0 0 335 231" xml:space="preserve">
<text transform="matrix(1 0 0 1 500 400)" font-family="'MyriadPro-Regular'" font-size="12px">https://ikbk.com.au/wp-content/uploads/2017/02/moz-home-new2.svg</text>
<text transform="matrix(1 0 0 1 500 400)" font-family="'MyriadPro-Regular'" font-size="12px">https://ikbk.com.au/wp-content/uploads/2017/02/moz-home-new2.svg</text>
<g>
	<ellipse fill="none" cx="176.1" cy="118.4" rx="18.6" ry="16.2"/>
	<path fill="#54BCE7" d="M246.4,128.3l32.8-34.6h-67.5c-1.3,0-2.5,1.1-2.5,2.5v7c-6.3-10.3-18.6-17.3-33-17.3
		c-18.6,0-34.1,11.9-36.8,27.4V93.7h-11.7c-2.7,0-5.4,1.3-7.2,3.1l-22.9,25.4L75,96.8c-1.8-1.8-4.3-3.1-7.2-3.1H55.9v50.7h13.7
		c1.3,0,2.5-1.1,2.5-2.5l0,0v-0.2v-23.6l25.6,28.5l25.6-28.5v23.8c0,1.3,1.1,2.5,2.5,2.5h13.7v-20.6c2.9,15.5,18.4,27.4,36.8,27.4
		c20.6,0,37.5-14.6,37.5-32.5c0-3.1-0.4-6.1-1.3-8.7h29.8l-32.8,34.6h3.4h63.9l0,0l0,0l0,0c1.3,0,2.5-1.1,2.5-2.5l0,0v-13.7H246.4z
		 M176.1,134.8c-10.3,0-18.6-7.2-18.6-16.2s8.3-16.2,18.6-16.2s18.6,7.2,18.6,16.2C194.8,127.4,186.5,134.8,176.1,134.8z"/>
</g>
</svg>
