<?xml version="1.0" encoding="UTF-8" ?>
<!DOCTYPE svg PUBLIC "-//W3C//DTD SVG 1.1//EN" "http://www.w3.org/Graphics/SVG/1.1/DTD/svg11.dtd">
<svg width="300pt" height="130pt" viewBox="0 0 300 130" version="1.1" xmlns="http://www.w3.org/2000/svg">
<path fill="#ffffff" d=" M 0.00 0.00 L 300.00 0.00 L 300.00 130.00 L 0.00 130.00 L 0.00 0.00 Z" />
<path fill="#96c93d" d=" M 282.47 2.20 C 283.75 2.58 285.03 2.95 286.32 3.33 C 285.84 5.43 285.31 7.52 284.81 9.63 C 287.45 7.53 289.57 4.30 293.05 3.60 C 295.59 3.80 295.09 7.13 294.72 8.89 C 293.04 15.57 289.77 21.71 286.81 27.89 C 282.12 37.02 278.24 46.55 273.50 55.66 C 280.92 69.46 286.66 84.43 288.34 100.09 C 287.41 102.55 286.73 105.11 285.80 107.58 C 285.09 104.15 284.80 100.67 284.38 97.20 C 284.22 100.10 284.16 103.00 284.05 105.90 C 283.64 105.75 282.82 105.45 282.41 105.29 C 282.28 108.34 281.77 111.50 279.84 113.98 C 280.50 96.80 275.09 80.14 268.01 64.71 C 260.82 75.49 254.08 86.68 245.09 96.09 C 241.49 99.70 238.72 106.27 232.72 105.62 C 234.68 103.63 236.76 101.75 238.70 99.74 C 236.92 101.07 235.20 102.49 233.50 103.92 C 233.07 103.65 232.22 103.10 231.80 102.83 C 229.74 103.94 226.65 105.76 224.97 103.05 C 224.90 101.21 224.71 98.77 226.55 97.67 C 230.57 94.87 234.19 91.52 237.30 87.72 C 233.59 90.87 230.22 94.50 225.85 96.78 C 228.03 92.21 232.18 89.19 235.27 85.31 C 236.92 83.36 238.38 81.04 240.93 80.18 C 247.24 69.97 254.37 60.27 260.08 49.70 C 252.27 33.90 241.69 19.67 231.45 5.39 C 234.73 6.18 237.90 7.38 240.85 9.02 L 238.08 5.16 C 239.42 5.72 240.77 6.28 242.12 6.82 C 244.50 10.09 247.38 12.94 249.80 16.17 C 254.67 23.39 259.74 30.48 264.01 38.08 C 267.35 31.33 270.63 24.56 273.78 17.72 C 276.13 12.25 280.13 7.69 282.47 2.20 Z" />
<path fill="#009a78" d=" M 141.21 5.26 C 145.18 3.37 150.19 6.60 150.09 11.00 C 150.83 15.44 146.36 19.70 141.96 18.22 C 136.22 16.77 135.80 7.42 141.21 5.26 Z" />
<path fill="#009a78" d=" M 110.31 12.81 C 113.91 12.40 117.52 11.98 121.13 11.56 C 121.12 16.04 121.13 20.52 121.12 25.00 C 125.10 25.00 129.08 25.00 133.06 25.00 C 133.06 28.38 133.06 31.75 133.06 35.13 C 129.04 35.13 125.02 35.13 121.00 35.12 C 121.04 41.77 120.93 48.41 121.02 55.05 C 121.04 57.35 121.46 60.05 123.62 61.34 C 126.20 62.95 129.25 61.60 131.91 60.94 C 132.89 64.25 133.91 67.55 134.86 70.87 C 129.26 72.84 122.61 73.93 117.22 70.79 C 112.42 67.99 110.51 62.17 110.37 56.88 C 110.21 49.63 110.36 42.38 110.31 35.13 C 107.62 35.13 104.93 35.13 102.25 35.13 C 102.25 31.75 102.25 28.38 102.25 25.00 C 104.93 25.00 107.62 25.00 110.31 25.00 C 110.31 20.94 110.31 16.87 110.31 12.81 Z" />
<path fill="#009a78" d=" M 24.71 24.85 C 30.64 23.02 37.55 24.65 41.84 29.19 C 46.40 33.90 48.04 40.67 48.05 47.06 C 48.08 55.43 48.04 63.81 48.06 72.19 C 44.47 72.19 40.89 72.19 37.31 72.18 C 37.29 64.14 37.35 56.09 37.30 48.04 C 37.27 44.47 36.66 40.60 34.14 37.88 C 30.87 34.19 24.73 33.83 20.88 36.80 C 17.43 39.38 15.84 43.79 15.84 47.99 C 15.75 56.06 15.85 64.13 15.82 72.19 C 12.25 72.19 8.68 72.19 5.12 72.18 C 5.12 56.39 5.12 40.60 5.12 24.81 C 8.34 24.81 11.56 24.81 14.78 24.82 C 14.99 26.89 15.20 28.95 15.39 31.03 C 18.16 28.53 21.06 25.94 24.71 24.85 Z" />
<path fill="#009a78" d=" M 52.99 39.12 C 55.11 30.97 62.54 24.66 70.95 23.93 C 77.46 22.84 84.37 25.44 88.14 30.95 C 88.22 28.92 88.32 26.90 88.42 24.87 C 91.86 24.87 95.31 24.87 98.75 24.87 C 98.75 40.64 98.75 56.41 98.75 72.19 C 95.36 72.19 91.98 72.19 88.59 72.19 C 88.44 70.03 88.29 67.88 88.17 65.73 C 81.60 76.34 64.96 75.72 57.41 66.57 C 51.22 59.04 50.56 48.24 52.99 39.12 Z" />
<path fill="#009a78" d=" M 215.53 24.39 C 223.53 22.28 233.22 23.55 238.93 30.02 C 244.34 36.20 244.97 44.90 244.52 52.74 C 233.13 52.79 221.74 52.70 210.35 52.79 C 211.34 55.75 212.59 58.93 215.45 60.56 C 221.61 64.38 229.79 62.76 235.29 58.47 C 237.56 60.94 239.85 63.39 242.12 65.87 C 232.76 75.15 215.71 76.36 206.12 66.84 C 199.65 60.08 198.35 49.80 200.29 40.96 C 201.93 33.25 207.80 26.42 215.53 24.39 Z" />
<path fill="#009a78" d=" M 138.37 72.19 C 138.37 56.36 138.37 40.52 138.37 24.69 C 141.96 24.69 145.54 24.69 149.12 24.69 C 149.13 40.52 149.13 56.35 149.12 72.19 C 145.54 72.19 141.95 72.19 138.37 72.19 Z" />
<path fill="#009a78" d=" M 152.41 24.82 C 156.34 24.81 160.27 24.81 164.19 24.81 C 168.86 36.43 172.89 48.28 176.80 60.17 C 180.71 48.29 184.74 36.45 189.33 24.81 C 193.26 24.81 197.18 24.81 201.11 24.81 C 194.97 40.67 188.78 56.51 182.65 72.37 C 178.76 72.37 174.87 72.37 170.98 72.37 C 164.79 56.52 158.60 40.67 152.41 24.82 Z" />
<path fill="#ffffff" d=" M 71.53 34.77 C 75.85 33.51 80.97 34.50 84.05 37.92 C 89.33 43.81 89.22 53.89 83.65 59.55 C 78.62 64.53 69.33 63.65 65.28 57.86 C 59.99 50.54 62.08 37.50 71.53 34.77 Z" />
<path fill="#ffffff" d=" M 215.77 35.80 C 220.04 33.22 225.91 33.16 230.13 35.88 C 232.59 37.44 233.44 40.36 234.34 42.95 C 226.42 43.03 218.50 43.04 210.58 42.95 C 211.80 40.26 213.11 37.35 215.77 35.80 Z" />
<path fill="#9ba09e" d=" M 25.48 77.96 C 26.41 77.95 28.27 77.92 29.20 77.91 C 31.08 82.40 32.92 86.91 34.84 91.38 C 36.84 87.02 38.65 82.57 40.37 78.09 C 41.64 78.02 42.92 77.95 44.19 77.88 C 44.20 83.94 44.20 90.00 44.19 96.06 C 43.56 96.06 42.30 96.06 41.68 96.06 C 41.67 91.20 41.68 86.34 41.66 81.49 C 39.51 86.27 37.98 91.32 35.55 95.97 C 35.21 95.99 34.55 96.03 34.22 96.05 C 31.74 91.36 30.21 86.24 28.06 81.40 C 27.99 86.29 28.01 91.18 28.00 96.07 C 27.37 96.06 26.11 96.05 25.48 96.05 C 25.47 90.02 25.47 83.99 25.48 77.96 Z" />
<path fill="#9ba09e" d=" M 59.48 77.95 C 60.09 77.94 61.31 77.93 61.92 77.93 C 61.91 80.21 61.90 82.49 61.88 84.78 C 64.09 84.19 66.51 82.97 68.74 84.15 C 73.31 86.19 73.29 93.74 68.74 95.80 C 66.74 96.83 64.52 95.84 62.47 95.49 C 61.47 95.73 60.47 95.97 59.48 96.21 C 59.47 90.12 59.47 84.04 59.48 77.95 Z" />
<path fill="#9ba09e" d=" M 85.12 79.15 C 87.52 77.81 88.92 80.71 87.13 82.35 C 85.13 82.53 84.24 80.83 85.12 79.15 Z" />
<path fill="#9ba09e" d=" M 101.25 80.46 C 101.81 80.46 102.92 80.44 103.48 80.43 C 103.49 81.26 103.51 82.93 103.52 83.76 C 104.90 83.99 106.29 84.24 107.67 84.50 C 106.37 85.39 104.92 86.00 103.47 86.57 C 103.53 88.99 103.62 91.42 103.74 93.84 C 104.73 94.01 106.72 94.33 107.71 94.49 C 106.42 96.65 102.50 97.25 101.48 94.62 C 100.95 92.07 101.14 89.45 101.02 86.86 C 100.48 86.40 99.39 85.46 98.85 85.00 C 99.38 84.52 100.45 83.56 100.99 83.08 C 101.05 82.43 101.18 81.12 101.25 80.46 Z" />
<path fill="#9ba09e" d=" M 4.78 88.08 C 5.69 83.67 11.83 81.88 14.73 85.24 C 15.23 88.98 14.81 92.86 16.26 96.43 C 15.08 96.12 13.89 95.81 12.71 95.49 C 10.64 95.82 8.37 96.90 6.37 95.75 C 4.51 94.59 4.41 91.48 6.17 90.20 C 8.38 89.18 10.83 88.88 13.08 88.01 C 13.23 86.42 12.52 85.59 10.98 85.53 C 8.72 85.71 6.87 87.31 4.78 88.08 Z" />
<path fill="#9ba09e" d=" M 48.43 84.52 C 52.42 81.85 58.53 85.12 58.20 90.01 C 58.49 94.84 52.50 98.03 48.52 95.47 C 44.48 93.28 44.44 86.79 48.43 84.52 Z" />
<path fill="#9ba09e" d=" M 71.62 83.86 C 72.35 83.93 73.82 84.08 74.56 84.15 C 75.62 87.10 76.74 90.04 77.88 92.96 C 79.02 89.96 80.15 86.96 81.27 83.95 C 81.90 83.95 83.17 83.94 83.81 83.94 C 82.24 88.00 80.68 92.06 79.09 96.11 C 78.42 96.07 77.10 95.98 76.44 95.94 C 74.85 91.91 73.23 87.89 71.62 83.86 Z" />
<path fill="#9ba09e" d=" M 85.15 83.96 C 85.74 83.95 86.92 83.94 87.51 83.93 C 87.53 87.98 87.53 92.02 87.52 96.07 C 86.93 96.07 85.74 96.05 85.15 96.04 C 85.14 92.01 85.14 87.98 85.15 83.96 Z" />
<path fill="#9ba09e" d=" M 89.10 87.94 C 88.26 83.77 95.03 82.13 97.05 84.78 C 96.99 85.29 96.88 86.32 96.82 86.84 C 95.12 86.82 92.14 84.75 91.35 87.23 C 93.45 89.33 98.73 89.10 98.06 93.02 C 97.29 97.39 90.54 97.26 88.29 94.06 C 90.72 92.68 93.58 94.26 96.14 93.23 C 95.80 92.81 95.12 91.97 94.78 91.55 C 92.83 90.61 89.58 90.53 89.10 87.94 Z" />
<path fill="#9ba09e" d=" M 107.60 85.34 C 110.57 83.92 115.03 82.25 117.44 85.48 C 118.64 88.90 117.91 92.69 118.08 96.26 C 117.24 95.98 116.39 95.69 115.55 95.41 C 112.77 96.54 107.94 97.07 107.59 92.94 C 107.54 88.26 113.26 88.73 116.46 88.06 C 115.67 87.27 114.90 86.45 114.02 85.77 C 111.86 85.82 109.57 86.72 107.60 85.34 Z" />
<path fill="#9ba09e" d=" M 131.04 96.27 C 124.33 95.44 125.12 83.28 132.04 83.59 C 135.11 83.13 136.92 85.74 137.79 88.28 C 135.89 87.28 134.07 86.08 132.00 85.46 C 128.06 85.79 127.59 91.83 130.26 93.97 C 133.05 95.61 135.36 92.06 137.83 91.20 C 136.98 94.22 134.54 97.19 131.04 96.27 Z" />
<path fill="#9ba09e" d=" M 142.25 84.15 C 145.08 82.84 149.07 83.79 150.25 86.90 C 152.15 90.75 149.84 96.71 144.98 96.34 C 138.56 96.78 136.97 86.77 142.25 84.15 Z" />
<path fill="#9ba09e" d=" M 152.59 84.17 C 155.70 84.15 158.87 83.65 161.92 84.54 C 164.23 84.05 167.46 82.60 169.08 85.18 C 169.93 88.74 169.46 92.46 169.51 96.09 C 169.01 96.07 168.01 96.04 167.51 96.02 C 167.50 92.48 167.44 88.94 167.21 85.40 C 165.60 85.89 163.02 85.17 162.39 87.25 C 161.90 90.16 162.14 93.12 162.11 96.06 C 161.59 96.06 160.56 96.06 160.04 96.07 C 160.02 92.77 160.25 89.44 159.69 86.17 C 158.26 84.81 155.80 85.45 155.08 87.25 C 154.45 90.14 154.72 93.13 154.68 96.07 C 154.16 96.07 153.13 96.07 152.61 96.07 C 152.61 92.10 152.61 88.14 152.59 84.17 Z" />
<path fill="#9ba09e" d=" M 171.94 83.71 C 172.77 83.94 173.59 84.16 174.42 84.38 C 176.66 83.93 179.33 82.97 181.28 84.72 C 184.15 87.34 184.18 92.68 181.27 95.28 C 179.12 97.10 176.32 95.91 173.98 95.28 C 173.99 97.10 173.99 98.93 174.00 100.75 C 173.49 100.75 172.48 100.73 171.98 100.73 C 171.92 95.06 171.93 89.38 171.94 83.71 Z" />
<path fill="#9ba09e" d=" M 185.26 88.19 C 185.85 83.60 191.99 81.96 195.00 85.16 C 195.54 88.94 195.24 92.84 196.49 96.52 C 195.38 96.16 194.26 95.81 193.15 95.46 C 191.15 95.81 189.05 96.76 187.04 95.97 C 184.93 95.00 184.62 91.84 186.26 90.30 C 188.59 88.90 191.95 89.42 193.69 87.12 C 191.46 83.60 187.78 86.90 185.26 88.19 Z" />
<path fill="#9ba09e" d=" M 198.88 83.66 C 199.69 83.93 200.50 84.19 201.32 84.46 C 203.61 83.87 207.19 82.69 208.42 85.58 C 209.33 88.99 208.84 92.58 208.92 96.07 C 208.39 96.07 207.34 96.06 206.82 96.05 C 206.80 92.81 207.06 89.52 206.45 86.31 C 204.81 84.56 201.29 85.62 201.16 88.09 C 200.82 90.73 200.95 93.41 200.94 96.07 C 200.43 96.06 199.39 96.06 198.87 96.06 C 198.86 91.93 198.86 87.79 198.88 83.66 Z" />
<path fill="#9ba09e" d=" M 210.46 83.32 C 214.79 84.72 214.56 90.22 216.30 93.72 C 217.92 90.18 217.80 85.06 221.80 83.18 C 220.48 87.86 218.68 92.39 216.92 96.91 C 216.19 98.36 215.71 100.35 213.95 100.86 C 213.12 100.70 211.47 100.37 210.64 100.21 C 211.57 99.80 213.41 98.98 214.34 98.57 C 215.90 93.16 211.46 88.46 210.46 83.32 Z" />
<path fill="#ffffff" d=" M 50.19 86.14 C 52.49 85.11 55.41 86.61 55.64 89.17 C 56.30 91.87 53.83 94.80 50.99 94.02 C 47.30 93.46 46.88 87.56 50.19 86.14 Z" />
<path fill="#ffffff" d=" M 64.18 86.10 C 66.40 85.22 69.23 86.51 69.56 88.99 C 70.29 91.67 67.96 94.70 65.10 94.05 C 61.25 93.65 60.75 87.51 64.18 86.10 Z" />
<path fill="#ffffff" d=" M 143.12 85.97 C 148.45 83.01 150.97 92.82 145.98 94.32 C 141.28 95.63 139.69 88.25 143.12 85.97 Z" />
<path fill="#ffffff" d=" M 175.35 86.22 C 177.23 84.53 180.47 85.73 180.97 88.15 C 181.65 90.52 181.01 94.22 178.02 94.49 C 173.74 94.87 172.74 88.68 175.35 86.22 Z" />
<path fill="#ffffff" d=" M 7.07 92.06 C 8.78 90.44 11.31 90.45 13.46 89.86 C 12.78 91.36 12.91 93.80 10.90 94.25 C 9.25 94.87 6.53 94.35 7.07 92.06 Z" />
<path fill="#ffffff" d=" M 110.19 93.84 C 108.87 90.06 114.14 90.39 116.42 90.10 C 115.78 93.01 113.33 95.72 110.19 93.84 Z" />
<path fill="#ffffff" d=" M 187.91 94.09 C 185.89 90.49 191.64 90.48 193.77 89.90 C 193.50 92.88 191.11 95.71 187.91 94.09 Z" />
<path fill="#9ba09e" d=" M 283.96 113.54 C 285.34 112.63 286.60 115.05 285.54 116.02 C 284.16 116.90 282.91 114.49 283.96 113.54 Z" />
<path fill="#96c93d" d=" M 278.68 116.28 C 279.22 115.54 279.80 114.83 280.42 114.14 C 280.23 117.44 279.69 120.76 278.21 123.74 C 278.34 121.25 278.64 118.77 278.68 116.28 Z" />
</svg>
