<?xml version="1.0" encoding="UTF-8" standalone="no"?>
<!DOCTYPE svg PUBLIC "-//W3C//DTD SVG 1.1//EN" "http://www.w3.org/Graphics/SVG/1.1/DTD/svg11.dtd">
<svg width="100%" height="100%" viewBox="0 0 1146 1146" version="1.1" xmlns="http://www.w3.org/2000/svg" xmlns:xlink="http://www.w3.org/1999/xlink" xml:space="preserve" style="fill-rule:evenodd;clip-rule:evenodd;stroke-linejoin:round;stroke-miterlimit:1.41421;">
    <g transform="matrix(4.17607,0,0,4.17596,0,-2.55569)">
        <path d="M137.195,0.612C61.428,0.612 0,62.036 0,137.805C0,193.982 33.78,242.242 82.12,263.461C81.733,253.881 82.05,242.381 84.507,231.958C87.145,220.82 102.161,157.202 102.161,157.202C102.161,157.202 97.777,148.443 97.777,135.495C97.777,115.165 109.562,99.981 124.236,99.981C136.715,99.981 142.744,109.354 142.744,120.577C142.744,133.122 134.743,151.886 130.628,169.265C127.191,183.818 137.925,195.688 152.282,195.688C178.275,195.688 195.782,162.303 195.782,122.747C195.782,92.679 175.53,70.173 138.696,70.173C97.08,70.173 71.153,101.208 71.153,135.874C71.153,147.826 74.678,156.256 80.198,162.782C82.736,165.78 83.088,166.987 82.169,170.429C81.512,172.953 80,179.03 79.375,181.439C78.461,184.913 75.646,186.155 72.505,184.872C53.337,177.047 44.41,156.056 44.41,132.459C44.41,93.488 77.278,46.757 142.461,46.757C194.84,46.757 229.314,84.661 229.314,125.347C229.314,179.165 199.394,219.372 155.29,219.372C140.478,219.372 126.545,211.365 121.773,202.272C121.773,202.272 113.808,233.881 112.121,239.985C109.213,250.563 103.519,261.134 98.313,269.374C110.652,273.017 123.686,275 137.195,275C212.955,275 274.381,213.576 274.381,137.805C274.381,62.036 212.955,0.612 137.195,0.612Z" style="fill:rgb(203,32,38);fill-rule:nonzero;"/>
    </g>
</svg>
