<?xml version="1.0" encoding="utf-8"?>
<!-- Generator: Adobe Illustrator 19.2.1, SVG Export Plug-In . SVG Version: 6.00 Build 0)  -->
<svg version="1.1" id="layer" xmlns="http://www.w3.org/2000/svg" xmlns:xlink="http://www.w3.org/1999/xlink" x="0px" y="0px"
	 viewBox="0 0 652 652" style="enable-background:new 0 0 652 652;" xml:space="preserve">
<style type="text/css">
	.st0{fill:#4FC8ED;}
</style>
<g id="Logo">
	<g id="logo_color-black">
		<g id="Group">
			<g id="Group-Copy">
				<path id="Fill-1" class="st0" d="M311.7,350.7c-11,0-14.2-9.6-14.3-18.3c0.1-8.7,3.3-18.3,14.3-18.3s14.2,9.6,14.3,18.3
					C326,341.2,322.7,350.7,311.7,350.7L311.7,350.7z M315.1,300.8c-7.2,0-12.8,2.5-17.2,6.6v-20.5h0v-5.8c0-1.9-1.5-3.4-3.4-3.4
					h-7.7c-1.9,0-3.4,1.5-3.4,3.4v5.8h0v62.8h0v9.6c0,1.9,1.5,3.4,3.4,3.4h7.7c1.9,0,3.4-1.5,3.4-3.4v-2.4h0.2
					c3.6,4.3,8.2,7.3,16.9,7.3c15.5,0,26.3-14.2,26.3-31.6C341.4,315,330.6,300.8,315.1,300.8L315.1,300.8z M273.6,308.5
					L273.6,308.5l0-2.8c0-1.9-1.5-3.4-3.4-3.4h-7.7c-1.9,0-3.4,1.5-3.4,3.4v2.8h0v26.2c0,7.3-3.3,15.3-14.3,15.3
					c-7.4,0-10.7-3.5-10.7-11.8v-32.5c0-1.9-1.5-3.4-3.4-3.4h-7.7c-1.9,0-3.4,1.5-3.4,3.4v1.4h0v35.2c0,17.5,11.8,21.8,22.1,21.8
					c8.2,0,14.1-3.2,17.3-7.4h0.2v2.4h0v0.2c0,1.9,1.5,3.4,3.4,3.4h7.7c1.9,0,3.4-1.5,3.4-3.4v-0.2h0V308.5L273.6,308.5z
					 M180.8,320.7h-15.9V291h15.3c9.2,0,15.5,3.5,15.5,15.3C195.7,314.7,190.9,320.7,180.8,320.7L180.8,320.7z M182.7,277.7h-21.2
					h-8h-1.1c-1.9,0-3.4,1.5-3.4,3.4v1.1v75.2v1.9c0,1.9,1.5,3.4,3.4,3.4h9.1c1.9,0,3.4-1.5,3.4-3.4v-1.9h0V334h18.9
					c16.8,0,28.6-10.9,28.6-27.7C212.5,289.9,202.7,277.7,182.7,277.7L182.7,277.7z"/>
				<path id="Fill-3" d="M478.6,332.5c-1.9,1-4.3,1.7-6.9,2.1l-8,1.7c-5.5,1.1-10,2.6-10,8.3c0,4.5,4.2,7.5,9.4,7.5
					c6.8,0,15.5-3.3,15.5-11.1V332.5z M493.2,351.9L493.2,351.9l0,7.4c0,1.9-1.5,3.4-3.4,3.4h-3.5l0,0l0,0h-4.2
					c-1.9,0-3.4-1.5-3.4-3.4v-2c0,0,0,0,0,0c-5.6,4.5-12.2,6.9-19.7,6.9c-11.5,0-20.5-7.3-20.5-19c0-11.8,9.4-17.1,18.4-18.9
					l6.1-1.2c5.3-1.1,12.1-2.3,15.8-3.6v-1.8c0-6-5.1-7.6-11.5-7.6c-7.4,0-10.6,1.8-11.4,7.5l0,0c-0.1,0.6-0.4,1-0.8,1.5l0,0.1h0
					c-0.7,0.7-1.6,1.1-2.6,1.1l-7.7-0.4c-2.7-0.2-3.2-1.6-3.1-3.4l0,0c0,0,0,0,0-0.1v0l0,0c1.3-12.4,13.2-17.3,25.7-17.3
					c13,0,26,2.6,26,19.8V351.9z M617.7,339.7h-6.1c-2.3,0-3.6,1.5-4.8,3.7l-0.1,0.3c-2.5,4.2-6.7,7.1-11.5,7.1
					c-10.4,0-15.7-8.8-15.7-18.3c0-9.4,5.3-18.3,15.7-18.3c4.8,0,9,2.8,11.5,7.1l0.1,0.3c1.2,2.2,2.5,3.6,4.8,3.6h6.1
					c2.9,0,4.2-1.9,3.6-4.3l0-0.1c-0.6-2.4-1.5-4.6-2.6-6.6l-0.2-0.4c-4.1-7.2-11.1-13-23.5-13c-19.6,0-31,13.6-31,31.6
					c0,18,11.3,31.6,31,31.6c12.4,0,19.4-5.7,23.5-13l0.2-0.4c1.1-2,2-4.2,2.6-6.6l0-0.1C621.9,341.6,620.6,339.7,617.7,339.7
					L617.7,339.7z M556.7,285.1c0-4.4-3.3-7.9-7.5-7.9c-4.1,0-7.5,3.5-7.5,7.9c0,4.4,3.4,7.9,7.5,7.9
					C553.3,293,556.7,289.4,556.7,285.1L556.7,285.1z M556.5,305.7c0-1.9-1.5-3.4-3.4-3.4h-7.7c-1.9,0-3.4,1.5-3.4,3.4v53.6
					c0,1.9,1.5,3.4,3.4,3.4h7.7c1.9,0,3.4-1.5,3.4-3.4V305.7z M531,302.3h-7.4v-18c0-1.9-1.5-3.4-3.4-3.4h-7.7
					c-1.9,0-3.4,1.5-3.4,3.4v18h-7.5c-1.5,0-2.7,1.2-2.7,2.7v6.1c0,1.5,1.2,2.7,2.7,2.7h7.5v45.4c0,1.9,1.5,3.4,3.4,3.4h7.7
					c1.9,0,3.4-1.5,3.4-3.4v-45.4h7.4c1.5,0,2.8-1.2,2.8-2.7V305C533.7,303.5,532.5,302.3,531,302.3L531,302.3z M430.3,358.4
					L430.3,358.4l0,0.9c0,1.9-1.5,3.4-3.4,3.4h-8.5c-1.9,0-3.4-1.5-3.4-3.4v-66.7l0,0v-0.8h-0.2l-6.9,29.3h0l-5.8,24.7l-3.1,13.1
					l0,0l-0.1,0.4c-0.4,1.8-1.5,3.4-3.4,3.4l0,0h-9.9v0c-1.8-0.1-3-1.6-3.4-3.4l0-0.1h0l-15.7-66.6l-0.4,0v65.9h0v0.8
					c0,1.9-1.5,3.4-3.4,3.4h-8.6c-1.9,0-3.4-1.5-3.4-3.4v-78.2c0,0,0,0,0,0v-0.1l0,0c0.1-1.8,1.6-3.3,3.4-3.3h0h18.4h0.1v0
					c1.5,0,2.7,1.1,3.1,2.4h0l0,0.2c0,0,0,0.1,0,0.1l14.9,63.1h0.2l14.9-63.1c0.3-1.5,1.6-2.7,3.2-2.8v0h0.1h17.4h0.2
					c1.9,0,3.4,1.5,3.4,3.3l0,0V358.4z"/>
				<polygon id="Fill-6" class="st0" points="21.5,362.7 106.4,362.7 106.4,277.7 21.5,277.7 				"/>
			</g>
		</g>
	</g>
</g>
</svg>
