<?xml version="1.0" encoding="utf-8"?>
<!-- Generator: Adobe Illustrator 23.0.1, SVG Export Plug-In . SVG Version: 6.00 Build 0)  -->
<svg version="1.1" id="Laag_1" xmlns="http://www.w3.org/2000/svg" xmlns:xlink="http://www.w3.org/1999/xlink" x="0px" y="0px"
	 viewBox="0 0 486.2 200.2" style="enable-background:new 0 0 486.2 200.2;" xml:space="preserve">
<style type="text/css">
	.st0{fill:#9CD137;}
</style>
	<title>Kleur</title>
	<g>
	<g>
		<g>
			<path class="st0" d="M133.1,4.2c3.8,1.5,0.7,18.6-7.1,38.1c-7.7,19.5-17.1,34.1-21,32.6c-3.8-1.5-0.7-18.6,7.1-38.1
				C119.9,17.2,129.3,2.7,133.1,4.2"/>
			<path class="st0" d="M85.1,0c4.2-0.9,9,14.8,10.8,35c1.8,20.2-0.2,37.4-4.4,38.3c-4.2,0.9-9-14.8-10.8-35
				C79,18.1,80.9,0.9,85.1,0"/>
			<path class="st0" d="M39.4,24.1c3.4-3.1,15,7.1,25.8,22.6C76,62.3,82,77.4,78.6,80.5c-3.4,3.1-15-7.1-25.8-22.6
				C42,42.3,36,27.2,39.4,24.1"/>
			<path class="st0" d="M8.1,68.5C9.8,64.1,25,65.9,42,72.7c17,6.7,29.3,15.7,27.5,20.1c-1.8,4.4-16.9,2.5-33.9-4.2
				C18.7,81.9,6.3,72.9,8.1,68.5"/>
			<path class="st0" d="M0,122.1c-0.4-4.6,14.3-11.5,32.9-15.4c18.6-3.9,33.9-3.4,34.3,1.2c0.4,4.6-14.3,11.5-32.9,15.4
				C15.8,127.2,0.4,126.7,0,122.1"/>
			<path class="st0" d="M17,170.8c-2.4-3.5,7.9-17.3,23.1-30.9c15.2-13.5,29.5-21.6,31.9-18.1c2.4,3.5-7.9,17.3-23.1,30.9
				C33.7,166.2,19.4,174.3,17,170.8"/>
			<path class="st0" d="M55.2,200.1c-3.8-1.5-0.7-18.6,7.1-38.1c7.7-19.5,17.1-34.1,21-32.6c3.8,1.5,0.7,18.6-7.1,38.1
				C68.4,187,59,201.6,55.2,200.1"/>
		</g>
		<g>
			<path d="M133.8,111.4c-2.5,1.5-5.6,2.5-8.6,2.5c-7,0-8.6-4.3-7.8-9.1c1-5.5,5-10.1,12.3-10.1c2.3,0,5.6,0.6,7,2L133.8,111.4z
				 M156.7,69.4h-15.2l-3.4,18.2c-2.8-1.2-6.3-1.9-10-1.9c-14.6,0-24.7,9.1-26.7,20.3c-1.5,8.8,3.8,18.2,17.6,18.2
				c5.1-0.2,9.8-1.8,13.4-3.9l-0.4,2.6h14.9L156.7,69.4z"/>
			<path d="M183.8,113.7c-0.1,0.8-3.6,2.4-6.7,2.4c-2.5,0-5.3-1.2-4.9-3.6c0.7-4,6.1-5.6,10.1-5.8c1.3-0.1,2.1-0.2,2.8-0.3
				L183.8,113.7z M168.3,98.6c4.4-1.6,9-3.9,13.8-3.9c3,0,4.8,1.4,4.3,4.2l-0.2,1.4c-4.3,0.3-8.8,0.9-11.7,1.4
				c-10.1,2-15.8,4.8-17.1,12.2c-1.1,6.5,4.2,10.4,12.5,10.4c4.8,0,10-1.7,13.9-3.9c0.2,2.6,2.8,3.9,7.1,3.9
				c2.7,0,10.2-0.9,12.5-2.2l-0.5-6.8c-0.5,0.3-1.3,0.4-2,0.4c-2,0-2.4-1.1-2.2-2.4l3-17.4c1.2-6.8-3.7-10.1-12.1-10.1
				c-9.3,0-16.7,2.2-25.3,6L168.3,98.6z"/>
			<path d="M217.6,81.2h15.7l1.8-10.3h-15.7L217.6,81.2z M210,122.9h15.7l6.7-36h-15.7L210,122.9z"/>
			<path d="M234.4,121.8c2,0.9,9.4,2.4,16.2,2.4c11,0,21.7-2.9,23.4-12.2c1.4-8-4.7-10.3-13.3-11.7c-4.8-0.8-5.5-1.7-5.2-3.2
				c0.4-2.1,3.8-2.9,6.3-2.9c4.4,0,7.9,0.9,10.8,1.5l4.2-7.7c-1.6-0.9-8-2.4-15.8-2.4c-9.6,0-20.5,3.3-22,11.9
				c-1.2,6.7,3,9.6,10.4,11.3c7.6,1.8,8.4,2.4,8.1,3.9c-0.3,1.8-3.5,2.9-5.7,2.9c-3.9,0-9.4-1-12.5-2L234.4,121.8z"/>
			<path d="M290.6,125.4c-0.5,1.4-2.7,3.9-4,5.1c-1.9,1.6-4.5,1.9-6.9,1.9c-1.3,0-2.5-0.1-3.7-0.3l-1.5,8.6c2.6,0.2,5.3,0.2,8.1,0.2
				c12.2,0,16.2-3.4,21.7-11.8l26.4-42.2h-16.2l-12.3,22.3h-0.2l-3.4-22.3H282L290.6,125.4z"/>
			<path d="M366.7,112.3c-2.7,1-5.9,2.1-8.9,2.1c-6.7,0-11-4.1-10.1-9.2c1-5.9,6.9-9.6,14.8-9.6c2.5,0,4.9,0.6,7.2,1.4l6.5-8.1
				c-3.2-1.8-9.5-3.1-14.9-3.1c-15.5,0-27.2,8-29.4,20.1c-2.1,11.8,7.2,18.4,21.6,18.4c5.2,0,12.7-1.6,17.4-3.7L366.7,112.3z"/>
			<path d="M394.6,104.9c0.8-4.7,4-9.8,11.5-9.8c7.5,0,8.9,5.1,8,9.8c-0.8,4.7-4,9.8-11.5,9.8C395.2,114.8,393.8,109.6,394.6,104.9
				 M378.9,104.9c-1.9,10.8,5.3,19.3,22.1,19.3c16.8,0,27-8.4,28.9-19.3c1.9-10.8-5.3-19.3-22.1-19.3
				C391,85.7,380.8,94.1,378.9,104.9"/>
			<path d="M436.1,122.9h15.7l4.4-23.3c2.4-1.6,6.3-3.3,8.8-3.3c4.7,0,5.3,2.3,4.8,5.2c-1.3,7.4-2.6,14.4-3.9,21.3h15.7
				c1.5-7.9,3-15.8,4.2-23.2c1.7-9.8-2.8-14.1-12.4-14.1c-5.6,0-11.5,2.4-15.6,5.2l0.7-3.9h-15.7L436.1,122.9z"/>
		</g>
	</g>
		<g>
		<g>
			<g>
				<path d="M292.3,187.9c-0.3-0.1-0.6-0.2-0.9-0.4s-0.5-0.3-0.8-0.5c-0.2-0.2-0.4-0.4-0.5-0.7v5h-1.6v-12.5h1.6v1.5
					c0.1-0.2,0.3-0.5,0.5-0.7c0.2-0.2,0.5-0.4,0.8-0.5c0.3-0.2,0.6-0.3,1-0.4c0.3-0.1,0.7-0.1,1-0.1c0.7,0,1.3,0.1,1.8,0.4
					c0.6,0.2,1,0.6,1.4,1c0.4,0.4,0.7,0.9,0.9,1.5s0.3,1.2,0.3,1.9c0,0.7-0.1,1.3-0.3,1.9c-0.2,0.6-0.6,1.1-1,1.5
					c-0.4,0.4-0.9,0.7-1.5,1c-0.6,0.2-1.2,0.3-1.8,0.3C292.9,188,292.6,188,292.3,187.9z M296,182c-0.2-0.4-0.4-0.8-0.6-1.1
					s-0.6-0.5-1-0.7s-0.8-0.2-1.3-0.2c-0.5,0-0.9,0.1-1.3,0.2c-0.4,0.2-0.7,0.4-1,0.7s-0.5,0.7-0.6,1.1c-0.2,0.4-0.2,0.8-0.2,1.3
					c0,0.5,0.1,0.9,0.2,1.3c0.2,0.4,0.4,0.8,0.6,1.1c0.3,0.3,0.6,0.5,1,0.7c0.4,0.2,0.8,0.2,1.3,0.2c0.5,0,0.9-0.1,1.3-0.2
					c0.4-0.2,0.7-0.4,1-0.7c0.3-0.3,0.5-0.7,0.6-1.1c0.2-0.4,0.2-0.9,0.2-1.3C296.3,182.8,296.2,182.4,296,182z"/>
				<path d="M304.5,180.4c-0.4-0.3-0.9-0.4-1.5-0.4c-0.5,0-1,0.1-1.4,0.3c-0.4,0.2-0.8,0.4-1.1,0.7l-0.8-1.2
					c0.4-0.3,0.8-0.6,1.4-0.9c0.6-0.2,1.3-0.4,2-0.4c1.1,0,2,0.3,2.7,0.9s0.9,1.4,0.9,2.3v6h-1.6v-1c-0.1,0.2-0.3,0.4-0.5,0.6
					c-0.2,0.2-0.4,0.3-0.7,0.4s-0.5,0.2-0.8,0.2c-0.3,0-0.5,0.1-0.8,0.1c-0.5,0-0.9-0.1-1.3-0.2c-0.4-0.1-0.7-0.3-1-0.6
					c-0.3-0.3-0.5-0.6-0.7-0.9s-0.2-0.7-0.2-1.2c0-0.9,0.3-1.5,0.8-2c0.6-0.5,1.3-0.7,2.3-0.7h2.1c0.3,0,0.4-0.1,0.5-0.2
					c0.1-0.1,0.1-0.3,0.1-0.5v-0.1C305.1,181.2,304.9,180.7,304.5,180.4z M303.6,186.6c0.3-0.1,0.6-0.2,0.8-0.4
					c0.2-0.2,0.4-0.4,0.5-0.7s0.2-0.6,0.2-1v-1c-0.1,0.1-0.2,0.2-0.4,0.2c-0.2,0-0.4,0-0.6,0h-1.4c-1.2,0-1.9,0.5-1.9,1.4
					c0,0.4,0.1,0.7,0.4,1c0.3,0.3,0.8,0.5,1.4,0.5C303,186.7,303.3,186.7,303.6,186.6z"/>
				<path d="M313.1,180.2c-0.3,0-0.6,0-0.9,0.1c-0.3,0.1-0.5,0.2-0.8,0.4c-0.2,0.2-0.4,0.5-0.5,0.9c-0.1,0.4-0.2,0.9-0.2,1.6v4.6
					h-1.6v-9h1.5v1.4c0.3-0.6,0.6-1,1.1-1.2c0.5-0.3,0.9-0.4,1.3-0.4h0.4c0.1,0,0.2,0,0.4,0v1.5H313.1z"/>
				<path d="M318,178.8h2.2v1.3H318v5.6c0,0.3,0.1,0.6,0.3,0.7c0.2,0.1,0.4,0.1,0.7,0.1h0.5c0.2,0,0.3,0,0.4,0c0.1,0,0.3,0,0.4,0
					v1.3l-0.5,0c-0.1,0-0.3,0-0.5,0s-0.4,0-0.5,0c-0.2,0-0.5,0-0.8-0.1c-0.3,0-0.5-0.1-0.7-0.2c-0.2-0.1-0.4-0.3-0.6-0.6
					c-0.1-0.2-0.2-0.6-0.2-1v-5.9h-1.5v-1.3h1.5v-3.7h1.6V178.8z"/>
				<path d="M325.8,181.4c0.2-0.6,0.6-1.1,1-1.5c0.4-0.4,0.9-0.7,1.5-1c0.6-0.2,1.2-0.4,1.8-0.4s1.3,0.1,1.8,0.4s1.1,0.6,1.5,1
					c0.4,0.4,0.8,0.9,1,1.5s0.4,1.2,0.4,1.9c0,0.7-0.1,1.3-0.4,1.9c-0.2,0.6-0.6,1.1-1,1.5c-0.4,0.4-0.9,0.7-1.5,1s-1.2,0.3-1.8,0.3
					s-1.3-0.1-1.8-0.3c-0.6-0.2-1.1-0.6-1.5-1s-0.8-0.9-1-1.5c-0.2-0.6-0.4-1.2-0.4-1.9C325.4,182.6,325.6,182,325.8,181.4z
					 M333.1,182c-0.2-0.4-0.4-0.8-0.6-1.1s-0.6-0.5-1-0.7s-0.8-0.2-1.3-0.2c-0.5,0-0.9,0.1-1.3,0.2c-0.4,0.2-0.7,0.4-1,0.7
					s-0.5,0.7-0.6,1.1c-0.2,0.4-0.2,0.8-0.2,1.3c0,0.5,0.1,0.9,0.2,1.3c0.2,0.4,0.4,0.8,0.6,1.1c0.3,0.3,0.6,0.5,1,0.7
					c0.4,0.2,0.8,0.2,1.3,0.2c0.5,0,0.9-0.1,1.3-0.2c0.4-0.2,0.7-0.4,1-0.7c0.3-0.3,0.5-0.7,0.6-1.1c0.2-0.4,0.2-0.9,0.2-1.3
					C333.3,182.8,333.2,182.4,333.1,182z"/>
				<path d="M337.4,174.9c0.1-0.3,0.3-0.5,0.5-0.7c0.2-0.2,0.4-0.3,0.7-0.4c0.3-0.1,0.5-0.1,0.7-0.1c0.2,0,0.4,0,0.5,0
					c0.2,0,0.3,0,0.5,0l0.4,0v1.4l-0.3,0c-0.1,0-0.2,0-0.3,0c-0.1,0-0.2,0-0.3,0c-0.4,0-0.6,0.1-0.8,0.2c-0.2,0.1-0.3,0.4-0.3,0.9
					v2.7h1.9v1.3h-1.9v7.7h-1.6v-7.7h-1.5v-1.3h1.5v-2.9C337.2,175.5,337.3,175.1,337.4,174.9z"/>
			</g>
		</g>
			<g>
			<path d="M421.2,189.5c0-2.3-0.7-4.4-2.2-6c-1.4-1.6-3.5-2.5-6.1-2.5c-2.7,0-4.9,0.9-6.5,2.6c-1.6,1.7-2.4,4-2.4,6.8
				c0,2.9,0.8,5.3,2.4,7.1c1.6,1.8,3.8,2.7,6.6,2.7c2.2,0,3.9-0.5,5.3-1.5c1.3-0.9,2.1-2.2,2.5-3.6h-2.7c-0.7,1.9-2.3,2.9-5,2.9
				c-1.9,0-3.5-0.7-4.6-2c-1.1-1.3-1.7-3.1-1.7-5.3l0-0.2h14.5V189.5z M406.9,188.2l0-0.3c0.3-1.3,0.9-2.5,1.9-3.3
				c1-0.8,2.4-1.3,4.1-1.3c1.6,0,2.9,0.4,3.8,1.3c1,0.9,1.5,2,1.7,3.3l0,0.2H406.9z"/>
				<polygon points="355.9,173.6 355.9,199.7 367.3,199.7 367.3,197.4 358.6,197.4 358.6,173.6 			"/>
				<polygon points="441.9,199.7 441.9,181.6 428.9,181.6 428.9,173.6 426.2,173.6 426.2,199.7 428.9,199.7 428.9,183.8 439.3,183.8
				439.3,199.7 			"/>
				<path d="M472.8,197.7c1.3,1.6,3.1,2.4,5.5,2.4c2.4,0,4.4-0.9,5.8-2.7c1.4-1.8,2.1-4.1,2.1-6.9c0-2.8-0.7-5.1-2.1-6.9
				c-1.4-1.8-3.4-2.7-5.8-2.7c-2.4,0-4.2,0.8-5.4,2.4l-0.1,0.1h-1.1v-10h-2.7v26.1h2.6v-2L472.8,197.7L472.8,197.7z M473.2,185.5
				c1-1.4,2.5-2.1,4.5-2.1c1.9,0,3.3,0.7,4.4,2c1,1.3,1.5,3.1,1.5,5.3c0,2.2-0.5,3.9-1.5,5.3c-1,1.3-2.5,2-4.4,2
				c-2,0-3.5-0.7-4.5-2.1c-1-1.4-1.5-3.1-1.5-5.1C471.7,188.6,472.2,186.8,473.2,185.5z"/>
				<g>
				<rect x="372.7" y="173.6" width="3.9" height="3.6"/>
					<polygon points="376.7,199.7 376.7,181.6 365.2,181.6 365.2,183.8 374,183.8 374,199.7 				"/>
			</g>
				<polygon points="447.9,181.6 447.9,199.7 463.1,199.7 463.1,181.6 460.4,181.6 460.4,197.4 450.5,197.4 450.5,181.6 			"/>
				<polygon points="398.9,199.7 398.9,181.6 383.7,181.6 383.7,199.7 386.4,199.7 386.4,183.8 396.3,183.8 396.3,199.7 			"/>
		</g>
	</g>
</g>
</svg>
