<?xml version="1.0" encoding="UTF-8" standalone="no"?>
<svg
   xmlns:dc="http://purl.org/dc/elements/1.1/"
   xmlns:cc="http://creativecommons.org/ns#"
   xmlns:rdf="http://www.w3.org/1999/02/22-rdf-syntax-ns#"
   xmlns:svg="http://www.w3.org/2000/svg"
   xmlns="http://www.w3.org/2000/svg"
   xmlns:sodipodi="http://sodipodi.sourceforge.net/DTD/sodipodi-0.dtd"
   xmlns:inkscape="http://www.inkscape.org/namespaces/inkscape"
   version="1.0"
   width="1036.000000pt"
   height="117.000000pt"
   viewBox="0 0 1036.000000 117.000000"
   preserveAspectRatio="xMidYMid meet"
   id="svg2"
   inkscape:version="0.91 r13725"
   sodipodi:docname="rtbhouse.svg">
  <metadata
     id="metadata30">
    <rdf:RDF>
      <cc:Work
         rdf:about="">
        <dc:format>image/svg+xml</dc:format>
        <dc:type
           rdf:resource="http://purl.org/dc/dcmitype/StillImage" />
      </cc:Work>
    </rdf:RDF>
  </metadata>
  <defs
     id="defs28" />
  <sodipodi:namedview
     pagecolor="#ffffff"
     bordercolor="#666666"
     borderopacity="1"
     objecttolerance="10"
     gridtolerance="10"
     guidetolerance="10"
     inkscape:pageopacity="0"
     inkscape:pageshadow="2"
     inkscape:window-width="1920"
     inkscape:window-height="1054"
     id="namedview26"
     showgrid="false"
     inkscape:zoom="0.82162162"
     inkscape:cx="636.28331"
     inkscape:cy="51.56763"
     inkscape:window-x="0"
     inkscape:window-y="0"
     inkscape:window-maximized="1"
     inkscape:current-layer="svg2" />
  <g
     transform="translate(0.000000,117.000000) scale(0.100000,-0.100000)"
     fill="#000000"
     stroke="none"
     id="g4"
     style="image-rendering:auto">
    <path
       d="M4813 1159 c-108 -18 -222 -79 -300 -161 -45 -47 -98 -139 -125 -217 -31 -90 -33 -306 -4 -391 64 -186 179 -308 345 -366 55 -20 86 -24 187 -24 81 0 138 5 175 16 287 84 449 381 383 701 -19 96 -49 162 -107 240 -119 160 -335 239 -554 202z m216 -140 c189 -43 301 -206 301 -440 0 -299 -196 -484 -473 -447 -172 23 -292 144 -332 335 -18 86 -18 140 0 226 30 144 101 244 209 297 96 47 178 55 295 29z"
       id="path6" />
    <path
       d="M7100 1164 c-148 -29 -256 -109 -296 -221 -21 -61 -17 -150 10 -208 44 -95 130 -148 333 -204 220 -61 283 -97 303 -172 27 -100 -32 -189 -145 -220 -65 -18 -185 -13 -256 11 -69 24 -159 79 -188 116 l-19 25 -46 -59 -45 -59 32 -31 c49 -47 144 -100 219 -123 58 -18 89 -20 210 -17 136 3 146 5 208 34 118 56 179 144 188 270 12 189 -82 280 -379 365 -79 23 -162 50 -185 61 -93 43 -123 112 -84 192 32 67 89 98 190 104 123 7 234 -28 315 -99 20 -18 37 -30 38 -28 2 2 22 27 45 55 l42 52 -43 34 c-101 82 -195 117 -330 123 -51 2 -103 1 -117 -1z"
       id="path8" />
    <path
       d="M0 580 l0 -570 100 0 100 0 0 210 0 210 98 0 98 0 123 -210 124 -210 119 0 c117 0 119 0 108 21 -7 11 -69 112 -139 223 l-128 203 41 11 c143 38 234 182 223 351 -7 124 -64 219 -165 278 -78 46 -134 53 -429 53 l-273 0 0 -570z m522 379 c123 -27 175 -156 108 -267 -37 -61 -78 -72 -265 -72 l-165 0 0 175 0 175 135 0 c73 0 158 -5 187 -11z"
       id="path10"
       style="fill:#ff0000" />
    <path
       d="M940 1060 l0 -90 170 0 170 0 0 -480 0 -480 105 0 105 0 0 480 0 480 170 0 170 0 0 90 0 90 -445 0 -445 0 0 -90z"
       id="path12"
       style="fill:#ff0000" />
    <path
       d="M1950 580 l0 -571 338 3 337 3 63 29 c113 52 172 147 172 276 0 31 -7 77 -16 103 -19 57 -81 128 -133 154 l-40 20 51 34 c70 46 109 117 115 207 9 125 -52 227 -166 281 l-56 26 -332 3 -333 3 0 -571z m607 367 c93 -51 95 -188 3 -242 -31 -18 -56 -20 -217 -23 l-183 -4 0 147 0 147 183 -4 c151 -2 188 -6 214 -21z m13 -469 c105 -53 108 -208 4 -262 -34 -19 -61 -21 -226 -24 l-188 -4 0 156 0 156 183 0 c170 0 186 -2 227 -22z"
       id="path14"
       style="fill:#ff0000" />
    <path
       d="M3230 580 l0 -570 75 0 75 0 0 260 0 260 325 0 325 0 0 -260 0 -260 75 0 75 0 0 570 0 570 -75 0 -75 0 0 -245 0 -245 -325 0 -325 0 0 245 0 245 -75 0 -75 0 0 -570z"
       id="path16" />
    <path
       d="M5670 753 c0 -300 4 -410 14 -448 38 -143 127 -238 266 -285 57 -19 82 -21 205 -18 140 3 142 3 218 41 119 59 194 164 216 307 6 36 11 228 11 433 l0 367 -74 0 -75 0 -4 -392 c-4 -424 -5 -432 -60 -515 -24 -36 -48 -56 -97 -81 -59 -30 -74 -33 -150 -33 -165 -1 -254 57 -301 194 -16 46 -18 94 -19 440 l0 387 -75 0 -75 0 0 -397z"
       id="path18" />
    <path
       d="M7780 580 l0 -570 375 0 375 0 0 70 0 71 -300 -3 -300 -3 0 193 0 192 300 0 300 0 0 65 0 65 -300 0 -300 0 0 180 0 180 300 0 300 0 0 65 0 65 -375 0 -375 0 0 -570z"
       id="path20" />
    <path
       d="M9440 1085 l0 -65 460 0 460 0 0 65 0 65 -460 0 -460 0 0 -65z"
       id="path22"
       style="fill:#ff0000" />
    <path
       d="M9440 595 l0 -65 460 0 460 0 0 65 0 65 -460 0 -460 0 0 -65z"
       id="path24"
       style="fill:#ff0000" />
  </g>
</svg>
