<svg xmlns:cc="http://creativecommons.org/ns#" xmlns:dc="http://purl.org/dc/elements/1.1/" xmlns:rdf="http://www.w3.org/1999/02/22-rdf-syntax-ns#" xmlns:svg="http://www.w3.org/2000/svg" xmlns="http://www.w3.org/2000/svg" xmlns:xlink="http://www.w3.org/1999/xlink" id="svg2" x="0px" y="0px" viewBox="0 0 1001.3 224.3" style="enable-background:new 0 0 1001.3 224.3;" xml:space="preserve"> <style type="text/css"> .st0{fill:#55565A;} .st1{fill:#CCCCCC;} .st2{fill:#999999;} .st3{fill:#666666;} </style> <g id="g10" transform="matrix(1.3333333,0,0,-1.3333333,0,224.33333)"> <g id="g12" transform="scale(0.1)"> <path id="path14" class="st0" d="M6297.6,944.1h-124.6V493.7h124.6V944.1"></path> <path id="path16" class="st0" d="M1996.2,828.8c0,38.9,29.4,72.8,85,72.8c42.9,0,72.4-16.2,88.4-26.7l19.4,39.6 c-24.4,15.4-59.8,27.4-101.8,27.4c-88.4,0-142.2-55.7-142.2-120.4c0-52.6,41.2-92.2,115.3-120.5c63.9-25.1,91.7-50.2,91.7-95.4 c0-44.5-32.8-80.1-101-80.1c-40.4,0-77.4,16.1-101,29.9l-17.7-40.4c30.3-17.8,71.6-29.9,116.2-29.9c90.9,0,154.8,46.9,154.8,127 c0,65.5-43.8,101.1-117,129.4C2025.6,766.5,1996.2,785.1,1996.2,828.8"></path> <path id="path18" class="st0" d="M2331.9,752.8c7.6,65.5,48.8,148.8,143.1,148.8c101.9,0,128.8-86.5,128-148.8L2331.9,752.8z M2655.9,743.2C2655.1,811,2624.8,942,2480,942c-117.9,0-202-93.8-202-236.9c0-128.6,79.9-219.9,211.3-219.9 c74.9,0,121.2,16.9,141.3,27.5l-12.6,37.2c-26.1-12.2-59.7-24.3-122-24.3c-89.3,0-166.7,52.6-166.7,188.4h324.9 C2655.1,723.7,2655.9,731,2655.9,743.2"></path> <path id="path20" class="st0" d="M2991.3,635.6c0-32.3-33.7-110.8-131.3-110.8c-45.5,0-86.7,27.5-86.7,88.1 c0,101.9,122.9,113.2,218,113.2V635.6z M3042.6,598.3V769c0,82.5-28.6,173-157.4,173c-44.6,0-94.2-12.1-133.9-37.1l15.2-35.6 c32,21.8,73.2,32.3,112,32.3c112,0,112-93,112-135.8c-178.5,1.6-271.9-57.5-271.9-160.1c0-59.9,43.8-121.3,133-121.3 c69,0,118.6,35.6,140.6,70.4h2.5l5.9-60.7h48C3043.4,526.4,3042.6,563.6,3042.6,598.3"></path> <path id="path22" class="st0" d="M3336.2,893.5c9.3,0,16,0,22.7-1.6v47.7c-6.7,0.9-12.6,2.4-19.4,2.4c-59.7,0-106.9-42.9-126.2-97 h-3.3l-1.7,87.3h-47.1c2.6-43.7,3.3-86.5,3.3-130.2V494h52.3v241.8C3216.7,815.1,3260.5,893.5,3336.2,893.5"></path> <path id="path24" class="st0" d="M3727.4,875.7l16,40.4c-16.8,10.5-59.7,25.9-114.5,25.9c-137.2,0-233.1-96.2-233.1-233.7 c0-132.6,86.7-223.1,216.3-223.1c62.2,0,108.5,17.8,128.7,27.5l-11.8,38.8c-24.4-10.5-57.3-25-108.5-25 c-100.2,0-171.7,72.8-171.7,185.2c0,101,59.8,189.2,175.9,189.2C3672.8,900.8,3706.4,887.1,3727.4,875.7"></path> <path id="path26" class="st0" d="M4147.4,494h52.2v266.1c0,157.7-108.5,181.9-155.7,181.9c-63.9,0-123.7-37.1-148.9-84h-1.7v282.2 h-52.2V494h52.2v269.4c0,17,0.8,28.2,5.9,41.2c17.7,51.7,69.9,94.5,130.5,94.5c88.3,0,117.8-68.8,117.8-144.7V494"></path> <path id="path28" class="st0" d="M4424.1,943.6h-106c1.7-39.6,3.4-82.5,3.4-135V494h122V765c0,60.7,40.4,91.4,74.9,91.4 c48.8,0,66.5-42.9,66.5-96.2V494h122.1v273.3c0,63,38.7,89,73.2,89c49.6,0,68.1-42.9,68.1-107.5V494h122v273.3 c0,130.2-63.1,186-144.7,186c-52.2,0-100.2-20.3-138.9-75.2h-1.7c-18.5,46.1-62.3,75.2-119.5,75.2c-69.9,0-111.1-37.3-133-69.6 h-2.5L4424.1,943.6"></path> <path id="path30" class="st0" d="M5163.3,766.5c3.4,44.5,28.6,104.3,88.3,104.3c61.5,0,80.8-57.4,80-104.3H5163.3z M5446.9,731 c0,145.6-74.1,223.2-187.7,223.2c-137.2,0-214.7-111.6-214.7-241c0-139.9,82.5-227.3,227.3-227.3c58.1,0,112.8,9.8,151.5,25.9 l-17.7,82.5c-32-10.5-68.1-18.6-114.5-18.6c-67.2,0-124.5,30.7-127.9,107.6h280.2C5446,696.3,5446.9,713.2,5446.9,731"></path> <path id="path32" class="st0" d="M5665.5,856.3h103.5v88.1h-103.5v117.3l-122.8-34.8v-82.5h-61.5v-88.1h61.5V648.5 c0-50.2,2.5-162.6,137.2-162.6c36.2,0,66.5,4,83.3,10.5l-1.6,91.4c-12.6-2.5-22.8-4-40.4-4c-37.9,0-55.6,22.6-55.6,76.8 L5665.5,856.3"></path> <path id="path34" class="st0" d="M6067.3,840.1c12.6,0,22.7-0.7,32-2.4v114.1c-8.4,1.6-16,2.4-27.7,2.4 c-43.8,0-94.3-29.9-116.2-88.1h-3.4l-5,78.4h-106.9c1.7-40.4,3.4-84.9,3.4-140.7V494H5968V727C5968,803.7,6011,840.1,6067.3,840.1 "></path> <path id="path36" class="st0" d="M6301.7,1067c0,37.2-26.9,63.9-67.3,63.9c-38.8,0-66.6-26.7-66.6-63.9c0-36.4,27-63.9,66.6-63.9 C6273.1,1003.1,6301.7,1028.2,6301.7,1067"></path> <path id="path38" class="st0" d="M6688.4,845l20.2,91.3c-20.2,8.1-57.2,17-97.7,17c-154.8,0-245.8-103.5-245.8-238.6 c0-143.1,89.3-228.9,226.4-228.9c49.7,0,92.6,9.8,113.7,19.5l-13.4,89.7c-20.3-8.9-44.6-14.6-75.8-14.6 c-71.6,0-124.6,50.9-124.6,139.2c0,79.1,45.5,139.9,123.8,139.9C6649.7,859.6,6672.4,852.3,6688.4,845"></path> <path id="path40" class="st0" d="M7037.3,845l23.5,84c-26.9,13.7-68.1,25.1-116.1,25.1c-104.4,0-171.7-61.4-171.7-142.3 c0-49.4,32-97.1,119.5-131c51.4-21.1,67.4-35.6,67.4-63.1c0-27.5-21.1-45.3-64.8-45.3c-38.7,0-85,16.3-109.4,29.9l-23.6-86.5 c31.2-17.8,80.8-29.9,132.2-29.9c116.9,0,184.3,56.7,184.3,142.3c0,62.3-37.1,105.9-116.1,137.5c-53.9,21.8-71.6,34.8-71.6,59.8 c0,24.2,20.2,42.8,58,42.8C6984.3,868.4,7017.2,855.5,7037.3,845"></path> <path id="path42" class="st1" d="M1604.9,432.5c-0.8,1.8-2.5,5.2-3.3,6.9c-40,82.6-119.8,173.2-225.8,251l-26-30.8 c17.8-10.6,35.6-22.1,53.3-34.5c82.2-57.5,149.1-123.8,191.2-189.7c4-6.3,4.1-6.4,7.3-6.6l2.4,0 C1606,428.7,1606.3,429.3,1604.9,432.5 M1311.5,733.7C1115.4,855.4,915.8,882,851.3,789.8c-56-80-2-201.5,119.7-333.9 c4.8-5.2,6.4-5.5,11.3-5.5l0.7,0c4.4,0,4.1,1.3,0.8,6.1c-0.3,0.4-0.5,0.6-0.7,0.9C917.9,549,900.1,639,940,696 c53.2,76,199,69.7,353.3-5.8L1311.5,733.7"></path> <path id="path44" class="st2" d="M1681.1,431.1c-33.7,100.2-122.5,218.5-248.3,327l-30-35.5c126.7-90.6,218.3-195.9,268.8-291.5 c2.5-4.6,2.7-4.8,5.6-4.8l2.7,0C1682,426.2,1682.8,426.1,1681.1,431.1 M1349.5,824.3c-8.5,6.3-17.1,12.4-25.9,18.6 c-276.6,193.7-566.1,249.9-653.1,125.7c-77.6-111,36.4-328.2,258.5-511.3c1.5-1.3,1.8-1.7,3.2-2.7c2.8-2.1,3.6-2.4,8.4-2.6 c3.8-0.1,5.9-0.2,0.5,5.3h0C796,603.4,729.7,758.1,789.2,843.1c71.3,101.8,308.2,68.3,538.5-70.9L1349.5,824.3"></path> <path id="path46" class="st3" d="M1756.6,435.4c-26.9,115.6-120.6,258.6-262.4,395.7l-31.2-36.9 c141.4-119.9,243-250.7,284.6-362.6c2.7-7.1,2.7-8,5.8-8c0.3,0,3.5,0,3.9,0C1759.4,423.5,1759.4,423.5,1756.6,435.4 M1390.8,922.9 c-33.1,27-68,53.5-104.6,79.1c-353,247.2-725.9,323.8-832.8,171c-20-28.5-31.9-66.1-31.8-111.2v-0.4 c0.3-141.1,116.7-356.4,464.5-603.2c6.2-4.4,6.5-4.4,12.3-4.6c3.9-0.2,4.7-0.2-1,4.6l0,0C648.7,664,520.4,906.1,606.4,1029 c96.8,138.3,428.5,73.1,740.9-145.6c7-4.9,13.9-9.8,20.8-14.8L1390.8,922.9"></path> <path id="path48" class="st0" d="M1560.8,910.1c0.5,0.6,0.9,1.4,0.9,2.3c0,0.5-0.1,1-0.3,1.4l-83.3,201.3 c-0.7,1.2-1.9,1.9-3.4,1.9c-1.6,0-3-1-3.6-2.4h-0.1L1221,517.8l-0.3-0.7c0,0-0.3-0.7-0.4-0.9c-1.5-3.3-1.3-3.8,0.4-3.8 c4.4,0,4.7,0,8.4,4.2L1560.8,910.1L1560.8,910.1"></path> </g> </g> </svg>