<?xml version="1.0" encoding="UTF-8" standalone="no"?>
<!DOCTYPE svg PUBLIC "-//W3C//DTD SVG 1.1//EN" "http://www.w3.org/Graphics/SVG/1.1/DTD/svg11.dtd">
<svg width="100%" height="100%" viewBox="0 0 1346 359" version="1.1" xmlns="http://www.w3.org/2000/svg" xmlns:xlink="http://www.w3.org/1999/xlink" xml:space="preserve" style="fill-rule:evenodd;clip-rule:evenodd;stroke-linejoin:round;stroke-miterlimit:1.41421;">
    <g transform="matrix(4.16667,0,0,4.16667,0,0)">
        <g transform="matrix(1.00175,0,0,1.00571,-27.2407,-16.3197)">
            <path d="M276.185,62.231C276.084,61.078 276.036,60.067 275.899,59.069C275.385,55.314 273.332,52.999 269.624,52.265C268.026,51.948 266.351,51.904 264.714,51.922C260.618,51.969 257.531,54.322 256.349,58.226C255.964,59.501 255.641,60.808 255.929,62.231C262.65,62.231 269.292,62.231 276.185,62.231ZM290.612,75.935C279.079,75.935 267.633,75.935 255.993,75.935C256.091,76.881 256.107,77.628 256.256,78.348C256.513,79.6 256.754,80.871 257.177,82.072C258.336,85.36 260.37,86.906 263.839,86.94C267.328,86.975 270.826,86.881 274.31,86.683C278.942,86.419 283.565,85.998 288.192,85.651C288.413,85.635 288.638,85.686 288.961,85.714C288.961,90.404 288.961,95.055 288.961,99.826C288.147,99.913 287.377,100.024 286.604,100.072C282.79,100.309 278.978,100.565 275.162,100.745C271.446,100.92 267.723,101.172 264.009,101.103C258.521,101.001 253.37,99.675 249.133,95.908C245.46,92.643 243.441,88.401 242.542,83.693C241.872,80.188 241.518,76.599 241.337,73.032C241.136,69.089 241.16,65.122 241.316,61.175C241.766,49.809 248.703,40.548 260.022,38.285C266.065,37.076 272.047,37.505 277.727,40.036C284.805,43.189 288.685,48.888 290.046,56.355C290.479,58.734 290.585,61.189 290.65,63.615C290.746,67.269 290.676,70.928 290.672,74.585C290.672,74.971 290.639,75.357 290.612,75.935Z" style="fill:rgb(64,106,179);fill-rule:nonzero;"/>
        </g>
        <g transform="matrix(1.00175,0,0,1.00571,-27.2407,-16.3197)">
            <path d="M236.105,100.706C231.322,100.706 226.62,100.706 221.802,100.706C221.771,100.2 221.716,99.722 221.716,99.243C221.711,86.096 221.715,72.95 221.709,59.803C221.707,57.442 221.064,55.307 219.301,53.635C217.707,52.123 215.806,51.451 213.669,52.11C210.566,53.066 207.508,54.169 204.475,55.194C204.475,70.522 204.475,85.588 204.475,100.711C199.671,100.711 194.969,100.711 190.154,100.711C190.122,100.191 190.067,99.712 190.067,99.232C190.062,86.119 190.057,73.005 190.07,59.891C190.071,58.048 189.772,56.286 188.904,54.649C187.814,52.596 186.044,51.552 183.771,51.944C179.658,52.653 175.861,54.356 171.891,55.915C171.891,70.852 171.891,85.729 171.891,100.686C167.015,100.686 162.294,100.686 157.492,100.686C157.492,80.025 157.492,59.42 157.492,38.708C162.257,38.708 166.977,38.708 171.775,38.708C171.848,39.348 171.913,39.923 171.996,40.658C172.486,40.508 172.903,40.37 173.327,40.253C176.147,39.478 178.932,38.522 181.796,37.978C186.513,37.082 190.867,38.385 194.924,40.788C195.883,41.356 196.778,42.033 197.764,42.701C199.496,42.014 201.229,41.196 203.042,40.634C206.24,39.643 209.436,38.459 212.724,37.979C219.659,36.967 225.697,39.123 230.503,44.279C234.411,48.474 236.156,53.613 236.189,59.263C236.268,72.64 236.216,86.018 236.21,99.395C236.21,99.814 236.144,100.233 236.105,100.706Z" style="fill:rgb(64,106,179);fill-rule:nonzero;"/>
        </g>
        <g transform="matrix(1.00175,0,0,1.00571,-27.2407,-16.3197)">
            <path d="M99.2,32.683C94.388,33.428 89.588,34.17 84.761,34.917C84.312,34.351 83.935,33.767 83.454,33.289C81.926,31.771 79.945,31.252 77.901,30.977C76.698,30.816 75.473,30.758 74.257,30.754C67.465,30.734 60.674,30.734 53.882,30.751C51.816,30.756 49.819,31.158 47.958,32.087C45.191,33.467 43.915,35.823 43.591,38.805C43.053,43.756 45.174,47.247 49.442,49.602C53.009,51.571 56.917,52.48 60.842,53.36C64.421,54.163 67.917,55.203 71.091,57.116C76.857,60.592 79.828,65.824 80.57,72.386C81.196,77.924 80.761,83.369 78.626,88.583C75.634,95.889 70.124,100.199 62.392,101.255C58.046,101.85 53.587,101.731 49.18,101.725C44.338,101.718 39.496,101.492 34.656,101.318C32.419,101.238 30.186,101.061 27.952,100.918C27.73,100.904 27.513,100.82 27.193,100.745C27.193,95.915 27.193,91.104 27.193,86.177C28.564,86.259 29.838,86.335 31.111,86.411C35.649,86.682 40.183,87.044 44.725,87.196C48.439,87.32 52.167,87.291 55.88,87.135C57.43,87.07 59.013,86.65 60.487,86.127C63.512,85.053 65.258,82.766 65.746,79.635C65.97,78.192 65.924,76.686 65.83,75.22C65.669,72.716 64.192,71.077 62.057,69.925C59.611,68.606 56.906,68.151 54.248,67.526C49.548,66.421 44.997,64.906 40.798,62.474C34.008,58.541 29.334,53.018 28.558,44.981C27.759,36.701 29.411,29.022 35.451,22.829C38.918,19.274 43.299,17.452 48.163,16.812C50.212,16.543 52.297,16.456 54.367,16.444C61.488,16.401 68.613,16.293 75.73,16.466C82.618,16.634 88.869,18.772 94.053,23.493C96.412,25.642 98.092,28.256 99.019,31.328C99.105,31.61 99.173,31.899 99.228,32.189C99.251,32.309 99.217,32.439 99.2,32.683Z" style="fill:rgb(64,106,179);fill-rule:nonzero;"/>
        </g>
        <g transform="matrix(1.00175,0,0,1.00571,-27.2407,-16.3197)">
            <path d="M296.076,16.227C300.871,16.227 305.571,16.227 310.416,16.227C310.416,30.745 310.416,45.22 310.416,59.831C311.088,59.873 311.625,59.906 312.232,59.943C313.479,58.526 314.72,57.124 315.954,55.715C320.708,50.287 325.466,44.86 330.206,39.419C330.67,38.885 331.148,38.589 331.886,38.592C337.293,38.615 342.7,38.603 348.107,38.608C348.426,38.608 348.745,38.662 349.391,38.721C341.121,48.456 333.019,57.992 324.875,67.577C332.6,78.597 340.269,89.538 348.063,100.657C342.11,100.657 336.375,100.657 330.465,100.657C324.341,92.02 318.133,83.264 311.933,74.518C311.459,74.518 311.046,74.518 310.484,74.518C310.484,83.255 310.484,91.93 310.484,100.686C305.611,100.686 300.886,100.686 296.076,100.686C296.076,72.526 296.076,44.41 296.076,16.227Z" style="fill:rgb(64,106,179);fill-rule:nonzero;"/>
        </g>
        <g transform="matrix(1.00175,0,0,1.00571,-27.2407,-16.3197)">
            <path d="M125.675,86.553C134.683,86.553 143.467,86.553 152.379,86.553C152.379,91.305 152.379,95.95 152.379,100.682C136.692,100.682 121.03,100.682 105.331,100.682C105.283,100.444 105.212,100.256 105.211,100.068C105.203,97.037 105.183,94.006 105.225,90.976C105.231,90.56 105.485,90.099 105.742,89.742C114.382,77.736 123.036,65.74 131.687,53.742C131.891,53.458 132.081,53.163 132.391,52.706C123.265,52.706 114.322,52.706 105.289,52.706C105.289,47.997 105.289,43.409 105.289,38.712C120.982,38.712 136.619,38.712 152.372,38.712C152.417,39.128 152.499,39.538 152.501,39.949C152.513,42.65 152.554,45.353 152.475,48.052C152.454,48.753 152.191,49.552 151.783,50.122C143.309,61.963 134.798,73.778 126.296,85.599C126.126,85.835 125.978,86.087 125.675,86.553Z" style="fill:rgb(64,106,179);fill-rule:nonzero;"/>
        </g>
        <g transform="matrix(1.00175,0,0,1.00571,-27.2407,-16.3197)">
            <rect x="85.152" y="38.71" width="14.563" height="61.953" style="fill:rgb(64,106,179);fill-rule:nonzero;"/>
        </g>
        <g transform="matrix(1.00175,0,0,1.00571,-27.2407,-16.3197)">
            <path d="M338.202,16.297L343.079,16.297L343.079,17.611L341.443,17.611L341.443,21.616L339.838,21.616L339.838,17.611L338.202,17.611L338.202,16.297Z" style="fill:rgb(64,106,179);fill-rule:nonzero;"/>
        </g>
        <g transform="matrix(1.00175,0,0,1.00571,-27.2407,-16.3197)">
            <path d="M343.788,16.297L345.898,16.297L346.711,19.533L347.519,16.297L349.628,16.297L349.628,21.616L348.314,21.616L348.314,17.56L347.302,21.616L346.112,21.616L345.102,17.56L345.102,21.616L343.788,21.616L343.788,16.297Z" style="fill:rgb(64,106,179);fill-rule:nonzero;"/>
        </g>
    </g>
</svg>
