<?xml version="1.0" encoding="UTF-8"?>
<svg xmlns="http://www.w3.org/2000/svg" xmlns:xlink="http://www.w3.org/1999/xlink" width="20pt" height="20pt" viewBox="0 0 20 20" version="1.1">
<g id="surface4304538">
<path style=" stroke:none;fill-rule:nonzero;fill:rgb(12.941176%,60.784314%,61.176471%);fill-opacity:1;" d="M 18.863281 8.488281 L 16.5 8.101562 C 16.363281 7.628906 16.171875 7.171875 15.9375 6.738281 L 17.316406 4.773438 C 17.425781 4.613281 17.40625 4.398438 17.269531 4.261719 L 15.714844 2.707031 C 15.578125 2.566406 15.359375 2.550781 15.199219 2.664062 L 13.261719 4.054688 C 12.824219 3.816406 12.367188 3.625 11.890625 3.484375 L 11.476562 1.132812 C 11.441406 0.941406 11.277344 0.800781 11.082031 0.800781 L 8.882812 0.800781 C 8.6875 0.800781 8.519531 0.941406 8.488281 1.136719 L 8.105469 3.476562 C 7.625 3.613281 7.164062 3.804688 6.730469 4.042969 L 4.796875 2.660156 C 4.640625 2.546875 4.421875 2.566406 4.28125 2.703125 L 2.726562 4.257812 C 2.589844 4.394531 2.570312 4.613281 2.683594 4.769531 L 4.042969 6.714844 C 3.800781 7.15625 3.609375 7.617188 3.46875 8.101562 L 1.136719 8.488281 C 0.941406 8.519531 0.800781 8.6875 0.800781 8.882812 L 0.800781 11.082031 C 0.800781 11.277344 0.941406 11.441406 1.128906 11.476562 L 3.464844 11.890625 C 3.601562 12.371094 3.796875 12.835938 4.039062 13.273438 L 2.660156 15.199219 C 2.546875 15.359375 2.566406 15.578125 2.703125 15.714844 L 4.257812 17.273438 C 4.398438 17.410156 4.613281 17.429688 4.773438 17.316406 L 6.71875 15.953125 C 7.15625 16.191406 7.621094 16.382812 8.097656 16.523438 L 8.488281 18.867188 C 8.519531 19.058594 8.6875 19.199219 8.882812 19.199219 L 11.082031 19.199219 C 11.277344 19.199219 11.441406 19.0625 11.476562 18.871094 L 11.894531 16.515625 C 12.375 16.371094 12.832031 16.179688 13.265625 15.941406 L 15.226562 17.316406 C 15.386719 17.429688 15.601562 17.410156 15.742188 17.273438 L 17.296875 15.714844 C 17.433594 15.578125 17.453125 15.359375 17.335938 15.199219 L 15.9375 13.257812 C 16.175781 12.824219 16.363281 12.367188 16.5 11.894531 L 18.867188 11.476562 C 19.058594 11.445312 19.199219 11.277344 19.199219 11.082031 L 19.199219 8.882812 C 19.199219 8.6875 19.058594 8.519531 18.863281 8.488281 Z M 10 12.800781 C 8.453125 12.800781 7.199219 11.546875 7.199219 10 C 7.199219 8.453125 8.453125 7.199219 10 7.199219 C 11.546875 7.199219 12.800781 8.453125 12.800781 10 C 12.800781 11.546875 11.546875 12.800781 10 12.800781 Z M 10 12.800781 "/>
</g>
</svg>
