<?xml version="1.0" encoding="UTF-8" standalone="no"?>
<svg
   xmlns:dc="http://purl.org/dc/elements/1.1/"
   xmlns:cc="http://creativecommons.org/ns#"
   xmlns:rdf="http://www.w3.org/1999/02/22-rdf-syntax-ns#"
   xmlns:svg="http://www.w3.org/2000/svg"
   xmlns="http://www.w3.org/2000/svg"
   xmlns:sodipodi="http://sodipodi.sourceforge.net/DTD/sodipodi-0.dtd"
   xmlns:inkscape="http://www.inkscape.org/namespaces/inkscape"
   width="141.73772"
   height="41.563549"
   viewBox="0 0 141.73772 41.56355"
   version="1.1"
   id="svg14"
   sodipodi:docname="Tik Tok.svg"
   inkscape:version="0.92.4 (5da689c313, 2019-01-14)">
  <metadata
     id="metadata20">
    <rdf:RDF>
      <cc:Work
         rdf:about="">
        <dc:format>image/svg+xml</dc:format>
        <dc:type
           rdf:resource="http://purl.org/dc/dcmitype/StillImage" />
        <dc:title></dc:title>
      </cc:Work>
    </rdf:RDF>
  </metadata>
  <defs
     id="defs18" />
  <sodipodi:namedview
     pagecolor="#ffffff"
     bordercolor="#666666"
     borderopacity="1"
     objecttolerance="10"
     gridtolerance="10"
     guidetolerance="10"
     inkscape:pageopacity="0"
     inkscape:pageshadow="2"
     inkscape:window-width="1920"
     inkscape:window-height="1001"
     id="namedview16"
     showgrid="false"
     fit-margin-top="0"
     fit-margin-left="0"
     fit-margin-right="0"
     fit-margin-bottom="0"
     inkscape:pagecheckerboard="true"
     inkscape:zoom="4.9166667"
     inkscape:cx="101.06838"
     inkscape:cy="23.674038"
     inkscape:window-x="-9"
     inkscape:window-y="-9"
     inkscape:window-maximized="1"
     inkscape:current-layer="svg14" />
  <g
     id="g63"
     transform="translate(-3.1439993,-27.665709)">
    <g
       transform="matrix(0.95193871,0,0,0.95193871,-1.6156942,26.790877)"
       style="fill:none;fill-rule:evenodd"
       id="g12">
      <path
         style="fill:#00f2ea"
         inkscape:connector-curvature="0"
         id="path2"
         d="m 20.023,18.111 v -1.703 a 13.17,13.17 0 0 0 -1.784,-0.13 C 10.939,16.278 5,22.218 5,29.518 5,33.996 7.238,37.96 10.652,40.357 A 13.187,13.187 0 0 1 7.097,31.343 c 0,-7.196 5.77,-13.064 12.926,-13.232" />
      <path
         style="fill:#00f2ea"
         inkscape:connector-curvature="0"
         id="path4"
         d="m 20.335,37.389 c 3.257,0 5.914,-2.591 6.035,-5.82 L 26.381,2.744 h 5.266 a 9.999,9.999 0 0 1 -0.17,-1.825 h -7.192 l -0.012,28.826 c -0.12,3.228 -2.778,5.818 -6.034,5.818 a 6.006,6.006 0 0 1 -2.805,-0.694 6.037,6.037 0 0 0 4.901,2.52 M 41.484,12.528 v -1.602 a 9.943,9.943 0 0 1 -5.449,-1.62 10.011,10.011 0 0 0 5.45,3.222" />
      <path
         style="fill:#ff004f"
         inkscape:connector-curvature="0"
         id="path6"
         d="m 36.035,9.305 a 9.962,9.962 0 0 1 -2.461,-6.56 h -1.927 a 10.025,10.025 0 0 0 4.388,6.56 M 18.239,23.471 a 6.053,6.053 0 0 0 -6.046,6.046 6.05,6.05 0 0 0 3.24,5.352 6.007,6.007 0 0 1 -1.144,-3.526 6.053,6.053 0 0 1 6.046,-6.047 c 0.623,0 1.22,0.103 1.784,0.28 v -7.343 a 13.17,13.17 0 0 0 -1.784,-0.13 c -0.105,0 -0.208,0.006 -0.312,0.008 v 5.64 a 5.944,5.944 0 0 0 -1.784,-0.28" />
      <path
         style="fill:#ff004f"
         inkscape:connector-curvature="0"
         id="path8"
         d="m 41.484,12.528 v 5.59 c -3.73,0 -7.185,-1.193 -10.007,-3.218 v 14.617 c 0,7.3 -5.938,13.239 -13.238,13.239 -2.821,0 -5.437,-0.89 -7.587,-2.4 a 13.201,13.201 0 0 0 9.683,4.225 c 7.3,0 13.239,-5.939 13.239,-13.238 V 16.726 a 17.107,17.107 0 0 0 10.007,3.218 V 12.75 c -0.72,0 -1.42,-0.078 -2.097,-0.223" />
      <path
         style="fill:#000000;fill-opacity:1"
         inkscape:connector-curvature="0"
         id="path10"
         d="M 31.477,29.517 V 14.9 a 17.103,17.103 0 0 0 10.007,3.218 v -5.59 A 10.011,10.011 0 0 1 36.035,9.305 10.025,10.025 0 0 1 31.647,2.745 H 26.381 L 26.37,31.57 c -0.121,3.228 -2.778,5.819 -6.035,5.819 a 6.038,6.038 0 0 1 -4.901,-2.52 6.05,6.05 0 0 1 -3.241,-5.352 6.053,6.053 0 0 1 6.046,-6.046 c 0.622,0 1.219,0.102 1.784,0.28 v -5.64 c -7.156,0.168 -12.926,6.036 -12.926,13.232 0,3.48 1.352,6.648 3.555,9.014 a 13.16,13.16 0 0 0 7.587,2.399 c 7.3,0 13.238,-5.939 13.238,-13.239" />
    </g>
    <g
       transform="matrix(0.94721445,0,0,0.94721445,43.02869,25.766601)"
       style="fill:none;fill-rule:evenodd"
       id="g28">
      <path
         style="fill:#000000;fill-opacity:1"
         inkscape:connector-curvature="0"
         d="m 4.329,14.785 h 17.285 l -1.587,4.945 -4.484,-0.001 0.01,17.247 -0.001,1.033 H 9.955 V 19.73 H 4.988 L 4.333,19.74 4.329,14.786 Z m 45.602,0 h 17.685 l -1.587,4.945 -4.884,-0.001 0.01,17.247 -10e-4,1.045 H 55.557 V 19.73 H 50.59 l -0.655,0.01 -0.004,-4.954 z m -27.262,7.893 v -0.505 h 5.542 l 0.002,0.505 0.008,13.874 -0.016,1.458 h -5.503 v -0.79 z m 7.74,-6.863 V 14.72 h 5.479 v 0.951 l 0.006,9.866 5.535,-5.384 h 6.609 l -6.94,6.735 7.773,11.121 h -6.1 l -5.187,-7.711 -1.644,1.595 0.003,6.128 -5.514,-0.012 V 37.514 L 30.407,15.815 Z m 58.656,0 V 14.72 h 5.481 v 0.951 l 0.006,9.866 5.535,-5.384 h 6.609 l -6.94,6.735 7.773,11.121 h -6.1 l -5.187,-7.711 -1.644,1.595 0.003,6.128 -5.514,-0.012 V 37.514 Z M 80.748,29.76 c 0.11,-0.395 0.164,-0.806 0.164,-1.236 0,-0.649 -0.121,-1.251 -0.362,-1.81 a 4.543,4.543 0 0 0 -2.442,-2.429 4.527,4.527 0 0 0 -1.587,-0.348 l 0.048,-0.002 -0.135,-0.003 -0.054,0.001 -0.064,-0.001 a 4.864,4.864 0 0 0 -1.238,0.161 4.642,4.642 0 0 0 -1.104,0.455 4.42,4.42 0 0 0 -0.929,0.71 4.574,4.574 0 0 0 -0.715,0.924 4.605,4.605 0 0 0 -0.627,2.342 4.655,4.655 0 0 0 0.63,2.338 c 0.199,0.341 0.437,0.65 0.716,0.928 a 4.511,4.511 0 0 0 2.515,1.272 c 0.246,0.04 0.498,0.061 0.757,0.061 l 0.054,-10e-4 0.064,10e-4 c 0.04,0 0.077,-0.002 0.117,-0.003 l -0.058,-0.002 a 4.529,4.529 0 0 0 3.073,-1.328 4.536,4.536 0 0 0 1.177,-2.03 z m 4.294,-4.965 c 0.496,1.148 0.744,2.39 0.745,3.725 0,0.884 -0.112,1.733 -0.338,2.544 a 9.596,9.596 0 0 1 -0.952,2.27 9.332,9.332 0 0 1 -3.383,3.38 9.46,9.46 0 0 1 -3.015,1.115 l -0.182,0.032 a 10.241,10.241 0 0 1 -0.848,0.101 c -0.185,0.014 -0.371,0.02 -0.56,0.024 -0.058,0.001 -0.115,0.004 -0.174,0.004 -0.06,0 -0.12,-0.003 -0.179,-0.004 A 10.497,10.497 0 0 1 75.16,37.921 c -0.046,-0.005 -0.093,-0.012 -0.14,-0.019 a 9.219,9.219 0 0 1 -0.273,-0.039 l -0.162,-0.027 a 9.206,9.206 0 0 1 -0.266,-0.052 l -0.137,-0.029 a 9.413,9.413 0 0 1 -2.67,-1.041 9.338,9.338 0 0 1 -3.388,-3.38 9.572,9.572 0 0 1 -0.954,-2.27 9.429,9.429 0 0 1 -0.341,-2.544 c 0,-0.883 0.112,-1.734 0.338,-2.55 a 9.404,9.404 0 0 1 0.951,-2.27 c 0.41,-0.697 0.9,-1.331 1.472,-1.903 a 9.13,9.13 0 0 1 1.913,-1.463 9.59,9.59 0 0 1 2.806,-1.063 l 0.18,-0.034 a 9.774,9.774 0 0 1 1.609,-0.167 c 0.075,-0.002 0.15,-0.004 0.227,-0.004 0.081,0 0.162,0.003 0.243,0.005 a 9.764,9.764 0 0 1 1.406,0.135 l 0.028,0.004 c 0.274,0.047 0.544,0.106 0.811,0.176 0.023,0.006 0.047,0.011 0.07,0.018 0.06,0.016 0.122,0.035 0.182,0.053 a 7.091,7.091 0 0 1 0.512,0.167 7.441,7.441 0 0 1 0.437,0.17 9.352,9.352 0 0 1 3.005,2.003 9.529,9.529 0 0 1 2.023,2.998 z m -56.81,-7.223 a 2.787,2.787 0 1 1 -5.574,0 2.787,2.787 0 0 1 5.573,0 z"
         id="path22" />
      <path
         style="fill:#ff004f"
         inkscape:connector-curvature="0"
         d="M 86.518,24.795 A 9.528,9.528 0 0 0 84.494,21.797 9.352,9.352 0 0 0 81.49,19.794 9.4,9.4 0 0 0 77.8,19.066 l -0.117,0.002 v -0.001 h -1.207 l 0.092,0.004 a 9.736,9.736 0 0 1 1.406,0.135 c 0.01,0 0.018,0.002 0.028,0.004 0.274,0.047 0.545,0.105 0.811,0.176 0.023,0.006 0.047,0.011 0.07,0.018 0.06,0.016 0.121,0.035 0.182,0.053 a 7.702,7.702 0 0 1 0.512,0.167 l 0.118,0.043 a 9.35,9.35 0 0 1 3.324,2.13 9.529,9.529 0 0 1 2.023,2.998 c 0.496,1.148 0.744,2.39 0.745,3.725 10e-4,0.884 -0.112,1.732 -0.338,2.544 a 9.58,9.58 0 0 1 -0.952,2.27 9.322,9.322 0 0 1 -3.384,3.38 9.46,9.46 0 0 1 -2.638,1.038 l -0.144,0.031 a 9.719,9.719 0 0 1 -1.821,0.203 l -0.007,0.002 h 1.134 l -0.001,-0.002 c 0.058,0.001 0.116,0.004 0.175,0.004 a 9.471,9.471 0 0 0 4.779,-1.276 9.339,9.339 0 0 0 3.383,-3.38 9.59,9.59 0 0 0 0.952,-2.27 c 0.226,-0.812 0.339,-1.66 0.338,-2.544 0,-1.335 -0.25,-2.577 -0.745,-3.725"
         id="path24" />
      <path
         style="fill:#00f2ea"
         inkscape:connector-curvature="0"
         d="m 75.16,37.921 -0.14,-0.019 a 9.588,9.588 0 0 1 -0.7,-0.118 l -0.138,-0.029 a 9.407,9.407 0 0 1 -2.67,-1.041 9.353,9.353 0 0 1 -3.388,-3.38 9.578,9.578 0 0 1 -0.954,-2.27 9.43,9.43 0 0 1 -0.34,-2.544 9.504,9.504 0 0 1 1.288,-4.82 c 0.41,-0.697 0.9,-1.331 1.472,-1.903 a 9.117,9.117 0 0 1 1.913,-1.463 9.596,9.596 0 0 1 4.595,-1.264 l 0.065,-0.003 h -1.18 v 0.001 l -0.122,-0.002 a 9.67,9.67 0 0 0 -4.822,1.268 9.134,9.134 0 0 0 -1.913,1.463 9.41,9.41 0 0 0 -1.471,1.903 9.506,9.506 0 0 0 -1.29,4.82 c 0,0.885 0.114,1.732 0.34,2.544 0.227,0.812 0.545,1.57 0.955,2.27 a 9.343,9.343 0 0 0 5.662,4.324 9.689,9.689 0 0 0 2.701,0.33 h 1.138 L 76.156,37.986 A 10.112,10.112 0 0 1 75.16,37.921"
         id="path26" />
    </g>
  </g>
</svg>
