<?xml version="1.0" encoding="UTF-8" standalone="no"?>
<svg
   xmlns:dc="http://purl.org/dc/elements/1.1/"
   xmlns:cc="http://creativecommons.org/ns#"
   xmlns:rdf="http://www.w3.org/1999/02/22-rdf-syntax-ns#"
   xmlns:svg="http://www.w3.org/2000/svg"
   xmlns="http://www.w3.org/2000/svg"
   xmlns:sodipodi="http://sodipodi.sourceforge.net/DTD/sodipodi-0.dtd"
   xmlns:inkscape="http://www.inkscape.org/namespaces/inkscape"
   width="80"
   height="55"
   version="1.1"
   id="svg6"
   sodipodi:docname="txgb.svg"
   style="fill:none"
   inkscape:version="0.92.4 5da689c313, 2019-01-14">
  <metadata
     id="metadata12">
    <rdf:RDF>
      <cc:Work
         rdf:about="">
        <dc:format>image/svg+xml</dc:format>
        <dc:type
           rdf:resource="http://purl.org/dc/dcmitype/StillImage" />
        <dc:title></dc:title>
      </cc:Work>
    </rdf:RDF>
  </metadata>
  <defs
     id="defs10" />
  <sodipodi:namedview
     pagecolor="#ffffff"
     bordercolor="#666666"
     borderopacity="1"
     objecttolerance="10"
     gridtolerance="10"
     guidetolerance="10"
     inkscape:pageopacity="0"
     inkscape:pageshadow="2"
     inkscape:window-width="1920"
     inkscape:window-height="1029"
     id="namedview8"
     showgrid="false"
     inkscape:zoom="4.2909091"
     inkscape:cx="25.5"
     inkscape:cy="27.5"
     inkscape:window-x="0"
     inkscape:window-y="0"
     inkscape:window-maximized="1"
     inkscape:current-layer="svg6" />
  <path
     d="m 64.955,46.748 c -0.17,-1.618 -0.847,-2.938 -2.16,-3.917 -0.593,-0.426 -1.228,-0.766 -1.821,-1.15 0.042,0 0.085,-0.085 0.17,-0.127 a 5.75,5.75 0 0 0 2.244,-2.47 c 0.55,-1.192 0.636,-2.469 0.424,-3.746 -0.297,-1.916 -1.186,-3.406 -2.838,-4.428 -1.44,-0.894 -3.007,-1.235 -4.66,-1.235 -4.193,-0.042 -8.344,0 -12.537,0 H 43.565 V 54.54 h 13.427 c 0.932,0 1.864,-0.085 2.754,-0.34 1.651,-0.469 3.091,-1.32 4.066,-2.768 1.016,-1.447 1.313,-3.023 1.143,-4.683 z M 49.92,35.466 h 5.421 c 0.212,0 0.466,0 0.678,0.042 0.847,0.128 1.398,0.766 1.483,1.618 v 0.724 c -0.17,0.894 -0.763,1.405 -1.78,1.49 -0.254,0.042 -0.55,0.042 -0.804,0.042 H 50.004 C 49.92,38.105 49.92,36.785 49.92,35.466 Z m 8.556,11.878 c -0.212,0.894 -0.974,1.362 -2.033,1.362 H 49.92 v -4.385 h 6.184 c 0.254,0 0.55,0 0.805,0.043 1.1,0.213 1.61,0.766 1.694,1.873 0,0.426 -0.042,0.767 -0.127,1.107 z M 27.808,45.3 h 5.973 c 0,0.341 0.042,0.682 -0.17,0.98 -1.567,1.958 -3.6,2.81 -6.057,2.47 -3.685,-0.512 -6.226,-3.875 -5.676,-7.622 0.72,-5.109 6.312,-7.365 10.378,-4.726 0.593,0.383 1.101,0.894 1.652,1.363 1.652,-1.107 3.388,-2.3 5.082,-3.449 A 12.838,12.838 0 0 0 37.212,32.4 c -3.304,-2.767 -7.032,-3.832 -11.267,-3.023 -3.177,0.596 -5.76,2.214 -7.752,4.769 -2.499,3.15 -3.388,6.684 -2.541,10.559 0.974,4.513 3.77,7.578 7.963,9.324 2.245,0.936 4.575,1.234 6.989,0.723 1.652,-0.34 3.05,-1.064 4.066,-2.469 h 0.085 v 2.214 h 4.956 V 40.02 H 27.807 V 45.3 Z M 14,6.259 h 7.794 v 18.903 h 6.438 V 6.216 h 7.794 V 0 H 14 Z"
     id="path2"
     inkscape:connector-curvature="0"
     style="fill:#262459" />
  <path
     d="m 59.703,17.456 -5.125,-5.152 4.955,-4.981 v 3.065 h 4.194 V 0.085 H 53.519 v 4.258 h 3.05 l -4.956,4.98 -4.956,-4.98 h 3.05 V 0.085 h -10.25 v 10.303 h 4.235 V 7.323 l 4.956,4.981 -5.126,5.152 V 14.39 h -4.235 v 10.261 h 10.25 v -4.215 h -3.092 l 5.168,-5.152 5.125,5.152 h -3.05 v 4.215 h 10.208 v -10.26 h -4.193 z"
     id="path4"
     inkscape:connector-curvature="0"
     style="fill:#e20714" />
</svg>
