<svg id="Layer_1" data-name="Layer 1" xmlns="http://www.w3.org/2000/svg" viewBox="0 0 432 105.16"><defs><style>.cls-1{fill:#26d07c;}</style></defs><title>invoca_logo_rgb_large</title><path d="M74.58,48.75A7.19,7.19,0,0,0,67.46,55V82.86L39.77,48.75h-12v55.42h5.66a7.21,7.21,0,0,0,7.19-7V68.94l28.61,35.23H80.3V48.75Z"/><path d="M151.4,76.62v-.15c0-15.77,13.25-28.66,31.5-28.66s31.32,12.74,31.32,28.49v.17c0,15.75-13.26,28.65-31.5,28.65S151.4,92.37,151.4,76.62Zm49.23,0v-.15C200.63,67,193.19,59,182.72,59S165,66.8,165,76.3v.17c0,9.48,7.43,17.4,17.9,17.4S200.63,86.13,200.63,76.62Z"/><path d="M320.36,48.35h-12L283,104.17h8.53a7.21,7.21,0,0,0,6.63-4.4l3.5-8h25l3.54,8.15a7.21,7.21,0,0,0,6.59,4.3h8.86ZM306.35,81l7.85-18,7.85,18Z"/><path d="M133.05,52.87a6.69,6.69,0,0,1,6.16-4.12h9.48l-23.9,55.81H113.32L89.41,48.75h9.85a6.65,6.65,0,0,1,6.13,4.08l13.83,35Z"/><path d="M13,97V48.75H0v55.42H5.81A7.22,7.22,0,0,0,13,97Z"/><path d="M331,55.66v0a4.39,4.39,0,1,1,8.78,0v0a4.39,4.39,0,1,1-8.78,0Zm8.13,0v0a3.7,3.7,0,0,0-3.74-3.77,3.75,3.75,0,0,0-3.74,3.79v0a3.74,3.74,0,1,0,7.48,0Zm-5.37-2.29h2c.92,0,1.64.47,1.64,1.36A1.35,1.35,0,0,1,336.28,56l1.24,1.71h-.88l-1.11-1.61h-1.06v1.61h-.7Zm1.88,2.22c.63,0,1-.33,1-.82s-.38-.77-1-.77h-1.18v1.59Z"/><path d="M271.83,90.92a5,5,0,0,0-3.61-1.55,4.81,4.81,0,0,0-2.74.83h0a20.67,20.67,0,0,1-11.79,3.71,16.93,16.93,0,0,1-17.16-17.28v-.15c0-9.51,7-17.43,17.16-17.43A19.93,19.93,0,0,1,265.92,63a5,5,0,0,0,3,1,4.93,4.93,0,0,0,3.61-1.55h0l5-4.72c-6.09-6.09-12.84-9.9-24.26-9.9-17.41,0-30.34,12.6-30.34,28.53v.15c0,15.76,12.68,28.68,30.86,28.68,11.15,0,17.83-3.47,23.32-8.56l-5.27-5.69Z"/><path class="cls-1" d="M404.79,0H375.52a27.24,27.24,0,0,0-27.21,27.21v14A27.18,27.18,0,0,0,362.3,65L349.08,78.63l35.81-10.16h19.9A27.25,27.25,0,0,0,432,41.26v-14A27.24,27.24,0,0,0,404.79,0Zm10.88,41.26a10.92,10.92,0,0,1-9.81,10.83l.76,8.83-14.13-8.77h-17a10.91,10.91,0,0,1-10.88-10.89v-14a10.91,10.91,0,0,1,10.88-10.89h29.27a10.91,10.91,0,0,1,10.88,10.89Z"/></svg>