<?xml version="1.0" encoding="utf-8"?>
<!-- Generator: Adobe Illustrator 13.0.0, SVG Export Plug-In . SVG Version: 6.00 Build 14948)  -->
<!DOCTYPE svg PUBLIC "-//W3C//DTD SVG 1.1//EN" "http://www.w3.org/Graphics/SVG/1.1/DTD/svg11.dtd">
<svg version="1.1" id="Layer_1" xmlns="http://www.w3.org/2000/svg" xmlns:xlink="http://www.w3.org/1999/xlink" x="0px" y="0px"
	 width="138px" height="21px" viewBox="0 0 138 21" enable-background="new 0 0 138 21" xml:space="preserve">
<g>
	<path fill="#000000" d="M134.722,9.497h2.475c-0.467-0.903-1.104-1.706-1.973-2.407c-1.839-1.605-4.045-2.407-6.652-2.407
		c-2.61,0-4.816,0.802-6.688,2.407c-1.07,0.936-1.806,1.974-2.274,3.143c-0.3,0.802-0.469,1.672-0.469,2.608
		c0,0.067,0,0.134,0,0.168c0,0.268,0.034,0.503,0.034,0.734c0.234,1.874,1.136,3.478,2.709,4.883
		c0.132,0.102,0.267,0.201,0.401,0.301c1.772,1.404,3.879,2.073,6.287,2.073c2.438,0,4.514-0.669,6.285-2.073
		c0.134-0.1,0.268-0.199,0.367-0.301c1.605-1.405,2.509-3.009,2.743-4.883C138,13.442,138,13.143,138,12.841s0-0.636-0.033-0.936
		h-2.106c0.067,0.3,0.1,0.602,0.1,0.936c0,0.302-0.032,0.637-0.1,0.937c-0.234,1.271-0.937,2.374-2.073,3.345
		c-1.438,1.169-3.177,1.772-5.216,1.772c-2.007,0-3.746-0.604-5.184-1.772c-1.172-0.971-1.873-2.073-2.107-3.345
		c-0.033-0.3-0.066-0.635-0.066-0.937c0-1.671,0.701-3.109,2.174-4.313c1.438-1.17,3.177-1.772,5.184-1.739
		c2.039-0.033,3.777,0.569,5.216,1.739C134.12,8.829,134.456,9.163,134.722,9.497z"/>
	<path fill="#000000" d="M81.422,7.09c-1.839,1.571-2.742,3.511-2.742,5.751c0,0.302,0,0.602,0.068,0.902
		c0.2,1.874,1.103,3.478,2.674,4.883c0.134,0.102,0.269,0.201,0.401,0.301C83.597,20.331,85.701,21,88.11,21
		c2.406,0,4.513-0.669,6.253-2.073c0.134-0.1,0.267-0.199,0.401-0.301c0.601-0.569,1.168-1.138,1.571-1.772l-1.839-0.935
		c-0.336,0.399-0.735,0.801-1.205,1.203c-1.438,1.169-3.142,1.772-5.182,1.772s-3.779-0.604-5.184-1.772
		c-1.171-0.971-1.871-2.073-2.107-3.345c-0.066-0.3-0.099-0.635-0.066-0.937c0-1.671,0.703-3.109,2.174-4.313
		c1.404-1.17,3.144-1.772,5.184-1.739c2.04-0.033,3.743,0.569,5.182,1.739c0.368,0.301,0.669,0.635,0.937,0.936l1.873-0.968
		c-0.402-0.502-0.804-0.971-1.337-1.405c-1.841-1.605-4.081-2.407-6.654-2.407C85.501,4.683,83.295,5.485,81.422,7.09z"/>
	<path fill="#000000" d="M69.141,13.676l0.034-0.835c0-2.24-0.902-4.18-2.775-5.786c-1.84-1.57-4.046-2.374-6.654-2.374
		c-2.575,0-4.815,0.803-6.654,2.374c-0.201,0.167-0.402,0.335-0.602,0.536l-0.067,0.033l-0.067-0.033l-0.033-0.067V0h-2.007v12.907
		h2.142c0-0.534,0.033-1.036,0.132-1.571c0.301-1.07,0.97-2.005,1.974-2.81C56,7.324,57.739,6.756,59.746,6.756
		c2.04,0,3.779,0.568,5.216,1.771c1.438,1.172,2.174,2.609,2.174,4.28c0,0.302-0.034,0.568-0.101,0.903
		c-0.201,1.304-0.903,2.441-2.073,3.377c-1.438,1.205-3.177,1.772-5.216,1.772s-3.779-0.567-5.183-1.772
		c-0.703-0.568-1.238-1.203-1.572-1.839h-2.675v5.284h2.007v-2.408l0.033-0.067l0.067-0.033l0.067,0.033l0.902,0.803
		C55.198,20.297,57.305,21,59.746,21c2.475,0,4.581-0.703,6.353-2.141l0.301-0.268C68.004,17.188,68.942,15.55,69.141,13.676z"/>
	<path fill="#000000" d="M100.449,13.777c-0.033-0.3-0.066-0.635-0.066-0.937c0-1.671,0.701-3.109,2.172-4.313
		c1.404-1.17,3.145-1.772,5.184-1.739c2.039-0.033,3.777,0.569,5.215,1.739c0.303,0.267,0.604,0.536,0.838,0.835
		c0.365,0.403,0.666,0.87,0.867,1.338c0,0.034,0,0.034,0,0.067c0,0.033,0,0.066-0.031,0.066c0,0.034-0.035,0.034-0.068,0.034
		h-10.801v2.072h13.41c0-0.033,0-0.067,0-0.101c0-1.204-0.268-2.34-0.803-3.344c-0.469-0.868-1.104-1.671-1.973-2.407
		c-1.84-1.605-4.045-2.407-6.654-2.407s-4.816,0.802-6.688,2.407c-1.807,1.571-2.742,3.511-2.742,5.751c0,0.302,0,0.602,0.068,0.902
		c0.199,1.874,1.102,3.478,2.674,4.883c0.1,0.102,0.266,0.201,0.4,0.301c1.771,1.404,3.881,2.073,6.287,2.073
		c2.439,0,4.514-0.669,6.285-2.073c0.133-0.1,0.268-0.199,0.369-0.301c0.635-0.569,1.17-1.138,1.604-1.772l-1.873-0.935
		c-0.332,0.399-0.699,0.801-1.17,1.203c-1.438,1.169-3.176,1.772-5.215,1.772s-3.779-0.604-5.184-1.772
		C101.385,16.151,100.648,15.049,100.449,13.777z"/>
	<path fill="#000000" d="M29.393,13.743c0.202,1.874,1.104,3.478,2.676,4.883c0.133,0.102,0.267,0.201,0.401,0.301
		C34.242,20.331,36.348,21,38.756,21c2.441,0,4.514-0.669,6.253-2.073c0.134-0.1,0.268-0.199,0.401-0.301
		c0.602-0.569,1.17-1.138,1.572-1.772l-1.839-0.935c-0.334,0.399-0.736,0.801-1.17,1.203c-1.438,1.169-3.177,1.772-5.217,1.772
		s-3.779-0.604-5.183-1.772c-1.171-0.971-1.873-2.073-2.107-3.345c-0.067-0.3-0.101-0.635-0.067-0.937
		c0-1.671,0.702-3.109,2.174-4.313c1.403-1.17,3.143-1.772,5.183-1.739c2.04-0.033,3.778,0.569,5.217,1.739
		c0.3,0.267,0.602,0.536,0.835,0.835c0.368,0.403,0.669,0.87,0.869,1.338c0,0.034,0,0.034,0,0.067c0,0.033-0.033,0.066-0.033,0.066
		c-0.033,0.034-0.033,0.034-0.067,0.034h-10.8v2.072h13.409c0-0.033,0-0.067,0-0.101c0-1.204-0.268-2.34-0.837-3.344
		c-0.434-0.868-1.103-1.671-1.939-2.407c-1.838-1.605-4.046-2.407-6.654-2.407c-2.609,0-4.815,0.802-6.688,2.407
		c-1.84,1.571-2.742,3.511-2.742,5.751C29.326,13.143,29.326,13.442,29.393,13.743z"/>
	<g>
		<path fill="#F48020" d="M32.468,0H30.06l-2.072,3.544h2.407L32.468,0z"/>
		<path fill="#000000" d="M20.631,15.749L14.712,5.552L8.661,16.084l-0.033-0.032l-0.234-0.402l-1.338-2.307
			c-0.033,0-0.033-0.033-0.033-0.067L2.407,5.317H0l8.661,14.912l6.019-10.466l6.118,10.466l8.628-14.912h-2.408l-6.22,10.767
			l-0.167-0.3V15.749z"/>
		<path opacity="0.15" fill="#000000" d="M19.695,13.275l1.102,1.905l5.718-9.863H24.31L19.695,13.275z"/>
		<path opacity="0.15" fill="#000000" d="M7.49,13.241l1.17,1.939l5.65-9.831h-2.207L7.49,13.241z"/>
	</g>
</g>
</svg>
