<?xml version="1.0" encoding="UTF-8" standalone="no"?>
<svg
   xmlns:dc="http://purl.org/dc/elements/1.1/"
   xmlns:cc="http://creativecommons.org/ns#"
   xmlns:rdf="http://www.w3.org/1999/02/22-rdf-syntax-ns#"
   xmlns:svg="http://www.w3.org/2000/svg"
   xmlns="http://www.w3.org/2000/svg"
   xmlns:sodipodi="http://sodipodi.sourceforge.net/DTD/sodipodi-0.dtd"
   xmlns:inkscape="http://www.inkscape.org/namespaces/inkscape"
   viewBox="0 0 107 43"
   id="svg2"
   version="1.1"
   inkscape:version="0.91 r13725"
   sodipodi:docname="yandex.svg">
  <metadata
     id="metadata12">
    <rdf:RDF>
      <cc:Work
         rdf:about="">
        <dc:format>image/svg+xml</dc:format>
        <dc:type
           rdf:resource="http://purl.org/dc/dcmitype/StillImage" />
      </cc:Work>
    </rdf:RDF>
  </metadata>
  <defs
     id="defs10" />
  <sodipodi:namedview
     pagecolor="#ffffff"
     bordercolor="#666666"
     borderopacity="1"
     objecttolerance="10"
     gridtolerance="10"
     guidetolerance="10"
     inkscape:pageopacity="0"
     inkscape:pageshadow="2"
     inkscape:window-width="1920"
     inkscape:window-height="1056"
     id="namedview8"
     showgrid="false"
     inkscape:zoom="2.7850467"
     inkscape:cx="53.5"
     inkscape:cy="21.5"
     inkscape:window-x="0"
     inkscape:window-y="24"
     inkscape:window-maximized="1"
     inkscape:current-layer="svg2" />
  <path
     d="m 33.993435,17.521039 c -1.12437,0 -2.876624,0.429291 -4.048029,0.955639 -0.229204,0.10303 -0.373297,0.192622 -0.373297,0.37479 0,0.104523 0.05226,0.229204 0.111989,0.335967 l 0.789149,1.690287 c 0.08213,0.191128 0.211286,0.233684 0.318796,0.233684 0.114975,0 0.210539,-0.05525 0.315809,-0.122441 1.142287,-0.730168 1.978472,-1.132582 2.641447,-1.132582 0.8765,0 1.470789,0.580103 1.838859,1.455857 0.34194,0.813786 0.474087,1.941142 0.474087,3.240215 l 0,0.382255 c -0.720463,-0.450942 -1.966527,-0.698811 -2.589186,-0.698811 -3.349217,0 -5.155973,3.181981 -5.155973,6.58346 0,3.665773 2.110619,6.358735 4.647543,6.358735 1.412555,0 2.691469,-0.828719 3.547812,-1.875442 0,0 0.455422,1.087786 0.515149,1.216947 0.05973,0.129907 0.122441,0.179182 0.294904,0.179182 l 1.354321,0.0015 c 0.149318,0 0.2628,-0.111989 0.2628,-0.30013 l 0,-10.539658 c 0,-2.588439 -0.130653,-4.564671 -0.813786,-5.911526 -0.85485,-1.68954 -2.381633,-2.427921 -4.132394,-2.427921 z m 2.070303,16.234671 c -0.664468,0.642071 -1.460336,0.978038 -2.174826,0.978038 -0.715237,0 -1.269209,-0.329995 -1.711939,-0.942201 -0.540533,-0.746594 -0.791389,-1.892614 -0.791389,-3.164063 0,-2.009829 0.742114,-4.072666 2.315933,-4.072666 0.77795,0 1.632799,0.255335 2.363714,0.836184 l 0,6.365455 z M 48.62517,17.758456 c -1.817208,0 -3.710568,1.325203 -3.710568,1.325203 l 0,-0.85261 c 0,-0.186648 -0.07466,-0.261307 -0.261308,-0.261307 l -2.318172,0 c -0.186649,0 -0.298638,0.111989 -0.298638,0.261307 l 0,18.169095 c 0,0.186648 0.07466,0.301623 0.261308,0.301623 l 2.356249,0 c 0.147825,0 0.261307,-0.113482 0.261307,-0.301623 l 0,-15.551539 c 0,0 1.092266,-0.694331 2.421202,-0.694331 1.261743,0 2.259938,0.627138 2.259938,1.915011 l 0,14.329366 c 0,0.186648 0.111989,0.30237 0.300131,0.30237 l 2.316679,0 c 0.186648,0 0.261307,-0.150812 0.261307,-0.301624 l 0,-15.143898 c 0,-2.280096 -1.403595,-3.496297 -3.850928,-3.496297 z m 17.783853,-9.1136647 -2.318173,0 c -0.186648,0 -0.298637,0.111989 -0.298637,0.2613076 l 0,9.1666721 c -0.889939,-0.341939 -1.700739,-0.522615 -2.354755,-0.522615 -3.76507,0 -6.34903,3.600073 -6.34903,10.5195 0,5.927951 2.51378,9.108438 5.795058,9.108438 1.38269,0 2.523485,-0.791389 3.35967,-1.535742 l 0.50619,0.858582 c 0.08511,0.145586 0.156784,0.198594 0.327008,0.198594 l 1.333415,0.0015 c 0.149319,0 0.264294,-0.113482 0.264294,-0.300131 l 0,-27.4955376 C 66.671077,8.718704 66.595671,8.6440447 66.408276,8.6440447 Z M 63.792213,34.13498 c -0.57189,0.309836 -1.291606,0.597274 -2.06657,0.597274 -2.47869,0 -3.572449,-2.939338 -3.572449,-7.276298 0,-3.812105 1.11541,-7.588374 3.395506,-7.588374 0.770485,0 1.511852,0.253841 2.243513,0.833198 l 0,13.4342 z m 29.051439,-16.167478 -2.065077,0 c -0.231444,0 -0.349406,0.119455 -0.409134,0.276239 -0.1314,0.343433 -1.004168,2.642941 -1.361786,3.597087 -0.256828,0.680893 -0.943694,2.629501 -0.943694,2.629501 l -0.07839,0 c -0.0045,-0.0075 -0.50619,-1.418527 -0.77795,-2.124058 -0.221738,-0.573383 -1.373732,-3.604552 -1.517078,-3.977849 -0.0769,-0.20158 -0.16425,-0.40092 -0.459155,-0.40092 l -2.266657,0 c -0.246376,0 -0.386735,0.27176 -0.306103,0.441983 0.07914,0.169477 3.683691,8.379017 3.683691,8.379017 0,0 -3.87034,9.192056 -3.982329,9.397369 -0.114228,0.20606 0.02762,0.513657 0.306104,0.513657 l 1.979965,0 c 0.33746,0 0.471847,-0.179183 0.573384,-0.462888 0.283705,-0.797362 0.70777,-1.908293 1.310271,-3.623964 0.395695,-1.134822 1.025073,-3.131212 1.025073,-3.131212 l 0.06943,0 c 0,0 0.690599,2.034466 0.948173,2.697441 0.645804,1.679835 1.476762,3.877059 1.563367,4.108503 0.08959,0.242643 0.220245,0.410626 0.450942,0.410626 l 2.249486,0 c 0.223978,0 0.325514,-0.255334 0.220991,-0.474833 -0.250855,-0.527095 -2.384619,-5.714425 -3.867353,-9.12561 0,0 3.847195,-8.488766 3.921855,-8.699305 0.07317,-0.210539 0.05077,-0.433024 -0.267281,-0.433024 z m -17.391145,-0.37927 c -3.859887,0 -5.76594,5.049957 -5.76594,10.544884 0,5.752502 2.7176,8.975545 6.210163,8.975545 1.537982,0 3.064766,-0.604741 4.068934,-1.160953 0.151558,-0.08735 0.179182,-0.206806 0.143346,-0.355378 l -0.294158,-1.214708 c -0.03509,-0.147825 -0.108256,-0.223977 -0.296398,-0.223977 -0.08063,0 -1.347601,0.371056 -2.580226,0.371056 -2.857959,0 -4.17047,-2.541403 -4.17047,-5.917498 l 0,-0.821253 c 0,0 1.421513,0.197101 2.275616,0.197101 l 5.39563,0 0,-1.558887 c 0,-5.753994 -2.015802,-8.835932 -4.985004,-8.835932 z m -0.185155,8.055742 0,0.0015 c -0.854849,0 -2.40851,0.211286 -2.40851,0.211286 0,0 0.01941,-0.619672 0.09556,-1.213961 0.332981,-3.156596 1.087787,-4.752812 2.386112,-4.752812 1.131089,0 1.905306,1.632799 2.090462,4.492251 0.03733,0.595035 0.03733,1.261743 0.03733,1.261743 l -2.200957,0 z"
     id="path4"
     inkscape:connector-curvature="0" />
  <path
     d="m 30.307504,5.441906 -2.64518,0 c -0.233684,0 -0.380763,0.1142288 -0.413613,0.2814657 -0.0336,0.1679835 -3.96665,12.1590183 -4.252595,13.1587073 -0.201581,0.70777 -0.864555,3.202885 -1.022833,3.803892 L 20.605524,18.950765 C 20.27329,17.922706 17.08683,9.0240607 16.994252,8.6671891 16.941991,8.4730748 16.852399,8.2296854 16.51046,8.2296854 l -2.58172,0 c -0.253842,0 -0.395694,0.2762395 -0.313569,0.447956 0.06495,0.1388663 4.728922,12.5479936 6.613323,17.2881146 l 0,10.422442 c 0,0.190382 0.07615,0.306104 0.266534,0.306104 l 2.44584,0 c 0.150812,0 0.265787,-0.114229 0.265787,-0.306104 l 0,-10.340317 C 24.777487,21.660899 30.51655,6.0541125 30.576277,5.8779165 30.650937,5.665884 30.628539,5.441906 30.306011,5.441906 Z"
     id="path6"
     inkscape:connector-curvature="0"
     style="fill:#ff0000" />
</svg>
