<?xml version="1.0" encoding="UTF-8" standalone="no"?>
<svg
   xmlns:dc="http://purl.org/dc/elements/1.1/"
   xmlns:cc="http://creativecommons.org/ns#"
   xmlns:rdf="http://www.w3.org/1999/02/22-rdf-syntax-ns#"
   xmlns:svg="http://www.w3.org/2000/svg"
   xmlns="http://www.w3.org/2000/svg"
   xmlns:sodipodi="http://sodipodi.sourceforge.net/DTD/sodipodi-0.dtd"
   xmlns:inkscape="http://www.inkscape.org/namespaces/inkscape"
   width="182.57144"
   height="75.673477"
   viewBox="0 0 507.14289 210.2041"
   version="1.1"
   id="svg44"
   sodipodi:docname="mailworxs-white-on-blacksvgg.svg"
   inkscape:version="0.92.4 (5da689c313, 2019-01-14)">
  <metadata
     id="metadata50">
    <rdf:RDF>
      <cc:Work
         rdf:about="">
        <dc:format>image/svg+xml</dc:format>
        <dc:type
           rdf:resource="http://purl.org/dc/dcmitype/StillImage" />
        <dc:title></dc:title>
      </cc:Work>
    </rdf:RDF>
  </metadata>
  <defs
     id="defs48" />
  <sodipodi:namedview
     pagecolor="#ffffff"
     bordercolor="#666666"
     borderopacity="1"
     objecttolerance="10"
     gridtolerance="10"
     guidetolerance="10"
     inkscape:pageopacity="0"
     inkscape:pageshadow="2"
     inkscape:window-width="2880"
     inkscape:window-height="1526"
     id="namedview46"
     showgrid="false"
     inkscape:zoom="2.7222222"
     inkscape:cx="94.002149"
     inkscape:cy="37.836741"
     inkscape:window-x="2869"
     inkscape:window-y="-11"
     inkscape:window-maximized="1"
     inkscape:current-layer="layer1" />
  <path
     id="mx_logo_white"
     data-name="mx logo white"
     d="m 124.0329,92.620043 v 32.316997 h -5.488 V 92.620043 a 11.326,11.326 0 0 0 -22.652,0 v 32.316997 h -5.5 V 92.620043 a 11.325,11.325 0 0 0 -22.649,0 v 32.316997 h -5.499 V 92.620043 a 16.679,16.679 0 0 1 12.018,-15.982 16.883,16.883 0 0 1 18.876,6.877 16.883,16.883 0 0 1 18.876,-6.877 16.679,16.679 0 0 1 12.018,15.982 z m 150.667,16.555997 a 11.325,11.325 0 0 1 -22.649,0 V 76.858043 h -5.5 v 32.317997 a 11.325,11.325 0 0 1 -22.649,0 V 76.858043 h -5.5 v 32.317997 a 16.679,16.679 0 0 0 12.018,15.981 16.883,16.883 0 0 0 18.876,-6.877 16.884,16.884 0 0 0 18.875,6.874 16.679,16.679 0 0 0 12.018,-15.979 V 76.858043 h -5.5 z m 65.076,-9.367997 a 26.274,26.274 0 1 1 -26.273,-26.037 26.157,26.157 0 0 1 26.273,26.037 z m -5.5,0 a 20.778,20.778 0 1 0 -20.772,20.593997 20.685,20.685 0 0 0 20.777,-20.591997 z m -20.772,-14.131 v 5.447 a 8.733,8.733 0 0 1 8.762,8.684 h 5.5 a 14.212,14.212 0 0 0 -14.258,-14.131 z m -133.842,13.644 h 0.054 v 25.615997 h -5.5 v -8.506 a 25.308,25.308 0 0 1 -31.491,6.458 24.843,24.843 0 0 1 -12.168,-29.499997 25.195,25.195 0 0 1 49.1,5.933 z m -5.442,1.575997 a 19.672,19.672 0 1 0 -19.675,19.496 19.584,19.584 0 0 0 19.671,-19.5 z m 14.73,24.034 h 5.5 V 76.858043 h -5.5 z m 186.34,-48.988997 a 26.317,26.317 0 0 0 -20.772,10.125 v -9.209 h -5.51 v 48.078997 h 5.5 v -22.944 a 20.707,20.707 0 0 1 20.789,-20.599997 z m -171.615,48.994997 h 5.5 V 55.102043 h -5.5 z m 189.37,-39.134997 13.2,16.161997 -43.644,53.138 h 7.07 l 40.121,-48.824 10.716,13.146 a 18.254,18.254 0 0 0 14.213,6.417 v -5.439 a 12.769,12.769 0 0 1 -9.949,-4.407 l -11.446,-14.041 31.784,-38.930997 h -7.075 l -28.254,34.612 -12.467,-15.269 a 18.248,18.248 0 0 0 -14.211,-6.417 v 5.447 a 12.769,12.769 0 0 1 9.948,4.407 z m 62.677,-10.168 a 6.453,6.453 0 0 1 -4.619,-1.869 6.336,6.336 0 0 1 -1.876,-4.581 6.509,6.509 0 0 1 13.017,0 6.337,6.337 0 0 1 -1.884,4.589 6.454,6.454 0 0 1 -4.633,1.861 z m 0,-1.612 a 4.817,4.817 0 0 0 3.411,-1.428 4.781,4.781 0 1 0 -6.821,0 4.819,4.819 0 0 0 3.415,1.426 z m 1.323,-4.133 1.931,2.622 h -1.931 l -1.526,-2.217 h -0.509 v 2.218 h -1.728 v -6.654 h 2.744 a 2.321,2.321 0 0 1 1.694,0.6 2.279,2.279 0 0 1 0.748,1.62 1.971,1.971 0 0 1 -1.418,1.817 z m -1.119,-1.108 c 0.609,0 0.916,-0.3 0.916,-0.706 0,-0.406 -0.307,-0.706 -0.916,-0.706 h -0.916 v 1.412 z"
     inkscape:connector-curvature="0"
     style="fill:#ffffff" />
  <g
     inkscape:groupmode="layer"
     id="layer1"
     inkscape:label="Layer 1"
     transform="translate(62.2449,55.102043)">
    <rect
       style="fill:#000000;stroke-width:4.36027002"
       id="rect3756"
       width="507.14288"
       height="210.2041"
       x="-62.2449"
       y="-55.102043" />
  </g>
  <g
     inkscape:groupmode="layer"
     id="layer2"
     inkscape:label="Layer 2"
     transform="translate(62.2449,55.102043)">
    <path
       d="M 62.921978,46.92829 V 79.245266 H 57.433982 V 46.92829 a 11.326,11.326 0 0 0 -22.651984,0 V 79.245266 H 29.282002 V 46.92829 a 11.325,11.325 0 0 0 -22.6489836,0 V 79.245266 H 1.1340228 V 46.92829 A 16.679,16.679 0 0 1 13.152014,30.946302 16.883,16.883 0 0 1 32.028002,37.823298 16.883,16.883 0 0 1 50.903986,30.946302 16.679,16.679 0 0 1 62.921978,46.92829 Z M 213.58895,63.484278 a 11.325,11.325 0 0 1 -22.649,0 V 31.166302 h -5.5 v 32.317976 a 11.325,11.325 0 0 1 -22.649,0 V 31.166302 h -5.5 v 32.317976 a 16.679,16.679 0 0 0 12.018,15.980988 16.883,16.883 0 0 0 18.876,-6.876996 16.884,16.884 0 0 0 18.875,6.873996 16.679,16.679 0 0 0 12.018,-15.978988 V 31.166302 h -5.5 z m 65.076,-9.367992 a 26.274,26.274 0 1 1 -26.273,-26.036984 26.157,26.157 0 0 1 26.273,26.036984 z m -5.5,0 a 20.778,20.778 0 1 0 -20.772,20.593984 20.685,20.685 0 0 0 20.777,-20.591984 z m -20.772,-14.130992 v 5.446996 a 8.733,8.733 0 0 1 8.762,8.683996 h 5.5 a 14.212,14.212 0 0 0 -14.258,-14.130992 z m -133.842,13.643992 h 0.054 v 25.61598 h -5.5 V 70.739274 A 25.308,25.308 0 0 1 81.613966,77.19727 24.843,24.843 0 0 1 69.445974,47.69729 25.195,25.195 0 0 1 118.54595,53.630286 Z m -5.442,1.576 A 19.672,19.672 0 1 0 93.433958,74.70127 19.584,19.584 0 0 0 113.10495,55.201286 Z m 14.73,24.03398 h 5.5 V 31.166302 h -5.5 z m 186.34,-48.988964 a 26.317,26.317 0 0 0 -20.772,10.124992 v -9.208992 h -5.51 v 48.078964 h 5.5 V 56.301282 a 20.707,20.707 0 0 1 20.789,-20.599984 z m -171.615,48.994964 h 5.5 V 9.4103184 h -5.5 z m 189.37,-39.134972 13.2,16.161988 -43.644,53.137968 h 7.07 l 40.121,-48.823968 10.716,13.145988 a 18.254,18.254 0 0 0 14.213,6.416996 V 74.71027 a 12.769,12.769 0 0 1 -9.949,-4.406996 l -11.446,-14.040992 31.784,-38.930972 h -7.075 l -28.254,34.611976 -12.467,-15.268988 a 18.248,18.248 0 0 0 -14.211,-6.416996 v 5.446996 a 12.769,12.769 0 0 1 9.948,4.406996 z m 62.677,-10.167992 a 6.453,6.453 0 0 1 -4.619,-1.869 6.336,6.336 0 0 1 -1.876,-4.580996 6.509,6.509 0 0 1 13.017,0 6.337,6.337 0 0 1 -1.884,4.588996 6.454,6.454 0 0 1 -4.633,1.861 z m 0,-1.612 a 4.817,4.817 0 0 0 3.411,-1.427996 4.781,4.781 0 1 0 -6.821,0 4.819,4.819 0 0 0 3.415,1.425996 z m 1.323,-4.132996 1.931,2.622 h -1.931 l -1.526,-2.217 h -0.509 v 2.218 h -1.728 V 20.16631 h 2.744 a 2.321,2.321 0 0 1 1.694,0.6 2.279,2.279 0 0 1 0.748,1.619996 1.971,1.971 0 0 1 -1.418,1.817 z m -1.119,-1.108 c 0.609,0 0.916,-0.3 0.916,-0.706 0,-0.405996 -0.307,-0.705996 -0.916,-0.705996 h -0.916 v 1.411996 z"
       data-name="mx logo white"
       id="mx_logo_white-5"
       inkscape:connector-curvature="0"
       style="fill:#ffffff" />
  </g>
</svg>
