<?xml version="1.0" encoding="utf-8"?>
<!-- Generator: Adobe Illustrator 20.0.0, SVG Export Plug-In . SVG Version: 6.00 Build 0)  -->
<svg version="1.1" id="Ebene_1" xmlns="http://www.w3.org/2000/svg" xmlns:xlink="http://www.w3.org/1999/xlink" x="0px" y="0px"
	 viewBox="0 0 368.5 113.8" style="enable-background:new 0 0 368.5 113.8;" xml:space="preserve">
<style type="text/css">
	.st0{fill:#00BED5;}
</style>
<g>
	<path class="st0" d="M153.5,67.3c0,7-4.7,10.3-9.2,10.3c-5.7,0-9.2-4.3-9.2-8.2c0-4,2.1-6.2,6.6-7.3l9.5-2.2c1-0.3,1.8-0.4,2.3-0.7
		V67.3L153.5,67.3z M160.9,67.6V49.4c0-9.1-6.9-15.7-16.6-15.7c-9.2,0-16.6,6.8-16.6,15.3v0.6c0,1.9,1.3,3.1,3.7,3.1
		c2.3,0,3.7-1.2,3.7-3.1v-0.4c0-5,4.1-8.8,9.2-8.8c5.4,0,9.2,3.8,9.2,9.2v2.2c0,0.7-1,1.3-2.5,1.6l-11.2,2.5
		c-8.2,1.9-12.2,6.3-12.2,13.5c0,8.2,7.3,14.8,16.6,14.8C154.1,84.2,160.9,77.4,160.9,67.6 M199.6,67.5c0,6.3-3.7,10.3-9.4,10.3
		s-9.4-4-9.4-10.3V50.7c0-6.3,3.7-10.3,9.4-10.3s9.4,4,9.4,10.3V67.5z M206.9,67.9V22c0-1.9-1.3-3.1-3.7-3.1c-2.3,0-3.7,1.2-3.7,3.1
		v15.7c-2.5-2.3-6.3-3.8-10.3-3.8c-7.9,0-16,5.6-16,16.4v17.6c0,11.3,8.7,16.4,16.7,16.4S206.9,79.2,206.9,67.9 M221.2,83
		c0,6-3.1,10.7-8.1,12.8c-1.5,0.6-2.6,2.2-1.8,4.5c0.6,1.5,1.8,2.3,3.2,2.3c0.4,0,1-0.1,1.5-0.3c7.8-2.8,12.5-9.8,12.5-19.1V36.6
		c0-1.9-1.3-3.1-3.7-3.1s-3.7,1.2-3.7,3.1V83L221.2,83z M228.9,26.5v-3.7c0-2.2-1.5-3.8-3.8-3.8s-3.8,1.5-3.8,3.8v3.7
		c0,2.2,1.6,3.8,3.8,3.8C227.3,30.2,228.9,28.7,228.9,26.5 M275.5,68V36.8c0-1.9-1.3-3.1-3.7-3.1c-2.3,0-3.7,1.2-3.7,3.1v30.8
		c0,6.3-3.7,10.3-9.4,10.3c-5.7,0-9.4-4-9.4-10.3V36.8c0-1.9-1.3-3.1-3.7-3.1c-2.3,0-3.7,1.2-3.7,3.1V68c0,11.3,8.7,16.4,16.7,16.4
		C266.7,84.5,275.5,79.3,275.5,68 M295.3,46.9c0-4,3.4-6.8,8.2-6.8c5,0,8.8,3.2,8.8,7.5v0.3c0,1.9,1.3,3.1,3.7,3.1
		c2.3,0,3.7-1.2,3.7-3.1v-0.6c0-7.6-7-13.6-16.1-13.6c-8.8,0-15.6,5.7-15.6,13.4c0,7.3,4.7,12.2,14.4,14.5c7.3,1.8,10.4,4.5,10.4,9
		c0,4.3-3.2,7-8.5,7c-4.8,0-9-3.4-9-7.3v-0.3c0-1.9-1.3-3.1-3.7-3.1c-2.3,0-3.7,1.2-3.7,3.1v0.3c0,7.8,7.2,13.8,16.3,13.8
		c9.5,0,15.8-5.4,15.8-13.5c0-7.9-4.7-12.8-15.4-15.4C298.2,53.5,295.3,50.9,295.3,46.9 M344,70.7V41.6h13.2c1.8,0,2.8-1.2,2.8-3.2
		c0-2.5-1.5-3.2-2.8-3.2H344V22.3c0-1.9-1.3-3.1-3.7-3.1c-2.3,0-3.7,1.2-3.7,3.1V35h-6.5c-1.8,0-2.8,1.2-2.8,3.2
		c0,2.1,1,3.2,2.8,3.2h6.5v29.4c0,7.9,5.9,13.5,14.4,13.5c3.2,0,6.3-0.9,8.7-2.5c1.6-1.2,1.9-3.1,0.7-4.7c-1-1.3-2.1-1.6-2.6-1.6
		c-0.6,0-1.2,0.3-1.9,0.7c-1.3,1-3.1,1.6-4.8,1.6C345.8,78,344,74.2,344,70.7"/>
	<path class="st0" d="M76.9,69.8l-4-2.8C65,61.3,57.8,56.4,51.5,52.6l-1.5-0.9l9.2-20.8L76.9,69.8z M82.3,83.7l6-6L64.1,23.1H55
		L44,48.4l-1.3-0.6c-6.6-3.2-11.6-4.8-15.4-4.8c-4.8,0-7.2,2.6-8.1,4.3c-2.6,4.8-1.2,11.6,4.7,20.5c2.2,3.4,4.4,6.5,6.2,8.5h8.8
		l3.5-8.2l-3.8-8.5l-4.4,9.7l-1.5-1.9c-1-1.3-1.9-2.6-2.8-4c-4.8-7.3-5.6-11.2-4.4-12.5c1-1.3,7,0.4,13.6,3.7
		c3.7,1.6,7.3,3.7,11,6.2c2.6,1.6,5.4,3.4,8.4,5.4C69.3,73.3,78.8,80.8,82.3,83.7 M104.5,57c0,26.9-21.7,48.6-48.6,48.6
		S7.3,83.7,7.3,57S29.1,8.5,55.9,8.5C82.6,8.5,104.5,30.2,104.5,57 M111.7,57c0-30.7-24.9-55.8-55.8-55.8S0.2,26.2,0.2,57
		s24.9,55.8,55.8,55.8S111.7,87.7,111.7,57"/>
</g>
</svg>
