<svg height="23" viewBox="0 0 100 23" width="100" xmlns="http://www.w3.org/2000/svg"><g fill="none"><path d="M43.851 7.703c0-4.19-2.77-7.703-7.905-7.703h-11.69v22.5h6.622v-6.892h2.5l2.906 6.892h7.567l-3.986-7.973c1.757-.878 3.986-2.905 3.986-6.824zm-8.919 2.702h-4.054v-4.46h4.054c1.15 0 2.163.677 2.163 2.23 0 1.555-1.081 2.23-2.163 2.23zm27.5 12.095h6.69v-7.635h9.797V8.919h-9.797V5.946h10.067V0H62.432zM9.865 0H0v22.5h9.932c6.892 0 12.095-4.054 12.095-11.284C21.959 4.054 16.824 0 9.865 0zm0 16.554H6.689V5.946h3.243c3.582 0 5.27 2.23 5.27 5.27 0 2.838-1.959 5.338-5.337 5.338zM81.554 0v5.946h5.878V22.5h6.69V5.946H100V0z" fill="#000"/><path d="M60.27 0h.27c.338.068.474.405.338.608-.067.068-.067.135-.135.203L55.135 7.23S55 7.365 55 7.432c-.203.27 0 .609.405.676h2.365c.406.068.54.406.406.676-.068.067-.135.202-.135.202l-4.325 4.528c-.067.067-.067.135-.135.202-.203.27 0 .608.405.608h1.487c.203 0 .405.068.473.27.068.136 0 .338-.135.474-.068.067-.135.067-.135.067l-9.527 7.297s-.135.136-.203.136c-.068.067-.203.067-.338 0-.067-.068-.135-.136-.067-.203 0-.068.067-.203.067-.203l2.635-5.473.068-.135c.203-.338 0-.676-.406-.676h-2.162c-.338-.067-.473-.337-.405-.608 0-.067.067-.202.067-.202l3.311-5.473.068-.068c.202-.338-.068-.608-.473-.676H46.08c-.27 0-.473-.135-.54-.337 0-.136 0-.203.067-.338l1.014-1.757L49.865.676l.067-.135C50.338.135 50.608 0 51.014 0z" fill="#090909"/></g></svg>