<?xml version="1.0" encoding="UTF-8" standalone="no"?>
<svg
   xmlns:dc="http://purl.org/dc/elements/1.1/"
   xmlns:cc="http://creativecommons.org/ns#"
   xmlns:rdf="http://www.w3.org/1999/02/22-rdf-syntax-ns#"
   xmlns:svg="http://www.w3.org/2000/svg"
   xmlns="http://www.w3.org/2000/svg"
   xmlns:sodipodi="http://sodipodi.sourceforge.net/DTD/sodipodi-0.dtd"
   xmlns:inkscape="http://www.inkscape.org/namespaces/inkscape"
   id="svg"
   version="1.1"
   width="382.92328"
   height="61.70348"
   viewBox="0 0 382.92328 61.70348"
   sodipodi:docname="image2vector (5).svg"
   inkscape:version="0.92.3 (2405546, 2018-03-11)">
  <metadata
     id="metadata11">
    <rdf:RDF>
      <cc:Work
         rdf:about="">
        <dc:format>image/svg+xml</dc:format>
        <dc:type
           rdf:resource="http://purl.org/dc/dcmitype/StillImage" />
        <dc:title></dc:title>
      </cc:Work>
    </rdf:RDF>
  </metadata>
  <defs
     id="defs9" />
  <sodipodi:namedview
     pagecolor="#ffffff"
     bordercolor="#666666"
     borderopacity="1"
     objecttolerance="10"
     gridtolerance="10"
     guidetolerance="10"
     inkscape:pageopacity="0"
     inkscape:pageshadow="2"
     inkscape:window-width="1212"
     inkscape:window-height="737"
     id="namedview7"
     showgrid="false"
     inkscape:zoom="1.668772"
     inkscape:cx="128.27558"
     inkscape:cy="44.917411"
     inkscape:window-x="425"
     inkscape:window-y="235"
     inkscape:window-maximized="0"
     inkscape:current-layer="svgg" />
  <g
     id="svgg"
     transform="translate(-11.183566,-167.42807)">
    <path
       id="path0"
       d="m 14.2,167.963 c -1.1,0.138 -2.225,0.394 -2.5,0.568 -0.391,0.247 -0.5,5.384 -0.5,23.479 0,26.771 -0.556,23.99 4.8,23.99 5.102,0 4.8,0.564 4.8,-8.968 v -8.14 l 1.063,-0.696 c 1.075,-0.705 7.779,-0.72 9.337,-0.021 1.075,0.482 2.356,2.976 2.807,5.465 0.243,1.341 0.635,2.915 0.871,3.499 0.236,0.583 0.719,2.673 1.075,4.644 0.767,4.249 0.55,4.118 6.898,4.177 4.992,0.047 5.373,-0.171 4.477,-2.56 -0.33,-0.88 -0.85,-2.817 -1.156,-4.304 -0.306,-1.488 -0.813,-3.201 -1.127,-3.808 -0.314,-0.607 -0.762,-2.141 -0.996,-3.407 -0.442,-2.392 -2.125,-5.303 -3.65,-6.316 -1.186,-0.787 -0.511,-2.483 1.372,-3.449 5.348,-2.744 6.048,-15.476 1.154,-20.986 C 40.26,168.128 25.69,166.523 14.2,167.963 m 118.214,0.411 c -0.631,1.178 -0.567,46.513 0.066,47.146 0.612,0.612 8.052,0.651 9.178,0.049 0.767,-0.411 0.8,-0.76 0.683,-7.39 -0.187,-10.7 1.224,-10.554 7.948,0.821 4.437,7.507 3.799,7.003 8.84,6.986 7.133,-0.024 7.128,0.677 0.071,-10.012 -0.33,-0.5 -0.96,-1.497 -1.4,-2.216 -0.44,-0.719 -1.403,-2.164 -2.14,-3.212 -2.119,-3.012 -2.168,-3.374 -0.724,-5.273 3.569,-4.692 5.256,-7.024 7.701,-10.643 1.496,-2.214 0.826,-2.632 -4.213,-2.625 -4.888,0.007 -5.494,0.19 -6.444,1.946 -0.431,0.797 -1.188,1.987 -1.682,2.645 -0.494,0.658 -1.845,2.484 -3.001,4.058 -2.121,2.884 -3.711,3.892 -4.655,2.948 -0.31,-0.31 -0.399,-4.035 -0.298,-12.442 0.175,-14.626 0.599,-13.56 -5.392,-13.56 -3.668,0 -4.17,0.086 -4.538,0.774 m 46.109,-0.475 c 2.597,0.07 6.737,0.069 9.2,-0.001 2.462,-0.07 0.337,-0.127 -4.723,-0.126 -5.06,0 -7.075,0.057 -4.477,0.127 m 16.097,0.475 c 3.811,0.913 6.324,2.707 7.742,5.526 0.47,0.935 0.944,1.7 1.054,1.7 0.356,0 -1.48,-3.371 -2.361,-4.337 -1.055,-1.155 -5.493,-3.278 -6.738,-3.222 -0.733,0.033 -0.672,0.1 0.303,0.333 m -25.317,0.354 c -0.373,0.237 -0.415,1.059 -0.169,3.294 l 0.328,2.978 0.169,-3.301 c 0.093,-1.815 0.169,-3.298 0.169,-3.294 0,0.004 -0.224,0.149 -0.497,0.323 m -137.22,7.288 c 2.359,0.656 3.293,2.335 3.437,6.184 0.216,5.778 -1.652,7.4 -8.52,7.392 -6.176,-0.006 -6.2,-0.035 -6.2,-7.553 v -5.213 l 1.1,-0.597 c 1.309,-0.71 7.897,-0.848 10.183,-0.213 m 147.206,0.207 c -0.837,0.586 -0.889,0.912 -0.889,5.54 0,7.601 0.504,8.296 5.919,8.159 l 3.081,-0.079 -2.8,-0.123 c -5.545,-0.244 -5.8,-0.591 -5.8,-7.887 v -5.007 l 1.1,-0.597 c 0.605,-0.328 0.915,-0.604 0.689,-0.613 -0.226,-0.009 -0.811,0.264 -1.3,0.607 m 9.016,-0.34 c 0.497,0.096 1.217,0.092 1.6,-0.008 0.382,-0.1 -0.025,-0.179 -0.905,-0.174 -0.88,0.004 -1.193,0.086 -0.695,0.182 m -19.369,6.717 c 0.008,3.08 0.145,6.05 0.305,6.6 0.377,1.299 0.363,-2.858 -0.027,-8.2 l -0.293,-4 0.015,5.6 m 24.741,-0.08 c -0.114,4.042 -1.483,6.135 -4.378,6.697 l -1.499,0.291 1.286,0.046 c 2.89,0.103 5.04,-3.109 4.812,-7.187 l -0.144,-2.567 -0.077,2.72 M 204.109,182 c 0,0.99 0.078,1.395 0.173,0.9 0.096,-0.495 0.096,-1.305 0,-1.8 -0.095,-0.495 -0.173,-0.09 -0.173,0.9 m -142.307,0.004 c -6.899,0.659 -7.69,1.167 -7.293,4.688 0.359,3.179 0.727,3.308 9.476,3.308 8.165,0 9.553,0.256 10.328,1.907 0.977,2.082 -0.222,2.493 -7.281,2.493 -11.006,0 -14.632,2.537 -14.632,10.238 0,10.851 9.816,15.42 19.76,9.198 3.132,-1.961 3.961,-1.931 4.378,0.156 0.367,1.835 5.14,2.851 7.488,1.594 0.914,-0.489 1.193,-22.391 0.337,-26.384 -1.412,-6.583 -7.764,-8.61 -22.561,-7.198 m 50.998,0.138 c -2.473,0.741 -5.489,2.113 -6.649,3.025 -1.379,1.085 -2.96,0.589 -3.531,-1.108 -0.604,-1.794 -1.174,-2.046 -4.64,-2.053 C 93.675,181.997 94,180.608 94,199 c 0,18.661 -0.479,17 4.906,17 6.003,0 5.494,1.113 5.494,-12.027 0,-10.307 0.056,-11.217 0.7,-11.439 0.385,-0.132 1.78,-0.676 3.1,-1.209 1.32,-0.533 3.418,-1.073 4.662,-1.199 l 2.262,-0.23 1.038,1.644 1.038,1.644 v 10.994 c 0,10.772 0.017,11.003 0.843,11.445 1.02,0.546 8.171,0.361 8.638,-0.223 0.771,-0.966 -0.032,-27.903 -0.881,-29.561 -1.843,-3.595 -7.74,-5.272 -13,-3.697 m 114.7,-0.245 c 1.595,0.076 4.205,0.076 5.8,0 1.595,-0.076 0.29,-0.138 -2.9,-0.138 -3.19,0 -4.495,0.062 -2.9,0.138 m 46.4,-0.004 c 0.935,0.084 2.465,0.084 3.4,0 0.935,-0.084 0.17,-0.153 -1.7,-0.153 -1.87,0 -2.635,0.069 -1.7,0.153 m 32.2,0.003 c 1.265,0.079 3.335,0.079 4.6,0 1.265,-0.08 0.23,-0.145 -2.3,-0.145 -2.53,0 -3.565,0.065 -2.3,0.145 m 7.6,-0.02 c 0.385,0.1 1.015,0.1 1.4,0 0.385,-0.101 0.07,-0.183 -0.7,-0.183 -0.77,0 -1.085,0.082 -0.7,0.183 m 32.6,0.006 c 0.495,0.096 1.305,0.096 1.8,0 0.495,-0.095 0.09,-0.173 -0.9,-0.173 -0.99,0 -1.395,0.078 -0.9,0.173 m 4.2,0.009 c 0.825,0.087 2.175,0.087 3,0 0.825,-0.086 0.15,-0.157 -1.5,-0.157 -1.65,0 -2.325,0.071 -1.5,0.157 m 40.205,-0.008 c 0.497,0.096 1.217,0.092 1.6,-0.008 0.382,-0.1 -0.025,-0.179 -0.905,-0.174 -0.88,0.004 -1.193,0.086 -0.695,0.182 m -170.6,0.404 c 0.609,0.092 1.509,0.09 2,-0.005 0.492,-0.095 -0.005,-0.171 -1.105,-0.168 -1.1,0.003 -1.503,0.081 -0.895,0.173 m 46.82,1.276 c -1.778,0.86 -3.348,1.75 -3.489,1.978 -0.141,0.228 1.082,-0.286 2.718,-1.142 1.636,-0.857 3.575,-1.731 4.31,-1.942 0.866,-0.249 1.047,-0.398 0.515,-0.421 -0.452,-0.02 -2.276,0.667 -4.054,1.527 m 14.178,-0.271 c 1.156,0.711 2.207,1.625 2.336,2.031 0.129,0.405 0.312,0.659 0.407,0.564 0.601,-0.601 -3.186,-3.887 -4.48,-3.887 -0.201,0 0.581,0.582 1.737,1.292 m 46.424,-0.818 c 0.985,1.258 0.435,3.245 -1.111,4.017 -1.886,0.941 -2.27,1.973 -1.975,5.309 l 0.248,2.8 0.025,-2.8 c 0.014,-1.54 0.039,-3.021 0.056,-3.292 0.016,-0.27 0.728,-0.848 1.581,-1.283 2.153,-1.099 2.869,-3.684 1.349,-4.876 -0.629,-0.493 -0.646,-0.48 -0.173,0.125 m 49.973,-0.075 c 0.275,0.309 0.5,0.987 0.5,1.507 0,2.414 2.553,3.027 4.356,1.045 0.597,-0.655 0.594,-0.669 -0.045,-0.19 -2.144,1.613 -3.911,1.186 -3.911,-0.945 0,-0.505 -0.315,-1.156 -0.7,-1.448 -0.596,-0.45 -0.625,-0.446 -0.2,0.031 m 8.795,0.21 c -1.621,0.595 -3.533,1.791 -2.864,1.791 0.225,0 0.601,-0.192 0.836,-0.427 0.235,-0.235 1.486,-0.765 2.78,-1.178 1.294,-0.414 1.993,-0.749 1.553,-0.745 -0.44,0.003 -1.477,0.255 -2.305,0.559 M 216,182.678 c -0.686,0.245 -1.6,1.297 -1.6,1.843 0,0.202 0.326,-0.035 0.725,-0.527 0.398,-0.493 1.433,-1.032 2.3,-1.199 1.347,-0.259 1.402,-0.305 0.375,-0.317 -0.66,-0.008 -1.47,0.082 -1.8,0.2 m 81.109,0.987 c -2.809,1.523 -3.949,3.909 -3.849,8.05 l 0.061,2.485 0.255,-3 c 0.367,-4.297 1.273,-5.904 4.224,-7.489 1.32,-0.709 2.22,-1.289 2,-1.289 -0.22,0 -1.431,0.559 -2.691,1.243 M 360,183.382 c 2.116,1.11 3.595,2.606 4.759,4.812 0.463,0.877 0.841,1.322 0.841,0.989 0,-1.867 -5.242,-6.873 -7.084,-6.764 -0.174,0.01 0.494,0.443 1.484,0.963 m -20.6,0.082 c -1.504,0.791 -3.229,2.375 -4.286,3.936 -0.447,0.66 -0.051,0.339 0.88,-0.714 0.93,-1.052 2.392,-2.271 3.249,-2.708 0.856,-0.437 1.557,-0.881 1.557,-0.986 0,-0.26 -0.029,-0.25 -1.4,0.472 m -78.953,0.403 c -0.081,1.49 0.38,2.135 1.496,2.093 l 1.057,-0.04 -0.999,-0.278 c -0.682,-0.189 -1.08,-0.654 -1.253,-1.46 -0.187,-0.872 -0.266,-0.955 -0.301,-0.315 m -18.729,0.675 c 0.616,0.58 1.374,1.64 1.685,2.356 0.311,0.716 0.572,1.032 0.58,0.702 0.022,-0.938 -1.443,-3.098 -2.462,-3.63 -0.791,-0.414 -0.763,-0.333 0.197,0.572 m -38.064,1.409 c -0.101,1.779 -2.412,5.211 -4.081,6.063 -2.51,1.28 -3.095,2.887 -1.386,3.807 0.744,0.401 1.553,1.1 1.799,1.554 1.147,2.124 1.603,2.787 1.608,2.343 0.01,-0.816 -1.994,-3.489 -3.022,-4.031 -0.535,-0.282 -0.972,-0.588 -0.972,-0.681 0,-0.814 1.108,-2.166 2.307,-2.815 1.766,-0.956 4.247,-4.863 3.978,-6.267 l -0.176,-0.924 -0.055,0.951 m 10.792,0.975 c -0.054,1.333 0.584,2.676 1.268,2.668 0.33,-0.004 0.307,-0.119 -0.07,-0.358 -0.306,-0.194 -0.69,-1.046 -0.854,-1.894 -0.249,-1.288 -0.306,-1.356 -0.344,-0.416 m 70.037,14.351 c -0.004,7.412 -0.141,13.712 -0.304,14 -0.233,0.412 -0.185,0.42 0.224,0.041 0.656,-0.607 1.009,-19.493 0.454,-24.318 -0.28,-2.441 -0.369,-0.001 -0.374,10.277 m 18.784,-11.7 c -1.607,1.999 -1.611,3.251 -0.017,4.917 l 1.251,1.306 -1.051,-1.473 c -1.566,-2.197 -0.784,-4.957 1.701,-5.999 0.579,-0.242 0.58,-0.275 0.016,-0.3 -0.348,-0.015 -1.203,0.681 -1.9,1.549 m 11.096,-0.115 c 1.526,2.301 0.767,5.153 -1.627,6.112 -0.753,0.302 -0.791,0.38 -0.196,0.401 2.561,0.087 3.971,-4.545 2.023,-6.653 l -1.036,-1.122 0.836,1.262 m 34.437,-0.431 -1.8,0.553 1.6,-0.261 c 2.05,-0.334 3.006,-0.325 4,0.039 0.505,0.185 0.431,0.067 -0.2,-0.32 -1.182,-0.725 -1.272,-0.725 -3.6,-0.011 m 44.084,0.809 c -0.283,0.308 -1.093,0.573 -1.8,0.588 -0.706,0.016 -1.644,0.199 -2.084,0.407 -0.598,0.284 -0.396,0.328 0.8,0.177 0.88,-0.112 1.986,-0.205 2.457,-0.208 0.472,-0.002 0.971,-0.3 1.11,-0.661 0.335,-0.873 0.15,-0.989 -0.483,-0.303 M 216.9,189.876 c 0.385,0.1 1.015,0.1 1.4,0 0.385,-0.101 0.07,-0.183 -0.7,-0.183 -0.77,0 -1.085,0.082 -0.7,0.183 m 127.869,0.893 c -0.667,0.667 -1.154,1.569 -1.133,2.1 0.029,0.746 0.112,0.669 0.415,-0.384 0.233,-0.806 0.877,-1.619 1.664,-2.099 0.707,-0.431 1.046,-0.784 0.754,-0.785 -0.292,0 -1.057,0.525 -1.7,1.168 m -112.09,-0.364 c 2.84,1.143 2.222,3.573 -1.024,4.028 l -1.855,0.26 1.678,0.054 c 2.578,0.082 4.063,-1.326 3.187,-3.021 -0.612,-1.185 -1.415,-1.754 -2.398,-1.701 -0.257,0.014 -0.071,0.185 0.412,0.38 m 11.632,12.32 c -0.071,8.246 0.027,12.698 0.275,12.449 0.372,-0.372 0.377,-24.745 0.005,-25.116 -0.093,-0.093 -0.219,5.607 -0.28,12.667 m 23.1,-12.1 c -1.429,0.745 -1.928,1.228 -0.811,0.785 0.44,-0.175 1.43,-0.556 2.2,-0.846 0.905,-0.342 1.117,-0.534 0.6,-0.544 -0.44,-0.008 -1.335,0.264 -1.989,0.605 m 6.572,0.675 c 0.679,1.168 0.772,2.425 0.92,12.414 0.126,8.486 0.289,11.229 0.69,11.6 0.415,0.385 0.461,0.375 0.221,-0.048 -0.167,-0.293 -0.275,-5.369 -0.24,-11.279 l 0.063,-10.745 -1.024,-1.621 c -1.218,-1.93 -1.712,-2.181 -0.63,-0.321 m 91.71,-0.1 c 0,0.77 0.082,1.085 0.183,0.7 0.1,-0.385 0.1,-1.015 0,-1.4 -0.101,-0.385 -0.183,-0.07 -0.183,0.7 m -196.634,3.86 c -0.34,4.013 -0.292,8.742 0.107,10.74 0.201,1.011 0.313,-1.235 0.303,-6.1 -0.019,-8.643 -0.046,-8.95 -0.41,-4.64 m 93.757,-2.479 c -0.265,0.319 -0.398,0.904 -0.295,1.3 0.149,0.576 0.195,0.545 0.233,-0.161 0.025,-0.484 0.361,-1.064 0.746,-1.288 0.385,-0.224 0.497,-0.413 0.249,-0.42 -0.248,-0.007 -0.668,0.249 -0.933,0.569 m 119.305,-0.088 c -1.945,0.625 -2.121,1.678 -2.121,12.687 0,7.322 -0.129,10.004 -0.5,10.421 -0.425,0.477 -0.396,0.481 0.2,0.031 0.634,-0.48 0.7,-1.48 0.7,-10.637 0,-11.28 0.034,-11.427 2.849,-12.445 1.63,-0.59 0.68,-0.638 -1.128,-0.057 m -49.205,3.307 c -0.323,2.401 -0.36,4.133 -0.11,5.2 0.206,0.88 0.406,2.23 0.444,3 0.063,1.252 0.088,1.282 0.239,0.279 0.092,-0.617 -0.027,-2.03 -0.265,-3.141 -0.312,-1.455 -0.311,-2.724 0.005,-4.536 0.241,-1.383 0.378,-2.94 0.305,-3.459 -0.074,-0.518 -0.352,0.677 -0.618,2.657 m 22.73,-1.487 c -0.027,0.545 -0.408,1.058 -0.946,1.275 -0.609,0.244 -0.69,0.369 -0.249,0.387 0.881,0.034 1.657,-0.974 1.428,-1.856 -0.144,-0.557 -0.197,-0.513 -0.233,0.194 m 9.876,0.943 c -0.373,2.108 -1.802,4.058 -3.894,5.311 -1.006,0.603 -1.527,1.002 -1.158,0.888 2.784,-0.86 5.782,-4.578 5.447,-6.755 -0.103,-0.673 -0.203,-0.532 -0.395,0.556 m -147.865,0.223 c -3.271,1.338 -5.401,4.249 -5.149,7.037 l 0.152,1.684 0.07,-1.694 c 0.159,-3.854 3.195,-6.596 8.67,-7.833 0.637,-0.143 0.596,-0.186 -0.2,-0.207 -0.55,-0.015 -2.144,0.441 -3.543,1.013 m 126.468,0.221 c 0.42,0.385 1.149,0.685 1.619,0.666 0.694,-0.028 0.643,-0.099 -0.27,-0.373 -0.619,-0.185 -1.347,-0.485 -1.618,-0.665 -0.272,-0.181 -0.15,-0.013 0.269,0.372 m -82.033,10.013 c -0.091,9.451 -0.098,9.515 -0.992,9.875 -0.609,0.244 -0.69,0.369 -0.249,0.387 1.444,0.056 1.567,-0.829 1.449,-10.425 l -0.115,-9.35 -0.093,9.513 m 31.933,-8.851 c -0.014,0.364 0.614,1.427 1.394,2.361 0.781,0.935 1.321,1.942 1.2,2.238 -0.606,1.49 -0.597,1.813 0.021,0.739 0.833,-1.449 0.893,-1.175 -0.62,-2.838 -0.688,-0.756 -1.412,-1.776 -1.61,-2.268 -0.252,-0.628 -0.367,-0.697 -0.385,-0.232 m 29.575,0.102 c 0,0.384 -0.526,1.224 -1.169,1.867 -1.231,1.23 -1.245,1.419 -0.06,0.784 0.796,-0.425 1.883,-2.695 1.483,-3.094 -0.14,-0.14 -0.254,0.06 -0.254,0.443 m -143.9,1.032 c -0.897,0.547 -1.283,1.073 -1.246,1.698 l 0.055,0.906 0.173,-0.901 c 0.198,-1.024 1.283,-1.72 3.318,-2.127 1.375,-0.275 1.379,-0.281 0.2,-0.325 -0.66,-0.024 -1.785,0.313 -2.5,0.749 m 9.978,0.618 c 0.373,0.44 1.044,1.607 1.491,2.593 0.447,0.986 0.817,1.561 0.822,1.277 0.014,-0.811 -1.456,-3.478 -2.262,-4.104 -0.694,-0.539 -0.697,-0.528 -0.051,0.234 m 33.704,2.886 c -0.758,0.825 -1.379,1.883 -1.38,2.35 -0.005,1.962 0.536,3.346 1.545,3.959 l 1.053,0.638 -0.916,-0.8 c -1.592,-1.392 -1.637,-4.335 -0.09,-5.947 l 1.247,-1.3 h 4.179 c 4.925,0 5.78,0.471 5.78,3.182 0,1.411 -0.2,1.734 -1.858,3 -1.021,0.78 -1.674,1.418 -1.451,1.418 0.991,0 3.715,-3.027 3.78,-4.2 0.173,-3.138 -0.96,-3.8 -6.51,-3.8 h -4.002 l -1.377,1.5 m 95.824,-0.677 c -0.766,0.427 -1.126,0.773 -0.8,0.768 0.327,-0.005 1.044,-0.361 1.594,-0.791 1.256,-0.983 0.996,-0.975 -0.794,0.023 M 73.84,200.706 c 4.601,3.072 -3.93,9.987 -9.222,7.476 -2.567,-1.218 -3.058,-4.48 -0.987,-6.551 1.234,-1.235 8.728,-1.914 10.209,-0.925 m 104.619,5.569 c -0.014,2.599 0.114,5.715 0.283,6.925 0.192,1.366 0.254,-0.373 0.165,-4.584 -0.166,-7.889 -0.412,-9.172 -0.448,-2.341 M 315.7,201.876 c 0.385,0.1 1.015,0.1 1.4,0 0.385,-0.101 0.07,-0.183 -0.7,-0.183 -0.77,0 -1.085,0.082 -0.7,0.183 m 42,0 c 0.385,0.1 1.015,0.1 1.4,0 0.385,-0.101 0.07,-0.183 -0.7,-0.183 -0.77,0 -1.085,0.082 -0.7,0.183 m -51,0.42 c 1.375,0.078 3.625,0.078 5,0 1.375,-0.078 0.25,-0.142 -2.5,-0.142 -2.75,0 -3.875,0.064 -2.5,0.142 m -4.033,0.371 c -1.303,1.303 0.739,3.801 3.013,3.687 0.805,-0.041 0.82,-0.069 0.12,-0.223 -2.842,-0.625 -4.367,-2.915 -2.3,-3.455 0.561,-0.147 0.574,-0.192 0.067,-0.23 -0.349,-0.025 -0.754,0.074 -0.9,0.221 m 41.168,1.533 c 0.21,1.143 2.348,3.8 3.057,3.8 0.185,0 -0.273,-0.534 -1.017,-1.187 -0.743,-0.654 -1.556,-1.779 -1.806,-2.5 -0.441,-1.277 -0.448,-1.28 -0.234,-0.113 m -141.42,0.2 c 0.006,0.33 0.275,0.949 0.598,1.376 0.755,0.999 0.75,0.629 -0.011,-0.83 -0.328,-0.63 -0.592,-0.876 -0.587,-0.546 m 92.714,1.505 c -0.09,0.608 -0.047,1.553 0.094,2.1 0.176,0.682 0.269,0.335 0.294,-1.105 0.041,-2.291 -0.133,-2.736 -0.388,-0.995 m -82.668,1.211 c -0.089,3.1 3.477,8.484 5.619,8.484 0.274,0 0.053,-0.298 -0.491,-0.661 -3.198,-2.139 -4.456,-4.109 -4.816,-7.539 l -0.251,-2.4 -0.061,2.116 m 96.339,-0.267 c 0.99,0.227 2.88,0.471 4.2,0.543 l 2.4,0.131 -2.2,-0.329 c -1.21,-0.18 -3.1,-0.425 -4.2,-0.542 l -2,-0.215 1.8,0.412 m 7.3,1.027 c 0.385,0.1 1.015,0.1 1.4,0 0.385,-0.101 0.07,-0.183 -0.7,-0.183 -0.77,0 -1.085,0.082 -0.7,0.183 m 4.104,0.495 c 0.663,0.159 2.168,0.966 3.345,1.793 1.178,0.828 2.023,1.314 1.878,1.08 -0.555,-0.898 -4.556,-3.242 -5.468,-3.203 -0.828,0.035 -0.794,0.081 0.245,0.33 m 43.258,0.029 c 0.254,0.33 0.544,1.05 0.645,1.6 l 0.184,1 0.055,-1.051 c 0.03,-0.579 -0.26,-1.297 -0.646,-1.6 -0.609,-0.478 -0.64,-0.471 -0.238,0.051 m -137.731,0.51 c 0.625,0.209 1.513,0.209 2.138,0 0.893,-0.297 0.716,-0.356 -1.069,-0.356 -1.785,0 -1.962,0.059 -1.069,0.356 m -21.558,1.29 c 0.193,1.529 1.386,4.64 1.409,3.674 0.01,-0.4 -0.193,-1.12 -0.451,-1.6 -0.259,-0.481 -0.614,-1.414 -0.789,-2.074 l -0.32,-1.2 0.151,1.2 m -35.209,2.146 c 0.093,1.401 0.335,2.713 0.538,2.916 0.227,0.227 0.238,-0.606 0.03,-2.146 -0.466,-3.445 -0.772,-3.86 -0.568,-0.77 m 125.236,0.73 c -1.1,1.011 -1.46,1.471 -0.8,1.021 1.124,-0.767 3.344,-2.919 2.97,-2.879 -0.094,0.01 -1.07,0.846 -2.17,1.858 m -62.179,0.552 c -1.638,1.085 -2.808,1.967 -2.6,1.961 0.209,-0.006 1.549,-0.804 2.978,-1.772 2.725,-1.847 4.001,-1.785 4.001,0.196 0,0.379 0.315,0.936 0.7,1.238 0.609,0.478 0.64,0.471 0.238,-0.051 -0.254,-0.33 -0.524,-1.029 -0.6,-1.554 -0.312,-2.156 -1.48,-2.16 -4.717,-0.018 m 104.214,-1.545 c 0.233,0.67 4.96,3.517 5.839,3.517 0.246,0 -0.796,-0.659 -2.314,-1.463 -1.518,-0.805 -2.985,-1.75 -3.261,-2.1 -0.451,-0.574 -0.477,-0.569 -0.264,0.046 m 27.765,1.25 c -0.437,0.916 -1.036,1.388 -2.2,1.732 -0.88,0.261 -1.297,0.487 -0.926,0.504 1.733,0.079 4.281,-1.978 3.864,-3.12 -0.076,-0.206 -0.408,0.191 -0.738,0.884 m -59.293,0.557 c 0.719,0.089 1.799,0.087 2.4,-0.004 0.601,-0.091 0.013,-0.164 -1.307,-0.162 -1.32,0.002 -1.812,0.077 -1.093,0.166 m 5.598,0.393 c 0.497,0.096 1.217,0.092 1.6,-0.008 0.382,-0.1 -0.025,-0.179 -0.905,-0.174 -0.88,0.004 -1.193,0.086 -0.695,0.182 M 194.4,214.757 c 0,0.555 1.522,1.345 2.122,1.101 0.27,-0.11 0.186,-0.209 -0.193,-0.226 -0.37,-0.018 -0.955,-0.315 -1.3,-0.661 -0.346,-0.345 -0.629,-0.442 -0.629,-0.214 m 119.635,0.025 c 4.866,1.475 4.39,5.066 -0.835,6.3 l -2.2,0.519 1.952,-0.2 c 3.011,-0.308 4.648,-1.505 4.648,-3.398 0,-1.829 -1.777,-3.625 -3.531,-3.569 l -1.069,0.035 1.035,0.313 m 12.418,3.292 c -0.064,4.714 -0.387,5.684 -2.559,7.692 -1.424,1.315 -1.472,1.404 -0.306,0.557 2.806,-2.037 3.99,-6.049 3.165,-10.723 -0.153,-0.863 -0.268,0.086 -0.3,2.474 M 205.38,215.161 c -0.209,0.199 -0.74,0.448 -1.18,0.554 -0.759,0.182 -0.756,0.195 0.051,0.239 0.468,0.025 1.075,-0.224 1.349,-0.554 0.543,-0.654 0.391,-0.819 -0.22,-0.239 m 96.329,2.039 c 0,0.99 0.078,1.395 0.173,0.9 0.096,-0.495 0.096,-1.305 0,-1.8 -0.095,-0.495 -0.173,-0.09 -0.173,0.9 m 56.391,-1.324 c 0.385,0.1 1.015,0.1 1.4,0 0.385,-0.101 0.07,-0.183 -0.7,-0.183 -0.77,0 -1.085,0.082 -0.7,0.183 m -135.789,0.417 c 0.94,0.085 2.38,0.084 3.2,-0.002 0.819,-0.086 0.049,-0.155 -1.711,-0.154 -1.76,0.002 -2.43,0.072 -1.489,0.156 m 125.789,0.004 c 1.485,0.077 3.915,0.077 5.4,0 1.485,-0.077 0.27,-0.14 -2.7,-0.14 -2.97,0 -4.185,0.063 -2.7,0.14 m -56.38,2.503 c 0,1.21 0.075,1.705 0.167,1.1 0.091,-0.605 0.091,-1.595 0,-2.2 -0.092,-0.605 -0.167,-0.11 -0.167,1.1 m 10.228,1.078 c 0.596,1.147 0.804,1.254 2.89,1.501 l 1.762,0.207 -1.587,-0.405 c -0.872,-0.222 -2.022,-0.804 -2.554,-1.293 l -0.968,-0.888 0.457,0.878 m 5.752,2.009 c 0.605,0.091 1.595,0.091 2.2,0 0.605,-0.092 0.11,-0.167 -1.1,-0.167 -1.21,0 -1.705,0.075 -1.1,0.167 m -14.566,2.797 c 1.009,1.444 3.184,3.131 3.556,2.76 0.134,-0.134 0.027,-0.244 -0.238,-0.244 -0.265,0 -1.322,-0.855 -2.349,-1.9 -1.348,-1.372 -1.618,-1.543 -0.969,-0.616 m 6.566,3.592 c 0.385,0.1 1.015,0.1 1.4,0 0.385,-0.101 0.07,-0.183 -0.7,-0.183 -0.77,0 -1.085,0.082 -0.7,0.183 m 17.4,0.006 c 0.495,0.096 1.305,0.096 1.8,0 0.495,-0.095 0.09,-0.173 -0.9,-0.173 -0.99,0 -1.395,0.078 -0.9,0.173 m -13.3,0.571 c 2.005,0.377 7.756,0.37 10.4,-0.013 1.275,-0.184 -0.538,-0.289 -5,-0.289 -4.286,0 -6.38,0.117 -5.4,0.302"
       inkscape:connector-curvature="0"
       style="fill:#0b5ab6;fill-rule:evenodd;stroke:none" />
    <path
       id="path2"
       d="m 170.204,168.543 c -0.977,0.72 -1.226,45.795 -0.259,46.762 0.658,0.658 6.204,0.896 7.584,0.324 l 1.108,-0.459 -0.098,-8.203 -0.099,-8.203 1.26,-0.766 c 1.498,-0.911 8.206,-0.736 9.795,0.255 1.148,0.717 2.329,3.053 2.702,5.347 0.161,0.99 0.542,2.407 0.848,3.149 0.305,0.742 0.737,2.542 0.958,4 0.653,4.294 0.678,4.35 2.244,4.867 1.692,0.558 8.345,0.352 8.975,-0.278 0.288,-0.288 0.215,-0.959 -0.237,-2.177 -0.359,-0.969 -0.815,-2.751 -1.014,-3.961 -0.199,-1.21 -0.628,-2.74 -0.953,-3.4 -0.325,-0.66 -0.859,-2.39 -1.186,-3.844 -0.704,-3.132 -1.95,-5.199 -3.715,-6.163 -1.636,-0.893 -1.008,-2.522 1.456,-3.779 4.244,-2.165 6.047,-11.828 3.228,-17.298 -1.723,-3.345 -2.147,-3.774 -5.196,-5.253 L 195,168.2 183,168.078 c -10.063,-0.103 -12.129,-0.028 -12.796,0.465 m 20.67,7.413 c 2.862,1.101 4.281,7.875 2.264,10.807 -2.698,3.922 -13.055,4.746 -14.312,1.14 -0.88,-2.525 -0.545,-10.974 0.463,-11.68 1.008,-0.706 9.91,-0.911 11.585,-0.267 m 115.926,6.068 c -9.614,0.346 -12.723,2.385 -13.127,8.609 -0.245,3.778 0.518,6.667 2.272,8.606 l 1.491,1.646 -0.931,1.881 c -1.076,2.173 -1.248,4.829 -0.455,7.021 l 0.548,1.516 -2.199,1.97 -2.199,1.97 v 3.878 c 0,7.234 3.053,9.156 15,9.443 14.794,0.356 18.893,-1.722 19.124,-9.692 0.163,-5.64 -0.309,-6.99 -3.124,-8.943 -2.182,-1.513 -2.609,-1.621 -9.2,-2.326 -9.405,-1.005 -11.716,-1.75 -11.523,-3.714 0.159,-1.625 0.806,-1.798 6.923,-1.851 11.627,-0.103 14.685,-2.148 14.883,-9.953 0.108,-4.261 0.261,-4.66 2.14,-5.598 1.527,-0.762 2.158,-3.106 1.079,-4.003 -0.649,-0.538 -11.72,-0.784 -20.702,-0.46 m 40.6,-0.125 c -7.552,0.47 -12.571,3.895 -13.383,9.133 -1.117,7.211 -1.195,8.157 -0.837,10.221 0.205,1.181 0.578,3.442 0.829,5.025 0.251,1.583 0.715,3.093 1.031,3.355 0.316,0.262 0.843,1.042 1.17,1.732 0.44,0.927 1.402,1.67 3.686,2.845 l 3.09,1.59 h 8.007 c 11.907,0 13.797,-0.711 13.211,-4.969 -0.385,-2.803 -0.754,-3 -4.911,-2.624 -10.547,0.952 -14.801,-0.179 -15.543,-4.135 -0.371,-1.974 0.006,-2.073 8.327,-2.183 11.143,-0.148 14.796,-3.064 13.536,-10.807 -1.111,-6.83 -7.142,-9.87 -18.213,-9.183 m 43.397,0.114 c -3.355,0.397 -6.549,1.573 -8.468,3.118 -2.162,1.74 -4.329,1.127 -4.329,-1.225 0,-2.266 -6.8,-3.01 -7.627,-0.834 -0.492,1.292 -0.341,31.894 0.159,32.395 0.567,0.568 8.218,0.672 8.881,0.122 0.487,-0.404 0.587,-2.174 0.587,-10.378 0,-11.532 0.119,-12.132 2.523,-12.753 5.282,-1.364 7.048,-1.784 8.581,-2.044 2.06,-0.349 2.076,-0.364 2.521,-2.282 1.117,-4.811 0.339,-6.494 -2.828,-6.119 m -170.564,0.393 c -5.31,0.654 -6.088,1.299 -5.482,4.543 0.532,2.846 1.072,2.991 11.316,3.027 7.53,0.027 7.728,0.067 8.585,1.724 1.252,2.421 0.035,2.9 -7.363,2.9 -11.438,0 -14.589,2.26 -14.555,10.441 0.031,7.698 3.321,10.955 11.066,10.955 4.072,0 5.396,-0.398 8.6,-2.58 2.906,-1.98 3.996,-1.876 4.402,0.421 0.258,1.458 1.612,2.149 4.222,2.157 3.621,0.011 3.434,0.817 3.297,-14.204 -0.14,-15.229 -0.221,-15.614 -3.819,-18.199 l -1.902,-1.367 -7.8,-0.08 c -4.29,-0.043 -9.045,0.074 -10.567,0.262 m 32.667,0.006 -0.9,0.362 v 16.133 c 0,12.015 0.123,16.256 0.48,16.613 0.577,0.577 6.997,0.659 8.448,0.107 l 0.98,-0.372 0.152,-10.974 c 0.166,-11.938 0.18,-12.007 2.468,-12.509 0.699,-0.153 1.899,-0.615 2.666,-1.025 2.745,-1.47 6.196,-1.064 7.419,0.874 l 1.024,1.621 -0.064,10.852 C 275.499,216.796 275.203,216 280,216 c 4.84,0 4.486,1.155 4.424,-14.423 -0.052,-13.265 -0.268,-15.764 -1.463,-16.959 -3.463,-3.463 -9.883,-3.665 -16.196,-0.511 -5.025,2.511 -6.365,2.469 -6.365,-0.196 0,-1.701 -4.673,-2.635 -7.5,-1.499 m 61.531,6.757 C 317.889,192.627 315.207,196 309,196 h -4.28 l -1.36,-1.36 c -1.725,-1.725 -1.749,-3.003 -0.093,-5.063 L 304.534,188 h 4.364 c 4.29,0 4.383,0.02 5.533,1.169 m 39.169,0.354 2.2,1.077 0.118,2.236 c 0.158,2.989 0.007,3.068 -6.162,3.223 -6.24,0.158 -6.562,0.017 -6.152,-2.686 0.361,-2.38 1.338,-3.299 4.451,-4.189 3.211,-0.917 2.944,-0.934 5.545,0.339 m -119.827,10.938 c 3.759,1.712 1.016,6.655 -4.473,8.061 -5.87,1.504 -9.7,-3.018 -5.947,-7.022 l 1.406,-1.5 h 4.002 c 2.201,0 4.456,0.207 5.012,0.461 m 79.931,13.92 c 6.488,1.025 5.064,6.277 -1.972,7.272 -7.971,1.128 -11.725,-1.41 -9.755,-6.593 0.56,-1.473 5.056,-1.734 11.727,-0.679"
       inkscape:connector-curvature="0"
       style="fill:#373737;fill-rule:evenodd;stroke:none" />
  </g>
</svg>
