<svg height="30" viewBox="0 0 92 30" width="92" xmlns="http://www.w3.org/2000/svg"><g fill="none" fill-rule="evenodd"><path d="m0 0h92v30h-92z" fill="#fff"/><g transform="translate(3 4)"><path d="m8.83742255 0c.35597471 0 8.45061535 4.66410959 8.62860275 4.97205479.177707.30794521.177707 9.63726031 0 9.94438361-.1779874.3079452-8.27262804 4.9720548-8.62860275 4.9720548-.35569442 0-8.45061538-4.6641096-8.62832244-4.9720548-.17798736-.3071233-.17798736-9.6364384 0-9.94438361.17770706-.3079452 8.27262802-4.97205479 8.62832244-4.97205479z" fill="#6eaa46"/><path d="m4.4314647 12.4835616-4.22236459 2.4328768c-.08913383-.1528768-.13342045-2.5443836-.13342045-4.94301374z" fill="#7cbd6c"/><path d="m13.5177893 7.45808219-4.71652481 2.71835621-4.64420864-2.59232881 4.71680506-2.71753425z" fill="#60a434"/><path d="m13.1932076 2.35643836c2.089039 1.20328767 4.1503288 2.44164383 4.2728177 2.61561643l-4.2223646 2.43287672-4.40623815-2.53835617 2.20311905-1.26958904z" fill="#569b1e"/><path d="m17.5994457 9.91506849v.05835617l-4.355785 2.51013694-4.40623815-2.53917804 4.40623815-2.53945205z" fill="#2e7318"/><path d="m17.4660253 4.97205479c.0880126.19369863.1317387 2.56410959.1334204 4.9430137l-4.355785-2.51013698z" fill="#235413"/><path d="m17.4660253 14.9164384c-.0896944.1542465-2.1734078 1.4063013-4.2728177 2.6156164l-4.35578505-2.5093151 4.40623815-2.5391781z" fill="#34821a"/><path d="m17.5986048 9.97342466c0 2.38273974-.043726 4.75232874-.1325795 4.94301374l-4.2223646-2.4328768z" fill="#286314"/><path d="m4.78407587 7.20191781-4.70839621 2.71315068.00812856-1.68383561.107353-3.17041096.01793889-.08876713c.01261327-.02109589.06306638-.06410958.14827608-.12438356z" fill="#8bc27b"/><path d="m4.48163751 2.35643836 4.35578504 2.51013698-4.40595785 2.53835617-4.22236459-2.43287672c.08885353-.15424657 2.17340779-1.40630137 4.2725374-2.61561643z" fill="#81b967"/><path d="m8.83742255 9.94438356-4.40595785 2.53917804-4.40623815-2.53917804 4.40623815-2.53945205z" fill="#6fb75c"/><path d="m.20910011 14.9164384 4.22236459-2.4328768 4.40595785 2.5391781-4.35578504 2.510137c-2.08287249-1.199726-4.15032876-2.4416438-4.2725374-2.6164383z" fill="#64b04e"/><path d="m13.2436607 12.4835616-4.40623815 2.5391781-4.40595785-2.5391781 4.40595785-2.53917804z" fill="#58aa41"/><path d="m13.1932076 17.5328767c-2.0823119 1.1989041-4.17863858 2.3556165-4.35578505 2.3556165s-2.27347313-1.1567124-4.35578504-2.3556165l4.35578504-2.510137z" fill="#4da634"/></g><path d="m31.236 11.082c.8880044 0 1.6949964.203998 2.421.612s1.3019979.9929962 1.728 1.755.639 1.646995.639 2.655-.2129979 1.8959962-.639 2.664-1.0019964 1.3589979-1.728 1.773-1.5329956.621-2.421.621c-1.2840064 0-2.2439968-.3779962-2.88-1.134v.972h-3.258v-13.356h3.42v4.446c.6600033-.6720034 1.5659942-1.008 2.718-1.008zm-.72 7.362c.600003 0 1.0919981-.2069979 1.476-.621s.576-.9869963.576-1.719c0-.7200036-.1919981-1.283998-.576-1.692s-.875997-.612-1.476-.612-1.0919981.203998-1.476.612-.576.9719964-.576 1.692c0 .7320037.1919981 1.3049979.576 1.719s.875997.621 1.476.621zm16.7895-7.2v9.756h-3.258v-1.044c-.3600018.396002-.7919975.695999-1.296.9s-1.0379972.306-1.602.306c-1.2600063 0-2.2649962-.3719963-3.015-1.116s-1.125-1.8599926-1.125-3.348v-5.454h3.42v4.896c0 .7320037.1379986 1.2659983.414 1.602s.6779974.504 1.206.504c.5400027 0 .9809983-.1889981 1.323-.567s.513-.9569961.513-1.737v-4.698zm7.9875-.162c1.2120061 0 2.1869963.3599964 2.925 1.08s1.107 1.8059927 1.107 3.258v5.58h-3.42v-5.022c0-1.3320067-.5339947-1.998-1.602-1.998-.5880029 0-1.0589982.1919981-1.413.576s-.531.9599962-.531 1.728v4.716h-3.42v-9.756h3.258v1.062c.3840019-.396002.8399974-.6989989 1.368-.909s1.1039969-.315 1.728-.315zm16.1235-3.438v13.356h-3.258v-.972c-.6360032.7560038-1.5899936 1.134-2.862 1.134-.8880044 0-1.6979963-.2069979-2.43-.621s-1.3109979-1.0049962-1.737-1.773-.639-1.655995-.639-2.664.2129979-1.8929962.639-2.655 1.0049963-1.346998 1.737-1.755 1.5419956-.612 2.43-.612c1.1640058 0 2.0639968.3359966 2.7 1.008v-4.446zm-5.4 10.8c.5880029 0 1.0739981-.2069979 1.458-.621s.576-.9869963.576-1.719c0-.7200036-.1889981-1.283998-.567-1.692s-.866997-.612-1.467-.612-1.0919981.203998-1.476.612-.576.9719964-.576 1.692c0 .7320037.1919981 1.3049979.576 1.719s.875997.621 1.476.621zm7.0335-10.8h3.42v13.356h-3.42zm15.0435 8.496c0 .0240001-.0179998.3059973-.054.846h-7.092c.1440007.5040025.4229979.8909986.837 1.161.4140021.2700013.9329969.405 1.557.405.4680023 0 .8729983-.0659993 1.215-.198s.6869983-.3479985 1.035-.648l1.8 1.872c-.9480047 1.0560053-2.3339909 1.584-4.158 1.584-1.1400057 0-2.1419957-.2159978-3.006-.648s-1.5329976-1.0319962-2.007-1.8-.711-1.6379951-.711-2.61c0-.9600048.2309977-1.8209962.693-2.583s1.1009959-1.3589978 1.917-1.791 1.7339949-.648 2.754-.648c.9720049 0 1.853996.200998 2.646.603s1.4189977.9839962 1.881 1.746.693 1.6649948.693 2.709zm-5.202-2.628c-.5280026 0-.9689982.1499985-1.323.45s-.5789995.7079974-.675 1.224h3.996c-.0960005-.5160026-.3209982-.9239985-.675-1.224s-.7949974-.45-1.323-.45z" fill="#3b4146" fill-rule="nonzero"/></g></svg>