<?xml version="1.0" encoding="UTF-8" standalone="no"?>
<svg
   xmlns:dc="http://purl.org/dc/elements/1.1/"
   xmlns:cc="http://creativecommons.org/ns#"
   xmlns:rdf="http://www.w3.org/1999/02/22-rdf-syntax-ns#"
   xmlns:svg="http://www.w3.org/2000/svg"
   xmlns="http://www.w3.org/2000/svg"
   xmlns:sodipodi="http://sodipodi.sourceforge.net/DTD/sodipodi-0.dtd"
   xmlns:inkscape="http://www.inkscape.org/namespaces/inkscape"
   viewBox="38 366.8 97.4 105.1"
   version="1.1"
   id="svg25"
   sodipodi:docname="tradetracker-logo-xs.svg"
   width="97.400002"
   height="105.1"
   inkscape:version="0.92.3 (2405546, 2018-03-11)">
  <metadata
     id="metadata31">
    <rdf:RDF>
      <cc:Work
         rdf:about="">
        <dc:format>image/svg+xml</dc:format>
        <dc:type
           rdf:resource="http://purl.org/dc/dcmitype/StillImage" />
      </cc:Work>
    </rdf:RDF>
  </metadata>
  <defs
     id="defs29" />
  <sodipodi:namedview
     pagecolor="#ffffff"
     bordercolor="#666666"
     borderopacity="1"
     objecttolerance="10"
     gridtolerance="10"
     guidetolerance="10"
     inkscape:pageopacity="0"
     inkscape:pageshadow="2"
     inkscape:window-width="1820"
     inkscape:window-height="1046"
     id="namedview27"
     showgrid="false"
     inkscape:zoom="2.7571832"
     inkscape:cx="244.24694"
     inkscape:cy="47.978804"
     inkscape:window-x="89"
     inkscape:window-y="-11"
     inkscape:window-maximized="1"
     inkscape:current-layer="g22" />
  <g
     id="logo">
    <path
       id="tt-globe-yellow"
       style="fill:#f4982b"
       d="m 67.9,471.9 c 8.5,0 15.3,-6.9 15.3,-15.3 0,-8.5 -6.9,-15.3 -15.3,-15.3 -8.5,0 -15.3,6.9 -15.3,15.3 0,8.4 6.8,15.3 15.3,15.3 z m 0,-5.4 c -5.5,0 -10,-4.5 -10,-10 0,-5.5 4.5,-10 10,-10 5.5,0 10,4.5 10,10 0,5.6 -4.5,10 -10,10 z"
       inkscape:connector-curvature="0" />
    <path
       id="tt-globe-green"
       style="fill:#73b72b"
       d="m 98.4,459.2 c 14.5,0 26.3,-11.8 26.3,-26.3 0,-14.5 -11.8,-26.3 -26.3,-26.3 -14.5,0 -26.3,11.8 -26.3,26.3 0,2.4 0.3,4.6 0.9,6.8 7,2.1 12.1,8.5 12.4,16.1 3.8,2.2 8.3,3.4 13,3.4 z m 0,-9.1 c -9.5,0 -17.2,-7.7 -17.2,-17.2 0,-9.5 7.7,-17.2 17.2,-17.2 9.5,0 17.2,7.7 17.2,17.2 -0.1,9.5 -7.8,17.2 -17.2,17.2 z"
       inkscape:connector-curvature="0" />
    <path
       id="tt-globe-blue"
       style="fill:#4e91ce"
       d="m 100.1,404 c 0.4,-1.9 0.6,-3.9 0.6,-5.9 -0.1,-17.3 -14.1,-31.3 -31.4,-31.3 -17.3,0 -31.3,14 -31.3,31.3 0,17 13.6,30.9 30.5,31.3 0.5,-4 1.8,-7.7 3.7,-11.1 -0.9,0.1 -1.9,0.2 -2.9,0.2 -11.3,0 -20.5,-9.2 -20.5,-20.5 0,-11.3 9.2,-20.3 20.5,-20.3 11.3,0 20.5,9.1 20.5,20.4 0,2.5 -0.5,4.9 -1.3,7.1 2.8,-0.9 5.8,-1.4 8.9,-1.4 0.9,0.1 1.8,0.1 2.7,0.2 z"
       inkscape:connector-curvature="0" />
    <path
       id="tt-globe-red"
       style="fill:#e52d12"
       d="m 116.7,407.2 c 10.3,0 18.7,-8.4 18.7,-18.7 0,-10.3 -8.4,-18.7 -18.7,-18.7 -7.8,0 -14.4,4.7 -17.3,11.4 2.9,5 4.6,10.8 4.6,16.9 0,1.3 -0.1,2.7 -0.2,4 3.3,3.2 7.9,5.1 12.9,5.1 z m 0,-6.5 c -6.8,0 -12.2,-5.5 -12.2,-12.2 0,-6.8 5.5,-12.2 12.2,-12.2 6.8,0 12.2,5.5 12.2,12.2 0,6.8 -5.5,12.2 -12.2,12.2 z"
       inkscape:connector-curvature="0" />
    <g
       id="g22" />
  </g>
</svg>
