<?xml version="1.0" encoding="utf-8"?>
<!DOCTYPE svg PUBLIC "-//W3C//DTD SVG 1.1//EN" "http://www.w3.org/Graphics/SVG/1.1/DTD/svg11.dtd">
<svg version="1.1" id="Ebene_1" xmlns="http://www.w3.org/2000/svg" xmlns:xlink="http://www.w3.org/1999/xlink" x="0px" y="0px"
	 width="508.17px" height="115.5px" viewBox="84.915 217.75 508.17 115.5" enable-background="new 84.915 217.75 508.17 115.5"
	 xml:space="preserve">
<g>
	<g>
		<path fill="#6F6F6E" d="M357.242,282.184c0-1.77-0.623-3.132-1.865-4.089c-1.243-0.954-3.483-1.924-6.726-2.899
			c-3.24-0.975-5.817-2.063-7.732-3.259c-3.664-2.302-5.496-5.305-5.496-9.003c0-3.241,1.32-5.911,3.964-8.01
			s6.072-3.148,10.289-3.148c2.798,0,5.293,0.516,7.484,1.546c2.188,1.032,3.911,2.5,5.163,4.406
			c1.251,1.904,1.877,4.017,1.877,6.338h-6.958c0-2.082-0.659-3.712-1.977-4.889c-1.318-1.179-3.198-1.768-5.648-1.768
			c-2.284,0-4.057,0.486-5.316,1.458c-1.262,0.972-1.892,2.33-1.892,4.071c0,1.465,0.681,2.69,2.043,3.672
			c1.362,0.98,3.609,1.934,6.739,2.86c3.132,0.926,5.645,1.983,7.54,3.171c1.896,1.187,3.289,2.551,4.172,4.086
			c0.884,1.54,1.325,3.338,1.325,5.401c0,3.35-1.283,6.016-3.853,7.994c-2.568,1.981-6.053,2.971-10.453,2.971
			c-2.91,0-5.584-0.541-8.022-1.617c-2.442-1.077-4.336-2.564-5.689-4.459c-1.355-1.896-2.031-4.105-2.031-6.629h6.988
			c0,2.281,0.754,4.051,2.266,5.303c1.508,1.251,3.673,1.88,6.489,1.88c2.43,0,4.258-0.492,5.482-1.479
			C356.631,285.109,357.242,283.805,357.242,282.184z"/>
		<path fill="#6F6F6E" d="M376.326,265.918c2.189-2.542,4.962-3.814,8.314-3.814c6.368,0,9.602,3.638,9.693,10.91v19.527h-6.711
			v-19.278c0-2.062-0.446-3.521-1.34-4.377c-0.893-0.855-2.205-1.283-3.935-1.283c-2.689,0-4.695,1.196-6.021,3.59v21.349h-6.71
			v-42.424h6.71V265.918L376.326,265.918z"/>
		<path fill="#6F6F6E" d="M399.857,277.324c0-2.93,0.579-5.566,1.74-7.915c1.159-2.348,2.789-4.152,4.889-5.414
			c2.1-1.26,4.512-1.893,7.236-1.893c4.031,0,7.306,1.298,9.819,3.895c2.513,2.596,3.872,6.039,4.071,10.329l0.03,1.577
			c0,2.945-0.568,5.579-1.7,7.898c-1.133,2.319-2.752,4.114-4.86,5.387c-2.108,1.269-4.542,1.905-7.306,1.905
			c-4.217,0-7.591-1.405-10.123-4.213c-2.531-2.809-3.797-6.551-3.797-11.228L399.857,277.324L399.857,277.324z M406.567,277.903
			c0,3.073,0.635,5.482,1.906,7.22c1.271,1.74,3.038,2.61,5.303,2.61s4.027-0.881,5.289-2.647c1.261-1.77,1.893-4.356,1.893-7.762
			c0-3.02-0.65-5.415-1.948-7.181c-1.298-1.769-3.062-2.651-5.289-2.651c-2.191,0-3.932,0.87-5.219,2.609
			C407.214,271.84,406.567,274.441,406.567,277.903z"/>
		<path fill="#6F6F6E" d="M459.486,277.903c0,4.621-1.049,8.309-3.148,11.062c-2.099,2.753-4.916,4.129-8.451,4.129
			c-3.278,0-5.902-1.079-7.872-3.232v14.169h-6.711v-41.373h6.186l0.276,3.038c1.971-2.393,4.65-3.591,8.038-3.591
			c3.646,0,6.504,1.359,8.577,4.074c2.072,2.716,3.106,6.486,3.106,11.309L459.486,277.903L459.486,277.903z M452.803,277.324
			c0-2.985-0.594-5.351-1.782-7.1c-1.188-1.749-2.885-2.624-5.096-2.624c-2.742,0-4.713,1.132-5.91,3.396v13.257
			c1.214,2.321,3.202,3.479,5.966,3.479c2.136,0,3.808-0.861,5.013-2.581C452.199,283.429,452.803,280.822,452.803,277.324z"/>
		<path fill="#6F6F6E" d="M491.331,277.903c0,4.621-1.048,8.309-3.147,11.062c-2.098,2.753-4.915,4.129-8.45,4.129
			c-3.278,0-5.902-1.079-7.872-3.232v14.169h-6.711v-41.373h6.186l0.276,3.038c1.97-2.393,4.65-3.591,8.038-3.591
			c3.646,0,6.504,1.359,8.576,4.074c2.073,2.716,3.107,6.486,3.107,11.309v0.416L491.331,277.903L491.331,277.903z M484.648,277.324
			c0-2.985-0.594-5.351-1.783-7.1c-1.187-1.749-2.885-2.624-5.095-2.624c-2.743,0-4.713,1.132-5.911,3.396v13.257
			c1.214,2.321,3.203,3.479,5.966,3.479c2.136,0,3.808-0.861,5.013-2.581C484.044,283.429,484.648,280.822,484.648,277.324z"/>
		<path fill="#6F6F6E" d="M497.021,254.868c0-1.039,0.326-1.902,0.98-2.588c0.652-0.686,1.588-1.029,2.803-1.029
			c1.217,0,2.155,0.343,2.817,1.029c0.663,0.687,0.996,1.549,0.996,2.588c0,1.021-0.333,1.87-0.996,2.546
			c-0.661,0.678-1.601,1.017-2.817,1.017c-1.215,0-2.148-0.339-2.803-1.017C497.348,256.738,497.021,255.889,497.021,254.868z
			 M504.147,292.541h-6.713v-29.884h6.713V292.541z"/>
		<path fill="#6F6F6E" d="M517.681,262.657l0.191,3.453c2.211-2.67,5.11-4.006,8.701-4.006c6.224,0,9.39,3.565,9.5,10.69v19.747
			h-6.71v-19.36c0-1.896-0.41-3.3-1.229-4.212c-0.819-0.911-2.158-1.366-4.018-1.366c-2.706,0-4.725,1.224-6.05,3.673v21.266h-6.711
			v-29.884h6.326V262.657z"/>
		<path fill="#6F6F6E" d="M541.735,277.377c0-4.638,1.091-8.344,3.273-11.116c2.182-2.769,5.077-4.157,8.687-4.157
			c3.406,0,6.085,1.188,8.036,3.565l0.305-3.012h6.05v28.974c0,3.92-1.22,7.013-3.659,9.277c-2.44,2.267-5.731,3.398-9.874,3.398
			c-2.191,0-4.332-0.457-6.423-1.367c-2.089-0.911-3.678-2.104-4.764-3.577l3.177-4.03c2.062,2.447,4.604,3.673,7.623,3.673
			c2.226,0,3.986-0.603,5.275-1.811c1.286-1.208,1.933-2.977,1.933-5.316v-2.017c-1.933,2.153-4.511,3.232-7.732,3.232
			c-3.499,0-6.356-1.391-8.576-4.173C542.846,286.144,541.735,282.295,541.735,277.377z M548.42,277.959
			c0,3,0.612,5.363,1.836,7.083c1.224,1.723,2.923,2.581,5.096,2.581c2.706,0,4.714-1.158,6.021-3.478v-13.147
			c-1.271-2.265-3.259-3.396-5.966-3.396c-2.208,0-3.927,0.875-5.15,2.624C549.032,271.973,548.42,274.552,548.42,277.959z"/>
	</g>
	<path fill="#EA4335" d="M195.063,277.219c0,9.423-7.371,16.366-16.418,16.366c-9.048,0-16.417-6.943-16.417-16.366
		c0-9.49,7.37-16.369,16.417-16.369C187.692,260.851,195.063,267.729,195.063,277.219 M187.876,277.219
		c0-5.889-4.273-9.918-9.232-9.918s-9.231,4.029-9.231,9.918c0,5.829,4.272,9.918,9.231,9.918
		C183.602,287.137,187.876,283.043,187.876,277.219"/>
	<path fill="#FBBC05" d="M230.483,277.219c0,9.423-7.373,16.366-16.418,16.366c-9.047,0-16.419-6.943-16.419-16.366
		c0-9.483,7.372-16.369,16.419-16.369C223.11,260.851,230.483,267.729,230.483,277.219 M223.295,277.219
		c0-5.889-4.273-9.918-9.23-9.918c-4.959,0-9.231,4.029-9.231,9.918c0,5.829,4.272,9.918,9.231,9.918
		C219.021,287.137,223.295,283.043,223.295,277.219"/>
	<path fill="#4285F4" d="M264.425,261.841v29.382c0,12.089-7.127,17.027-15.554,17.027c-7.933,0-12.706-5.308-14.507-9.646
		l6.256-2.605c1.115,2.666,3.846,5.809,8.243,5.809c5.395,0,8.737-3.329,8.737-9.594v-2.354h-0.25
		c-1.609,1.984-4.708,3.719-8.62,3.719c-8.184,0-15.681-7.127-15.681-16.299c0-9.238,7.498-16.426,15.681-16.426
		c3.902,0,7.001,1.734,8.62,3.661h0.25v-2.664h6.824v-0.01H264.425z M258.111,277.278c0-5.762-3.844-9.976-8.737-9.976
		c-4.959,0-9.112,4.214-9.112,9.976c0,5.703,4.153,9.859,9.112,9.859C254.267,287.137,258.111,282.981,258.111,277.278"/>
	<rect x="268.67" y="244.618" fill="#34A853" width="7.011" height="47.963"/>
	<path fill="#EA4335" d="M303,282.606l5.577,3.719c-1.798,2.663-6.139,7.255-13.635,7.255c-9.299,0-16.243-7.188-16.243-16.366
		c0-9.735,7.003-16.368,15.438-16.368c8.493,0,12.647,6.76,14.006,10.412l0.745,1.859l-21.881,9.062
		c1.676,3.285,4.281,4.959,7.935,4.959C298.601,287.137,301.14,285.339,303,282.606z M285.829,276.719l14.625-6.074
		c-0.805-2.044-3.225-3.469-6.073-3.469C290.728,267.175,285.642,270.401,285.829,276.719"/>
	<path fill="#4285F4" d="M135.69,272.961v-6.943h23.4c0.229,1.21,0.348,2.641,0.348,4.192c0,5.209-1.425,11.651-6.015,16.24
		c-4.464,4.65-10.169,7.13-17.726,7.13c-14.005,0-25.783-11.407-25.783-25.416c0-14.004,11.778-25.414,25.783-25.414
		c7.748,0,13.269,3.04,17.416,7.001l-4.899,4.901c-2.974-2.791-7.003-4.96-12.524-4.96c-10.228,0-18.226,8.243-18.226,18.471
		c0,10.227,7.998,18.468,18.226,18.468c6.634,0,10.413-2.663,12.833-5.081c1.961-1.964,3.253-4.77,3.761-8.599L135.69,272.961z"/>
</g>
</svg>
