<?xml version="1.0" encoding="UTF-8" standalone="no"?>
<!DOCTYPE svg PUBLIC "-//W3C//DTD SVG 1.1//EN" "http://www.w3.org/Graphics/SVG/1.1/DTD/svg11.dtd">
<svg width="100%" height="100%" viewBox="0 0 1196 267" version="1.1" xmlns="http://www.w3.org/2000/svg" xmlns:xlink="http://www.w3.org/1999/xlink" xml:space="preserve" style="fill-rule:evenodd;clip-rule:evenodd;stroke-linejoin:round;stroke-miterlimit:1.41421;">
    <g transform="matrix(0.999598,0,0,1,-67.3955,-68.6274)">
        <g id="Layer-1">
            <path d="M858.33,259.423C848.201,270.912 828.904,290.74 824.91,304.595C820.643,319.403 833.062,328.762 844.202,322.792C859.735,314.468 858.556,274.673 858.33,259.423ZM1052.92,193.719C1054.56,175.891 1052.52,147.299 1036.31,147.356C1025.96,147.393 1016.71,161.35 1014.99,187.185C1013.09,215.682 1016.95,231.551 1028.93,233.781C1038.8,235.618 1052.05,223.417 1052.92,193.719ZM855.218,193.719C855.761,175.17 856.246,162.268 852.008,154.881C841.962,137.371 819.761,150.024 817.286,187.185C815.388,215.682 819.248,231.551 831.233,233.781C841.103,235.618 854.349,223.417 855.218,193.719ZM1207.42,160.609C1206.84,165.657 1206.69,170.809 1206.68,175.918C1206.65,183.717 1206.64,191.53 1207.08,199.318C1207.61,208.569 1208.62,217.576 1210.51,224.365C1211.45,227.752 1212.59,230.742 1213.94,233.362C1218.55,242.336 1226.73,249.288 1237.33,249.288C1249.88,249.288 1257.77,239.831 1261.06,228.713C1261.84,226.07 1262.53,223.516 1263.03,220.724C1263.56,217.791 1264.88,208.603 1262.64,206.637C1261.88,205.965 1260.92,205.478 1259.83,205.478C1257.73,205.478 1256.38,206.658 1255.96,208.395C1255.12,211.797 1253.9,217.312 1252.73,221.113C1250.68,227.733 1247.6,234.068 1242.39,234.068C1232.81,234.068 1230.68,215.648 1230.22,209.678C1229.65,202.312 1229.61,193.935 1229.42,187.468L1229.42,164.328L1230.34,152.196C1230.57,149.21 1231.04,146.936 1230.28,144.064C1229.63,141.602 1228.17,139.468 1226.21,137.965C1222.1,134.822 1210.95,130.943 1206.7,130.943C1204.35,130.943 1202.21,131.896 1200.66,133.436C1198.97,135.117 1197.68,138.218 1196.81,140.311C1194.63,145.572 1192.74,150.292 1191.12,154.777C1189.12,160.287 1186.44,169.113 1184.28,177.669C1182.78,183.584 1181.78,188.89 1180.87,194.719C1180.73,195.594 1180.73,195.832 1180.6,196.708C1180.59,196.738 1180.52,197.289 1180.44,197.477C1180.23,197.992 1179.59,197.857 1179.5,197.307C1179.38,196.612 1179.32,196.014 1179.26,195.311C1178.1,181.72 1176.91,167.557 1177.24,153.849C1177.32,150.335 1177.42,146.117 1176.73,143.537C1176.15,141.353 1175.05,139.381 1173.58,137.758C1170.04,133.88 1163.96,132.023 1159.02,131.373C1156.59,131.054 1153.68,130.513 1151.52,131.788C1149.47,132.988 1147.84,136.29 1146.88,138.198C1140.66,150.645 1135.69,167.236 1131.1,181.059L1131.27,141.167C1131.27,140.252 1131.33,138.692 1131.1,137.785C1130.81,136.64 1130.13,135.652 1129.22,134.955C1128.91,134.72 1127.71,134.161 1126.74,133.889C1122.67,132.747 1118.85,131.933 1114.62,131.316C1113.69,131.182 1112.27,130.954 1111.34,130.954C1109.8,130.954 1108.52,131.864 1107.87,133.157C1106.66,135.579 1106.72,180.723 1106.83,199.306C1106.21,204.348 1105.26,210.98 1103.37,217.208C1101.77,222.472 1096.39,233.237 1090.06,234.501C1083.35,235.837 1079.49,228.892 1077.97,218.117C1076.02,200.505 1076.87,167.407 1077.94,148.78C1078.46,139.742 1080.14,136.349 1070.61,133.894C1064.12,132.227 1060.2,131.973 1057.53,132.371C1054.76,132.783 1053.47,136.115 1053.91,142.035C1045.64,129.38 1033.77,127.591 1025.45,128.489C1005.96,130.594 992.051,159.129 989.674,180.773C988.226,193.963 989.471,205.966 991.081,215.95C990.613,222.631 989.579,234.732 977.566,234.068C967.655,233.52 961.957,217.246 963.712,195.433C964.826,181.591 969.387,162.069 970.719,155.573C973.638,141.339 965.298,138.597 953.608,140.159C947.457,140.981 939.001,142.749 929.689,144.314C931.634,137.158 930.899,129.492 925.341,126.838C920.27,124.417 911.5,124.913 906.552,130.363C899.532,138.095 897.682,151.91 908.345,158.886C907.043,169.648 894.839,198.886 879.334,219.395C879.575,207.63 880.784,154.757 880.179,140.649C879.961,135.558 875.424,133.574 871.293,132.686C870.653,132.549 865.337,132.038 865.337,131.985C862.515,131.749 859.852,132.131 857.975,133.639C855.563,135.578 855.677,137.824 855.99,142.13C847.165,128.617 834.793,127.507 825.952,129.272C807.366,132.98 794.315,159.457 791.973,180.773C791.031,189.353 790.971,197.798 791.469,205.44C791.667,208.478 791.946,211.373 792.361,214.149C789.405,224.815 784.417,233.137 778.132,234.501C771.452,235.95 767.564,228.892 766.051,218.117C764.097,200.505 764.947,167.407 766.019,148.78C766.539,139.742 768.221,136.349 758.681,133.894C752.2,132.227 748.281,131.973 745.607,132.371C742.84,132.783 741.542,136.115 741.985,142.035C733.719,129.38 721.843,127.591 713.529,128.489C694.04,130.594 680.128,159.129 677.75,180.773C676.913,188.396 676.976,195.623 677.489,202.293C675.989,206.919 673.597,212.71 671.766,216.167C659.987,238.394 646.863,235.743 644.784,208.729C644.145,200.436 643.982,191.672 643.982,183.327C644.65,164.077 645.318,144.829 645.986,125.58C656.577,125.665 667.316,125.603 678.45,125.269C682.956,125.134 685.861,110.376 681.671,110.084C669.95,109.269 658.284,108.523 646.601,107.851L647.673,76.975C647.673,76.88 647.677,76.788 647.612,76.566C646.991,74.439 645.344,73.558 643.318,72.891C640.938,72.107 637.135,70.913 633.497,70.004C628.274,68.699 621.18,66.889 620.629,74.822C620.214,80.787 619.78,92.842 619.408,106.421C611.254,106.034 603.066,105.683 594.818,105.368C589.992,105.184 584.348,124.297 592.058,124.464C601.164,124.661 610.08,124.901 618.954,125.111C618.68,137.91 617.616,165.599 617.635,189.5C613.019,201.492 606.608,212.996 598.801,219.129C601.026,211.295 600.227,196.229 583.042,182.949C576.954,178.246 569.649,172.673 559.418,164.989C565.818,157.16 572.734,146.077 572.877,137.587C572.964,132.343 568.945,127.348 559.92,127.412C543.616,127.528 532.698,142.724 532.746,155.248C532.776,163.145 537.803,168.724 539.982,171.619C513.661,220.88 507.831,226.914 502.79,226.914C499.515,226.914 498.014,219.766 498.267,197.76C498.493,178.062 499.865,164.784 499.874,148.792C499.878,142.108 495.681,138.283 491.386,135.835C489.007,134.479 478.638,130.63 475.545,130.538C471.018,130.403 464.511,134.572 459.095,140.614C446.474,154.692 439.434,176.177 433.487,194.093L433.655,141.167C433.658,140.252 433.714,138.691 433.486,137.785C432.914,135.503 431.255,134.485 429.132,133.889C425.135,132.769 417.891,130.954 413.73,130.954C412.191,130.954 411.126,132.015 410.649,133.322C410.239,134.443 410.563,159.495 410.414,185.68C410.317,202.944 410.185,219.578 410.506,230.435C410.846,241.937 411.066,249.228 425.798,249.288C432.664,249.316 434.188,249.497 435.158,243.745C438.467,224.109 449.314,176.46 473.043,151.11C473.783,150.412 475.167,150.84 475.067,152.44C473.481,177.853 471.637,207.996 475.028,232.669C475.991,239.672 480.176,250.351 488.712,250.351C500.203,250.351 508.563,247.743 530.452,212.579C535.808,203.975 541.872,193.584 549.218,180.799C553.71,184.883 558.263,188.901 562.692,193.053C570.791,200.646 575.271,208.652 575.443,215.991C575.655,225.021 571.009,232.697 563.656,232.664C553.324,232.618 548.163,222.621 541.951,222.639C535.426,222.657 530.188,234.104 530.241,239.037C530.302,244.681 545.08,251.201 564.062,251.171C578.461,251.149 589.865,245.583 599.652,236.864C607.356,230.001 615.17,216.609 619.515,205.699C620.253,224.673 630.591,249.288 648.348,249.288C656.776,249.288 664.944,243.629 671.263,235.62C675.494,230.256 677.937,225.988 680.47,219.756C682.089,225.077 684.353,230.937 686.146,233.659C691.445,241.706 698.52,248.959 709.003,249.641C720.939,250.418 728.924,246.085 735.13,240.121C739.884,235.551 742.571,231.646 746.014,225.615C747.324,237.945 758.933,249.75 772.953,249.484C785.979,249.236 792.3,239.121 795.951,227.416C797.207,230.348 798.798,233.165 800.823,235.91C816.156,256.681 841.078,252.666 856.9,231.861C856.992,236.672 857.091,241.379 857.099,242.707C843.168,256.055 827.373,268.381 815.727,283.084C808.394,292.341 805.369,302.621 805.808,310.141C806.688,325.216 822.995,335.627 837.631,335.627C866.381,335.627 875.428,314.073 879.708,284.035C881.999,267.947 880.187,251.502 880.539,236.896C898.008,216.663 919.176,184.344 925.351,158.834L942.356,158.413C943.178,158.393 944.293,158.51 944.882,159.099C945.366,159.583 944.859,160.958 944.511,162.723C940.055,185.314 934.015,211.631 945.314,232.392C950.736,242.353 959.16,249.409 970.937,249.61C981.851,249.802 991.686,240.623 996.77,231.616C1002.2,240.44 1009.56,248.901 1020.93,249.641C1032.86,250.418 1040.85,246.085 1047.05,240.121C1051.81,235.551 1054.5,231.646 1057.94,225.615C1058.67,227.955 1059.32,231.695 1060.4,233.758C1065.09,242.645 1073.82,249.26 1081.99,249.583C1098.78,250.249 1102.88,239.161 1106.94,230.792C1107.02,234.229 1107.48,241.222 1108.02,243.768C1108.29,245.041 1109.21,245.975 1110.35,246.546C1114.53,248.634 1120.16,249.318 1125.36,249.288C1128.55,249.27 1132.98,249.72 1134.95,246.768C1136.08,245.074 1136.01,241.408 1136.11,239.374C1136.5,231.379 1136.78,217.93 1137.29,212.679C1138.98,198.181 1140.95,190.309 1144.75,180.987C1147.1,175.206 1149.1,169.142 1153.81,161.167C1154.04,160.775 1154.45,160.492 1154.93,160.492C1155.82,160.492 1156.18,161.258 1156.19,161.911C1156.33,168.459 1156.45,174.442 1156.74,180.045C1157.53,195.536 1158.82,208.122 1161.2,221.622C1161.64,224.126 1162.09,226.962 1162.88,229.39C1165.05,235.977 1171.25,240.733 1178.56,240.733C1180.79,240.733 1182.91,240.291 1184.85,239.493C1185.4,239.264 1185.95,238.985 1186.45,238.648C1187.44,237.982 1187.96,237.325 1188.23,236.152C1188.39,235.394 1188.37,234.5 1188.39,233.704C1188.41,233.04 1188.43,232.382 1188.45,231.73C1188.88,220.038 1189.96,210.279 1192.34,200.162C1196.13,183.995 1200.91,168.864 1206,159.723C1206.18,159.387 1206.35,158.956 1206.8,158.956C1207.16,158.956 1207.4,159.213 1207.44,159.559C1207.47,159.874 1207.44,160.388 1207.42,160.609ZM335.241,139.704C334.872,123.71 345.927,95.329 358.303,85.811C359.423,84.95 361.401,83.533 361.401,86.216C361.401,133.993 361.401,181.669 361.401,229.446C361.401,236.947 359.579,248.098 358.071,256.439C357.583,259.134 351.971,273.101 356.442,273.101C360.548,273.101 369.251,267.189 372.356,263.881C378.375,257.469 382.656,249.033 385.016,240.247C386.426,234.997 387.151,222.676 387.151,217.532L387.151,76.518L387.15,76.517C387.146,76.445 387.133,76.356 387.091,76.21C385.856,71.986 373.249,68.606 369.479,68.606C344.399,68.61 312.901,110.093 312.901,142.914C312.901,156.952 323.955,171.184 335.162,175.833C339.76,177.74 342.904,177.726 344.061,176.112C345.174,174.56 344.604,171.659 341.89,167.668C337.069,160.581 335.417,147.359 335.241,139.704ZM740.995,193.719C742.639,175.891 740.592,147.299 724.382,147.356C714.038,147.393 704.785,161.35 703.064,187.185C701.166,215.682 705.025,231.551 717.01,233.781C726.88,235.618 740.127,223.417 740.995,193.719ZM239.073,91.41L217.269,91.41C212.385,91.41 208.386,95.409 208.386,100.293L208.386,122.498C208.386,127.383 212.384,131.38 217.269,131.38L239.073,131.38C243.959,131.38 247.956,127.384 247.956,122.498L247.956,100.293C247.956,95.407 243.959,91.41 239.073,91.41ZM169.864,131.167C191.811,131.167 209.602,148.958 209.602,170.905C209.602,192.852 191.811,210.643 169.864,210.643C147.918,210.643 130.126,192.852 130.126,170.905C130.126,148.958 147.918,131.167 169.864,131.167ZM101.682,250.422L239.194,250.422C245.254,250.422 247.933,247.49 247.933,241.429L247.933,154.444L230.188,154.444C231.616,159.689 232.383,165.207 232.383,170.905C232.383,205.433 204.392,233.424 169.864,233.424C135.336,233.424 107.346,205.433 107.346,170.905C107.346,165.207 108.112,159.689 109.54,154.444L91.796,154.444L91.796,241.429C91.796,248.551 95.163,250.422 101.682,250.422ZM247.67,68.606C261.22,68.606 272.306,79.692 272.306,93.242L272.306,248.567C272.306,262.117 261.219,273.203 247.67,273.203L92.059,273.203C78.509,273.203 67.423,262.117 67.423,248.567L67.423,93.242C67.423,79.692 78.509,68.606 92.059,68.606L247.67,68.606Z" style="fill:rgb(18,87,135);"/>
        </g>
    </g>
</svg>
