<?xml version="1.0" encoding="UTF-8"?>
<svg width="401px" height="137px" viewBox="0 0 401 137" version="1.1" xmlns="http://www.w3.org/2000/svg" xmlns:xlink="http://www.w3.org/1999/xlink">
    <g id="Page-1" stroke="none" stroke-width="1" fill="none" fill-rule="evenodd">
        <g id="link">
            <path d="M399.186,4.688 C399.175,4.837 398.998,5.077 398.792,5.221 C398.585,5.365 398.496,5.486 398.593,5.491 C398.953,5.509 399.369,5.059 399.287,4.739 C399.227,4.501 399.2,4.487 399.186,4.688 M350.444,6.278 C350.253,6.47 350.323,6.667 350.583,6.667 C350.721,6.667 350.833,6.554 350.833,6.417 C350.833,6.156 350.636,6.086 350.444,6.278 M397.81,6.819 C397.594,6.994 397.468,7.189 397.531,7.252 C397.683,7.405 397.959,7.221 398.172,6.824 C398.39,6.417 398.308,6.416 397.81,6.819 M349.46,7.846 C349.301,7.938 349.092,8.161 348.996,8.34 C348.699,8.896 349.222,8.733 349.557,8.167 C349.882,7.615 349.878,7.602 349.46,7.846 M348.092,9.89 C347.925,10.012 347.817,10.181 347.852,10.265 C347.888,10.348 348.083,10.248 348.286,10.042 C348.691,9.63 348.574,9.537 348.092,9.89 M388.667,24.609 C388.437,24.73 388.362,24.828 388.5,24.828 C388.787,24.828 389.279,24.55 389.162,24.454 C389.119,24.418 388.896,24.488 388.667,24.609 M388,26.035 C388,26.177 387.831,26.416 387.625,26.568 L387.25,26.843 L387.634,26.661 C388.036,26.47 388.283,26.06 388.104,25.882 C388.047,25.825 388,25.894 388,26.035 M339.19,27.672 L338.796,28 L339.232,28 C339.556,28 339.667,27.915 339.667,27.667 C339.667,27.265 339.679,27.265 339.19,27.672 M386.333,28.104 C386.333,28.325 386.379,28.337 386.583,28.167 C386.721,28.053 386.833,27.931 386.833,27.896 C386.833,27.862 386.721,27.833 386.583,27.833 C386.446,27.833 386.333,27.955 386.333,28.104 M338,29.333 C337.817,29.517 337.667,29.754 337.667,29.861 C337.667,29.968 337.685,30.024 337.708,29.986 C337.731,29.948 337.932,29.71 338.154,29.458 C338.618,28.932 338.499,28.834 338,29.333 M336.83,31.254 C336.714,31.394 336.667,31.556 336.726,31.615 C336.785,31.674 336.833,31.632 336.833,31.522 C336.833,31.413 337.002,31.255 337.208,31.172 C337.462,31.07 337.496,31.018 337.312,31.011 C337.163,31.005 336.946,31.114 336.83,31.254 M376.416,47.501 C376.249,47.685 376.154,47.876 376.203,47.926 C376.314,48.036 376.833,47.537 376.833,47.321 C376.833,47.094 376.753,47.129 376.416,47.501 M376.381,48.542 C376.534,48.656 376.774,48.9 376.913,49.083 L377.167,49.417 L377.058,49.083 C376.896,48.59 376.658,48.333 376.364,48.333 C376.136,48.333 376.138,48.36 376.381,48.542 M47.381,62.708 C47.534,62.823 47.774,63.067 47.913,63.25 L48.167,63.583 L48.06,63.25 C47.944,62.888 47.535,62.5 47.27,62.5 C47.178,62.5 47.228,62.594 47.381,62.708 M336.667,64.736 C336.667,64.996 337.095,65.391 337.286,65.307 C337.358,65.276 337.248,65.084 337.042,64.881 C336.8,64.643 336.667,64.592 336.667,64.736 M385.333,66.25 C385.333,66.387 385.455,66.5 385.604,66.5 C385.825,66.5 385.837,66.455 385.667,66.25 C385.553,66.112 385.431,66 385.396,66 C385.362,66 385.333,66.112 385.333,66.25 M337.863,66.673 C337.903,66.791 338.118,67.007 338.342,67.152 L338.75,67.417 L338.486,67.009 C338.199,66.567 337.746,66.323 337.863,66.673 M386.333,67.808 C386.333,67.957 386.756,68.357 387.158,68.588 C387.292,68.665 387.231,68.492 387.021,68.197 C386.661,67.691 386.333,67.506 386.333,67.808 M387.76,69.903 C388.109,70.158 388.267,70.13 388.09,69.844 C388.03,69.747 387.858,69.667 387.708,69.667 C387.481,69.667 387.489,69.705 387.76,69.903 M202.673,70.779 C202.773,71.068 203.006,71.34 203.196,71.389 C203.521,71.474 203.518,71.456 203.147,71.031 C202.931,70.785 202.696,70.51 202.623,70.42 C202.55,70.331 202.573,70.492 202.673,70.779 M389.056,72.071 C389.161,72.294 389.273,72.449 389.305,72.417 C389.409,72.314 389.149,71.667 389.004,71.667 C388.928,71.667 388.951,71.849 389.056,72.071 M204.678,73.696 C204.663,74.057 205.11,74.503 205.47,74.489 C205.688,74.48 205.671,74.439 205.393,74.304 C205.196,74.209 204.957,73.971 204.862,73.774 C204.728,73.496 204.687,73.479 204.678,73.696 M206.672,76.719 C206.658,77.072 207.049,77.499 207.381,77.495 C207.741,77.49 207.742,77.485 207.417,77.299 C207.233,77.194 206.992,76.99 206.88,76.845 C206.769,76.701 206.675,76.645 206.672,76.719 M208.808,80 C208.901,80.268 209.095,80.43 209.351,80.454 C209.574,80.475 209.64,80.448 209.5,80.392 C209.362,80.338 209.118,80.133 208.957,79.938 L208.663,79.583 L208.808,80 M210.849,82.833 C210.834,83.179 211.024,83.42 211.417,83.556 C211.731,83.665 211.73,83.654 211.395,83.377 C211.2,83.216 211,82.971 210.95,82.833 C210.87,82.611 210.858,82.611 210.849,82.833 M212.838,85.946 C212.832,86.2 213.3,86.668 213.554,86.662 C213.662,86.659 213.621,86.581 213.464,86.49 C213.306,86.398 213.102,86.194 213.01,86.036 C212.919,85.879 212.841,85.838 212.838,85.946 M347.839,85.946 C347.832,86.194 348.296,86.667 348.545,86.667 C348.66,86.667 348.643,86.586 348.499,86.458 C348.371,86.344 348.17,86.138 348.055,86 C347.921,85.842 347.842,85.822 347.839,85.946 M396.5,87.583 C396.5,87.721 396.622,87.833 396.77,87.833 C396.992,87.833 397.003,87.788 396.833,87.583 C396.719,87.446 396.598,87.333 396.563,87.333 C396.528,87.333 396.5,87.446 396.5,87.583 M349.457,88.042 C349.548,88.156 349.664,88.362 349.714,88.5 C349.767,88.642 349.813,88.553 349.82,88.292 C349.829,87.975 349.75,87.833 349.563,87.833 C349.37,87.833 349.34,87.893 349.457,88.042 M214.838,88.946 C214.832,89.2 215.3,89.668 215.554,89.662 C215.662,89.659 215.621,89.581 215.464,89.49 C215.306,89.398 215.102,89.194 215.01,89.036 C214.919,88.879 214.841,88.838 214.838,88.946 M397.715,89.208 C397.868,89.323 398.107,89.567 398.247,89.75 L398.501,90.083 L398.391,89.75 C398.229,89.256 397.992,89 397.698,89 C397.469,89 397.471,89.026 397.715,89.208 M216.833,91.974 C216.833,92.212 217.278,92.713 217.431,92.648 C217.515,92.612 217.415,92.417 217.208,92.214 C217.002,92.011 216.833,91.903 216.833,91.974 M218.98,95.2 C219.054,95.401 219.209,95.598 219.324,95.636 C219.458,95.681 219.431,95.549 219.247,95.269 C218.899,94.737 218.799,94.711 218.98,95.2 M228.286,111.642 C228.816,112.154 228.937,112.172 228.685,111.702 C228.589,111.522 228.356,111.334 228.166,111.285 C227.87,111.208 227.887,111.257 228.286,111.642 M269.218,111.366 C268.853,111.542 268.585,111.974 268.742,112.131 C268.853,112.242 269.312,111.852 269.515,111.472 C269.605,111.304 269.657,111.172 269.631,111.178 C269.605,111.184 269.419,111.269 269.218,111.366 M243.353,111.444 C243.501,111.484 243.703,111.681 243.8,111.883 C243.919,112.13 243.981,112.165 243.989,111.992 C244.003,111.657 243.67,111.328 243.342,111.353 C243.121,111.369 243.123,111.383 243.353,111.444 M327.392,113.5 C327.392,114.279 327.42,114.598 327.455,114.208 C327.49,113.819 327.49,113.181 327.455,112.792 C327.42,112.402 327.392,112.721 327.392,113.5 M287.163,112.587 C287.047,112.727 287.001,112.89 287.06,112.948 C287.118,113.007 287.167,112.966 287.167,112.856 C287.167,112.746 287.335,112.588 287.542,112.505 C287.795,112.403 287.829,112.351 287.645,112.344 C287.496,112.338 287.279,112.448 287.163,112.587 M228.912,123.667 C228.912,129.762 228.933,132.256 228.958,129.208 C228.984,126.16 228.984,121.173 228.958,118.125 C228.933,115.077 228.912,117.571 228.912,123.667 M266.671,113.411 C266.56,113.545 266.507,113.752 266.554,113.869 C266.608,114.002 266.645,113.97 266.654,113.786 C266.661,113.623 266.835,113.421 267.042,113.339 C267.295,113.237 267.329,113.184 267.145,113.177 C266.996,113.171 266.783,113.277 266.671,113.411 M287.015,113.863 C287.001,114.444 287.325,115 287.679,115 C287.915,115 287.863,114.732 287.583,114.499 C287.445,114.385 287.264,114.057 287.181,113.771 L287.03,113.25 L287.015,113.863 M245.548,114.708 C245.751,114.915 245.943,115.025 245.974,114.953 C246.058,114.762 245.663,114.333 245.402,114.333 C245.258,114.333 245.31,114.467 245.548,114.708 M282.108,115.409 C281.616,115.864 281.546,116.036 281.907,115.897 C282.123,115.814 282.763,115 282.612,115 C282.577,115 282.35,115.184 282.108,115.409 M265.743,115.511 C265.566,115.797 265.725,115.825 266.074,115.57 C266.344,115.372 266.353,115.333 266.125,115.333 C265.975,115.333 265.804,115.413 265.743,115.511 M275.86,116.565 C275.891,116.738 276.104,116.948 276.333,117.032 C276.685,117.162 276.711,117.151 276.5,116.968 C276.362,116.848 276.15,116.638 276.027,116.5 C275.831,116.281 275.81,116.289 275.86,116.565 M247.167,117.509 C247.167,117.707 247.825,118.318 248.048,118.328 C248.275,118.337 247.84,117.682 247.496,117.498 C247.259,117.371 247.167,117.374 247.167,117.509 M265.505,120.5 C265.505,120.787 265.783,121.279 265.88,121.162 C265.915,121.119 265.845,120.896 265.724,120.667 C265.603,120.437 265.505,120.362 265.505,120.5 M275.938,120.629 C276.133,120.787 276.334,121.029 276.383,121.167 C276.443,121.331 276.478,121.29 276.487,121.048 C276.494,120.843 276.356,120.601 276.178,120.506 C275.679,120.239 275.544,120.309 275.938,120.629 M249.167,120.583 C249.167,120.629 249.323,120.823 249.514,121.014 C249.949,121.449 250.162,121.288 249.751,120.834 C249.469,120.522 249.167,120.393 249.167,120.583 M277.667,121.641 C277.667,121.848 278.319,122.403 278.431,122.291 C278.59,122.133 278.173,121.5 277.911,121.5 C277.777,121.5 277.667,121.563 277.667,121.641 M266.616,122.489 C266.714,122.864 267.088,123.228 267.286,123.141 C267.358,123.109 267.217,122.875 266.973,122.62 C266.604,122.234 266.543,122.212 266.616,122.489 M267.833,123.454 C267.833,123.663 268.31,124.079 268.422,123.967 C268.466,123.923 268.352,123.751 268.168,123.584 C267.984,123.418 267.833,123.359 267.833,123.454 M281.042,123.527 C281.294,123.619 281.506,123.819 281.513,123.972 C281.523,124.184 281.548,124.194 281.619,124.015 C281.725,123.748 281.236,123.327 280.843,123.346 C280.7,123.354 280.79,123.435 281.042,123.527 M368.705,126.623 C368.518,126.688 368,127.506 368,127.736 C368,127.783 368.23,127.597 368.512,127.322 C369.019,126.826 369.114,126.482 368.705,126.623 M276.097,130.032 C275.956,130.232 275.871,130.426 275.907,130.462 C275.978,130.533 276.667,129.887 276.667,129.75 C276.667,129.536 276.326,129.704 276.097,130.032 M354,130.75 C354,130.881 354.156,131.072 354.348,131.174 C354.826,131.43 354.839,131.32 354.383,130.881 C354.112,130.62 354,130.582 354,130.75 M363.772,130.792 C364.001,131.57 364.028,131.597 364.179,131.204 C364.26,130.996 364.496,130.757 364.704,130.674 C365.015,130.549 364.959,130.528 364.397,130.553 C363.937,130.573 363.731,130.652 363.772,130.792 M282.051,132.745 C281.794,132.971 281.658,133.157 281.75,133.159 C281.961,133.162 282.188,132.996 282.479,132.625 C282.807,132.206 282.596,132.266 282.051,132.745 M372.25,133.833 C371.984,134.128 371.98,134.167 372.218,134.167 C372.367,134.167 372.569,134.017 372.667,133.833 C372.765,133.65 372.779,133.5 372.698,133.5 C372.618,133.5 372.416,133.65 372.25,133.833 M341.333,134.107 C341.333,134.197 341.176,134.44 340.983,134.646 C340.634,135.022 340.644,135.303 340.999,135.084 C341.228,134.943 341.544,134.155 341.421,134.032 C341.373,133.984 341.333,134.018 341.333,134.107 M357.165,134.83 C357.411,135.29 358.037,135.625 357.881,135.212 C357.736,134.831 357.407,134.5 357.173,134.5 C357.041,134.5 357.038,134.594 357.165,134.83" id="path0" fill="#000000"></path>
            <path d="M228.167,111.695 C228.584,112.102 228.796,112.177 228.591,111.845 C228.531,111.748 228.317,111.583 228.116,111.479 C227.784,111.307 227.789,111.327 228.167,111.695 M287.159,112.848 C286.894,113.342 287.029,113.374 287.383,112.9 C287.547,112.68 287.606,112.5 287.514,112.5 C287.421,112.5 287.261,112.656 287.159,112.848 M275.936,116.38 C275.993,116.543 276.199,116.758 276.395,116.858 C276.699,117.015 276.715,117.008 276.508,116.812 C276.374,116.686 276.168,116.471 276.049,116.333 C275.86,116.116 275.846,116.122 275.936,116.38 M354.152,130.625 C354.356,130.923 354.607,131.167 354.71,131.167 C354.82,131.167 354.798,131.081 354.657,130.958 C354.525,130.844 354.274,130.6 354.099,130.417 C353.866,130.172 353.88,130.227 354.152,130.625" id="path1" fill="#FFFFFF"></path>
            <path d="M349.512,8.236 C349.388,8.386 349.335,8.557 349.396,8.618 C349.551,8.774 349.884,8.403 349.804,8.163 C349.758,8.025 349.668,8.048 349.512,8.236 M386.333,68.25 C386.333,68.387 386.455,68.5 386.604,68.5 C386.825,68.5 386.837,68.455 386.667,68.25 C386.553,68.112 386.431,68 386.396,68 C386.362,68 386.333,68.112 386.333,68.25 M347,83.794 C347,83.985 347.453,84.5 347.621,84.5 C347.675,84.5 347.576,84.331 347.403,84.125 C347.229,83.919 347.067,83.719 347.043,83.681 C347.02,83.642 347,83.693 347,83.794 M272,110.5 C271.817,110.683 271.667,110.908 271.667,111 C271.667,111.092 271.233,111.167 270.698,111.167 C269.819,111.167 269.696,111.212 269.367,111.656 C269.098,112.021 268.844,112.16 268.378,112.198 C267.833,112.243 267.729,112.321 267.593,112.784 C267.492,113.125 267.313,113.336 267.099,113.368 C266.729,113.422 266.542,113.904 266.517,114.875 C266.505,115.307 266.424,115.5 266.254,115.5 C265.282,115.5 265.146,120.603 266.107,121.041 C266.377,121.164 266.5,121.359 266.5,121.666 C266.5,122.077 267.484,123.298 267.861,123.354 C267.938,123.366 268.075,123.384 268.167,123.396 C268.258,123.407 268.341,123.492 268.35,123.583 C268.395,124.042 268.715,124.333 269.173,124.333 C269.553,124.333 269.667,124.409 269.667,124.661 C269.667,125.087 270.147,125.333 270.978,125.333 C271.581,125.333 271.65,125.377 271.697,125.792 C271.747,126.225 271.802,126.253 272.698,126.3 C273.59,126.346 273.649,126.376 273.698,126.8 C273.747,127.224 273.806,127.253 274.708,127.3 C275.647,127.349 275.667,127.36 275.667,127.842 C275.667,128.277 275.724,128.333 276.167,128.333 C276.713,128.333 276.941,129.826 276.467,130.3 C276.078,130.689 271.544,130.569 271.417,130.166 C271.092,129.143 266.5,128.995 266.5,130.008 C266.5,130.397 266.421,130.487 266.042,130.531 L265.583,130.583 L265.536,132.309 C265.484,134.17 265.595,134.5 266.27,134.5 C266.549,134.5 266.667,134.594 266.667,134.817 C266.667,135.17 267.404,135.5 268.192,135.5 C268.503,135.5 268.667,135.586 268.667,135.75 C268.667,135.967 269.333,136 273.667,136 C278,136 278.667,135.967 278.667,135.75 C278.667,135.573 278.848,135.499 279.292,135.498 C280.319,135.494 280.667,135.341 280.667,134.893 C280.667,134.58 280.777,134.47 281.167,134.392 C281.641,134.297 281.667,134.25 281.667,133.47 C281.667,132.707 281.702,132.637 282.17,132.474 L282.673,132.298 L282.628,128.858 L282.583,125.417 L282.146,125.366 C281.771,125.323 281.695,125.217 281.617,124.635 C281.567,124.26 281.418,123.846 281.286,123.714 C281.154,123.582 280.74,123.433 280.365,123.383 C279.783,123.305 279.677,123.229 279.634,122.854 C279.59,122.474 279.496,122.41 278.917,122.363 C278.226,122.307 277.667,121.947 277.667,121.558 C277.667,121.407 277.447,121.333 277,121.333 C276.571,121.333 276.333,121.258 276.333,121.121 C276.333,120.782 275.321,120.346 274.417,120.296 C273.645,120.253 273.579,120.216 273.531,119.792 C273.486,119.408 273.398,119.333 272.989,119.333 C272.56,119.333 272.5,119.274 272.5,118.847 C272.5,118.58 272.423,118.335 272.328,118.304 C271.947,118.177 272.498,117.209 273.01,117.106 C273.397,117.029 273.5,116.92 273.5,116.587 C273.5,115.89 275.75,115.947 276.341,116.66 C276.713,117.108 276.845,117.153 277.792,117.16 C278.714,117.166 278.833,117.204 278.833,117.494 C278.833,118.259 280.213,118.339 280.497,117.591 C280.599,117.324 280.805,117.173 281.116,117.137 C281.545,117.088 281.59,117.015 281.667,116.251 C281.737,115.547 281.821,115.386 282.208,115.2 C282.919,114.861 282.891,113.556 282.167,113.282 C281.776,113.135 281.667,112.992 281.667,112.63 C281.667,112.226 281.602,112.167 281.167,112.167 C280.796,112.167 280.667,112.089 280.667,111.867 C280.667,111.308 280.31,111.167 278.903,111.167 C277.682,111.167 277.53,111.132 277.452,110.835 C277.256,110.083 272.697,109.803 272,110.5 M222.944,111.278 C222.883,111.339 222.833,116.926 222.833,123.694 L222.833,136 L225.333,136 C227.382,136 227.833,135.957 227.833,135.763 C227.833,135.633 228.058,135.477 228.333,135.417 L228.833,135.307 L228.833,123.806 L228.833,112.306 L228.247,111.736 L227.661,111.167 L225.358,111.167 C224.092,111.167 223.006,111.217 222.944,111.278 M237.218,111.375 C237.06,111.619 236.934,134.246 237.085,135.292 L237.187,136 L240.074,136 C243.575,136 243.161,136.911 243.164,129.191 C243.166,123.734 243.193,123.141 243.43,123.232 C243.575,123.288 243.791,123.333 243.909,123.333 C244.041,123.333 244.167,123.656 244.235,124.173 C244.325,124.852 244.423,125.042 244.745,125.165 C245.009,125.265 245.161,125.473 245.196,125.783 C245.238,126.146 245.347,126.261 245.688,126.301 C246.078,126.346 246.138,126.443 246.236,127.182 C246.324,127.841 246.43,128.051 246.748,128.196 C246.994,128.308 247.168,128.546 247.199,128.814 C247.238,129.145 247.356,129.262 247.691,129.301 C248.078,129.346 248.146,129.448 248.248,130.134 C248.382,131.031 248.576,131.333 249.02,131.333 C249.255,131.333 249.333,131.455 249.333,131.82 C249.333,132.225 249.417,132.325 249.833,132.417 C250.283,132.515 250.333,132.591 250.333,133.166 C250.333,134.057 250.473,134.333 250.924,134.333 C251.24,134.333 251.322,134.434 251.364,134.875 C251.408,135.326 251.493,135.425 251.875,135.469 C252.137,135.5 252.333,135.624 252.333,135.761 C252.333,135.96 252.84,136 255.334,136 L258.335,136 L258.293,123.625 L258.25,111.25 L255.333,111.25 L252.417,111.25 L252.33,118 C252.283,121.712 252.227,124.656 252.205,124.542 C252.184,124.427 251.988,124.333 251.769,124.333 C251.413,124.333 251.356,124.234 251.227,123.375 C251.095,122.495 251.046,122.412 250.625,122.364 C250.241,122.32 250.167,122.232 250.167,121.822 C250.167,121.455 250.089,121.333 249.854,121.333 C249.397,121.333 249.196,121.006 249.136,120.163 C249.088,119.488 249.039,119.412 248.625,119.364 C248.252,119.321 248.167,119.228 248.166,118.864 C248.166,118.554 248.014,118.315 247.674,118.087 C247.289,117.829 247.171,117.614 247.133,117.094 C247.092,116.541 247.013,116.414 246.667,116.333 C246.37,116.265 246.235,116.108 246.198,115.791 C246.169,115.546 245.925,115.16 245.656,114.933 C245.324,114.654 245.167,114.368 245.167,114.044 C245.167,113.498 244.902,113.167 244.467,113.167 C244.263,113.167 244.167,113.041 244.167,112.776 C244.167,112.561 244.018,112.251 243.837,112.087 C243.656,111.923 243.555,111.712 243.613,111.619 C243.673,111.521 243.636,111.499 243.525,111.568 C243.416,111.635 243.287,111.573 243.231,111.427 C243.098,111.081 237.44,111.032 237.218,111.375 M287.833,111.808 C287.833,112.246 287.723,112.548 287.485,112.764 C287.089,113.122 287.13,113.998 287.564,114.479 C287.699,114.628 287.833,115.05 287.863,115.417 L287.917,116.083 L291.458,116.128 L295,116.173 L295,125.757 L295,135.342 L295.5,135.442 C295.775,135.497 296,135.645 296,135.771 C296,135.955 296.49,136 298.5,136 L301,136 L301,126.083 L301,116.167 L304.921,116.167 L308.842,116.167 L309.004,115.739 C309.181,115.274 309.23,111.858 309.066,111.43 C308.975,111.194 307.879,111.167 298.399,111.167 L287.833,111.167 L287.833,111.808 M315.274,111.792 C315.217,112.135 315.17,117.442 315.17,123.583 C315.17,129.725 315.217,135.031 315.274,135.375 L315.377,136 L318.251,136 L321.125,136 L321.229,135.479 C321.414,134.553 321.35,111.842 321.161,111.489 C321.001,111.19 320.786,111.167 318.183,111.167 L315.377,111.167 L315.274,111.792 M327.5,113.665 L327.5,116.167 L331,116.167 L334.5,116.167 L334.5,125.229 C334.5,135.121 334.508,135.257 335.101,135.406 C335.321,135.461 335.5,135.617 335.5,135.753 C335.5,135.961 335.913,136 338.083,136 L340.667,136 L340.667,135.386 C340.667,134.978 340.793,134.637 341.042,134.372 L341.417,133.973 L341.464,125.073 L341.511,116.173 L345.047,116.128 L348.583,116.083 L348.583,113.667 L348.583,111.25 L338.042,111.207 L327.5,111.164 L327.5,113.665 M353.948,111.274 C353.885,111.337 353.833,115.597 353.833,120.741 L353.833,130.092 L354.333,130.64 C354.681,131.02 354.833,131.358 354.833,131.747 C354.833,132.234 354.899,132.321 355.333,132.417 C355.747,132.507 355.833,132.609 355.833,133.002 C355.833,133.888 356.094,134.283 356.762,134.408 C357.418,134.531 357.699,134.733 357.879,135.208 C357.951,135.398 358.167,135.5 358.495,135.5 C358.833,135.5 359,135.583 359,135.75 C359,135.967 359.713,136 364.417,136 C369.014,136 369.833,135.964 369.833,135.761 C369.833,135.612 370.039,135.501 370.375,135.469 C370.826,135.425 370.925,135.34 370.969,134.958 C371.013,134.577 371.103,134.5 371.5,134.5 C371.896,134.5 371.987,134.422 372.031,134.048 C372.068,133.725 372.202,133.569 372.5,133.5 C372.8,133.43 372.932,133.275 372.97,132.945 C373.011,132.595 373.134,132.465 373.491,132.393 C373.997,132.292 374.167,131.708 374.167,130.06 C374.167,129.458 374.221,129.333 374.482,129.333 C375.043,129.333 375.081,128.86 375.135,121.083 C375.188,113.551 375.139,111.994 374.833,111.499 C374.616,111.148 369.362,111.02 369.147,111.36 C369.069,111.483 369.004,115.025 369.003,119.231 L369,126.878 L368.556,127.259 C368.201,127.565 368.098,127.824 368.036,128.57 C367.965,129.419 367.924,129.5 367.559,129.5 C367.247,129.5 367.136,129.611 367.058,130 C366.962,130.482 366.925,130.5 366.054,130.5 C365.055,130.5 364.23,130.837 364.122,131.289 C364.05,131.59 363.963,131.457 363.739,130.708 C363.699,130.575 363.352,130.5 362.773,130.5 C361.95,130.5 361.86,130.463 361.766,130.086 C361.701,129.83 361.503,129.632 361.247,129.568 C360.926,129.487 360.833,129.356 360.833,128.982 C360.833,128.558 360.773,128.5 360.335,128.5 L359.836,128.5 L359.793,119.875 L359.75,111.25 L356.907,111.205 C355.343,111.18 354.011,111.211 353.948,111.274 M379.268,111.43 C379.097,111.875 379.156,115.502 379.339,115.844 C379.502,116.149 379.727,116.167 383.423,116.167 L387.333,116.167 L387.333,126.083 L387.333,136 L389.833,136 C391.843,136 392.333,135.955 392.333,135.771 C392.333,135.645 392.558,135.497 392.833,135.442 L393.333,135.342 L393.333,125.754 L393.333,116.167 L396.667,116.167 L400,116.167 L400,113.667 L400,111.167 L389.684,111.167 C380.432,111.167 379.359,111.194 379.268,111.43" id="path2" fill="#70706F"></path>
            <path d="M387.567,26.358 C387.252,26.713 387.252,26.714 387.625,26.518 C387.831,26.41 388,26.249 388,26.161 C388,25.924 387.92,25.96 387.567,26.358 M338.167,29.416 C337.952,29.645 337.808,29.86 337.847,29.894 C337.885,29.928 338.091,29.741 338.304,29.478 C338.782,28.89 338.697,28.852 338.167,29.416 M377.644,45.506 C377.225,45.978 377.206,46.136 377.6,45.872 C377.769,45.76 378.24,44.992 378.131,45.006 C378.105,45.01 377.886,45.235 377.644,45.506 M211,82.994 C211,83.083 211.169,83.243 211.375,83.352 C211.748,83.547 211.748,83.547 211.433,83.191 C211.08,82.794 211,82.757 211,82.994 M212.923,85.903 C213.068,86.124 213.301,86.349 213.441,86.403 C213.581,86.457 213.483,86.275 213.223,86 C212.652,85.395 212.573,85.369 212.923,85.903" id="path3" fill="#00FFFF"></path>
            <path d="M0,48.406 L0,96.813 L0.708,96.914 C1.549,97.034 78.638,96.955 78.996,96.833 C79.681,96.601 79.663,97.033 79.663,80.272 C79.663,69.659 79.606,64.149 79.496,64.081 C79.403,64.024 79.378,63.896 79.44,63.796 C79.506,63.688 79.474,63.663 79.359,63.734 C79.253,63.799 79.167,63.775 79.167,63.68 C79.167,63.561 74.251,63.505 63.589,63.502 L48.012,63.497 L47.589,63.074 L47.167,62.652 L47.167,31.326 L47.167,0 L23.583,0 L0,0 L0,48.406 M90.834,48.401 L90.836,96.802 L92.376,96.912 C94.565,97.068 138.04,96.945 138.292,96.782 C138.458,96.674 138.5,86.799 138.5,48.323 L138.5,0 L114.666,0 L90.832,0 L90.834,48.401 M152.937,0.524 C152.752,1.448 152.818,96.138 153.004,96.252 C153.096,96.31 153.122,96.438 153.06,96.537 C152.994,96.645 153.026,96.67 153.141,96.599 C153.247,96.534 153.333,96.541 153.334,96.615 C153.335,97.065 201.285,97.086 201.354,96.636 C201.366,96.561 201.394,96.425 201.417,96.333 C201.44,96.242 201.47,90.035 201.484,82.542 C201.505,71.792 201.553,68.973 201.714,69.183 C201.825,69.33 201.975,69.455 202.046,69.462 C202.378,69.495 202.495,69.612 202.548,69.966 C202.58,70.177 202.826,70.589 203.095,70.883 C203.363,71.176 203.621,71.604 203.667,71.833 C203.713,72.063 203.925,72.325 204.137,72.417 C204.362,72.514 204.562,72.779 204.618,73.052 C204.67,73.309 204.927,73.735 205.19,73.997 C205.452,74.26 205.667,74.615 205.667,74.787 C205.667,75.183 205.978,75.5 206.367,75.5 C206.599,75.5 206.667,75.633 206.667,76.093 C206.667,76.446 206.734,76.645 206.833,76.583 C206.925,76.527 207,76.597 207,76.739 C207,76.881 207.15,77.091 207.333,77.205 C207.517,77.32 207.667,77.569 207.667,77.758 C207.667,78.219 208.037,78.703 208.34,78.637 C208.502,78.601 208.602,78.748 208.64,79.079 C208.671,79.353 208.911,79.78 209.175,80.033 C209.438,80.285 209.678,80.662 209.706,80.87 C209.782,81.424 209.977,81.667 210.343,81.667 C210.578,81.667 210.667,81.782 210.667,82.086 C210.667,82.342 210.864,82.682 211.175,82.961 C211.476,83.231 211.705,83.62 211.739,83.917 C211.824,84.667 211.824,84.668 211.958,84.647 C212.395,84.578 212.617,84.731 212.757,85.195 C212.852,85.508 213.042,85.741 213.224,85.766 C213.676,85.828 213.742,85.958 213.482,86.278 C213.329,86.467 213.32,86.522 213.458,86.439 C213.596,86.356 213.674,86.429 213.688,86.657 C213.699,86.846 213.727,87.075 213.75,87.167 C213.773,87.258 213.801,87.399 213.813,87.479 C213.824,87.559 214.04,87.666 214.292,87.717 C214.638,87.786 214.756,87.912 214.774,88.233 C214.787,88.466 215.031,88.889 215.315,89.174 C215.659,89.518 215.833,89.857 215.833,90.179 C215.833,90.447 215.908,90.676 216,90.688 C216.092,90.699 216.242,90.727 216.333,90.75 C216.425,90.773 216.575,90.801 216.667,90.813 C216.758,90.824 216.833,91.016 216.833,91.24 C216.833,91.464 216.91,91.694 217.003,91.752 C217.096,91.809 217.134,91.918 217.087,91.994 C217.04,92.07 217.12,92.177 217.265,92.233 C217.681,92.392 217.724,92.354 217.479,92.042 C217.278,91.786 217.282,91.775 217.505,91.949 C217.646,92.058 217.779,92.358 217.801,92.615 C217.878,93.507 217.949,93.75 218.141,93.771 C218.247,93.782 218.446,93.801 218.583,93.813 C218.73,93.825 218.833,93.998 218.833,94.232 C218.833,94.452 219.064,94.878 219.346,95.18 C219.628,95.482 219.869,95.884 219.882,96.073 C219.942,96.97 218.357,96.917 245.155,96.917 C258.774,96.917 270.047,96.863 270.207,96.797 C270.483,96.684 270.498,94.147 270.499,48.339 L270.501,0 L246.155,0 L221.809,0 L221.84,0.375 C221.857,0.581 221.862,6.681 221.852,13.929 L221.833,27.109 L221.355,27.039 C220.918,26.975 220.867,26.896 220.779,26.147 C220.661,25.156 220.577,25 220.157,25 C219.862,25 219.752,24.818 219.819,24.441 C219.855,24.24 219.486,23.822 219.348,23.908 C219.001,24.122 218.618,23.278 218.65,22.368 C218.658,22.151 218.575,22 218.457,22.019 C218.006,22.092 217.667,21.79 217.667,21.316 C217.667,20.891 217.607,20.833 217.167,20.833 C216.703,20.833 216.665,20.787 216.647,20.208 C216.616,19.176 216.592,19.082 216.375,19.125 C216.26,19.148 216.167,19.084 216.167,18.982 C216.167,18.881 216.054,18.841 215.917,18.894 C215.724,18.968 215.667,18.857 215.667,18.411 C215.667,17.88 215.626,17.833 215.167,17.833 C214.684,17.833 214.513,17.432 214.649,16.618 C214.699,16.317 214.295,15.826 214.033,15.87 C213.824,15.904 213.737,15.777 213.699,15.386 C213.657,14.952 213.558,14.836 213.157,14.748 C212.68,14.643 212.551,14.334 212.654,13.542 C212.669,13.427 212.603,13.333 212.507,13.333 C212.412,13.333 212.352,13.25 212.375,13.147 C212.398,13.045 212.279,12.938 212.11,12.91 C211.709,12.843 211.7,12.83 211.622,12.247 C211.585,11.974 211.468,11.741 211.361,11.729 C211.254,11.718 211.062,11.699 210.935,11.688 C210.735,11.67 210.604,11.245 210.472,10.192 C210.457,10.069 210.269,9.888 210.056,9.79 C209.842,9.693 209.657,9.55 209.646,9.473 C209.634,9.396 209.606,9.258 209.583,9.167 C209.56,9.075 209.532,8.925 209.521,8.833 C209.509,8.742 209.313,8.667 209.083,8.667 C208.802,8.667 208.663,8.572 208.654,8.375 C208.643,8.118 208.597,7.869 208.448,7.25 C208.357,6.876 208.126,6.66 207.862,6.704 C207.706,6.73 207.603,6.655 207.627,6.535 C207.706,6.15 207.33,5.667 206.952,5.667 C206.63,5.666 206.577,5.566 206.533,4.875 C206.484,4.111 206.324,3.773 205.992,3.729 C205.905,3.718 205.758,3.699 205.667,3.688 C205.575,3.676 205.5,3.494 205.5,3.283 C205.5,2.827 205.21,2.494 204.913,2.608 C204.625,2.718 204.521,2.509 204.479,1.736 C204.437,0.972 204.247,0.667 203.813,0.667 C203.611,0.667 203.5,0.548 203.5,0.333 C203.5,0.001 203.389,0 178.271,0 L153.042,0 L152.937,0.524 M285.833,48.392 L285.833,96.784 L287.108,96.892 C288.8,97.035 331.703,97.007 332.667,96.863 L333.417,96.75 L333.501,77.583 C333.547,67.042 333.613,58.492 333.646,58.583 C333.679,58.675 333.697,58.808 333.685,58.878 C333.674,58.949 333.853,59.092 334.082,59.197 C334.382,59.333 334.5,59.517 334.5,59.85 C334.5,60.105 334.572,60.358 334.659,60.412 C334.747,60.466 334.779,60.613 334.731,60.738 C334.683,60.864 334.736,61.023 334.848,61.092 C334.989,61.179 335.01,61.146 334.918,60.984 C334.844,60.855 334.933,60.902 335.114,61.088 C335.295,61.273 335.495,61.682 335.557,61.996 C335.72,62.809 336.159,63.447 336.349,63.147 C336.461,62.97 336.498,62.993 336.51,63.25 C336.544,64.007 336.698,64.431 337.085,64.835 C337.31,65.07 337.543,65.509 337.604,65.811 C337.676,66.173 337.846,66.41 338.102,66.507 C338.488,66.654 338.616,66.955 338.704,67.917 C338.742,68.324 338.835,68.426 339.208,68.469 C339.636,68.519 339.667,68.574 339.667,69.311 C339.667,70.146 339.875,70.5 340.367,70.5 C340.614,70.5 340.667,70.641 340.667,71.3 C340.667,72.146 340.873,72.5 341.367,72.5 C341.608,72.5 341.671,72.647 341.688,73.25 C341.72,74.409 341.722,74.413 342.208,74.469 C342.617,74.516 342.669,74.593 342.688,75.178 C342.699,75.538 342.727,75.908 342.75,76 C342.773,76.092 342.801,76.242 342.813,76.333 C342.824,76.425 343.021,76.5 343.25,76.5 C343.632,76.5 343.667,76.562 343.667,77.24 C343.667,77.647 343.743,78.027 343.836,78.085 C343.929,78.143 343.955,78.271 343.894,78.371 C343.832,78.47 343.85,78.509 343.934,78.457 C344.209,78.288 344.614,78.738 344.724,79.333 C344.899,80.281 344.952,80.419 345.131,80.38 C345.388,80.325 345.662,80.73 345.703,81.225 C345.723,81.468 345.806,81.667 345.888,81.667 C345.969,81.667 345.991,81.783 345.936,81.925 C345.872,82.094 345.904,82.143 346.03,82.065 C346.162,81.983 346.187,82.04 346.11,82.241 C346.027,82.458 346.061,82.512 346.24,82.444 C346.498,82.345 346.741,82.878 346.821,83.718 C346.828,83.792 346.921,83.799 347.028,83.732 C347.161,83.651 347.188,83.704 347.114,83.898 C347.053,84.055 347.069,84.143 347.15,84.094 C347.466,83.898 347.712,84.467 347.814,85.632 C347.825,85.751 347.927,85.836 348.042,85.821 C348.452,85.768 348.667,85.836 348.667,86.02 C348.667,86.144 348.568,86.131 348.375,85.982 C348.14,85.8 348.146,85.829 348.403,86.13 C348.578,86.336 348.743,86.701 348.769,86.942 C348.846,87.663 348.968,87.833 349.411,87.833 C349.803,87.833 349.834,87.89 349.836,88.625 C349.838,89.38 349.998,89.878 350.227,89.848 C350.766,89.775 350.833,89.862 350.836,90.625 C350.838,91.38 350.998,91.878 351.227,91.848 C351.755,91.777 351.819,91.87 351.867,92.776 C351.912,93.63 351.955,93.724 352.323,93.779 C352.839,93.857 352.793,93.768 352.861,94.833 C352.897,95.407 352.996,95.758 353.126,95.771 C353.24,95.782 353.446,95.801 353.583,95.813 C353.742,95.826 353.833,96.007 353.833,96.309 L353.833,96.784 L355.208,96.891 C356.95,97.027 399.12,97.03 399.625,96.895 C400.105,96.766 400.226,93.167 399.75,93.167 C399.603,93.167 399.499,93.013 399.498,92.792 C399.494,92.167 399.306,91.664 399.119,91.779 C399.01,91.847 398.983,91.784 399.048,91.616 C399.105,91.466 399.069,91.293 398.967,91.23 C398.856,91.161 398.829,91.191 398.9,91.306 C398.972,91.422 398.931,91.463 398.795,91.411 C398.672,91.364 398.557,91.143 398.539,90.92 C398.483,90.252 398.436,90.146 397.958,89.608 C397.706,89.324 397.491,88.978 397.481,88.838 C397.47,88.698 397.444,88.508 397.423,88.417 C397.402,88.325 397.373,88.156 397.359,88.042 C397.345,87.927 397.146,87.833 396.917,87.833 C396.578,87.833 396.497,87.748 396.482,87.375 C396.473,87.123 396.448,86.804 396.427,86.667 C396.407,86.529 396.378,86.285 396.362,86.125 C396.342,85.925 396.19,85.833 395.875,85.833 C395.434,85.833 395.415,85.798 395.376,84.89 C395.328,83.797 395.355,83.845 394.778,83.797 C394.352,83.762 394.333,83.72 394.333,82.81 C394.333,81.89 394.318,81.856 393.833,81.75 C393.38,81.65 393.333,81.578 393.333,80.976 C393.333,80.179 393.062,79.607 392.743,79.73 C392.435,79.848 392.374,79.722 392.314,78.833 C392.262,78.074 391.966,77.565 391.679,77.742 C391.457,77.88 391.354,77.65 391.304,76.907 C391.259,76.235 390.874,75.681 390.531,75.795 C390.4,75.839 390.333,75.634 390.333,75.19 C390.333,74.821 390.253,74.47 390.155,74.41 C390.057,74.349 390.019,74.191 390.07,74.058 C390.122,73.923 390.09,73.861 389.998,73.918 C389.907,73.974 389.833,73.932 389.833,73.825 C389.833,73.718 389.721,73.674 389.583,73.727 C389.396,73.799 389.333,73.701 389.333,73.338 C389.333,73.071 389.262,72.809 389.174,72.754 C389.086,72.7 389.062,72.534 389.119,72.384 C389.188,72.203 389.158,72.152 389.03,72.231 C388.9,72.312 388.873,72.257 388.948,72.063 C389.033,71.84 388.993,71.8 388.77,71.886 C388.599,71.951 388.524,71.929 388.585,71.831 C388.641,71.741 388.607,71.667 388.51,71.667 C388.413,71.667 388.333,71.45 388.333,71.184 C388.333,70.878 388.15,70.506 387.833,70.167 C387.558,69.872 387.333,69.467 387.333,69.266 C387.333,68.822 387.039,68.5 386.633,68.5 C386.401,68.5 386.329,68.359 386.314,67.875 C386.304,67.531 386.277,67.175 386.256,67.083 C386.235,66.992 386.206,66.823 386.192,66.708 C386.178,66.594 385.979,66.5 385.75,66.5 C385.434,66.5 385.329,66.409 385.316,66.125 C385.306,65.919 385.281,65.637 385.261,65.5 C385.24,65.362 385.211,65.081 385.195,64.875 C385.173,64.578 385.065,64.5 384.677,64.5 C384.274,64.5 384.191,64.433 384.207,64.125 C384.28,62.781 384.186,62.5 383.667,62.5 C383.181,62.5 383.167,62.478 383.167,61.7 C383.167,60.854 382.96,60.5 382.467,60.5 C382.186,60.5 382.12,60.147 382.17,58.913 C382.176,58.768 381.756,58.365 381.659,58.423 C381.403,58.577 381.181,58.155 381.127,57.413 C381.089,56.879 380.996,56.598 380.867,56.625 C380.757,56.648 380.667,56.592 380.667,56.5 C380.667,56.408 380.554,56.333 380.417,56.333 C380.246,56.333 380.166,56.161 380.164,55.792 C380.161,54.924 379.995,54.535 379.587,54.432 C379.222,54.341 379.001,53.801 378.984,52.962 C378.981,52.803 378.897,52.623 378.797,52.561 C378.679,52.488 378.662,52.531 378.749,52.683 C378.822,52.811 378.721,52.751 378.525,52.549 C378.328,52.346 378.166,52.009 378.164,51.799 C378.161,51.231 377.77,50.58 377.449,50.606 C377.248,50.623 377.161,50.491 377.146,50.148 C377.111,49.348 377.077,49.248 376.855,49.296 C376.738,49.321 376.688,49.267 376.745,49.175 C376.801,49.084 376.694,48.878 376.507,48.717 C375.953,48.243 376.042,47.359 376.667,47.142 C377.09,46.994 377.167,46.881 377.167,46.4 C377.167,46.088 377.243,45.833 377.336,45.833 C377.583,45.833 378.165,44.811 378.166,44.375 C378.166,44.169 378.246,44 378.343,44 C378.44,44 378.474,43.926 378.418,43.835 C378.362,43.745 378.419,43.71 378.545,43.758 C378.839,43.871 379.167,43.163 379.167,42.414 C379.167,42.028 379.234,41.868 379.375,41.92 C379.779,42.068 380.032,41.702 380.141,40.814 C380.224,40.13 380.317,39.916 380.53,39.915 C380.958,39.911 381.07,39.716 381.125,38.873 C381.17,38.181 381.404,37.757 381.659,37.91 C381.87,38.037 382.098,37.533 382.146,36.833 C382.207,35.931 382.185,35.957 383.012,35.846 C383.064,35.839 383.125,35.441 383.147,34.962 C383.192,33.965 383.169,34.013 383.667,33.917 C384.162,33.821 384.132,33.88 384.22,32.831 C384.277,32.142 384.356,31.927 384.542,31.961 C385.01,32.044 385.254,31.497 385.323,30.217 C385.329,30.108 385.54,29.919 385.792,29.798 C386.261,29.573 386.281,29.521 386.314,28.479 C386.331,27.958 386.397,27.862 386.797,27.782 C387.18,27.706 387.268,27.594 387.303,27.139 C387.329,26.794 387.529,26.397 387.839,26.077 C388.139,25.768 388.333,25.391 388.333,25.117 C388.333,24.869 388.413,24.667 388.51,24.667 C388.607,24.667 388.645,24.6 388.595,24.519 C388.545,24.438 388.63,24.269 388.784,24.144 C389.024,23.949 389.046,23.952 388.936,24.167 C388.866,24.304 388.927,24.271 389.071,24.093 C389.215,23.915 389.333,23.476 389.333,23.117 C389.333,22.596 389.385,22.484 389.592,22.564 C389.74,22.621 389.807,22.593 389.749,22.498 C389.693,22.407 389.762,22.333 389.902,22.333 C390.059,22.333 390.12,22.238 390.06,22.083 C390.008,21.946 390.047,21.833 390.149,21.833 C390.25,21.833 390.333,21.571 390.333,21.25 C390.333,20.929 390.408,20.657 390.5,20.646 C390.592,20.634 390.76,20.612 390.875,20.597 C390.99,20.581 391.065,20.478 391.042,20.367 C391.019,20.257 391.063,20.167 391.139,20.167 C391.216,20.167 391.291,19.848 391.306,19.458 C391.331,18.828 391.457,18.602 391.752,18.66 C392.01,18.711 392.271,18.17 392.309,17.505 C392.358,16.636 392.325,16.691 392.843,16.613 C393.212,16.557 393.255,16.463 393.3,15.609 C393.336,14.932 393.418,14.661 393.592,14.646 C393.725,14.634 393.927,14.616 394.042,14.604 C394.175,14.591 394.268,14.239 394.3,13.625 C394.349,12.686 394.447,12.556 395.037,12.645 C395.204,12.671 395.455,11.682 395.424,11.125 C395.399,10.7 395.569,10.57 396.045,10.648 C396.191,10.672 396.518,9.895 396.483,9.606 C396.411,9.008 396.52,8.518 396.708,8.587 C397.216,8.773 397.449,8.34 397.486,7.138 C397.497,6.79 397.603,6.671 397.973,6.589 C398.382,6.499 398.45,6.402 398.469,5.876 C398.483,5.524 398.599,5.208 398.746,5.125 C399.095,4.93 399.5,4.106 399.5,3.592 C399.5,3.325 399.593,3.167 399.75,3.167 C399.955,3.167 400,2.88 400,1.583 L400,0 L376.936,0 L353.872,0 L353.781,0.35 C353.728,0.552 353.611,0.652 353.504,0.586 C353.126,0.352 352.833,0.861 352.833,1.752 C352.833,2.347 352.766,2.627 352.625,2.622 C352.152,2.604 351.835,2.674 351.853,2.792 C352.027,3.892 351.812,4.667 351.333,4.667 L350.833,4.667 L350.833,5.667 C350.833,6.663 350.831,6.667 350.342,6.667 C349.86,6.667 349.849,6.686 349.8,7.623 C349.758,8.428 349.697,8.59 349.417,8.64 C348.956,8.722 348.841,8.86 348.798,9.383 C348.776,9.648 348.637,9.873 348.461,9.929 C348.147,10.029 347.607,11.103 347.753,11.338 C347.799,11.412 347.727,11.583 347.593,11.717 C347.459,11.851 347.4,12.011 347.461,12.072 C347.523,12.134 347.431,12.13 347.258,12.063 C347.005,11.966 346.964,12 347.052,12.23 C347.118,12.401 347.096,12.476 346.998,12.415 C346.907,12.359 346.824,12.431 346.813,12.573 C346.801,12.716 346.773,12.908 346.75,13 C346.727,13.092 346.699,13.362 346.688,13.601 C346.674,13.876 346.59,14.006 346.457,13.955 C346.342,13.911 346.152,13.978 346.034,14.104 C345.917,14.23 345.849,14.333 345.884,14.333 C345.92,14.333 345.858,14.69 345.747,15.125 C345.596,15.718 345.467,15.917 345.231,15.917 C345.058,15.917 344.917,16.005 344.917,16.111 C344.917,16.218 344.86,16.362 344.792,16.431 C344.723,16.499 344.667,16.843 344.667,17.194 C344.667,17.768 344.595,17.869 344.223,17.818 C344.102,17.802 343.775,18.319 343.74,18.583 C343.728,18.675 343.706,18.994 343.692,19.292 C343.673,19.701 343.59,19.833 343.354,19.833 C342.909,19.833 342.732,20.14 342.681,21 C342.627,21.902 342.65,21.876 341.821,21.987 C341.769,21.994 341.708,22.392 341.686,22.871 C341.639,23.905 341.643,23.9 340.792,23.987 C340.723,23.994 340.667,24.442 340.667,24.981 C340.667,25.66 340.602,25.961 340.458,25.955 C339.701,25.927 339.667,25.973 339.667,27 C339.667,27.959 339.649,28 339.245,28 C338.784,28 338.723,28.102 338.609,29.059 C338.566,29.412 338.45,29.784 338.349,29.884 C338.142,30.092 338.092,29.828 338.292,29.575 C338.36,29.487 338.26,29.568 338.069,29.755 C337.878,29.941 337.668,30.307 337.602,30.569 C337.536,30.83 337.352,31.165 337.192,31.314 C337.032,31.462 337.01,31.508 337.144,31.417 C337.354,31.273 337.356,31.299 337.16,31.614 C337.035,31.815 336.873,31.941 336.8,31.896 C336.727,31.851 336.657,31.931 336.646,32.073 C336.634,32.216 336.606,32.408 336.583,32.5 C336.56,32.592 336.532,32.825 336.521,33.018 C336.507,33.249 336.419,33.338 336.262,33.278 C336.02,33.185 335.634,33.515 335.681,33.774 C335.695,33.853 335.692,33.954 335.674,34 C335.656,34.046 335.609,34.271 335.569,34.5 C335.446,35.204 335.349,35.351 335.044,35.299 C334.868,35.27 334.769,35.34 334.798,35.476 C334.824,35.6 334.783,35.788 334.708,35.893 C334.632,35.997 334.547,36.308 334.518,36.583 C334.465,37.087 334.213,37.382 333.965,37.228 C333.891,37.183 333.761,37.319 333.676,37.531 C333.579,37.772 333.517,30.796 333.511,18.958 L333.5,0 L309.667,0 L285.833,0 L285.833,48.392" id="path4" fill="#357ABE"></path>
        </g>
    </g>
</svg>
