<svg xmlns="http://www.w3.org/2000/svg" viewBox="0 0 304 70" fill="currentColor">
    <path d="M5.18,65.24c0-3.66,2.97-6.64,6.64-6.64c0.37,0,0.74,0.05,1.09,0.11l4.12-9.15c-2.93-1.93-4.85-5.23-4.85-8.98
		c0-4.12,2.3-7.68,5.69-9.5l-3.91-11.31c-0.22,0.02-0.44,0.03-0.68,0.03c-3.97,0-7.19-3.21-7.19-7.19c0-3.96,3.22-7.19,7.19-7.19
		c3.97,0,7.19,3.22,7.19,7.19c0,2.56-1.33,4.8-3.35,6.08L21.03,30c0.61-0.11,1.24-0.19,1.89-0.19c5.94,0,10.73,4.81,10.73,10.76
		c0,1.09-0.16,2.15-0.47,3.15L46.01,50c3-4.94,8.44-8.25,14.64-8.25c3.41,0,6.59,1,9.26,2.72V6.83C69.9,3.05,66.85,0,63.07,0H6.82
		C3.05,0,0,3.05,0,6.83v56.32C0,66.92,3.05,70,6.82,70h0.33C5.94,68.77,5.18,67.1,5.18,65.24"></path>
    <path d="M16.49,70H47.6c-2.54-3-4.07-6.86-4.07-11.11c0-2.06,0.36-4.03,1.03-5.85L31.7,46.75
		c-1.94,2.76-5.15,4.57-8.78,4.57c-0.99,0-1.93-0.14-2.83-0.38l-4.11,9.12c1.52,1.23,2.48,3.11,2.48,5.18
		C18.46,67.11,17.71,68.77,16.49,70"></path>
    <path d="M156.58,33.21c-0.09,0.12-0.25,0.22-0.48,0.29c-0.23,0.07-0.55,0.13-0.95,0.17c-0.4,0.04-0.92,0.06-1.56,0.06
		c-0.66,0-1.19-0.02-1.6-0.04c-0.41-0.04-0.74-0.09-1.01-0.16c-0.27-0.07-0.47-0.17-0.61-0.3c-0.14-0.13-0.27-0.3-0.38-0.51
		l-7.12-11.27v11.32c0,0.16-0.05,0.3-0.14,0.42c-0.1,0.13-0.26,0.23-0.49,0.3c-0.23,0.09-0.54,0.14-0.92,0.19
		c-0.38,0.04-0.87,0.06-1.46,0.06c-0.59,0-1.08-0.02-1.46-0.06c-0.38-0.04-0.69-0.1-0.92-0.19c-0.23-0.07-0.4-0.17-0.49-0.3
		c-0.1-0.11-0.14-0.26-0.14-0.42V1.22c0-0.16,0.05-0.3,0.14-0.43c0.1-0.13,0.26-0.24,0.49-0.32s0.54-0.16,0.92-0.2
		c0.38-0.05,0.87-0.07,1.46-0.07c0.59,0,1.08,0.02,1.46,0.07c0.38,0.04,0.69,0.11,0.92,0.2c0.23,0.09,0.4,0.2,0.49,0.32
		c0.1,0.13,0.14,0.27,0.14,0.43V20l6.33-8.51c0.13-0.19,0.27-0.36,0.43-0.51c0.16-0.14,0.37-0.26,0.64-0.33
		c0.26-0.08,0.59-0.14,0.98-0.18c0.39-0.04,0.89-0.06,1.5-0.06c0.59,0,1.09,0.02,1.5,0.06c0.41,0.04,0.73,0.1,0.98,0.18
		c0.25,0.08,0.42,0.18,0.52,0.3c0.1,0.12,0.14,0.27,0.14,0.44c0,0.24-0.06,0.5-0.18,0.77c-0.12,0.27-0.3,0.56-0.54,0.86l-6.26,7.1
		l7.24,11.2c0.19,0.32,0.33,0.6,0.42,0.83c0.09,0.23,0.13,0.44,0.13,0.64C156.72,32.95,156.67,33.08,156.58,33.21"></path>
    <path d="M193.62,27.53c0.12,0.16,0.26,0.32,0.42,0.46c0.25,0.22,0.58,0.4,0.89,0.5c1.19,0.41,2.53,0.23,3.63-0.38
		c1.09-0.58,2.05-1.52,2.43-2.72c0.11-0.34,0.18-0.7,0.23-1.06c0.04-0.38,0.06-0.77,0.06-1.15c0-3.81,0,0,0,0V11.38
		c0-0.16,0.04-0.3,0.14-0.42c0.1-0.12,0.26-0.22,0.49-0.3c0.24-0.08,0.54-0.14,0.92-0.18c0.39-0.04,0.87-0.06,1.46-0.06
		c0.59,0,1.08,0.02,1.46,0.06c0.38,0.04,0.69,0.1,0.92,0.18c0.23,0.08,0.4,0.18,0.49,0.3c0.09,0.12,0.14,0.26,0.14,0.42v21.39
		c0,0.16-0.03,0.3-0.12,0.42c-0.08,0.12-0.23,0.23-0.43,0.3c-0.21,0.08-0.48,0.14-0.8,0.18c-0.33,0.04-0.74,0.06-1.23,0.06
		c-0.52,0-0.94-0.02-1.28-0.06c-0.33-0.04-0.59-0.1-0.78-0.18c-0.19-0.07-0.31-0.18-0.4-0.3c-0.08-0.12-0.12-0.26-0.12-0.42v-2.47
		c-1.18,1.28-2.38,2.24-3.6,2.88c-1.22,0.63-2.5,0.96-3.83,0.96c-1.45,0-2.68-0.24-3.68-0.72c-1-0.49-1.8-1.14-2.42-1.96
		c-0.61-0.82-1.06-1.78-1.33-2.88c-0.27-1.11-0.41-2.43-0.41-3.99V11.38c0-0.16,0.05-0.3,0.15-0.42c0.09-0.12,0.25-0.22,0.48-0.3
		c0.23-0.08,0.53-0.14,0.92-0.18c0.39-0.04,0.88-0.06,1.45-0.06c0.59,0,1.09,0.02,1.48,0.06c0.39,0.04,0.7,0.1,0.92,0.18
		c0.22,0.08,0.38,0.18,0.48,0.3c0.1,0.12,0.14,0.26,0.14,0.42c0,0-0.01,12.79,0,13.44C192.92,25.72,193.07,26.76,193.62,27.53"></path>
    <path d="M124.48,16.61c-0.12-0.17-0.26-0.32-0.42-0.47c-0.25-0.22-0.58-0.39-0.89-0.5c-1.19-0.41-2.53-0.22-3.63,0.37
		c-1.09,0.59-2.05,1.52-2.43,2.73c-0.11,0.34-0.18,0.7-0.23,1.06c-0.05,0.38-0.07,0.77-0.07,1.15c0,3.81,0,0,0,0v11.81
		c0,0.16-0.04,0.3-0.14,0.42c-0.1,0.12-0.26,0.23-0.49,0.29c-0.23,0.09-0.54,0.14-0.92,0.19c-0.38,0.04-0.87,0.06-1.46,0.06
		c-0.59,0-1.08-0.02-1.46-0.06c-0.38-0.04-0.69-0.1-0.92-0.19c-0.23-0.07-0.4-0.17-0.49-0.29c-0.1-0.12-0.14-0.26-0.14-0.42V11.37
		c0-0.16,0.04-0.3,0.12-0.42c0.08-0.12,0.23-0.22,0.43-0.3c0.21-0.08,0.48-0.14,0.8-0.18c0.33-0.04,0.74-0.06,1.24-0.06
		c0.51,0,0.94,0.02,1.27,0.06c0.33,0.04,0.59,0.1,0.78,0.18c0.18,0.08,0.32,0.18,0.4,0.3c0.08,0.12,0.12,0.26,0.12,0.42v2.47
		c1.19-1.27,2.39-2.23,3.61-2.87c1.22-0.64,2.5-0.96,3.83-0.96c1.46,0,2.68,0.24,3.68,0.72c1,0.48,1.81,1.13,2.42,1.95
		c0.62,0.82,1.06,1.78,1.33,2.89c0.28,1.11,0.41,2.43,0.41,3.98v13.21c0,0.16-0.05,0.3-0.14,0.42c-0.1,0.12-0.26,0.23-0.48,0.29
		c-0.23,0.09-0.53,0.14-0.92,0.19c-0.39,0.04-0.88,0.06-1.45,0.06c-0.59,0-1.08-0.02-1.48-0.06c-0.39-0.04-0.7-0.1-0.92-0.19
		c-0.22-0.07-0.39-0.17-0.48-0.29c-0.09-0.12-0.14-0.26-0.14-0.42c0,0,0.01-12.78,0-13.44C125.17,18.41,125.02,17.38,124.48,16.61"></path>
    <path d="M288.99,17.61c0.22-0.68,0.52-1.27,0.9-1.78c0.39-0.5,0.88-0.9,1.46-1.2c0.59-0.29,1.29-0.44,2.11-0.44
		c0.99,0,1.79,0.22,2.4,0.65c0.61,0.44,0.98,0.99,1.12,1.65c0.09,0.46,0.06,0.89-0.11,1.3c-0.17,0.4-0.49,0.75-0.97,1.05
		c-0.48,0.3-1.15,0.54-2,0.71c-0.85,0.17-1.93,0.26-3.25,0.26h-2.07C288.64,19.02,288.78,18.3,288.99,17.61 M302.33,28.49
		c-0.06-0.14-0.14-0.24-0.24-0.3c-0.1-0.06-0.22-0.09-0.36-0.09c-0.24,0-0.56,0.08-0.94,0.23c-0.38,0.16-0.86,0.32-1.45,0.51
		c-0.58,0.18-1.27,0.35-2.07,0.5c-0.8,0.15-1.73,0.23-2.78,0.23c-1.04,0-1.93-0.14-2.68-0.41c-0.74-0.27-1.35-0.67-1.82-1.19
		c-0.47-0.52-0.81-1.15-1.03-1.89c-0.21-0.74-0.32-1.57-0.32-2.48c0,0,15.94,2.49,14.29-7.29c-0.23-1.32-0.98-2.39-1.8-3.32
		c-0.82-0.93-1.86-1.67-3.13-2.2c-1.27-0.53-2.8-0.79-4.59-0.79c-1.69,0-3.22,0.28-4.57,0.84s-2.5,1.37-3.44,2.43
		c-0.94,1.07-1.66,2.36-2.16,3.89c-0.5,1.52-0.74,3.24-0.74,5.14c0,2,0.23,3.74,0.71,5.23c0.47,1.49,1.18,2.72,2.15,3.7
		c0.96,0.97,2.15,1.7,3.58,2.18c1.43,0.49,3.1,0.72,5.01,0.72c1.05,0,2.04-0.06,2.97-0.21c0.93-0.13,1.75-0.29,2.47-0.47
		c0.72-0.19,1.31-0.37,1.78-0.56c0.46-0.2,0.75-0.35,0.85-0.47c0.1-0.1,0.19-0.23,0.25-0.34c0.06-0.12,0.11-0.27,0.15-0.44
		c0.02-0.18,0.05-0.39,0.07-0.64c0.02-0.25,0.02-0.54,0.02-0.89c0-0.4,0-0.74-0.03-1C302.44,28.84,302.4,28.63,302.33,28.49"></path>
    <path d="M251.21,16.61c-0.12-0.17-0.26-0.32-0.42-0.47c-0.25-0.22-0.57-0.39-0.89-0.5c-1.19-0.41-2.53-0.22-3.62,0.37
		c-1.09,0.59-2.05,1.52-2.43,2.73c-0.11,0.34-0.18,0.7-0.22,1.06c-0.05,0.38-0.07,0.77-0.07,1.15c0,3.81,0,0,0,0v11.81
		c0,0.16-0.05,0.3-0.15,0.42c-0.09,0.12-0.26,0.23-0.49,0.29c-0.23,0.09-0.54,0.14-0.92,0.19c-0.38,0.04-0.87,0.06-1.46,0.06
		c-0.59,0-1.08-0.02-1.46-0.06c-0.38-0.04-0.69-0.1-0.93-0.19c-0.23-0.07-0.39-0.17-0.49-0.29c-0.1-0.12-0.14-0.26-0.14-0.42V11.37
		c0-0.16,0.04-0.3,0.12-0.42c0.08-0.12,0.22-0.22,0.43-0.3c0.21-0.08,0.48-0.14,0.81-0.18c0.32-0.04,0.74-0.06,1.23-0.06
		c0.51,0,0.93,0.02,1.27,0.06c0.33,0.04,0.59,0.1,0.78,0.18c0.19,0.08,0.32,0.18,0.4,0.3c0.08,0.12,0.12,0.26,0.12,0.42v2.47
		c1.18-1.27,2.39-2.23,3.61-2.87c1.22-0.64,2.5-0.96,3.83-0.96c1.45,0,2.68,0.24,3.68,0.72c1,0.48,1.81,1.13,2.43,1.95
		c0.61,0.82,1.06,1.78,1.33,2.89c0.28,1.11,0.41,2.43,0.41,3.98v13.21c0,0.16-0.05,0.3-0.15,0.42c-0.09,0.12-0.25,0.23-0.48,0.29
		c-0.23,0.09-0.53,0.14-0.92,0.19c-0.39,0.04-0.88,0.06-1.45,0.06c-0.59,0-1.09-0.02-1.47-0.06c-0.4-0.04-0.71-0.1-0.93-0.19
		c-0.22-0.07-0.38-0.17-0.48-0.29c-0.1-0.12-0.15-0.26-0.15-0.42c0,0,0.01-12.78,0-13.44C251.91,18.41,251.75,17.38,251.21,16.61"></path>
    <path d="M93.68,32.76c0,0.16-0.05,0.3-0.14,0.42c-0.09,0.13-0.26,0.23-0.49,0.3c-0.23,0.09-0.54,0.14-0.92,0.19
		c-0.38,0.04-0.87,0.06-1.46,0.06c-0.59,0-1.08-0.02-1.47-0.06c-0.38-0.04-0.69-0.1-0.92-0.19c-0.23-0.07-0.39-0.17-0.49-0.3
		c-0.1-0.11-0.14-0.26-0.14-0.42V1.22c0-0.16,0.05-0.3,0.14-0.43c0.1-0.13,0.26-0.24,0.49-0.32c0.24-0.09,0.54-0.16,0.92-0.2
		c0.39-0.05,0.87-0.07,1.47-0.07c0.59,0,1.08,0.02,1.46,0.07c0.39,0.04,0.69,0.11,0.92,0.2c0.23,0.09,0.4,0.2,0.49,0.32
		c0.1,0.13,0.14,0.27,0.14,0.43V32.76z"></path>
    <path d="M105.19,32.76c0,0.16-0.05,0.3-0.14,0.42c-0.1,0.13-0.26,0.23-0.49,0.3c-0.23,0.09-0.54,0.14-0.92,0.19
		c-0.38,0.04-0.87,0.06-1.46,0.06c-0.59,0-1.08-0.02-1.46-0.06c-0.39-0.04-0.69-0.1-0.92-0.19c-0.23-0.07-0.4-0.17-0.49-0.3
		c-0.09-0.11-0.14-0.25-0.14-0.42V11.41c0-0.16,0.05-0.3,0.14-0.42c0.1-0.12,0.26-0.23,0.49-0.31c0.23-0.09,0.54-0.15,0.92-0.2
		c0.38-0.05,0.87-0.07,1.46-0.07c0.59,0,1.08,0.02,1.46,0.07c0.39,0.05,0.69,0.11,0.92,0.2c0.23,0.09,0.4,0.19,0.49,0.31
		c0.09,0.12,0.14,0.26,0.14,0.42V32.76z M105.64,4.13c0,1.21-0.25,2.05-0.74,2.52c-0.49,0.46-1.41,0.69-2.76,0.69
		c-1.36,0-2.27-0.22-2.75-0.67c-0.47-0.45-0.7-1.25-0.7-2.42c0-1.21,0.24-2.06,0.73-2.53c0.49-0.47,1.41-0.71,2.77-0.71
		c1.34,0,2.25,0.23,2.74,0.68C105.4,2.15,105.64,2.96,105.64,4.13"></path>
    <path d="M279.74,29.36c0,0.41-0.02,0.76-0.04,1.04c-0.02,0.28-0.06,0.51-0.1,0.7c-0.03,0.19-0.08,0.35-0.14,0.47
		c-0.06,0.12-0.18,0.28-0.37,0.46c-0.19,0.19-0.52,0.4-0.98,0.67c-0.47,0.26-0.99,0.5-1.59,0.7c-0.59,0.21-1.24,0.37-1.93,0.51
		c-0.7,0.13-1.41,0.19-2.14,0.19c-1.66,0-3.11-0.26-4.38-0.77c-1.27-0.51-2.34-1.26-3.2-2.26c-0.86-1-1.51-2.22-1.95-3.66
		c-0.44-1.44-0.66-3.08-0.66-4.94c0-2.14,0.26-3.99,0.81-5.55c0.53-1.56,1.28-2.85,2.24-3.87c0.96-1.02,2.1-1.78,3.4-2.28
		c1.32-0.5,2.75-0.74,4.32-0.74c0.64,0,1.27,0.05,1.88,0.17c0.62,0.11,1.19,0.27,1.73,0.46c0.53,0.19,1.02,0.41,1.44,0.65
		c0.43,0.24,0.73,0.45,0.9,0.62c0.18,0.17,0.3,0.32,0.37,0.44c0.07,0.12,0.13,0.27,0.17,0.47c0.04,0.19,0.07,0.43,0.09,0.71
		c0.03,0.28,0.04,0.62,0.04,1.02c0,0.93-0.08,1.58-0.24,1.95c-0.16,0.37-0.37,0.57-0.62,0.57c-0.27,0-0.56-0.11-0.86-0.34
		c-0.31-0.23-0.67-0.47-1.09-0.74c-0.41-0.28-0.91-0.52-1.48-0.74c-0.57-0.23-1.26-0.34-2.06-0.34c-1.57,0-2.77,0.6-3.6,1.81
		c-0.83,1.2-1.25,2.98-1.25,5.31c0,1.15,0.1,2.17,0.31,3.05c0.21,0.88,0.51,1.62,0.92,2.21c0.41,0.6,0.92,1.04,1.54,1.33
		c0.61,0.29,1.33,0.44,2.15,0.44c0.83,0,1.54-0.12,2.15-0.37c0.6-0.25,1.12-0.52,1.57-0.83c0.44-0.3,0.82-0.58,1.12-0.82
		c0.3-0.25,0.56-0.37,0.77-0.37c0.15,0,0.27,0.04,0.36,0.12c0.1,0.08,0.18,0.23,0.23,0.45c0.06,0.21,0.1,0.49,0.14,0.83
		C279.72,28.4,279.74,28.83,279.74,29.36"></path>
    <path d="M181.41,32.76c0,0.16-0.05,0.3-0.14,0.42c-0.09,0.13-0.26,0.23-0.49,0.3c-0.24,0.09-0.54,0.14-0.92,0.19
		c-0.39,0.04-0.87,0.06-1.46,0.06s-1.08-0.02-1.46-0.06c-0.38-0.04-0.69-0.1-0.92-0.19c-0.23-0.07-0.4-0.17-0.49-0.3
		c-0.1-0.11-0.14-0.26-0.14-0.42V1.22c0-0.16,0.05-0.3,0.14-0.43c0.1-0.13,0.26-0.24,0.49-0.32c0.23-0.09,0.54-0.16,0.92-0.2
		c0.38-0.05,0.87-0.07,1.46-0.07s1.08,0.02,1.46,0.07c0.38,0.04,0.69,0.11,0.92,0.2c0.23,0.09,0.4,0.2,0.49,0.32
		c0.09,0.13,0.14,0.27,0.14,0.43V32.76z"></path>
    <path d="M167.29,32.78c-0.01,1.3-0.11,2.47-0.55,4.27c-0.25,1-0.69,1.82-1.27,2.49c-0.57,0.67-1.31,1.17-2.22,1.5
		c-0.9,0.34-1.96,0.51-3.19,0.51c-0.81,0-1.51-0.07-2.08-0.19c-0.57-0.14-0.95-0.25-1.13-0.38c-0.1-0.09-0.17-0.19-0.22-0.3
		c-0.05-0.11-0.1-0.27-0.14-0.47c-0.02-0.1-0.04-0.26-0.06-0.47c-0.02-0.21-0.03-0.46-0.03-0.71c0-0.26,0-0.53,0.02-0.81
		c0.02-0.29,0.05-0.55,0.09-0.79c0.04-0.22,0.1-0.42,0.18-0.57c0.08-0.15,0.19-0.23,0.33-0.23c0.1,0,0.19,0,0.29,0.01
		c0.09,0.02,0.2,0.04,0.32,0.06c0.11,0.02,0.25,0.04,0.4,0.06c0.15,0.02,0.35,0.03,0.58,0.03c0.5,0,0.93-0.07,1.27-0.23
		c0.34-0.14,0.61-0.37,0.82-0.69c0.21-0.31,0.37-0.72,0.45-1.21c0.08-0.49,0.14-1.14,0.14-1.86l0-17.37h-2.69
		c-0.3,0-0.53-0.19-0.69-0.56c-0.15-0.38-0.23-1-0.23-1.88c0-0.47,0.02-0.86,0.06-1.18c0.04-0.32,0.1-0.57,0.17-0.76
		c0.07-0.18,0.17-0.31,0.29-0.39c0.12-0.08,0.26-0.12,0.42-0.12h2.66v-1.8c0-1.45,0.14-2.73,0.43-3.83c0.29-1.1,0.74-2,1.36-2.74
		c0.61-0.72,1.4-1.27,2.35-1.64c0.95-0.37,2.08-0.55,3.37-0.55c0.63,0,1.22,0.05,1.78,0.16c0.56,0.1,1,0.22,1.32,0.33
		c0.32,0.12,0.54,0.23,0.65,0.33c0.11,0.11,0.2,0.26,0.27,0.46c0.07,0.2,0.13,0.46,0.16,0.77c0.03,0.31,0.05,0.7,0.05,1.16
		c0,0.47-0.02,0.84-0.05,1.12c-0.03,0.28-0.08,0.5-0.14,0.65c-0.06,0.15-0.14,0.26-0.22,0.31c-0.08,0.05-0.17,0.08-0.26,0.08
		c-0.11,0-0.24-0.03-0.37-0.08c-0.14-0.06-0.3-0.12-0.5-0.18c-0.2-0.06-0.44-0.12-0.71-0.18c-0.27-0.05-0.59-0.08-0.96-0.08
		c-0.43,0-0.8,0.07-1.12,0.21c-0.31,0.13-0.57,0.35-0.78,0.65c-0.21,0.29-0.36,0.68-0.46,1.15c-0.1,0.47-0.14,1.05-0.14,1.74v1.96
		h3.91c0.14,0,0.28,0.04,0.4,0.12c0.12,0.08,0.22,0.21,0.3,0.39c0.08,0.19,0.14,0.44,0.18,0.76c0.04,0.32,0.06,0.71,0.06,1.18
		c0,0.88-0.08,1.5-0.24,1.88c-0.16,0.37-0.39,0.56-0.7,0.56h-3.91L167.29,32.78z"></path>
    <path d="M218.32,17.61c0.21-0.68,0.52-1.27,0.9-1.78c0.39-0.5,0.87-0.9,1.46-1.2c0.58-0.29,1.29-0.44,2.11-0.44
		c0.99,0,1.78,0.22,2.39,0.65c0.61,0.44,0.98,0.99,1.12,1.65c0.1,0.46,0.06,0.89-0.11,1.3c-0.16,0.4-0.49,0.75-0.96,1.05
		c-0.49,0.3-1.15,0.54-2,0.71c-0.86,0.17-1.94,0.26-3.25,0.26h-2.07C217.97,19.02,218.1,18.3,218.32,17.61 M231.66,28.49
		c-0.06-0.14-0.14-0.24-0.24-0.3c-0.09-0.06-0.22-0.09-0.36-0.09c-0.24,0-0.55,0.08-0.93,0.23c-0.38,0.16-0.87,0.32-1.45,0.51
		c-0.58,0.18-1.27,0.35-2.07,0.5c-0.8,0.15-1.72,0.23-2.78,0.23c-1.04,0-1.93-0.14-2.67-0.41c-0.75-0.27-1.36-0.67-1.82-1.19
		c-0.48-0.52-0.82-1.15-1.04-1.89c-0.22-0.74-0.32-1.57-0.32-2.48c0,0,15.94,2.49,14.29-7.29c-0.22-1.32-0.98-2.39-1.79-3.32
		c-0.81-0.93-1.86-1.67-3.13-2.2c-1.27-0.53-2.8-0.79-4.59-0.79c-1.7,0-3.22,0.28-4.57,0.84c-1.35,0.56-2.49,1.37-3.44,2.43
		c-0.95,1.07-1.67,2.36-2.16,3.89c-0.5,1.52-0.74,3.24-0.74,5.14c0,2,0.24,3.74,0.7,5.23c0.47,1.49,1.19,2.72,2.15,3.7
		c0.96,0.97,2.15,1.7,3.58,2.18c1.43,0.49,3.1,0.72,5,0.72c1.06,0,2.05-0.06,2.98-0.21c0.93-0.13,1.75-0.29,2.47-0.47
		c0.72-0.19,1.31-0.37,1.78-0.56c0.46-0.2,0.74-0.35,0.84-0.47c0.11-0.1,0.19-0.23,0.26-0.34c0.06-0.12,0.11-0.27,0.14-0.44
		c0.03-0.18,0.06-0.39,0.07-0.64c0.01-0.25,0.02-0.54,0.02-0.89c0-0.4-0.02-0.74-0.04-1C231.77,28.84,231.72,28.63,231.66,28.49"></path>
    <path d="M100.02,69.98l-4.76-8.06h-3.79v8.06h-3.79V48.39h9.48c4.27,0,7.09,2.75,7.09,6.76c0,3.82-2.52,5.92-5.15,6.34
		l5.31,8.48H100.02z M100.37,55.12c0-2.07-1.55-3.4-3.69-3.4h-5.21v6.86h5.21C98.82,58.59,100.37,57.23,100.37,55.12z"></path>
    <path d="M123.19,69.98l-1.59-4.18h-9.9l-1.59,4.18h-4.3l8.48-21.59h4.73l8.48,21.59H123.19z M116.65,52.18l-3.88,10.29
		h7.77L116.65,52.18z"></path>
    <path d="M129.83,69.98V48.39h8.03c6.76,0,11.3,4.47,11.3,10.78c0,6.38-4.53,10.81-11.26,10.81H129.83z M145.27,59.17
		c0-4.14-2.59-7.45-7.38-7.45h-4.27v14.92h4.24C142.55,66.65,145.27,63.28,145.27,59.17z"></path>
    <path d="M166.83,69.98l-1.59-4.18h-9.9l-1.59,4.18h-4.3l8.48-21.59h4.73l8.48,21.59H166.83z M160.29,52.18l-3.88,10.29
		h7.77L160.29,52.18z"></path>
    <path d="M185.8,69.98l-4.76-8.06h-3.79v8.06h-3.79V48.39h9.48c4.27,0,7.09,2.75,7.09,6.76c0,3.82-2.53,5.92-5.15,6.34
		l5.31,8.48H185.8z M186.15,55.12c0-2.07-1.55-3.4-3.69-3.4h-5.21v6.86h5.21C184.6,58.59,186.15,57.23,186.15,55.12z"></path>
    <path d="M193.57,69.98V48.39h3.79v18.25h9.52v3.33H193.57z"></path>
    <path d="M212.31,69.98v-8.97l-8.38-12.62h4.34l5.92,9.22l5.92-9.22h4.34l-8.35,12.62v8.97H212.31z"></path>
</svg>