<svg xmlns="http://www.w3.org/2000/svg" width="199" height="29" viewBox="0 0 199 29">
  <g fill="#0078D7" fill-rule="evenodd" transform="translate(0 -1)">
    <polygon points="146.286 10.635 168.232 10.635 168.232 4.682 146.286 4.682"/>
    <polygon points="146.286 19.785 168.232 19.785 168.232 14.09 146.286 14.09"/>
    <polygon points="146.285 29.192 168.232 29.192 168.232 23.239 146.285 23.239"/>
    <path d="M43.2576 23.4976L49.2566 23.4976C52.6646 23.4976 55.1496 20.3616 55.1496 16.9376 55.1496 13.5136 53.0736 10.3416 49.2566 10.3416L43.2576 10.3416 43.2576 23.4976zM36.1686 29.1926L36.1686 4.6826 49.2566 4.6826C57.2136 4.6826 62.2236 9.8326 62.2236 16.9376 62.2236 24.0426 57.3476 29.1926 49.2566 29.1926L36.1686 29.1926zM75.7517 13.272L84.7507 13.272C86.5687 13.272 87.7497 11.904 87.7497 10.268 87.7497 8.632 86.7947 7.273 84.7507 7.273L75.7517 7.273 75.7517 13.272zM68.2527 1L85.7047 1C91.5667 1 94.9757 5.56 94.9757 10.268 94.9757 13.774 92.8127 17.214 89.7947 18.316L95.0057 29.192 87.4007 29.192 82.5387 18.998 75.7517 18.998 75.7517 29.192 68.2527 29.192 68.2527 1z"/>
    <polygon points="101.572 29.192 108.883 29.192 108.883 4.682 101.572 4.682"/>
    <polygon points="142.818 4.683 131.087 29.193 124.055 29.193 112.323 4.683 119.824 4.683 127.453 20.899 127.688 20.899 135.317 4.683"/>
    <path d="M189.3674 15.2173C191.1964 15.2173 192.1394 14.0803 192.1394 12.8113 192.1394 11.5423 191.2634 10.3933 189.3674 10.3933L181.6414 10.3933 181.6414 15.2173 189.3674 15.2173zM174.5524 4.6823L189.3674 4.6823C195.5044 4.6823 198.9014 8.0033 198.9564 12.8113 199.0024 16.8033 196.5064 18.9043 194.4574 19.8013 194.5944 19.8013 199.0024 29.1923 199.0024 29.1923L191.5494 29.1923 187.5304 20.9063 181.5054 20.9063 181.5054 29.1923 174.5524 29.1923 174.5524 4.6823zM12.1892 19.1655L16.0312 9.8635 19.8692 19.1655 12.1892 19.1655zM19.1102.9995L12.9522.9995.000200000002 29.1925 8.0432 29.1925 10.0892 24.8605 21.9732 24.8605 24.0192 29.1925 32.0632 29.1925 19.1102.9995z"/>
  </g>
</svg>
