<?xml version="1.0" encoding="UTF-8" standalone="no"?>
<!DOCTYPE svg PUBLIC "-//W3C//DTD SVG 1.1//EN" "http://www.w3.org/Graphics/SVG/1.1/DTD/svg11.dtd">
<svg width="100%" height="100%" viewBox="0 0 1975 371" version="1.1" xmlns="http://www.w3.org/2000/svg" xmlns:xlink="http://www.w3.org/1999/xlink" xml:space="preserve" style="fill-rule:evenodd;clip-rule:evenodd;stroke-linejoin:round;stroke-miterlimit:1.41421;">
    <g transform="matrix(4.16667,0,0,4.16667,0,0)">
        <path d="M93.433,34.046C93.433,31.849 94.059,30.259 95.315,29.277C96.567,28.299 98.338,27.81 100.614,27.81C102.025,27.81 103.318,27.984 104.496,28.336C105.671,28.692 106.456,28.948 106.849,29.103L106.849,60.05C106.849,65.389 108.101,69.45 110.613,72.232C113.125,75.014 116.971,76.411 122.15,76.411C127.326,76.411 131.172,75.014 133.68,72.232C136.192,69.45 137.448,65.389 137.448,60.05L137.448,34.046C137.448,31.849 138.074,30.259 139.33,29.277C140.582,28.299 142.309,27.81 144.506,27.81C145.999,27.81 147.333,27.984 148.507,28.336C149.685,28.692 150.471,28.948 150.86,29.103L150.86,62.992C150.86,66.993 150.174,70.583 148.803,73.762C147.425,76.941 145.469,79.627 142.92,81.82C140.371,84.021 137.329,85.688 133.799,86.826C130.268,87.959 126.385,88.53 122.15,88.53C117.912,88.53 114.029,87.959 110.498,86.826C106.964,85.688 103.944,84.021 101.436,81.82C98.924,79.627 96.964,76.941 95.552,73.762C94.141,70.583 93.433,66.993 93.433,62.992L93.433,34.046Z" style="fill:rgb(241,132,32);fill-rule:nonzero;"/>
        <path d="M161.452,17.335C161.452,15.138 162.078,13.552 163.337,12.566C164.59,11.588 166.316,11.099 168.513,11.099C169.925,11.099 171.236,11.273 172.455,11.629C173.67,11.981 174.474,12.237 174.867,12.392L174.867,27.808L191.932,27.808C194.522,27.808 196.344,28.335 197.404,29.394C198.464,30.457 198.99,32.002 198.99,34.044C198.99,35.381 198.797,36.611 198.404,37.749C198.012,38.89 197.697,39.694 197.463,40.164L174.867,40.164L174.867,66.406C174.867,68.448 175.141,70.115 175.693,71.408C176.242,72.701 177.005,73.742 177.983,74.524C178.968,75.313 180.102,75.861 181.399,76.176C182.692,76.487 184.048,76.643 185.456,76.643C187.734,76.643 189.853,76.291 191.813,75.583C193.773,74.879 195.188,74.212 196.052,73.586L201.465,82.53C200.835,83 199.953,83.589 198.816,84.293C197.678,85.001 196.285,85.668 194.636,86.294C192.991,86.924 191.146,87.45 189.109,87.883C187.067,88.313 184.833,88.528 182.403,88.528C175.497,88.528 170.28,86.746 166.75,83.174C163.215,79.61 161.452,74.92 161.452,69.114L161.452,17.335Z" style="fill:rgb(241,132,32);fill-rule:nonzero;"/>
        <path d="M238.53,76.41C241.194,76.41 243.65,75.921 245.888,74.939C248.122,73.957 250.041,72.627 251.653,70.938C253.261,69.249 254.498,67.252 255.361,64.932C256.221,62.624 256.653,60.094 256.653,57.345C256.653,54.599 256.221,52.047 255.361,49.694C254.498,47.341 253.261,45.322 251.653,43.637C250.041,41.951 248.122,40.617 245.888,39.635C243.65,38.653 241.194,38.161 238.53,38.161C235.785,38.161 233.295,38.653 231.057,39.635C228.823,40.617 226.919,41.969 225.351,43.692C223.781,45.422 222.547,47.464 221.643,49.813C220.743,52.169 220.291,54.681 220.291,57.345C220.291,60.168 220.743,62.758 221.643,65.11C222.547,67.466 223.799,69.467 225.411,71.112C227.019,72.761 228.938,74.054 231.179,74.995C233.41,75.94 235.862,76.41 238.53,76.41ZM206.994,6.391C206.994,4.272 207.62,2.701 208.876,1.682C210.128,0.663 211.895,0.152 214.17,0.152C215.585,0.152 216.878,0.33 218.053,0.682C219.231,1.038 220.013,1.293 220.409,1.449L220.409,35.219C222.369,32.711 225.077,30.573 228.527,28.809C231.98,27.042 235.94,26.157 240.412,26.157C244.728,26.157 248.711,26.924 252.36,28.454C256.006,29.984 259.185,32.144 261.889,34.926C264.598,37.712 266.717,41.006 268.243,44.811C269.777,48.616 270.54,52.795 270.54,57.345C270.54,61.816 269.755,65.977 268.188,69.819C266.617,73.665 264.416,76.958 261.6,79.704C258.773,82.453 255.417,84.609 251.534,86.176C247.651,87.743 243.394,88.529 238.767,88.529C234.136,88.529 229.883,87.825 226,86.413C222.113,85.002 218.764,82.883 215.937,80.056C213.111,77.233 210.917,73.702 209.35,69.467C207.775,65.229 206.994,60.249 206.994,54.522L206.994,6.391Z" style="fill:rgb(241,132,32);fill-rule:nonzero;"/>
        <path d="M278.424,48.874C278.424,41.657 280.639,36.066 285.074,32.105C289.505,28.141 295.644,26.159 303.487,26.159C308.433,26.159 312.453,26.848 315.554,28.219C318.651,29.593 320.2,31.69 320.2,34.517C320.2,35.851 319.829,37.144 319.085,38.396C318.336,39.656 317.729,40.438 317.262,40.753C315.925,40.126 314.28,39.537 312.316,38.989C310.356,38.441 308.118,38.163 305.606,38.163C296.433,38.163 291.843,43.028 291.843,52.757L291.843,86.882L278.424,86.882L278.424,48.874Z" style="fill:rgb(241,132,32);fill-rule:nonzero;"/>
        <path d="M364.916,60.521C364.134,60.365 362.663,60.128 360.503,59.817C358.343,59.506 355.109,59.343 350.797,59.343C345.458,59.343 341.579,60.15 339.145,61.758C336.714,63.366 335.495,65.897 335.495,69.346C335.495,70.761 335.747,72.054 336.262,73.232C336.77,74.411 337.652,75.407 338.908,76.233C340.163,77.056 341.868,77.689 344.028,78.115C346.184,78.545 348.874,78.764 352.093,78.764C355.698,78.764 358.562,78.627 360.681,78.349C362.797,78.078 364.212,77.86 364.916,77.704L364.916,60.521ZM378.209,86.648C377.427,86.803 376.194,86.978 374.508,87.178C372.822,87.37 370.836,87.57 368.565,87.763C366.287,87.959 363.738,88.137 360.915,88.297C358.091,88.448 355.15,88.53 352.093,88.53C345.969,88.53 340.971,88 337.085,86.941C333.202,85.881 330.142,84.469 327.908,82.706C325.674,80.939 324.143,78.901 323.317,76.582C322.495,74.273 322.084,71.899 322.084,69.464C322.084,66.249 322.573,63.425 323.554,60.991C324.533,58.561 326.144,56.52 328.378,54.875C330.612,53.226 333.535,51.992 337.144,51.166C340.753,50.34 345.15,49.929 350.326,49.929C353.301,49.929 356.132,50.029 358.795,50.225C361.463,50.421 363.464,50.599 364.797,50.755C364.797,48.009 364.345,45.735 363.449,43.93C362.541,42.126 361.307,40.715 359.74,39.696C358.169,38.673 356.284,37.969 354.09,37.576C351.893,37.184 349.459,36.987 346.795,36.987C342.323,36.987 338.733,37.499 336.025,38.517C333.321,39.54 331.538,40.4 330.672,41.107C330.201,40.715 329.553,39.97 328.73,38.869C327.908,37.773 327.496,36.439 327.496,34.868C327.496,33.771 327.789,32.69 328.378,31.63C328.967,30.574 330.005,29.633 331.498,28.807C332.987,27.984 334.988,27.34 337.496,26.866C340.008,26.395 343.187,26.158 347.025,26.158C351.656,26.158 355.872,26.614 359.681,27.514C363.49,28.418 366.757,29.848 369.503,31.808C372.252,33.771 374.386,36.361 375.916,39.577C377.45,42.793 378.209,46.676 378.209,51.225L378.209,86.648Z" style="fill:rgb(241,132,32);fill-rule:nonzero;"/>
        <path d="M390.214,34.046C390.214,31.849 390.844,30.259 392.096,29.277C393.352,28.299 395.119,27.81 397.394,27.81C398.805,27.81 400.102,27.984 401.277,28.336C402.451,28.692 403.237,28.948 403.629,29.103L403.629,86.881L390.214,86.881L390.214,34.046ZM396.923,1.328C399.198,1.328 401.121,2.113 402.688,3.684C404.255,5.255 405.041,7.174 405.041,9.449C405.041,11.724 404.255,13.646 402.688,15.214C401.121,16.788 399.198,17.57 396.923,17.57C394.649,17.57 392.726,16.788 391.155,15.214C389.588,13.646 388.802,11.724 388.802,9.449C388.802,7.174 389.588,5.255 391.155,3.684C392.726,2.113 394.649,1.328 396.923,1.328Z" style="fill:rgb(241,132,32);fill-rule:nonzero;"/>
        <path d="M415.635,51.225C415.635,47.305 416.358,43.792 417.81,40.695C419.259,37.594 421.263,34.967 423.812,32.807C426.365,30.651 429.384,29.006 432.874,27.869C436.364,26.731 440.188,26.161 444.345,26.161C448.505,26.161 452.347,26.731 455.878,27.869C459.409,29.006 462.45,30.651 464.999,32.807C467.545,34.967 469.531,37.594 470.942,40.695C472.354,43.792 473.061,47.305 473.061,51.225L473.061,86.884L459.646,86.884L459.646,54.637C459.646,49.305 458.349,45.245 455.763,42.459C453.173,39.673 449.365,38.28 444.345,38.28C439.247,38.28 435.423,39.673 432.874,42.459C430.325,45.245 429.051,49.305 429.051,54.637L429.051,86.884L415.635,86.884L415.635,51.225Z" style="fill:rgb(241,132,32);fill-rule:nonzero;"/>
        <path d="M63.153,75.026C60.608,77.519 57.629,79.471 54.21,80.891C50.79,82.302 47.078,83.01 43.069,83.01C39.06,83.01 35.344,82.302 31.928,80.891C28.509,79.471 25.526,77.519 22.981,75.026C20.439,72.536 18.446,69.594 17.009,66.197C15.616,62.922 14.904,59.376 14.856,55.571L21.614,55.571C21.684,56.742 21.936,57.839 22.373,58.865C22.896,60.102 23.618,61.169 24.541,62.073C25.463,62.977 26.549,63.689 27.79,64.196C29.027,64.715 30.38,64.974 31.836,64.974C33.292,64.974 34.637,64.715 35.878,64.196C37.119,63.689 38.205,62.977 39.127,62.073C40.053,61.169 40.776,60.102 41.294,58.865C41.643,58.053 41.872,57.19 41.987,56.286L44.151,56.286C44.269,57.19 44.495,58.053 44.844,58.865C45.366,60.102 46.089,61.169 47.011,62.073C47.934,62.977 49.019,63.689 50.26,64.196C51.501,64.715 52.85,64.974 54.302,64.974C55.762,64.974 57.107,64.715 58.348,64.196C59.589,63.689 60.675,62.977 61.597,62.073C62.52,61.169 63.246,60.102 63.768,58.865C64.202,57.839 64.454,56.742 64.528,55.571L71.278,55.571C71.234,59.376 70.519,62.922 69.129,66.197C67.692,69.594 65.699,72.536 63.153,75.026ZM37.919,54.863C37.919,55.719 37.764,56.512 37.456,57.242C37.145,57.972 36.715,58.605 36.167,59.146C35.615,59.684 34.974,60.106 34.237,60.41C33.499,60.714 32.699,60.866 31.836,60.866C30.969,60.866 30.169,60.714 29.431,60.41C28.694,60.106 28.049,59.684 27.501,59.146C26.953,58.605 26.523,57.972 26.215,57.242C25.904,56.512 25.749,55.719 25.749,54.863C25.749,54.015 25.904,53.218 26.215,52.485C26.523,51.755 26.953,51.122 27.501,50.581C28.049,50.047 28.694,49.625 29.431,49.321C30.169,49.014 30.969,48.862 31.836,48.862C32.699,48.862 33.499,49.014 34.237,49.321C34.974,49.625 35.615,50.047 36.167,50.581C36.715,51.122 37.145,51.755 37.456,52.485C37.764,53.218 37.919,54.015 37.919,54.863ZM60.389,54.863C60.389,55.719 60.234,56.512 59.923,57.242C59.615,57.972 59.185,58.605 58.637,59.146C58.089,59.684 57.44,60.106 56.707,60.41C55.97,60.714 55.169,60.866 54.302,60.866C53.439,60.866 52.639,60.714 51.902,60.41C51.164,60.106 50.52,59.684 49.971,59.146C49.423,58.605 48.993,57.972 48.682,57.242C48.374,56.512 48.219,55.719 48.219,54.863C48.219,54.015 48.374,53.218 48.682,52.485C48.993,51.755 49.423,51.122 49.971,50.581C50.52,50.047 51.164,49.625 51.902,49.321C52.639,49.014 53.439,48.862 54.302,48.862C55.169,48.862 55.97,49.014 56.707,49.321C57.44,49.625 58.089,50.047 58.637,50.581C59.185,51.122 59.615,51.755 59.923,52.485C60.234,53.218 60.389,54.015 60.389,54.863ZM17.364,43.408C22.162,41.822 28.531,39.807 28.531,39.807C42.536,35.35 44.41,30.085 44.41,30.085C44.41,30.085 47.356,35.35 57.526,38.829C57.526,38.829 63.142,40.674 68.366,42.559C68.625,43.082 68.896,43.597 69.129,44.145C70.048,46.313 70.671,48.595 71,50.988L63.817,50.988C63.802,50.947 63.783,50.903 63.768,50.862C63.246,49.628 62.52,48.562 61.597,47.658C60.675,46.75 59.589,46.042 58.348,45.527C57.107,45.016 55.762,44.76 54.302,44.76C52.85,44.76 51.501,45.016 50.26,45.527C49.019,46.042 47.934,46.75 47.011,47.658C46.089,48.562 45.366,49.628 44.844,50.862C44.677,51.251 44.54,51.648 44.429,52.055L41.709,52.055C41.598,51.648 41.461,51.251 41.294,50.862C40.776,49.628 40.053,48.562 39.127,47.658C38.205,46.75 37.119,46.042 35.878,45.527C34.637,45.016 33.292,44.76 31.836,44.76C30.38,44.76 29.027,45.016 27.79,45.527C26.549,46.042 25.463,46.75 24.541,47.658C23.618,48.562 22.896,49.628 22.373,50.862C22.355,50.903 22.34,50.947 22.322,50.988L15.138,50.988C15.468,48.595 16.09,46.313 17.009,44.145C17.116,43.893 17.25,43.656 17.364,43.408ZM82.845,29.689C80.644,24.513 77.61,20.023 73.723,16.218C69.841,12.409 65.291,9.43 60.075,7.274C54.854,5.114 49.19,4.036 43.069,4.036C36.952,4.036 31.284,5.114 26.064,7.274C20.847,9.43 16.294,12.409 12.415,16.218C8.532,20.023 5.486,24.513 3.293,29.689C1.096,34.868 0,40.481 0,46.52C0,52.563 1.096,58.168 3.293,63.348C5.486,68.527 8.532,73.017 12.415,76.823C16.294,80.627 20.847,83.606 26.064,85.766C31.284,87.922 36.952,89 43.069,89C49.19,89 54.854,87.922 60.075,85.766C65.291,83.606 69.841,80.627 73.723,76.823C77.61,73.017 80.644,68.527 82.845,63.348C85.038,58.168 86.139,52.563 86.139,46.52C86.139,40.481 85.038,34.868 82.845,29.689Z" style="fill:rgb(241,132,32);fill-rule:nonzero;"/>
    </g>
</svg>
