<svg width="122" height="24" viewBox="0 0 122 24" xmlns="http://www.w3.org/2000/svg"><title>reppublika-logo</title><desc>Created with Sketch.</desc><g fill="none"><g><path d="M117.615 12.029c0-2.288-1.384-3.566-3.38-3.566-1.969 0-3.167 1.437-3.167 3.566 0 2.129 1.171 3.592 3.22 3.592 2.076 0 3.327-1.304 3.327-3.592zm.863 6.839h-.943v-1.597s-1.224 1.809-4.098 1.809c-3.406 0-6.44-1.942-6.44-6.918 0-4.657 3.061-7.185 6.494-7.185 2.874 0 4.045 1.676 4.045 1.676v-1.437h.943v13.651z" fill="#000"/><path id="Combined-Shape" fill="#EFB93F" d="M121.606 9.754v4.596h-3.129v-4.596z"/><path id="Combined-Shape" fill="#ED1E79" d="M118.477 18.868h3.129v-4.518h-3.129z"/><path id="Combined-Shape" fill="#B36CC4" d="M118.477 5.217h3.129v4.537h-3.129z"/></g><g><path id="Combined-Shape" fill="#000" d="M99.52.002h-4.072v18.867h4.072z"/><path id="Combined-Shape" fill="#B36CC4" d="M103.822 11.841l-.077-.131h-.02.02l3.524-6.552h-4.688l-3.061 6.093v-.036l-.23.494 4.456.256.077-.125z"/><path id="Combined-Shape" fill="#EFB93F" d="M99.52 12.191v-.048l3.587 6.751h4.903l-4.264-7.184h-4.476.02z"/></g><g><path fill="#000" d="M89.621 18.868h4.045v-13.678h-4.045z"/><path fill="#ED1E79" d="M89.621 4.718h4.045v-4.717h-4.045z"/></g><g><path fill="#000" d="M83.793 5.158h4.045v-5.156h-4.045z"/><path id="Combined-Shape" fill="#EFB93F" d="M83.793 14.35v-4.596h4.045v4.596z"/><path id="Combined-Shape" fill="#ED1E79" d="M83.793 14.35v4.518h4.045v-4.518z"/><path id="Combined-Shape" fill="#B36CC4" d="M83.793 9.754v-4.596h4.045v4.596z"/></g><g><path d="M75.332 8.411c-1.943 0-3.273 1.357-3.273 3.592 0 2.315 1.331 3.619 3.38 3.619 2.022 0 3.166-1.517 3.166-3.619 0-2.155-1.251-3.592-3.273-3.592zm-7.265-3.763h4.072v1.98s1.357-1.703 4.311-1.703c3.54 0 6.227 2.528 6.227 6.919 0 5.003-2.954 7.238-6.36 7.238-3.007 0-4.178-1.809-4.178-1.809v1.596h-4.072v-14.221z" fill="#000"/><path id="Combined-Shape" fill="#ED1E79" d="M72.138 4.648v-4.646h-4.072v4.646h4.072z"/></g><g><path d="M66.285 18.868h-4.072v-1.783s-1.011 1.996-3.486 1.996c-3.353 0-4.098-2.368-4.098-4.976v-8.914h4.045v8.382c0 1.197.426 2.102 1.544 2.102 1.517 0 1.996-1.357 1.996-2.794v-3.127h4.072v9.114z" fill="#000"/><path id="Combined-Shape" fill="#B36CC4" d="M62.213 9.754v-4.563h4.072v4.563z"/></g><g id="p"><path d="M42.849 12.003c0 2.315 1.33 3.619 3.38 3.619 2.023 0 3.167-1.517 3.167-3.619 0-2.155-1.251-3.592-3.273-3.592-1.943 0-3.273 1.357-3.273 3.592zm-3.992-6.812h4.072v1.437s1.251-1.703 4.205-1.703c3.54 0 6.333 2.528 6.333 6.919 0 4.444-2.475 7.238-6.44 7.238-2.848 0-4.098-1.809-4.098-1.809v1.674h-4.072v-13.755z" id="Fill-25" fill="#000"/><path id="Combined-Shape" fill="#ED1E79" d="M42.929 18.946v4.846h-4.072v-4.846z"/></g><g><path d="M27.222 12.003c0 2.315 1.33 3.619 3.38 3.619 2.023 0 3.167-1.517 3.167-3.619 0-2.155-1.251-3.592-3.273-3.592-1.943 0-3.273 1.357-3.273 3.592zm-3.992-6.812h4.072v1.437s1.251-1.703 4.205-1.703c3.54 0 6.333 2.528 6.333 6.919 0 4.444-2.475 7.238-6.44 7.238-2.848 0-4.098-1.809-4.098-1.809v1.674h-4.072v-13.755z" fill="#000"/><path id="Combined-Shape" fill="#EFB93F" d="M27.302 18.946v4.846h-4.072v-4.846z"/></g><path d="M17.989 10.592s-.346-2.342-2.901-2.342c-2.581 0-2.874 2.342-2.874 2.342h5.775zm3.513 6.147s-1.863 2.395-5.935 2.395c-4.923 0-7.611-2.768-7.611-7.132 0-4.231 3.061-7.105 7.132-7.105 4.471 0 7.159 2.954 7.159 7.797v.692h-10.059s.213 2.368 3.433 2.368c2.289 0 3.699-1.57 3.699-1.57l2.182 2.554z" fill="#000"/><g><path d="M7.611 9.528c-2.262-.213-3.54.559-3.54 3.486v1.081h-4.072v-8.904h4.072v2.368c.027-.133.931-2.688 3.886-2.661l-.346 4.63z" id="Combined-Shape" fill="#000"/><path fill="#ED1E79" d="M4.072 14.094v4.774h-4.072v-4.774z"/></g></g></svg>