<?xml version="1.0" encoding="UTF-8" standalone="no"?>
<!-- Created with Inkscape (http://www.inkscape.org/) -->

<svg
   xmlns:dc="http://purl.org/dc/elements/1.1/"
   xmlns:cc="http://creativecommons.org/ns#"
   xmlns:rdf="http://www.w3.org/1999/02/22-rdf-syntax-ns#"
   xmlns:svg="http://www.w3.org/2000/svg"
   xmlns="http://www.w3.org/2000/svg"
   xmlns:sodipodi="http://sodipodi.sourceforge.net/DTD/sodipodi-0.dtd"
   xmlns:inkscape="http://www.inkscape.org/namespaces/inkscape"
   version="1.1"
   id="svg2"
   xml:space="preserve"
   width="1248"
   height="296"
   viewBox="0 0 1248 296"
   sodipodi:docname="SharpSpring_Color_RGB.svg"
   inkscape:version="0.92.4 (5da689c313, 2019-01-14)"><metadata
     id="metadata8"><rdf:RDF><cc:Work
         rdf:about=""><dc:format>image/svg+xml</dc:format><dc:type
           rdf:resource="http://purl.org/dc/dcmitype/StillImage" /><dc:title></dc:title></cc:Work></rdf:RDF></metadata><defs
     id="defs6"><clipPath
       clipPathUnits="userSpaceOnUse"
       id="clipPath18"><path
         d="M 0,222 H 936 V 0 H 0 Z"
         id="path16"
         inkscape:connector-curvature="0" /></clipPath></defs><sodipodi:namedview
     pagecolor="#ffffff"
     bordercolor="#666666"
     borderopacity="1"
     objecttolerance="10"
     gridtolerance="10"
     guidetolerance="10"
     inkscape:pageopacity="0"
     inkscape:pageshadow="2"
     inkscape:window-width="1920"
     inkscape:window-height="986"
     id="namedview4"
     showgrid="false"
     inkscape:zoom="0.39823718"
     inkscape:cx="109.23139"
     inkscape:cy="148"
     inkscape:window-x="-11"
     inkscape:window-y="-11"
     inkscape:window-maximized="1"
     inkscape:current-layer="g10" /><g
     id="g10"
     inkscape:groupmode="layer"
     inkscape:label="SharpSpring_Color_RGB"
     transform="matrix(1.3333333,0,0,-1.3333333,0,296)"><g
       id="g12"><g
         id="g14"
         clip-path="url(#clipPath18)"><g
           id="g20"
           transform="translate(204.5586,68.7192)"><path
             d="m 0,0 c 6.218,-4.273 13.359,-6.401 21.422,-6.393 15.828,0.019 23.743,6.825 23.732,20.425 -0.013,10.197 -6.674,17.812 -19.981,22.85 -8.269,3.006 -14.437,6.592 -18.519,10.769 -4.475,4.458 -6.711,9.9 -6.718,16.308 -0.007,7.191 2.654,13.164 7.997,17.931 5.333,4.672 12.184,7.006 20.532,7.017 4.281,0.005 8.255,-0.479 11.952,-1.448 3.109,-0.774 5.635,-1.791 7.58,-3.05 l -2.611,-5.974 c -1.663,1.162 -3.799,2.177 -6.42,3.052 -3.498,1.065 -7.14,1.594 -10.933,1.591 C 20.846,83.071 15.31,81.025 11.436,76.943 8.322,73.637 6.771,69.698 6.776,65.133 c 0.009,-9.232 6.822,-16.505 20.43,-21.832 8.542,-3.489 14.722,-7.224 18.509,-11.205 4.179,-4.56 6.283,-10.34 6.29,-17.329 0.007,-7.574 -2.573,-13.844 -7.712,-18.806 -5.626,-5.442 -13.439,-8.172 -23.447,-8.183 -9.709,-0.006 -17.54,2.17 -23.464,6.535 z"
             style="fill:#444545;fill-opacity:1;fill-rule:nonzero;stroke:none"
             id="path22"
             inkscape:connector-curvature="0" /></g><g
           id="g24"
           transform="translate(273.1279,161.6045)"><path
             d="m 0,0 6.993,0.007 0.046,-46.192 0.298,0.002 c 2.132,4.176 5.279,7.53 9.453,10.065 4.466,2.718 9.185,4.087 14.127,4.093 2.134,10e-4 4.33,-0.287 6.56,-0.873 3.014,-0.867 5.693,-2.228 8.02,-4.071 3.016,-2.23 5.305,-5.187 6.861,-8.879 1.939,-4.273 2.915,-9.467 2.924,-15.59 l 0.041,-42.102 -6.985,-0.007 -0.04,41.38 c -0.009,6.989 -1.426,12.572 -4.25,16.75 -3.303,4.852 -8.307,7.276 -15.009,7.269 C 18.642,-38.158 11.603,-43.41 7.923,-53.907 7.345,-55.65 7.052,-57.988 7.055,-60.902 l 0.043,-42.69 -6.994,-0.007 z"
             style="fill:#444545;fill-opacity:1;fill-rule:nonzero;stroke:none"
             id="path26"
             inkscape:connector-curvature="0" /></g><g
           id="g28"
           transform="translate(369.0439,130.5166)"><path
             d="m 0,0 1.318,0.002 c 10.492,0.01 17.637,-4.548 21.429,-13.676 1.556,-4.176 2.344,-8.838 2.35,-13.984 l 0.026,-27.977 c 0.006,-7.184 0.357,-12.768 1.037,-16.75 l -0.142,-0.147 -6.118,-0.007 c -0.297,0 -0.489,1.212 -0.594,3.643 l -0.733,6.554 h -0.436 c -2.715,-3.887 -5.533,-6.515 -8.45,-7.876 -4.076,-2.63 -8.829,-3.941 -14.273,-3.946 -9.709,-0.014 -16.318,4.35 -19.826,13.091 -0.584,2.237 -0.882,4.228 -0.884,5.976 v 1.165 c -0.01,8.836 4.659,15.64 13.968,20.413 5.444,2.234 9.035,3.358 10.776,3.358 4.569,0.875 8.362,1.319 11.371,1.321 h 0.144 l 0.005,-5.535 -0.284,-0.292 c -7.2,-0.007 -13.945,-1.52 -20.262,-4.536 -5.519,-3.403 -8.291,-7.925 -8.284,-13.556 v -1.309 c 0.007,-5.933 2.535,-10.155 7.589,-12.675 2.136,-0.975 4.318,-1.447 6.561,-1.447 8.251,0.009 14.569,3.412 18.927,10.214 1.843,2.82 2.766,5.739 2.763,8.751 l -0.018,21.272 c -0.013,11.554 -3.518,18.5 -10.518,20.822 -2.23,0.775 -4.66,1.164 -7.281,1.16 h -0.439 c -6.699,-0.005 -12.627,-1.762 -17.769,-5.267 -0.201,0 -0.975,1.697 -2.341,5.101 C -14.073,-2.052 -7.28,-0.005 0,0"
             style="fill:#444545;fill-opacity:1;fill-rule:nonzero;stroke:none"
             id="path30"
             inkscape:connector-curvature="0" /></g><g
           id="g32"
           transform="translate(414.1035,107.1074)"><path
             d="M 0,0 C -0.009,7.866 -0.204,14.857 -0.602,20.976 L 5.813,20.983 6.111,6.854 H 6.55 c 3.583,10.491 10.183,15.744 19.797,15.754 0.487,0 0.973,-0.053 1.459,-0.147 0.486,0 0.974,-0.046 1.459,-0.14 l 0.008,-6.556 c -0.486,0.093 -1.022,0.14 -1.602,0.14 L 25.916,15.903 C 15.908,15.894 9.797,9.377 7.581,-3.64 7.19,-5.481 7.003,-7.719 7.007,-10.338 l 0.037,-38.614 -6.996,-0.01 z"
             style="fill:#444545;fill-opacity:1;fill-rule:nonzero;stroke:none"
             id="path34"
             inkscape:connector-curvature="0" /></g><g
           id="g36"
           transform="translate(492.4687,131.9497)"><path
             d="m 0,0 1.602,0.002 c 9.425,0.012 17.198,-4.257 23.323,-12.796 4.288,-6.503 6.429,-14.08 6.438,-22.724 l 0.002,-0.579 c 0.016,-16.517 -6.045,-28.183 -18.178,-34.991 -4.469,-2.044 -9.176,-3.069 -14.132,-3.074 -6.51,-0.004 -12.238,1.784 -17.199,5.376 l -0.007,7.283 h 0.14 c 4.87,-4.46 10.501,-6.689 16.916,-6.685 10.199,0.012 17.571,5.025 22.125,15.029 2.14,5.15 3.204,10.832 3.196,17.053 -0.008,9.031 -2.64,16.605 -7.896,22.719 -4.665,4.951 -10.3,7.423 -16.905,7.416 h -0.438 c -7.184,-0.007 -13.458,-3.223 -18.785,-9.636 -2.524,-3.114 -4.274,-7.439 -5.241,-12.97 -0.094,-0.683 -0.142,-1.56 -0.141,-2.627 l 0.074,-70.375 -0.288,-0.294 -6.555,-0.006 -0.298,0.293 -0.073,75.042 c -0.011,10.097 -0.207,18.355 -0.603,24.768 h 0.139 l 6.557,0.007 0.142,-0.149 0.452,-13.253 h 0.299 c 2.907,6.019 8.097,10.542 15.577,13.561 3.591,1.071 6.84,1.607 9.757,1.61"
             style="fill:#444545;fill-opacity:1;fill-rule:nonzero;stroke:none"
             id="path38"
             inkscape:connector-curvature="0" /></g><g
           id="g40"
           transform="translate(536.085,69.0532)"><path
             d="m 0,0 c 6.218,-4.273 13.37,-6.398 21.433,-6.389 15.83,0.015 23.742,6.818 23.73,20.421 -0.009,10.198 -6.684,17.817 -19.99,22.854 -8.255,3.003 -14.426,6.589 -18.511,10.767 -4.474,4.458 -6.722,9.898 -6.726,16.309 -0.009,7.192 2.656,13.164 7.997,17.931 5.342,4.671 12.183,7.007 20.542,7.015 4.27,0.004 8.254,-0.477 11.944,-1.445 3.106,-0.775 5.631,-1.79 7.578,-3.052 l -2.611,-5.974 c -1.652,1.16 -3.788,2.177 -6.422,3.052 -3.486,1.065 -7.138,1.594 -10.921,1.592 C 20.856,83.073 15.321,81.027 11.437,76.944 8.333,73.638 6.782,69.701 6.789,65.135 6.799,55.904 13.6,48.632 27.204,43.302 35.758,39.813 41.928,36.078 45.727,32.1 49.903,27.538 51.998,21.759 52.004,14.767 52.014,7.19 49.443,0.922 44.306,-4.038 38.679,-9.481 30.854,-12.211 20.848,-12.216 11.136,-12.23 3.319,-10.052 -2.614,-5.684 Z"
             style="fill:#444545;fill-opacity:1;fill-rule:nonzero;stroke:none"
             id="path42"
             inkscape:connector-curvature="0" /></g><g
           id="g44"
           transform="translate(634.958,132.0986)"><path
             d="m 0,0 1.599,0.004 c 9.427,0.01 17.198,-4.258 23.326,-12.796 4.289,-6.503 6.43,-14.08 6.437,-22.726 v -0.579 c 0.018,-16.519 -6.042,-28.176 -18.177,-34.991 -4.467,-2.044 -9.173,-3.068 -14.133,-3.073 -6.508,-0.008 -12.238,1.783 -17.198,5.38 l -0.006,7.281 h 0.142 c 4.866,-4.459 10.499,-6.693 16.914,-6.683 10.2,0.005 17.569,5.016 22.123,15.023 2.143,5.151 3.204,10.839 3.196,17.056 -0.007,9.029 -2.635,16.605 -7.896,22.717 -4.662,4.951 -10.3,7.425 -16.901,7.418 h -0.442 c -7.184,-0.007 -13.454,-3.223 -18.785,-9.635 -2.519,-3.116 -4.27,-7.442 -5.237,-12.975 -0.096,-0.68 -0.144,-1.554 -0.141,-2.623 l 0.07,-70.376 -0.283,-0.296 -6.555,-0.008 -0.298,0.301 -0.074,75.037 c -0.014,10.096 -0.211,18.357 -0.608,24.77 h 0.143 l 6.555,0.007 0.142,-0.149 0.452,-13.255 h 0.3 c 2.907,6.02 8.099,10.542 15.575,13.561 3.594,1.074 6.841,1.608 9.76,1.61"
             style="fill:#444545;fill-opacity:1;fill-rule:nonzero;stroke:none"
             id="path46"
             inkscape:connector-curvature="0" /></g><g
           id="g48"
           transform="translate(683.4629,107.3823)"><path
             d="M 0,0 C -0.008,7.868 -0.202,14.857 -0.603,20.978 L 5.812,20.981 6.11,6.854 h 0.443 c 3.58,10.491 10.177,15.746 19.796,15.756 0.487,0 0.972,-0.053 1.461,-0.148 0.486,0.003 0.97,-0.045 1.457,-0.142 l 0.006,-6.557 c -0.485,0.097 -1.021,0.145 -1.602,0.142 H 25.918 C 15.91,15.894 9.797,9.375 7.582,-3.638 7.19,-5.483 7.005,-7.719 7.007,-10.337 l 0.039,-38.615 -6.997,-0.007 z"
             style="fill:#444545;fill-opacity:1;fill-rule:nonzero;stroke:none"
             id="path50"
             inkscape:connector-curvature="0" /></g><g
           id="g52"
           transform="translate(727.6592,58.4707)"><path
             d="M 0,0 -0.071,69.931 6.927,69.94 6.996,0.007 Z m 3.128,83.927 c -3.606,-0.004 -5.395,1.982 -5.4,5.965 -0.005,4.085 1.89,6.128 5.673,6.128 3.687,0.007 5.54,-2.03 5.545,-6.117 C 8.948,85.921 7.051,83.93 3.268,83.927 Z"
             style="fill:#444545;fill-opacity:1;fill-rule:nonzero;stroke:none"
             id="path54"
             inkscape:connector-curvature="0" /></g><g
           id="g56"
           transform="translate(758.0557,111.6777)"><path
             d="M 0,0 C -0.007,6.221 -0.2,11.805 -0.601,16.755 L 5.96,16.762 6.412,4.233 h 0.295 c 4.555,9.429 12.557,14.149 24.021,14.162 2.228,0.001 4.47,-0.288 6.699,-0.872 3.013,-0.868 5.692,-2.231 8.021,-4.072 3.014,-2.328 5.307,-5.288 6.863,-8.879 1.937,-4.37 2.916,-9.614 2.918,-15.732 l 0.043,-41.961 -6.981,-0.01 -0.043,41.382 C 48.243,-4.662 46.823,1.022 44,5.291 40.591,10.145 35.547,12.569 28.837,12.564 18.057,12.553 11.067,7.148 7.876,-3.633 7.297,-5.772 7.001,-7.812 7.005,-9.752 L 7.05,-53.171 0.054,-53.179 Z"
             style="fill:#444545;fill-opacity:1;fill-rule:nonzero;stroke:none"
             id="path58"
             inkscape:connector-curvature="0" /></g><g
           id="g60"
           transform="translate(861.4814,131.0161)"><path
             d="m 0,0 1.316,0.002 c 10.008,0.008 17.542,-4.159 22.601,-12.507 0.189,-0.486 0.439,-0.828 0.726,-1.019 h 0.141 c 0.194,7.963 0.38,11.947 0.581,11.947 l 6.119,0.007 0.144,-0.149 h 0.142 c -0.39,-4.369 -0.573,-9.908 -0.566,-16.606 l 0.043,-42.98 c 0.017,-15.446 -2.642,-26.037 -7.984,-31.774 -3.006,-3.208 -5.876,-5.343 -8.593,-6.429 -5.141,-2.621 -10.867,-3.936 -17.188,-3.941 -8.834,-0.008 -16.364,2.025 -22.58,6.096 l -0.004,0.285 c 1.553,3.704 2.37,5.54 2.475,5.54 6.216,-3.87 12.871,-5.808 19.962,-5.803 h 0.438 l 0.584,-0.154 0.72,0.159 h 0.736 c 8.159,0.005 14.571,2.979 19.223,8.909 1.943,2.815 3.35,6.313 4.212,10.49 0.578,3.012 0.87,7.231 0.865,12.675 l -0.037,34.389 c -0.005,5.92 -0.838,9.999 -2.488,12.237 -4.572,8.445 -11.431,12.667 -20.561,12.657 -9.509,-0.01 -16.705,-4.589 -21.545,-13.719 -2.427,-4.959 -3.628,-10.786 -3.621,-17.492 0.012,-10.392 3.316,-18.502 9.922,-24.32 4.285,-3.393 9.339,-5.094 15.161,-5.089 5.836,0.007 11.169,2.253 16.025,6.727 h 0.142 l 0.007,-6.857 c -4.75,-3.887 -10.769,-5.835 -18.065,-5.844 -8.643,-0.007 -15.929,3.432 -21.864,10.323 -5.641,6.891 -8.459,14.855 -8.465,23.888 l -0.001,1.312 c -0.012,11.656 3.712,21.18 11.186,28.571 C -13.883,-2.831 -7.186,-0.007 0,0"
             style="fill:#444545;fill-opacity:1;fill-rule:nonzero;stroke:none"
             id="path62"
             inkscape:connector-curvature="0" /></g><g
           id="g64"
           transform="translate(43.8521,97.0122)"><path
             d="m 0,0 c -0.666,-0.835 -2.167,1.649 -2.167,1.649 -2.84,5.116 -3.534,12.139 -4.538,17.798 -1.573,8.857 -2.619,17.859 -2.962,26.851 l -0.171,-0.999 c 0.055,0.381 0.113,0.727 0.171,0.999 -4.241,-10.63 -5.431,-33.066 -5.431,-33.066 0.003,-0.057 0.329,-14.588 4.535,-16.044 0.308,-0.102 0.547,-0.008 0.838,-0.035 3.298,0.655 6.436,2.326 9.753,2.858 C 0.019,0.002 0.008,0.002 0,0 -0.003,-0.003 0.008,0.002 0,0"
             style="fill:#84c340;fill-opacity:1;fill-rule:nonzero;stroke:none"
             id="path66"
             inkscape:connector-curvature="0" /></g><g
           id="g68"
           transform="translate(35.7744,94.6943)"><path
             d="m 0,0 c -0.949,0.781 -1.559,2.03 -2.023,3.14 -0.625,1.487 -1.112,3.04 -1.524,4.603 -0.811,3.059 -1.428,6.203 -1.711,9.357 -0.307,3.475 -0.333,7.006 -0.179,10.49 0.044,1.02 0.116,2.041 0.22,3.056 0.619,6.131 1.68,12.102 3.633,17.964 C -5.825,37.978 -7.274,26.918 -7.279,15.561 -7.276,15.504 -7.26,15.386 -7.263,15.3 -7.062,12.268 -6.429,2.293 -3.27,-0.545 -2.317,-1.402 -1.52,-0.61 0,0 m -1.582,48.61 c -0.037,-0.277 -0.076,-0.623 -0.103,-0.999 z"
             style="fill:#1e8b46;fill-opacity:1;fill-rule:nonzero;stroke:none"
             id="path70"
             inkscape:connector-curvature="0" /></g><g
           id="g72"
           transform="translate(162.7402,69.9673)"><path
             d="m 0,0 c -1.303,1.926 -3.765,5.885 -3.765,5.885 l -3.98,6.407 c 0,0 -5.595,2.297 -8.388,3.798 2.297,-3.644 4.469,-9.05 8.119,-11.468 C -5.055,2.665 -2.105,0.709 0.857,-1.249 0.532,-0.781 0.287,-0.432 0,0 -0.288,0.428 0.287,-0.432 0,0"
             style="fill:#1e8b46;fill-opacity:1;fill-rule:nonzero;stroke:none"
             id="path74"
             inkscape:connector-curvature="0" /></g><g
           id="g76"
           transform="translate(116.209,47.5532)"><path
             d="m 0,0 c -18.557,6.574 -25.289,32.518 -28.952,49.429 -5.19,23.959 -6.746,49.349 -4.326,73.754 h -25.326 c -3.207,-27.236 -1.9,-56.633 4.524,-83.296 2.764,-11.47 6.658,-24.939 15.698,-33.119 5.236,-4.738 12.931,-6.054 19.702,-7.279 9.403,-1.697 18.629,-1.53 28.079,-0.298 C 6.252,-1.287 3.008,-1.066 0,0 -29.042,10.289 2.927,-1.039 0,0"
             style="fill:#84c340;fill-opacity:1;fill-rule:nonzero;stroke:none"
             id="path78"
             inkscape:connector-curvature="0" /></g><g
           id="g80"
           transform="translate(104.3115,41.2363)"><path
             d="m 0,0 c -2.304,1.746 -4.475,5.374 -7.226,5.89 6.189,6.238 10.492,14.196 14.198,22.073 1.917,4.069 3.668,8.226 5.296,12.421 0.666,1.714 2.552,3.79 1.364,5.327 -0.84,1.093 -2.253,1.645 -3.094,2.736 C 7.208,39.409 3.375,30.281 -2.068,22.286 -5.93,16.611 -12.286,9.177 -20.027,10.17 c -4.946,0.425 -8.953,5.703 -11.537,9.516 -3.947,5.807 -6.561,12.475 -8.6,19.168 -4.716,15.474 -6.592,31.827 -7.44,47.933 -0.748,14.186 -0.767,28.591 0.895,42.715 h 17.81 3.123 c 0.815,0 1.34,4.915 1.574,5.866 1.018,4.141 1.989,9.864 6.08,12.185 -6.331,-1.958 -11.601,-3.612 -17.424,-6.856 -3.027,-1.69 -6.075,-3.441 -8.883,-5.467 -1.351,-1.466 -3.413,-2.969 -4.658,-4.216 -3.243,-7.253 -3.686,-17.357 -4.03,-25.102 -1.226,-27.579 -0.113,-57.975 9.985,-83.984 3.056,-7.861 7.431,-16.251 14.789,-20.891 5.902,-3.725 14.275,-5.025 21.082,-5.906 C 0.494,-5.863 9.55,-4.651 6.537,-3.58 1.923,-1.947 1.993,-1.506 0,0"
             style="fill:#1e8b46;fill-opacity:1;fill-rule:nonzero;stroke:none"
             id="path82"
             inkscape:connector-curvature="0" /></g><g
           id="g84"
           transform="translate(143.1108,186.4927)"><path
             d="m 0,0 c -2.557,-4.112 -6.244,-8.382 -7.265,-13.079 -2.567,-11.774 -7.82,-23.419 -12.671,-34.395 -5.854,-13.243 -12.488,-26.239 -20.47,-38.338 -3.813,-5.788 -7.957,-11.385 -12.639,-16.49 -1.503,-1.644 -2.753,-2.624 -3.419,-4.705 -0.423,-1.332 -0.85,-2.67 -1.274,-3.996 16.132,15.995 27.578,36.769 37.341,57.078 4.987,10.372 9.528,20.978 13.581,31.752 1.668,4.443 3.269,8.917 4.692,13.445 C -1.431,-6.54 0.604,-2.385 0,0"
             style="fill:#1e8b46;fill-opacity:1;fill-rule:nonzero;stroke:none"
             id="path86"
             inkscape:connector-curvature="0" /></g><g
           id="g88"
           transform="translate(89.7871,161.3013)"><path
             d="m 0,0 c 0.434,7.31 0.78,15.085 -0.398,22.353 -0.35,2.146 -0.777,6.507 -3.738,5.588 -2.387,-0.738 -4.725,-1.463 -7.046,-2.387 -5.906,-2.347 -11.537,-5.234 -16.762,-8.882 -1.887,-1.316 -3.63,-2.771 -5.363,-4.277 -0.885,-0.771 -0.885,-0.771 -1.256,-1.448 -0.319,-0.583 0.027,-2.383 -0.049,-3.744 -1.021,-18.008 -6.088,-36.127 -11.205,-53.334 -1.829,-6.142 -3.674,-16.074 -8.809,-20.431 -4.737,-4.017 -6.542,13.501 -6.666,15.518 0.779,-12.373 3.952,-24.767 10.426,-35.442 2.786,-4.593 5.893,-10.933 11.176,-13.015 6.227,-2.46 11.62,3.559 14.801,8.105 8.592,12.274 13.075,27.7 16.784,42.037 C -3.933,-33.229 -1.007,-16.64 0,0 0.124,2.071 -0.608,-10.068 0,0"
             style="fill:#dddddc;fill-opacity:1;fill-rule:nonzero;stroke:none"
             id="path90"
             inkscape:connector-curvature="0" /></g><g
           id="g92"
           transform="translate(165.9414,95.5483)"><path
             d="m 0,0 c -0.306,16.25 -2.659,32.523 -6.453,48.313 -3.526,14.692 -8.237,29.778 -16.38,42.629 0.526,-2.09 -1.166,-5.624 -1.754,-7.542 -1.386,-4.523 -2.962,-8.986 -4.611,-13.409 -3.988,-10.721 -8.465,-21.268 -13.378,-31.597 -9.891,-20.792 -21.512,-42.106 -37.998,-58.456 11.342,2.138 22.021,5.637 32.684,10.02 -3.798,-10.305 -8.132,-20.633 -14.175,-29.845 -5.451,-8.315 -14.422,-18.387 -25.53,-14.632 4.87,-2.688 15.205,-4.743 24.891,-5.162 8.137,-0.378 17.435,-0.174 24.675,3.983 14.484,8.321 22.243,26.408 27.674,41.373 2.637,-4.185 5.177,-8.455 8.011,-12.508 C -0.534,-19.498 0.199,-10.224 0,0 -0.196,10.225 0.199,-10.224 0,0"
             style="fill:#dedddd;fill-opacity:1;fill-rule:nonzero;stroke:none"
             id="path94"
             inkscape:connector-curvature="0" /></g></g></g></g></svg>