<?xml version="1.0" encoding="utf-8"?>
<!DOCTYPE svg PUBLIC "-//W3C//DTD SVG 1.1//EN" "http://www.w3.org/Graphics/SVG/1.1/DTD/svg11.dtd">
<svg version="1.1" id="Ebene_1" xmlns="http://www.w3.org/2000/svg" xmlns:xlink="http://www.w3.org/1999/xlink" x="0px" y="0px"
	 width="246.144px" height="41.369px" viewBox="0 0 246.144 41.369" enable-background="new 0 0 246.144 41.369"
	 xml:space="preserve">
<g>
	<path fill="#575756" d="M54.942,29.531c-3.783,0-6.376-1.806-8.715-4.543l3.354-1.987c1.426,1.711,3.365,2.567,5.817,2.567
		c0.855,0,1.635-0.171,2.338-0.513c0.912-0.437,1.369-1.027,1.369-1.768c0-0.856-0.37-1.397-1.112-1.625
		c-0.209-0.057-1.321-0.257-3.336-0.599l-2.567-0.427c-1.521-0.247-2.747-0.827-3.679-1.74c-1.027-0.988-1.539-2.224-1.539-3.707
		c0-2.243,0.817-3.954,2.452-5.133c1.445-1.065,3.327-1.597,5.646-1.597c3.136,0,5.4,1.251,8.194,3.78l-2.976,2.665
		c-1.768-1.654-3.526-2.481-5.275-2.481c-0.761,0-1.426,0.162-1.996,0.485c-0.685,0.38-1.027,0.922-1.027,1.625
		c0,0.78,0.418,1.302,1.255,1.568c0.532,0.171,1.188,0.304,1.968,0.399l2.024,0.257c1.35,0.228,2.376,0.466,3.079,0.713
		c2.585,0.874,3.878,2.557,3.878,5.047c0,1.369-0.39,2.614-1.169,3.735C61.405,28.438,58.744,29.531,54.942,29.531z"/>
	<path fill="#575756" d="M82.915,19.865c-0.627,0.761-1.197,1.293-1.711,1.597c-0.343,0.19-0.912,0.399-1.711,0.627
		c-0.97,0.266-2.329,0.399-4.078,0.399H72.05v6.587h-5.047V8.943H76.1c1.863,0,3.279,0.153,4.249,0.456
		c1.426,0.476,2.462,1.369,3.108,2.681c0.532,1.083,0.799,2.253,0.799,3.507C84.255,17.355,83.808,18.781,82.915,19.865z
		 M75.273,12.651H72.05v6.102h3.051c1.388,0,2.386-0.181,2.994-0.542c0.779-0.456,1.169-1.33,1.169-2.623
		c0-1.159-0.399-1.967-1.198-2.424C77.459,12.821,76.527,12.651,75.273,12.651z"/>
	<path fill="#575756" d="M99.311,29.161c-1.065,0.343-2.196,0.513-3.393,0.513c-3.08,0-5.542-1.036-7.385-3.108
		c-1.749-1.977-2.624-4.524-2.624-7.642c0-3.06,0.893-5.57,2.681-7.528c1.843-2.053,4.277-3.079,7.3-3.079
		c4.657,0,7.785,2.167,9.382,6.501c0.532,1.445,0.799,2.88,0.799,4.306c0,2.263-0.59,4.306-1.768,6.131
		C103.065,27.175,101.402,28.476,99.311,29.161z M95.86,12.536c-1.654,0-2.928,0.666-3.821,1.996
		c-0.78,1.159-1.169,2.605-1.169,4.334c0,1.806,0.389,3.298,1.169,4.477c0.912,1.388,2.224,2.082,3.935,2.082
		c0.931,0,1.791-0.238,2.58-0.713c0.789-0.475,1.373-1.131,1.754-1.968c0.475-1.027,0.713-2.243,0.713-3.65
		c0-1.825-0.399-3.326-1.198-4.506C98.912,13.221,97.59,12.536,95.86,12.536z"/>
	<path fill="#575756" d="M117.415,12.551v16.524h-4.5V12.551h-5.391V8.943h15.54v3.607H117.415z"/>
	<path fill="#575756" d="M144.801,29.075h-1.54l-4.819-16.282l-4.791,16.282h-1.512l-5.96-20.132h2.053l4.734,16.71l4.791-16.71
		h1.312l4.962,16.71l4.591-16.71h1.91L144.801,29.075z"/>
	<path fill="#575756" d="M165.588,29.075l-2.309-6.074h-9.011l-2.31,6.074h-2.11l8.213-20.132h1.597l8.012,20.132H165.588z
		 M158.83,11.168l-3.935,10.294h7.813L158.83,11.168z"/>
	<path fill="#575756" d="M174.143,10.626v18.45h-1.911v-18.45h-6.33V8.943h14.6v1.682H174.143z"/>
	<path fill="#575756" d="M195.415,14.535c-0.076-0.371-0.769-1.638-0.968-1.97c-0.18-0.276-0.399-0.558-0.655-0.848
		c-0.258-0.29-0.577-0.553-0.964-0.791c-0.384-0.237-0.848-0.432-1.39-0.584c-0.54-0.152-1.183-0.228-1.924-0.228
		c-0.104,0-0.269,0.003-0.492,0.007c-0.223,0.005-0.478,0.026-0.763,0.064c-0.285,0.038-0.589,0.102-0.912,0.193
		c-0.323,0.091-0.637,0.221-0.941,0.392c-0.504,0.276-0.946,0.627-1.326,1.055c-0.38,0.427-0.708,0.884-0.983,1.369
		c-0.162,0.295-0.321,0.62-0.478,0.976c-0.156,0.356-0.295,0.763-0.413,1.219c-0.119,0.456-0.214,0.972-0.285,1.547
		c-0.071,0.575-0.107,1.229-0.107,1.96c0,0.152,0.002,0.347,0.007,0.584c0.005,0.238,0.019,0.513,0.043,0.827
		s0.059,0.654,0.107,1.02c0.047,0.366,0.119,0.753,0.214,1.162c0.066,0.314,0.159,0.663,0.278,1.048
		c0.118,0.385,0.285,0.777,0.499,1.177s0.482,0.789,0.805,1.169c0.323,0.38,0.72,0.718,1.191,1.012
		c0.47,0.295,1.024,0.532,1.661,0.713c0.637,0.181,1.374,0.271,2.21,0.271c0.922,0,1.737-0.157,2.446-0.471
		c0.707-0.314,1.346-0.841,1.918-1.583c0.369-0.485,1.137-1.917,1.193-2.164l1.686,1.024c-0.247,0.542-0.511,1.022-0.791,1.44
		c-0.28,0.418-0.561,0.784-0.841,1.098c-0.28,0.314-0.551,0.578-0.813,0.791c-0.262,0.214-0.501,0.388-0.72,0.521
		c-0.189,0.123-0.421,0.247-0.691,0.37c-0.271,0.124-0.585,0.235-0.941,0.335c-0.356,0.1-0.756,0.183-1.197,0.25
		c-0.444,0.066-0.936,0.1-1.476,0.1c-0.276,0-0.673-0.021-1.191-0.064c-0.518-0.043-1.086-0.157-1.704-0.343
		c-0.618-0.185-1.252-0.47-1.903-0.855c-0.651-0.385-1.248-0.924-1.789-1.618c-0.362-0.446-0.666-0.929-0.912-1.447
		c-0.247-0.518-0.454-1.036-0.621-1.554c-0.166-0.518-0.292-1.024-0.378-1.519c-0.085-0.494-0.149-0.948-0.192-1.362
		c-0.043-0.413-0.069-0.77-0.078-1.069c-0.01-0.299-0.014-0.511-0.014-0.634c0-0.162,0.005-0.406,0.014-0.734
		c0.009-0.328,0.036-0.713,0.078-1.155c0.043-0.442,0.114-0.924,0.214-1.447c0.1-0.523,0.243-1.057,0.428-1.604
		c0.185-0.546,0.42-1.091,0.706-1.632c0.285-0.542,0.632-1.05,1.041-1.526c0.247-0.285,0.499-0.537,0.756-0.756
		c0.257-0.219,0.504-0.408,0.742-0.57s0.454-0.295,0.649-0.4c0.194-0.104,0.354-0.185,0.478-0.242
		c0.332-0.142,0.779-0.283,1.34-0.42c0.561-0.138,1.274-0.207,2.139-0.207c0.561,0,1.119,0.039,1.676,0.114
		c0.555,0.076,1.099,0.209,1.632,0.399c0.589,0.2,1.11,0.454,1.561,0.763c0.451,0.309,0.856,0.663,1.212,1.062
		c0.356,0.399,0.674,0.841,0.954,1.326c0.28,0.485,0.54,1.003,0.778,1.554L195.415,14.535z"/>
	<path fill="#575756" d="M214.977,29.075v-9.439h-12.375v9.439h-1.882V8.943h1.882v8.982h12.375V8.943h1.911v20.132H214.977z"/>
</g>
<g>
	<path fill="#575756" d="M219.194,29.081l-0.008-1.275h1.228l0.008,1.275H219.194z"/>
	<path fill="#575756" d="M222.273,19.923v-0.976h0.902v0.976H222.273z M222.273,29.081v-7.417h0.902v7.417H222.273z"/>
	<path fill="#575756" d="M231.758,25.146c0,0.062-0.001,0.144-0.004,0.245c-0.003,0.101-0.011,0.218-0.024,0.35
		c-0.013,0.132-0.032,0.274-0.058,0.424c-0.026,0.151-0.065,0.308-0.117,0.474c-0.114,0.373-0.272,0.71-0.474,1.011
		c-0.202,0.301-0.439,0.557-0.711,0.77c-0.272,0.213-0.578,0.376-0.917,0.49c-0.339,0.114-0.706,0.171-1.1,0.171
		c-0.13,0-0.296-0.01-0.498-0.031c-0.202-0.021-0.42-0.074-0.653-0.159c-0.233-0.086-0.473-0.211-0.719-0.377
		c-0.246-0.166-0.478-0.391-0.696-0.676c-0.083-0.114-0.169-0.25-0.257-0.408c-0.088-0.158-0.17-0.342-0.245-0.552
		c-0.075-0.21-0.137-0.447-0.187-0.711c-0.049-0.264-0.074-0.562-0.074-0.894c0-0.083,0.003-0.189,0.008-0.319
		c0.005-0.13,0.02-0.276,0.043-0.439c0.023-0.163,0.057-0.339,0.101-0.529c0.044-0.189,0.108-0.387,0.191-0.595
		c0.119-0.316,0.262-0.587,0.428-0.812c0.166-0.225,0.341-0.416,0.525-0.571c0.184-0.155,0.375-0.28,0.571-0.373
		c0.197-0.093,0.387-0.166,0.571-0.218c0.184-0.052,0.359-0.086,0.525-0.101c0.166-0.015,0.308-0.023,0.427-0.023
		c0.43,0,0.823,0.065,1.178,0.194c0.355,0.13,0.688,0.339,0.999,0.63c0.207,0.197,0.383,0.415,0.529,0.653
		c0.145,0.238,0.264,0.487,0.358,0.746s0.162,0.527,0.206,0.805C231.728,24.596,231.752,24.872,231.758,25.146z M230.778,25.24
		c0.01-0.601-0.053-1.105-0.19-1.512c-0.137-0.407-0.319-0.733-0.544-0.98s-0.482-0.421-0.77-0.525
		c-0.288-0.104-0.579-0.155-0.875-0.155c-0.057,0-0.135,0.004-0.233,0.012s-0.207,0.026-0.326,0.054
		c-0.119,0.029-0.245,0.07-0.377,0.124c-0.132,0.055-0.266,0.131-0.4,0.23c-0.145,0.109-0.281,0.242-0.408,0.4
		s-0.238,0.35-0.334,0.575c-0.096,0.225-0.172,0.487-0.229,0.785c-0.057,0.298-0.086,0.639-0.086,1.022
		c0,0.047,0.001,0.125,0.004,0.233c0.003,0.109,0.012,0.236,0.027,0.381c0.015,0.145,0.043,0.303,0.082,0.474
		c0.039,0.171,0.094,0.345,0.167,0.521c0.073,0.176,0.166,0.346,0.28,0.509c0.114,0.163,0.254,0.312,0.42,0.447
		c0.057,0.047,0.128,0.096,0.214,0.148c0.086,0.052,0.185,0.098,0.299,0.14c0.114,0.042,0.244,0.076,0.389,0.105
		c0.145,0.029,0.306,0.043,0.482,0.043c0.275,0,0.553-0.048,0.836-0.144c0.282-0.096,0.54-0.26,0.774-0.494
		c0.233-0.233,0.424-0.544,0.571-0.933C230.696,26.312,230.773,25.825,230.778,25.24z"/>
</g>
<path fill="none" stroke="#FFFFFF" stroke-miterlimit="10" d="M26.3,5.1"/>
<path fill="none" stroke="#FFFFFF" stroke-miterlimit="10" d="M38.077,16.03"/>
<path fill="none" stroke="#FFFFFF" stroke-miterlimit="10" d="M45.887,4.676"/>
<g>
	<path fill-rule="evenodd" clip-rule="evenodd" fill="#95C11F" d="M23.681,12.743l9.032,11.078l10.758-12.105l0.009-0.641
		c0.029-1.506-1.092-2.777-2.543-2.846l-23.47-1.06c-2.373-0.112-4.45,1.425-4.55,3.445l-0.03,12.662L23.681,12.743z"/>
	<path fill-rule="evenodd" clip-rule="evenodd" fill="#95C11F" d="M32.647,26.906l-9.134-11.204L12.88,26.076l-0.003,1.314
		c-0.103,2.089,1.665,3.18,4.318,3.167c5.866-0.029,23.375-1.103,23.375-1.103c1.482-0.205,2.672-1.621,2.702-3.165l0.158-11.517
		L32.647,26.906z"/>
</g>
</svg>
