<!DOCTYPE svg PUBLIC "-//W3C//DTD SVG 20010904//EN" "http://www.w3.org/TR/2001/REC-SVG-20010904/DTD/svg10.dtd">
<svg version="1.0" xmlns="http://www.w3.org/2000/svg" width="380px" height="157px" viewBox="0 0 3800 1570" preserveAspectRatio="xMidYMid meet">
<g id="layer101" fill="#4bb79d" stroke="none">
 <path d="M2499 753 c-13 -16 -12 -17 4 -4 16 13 21 21 13 21 -2 0 -10 -8 -17 -17z"/>
 <path d="M2044 478 c-4 -7 -3 -8 4 -4 12 7 16 16 8 16 -3 0 -8 -5 -12 -12z"/>
 </g>
<g id="layer102" fill="#3ab39c" stroke="none">
 <path d="M1655 1150 c3 -5 8 -10 11 -10 3 0 2 5 -1 10 -3 6 -8 10 -11 10 -3 0 -2 -4 1 -10z"/>
 <path d="M1615 1090 c3 -5 8 -10 11 -10 3 0 2 5 -1 10 -3 6 -8 10 -11 10 -3 0 -2 -4 1 -10z"/>
 <path d="M2194 1088 c-4 -7 -3 -8 4 -4 12 7 16 16 8 16 -3 0 -8 -5 -12 -12z"/>
 <path d="M1474 968 c-4 -7 -3 -8 4 -4 12 7 16 16 8 16 -3 0 -8 -5 -12 -12z"/>
 <path d="M1314 808 c-4 -7 -3 -8 4 -4 12 7 16 16 8 16 -3 0 -8 -5 -12 -12z"/>
 <path d="M2490 811 c0 -5 7 -12 16 -15 14 -5 15 -4 4 9 -14 17 -20 19 -20 6z"/>
 <path d="M1884 778 c-4 -7 -3 -8 4 -4 12 7 16 16 8 16 -3 0 -8 -5 -12 -12z"/>
 <path d="M1734 598 c-4 -7 -3 -8 4 -4 12 7 16 16 8 16 -3 0 -8 -5 -12 -12z"/>
 <path d="M1763 483 c4 -3 10 -3 14 0 3 4 0 7 -7 7 -7 0 -10 -3 -7 -7z"/>
 <path d="M1505 400 c-4 -6 -10 -8 -15 -5 -4 3 -10 -5 -13 -16 -6 -21 -5 -21 19 2 13 12 24 24 24 26 0 7 -9 3 -15 -7z"/>
 <path d="M1877 188 c9 -10 19 -15 22 -12 3 4 0 9 -7 11 -6 3 -10 8 -8 12 3 4 -1 8 -9 8 -13 0 -12 -4 2 -19z"/>
 </g>
<g id="layer103" fill="#71bf47" stroke="none">
 <path d="M1681 1312 c-199 -84 -204 -86 -175 -99 35 -15 200 -17 209 -3 4 6 -26 10 -82 10 l-88 1 154 64 c85 36 165 75 178 87 l23 21 0 -86 c0 -86 0 -87 -24 -87 -14 0 -28 -4 -31 -10 -4 -6 7 -10 24 -10 l31 0 0 -325 0 -325 -51 21 c-29 11 -60 24 -71 30 -24 13 -43 2 -28 -16 15 -18 126 -58 139 -50 8 4 11 -23 11 -84 0 -90 0 -91 -25 -91 -14 0 -25 -4 -25 -10 0 -5 11 -10 25 -10 25 0 25 -1 25 -90 0 -53 4 -90 10 -90 6 0 10 37 10 90 0 89 0 90 25 90 14 0 25 5 25 10 0 6 -11 10 -25 10 -24 0 -25 2 -25 75 l0 74 46 -19 c43 -19 64 -19 64 -1 0 12 -88 44 -100 36 -7 -4 -10 105 -10 334 l0 341 25 0 c14 0 25 5 25 10 0 6 -11 10 -25 10 -25 0 -25 1 -25 90 0 79 -2 90 -17 89 -10 -1 -110 -40 -222 -87z"/>
 <path d="M1745 1210 c-4 -6 10 -10 34 -10 22 0 43 5 46 10 4 6 -10 10 -34 10 -22 0 -43 -4 -46 -10z"/>
 <path d="M2000 1210 c0 -5 18 -10 41 -10 24 0 38 4 34 10 -3 6 -22 10 -41 10 -19 0 -34 -4 -34 -10z"/>
 <path d="M2105 1210 c7 -12 172 -12 200 0 13 6 -21 9 -93 9 -73 1 -111 -3 -107 -9z"/>
 <path d="M2336 1168 c-10 -38 -7 -186 4 -193 6 -4 10 33 10 104 0 61 -2 111 -4 111 -2 0 -6 -10 -10 -22z"/>
 <path d="M2330 911 c0 -23 5 -41 10 -41 6 0 10 15 10 34 0 19 -4 38 -10 41 -6 4 -10 -10 -10 -34z"/>
 <path d="M2330 815 c0 -14 5 -25 10 -25 6 0 10 11 10 25 0 14 -4 25 -10 25 -5 0 -10 -11 -10 -25z"/>
 <path d="M1346 751 c18 -11 56 -28 85 -38 30 -10 56 -21 59 -24 7 -7 88 -39 100 -39 6 0 10 6 10 13 0 10 -69 43 -110 53 -3 0 -31 13 -63 27 -32 15 -70 27 -85 27 l-27 0 31 -19z"/>
 <path d="M2330 745 c0 -14 5 -25 10 -25 6 0 10 11 10 25 0 14 -4 25 -10 25 -5 0 -10 -11 -10 -25z"/>
 <path d="M2499 743 c-14 -16 -52 -93 -85 -173 l-59 -145 -3 138 c-2 86 -6 136 -12 132 -15 -9 -12 -284 3 -319 12 -28 15 -24 86 150 41 98 80 194 88 212 16 39 14 40 -18 5z"/>
 <path d="M1615 649 c-4 -6 -5 -12 -4 -13 9 -6 90 -36 99 -36 23 0 7 21 -30 40 -45 23 -56 24 -65 9z"/>
 <path d="M2050 466 c0 -7 21 -21 48 -31 26 -9 70 -27 97 -40 28 -12 57 -25 65 -28 8 -3 -47 -6 -122 -6 -85 -1 -138 -5 -138 -11 0 -6 62 -10 167 -10 l166 0 -22 24 c-13 14 -49 34 -80 47 -31 12 -79 32 -108 45 -60 28 -73 29 -73 10z"/>
 <path d="M1510 350 c-10 -6 41 -10 153 -10 110 0 166 3 162 10 -8 13 -295 13 -315 0z"/>
 </g>
<g id="layer104" fill="#40b87b" stroke="none">
 <path d="M1935 1363 c9 -21 57 -79 110 -131 74 -75 97 -92 110 -84 15 8 13 12 -12 33 -15 13 -57 55 -93 93 l-65 68 40 -17 c206 -86 258 -105 292 -105 31 1 -1 17 -177 90 -118 50 -216 90 -218 90 -1 0 5 -17 13 -37z"/>
 <path d="M1775 1278 c-97 -96 -117 -120 -107 -130 11 -11 19 -6 46 22 17 19 58 60 90 90 l58 54 -17 -44 c-10 -25 -28 -68 -41 -97 -13 -28 -24 -61 -24 -72 0 -12 -3 -21 -7 -21 -15 0 -46 -91 -35 -102 11 -11 32 22 47 72 4 14 18 48 32 77 13 28 26 57 27 65 2 7 15 40 30 72 17 38 26 72 24 95 l-3 36 -120 -117z"/>
 <path d="M1494 1149 c8 -24 20 -58 27 -76 12 -29 11 -35 -7 -55 -12 -13 -24 -31 -27 -41 -4 -10 -11 -16 -15 -13 -8 4 -126 -119 -146 -152 -19 -32 52 19 104 74 30 32 70 72 88 88 l33 29 16 -42 c9 -22 22 -41 30 -41 18 0 16 17 -6 67 -19 41 -19 42 0 59 15 13 16 20 7 31 -8 10 -14 11 -22 3 -17 -17 -22 -12 -36 30 -7 21 -24 49 -37 61 l-23 23 14 -45z"/>
 <path d="M1614 1119 c-3 -6 -1 -16 4 -21 13 -13 45 8 36 23 -7 12 -31 11 -40 -2z"/>
 <path d="M2166 1121 c-9 -15 23 -36 36 -23 5 5 7 15 4 21 -9 13 -33 14 -40 2z"/>
 <path d="M2220 1066 c0 -7 7 -19 15 -26 12 -10 16 -9 21 3 3 9 3 21 -1 27 -9 15 -35 12 -35 -4z"/>
 <path d="M2276 1024 c-5 -13 19 -43 92 -116 55 -54 104 -98 111 -98 26 0 5 29 -93 127 -83 83 -105 101 -110 87z"/>
 <path d="M23 983 c-7 -2 -13 -18 -13 -34 l0 -29 85 0 85 0 0 -39 c0 -38 -2 -40 -67 -76 -100 -54 -103 -59 -103 -127 0 -33 4 -68 10 -78 14 -25 59 -33 146 -25 73 7 74 7 74 36 l0 29 -80 0 -80 0 0 35 c0 32 4 36 72 72 87 45 100 66 95 147 -5 83 -23 96 -131 95 -44 0 -87 -3 -93 -6z"/>
 <path d="M397 983 c-4 -3 -7 -82 -7 -175 l0 -168 -50 0 c-49 0 -50 -1 -50 -30 l0 -30 140 0 140 0 0 30 c0 30 -1 30 -55 30 l-55 0 0 175 0 175 -28 0 c-16 0 -32 -3 -35 -7z"/>
 <path d="M620 802 c0 -235 -7 -224 141 -220 134 4 130 -5 126 228 l-2 175 -32 3 -33 3 0 -77 c0 -74 -1 -76 -22 -70 -13 3 -42 6 -65 6 l-43 0 0 70 0 70 -35 0 -35 0 0 -188z m200 -87 l0 -75 -65 0 -65 0 0 75 0 75 65 0 65 0 0 -75z"/>
 <path d="M1047 983 c-4 -3 -7 -82 -7 -175 l0 -168 -50 0 c-49 0 -50 -1 -50 -30 l0 -30 140 0 140 0 0 30 c0 30 -1 30 -55 30 l-55 0 0 175 0 175 -28 0 c-16 0 -32 -3 -35 -7z"/>
 <path d="M1712 937 c-6 -7 -21 -35 -33 -62 l-22 -50 -15 38 c-8 20 -18 37 -23 37 -18 0 -18 -21 1 -64 l19 -46 -174 0 c-110 0 -175 -4 -175 -10 0 -12 -14 -11 187 -10 l162 1 -21 -53 c-11 -29 -29 -69 -38 -88 -10 -19 -21 -46 -25 -60 -4 -14 -20 -53 -36 -86 -16 -34 -29 -70 -29 -79 0 -31 35 9 55 63 9 26 28 70 41 99 13 28 24 55 24 59 0 13 43 104 50 104 3 0 12 -17 19 -37 20 -58 42 -88 51 -73 5 8 -4 40 -20 79 l-28 66 96 3 c137 4 144 22 9 22 -59 0 -107 3 -107 6 0 3 4 13 10 23 40 76 56 159 22 118z"/>
 <path d="M1925 780 c-4 -7 98 -10 299 -10 197 0 306 4 306 10 0 6 -106 10 -299 10 -189 0 -302 -4 -306 -10z"/>
 <path d="M1730 580 c0 -24 34 -90 46 -90 19 0 18 14 -6 60 -19 37 -40 53 -40 30z"/>
 <path d="M1786 461 c-6 -9 1 -33 28 -96 7 -16 22 -50 32 -75 10 -25 26 -58 36 -75 36 -61 20 15 -29 137 -46 114 -55 128 -67 109z"/>
 <path d="M1485 340 c-2 -4 73 -39 168 -78 95 -39 190 -78 212 -87 l40 -17 -30 30 c-50 48 -375 176 -390 152z"/>
 </g>
<g id="layer105" fill="#29b1e5" stroke="none">
 <path d="M1920 1354 c0 -17 12 -58 26 -90 14 -33 25 -59 24 -59 -1 0 9 -26 23 -57 l25 -57 -49 -17 c-38 -14 -49 -23 -49 -40 0 -17 13 -27 70 -50 l70 -29 -71 -71 c-49 -49 -70 -77 -67 -90 3 -15 19 -4 84 58 l79 77 29 -70 c36 -87 58 -92 88 -20 l21 49 54 -23 c29 -13 56 -24 58 -25 3 0 31 -12 62 -25 51 -23 138 -33 131 -15 -2 4 -41 100 -88 213 -76 185 -87 207 -105 202 -11 -4 -33 -10 -50 -14 -16 -4 -52 -18 -80 -31 -51 -23 -144 -59 -157 -60 -3 0 -14 20 -24 45 -9 25 -21 45 -25 45 -5 0 -9 10 -9 23 0 12 -16 54 -35 92 -31 62 -35 66 -35 39z m499 -373 c33 -79 68 -152 77 -162 23 -26 19 -25 -72 17 -44 20 -80 36 -81 35 -2 0 -23 8 -49 19 -25 11 -50 20 -54 20 -9 0 14 64 61 168 16 34 29 68 29 76 0 8 3 23 7 33 6 14 9 8 14 -22 4 -22 35 -105 68 -184z m-186 147 c-15 -18 -54 -57 -84 -86 l-57 -53 -16 41 c-9 22 -16 42 -16 43 0 2 28 16 63 31 34 15 76 34 92 41 46 21 50 18 18 -17z m38 -45 c-48 -127 -63 -154 -85 -147 -73 22 -73 22 15 112 44 45 82 82 84 82 2 0 -4 -21 -14 -47z m-227 -55 c7 -18 12 -34 11 -36 -1 -1 -24 7 -51 19 l-49 21 25 13 c38 21 49 18 64 -17z m141 -128 c3 -5 -1 -24 -9 -42 l-14 -33 -21 48 c-11 27 -21 50 -21 52 0 7 60 -17 65 -25z"/>
 <path d="M1465 1211 c-3 -6 -44 -102 -90 -214 l-84 -202 36 -3 c20 -2 56 5 84 17 59 26 59 26 59 1 0 -11 5 -20 10 -20 6 0 10 11 10 25 0 21 10 30 63 54 34 16 79 34 100 41 20 6 44 19 53 27 13 14 22 7 90 -66 71 -76 104 -98 104 -69 0 7 -31 44 -70 83 l-70 70 70 29 c56 23 70 33 70 50 0 17 -11 26 -46 39 -44 16 -64 15 -64 -2 0 -4 18 -14 41 -21 l40 -14 -66 -31 -66 -32 -89 90 c-49 50 -88 92 -86 94 4 4 24 -4 130 -52 55 -24 86 -27 86 -7 0 4 -24 16 -52 26 -29 10 -76 30 -105 43 -29 14 -67 28 -85 33 -18 4 -40 11 -49 15 -10 3 -20 2 -24 -4z m233 -250 c-7 -2 -35 -14 -63 -26 -54 -24 -132 -55 -140 -55 -3 0 -5 16 -5 36 0 21 -4 33 -10 29 -5 -3 -10 -23 -10 -43 0 -39 -4 -42 -155 -101 -5 -2 -2 5 8 17 11 11 48 90 83 174 l64 153 0 -88 c0 -56 4 -86 10 -82 14 8 13 181 -1 208 -6 12 43 -32 110 -98 67 -66 116 -122 109 -124z"/>
 <path d="M2650 977 c0 -7 11 -44 23 -83 18 -51 29 -70 43 -72 16 -2 24 10 43 70 13 40 26 79 28 86 3 6 -2 12 -12 12 -9 0 -19 -9 -22 -20 -4 -14 -14 -20 -35 -20 -21 0 -31 6 -35 20 -6 22 -33 28 -33 7z m80 -76 c0 -11 -4 -23 -10 -26 -5 -3 -10 -2 -10 4 0 5 -3 16 -6 25 -4 11 -1 16 10 16 9 0 16 -8 16 -19z"/>
 <path d="M2810 905 c0 -76 2 -85 19 -85 12 0 29 19 49 58 l31 57 1 -57 c0 -32 5 -58 10 -58 6 0 10 35 10 85 0 103 -15 112 -57 33 l-28 -53 -3 53 c-2 37 -7 52 -18 52 -11 0 -14 -17 -14 -85z"/>
 <path d="M2979 908 c21 -63 32 -84 47 -86 16 -2 24 10 43 70 13 40 26 79 28 86 3 6 -2 12 -12 12 -9 0 -19 -9 -22 -20 -4 -14 -14 -20 -35 -20 -21 0 -31 6 -35 20 -3 11 -13 20 -23 20 -17 0 -17 -6 9 -82z m61 -5 c0 -10 -5 -25 -10 -33 -8 -13 -10 -13 -10 2 0 9 -3 23 -6 32 -4 11 -1 16 10 16 9 0 16 -8 16 -17z"/>
 <path d="M3120 905 c0 -69 3 -85 15 -85 12 0 15 14 15 70 l0 70 35 0 c24 0 35 5 35 15 0 11 -12 15 -50 15 l-50 0 0 -85z"/>
 <path d="M3250 966 c0 -13 -11 -49 -25 -80 -29 -67 -29 -66 -10 -66 9 0 24 18 34 40 l18 40 16 -40 15 -40 81 0 c65 0 81 3 81 15 0 9 -9 15 -25 15 -24 0 -25 2 -25 70 0 56 -3 70 -15 70 -12 0 -15 -14 -15 -70 l0 -70 -28 0 c-23 0 -32 8 -50 45 -12 25 -22 57 -22 70 0 16 -6 25 -15 25 -9 0 -15 -9 -15 -24z"/>
 <path d="M3480 905 c0 -69 3 -85 15 -85 12 0 15 16 15 85 0 69 -3 85 -15 85 -12 0 -15 -16 -15 -85z"/>
 <path d="M3558 979 c-14 -8 -18 -24 -18 -72 0 -36 5 -68 12 -75 18 -18 88 -16 88 3 0 11 -11 15 -36 15 l-35 0 3 53 c3 51 4 52 36 55 20 2 32 9 32 18 0 17 -55 19 -82 3z"/>
 <path d="M3670 980 c-22 -14 -3 -25 36 -21 28 2 34 -1 34 -17 0 -13 -10 -22 -32 -28 -30 -9 -33 -13 -33 -49 l0 -40 48 -3 c38 -3 47 0 47 14 0 12 -6 15 -24 12 -14 -3 -30 -2 -37 3 -20 12 -3 36 30 42 27 6 31 11 31 40 0 18 -5 38 -12 45 -14 14 -67 16 -88 2z"/>
 <path d="M1750 643 c-133 -132 -145 -142 -161 -127 -21 19 -37 1 -19 -21 10 -12 2 -26 -41 -75 -28 -33 -53 -60 -55 -60 -2 0 1 12 6 26 6 14 10 62 10 106 l0 81 24 -22 c38 -35 44 -5 7 33 -23 24 -31 41 -31 69 0 20 -4 37 -10 37 -5 0 -10 -12 -10 -27 0 -27 -1 -26 -52 24 -47 45 -115 90 -123 81 -4 -4 164 -410 174 -420 6 -7 151 39 179 55 5 4 20 -5 32 -18 13 -14 33 -25 44 -25 18 0 17 3 -8 29 l-28 29 53 25 c30 13 76 33 103 44 50 19 72 43 41 43 -9 0 -40 -11 -68 -24 -29 -13 -75 -32 -104 -44 -49 -19 -52 -19 -67 -3 -14 16 -12 21 30 62 25 24 50 54 55 67 5 12 14 22 22 22 23 0 149 136 145 156 -3 15 -36 -12 -148 -123z m-282 -134 l-3 -84 -54 130 c-29 72 -55 137 -58 145 -3 8 22 -12 56 -46 l62 -60 -3 -85z m154 -74 c0 -5 -15 -16 -34 -23 l-33 -14 24 26 c24 26 42 30 43 11z"/>
 <path d="M1470 745 c0 -14 5 -25 10 -25 6 0 10 11 10 25 0 14 -4 25 -10 25 -5 0 -10 -11 -10 -25z"/>
 <path d="M1920 757 c0 -7 29 -42 65 -77 36 -35 65 -67 65 -71 0 -4 -28 -18 -62 -32 -60 -24 -87 -47 -54 -47 8 0 38 9 66 20 28 11 52 20 54 20 5 0 -28 -94 -35 -100 -5 -4 -42 -95 -45 -110 0 -3 -13 -32 -28 -64 -18 -39 -26 -72 -24 -96 l3 -38 205 85 c113 47 208 88 212 92 8 7 -2 44 -37 133 l-23 57 24 22 c13 12 24 32 24 43 0 18 -3 17 -30 -9 l-29 -28 -11 27 c-5 15 -14 36 -20 46 -8 16 -3 20 40 36 28 10 50 22 50 26 0 4 10 8 23 8 12 1 33 7 47 15 46 26 45 15 -4 -34 -29 -29 -47 -56 -44 -66 2 -13 24 4 83 66 l80 84 -31 3 c-17 2 -55 -8 -85 -21 -30 -13 -57 -25 -61 -26 -4 -1 -29 -11 -55 -22 -25 -11 -52 -18 -58 -15 -6 2 -17 23 -25 45 -11 36 -17 42 -38 39 -20 -2 -29 -15 -51 -70 l-27 -68 -69 70 c-67 67 -95 84 -95 57z m270 -83 c0 -6 -16 -18 -36 -27 l-35 -17 7 22 c3 13 13 36 21 52 l15 30 14 -25 c7 -13 13 -29 14 -35z m23 -56 c3 -7 12 -29 21 -49 14 -34 14 -38 -2 -53 -17 -15 -21 -12 -67 34 l-48 49 34 15 c43 18 56 19 62 4z m-39 -159 c-19 -21 -1 -37 21 -19 11 9 27 0 80 -44 l65 -56 -34 0 c-18 0 -97 -27 -176 -60 -78 -33 -145 -60 -149 -60 -3 0 21 27 54 60 45 46 55 60 40 60 -11 0 -41 -21 -67 -47 -49 -48 -59 -49 -33 -3 8 14 14 35 15 47 0 12 3 23 8 25 9 4 42 75 42 91 0 6 12 35 27 64 l28 52 47 -46 c44 -43 46 -48 32 -64z m105 -1 l12 -33 -27 26 c-15 15 -23 32 -20 38 11 16 22 6 35 -31z"/>
 <path d="M2105 390 c-26 -27 -27 -30 -9 -30 23 0 68 43 57 53 -11 12 -18 8 -48 -23z"/>
 <path d="M2673 743 c-40 -7 -28 -33 14 -30 28 1 38 -2 41 -15 2 -12 -6 -20 -29 -25 -40 -11 -54 -32 -45 -66 7 -30 40 -43 82 -33 35 9 25 30 -16 30 -48 1 -49 23 -1 42 37 14 41 20 41 49 0 19 -3 36 -7 38 -16 8 -59 14 -80 10z"/>
 <path d="M3250 741 c-23 -6 -25 -12 -28 -78 -3 -64 -1 -73 18 -83 25 -14 72 -9 77 7 3 7 -9 13 -29 15 -32 3 -33 5 -36 52 -4 54 8 70 46 61 15 -4 22 -1 22 10 0 8 -4 15 -9 15 -5 0 -15 2 -23 4 -7 2 -24 1 -38 -3z"/>
 <path d="M2790 660 l0 -80 50 0 c28 0 50 5 50 10 0 6 -16 10 -35 10 -28 0 -35 4 -35 20 0 16 7 20 35 20 24 0 35 5 35 15 0 10 -11 15 -35 15 -28 0 -35 4 -35 20 0 16 7 20 35 20 24 0 35 5 35 15 0 11 -12 15 -50 15 l-50 0 0 -80z"/>
 <path d="M2910 732 c0 -4 11 -39 23 -78 20 -59 27 -69 47 -69 20 0 27 10 47 69 12 39 23 74 23 78 0 17 -29 7 -35 -12 -4 -14 -15 -20 -35 -20 -20 0 -31 6 -35 20 -6 19 -35 29 -35 12z m84 -74 c-3 -13 -8 -25 -10 -27 -6 -6 -11 1 -18 27 -6 18 -4 22 14 22 18 0 20 -4 14 -22z"/>
 <path d="M3070 660 l0 -80 55 0 c51 0 55 2 61 27 4 14 2 39 -3 54 -8 21 -8 32 3 46 18 25 17 33 -4 33 -10 0 -25 -11 -32 -25 -7 -14 -22 -25 -32 -25 -13 0 -18 7 -18 25 0 16 -6 25 -15 25 -12 0 -15 -16 -15 -80z m85 -30 c0 -20 -6 -26 -27 -28 -25 -3 -28 0 -28 28 0 28 3 31 28 28 21 -2 27 -8 27 -28z"/>
 <path d="M3350 660 c0 -64 3 -80 15 -80 10 0 15 10 15 30 0 27 3 30 30 30 27 0 30 -3 30 -30 0 -20 5 -30 15 -30 12 0 15 16 15 80 0 64 -3 80 -15 80 -10 0 -15 -11 -15 -35 0 -32 -2 -35 -30 -35 -28 0 -30 3 -30 35 0 24 -5 35 -15 35 -12 0 -15 -16 -15 -80z"/>
 <path d="M1780 284 c30 -30 68 -65 84 -76 l28 -21 -12 24 c-21 40 -113 129 -134 129 -16 0 -9 -12 34 -56z"/>
 </g>

</svg>