<?xml version="1.0" encoding="utf-8"?>
<!-- Generator: Adobe Illustrator 19.2.1, SVG Export Plug-In . SVG Version: 6.00 Build 0)  -->
<svg version="1.1" id="Layer_1" xmlns="http://www.w3.org/2000/svg" xmlns:xlink="http://www.w3.org/1999/xlink" x="0px" y="0px"
	 viewBox="0 0 1045.1 281.6" style="enable-background:new 0 0 1045.1 281.6;" xml:space="preserve">
<style type="text/css">
	.st0{fill:#144A98;}
</style>
<g id="A9zGCs.tif">
	<g>
		<path class="st0" d="M583.9,27.8c4.7,1.1,9.4,1.9,14,3.2c17.6,4.8,32.2,14.1,42.5,29.6c0.4,0.6,0.7,1.1,1.1,1.6
			c0.2,0.2,0.5,0.4,0.9,0.6c2.9-3.6,5.6-7.3,8.8-10.7c14.1-15,32.1-21.5,52.1-23.2c13.2-1.1,26.3-0.4,39.1,3.2
			c30.9,8.6,50.9,32.5,54.2,64.6c1.4,13.7,0.6,27.3-3.9,40.5c-7.8,22.7-22.9,38.6-45.9,45.8c-26.2,8.2-52.2,7.4-77.2-5
			c-11.6-5.7-20.5-14.6-27.3-25.5c-4.9,5.4-9.2,10.8-14.3,15.5c-12.6,11.4-27.8,16.8-44.4,18.5c-15.7,1.6-31.3,0.9-46.4-4.4
			c-29.2-10.3-44.9-31.5-49.3-61.5c-2.1-14-1.1-28,3.4-41.5c9.7-29.5,31.1-45,60.9-50.1c1.3-0.2,2.5-0.7,3.8-1
			C565.3,27.8,574.6,27.8,583.9,27.8z M544.6,106.9c1.4,7.7,2,15,4,21.9c3.1,10.5,10.6,15.5,21.2,15.6c10.5,0.1,18.2-4.9,21.6-15.2
			c4.7-14.6,4.9-29.5,0.2-44.2c-3.2-9.9-10.9-15-21.2-15.1c-10.1-0.1-17.9,4.7-21.1,14.4C546.9,91.6,546.1,99.4,544.6,106.9z
			 M688.6,107.9c0.2,0.1,0.5,0.1,0.7,0.2c0.3,4.3,0.5,8.6,1.1,12.9c0.4,3.1,1.2,6.2,2.3,9.2c3.6,10.1,10.7,15,21.1,15.2
			c10.1,0.1,17.7-4.5,21.2-14.3c5.4-15,5.4-30.4,0.4-45.5c-3.3-9.8-11.1-14.7-21.5-14.7c-10.1,0.1-17.8,4.9-20.8,14.7
			C690.8,92.8,690,100.5,688.6,107.9z"/>
		<path class="st0" d="M153.9,27.8c1.9,0.2,3.9,0.6,5.8,0.6c14.7,0.2,29.3,0.2,44,0.4c1.3,0,2.6,0.2,3.9,0.2c0,17.9,0,35.4,0,53.3
			c-19.5,0-38.6,0-58.6,0c0,51.3,0,102.5,0,154.1c-22.2,0-43.4,0-65.1,0c0-51.3,0-102.7,0-154.7c-3.8,0-7.4,0-11,0
			c-15.6,0-31.3,0.1-46.9,0.1c0-18,0-35.9,0-54C68.6,27.8,111.3,27.8,153.9,27.8z"/>
		<path class="st0" d="M1025.9,241.8c-18.1,0-36.3,0-54.4-0.2c-1.3,0-3.4-1.9-3.8-3.3c-1-2.9-1.2-6.2-1.8-9.9
			c-2.1,1.8-3.8,3.2-5.5,4.6c-10.4,8.2-22.5,11.3-35.4,12c-13.4,0.7-26.7-0.2-38.9-6.7c-15.6-8.2-22.4-21.7-22.6-38.9
			c-0.1-16.7,6.6-29.6,21.6-37.7c14.6-7.9,30.7-9.6,46.7-11.9c7.9-1.1,15.9-2.1,23.6-3.9c7.1-1.6,9.8-5.3,10-11.3
			c0.1-6.2-2.9-10.6-9.3-12.6c-7-2.3-14.1-2.2-21.1,0.4c-4.9,1.8-8,5.1-9.3,10.3c-0.3,1.1-1.6,2.9-2.5,2.9
			c-17.3,0.2-34.6,0.1-51.8,0.1c-1.4-16.9,9.3-33.7,26.1-41.3c12.2-5.6,25.1-7.3,38.4-8.1c16.2-0.9,32.3-0.5,48.2,3
			c26.8,6,37.5,19.3,37.6,46.7c0.1,25.6-0.6,51.3-0.1,76.9c0.1,7.9,2.8,15.8,4.4,23.7C1025.9,238.4,1025.9,240.1,1025.9,241.8z
			 M965.6,174.8c-11.9,3.3-22.5,6-32.9,9.3c-5.7,1.8-9.3,5.8-9.4,12.2c-0.1,6.1,3.6,9.9,8.6,12.4c12.5,6.3,28.6-0.7,31.9-14.3
			C965.4,188.2,965,181.5,965.6,174.8z"/>
		<path class="st0" d="M220.4,131.4c-18.1,0-35.9,0-54.1,0c0.7-14.8,5.7-26.9,17.5-35.6c10.5-7.8,22.7-10.9,35.4-12.4
			c20.8-2.5,41.5-2.3,62.1,2.3c1.1,0.3,2.3,0.6,3.4,0.9c21.5,6.4,31.4,18.1,32,40.4c0.6,24-0.2,48,0.1,72c0.1,9.4,1.3,18.9,2.3,28.3
			c0.3,2.7,1.8,5.2,2.8,7.8c0.7-0.1,1.3-0.1,2-0.2c0-68.2,0-136.5,0-205c20.5,0,39.6,0,59.1,0c0,24,0,47.7,0,72
			c3.8-3.4,6.9-6.7,10.5-9.2c25.7-18.4,66.3-10,83.2,17.1c19.3,31,16.5,81.7-6,110.5c-20.9,26.8-53.2,25.6-72.2,17.1
			c-6.7-3-12.2-8.9-18.2-13.4c0,3.9,0,8.8,0,14.5c-6.3,0-12.1,0-17.8,0c-24-0.2-48-0.4-72-0.6c-7.2-0.1-14.3-0.4-21.5-0.1
			c-4.3,0.2-6.2-1.4-6.5-5.4c-0.2-2.5-0.4-5-0.7-7.6c-0.5,0-1.1-0.1-1.4,0.1c-11,11-24.8,15.2-39.9,16c-11.4,0.6-22.7,0.1-33.5-4.1
			c-17.1-6.8-26.7-19.2-28-37.8c-1.3-19.4,6.1-34,24-42.7c13.4-6.5,28-8.3,42.5-10.3c7.8-1.1,15.6-2,23.2-3.5
			c8.4-1.7,12.2-5.9,12.1-12.3c-0.1-6.6-4.9-12-12.8-13.1c-4.6-0.6-9.4-0.6-13.9,0.2C226,118.6,222.5,122.5,220.4,131.4z
			 M431.9,161.9c-1.7-7.7-2.7-15.7-5.4-23c-3.4-9.1-10.8-13.4-20.7-13.4c-9.9-0.1-17.2,4.1-21,13.1c-6.4,15.5-6.3,31.5-0.5,47.1
			c3.5,9.5,11.6,14.3,21.5,14c10.2-0.3,17.8-5,21-14.7C429.2,177.7,430.2,169.9,431.9,161.9z M260.3,171c-9.1,2.4-17.7,4.6-26.3,6.9
			c-2.6,0.7-5.1,1.6-7.5,2.7c-4.8,2.1-7.6,5.8-7.8,11.2c-0.2,5.3,2.4,8.9,6.5,11.6c11.2,7.3,27.7,2.4,33-9.9
			C261.3,186.1,260.6,178.5,260.3,171z"/>
		<path class="st0" d="M772,187.1c0,16.9,0.1,32.7-0.2,48.5c0,1.4-1.9,3.3-3.4,4c-22.8,11-46.6,18.9-71.5,23.2
			c-64,10.9-125.7,4.5-184.5-24.4c-3.2-1.6-4.4-3.3-4.3-6.8c0.3-14,0.3-28,0.4-42c0-1.1,0.2-2.3,0.4-3.7
			C596.5,221.2,684,220.7,772,187.1z"/>
		<path class="st0" d="M860.4,32.8c0,69.6,0,138.7,0,208.2c-4.5,0-8.1,0-11.7,0c-14-0.1-28-0.3-42-0.2c-4,0-5-1.3-5-5.1
			c0.4-53.8,0.7-107.5,1-161.3c0.1-12.3,0.1-24.6,0-37c-0.1-4.3,1.4-5.7,5.8-5.6c15.3,0.4,30.6,0.3,45.9,0.5
			C856.5,32.4,858.6,32.7,860.4,32.8z"/>
	</g>
</g>
</svg>
