<?xml version="1.0" encoding="UTF-8" standalone="no"?>
<!-- Created with Inkscape (http://www.inkscape.org/) -->

<svg
   xmlns:dc="http://purl.org/dc/elements/1.1/"
   xmlns:cc="http://creativecommons.org/ns#"
   xmlns:rdf="http://www.w3.org/1999/02/22-rdf-syntax-ns#"
   xmlns:svg="http://www.w3.org/2000/svg"
   xmlns="http://www.w3.org/2000/svg"
   xmlns:sodipodi="http://sodipodi.sourceforge.net/DTD/sodipodi-0.dtd"
   xmlns:inkscape="http://www.inkscape.org/namespaces/inkscape"
   width="30.870348mm"
   height="6.5052223mm"
   viewBox="0 0 109.38312 23.05"
   id="svg7382"
   version="1.1"
   inkscape:version="0.91 r13725"
   sodipodi:docname="Logo YouGov.svg">
  <defs
     id="defs7384">
    <clipPath
       clipPathUnits="userSpaceOnUse"
       id="clipPath6602">
      <path
         d="M 0,0 176,0 176,37 0,37 0,0 Z"
         id="path6604"
         inkscape:connector-curvature="0" />
    </clipPath>
    <clipPath
       clipPathUnits="userSpaceOnUse"
       id="clipPath6612">
      <path
         d="m 0.06,0.059 175.013,0 0,36.88 -175.013,0 0,-36.88 z"
         id="path6614"
         inkscape:connector-curvature="0" />
    </clipPath>
    <clipPath
       clipPathUnits="userSpaceOnUse"
       id="clipPath6630">
      <path
         d="M 0,0 176,0 176,37 0,37 0,0 Z"
         id="path6632"
         inkscape:connector-curvature="0" />
    </clipPath>
  </defs>
  <sodipodi:namedview
     id="base"
     pagecolor="#ffffff"
     bordercolor="#666666"
     borderopacity="1.0"
     inkscape:pageopacity="0.0"
     inkscape:pageshadow="2"
     inkscape:zoom="0.35"
     inkscape:cx="458.26299"
     inkscape:cy="31.525"
     inkscape:document-units="px"
     inkscape:current-layer="layer1"
     showgrid="false"
     fit-margin-top="0"
     fit-margin-left="0"
     fit-margin-right="0"
     fit-margin-bottom="0"
     inkscape:window-width="1600"
     inkscape:window-height="837"
     inkscape:window-x="-8"
     inkscape:window-y="-8"
     inkscape:window-maximized="1" />
  <metadata
     id="metadata7387">
    <rdf:RDF>
      <cc:Work
         rdf:about="">
        <dc:format>image/svg+xml</dc:format>
        <dc:type
           rdf:resource="http://purl.org/dc/dcmitype/StillImage" />
        <dc:title></dc:title>
      </cc:Work>
    </rdf:RDF>
  </metadata>
  <g
     inkscape:label="Ebene 1"
     inkscape:groupmode="layer"
     id="layer1"
     transform="translate(548.97728,-540.83721)">
    <g
       transform="matrix(0.625,0,0,-0.625,-549.01478,563.92408)"
       id="g6594">
      <g
         id="g6596">
        <g
           id="g6598">
          <g
             clip-path="url(#clipPath6602)"
             id="g6600">
            <g
               id="g6606" />
            <g
               id="g6608">
              <g
                 clip-path="url(#clipPath6612)"
                 id="g6610">
                <path
                   inkscape:connector-curvature="0"
                   id="path6616"
                   style="fill:#ee2722;fill-opacity:1;fill-rule:nonzero;stroke:none"
                   d="m 13.086,0.607 0,15.036 L 0,36.331 l 8.456,0 8.406,-14.133 8.237,14.133 8.309,0 -13.134,-20.737 0,-14.987 -7.188,0" />
                <path
                   inkscape:connector-curvature="0"
                   id="path6618"
                   style="fill:#ee2722;fill-opacity:1;fill-rule:nonzero;stroke:none"
                   d="m 33.692,13.547 c 0,-2.567 0.609,-4.533 1.828,-5.897 1.218,-1.365 2.721,-2.046 4.508,-2.046 1.786,0 3.285,0.681 4.496,2.046 1.209,1.364 1.815,3.346 1.815,5.946 0,2.535 -0.606,4.484 -1.815,5.848 -1.211,1.365 -2.71,2.046 -4.496,2.046 -1.787,0 -3.29,-0.681 -4.508,-2.046 -1.219,-1.364 -1.828,-3.329 -1.828,-5.897 z m -7.018,0.365 c 0,2.274 0.56,4.475 1.681,6.603 1.121,2.129 2.709,3.754 4.765,4.874 2.054,1.122 4.349,1.683 6.883,1.683 3.915,0 7.124,-1.272 9.626,-3.814 2.501,-2.542 3.752,-5.754 3.752,-9.637 0,-3.916 -1.263,-7.16 -3.789,-9.734 -2.526,-2.576 -5.707,-3.863 -9.54,-3.863 -2.372,0 -4.634,0.535 -6.786,1.609 -2.153,1.07 -3.79,2.642 -4.911,4.713 -1.121,2.072 -1.681,4.593 -1.681,7.566" />
                <path
                   inkscape:connector-curvature="0"
                   id="path6620"
                   style="fill:#ee2722;fill-opacity:1;fill-rule:nonzero;stroke:none"
                   d="m 72.781,0.607 0,3.873 C 71.839,3.1 70.6,2.012 69.064,1.217 67.53,0.422 65.909,0.024 64.203,0.024 c -1.738,0 -3.298,0.38 -4.679,1.144 -1.38,0.764 -2.379,1.836 -2.997,3.217 -0.617,1.381 -0.926,3.289 -0.926,5.726 l 0,16.376 6.848,0 0,-11.891 c 0,-3.641 0.125,-5.869 0.378,-6.692 0.251,-0.818 0.71,-1.468 1.376,-1.949 0.666,-0.478 1.511,-0.719 2.535,-0.719 1.169,0 2.217,0.321 3.143,0.965 0.926,0.641 1.56,1.438 1.901,2.387 0.341,0.951 0.511,3.277 0.511,6.98 l 0,10.919 6.848,0 0,-25.88 -6.36,0" />
                <path
                   inkscape:connector-curvature="0"
                   id="path6622"
                   style="fill:#bbbaba;fill-opacity:1;fill-rule:nonzero;stroke:none"
                   d="m 99.905,13.742 0,6.018 15.547,0 0,-14.229 C 113.941,4.066 111.752,2.779 108.884,1.668 106.017,0.555 103.113,0 100.173,0 c -3.735,0 -6.994,0.783 -9.771,2.35 -2.778,1.568 -4.866,3.808 -6.263,6.726 -1.397,2.916 -2.095,6.088 -2.095,9.515 0,3.719 0.779,7.025 2.339,9.917 1.559,2.893 3.842,5.109 6.847,6.653 2.291,1.186 5.142,1.778 8.553,1.778 4.435,0 7.9,-0.929 10.393,-2.789 2.494,-1.86 4.098,-4.432 4.813,-7.713 l -7.164,-1.34 c -0.504,1.754 -1.45,3.139 -2.839,4.155 -1.389,1.015 -3.123,1.524 -5.203,1.524 -3.151,0 -5.657,-1 -7.516,-2.999 -1.862,-1.998 -2.79,-4.962 -2.79,-8.893 0,-4.241 0.941,-7.421 2.825,-9.54 1.885,-2.119 4.354,-3.18 7.408,-3.18 1.511,0 3.025,0.297 4.545,0.889 1.519,0.593 2.822,1.312 3.911,2.156 l 0,4.533 -8.261,0" />
                <path
                   inkscape:connector-curvature="0"
                   id="path6624"
                   style="fill:#bbbaba;fill-opacity:1;fill-rule:nonzero;stroke:none"
                   d="m 124.495,13.547 c 0,-2.567 0.609,-4.533 1.828,-5.897 1.218,-1.365 2.72,-2.046 4.508,-2.046 1.786,0 3.285,0.681 4.496,2.046 1.209,1.364 1.815,3.346 1.815,5.946 0,2.535 -0.606,4.484 -1.815,5.848 -1.211,1.365 -2.71,2.046 -4.496,2.046 -1.788,0 -3.29,-0.681 -4.508,-2.046 -1.219,-1.364 -1.828,-3.329 -1.828,-5.897 z m -7.017,0.365 c 0,2.274 0.559,4.475 1.68,6.603 1.121,2.129 2.709,3.754 4.764,4.874 2.056,1.122 4.349,1.683 6.884,1.683 3.915,0 7.124,-1.272 9.625,-3.814 2.503,-2.542 3.754,-5.754 3.754,-9.637 0,-3.916 -1.265,-7.16 -3.789,-9.734 -2.528,-2.576 -5.708,-3.863 -9.541,-3.863 -2.373,0 -4.635,0.535 -6.786,1.609 -2.154,1.07 -3.79,2.642 -4.911,4.713 -1.121,2.072 -1.68,4.593 -1.68,7.566" />
              </g>
            </g>
            <g
               id="g6626">
              <g
                 clip-path="url(#clipPath6630)"
                 id="g6628">
                <path
                   inkscape:connector-curvature="0"
                   id="path6634"
                   style="fill:#bbbaba;fill-opacity:1;fill-rule:nonzero;stroke:none"
                   d="m 153.666,0.607 -10.43,25.88 7.189,0 4.873,-13.21 1.414,-4.408 c 0.373,1.119 0.609,1.86 0.706,2.217 0.228,0.73 0.472,1.463 0.731,2.191 l 4.923,13.21 7.042,0 -10.283,-25.88 -6.165,0" />
                <path
                   inkscape:connector-curvature="0"
                   id="path6636"
                   style="fill:#bbbaba;fill-opacity:1;fill-rule:nonzero;stroke:none"
                   d="m 170.692,31.517 0.731,0 c 0.348,0 0.587,0.052 0.714,0.156 0.127,0.104 0.19,0.242 0.19,0.413 0,0.11 -0.03,0.209 -0.092,0.296 -0.061,0.088 -0.146,0.153 -0.255,0.196 -0.108,0.042 -0.309,0.064 -0.603,0.064 l -0.685,0 0,-1.125 z m -0.601,-2.099 0,3.729 1.281,0 c 0.438,0 0.755,-0.035 0.95,-0.104 0.197,-0.068 0.353,-0.188 0.469,-0.36 0.116,-0.171 0.175,-0.353 0.175,-0.546 0,-0.273 -0.098,-0.51 -0.292,-0.712 -0.195,-0.202 -0.452,-0.316 -0.774,-0.34 0.131,-0.055 0.238,-0.121 0.317,-0.197 0.15,-0.147 0.334,-0.394 0.551,-0.74 l 0.455,-0.73 -0.735,0 -0.331,0.588 c -0.26,0.462 -0.469,0.751 -0.629,0.868 -0.11,0.086 -0.271,0.128 -0.482,0.128 l -0.354,0 0,-1.584 -0.601,0 z m 1.519,4.808 c -0.486,0 -0.96,-0.124 -1.421,-0.374 -0.46,-0.25 -0.821,-0.606 -1.081,-1.07 -0.26,-0.464 -0.39,-0.947 -0.39,-1.449 0,-0.499 0.128,-0.977 0.384,-1.435 0.254,-0.458 0.612,-0.814 1.072,-1.07 0.459,-0.256 0.937,-0.384 1.436,-0.384 0.499,0 0.979,0.128 1.438,0.384 0.46,0.256 0.816,0.612 1.07,1.07 0.254,0.458 0.381,0.936 0.381,1.435 0,0.502 -0.129,0.985 -0.388,1.449 -0.258,0.464 -0.619,0.82 -1.081,1.07 -0.463,0.25 -0.935,0.374 -1.42,0.374 z m 0,0.574 c 0.582,0 1.151,-0.149 1.704,-0.447 0.554,-0.299 0.986,-0.726 1.295,-1.282 0.31,-0.555 0.464,-1.135 0.464,-1.738 0,-0.597 -0.152,-1.171 -0.457,-1.722 -0.304,-0.551 -0.731,-0.979 -1.281,-1.284 -0.55,-0.304 -1.124,-0.456 -1.725,-0.456 -0.599,0 -1.174,0.152 -1.723,0.456 -0.55,0.305 -0.978,0.733 -1.284,1.284 -0.306,0.551 -0.459,1.125 -0.459,1.722 0,0.603 0.155,1.183 0.465,1.738 0.312,0.556 0.744,0.983 1.298,1.282 0.554,0.298 1.122,0.447 1.703,0.447" />
              </g>
            </g>
          </g>
        </g>
      </g>
    </g>
  </g>
</svg>
