<?xml version="1.0" encoding="UTF-8" standalone="no"?>
<!-- Generator: Adobe Illustrator 19.2.1, SVG Export Plug-In . SVG Version: 6.00 Build 0)  -->

<svg
   xmlns:dc="http://purl.org/dc/elements/1.1/"
   xmlns:cc="http://creativecommons.org/ns#"
   xmlns:rdf="http://www.w3.org/1999/02/22-rdf-syntax-ns#"
   xmlns:svg="http://www.w3.org/2000/svg"
   xmlns="http://www.w3.org/2000/svg"
   xmlns:xlink="http://www.w3.org/1999/xlink"
   xmlns:sodipodi="http://sodipodi.sourceforge.net/DTD/sodipodi-0.dtd"
   xmlns:inkscape="http://www.inkscape.org/namespaces/inkscape"
   version="1.1"
   id="logo_lockups"
   x="0px"
   y="0px"
   viewBox="0 0 500 200"
   style="enable-background:new 0 0 500 200;"
   xml:space="preserve"
   inkscape:version="0.91 r13725"
   sodipodi:docname="zendesk.svg"><metadata
     id="metadata45"><rdf:RDF><cc:Work
         rdf:about=""><dc:format>image/svg+xml</dc:format><dc:type
           rdf:resource="http://purl.org/dc/dcmitype/StillImage" /></cc:Work></rdf:RDF></metadata><defs
     id="defs43" /><sodipodi:namedview
     pagecolor="#ffffff"
     bordercolor="#666666"
     borderopacity="1"
     objecttolerance="10"
     gridtolerance="10"
     guidetolerance="10"
     inkscape:pageopacity="0"
     inkscape:pageshadow="2"
     inkscape:window-width="1920"
     inkscape:window-height="1056"
     id="namedview41"
     showgrid="false"
     inkscape:zoom="0.596"
     inkscape:cx="250"
     inkscape:cy="100"
     inkscape:window-x="0"
     inkscape:window-y="24"
     inkscape:window-maximized="1"
     inkscape:current-layer="logo_lockups" /><style
     type="text/css"
     id="style3">
	.st0{fill:#0D363D;}
	.st1{clip-path:url(#SVGID_2_);fill:#03363D;}
	.st2{fill:#03363D;}
</style><title
     id="title5">support_horizontal 2</title><g
     id="g7"
     transform="matrix(1.6217055,0,0,1.6217055,-125.75141,-69.372332)"><path
       class="st0"
       d="m 167.2,120 16.7,-17 -16.3,0 0,-5.3 24,0 0,5.5 -16.7,17 16.9,0 0,5.3 -24.6,0 0,-5.5 z"
       id="path9"
       inkscape:connector-curvature="0"
       style="fill:#0d363d" /><path
       class="st0"
       d="m 194.7,111.7 c 0,-8.2 6.3,-14.6 14.5,-14.6 8.2,0 14.3,6 14.3,14.2 l 0,2.3 -23,0 c 0.8,4.3 4.1,7.1 9,7.1 3.8,0 6.7,-2 8.1,-5 l 4.9,2.7 c -2.4,4.6 -6.8,7.6 -13,7.6 -8.9,0 -14.8,-6.3 -14.8,-14.3 z m 6,-3.1 16.7,0 c -0.9,-4 -3.9,-6.2 -8.2,-6.2 -4.2,-0.1 -7.4,2.5 -8.5,6.2 z"
       id="path11"
       inkscape:connector-curvature="0"
       style="fill:#0d363d" /><path
       class="st0"
       d="m 228.2,97.7 5.9,0 0,3.6 c 1.9,-2.6 4.9,-4.2 8.6,-4.2 7,0 11.3,4.6 11.3,12.1 l 0,16.2 -6,0 0,-15.7 c 0,-4.6 -2.3,-7.5 -6.7,-7.5 -4,0 -7.1,3 -7.1,7.9 l 0,15.3 -6,0 0,-27.7 z"
       id="path13"
       inkscape:connector-curvature="0"
       style="fill:#0d363d" /><path
       class="st0"
       d="m 258.7,111.6 c 0,-8.9 6.6,-14.5 13.9,-14.5 3.7,0 7.2,1.6 9.2,4.2 l 0,-16.4 5.9,0 0,40.6 -5.9,0 0,-3.8 c -2.1,2.7 -5.6,4.4 -9.3,4.4 -7.1,-0.1 -13.8,-5.7 -13.8,-14.5 z m 23.4,-0.1 c 0,-5 -3.7,-9 -8.8,-9 -5,0 -8.8,3.9 -8.8,9 0,5.1 3.8,9.1 8.8,9.1 5.1,0 8.8,-4.1 8.8,-9.1 z"
       id="path15"
       inkscape:connector-curvature="0"
       style="fill:#0d363d" /><path
       class="st0"
       d="m 292.4,111.7 c 0,-8.2 6.3,-14.6 14.5,-14.6 8.2,0 14.3,6 14.3,14.2 l 0,2.3 -23,0 c 0.8,4.3 4.1,7.1 9,7.1 3.8,0 6.7,-2 8.1,-5 l 4.9,2.7 c -2.4,4.6 -6.8,7.6 -13,7.6 -8.9,0 -14.8,-6.3 -14.8,-14.3 z m 6,-3.1 16.7,0 c -0.9,-4 -3.9,-6.2 -8.2,-6.2 -4.1,-0.1 -7.4,2.5 -8.5,6.2 z"
       id="path17"
       inkscape:connector-curvature="0"
       style="fill:#0d363d" /><path
       class="st0"
       d="m 323.8,119.7 5.3,-2.9 c 1.6,2.6 4,4 7.3,4 3.4,0 5.2,-1.7 5.2,-3.6 0,-2.3 -3.3,-2.8 -6.9,-3.6 -4.7,-0.9 -9.7,-2.5 -9.7,-8.2 0,-4.4 4.2,-8.5 10.8,-8.4 5.4,0 9,2 11.3,5.4 l -5,2.7 c -1.3,-2 -3.4,-3.2 -6.3,-3.2 -3.3,0 -4.8,1.5 -4.8,3.3 0,2 2.4,2.4 6.6,3.4 4.7,1 10,2.6 10,8.4 0,4.2 -3.7,9 -11.5,8.9 -5.9,0.1 -9.9,-2.1 -12.3,-6.2 z"
       id="path19"
       inkscape:connector-curvature="0"
       style="fill:#0d363d" /><path
       class="st0"
       d="m 362.8,113.1 -4.7,5.1 0,7.2 -5.9,0 0,-40.5 5.9,0 0,26.6 12.5,-13.8 7.2,0 -10.8,11.9 11.1,15.9 -6.7,0 -8.6,-12.4 z"
       id="path21"
       inkscape:connector-curvature="0"
       style="fill:#0d363d" /></g><g
     id="g23"
     transform="matrix(1.6217055,0,0,1.6217055,-56.483966,-69.372332)"><g
       id="g25"><defs
         id="defs27"><rect
           id="SVGID_1_"
           x="43.700001"
           y="82"
           width="61.099998"
           height="46.299999" /></defs><clipPath
         id="SVGID_2_"><use
           xlink:href="#SVGID_1_"
           style="overflow:visible"
           id="use31"
           x="0"
           y="0"
           width="100%"
           height="100%" /></clipPath><polygon
         class="st1"
         points="71.9,128.3 43.7,128.3 71.9,94.2 71.9,94.2 "
         id="polygon33"
         clip-path="url(#SVGID_2_)"
         style="fill:#03363d" /><path
         class="st1"
         d="m 71.9,82 c 0,7.8 -6.3,14.1 -14.1,14.1 C 50,96.1 43.7,89.8 43.7,82 l 28.2,0 0,0 z"
         id="path35"
         clip-path="url(#SVGID_2_)"
         inkscape:connector-curvature="0"
         style="fill:#03363d" /></g><path
       class="st2"
       d="m 76.6,128.3 c 0,-7.8 6.3,-14.1 14.1,-14.1 7.8,0 14.1,6.3 14.1,14.1 l -28.2,0 0,0 z"
       id="path37"
       inkscape:connector-curvature="0"
       style="fill:#03363d" /><polygon
       class="st2"
       points="76.6,82 104.8,82 76.6,116.1 76.6,116.1 "
       id="polygon39"
       style="fill:#03363d" /></g></svg>